%FSLAX45Y45*%
G04 Gerber Fmt 4.5, Leading zero omitted, Abs format (unit mm)*
G04 Created by KiCad (PCBNEW (6.0.0)) date 2023-06-19 18:06:40*
%MOMM*%
%LPD*%
G01*
G04 APERTURE LIST*
%TA.AperFunction,Profile*%
%ADD10C,0.250000*%
%TD*%
%ADD11C,0.200000*%
G04 APERTURE END LIST*
D10*
X7897324Y-8733500D02*
X9958876Y-8733500D01*
X7897324Y-8733500D02*
G75*
G03*
X9958876Y-8733500I1030776J-2000000D01*
G01*
D11*
X6923219Y-13306476D02*
X6923219Y-13106476D01*
X6970838Y-13106476D01*
X6999409Y-13116000D01*
X7018457Y-13135048D01*
X7027981Y-13154095D01*
X7037505Y-13192190D01*
X7037505Y-13220762D01*
X7027981Y-13258857D01*
X7018457Y-13277905D01*
X6999409Y-13296952D01*
X6970838Y-13306476D01*
X6923219Y-13306476D01*
X7123219Y-13306476D02*
X7123219Y-13173143D01*
X7123219Y-13211238D02*
X7132743Y-13192190D01*
X7142267Y-13182667D01*
X7161314Y-13173143D01*
X7180362Y-13173143D01*
X7247028Y-13306476D02*
X7247028Y-13173143D01*
X7247028Y-13106476D02*
X7237505Y-13116000D01*
X7247028Y-13125524D01*
X7256552Y-13116000D01*
X7247028Y-13106476D01*
X7247028Y-13125524D01*
X7370838Y-13306476D02*
X7351790Y-13296952D01*
X7342267Y-13277905D01*
X7342267Y-13106476D01*
X7475600Y-13306476D02*
X7456552Y-13296952D01*
X7447028Y-13277905D01*
X7447028Y-13106476D01*
X7704171Y-13306476D02*
X7704171Y-13106476D01*
X7770838Y-13249333D01*
X7837505Y-13106476D01*
X7837505Y-13306476D01*
X8018457Y-13306476D02*
X8018457Y-13201714D01*
X8008933Y-13182667D01*
X7989886Y-13173143D01*
X7951790Y-13173143D01*
X7932743Y-13182667D01*
X8018457Y-13296952D02*
X7999409Y-13306476D01*
X7951790Y-13306476D01*
X7932743Y-13296952D01*
X7923219Y-13277905D01*
X7923219Y-13258857D01*
X7932743Y-13239809D01*
X7951790Y-13230286D01*
X7999409Y-13230286D01*
X8018457Y-13220762D01*
X8113695Y-13173143D02*
X8113695Y-13373143D01*
X8113695Y-13182667D02*
X8132743Y-13173143D01*
X8170838Y-13173143D01*
X8189886Y-13182667D01*
X8199409Y-13192190D01*
X8208933Y-13211238D01*
X8208933Y-13268381D01*
X8199409Y-13287428D01*
X8189886Y-13296952D01*
X8170838Y-13306476D01*
X8132743Y-13306476D01*
X8113695Y-13296952D01*
X8294648Y-13287428D02*
X8304171Y-13296952D01*
X8294648Y-13306476D01*
X8285124Y-13296952D01*
X8294648Y-13287428D01*
X8294648Y-13306476D01*
X8294648Y-13182667D02*
X8304171Y-13192190D01*
X8294648Y-13201714D01*
X8285124Y-13192190D01*
X8294648Y-13182667D01*
X8294648Y-13201714D01*
M02*
