%TF.GenerationSoftware,KiCad,Pcbnew,(6.0.0)*%
%TF.CreationDate,2023-06-19T18:06:32-05:00*%
%TF.ProjectId,RoundScanner,526f756e-6453-4636-916e-6e65722e6b69,1.0*%
%TF.SameCoordinates,Original*%
%TF.FileFunction,Copper,L4,Bot*%
%TF.FilePolarity,Positive*%
%FSLAX46Y46*%
G04 Gerber Fmt 4.6, Leading zero omitted, Abs format (unit mm)*
G04 Created by KiCad (PCBNEW (6.0.0)) date 2023-06-19 18:06:32*
%MOMM*%
%LPD*%
G01*
G04 APERTURE LIST*
G04 Aperture macros list*
%AMRoundRect*
0 Rectangle with rounded corners*
0 $1 Rounding radius*
0 $2 $3 $4 $5 $6 $7 $8 $9 X,Y pos of 4 corners*
0 Add a 4 corners polygon primitive as box body*
4,1,4,$2,$3,$4,$5,$6,$7,$8,$9,$2,$3,0*
0 Add four circle primitives for the rounded corners*
1,1,$1+$1,$2,$3*
1,1,$1+$1,$4,$5*
1,1,$1+$1,$6,$7*
1,1,$1+$1,$8,$9*
0 Add four rect primitives between the rounded corners*
20,1,$1+$1,$2,$3,$4,$5,0*
20,1,$1+$1,$4,$5,$6,$7,0*
20,1,$1+$1,$6,$7,$8,$9,0*
20,1,$1+$1,$8,$9,$2,$3,0*%
%AMHorizOval*
0 Thick line with rounded ends*
0 $1 width*
0 $2 $3 position (X,Y) of the first rounded end (center of the circle)*
0 $4 $5 position (X,Y) of the second rounded end (center of the circle)*
0 Add line between two ends*
20,1,$1,$2,$3,$4,$5,0*
0 Add two circle primitives to create the rounded ends*
1,1,$1,$2,$3*
1,1,$1,$4,$5*%
%AMRotRect*
0 Rectangle, with rotation*
0 The origin of the aperture is its center*
0 $1 length*
0 $2 width*
0 $3 Rotation angle, in degrees counterclockwise*
0 Add horizontal line*
21,1,$1,$2,0,0,$3*%
G04 Aperture macros list end*
%TA.AperFunction,ComponentPad*%
%ADD10C,3.500000*%
%TD*%
%TA.AperFunction,ComponentPad*%
%ADD11RotRect,1.700000X1.700000X45.000000*%
%TD*%
%TA.AperFunction,ComponentPad*%
%ADD12HorizOval,1.700000X0.000000X0.000000X0.000000X0.000000X0*%
%TD*%
%TA.AperFunction,ComponentPad*%
%ADD13RotRect,1.700000X1.700000X225.000000*%
%TD*%
%TA.AperFunction,ComponentPad*%
%ADD14HorizOval,1.700000X0.000000X0.000000X0.000000X0.000000X0*%
%TD*%
%TA.AperFunction,SMDPad,CuDef*%
%ADD15RoundRect,0.150000X-0.150000X-0.625000X0.150000X-0.625000X0.150000X0.625000X-0.150000X0.625000X0*%
%TD*%
%TA.AperFunction,SMDPad,CuDef*%
%ADD16RoundRect,0.250000X-0.350000X-0.650000X0.350000X-0.650000X0.350000X0.650000X-0.350000X0.650000X0*%
%TD*%
%TA.AperFunction,SMDPad,CuDef*%
%ADD17RoundRect,0.250000X0.325000X0.450000X-0.325000X0.450000X-0.325000X-0.450000X0.325000X-0.450000X0*%
%TD*%
%TA.AperFunction,ViaPad*%
%ADD18C,0.800000*%
%TD*%
%TA.AperFunction,Conductor*%
%ADD19C,0.500000*%
%TD*%
%TA.AperFunction,Conductor*%
%ADD20C,0.250000*%
%TD*%
G04 APERTURE END LIST*
D10*
%TO.P,H2,1,1*%
%TO.N,GND*%
X72136000Y-97556000D03*
%TD*%
%TO.P,H1,1,1*%
%TO.N,GND*%
X103632000Y-115717000D03*
%TD*%
D11*
%TO.P,J4,1,Pin_1*%
%TO.N,GND*%
X106831000Y-96319000D03*
D12*
%TO.P,J4,2,Pin_2*%
%TO.N,LED RESET*%
X105034949Y-94522949D03*
%TO.P,J4,3,Pin_3*%
%TO.N,AS7341_INT*%
X103238898Y-92726898D03*
%TO.P,J4,4,Pin_4*%
%TO.N,DRDY_INT*%
X101442846Y-90930846D03*
%TD*%
D13*
%TO.P,J1,1,Pin_1*%
%TO.N,GND*%
X77975672Y-121628317D03*
D14*
%TO.P,J1,2,Pin_2*%
%TO.N,+3V3*%
X79771723Y-123424368D03*
%TO.P,J1,3,Pin_3*%
%TO.N,SDA*%
X81567774Y-125220419D03*
%TO.P,J1,4,Pin_4*%
%TO.N,SCL*%
X83363826Y-127016471D03*
%TD*%
D15*
%TO.P,J3,1,Pin_1*%
%TO.N,GND*%
X88416000Y-126968000D03*
%TO.P,J3,2,Pin_2*%
%TO.N,+3V3*%
X89416000Y-126968000D03*
%TO.P,J3,3,Pin_3*%
%TO.N,SDA*%
X90416000Y-126968000D03*
%TO.P,J3,4,Pin_4*%
%TO.N,SCL*%
X91416000Y-126968000D03*
D16*
%TO.P,J3,MP,Pin_5*%
%TO.N,GND*%
X87116000Y-123093000D03*
X92716000Y-123093000D03*
%TD*%
D17*
%TO.P,D2,1,K*%
%TO.N,GND*%
X98561000Y-124460000D03*
%TO.P,D2,2,A*%
%TO.N,Net-(D2-Pad2)*%
X96511000Y-124460000D03*
%TD*%
D18*
%TO.N,+3V3*%
X90574204Y-96811500D03*
X78411285Y-107574192D03*
X81941000Y-102869000D03*
X89408000Y-125476000D03*
X76200000Y-105410000D03*
X106531000Y-104319000D03*
X74676000Y-118745000D03*
X93726000Y-116967000D03*
X70871000Y-113929000D03*
X84963000Y-97155000D03*
X85001000Y-113509000D03*
X105871000Y-110849000D03*
X91059000Y-92710000D03*
X91402051Y-100123252D03*
X91331250Y-112159250D03*
X83185000Y-116459000D03*
%TO.N,Net-(C2-Pad2)*%
X88048500Y-91816701D03*
X103251000Y-97155000D03*
%TO.N,/ADC/AIN+*%
X80645000Y-96012000D03*
X78867000Y-90424000D03*
%TO.N,SDA*%
X75381000Y-109069000D03*
X102362000Y-109982000D03*
X90321000Y-123919000D03*
X83819942Y-123004567D03*
X79536989Y-111252000D03*
%TO.N,LED RESET*%
X109601000Y-111633000D03*
%TO.N,Net-(R25-Pad1)*%
X103692257Y-111133368D03*
X108157333Y-108095500D03*
%TO.N,Net-(R26-Pad1)*%
X107061000Y-107315000D03*
X99441000Y-110871000D03*
%TO.N,Net-(R27-Pad1)*%
X106680000Y-105791000D03*
X82991000Y-99649000D03*
%TO.N,Net-(R28-Pad1)*%
X107569000Y-105283000D03*
X84391000Y-99629000D03*
%TO.N,DRDY_INT*%
X72390000Y-105410000D03*
%TO.N,SCL*%
X102487287Y-111476921D03*
X85641000Y-123059000D03*
X75315299Y-112644701D03*
X91440000Y-123825000D03*
%TO.N,Net-(D2-Pad2)*%
X95135000Y-124257513D03*
%TO.N,+1V8*%
X80141999Y-109974704D03*
X82231000Y-115369000D03*
%TO.N,/ADC/AIN2+*%
X75565000Y-92583000D03*
X98425000Y-117856000D03*
%TO.N,/ADC/AIN2-*%
X87080500Y-112919448D03*
X77597000Y-90678000D03*
%TO.N,GND*%
X105029000Y-119380000D03*
X99231000Y-89019000D03*
X102235000Y-117983000D03*
X84963000Y-116332000D03*
X89916000Y-89027000D03*
X107696000Y-98171000D03*
X85852000Y-92837000D03*
X108131000Y-109639000D03*
X99314000Y-116205000D03*
X95885000Y-89027000D03*
X101981000Y-122809000D03*
X81601000Y-110099000D03*
X106934000Y-115316000D03*
X106934000Y-117856000D03*
X108839000Y-99568000D03*
X97901000Y-98409000D03*
X84328000Y-88773000D03*
X100330000Y-93091000D03*
X73571000Y-113649000D03*
X83461000Y-106149000D03*
X72301000Y-109149000D03*
X100203000Y-123952000D03*
X79751000Y-126269000D03*
X79551000Y-116279000D03*
X85971000Y-128069000D03*
%TO.N,AS7341_INT*%
X80291000Y-105329000D03*
%TD*%
D19*
%TO.N,+3V3*%
X89408000Y-126960000D02*
X89416000Y-126968000D01*
X89408000Y-125476000D02*
X89408000Y-126960000D01*
X84963000Y-97155000D02*
X85979000Y-97155000D01*
X85979000Y-97155000D02*
X90424000Y-92710000D01*
X90424000Y-92710000D02*
X91059000Y-92710000D01*
D20*
%TO.N,SDA*%
X90416000Y-124014000D02*
X90321000Y-123919000D01*
X102362000Y-109982000D02*
X90321000Y-122023000D01*
X90416000Y-126968000D02*
X90416000Y-124014000D01*
X90321000Y-122023000D02*
X90321000Y-123919000D01*
%TO.N,LED RESET*%
X109601000Y-111633000D02*
X109601000Y-102031439D01*
X104251278Y-96681717D02*
X104251278Y-94253633D01*
X109601000Y-102031439D02*
X104251278Y-96681717D01*
%TO.N,Net-(R25-Pad1)*%
X108157333Y-108095500D02*
X106854500Y-108095500D01*
X103816632Y-111133368D02*
X103692257Y-111133368D01*
X106854500Y-108095500D02*
X103816632Y-111133368D01*
%TO.N,Net-(R26-Pad1)*%
X102870000Y-107315000D02*
X99441000Y-110744000D01*
X107061000Y-107315000D02*
X102870000Y-107315000D01*
X99441000Y-110744000D02*
X99441000Y-110871000D01*
%TO.N,Net-(R27-Pad1)*%
X106680000Y-105791000D02*
X89133000Y-105791000D01*
X89133000Y-105791000D02*
X82991000Y-99649000D01*
%TO.N,Net-(R28-Pad1)*%
X107569000Y-105283000D02*
X107329501Y-105043501D01*
X89805501Y-105043501D02*
X84391000Y-99629000D01*
X107329501Y-105043501D02*
X89805501Y-105043501D01*
%TO.N,DRDY_INT*%
X85431000Y-95919000D02*
X81881000Y-95919000D01*
X100592846Y-90080846D02*
X91269154Y-90080846D01*
X101442846Y-90930846D02*
X100592846Y-90080846D01*
X81881000Y-95919000D02*
X72390000Y-105410000D01*
X91269154Y-90080846D02*
X85431000Y-95919000D01*
%TO.N,SCL*%
X91440000Y-123825000D02*
X91440000Y-126944000D01*
X91440000Y-122555704D02*
X91440000Y-123825000D01*
X102487287Y-111508417D02*
X91440000Y-122555704D01*
X91440000Y-126944000D02*
X91416000Y-126968000D01*
%TO.N,Net-(D2-Pad2)*%
X96511000Y-124460000D02*
X96308513Y-124257513D01*
X96308513Y-124257513D02*
X95135000Y-124257513D01*
%TO.N,+1V8*%
X82231000Y-115369000D02*
X82231000Y-112063705D01*
X82231000Y-112063705D02*
X80141999Y-109974704D01*
%TO.N,GND*%
X98561000Y-124460000D02*
X99695000Y-124460000D01*
X99695000Y-124460000D02*
X100203000Y-123952000D01*
%TO.N,AS7341_INT*%
X80291000Y-105329000D02*
X80291000Y-99541000D01*
X91135518Y-91186000D02*
X99695000Y-91186000D01*
X85928518Y-96393000D02*
X91135518Y-91186000D01*
X99695000Y-91186000D02*
X101055898Y-92546898D01*
X101055898Y-92546898D02*
X102706898Y-92546898D01*
X80291000Y-99541000D02*
X83439000Y-96393000D01*
X83439000Y-96393000D02*
X85928518Y-96393000D01*
%TD*%
%TA.AperFunction,Conductor*%
%TO.N,GND*%
G36*
X99414170Y-88150256D02*
G01*
X100033342Y-88486269D01*
X100037979Y-88488916D01*
X100292106Y-88641199D01*
X100766601Y-88925535D01*
X100814752Y-88977707D01*
X100827053Y-89047630D01*
X100799598Y-89113103D01*
X100741104Y-89153339D01*
X100695240Y-89159442D01*
X100677547Y-89158515D01*
X100668782Y-89158055D01*
X100662210Y-89157538D01*
X100644624Y-89155690D01*
X100644622Y-89155690D01*
X100641350Y-89155346D01*
X100620382Y-89155346D01*
X100613788Y-89155173D01*
X100550735Y-89151868D01*
X100550730Y-89151868D01*
X100544143Y-89151523D01*
X100529797Y-89153795D01*
X100510088Y-89155346D01*
X91351913Y-89155346D01*
X91332204Y-89153795D01*
X91317858Y-89151523D01*
X91311270Y-89151868D01*
X91311266Y-89151868D01*
X91248206Y-89155173D01*
X91241612Y-89155346D01*
X91220650Y-89155346D01*
X91217379Y-89155690D01*
X91217376Y-89155690D01*
X91199799Y-89157537D01*
X91193224Y-89158054D01*
X91130172Y-89161358D01*
X91130168Y-89161359D01*
X91123577Y-89161704D01*
X91109534Y-89165467D01*
X91090116Y-89169066D01*
X91075672Y-89170584D01*
X91009324Y-89192141D01*
X91003086Y-89193990D01*
X90935657Y-89212058D01*
X90929774Y-89215056D01*
X90929773Y-89215056D01*
X90922717Y-89218651D01*
X90904454Y-89226216D01*
X90890646Y-89230702D01*
X90884930Y-89234002D01*
X90884928Y-89234003D01*
X90830235Y-89265580D01*
X90824437Y-89268728D01*
X90762314Y-89300381D01*
X90757182Y-89304536D01*
X90757180Y-89304538D01*
X90751027Y-89309520D01*
X90734742Y-89320713D01*
X90722162Y-89327976D01*
X90717253Y-89332396D01*
X90717249Y-89332399D01*
X90670333Y-89374642D01*
X90665318Y-89378926D01*
X90656679Y-89385922D01*
X90649024Y-89392121D01*
X90634209Y-89406936D01*
X90629425Y-89411477D01*
X90583949Y-89452424D01*
X90577585Y-89458154D01*
X90569045Y-89469909D01*
X90556214Y-89484931D01*
X89075189Y-90965956D01*
X89012877Y-90999982D01*
X88942061Y-90994917D01*
X88900565Y-90969385D01*
X88786695Y-90864124D01*
X88786689Y-90864119D01*
X88782449Y-90860200D01*
X88595850Y-90742465D01*
X88390921Y-90660707D01*
X88385261Y-90659581D01*
X88385257Y-90659580D01*
X88180191Y-90618790D01*
X88180188Y-90618790D01*
X88174524Y-90617663D01*
X88168749Y-90617587D01*
X88168745Y-90617587D01*
X88058004Y-90616138D01*
X87953906Y-90614775D01*
X87948209Y-90615754D01*
X87948208Y-90615754D01*
X87742154Y-90651160D01*
X87742153Y-90651160D01*
X87736457Y-90652139D01*
X87529457Y-90728505D01*
X87524496Y-90731457D01*
X87524495Y-90731457D01*
X87444489Y-90779056D01*
X87339841Y-90841315D01*
X87173957Y-90986791D01*
X87037363Y-91160061D01*
X86934631Y-91355321D01*
X86869203Y-91566034D01*
X86843270Y-91785141D01*
X86857700Y-92005305D01*
X86859121Y-92010901D01*
X86859122Y-92010906D01*
X86894043Y-92148405D01*
X86912011Y-92219153D01*
X86914428Y-92224395D01*
X86914428Y-92224396D01*
X86941084Y-92282216D01*
X87004383Y-92419522D01*
X87131722Y-92599703D01*
X87197167Y-92663457D01*
X87232004Y-92725317D01*
X87227867Y-92796193D01*
X87198340Y-92842805D01*
X85084550Y-94956595D01*
X85022238Y-94990621D01*
X84995455Y-94993500D01*
X81963758Y-94993500D01*
X81944049Y-94991949D01*
X81929703Y-94989677D01*
X81923116Y-94990022D01*
X81923111Y-94990022D01*
X81860058Y-94993327D01*
X81853464Y-94993500D01*
X81832496Y-94993500D01*
X81829224Y-94993844D01*
X81829222Y-94993844D01*
X81811636Y-94995692D01*
X81805062Y-94996209D01*
X81742017Y-94999513D01*
X81742014Y-94999514D01*
X81735422Y-94999859D01*
X81721393Y-95003618D01*
X81701951Y-95007221D01*
X81687518Y-95008738D01*
X81621196Y-95030287D01*
X81614885Y-95032157D01*
X81547503Y-95050212D01*
X81541623Y-95053208D01*
X81534563Y-95056805D01*
X81516300Y-95064370D01*
X81502492Y-95068856D01*
X81501764Y-95069276D01*
X81433518Y-95078427D01*
X81379129Y-95055214D01*
X81378949Y-95055499D01*
X81377177Y-95054381D01*
X81192350Y-94937764D01*
X80987421Y-94856006D01*
X80981761Y-94854880D01*
X80981757Y-94854879D01*
X80776691Y-94814089D01*
X80776688Y-94814089D01*
X80771024Y-94812962D01*
X80765249Y-94812886D01*
X80765245Y-94812886D01*
X80654504Y-94811437D01*
X80550406Y-94810074D01*
X80544709Y-94811053D01*
X80544708Y-94811053D01*
X80338654Y-94846459D01*
X80338653Y-94846459D01*
X80332957Y-94847438D01*
X80125957Y-94923804D01*
X80120996Y-94926756D01*
X80120995Y-94926756D01*
X79995250Y-95001567D01*
X79936341Y-95036614D01*
X79770457Y-95182090D01*
X79633863Y-95355360D01*
X79531131Y-95550620D01*
X79465703Y-95761333D01*
X79439770Y-95980440D01*
X79454200Y-96200604D01*
X79455621Y-96206200D01*
X79455622Y-96206205D01*
X79507090Y-96408857D01*
X79508511Y-96414452D01*
X79600883Y-96614821D01*
X79604216Y-96619537D01*
X79653649Y-96689483D01*
X79676630Y-96756657D01*
X79659646Y-96825592D01*
X79639847Y-96851298D01*
X72308818Y-104182327D01*
X72241061Y-104217412D01*
X72077957Y-104245438D01*
X71870957Y-104321804D01*
X71865996Y-104324756D01*
X71865995Y-104324756D01*
X71761632Y-104386846D01*
X71681341Y-104434614D01*
X71515457Y-104580090D01*
X71378863Y-104753360D01*
X71276131Y-104948620D01*
X71210703Y-105159333D01*
X71184770Y-105378440D01*
X71199200Y-105598604D01*
X71200621Y-105604200D01*
X71200622Y-105604205D01*
X71228339Y-105713338D01*
X71253511Y-105812452D01*
X71255928Y-105817694D01*
X71255928Y-105817695D01*
X71294046Y-105900379D01*
X71345883Y-106012821D01*
X71473222Y-106193002D01*
X71631264Y-106346961D01*
X71636060Y-106350166D01*
X71636063Y-106350168D01*
X71720261Y-106406427D01*
X71814717Y-106469540D01*
X71820020Y-106471818D01*
X71820023Y-106471820D01*
X72004625Y-106551131D01*
X72017436Y-106556635D01*
X72064604Y-106567308D01*
X72226995Y-106604054D01*
X72227001Y-106604055D01*
X72232632Y-106605329D01*
X72238403Y-106605556D01*
X72238405Y-106605556D01*
X72306211Y-106608220D01*
X72453098Y-106613991D01*
X72578200Y-106595852D01*
X72665738Y-106583160D01*
X72665743Y-106583159D01*
X72671452Y-106582331D01*
X72676916Y-106580476D01*
X72676921Y-106580475D01*
X72874907Y-106513268D01*
X72874912Y-106513266D01*
X72880379Y-106511410D01*
X72885992Y-106508267D01*
X73030057Y-106427586D01*
X73072884Y-106403602D01*
X73107181Y-106375078D01*
X73238086Y-106266204D01*
X73242518Y-106262518D01*
X73306820Y-106185204D01*
X73379908Y-106097326D01*
X73379910Y-106097323D01*
X73383602Y-106092884D01*
X73491410Y-105900379D01*
X73493266Y-105894912D01*
X73493268Y-105894907D01*
X73560475Y-105696921D01*
X73560476Y-105696916D01*
X73562331Y-105691452D01*
X73580903Y-105563366D01*
X73610472Y-105498822D01*
X73616503Y-105492352D01*
X73730415Y-105378440D01*
X74994770Y-105378440D01*
X75009200Y-105598604D01*
X75010621Y-105604200D01*
X75010622Y-105604205D01*
X75038339Y-105713338D01*
X75063511Y-105812452D01*
X75065928Y-105817694D01*
X75065928Y-105817695D01*
X75104046Y-105900379D01*
X75155883Y-106012821D01*
X75283222Y-106193002D01*
X75441264Y-106346961D01*
X75446060Y-106350166D01*
X75446063Y-106350168D01*
X75530261Y-106406427D01*
X75624717Y-106469540D01*
X75630020Y-106471818D01*
X75630023Y-106471820D01*
X75814625Y-106551131D01*
X75827436Y-106556635D01*
X75874604Y-106567308D01*
X76036995Y-106604054D01*
X76037001Y-106604055D01*
X76042632Y-106605329D01*
X76048403Y-106605556D01*
X76048405Y-106605556D01*
X76116211Y-106608220D01*
X76263098Y-106613991D01*
X76388200Y-106595852D01*
X76475738Y-106583160D01*
X76475743Y-106583159D01*
X76481452Y-106582331D01*
X76486916Y-106580476D01*
X76486921Y-106580475D01*
X76684907Y-106513268D01*
X76684912Y-106513266D01*
X76690379Y-106511410D01*
X76695992Y-106508267D01*
X76840057Y-106427586D01*
X76882884Y-106403602D01*
X76917181Y-106375078D01*
X77048086Y-106266204D01*
X77052518Y-106262518D01*
X77116820Y-106185204D01*
X77189908Y-106097326D01*
X77189910Y-106097323D01*
X77193602Y-106092884D01*
X77301410Y-105900379D01*
X77303266Y-105894912D01*
X77303268Y-105894907D01*
X77370475Y-105696921D01*
X77370476Y-105696916D01*
X77372331Y-105691452D01*
X77373159Y-105685743D01*
X77373160Y-105685738D01*
X77403458Y-105476772D01*
X77403991Y-105473098D01*
X77405643Y-105410000D01*
X77385454Y-105190289D01*
X77325565Y-104977936D01*
X77227980Y-104780053D01*
X77214148Y-104761529D01*
X77099420Y-104607891D01*
X77099420Y-104607890D01*
X77095967Y-104603267D01*
X76981479Y-104497435D01*
X76938189Y-104457418D01*
X76938186Y-104457416D01*
X76933949Y-104453499D01*
X76747350Y-104335764D01*
X76542421Y-104254006D01*
X76536761Y-104252880D01*
X76536757Y-104252879D01*
X76331691Y-104212089D01*
X76331688Y-104212089D01*
X76326024Y-104210962D01*
X76320249Y-104210886D01*
X76320245Y-104210886D01*
X76209504Y-104209437D01*
X76105406Y-104208074D01*
X76099709Y-104209053D01*
X76099708Y-104209053D01*
X75893654Y-104244459D01*
X75893653Y-104244459D01*
X75887957Y-104245438D01*
X75680957Y-104321804D01*
X75675996Y-104324756D01*
X75675995Y-104324756D01*
X75571632Y-104386846D01*
X75491341Y-104434614D01*
X75325457Y-104580090D01*
X75188863Y-104753360D01*
X75086131Y-104948620D01*
X75020703Y-105159333D01*
X74994770Y-105378440D01*
X73730415Y-105378440D01*
X79150405Y-99958450D01*
X79212717Y-99924424D01*
X79283532Y-99929489D01*
X79340368Y-99972036D01*
X79365179Y-100038556D01*
X79365500Y-100047545D01*
X79365500Y-104520037D01*
X79345498Y-104588158D01*
X79338450Y-104598042D01*
X79279863Y-104672360D01*
X79177131Y-104867620D01*
X79111703Y-105078333D01*
X79085770Y-105297440D01*
X79100200Y-105517604D01*
X79101621Y-105523200D01*
X79101622Y-105523205D01*
X79142901Y-105685738D01*
X79154511Y-105731452D01*
X79156928Y-105736694D01*
X79156928Y-105736695D01*
X79194270Y-105817695D01*
X79246883Y-105931821D01*
X79374222Y-106112002D01*
X79532264Y-106265961D01*
X79537060Y-106269166D01*
X79537063Y-106269168D01*
X79653489Y-106346961D01*
X79715717Y-106388540D01*
X79721020Y-106390818D01*
X79721023Y-106390820D01*
X79909556Y-106471820D01*
X79918436Y-106475635D01*
X79977271Y-106488948D01*
X80127995Y-106523054D01*
X80128001Y-106523055D01*
X80133632Y-106524329D01*
X80139403Y-106524556D01*
X80139405Y-106524556D01*
X80207211Y-106527220D01*
X80354098Y-106532991D01*
X80463275Y-106517161D01*
X80566738Y-106502160D01*
X80566743Y-106502159D01*
X80572452Y-106501331D01*
X80577916Y-106499476D01*
X80577921Y-106499475D01*
X80775907Y-106432268D01*
X80775912Y-106432266D01*
X80781379Y-106430410D01*
X80805198Y-106417071D01*
X80885067Y-106372342D01*
X80973884Y-106322602D01*
X81143518Y-106181518D01*
X81217235Y-106092884D01*
X81280908Y-106016326D01*
X81280910Y-106016323D01*
X81284602Y-106011884D01*
X81392410Y-105819379D01*
X81394266Y-105813912D01*
X81394268Y-105813907D01*
X81461475Y-105615921D01*
X81461476Y-105615916D01*
X81463331Y-105610452D01*
X81464159Y-105604743D01*
X81464160Y-105604738D01*
X81494458Y-105395772D01*
X81494991Y-105392098D01*
X81496643Y-105329000D01*
X81476454Y-105109289D01*
X81416565Y-104896936D01*
X81318980Y-104699053D01*
X81241542Y-104595351D01*
X81216810Y-104528801D01*
X81216500Y-104519962D01*
X81216500Y-104055702D01*
X81236502Y-103987581D01*
X81290158Y-103941088D01*
X81360432Y-103930984D01*
X81392236Y-103939933D01*
X81568436Y-104015635D01*
X81629114Y-104029365D01*
X81777995Y-104063054D01*
X81778001Y-104063055D01*
X81783632Y-104064329D01*
X81789403Y-104064556D01*
X81789405Y-104064556D01*
X81857211Y-104067220D01*
X82004098Y-104072991D01*
X82113275Y-104057161D01*
X82216738Y-104042160D01*
X82216743Y-104042159D01*
X82222452Y-104041331D01*
X82227916Y-104039476D01*
X82227921Y-104039475D01*
X82425907Y-103972268D01*
X82425912Y-103972266D01*
X82431379Y-103970410D01*
X82623884Y-103862602D01*
X82629875Y-103857620D01*
X82789086Y-103725204D01*
X82793518Y-103721518D01*
X82934602Y-103551884D01*
X83042410Y-103359379D01*
X83044266Y-103353912D01*
X83044268Y-103353907D01*
X83111475Y-103155921D01*
X83111476Y-103155916D01*
X83113331Y-103150452D01*
X83114159Y-103144743D01*
X83114160Y-103144738D01*
X83144458Y-102935772D01*
X83144991Y-102932098D01*
X83146643Y-102869000D01*
X83126454Y-102649289D01*
X83066565Y-102436936D01*
X82968980Y-102239053D01*
X82892843Y-102137093D01*
X82840420Y-102066891D01*
X82840420Y-102066890D01*
X82836967Y-102062267D01*
X82674949Y-101912499D01*
X82488350Y-101794764D01*
X82283421Y-101713006D01*
X82277761Y-101711880D01*
X82277757Y-101711879D01*
X82072691Y-101671089D01*
X82072688Y-101671089D01*
X82067024Y-101669962D01*
X82061249Y-101669886D01*
X82061245Y-101669886D01*
X81950504Y-101668437D01*
X81846406Y-101667074D01*
X81840709Y-101668053D01*
X81840708Y-101668053D01*
X81634654Y-101703459D01*
X81634653Y-101703459D01*
X81628957Y-101704438D01*
X81421957Y-101780804D01*
X81416995Y-101783756D01*
X81416993Y-101783757D01*
X81406921Y-101789749D01*
X81338151Y-101807388D01*
X81270761Y-101785046D01*
X81226148Y-101729818D01*
X81216500Y-101681463D01*
X81216500Y-99976545D01*
X81236502Y-99908424D01*
X81253405Y-99887450D01*
X81572995Y-99567860D01*
X81635307Y-99533834D01*
X81706122Y-99538899D01*
X81762958Y-99581446D01*
X81787820Y-99648714D01*
X81800200Y-99837604D01*
X81801621Y-99843200D01*
X81801622Y-99843205D01*
X81823536Y-99929489D01*
X81854511Y-100051452D01*
X81946883Y-100251821D01*
X82074222Y-100432002D01*
X82232264Y-100585961D01*
X82237060Y-100589166D01*
X82237063Y-100589168D01*
X82383226Y-100686830D01*
X82415717Y-100708540D01*
X82421020Y-100710818D01*
X82421023Y-100710820D01*
X82613129Y-100793355D01*
X82618436Y-100795635D01*
X82833632Y-100844329D01*
X82839405Y-100844556D01*
X82841107Y-100844780D01*
X82906033Y-100873505D01*
X82913752Y-100880607D01*
X88420054Y-106386909D01*
X88432893Y-106401941D01*
X88441431Y-106413692D01*
X88446333Y-106418105D01*
X88446334Y-106418107D01*
X88493271Y-106460369D01*
X88498055Y-106464910D01*
X88512870Y-106479725D01*
X88515434Y-106481801D01*
X88529164Y-106492920D01*
X88534179Y-106497204D01*
X88581095Y-106539447D01*
X88581099Y-106539450D01*
X88586008Y-106543870D01*
X88598588Y-106551133D01*
X88614873Y-106562326D01*
X88621026Y-106567308D01*
X88626160Y-106571465D01*
X88632044Y-106574463D01*
X88688283Y-106603118D01*
X88694081Y-106606266D01*
X88748774Y-106637843D01*
X88748776Y-106637844D01*
X88754492Y-106641144D01*
X88768299Y-106645630D01*
X88786563Y-106653195D01*
X88793623Y-106656792D01*
X88799503Y-106659788D01*
X88866885Y-106677843D01*
X88873196Y-106679713D01*
X88939518Y-106701262D01*
X88953951Y-106702779D01*
X88973393Y-106706382D01*
X88987422Y-106710141D01*
X88994012Y-106710486D01*
X88994016Y-106710487D01*
X89057064Y-106713791D01*
X89063639Y-106714308D01*
X89068077Y-106714774D01*
X89084496Y-106716500D01*
X89105465Y-106716500D01*
X89112059Y-106716673D01*
X89175112Y-106719978D01*
X89175117Y-106719978D01*
X89181704Y-106720323D01*
X89196050Y-106718051D01*
X89215759Y-106716500D01*
X101855455Y-106716500D01*
X101923576Y-106736502D01*
X101970069Y-106790158D01*
X101980173Y-106860432D01*
X101950679Y-106925012D01*
X101944550Y-106931595D01*
X99206468Y-109669677D01*
X99138710Y-109704762D01*
X99137458Y-109704977D01*
X99128957Y-109706438D01*
X98921957Y-109782804D01*
X98916996Y-109785756D01*
X98916995Y-109785756D01*
X98751276Y-109884349D01*
X98732341Y-109895614D01*
X98566457Y-110041090D01*
X98429863Y-110214360D01*
X98327131Y-110409620D01*
X98261703Y-110620333D01*
X98235770Y-110839440D01*
X98250200Y-111059604D01*
X98251621Y-111065200D01*
X98251622Y-111065205D01*
X98292512Y-111226206D01*
X98304511Y-111273452D01*
X98306928Y-111278694D01*
X98306928Y-111278695D01*
X98382606Y-111442851D01*
X98396883Y-111473821D01*
X98524222Y-111654002D01*
X98682264Y-111807961D01*
X98687060Y-111811166D01*
X98687063Y-111811168D01*
X98811806Y-111894518D01*
X98865717Y-111930540D01*
X98871023Y-111932820D01*
X98872648Y-111933702D01*
X98922969Y-111983786D01*
X98938224Y-112053124D01*
X98913570Y-112119703D01*
X98901619Y-112133527D01*
X94833033Y-116202113D01*
X94770721Y-116236139D01*
X94699906Y-116231074D01*
X94642980Y-116188407D01*
X94625420Y-116164891D01*
X94625420Y-116164890D01*
X94621967Y-116160267D01*
X94483750Y-116032500D01*
X94464189Y-116014418D01*
X94464186Y-116014416D01*
X94459949Y-116010499D01*
X94273350Y-115892764D01*
X94068421Y-115811006D01*
X94062761Y-115809880D01*
X94062757Y-115809879D01*
X93857691Y-115769089D01*
X93857688Y-115769089D01*
X93852024Y-115767962D01*
X93846249Y-115767886D01*
X93846245Y-115767886D01*
X93735504Y-115766437D01*
X93631406Y-115765074D01*
X93625709Y-115766053D01*
X93625708Y-115766053D01*
X93419654Y-115801459D01*
X93419653Y-115801459D01*
X93413957Y-115802438D01*
X93206957Y-115878804D01*
X93017341Y-115991614D01*
X92851457Y-116137090D01*
X92714863Y-116310360D01*
X92612131Y-116505620D01*
X92546703Y-116716333D01*
X92520770Y-116935440D01*
X92535200Y-117155604D01*
X92536621Y-117161200D01*
X92536622Y-117161205D01*
X92588090Y-117363857D01*
X92589511Y-117369452D01*
X92681883Y-117569821D01*
X92809222Y-117750002D01*
X92813356Y-117754029D01*
X92813361Y-117754035D01*
X92958854Y-117895770D01*
X92993692Y-117957631D01*
X92989554Y-118028507D01*
X92960027Y-118075118D01*
X89725092Y-121310053D01*
X89710064Y-121322890D01*
X89698308Y-121331431D01*
X89693895Y-121336333D01*
X89693893Y-121336334D01*
X89651631Y-121383271D01*
X89647090Y-121388055D01*
X89632275Y-121402870D01*
X89630199Y-121405434D01*
X89619080Y-121419164D01*
X89614796Y-121424179D01*
X89572553Y-121471095D01*
X89572550Y-121471099D01*
X89568130Y-121476008D01*
X89560869Y-121488585D01*
X89549674Y-121504873D01*
X89544692Y-121511026D01*
X89540535Y-121516160D01*
X89537537Y-121522044D01*
X89508882Y-121578283D01*
X89505734Y-121584081D01*
X89480848Y-121627185D01*
X89470856Y-121644492D01*
X89466370Y-121658299D01*
X89458805Y-121676563D01*
X89452212Y-121689503D01*
X89450504Y-121695876D01*
X89450504Y-121695877D01*
X89434159Y-121756878D01*
X89432287Y-121763196D01*
X89410738Y-121829518D01*
X89410048Y-121836084D01*
X89409221Y-121843951D01*
X89405618Y-121863393D01*
X89401859Y-121877422D01*
X89401514Y-121884014D01*
X89401513Y-121884017D01*
X89398209Y-121947062D01*
X89397692Y-121953636D01*
X89396098Y-121968806D01*
X89395500Y-121974496D01*
X89395500Y-121995464D01*
X89395327Y-122002058D01*
X89392916Y-122048066D01*
X89391677Y-122071703D01*
X89393564Y-122083614D01*
X89393949Y-122086047D01*
X89395500Y-122105758D01*
X89395500Y-123110037D01*
X89375498Y-123178158D01*
X89368450Y-123188042D01*
X89309863Y-123262360D01*
X89207131Y-123457620D01*
X89141703Y-123668333D01*
X89115770Y-123887440D01*
X89130200Y-124107604D01*
X89144083Y-124162266D01*
X89146673Y-124172465D01*
X89144055Y-124243414D01*
X89103495Y-124301684D01*
X89068161Y-124321692D01*
X88888957Y-124387804D01*
X88883996Y-124390756D01*
X88883995Y-124390756D01*
X88759924Y-124464571D01*
X88699341Y-124500614D01*
X88533457Y-124646090D01*
X88396863Y-124819360D01*
X88294131Y-125014620D01*
X88277564Y-125067975D01*
X88230787Y-125218623D01*
X88228703Y-125225333D01*
X88202770Y-125444440D01*
X88203148Y-125450206D01*
X88211656Y-125580011D01*
X88217200Y-125664604D01*
X88217709Y-125666607D01*
X88208762Y-125735824D01*
X88163039Y-125790137D01*
X88133350Y-125803292D01*
X88133573Y-125803854D01*
X88001451Y-125856165D01*
X87986620Y-125864522D01*
X87880275Y-125945243D01*
X87868243Y-125957275D01*
X87787522Y-126063620D01*
X87779165Y-126078451D01*
X87729834Y-126203047D01*
X87725881Y-126218612D01*
X87716456Y-126296502D01*
X87716000Y-126304057D01*
X87716000Y-126749885D01*
X87720475Y-126765124D01*
X87721865Y-126766329D01*
X87729548Y-126768000D01*
X88189500Y-126768000D01*
X88257621Y-126788002D01*
X88304114Y-126841658D01*
X88315500Y-126894000D01*
X88315500Y-127042000D01*
X88295498Y-127110121D01*
X88241842Y-127156614D01*
X88189500Y-127168000D01*
X87734115Y-127168000D01*
X87718876Y-127172475D01*
X87717671Y-127173865D01*
X87716000Y-127181548D01*
X87716000Y-127631943D01*
X87716456Y-127639498D01*
X87725881Y-127717388D01*
X87729834Y-127732953D01*
X87779165Y-127857549D01*
X87787522Y-127872380D01*
X87868243Y-127978725D01*
X87880275Y-127990757D01*
X87986620Y-128071478D01*
X88001451Y-128079835D01*
X88126051Y-128129168D01*
X88141603Y-128133118D01*
X88198017Y-128139944D01*
X88212390Y-128137548D01*
X88219429Y-128112542D01*
X88257142Y-128052390D01*
X88321389Y-128022176D01*
X88391771Y-128031493D01*
X88445944Y-128077382D01*
X88452377Y-128088310D01*
X88465429Y-128113277D01*
X88465431Y-128113280D01*
X88468385Y-128118930D01*
X88472414Y-128123870D01*
X88472416Y-128123873D01*
X88524032Y-128187160D01*
X88590429Y-128268571D01*
X88595369Y-128272600D01*
X88639353Y-128308472D01*
X88740070Y-128390615D01*
X88745718Y-128393568D01*
X88745720Y-128393569D01*
X88818533Y-128431635D01*
X88911194Y-128480077D01*
X88917322Y-128481834D01*
X88917324Y-128481835D01*
X88950731Y-128491414D01*
X89096813Y-128533302D01*
X89129096Y-128536183D01*
X89208283Y-128543251D01*
X89208289Y-128543251D01*
X89211076Y-128543500D01*
X89620924Y-128543500D01*
X89623711Y-128543251D01*
X89623717Y-128543251D01*
X89702904Y-128536183D01*
X89735187Y-128533302D01*
X89789975Y-128517592D01*
X89881270Y-128491414D01*
X89950730Y-128491414D01*
X90042025Y-128517592D01*
X90096813Y-128533302D01*
X90129096Y-128536183D01*
X90208283Y-128543251D01*
X90208289Y-128543251D01*
X90211076Y-128543500D01*
X90620924Y-128543500D01*
X90623711Y-128543251D01*
X90623717Y-128543251D01*
X90702904Y-128536183D01*
X90735187Y-128533302D01*
X90789975Y-128517592D01*
X90881270Y-128491414D01*
X90950730Y-128491414D01*
X91042025Y-128517592D01*
X91096813Y-128533302D01*
X91129096Y-128536183D01*
X91208283Y-128543251D01*
X91208289Y-128543251D01*
X91211076Y-128543500D01*
X91620924Y-128543500D01*
X91623711Y-128543251D01*
X91623717Y-128543251D01*
X91702904Y-128536183D01*
X91735187Y-128533302D01*
X91881269Y-128491414D01*
X91914676Y-128481835D01*
X91914678Y-128481834D01*
X91920806Y-128480077D01*
X92013467Y-128431635D01*
X92086280Y-128393569D01*
X92086282Y-128393568D01*
X92091930Y-128390615D01*
X92192648Y-128308472D01*
X92236631Y-128272600D01*
X92241571Y-128268571D01*
X92307968Y-128187160D01*
X92359584Y-128123873D01*
X92359586Y-128123870D01*
X92363615Y-128118930D01*
X92366571Y-128113277D01*
X92414197Y-128022176D01*
X92453077Y-127947806D01*
X92457240Y-127933290D01*
X92504649Y-127767951D01*
X92506302Y-127762187D01*
X92516500Y-127647924D01*
X92516500Y-126288076D01*
X92514427Y-126264843D01*
X92506835Y-126179786D01*
X92506302Y-126173813D01*
X92453077Y-125988194D01*
X92444636Y-125972047D01*
X92379839Y-125848104D01*
X92365500Y-125789728D01*
X92365500Y-124635317D01*
X92385502Y-124567196D01*
X92394626Y-124554747D01*
X92429911Y-124512322D01*
X92429911Y-124512321D01*
X92433602Y-124507884D01*
X92436421Y-124502850D01*
X92436426Y-124502843D01*
X92472836Y-124437828D01*
X92491943Y-124419126D01*
X92488896Y-124416486D01*
X92514329Y-124387135D01*
X92516994Y-124374885D01*
X92916000Y-124374885D01*
X92920475Y-124390124D01*
X92921865Y-124391329D01*
X92929548Y-124393000D01*
X93129173Y-124393000D01*
X93134099Y-124392807D01*
X93162081Y-124390604D01*
X93174668Y-124388305D01*
X93318585Y-124346494D01*
X93333024Y-124340245D01*
X93460729Y-124264721D01*
X93473165Y-124255074D01*
X93502286Y-124225953D01*
X93929770Y-124225953D01*
X93944200Y-124446117D01*
X93945621Y-124451713D01*
X93945622Y-124451718D01*
X93959008Y-124504424D01*
X93998511Y-124659965D01*
X94000928Y-124665207D01*
X94000928Y-124665208D01*
X94023247Y-124713621D01*
X94090883Y-124860334D01*
X94218222Y-125040515D01*
X94376264Y-125194474D01*
X94381060Y-125197679D01*
X94381063Y-125197681D01*
X94429889Y-125230305D01*
X94559717Y-125317053D01*
X94565020Y-125319331D01*
X94565023Y-125319333D01*
X94708236Y-125380862D01*
X94762436Y-125404148D01*
X94841657Y-125422074D01*
X94971995Y-125451567D01*
X94972001Y-125451568D01*
X94977632Y-125452842D01*
X94983403Y-125453069D01*
X94983405Y-125453069D01*
X95051211Y-125455733D01*
X95198098Y-125461504D01*
X95203814Y-125460675D01*
X95203818Y-125460675D01*
X95204171Y-125460624D01*
X95204339Y-125460648D01*
X95209583Y-125460373D01*
X95209637Y-125461404D01*
X95274456Y-125470648D01*
X95326946Y-125515226D01*
X95370316Y-125580011D01*
X95515989Y-125725684D01*
X95687183Y-125840289D01*
X95877377Y-125919459D01*
X96041776Y-125952607D01*
X96064925Y-125957275D01*
X96079327Y-125960179D01*
X96083993Y-125960415D01*
X96083998Y-125960416D01*
X96084075Y-125960420D01*
X96084093Y-125960420D01*
X96085663Y-125960500D01*
X96087260Y-125960500D01*
X96513006Y-125960499D01*
X96936336Y-125960499D01*
X96937892Y-125960420D01*
X96937909Y-125960420D01*
X96938003Y-125960415D01*
X96938005Y-125960415D01*
X96942673Y-125960179D01*
X96957076Y-125957275D01*
X96980224Y-125952607D01*
X97144623Y-125919459D01*
X97334817Y-125840289D01*
X97506011Y-125725684D01*
X97651684Y-125580011D01*
X97695053Y-125515227D01*
X97710288Y-125492470D01*
X97764805Y-125446990D01*
X97835256Y-125438204D01*
X97879131Y-125454110D01*
X97968983Y-125507248D01*
X97983415Y-125513494D01*
X98127332Y-125555305D01*
X98139919Y-125557604D01*
X98167901Y-125559807D01*
X98172827Y-125560000D01*
X98342885Y-125560000D01*
X98358124Y-125555525D01*
X98359329Y-125554135D01*
X98361000Y-125546452D01*
X98361000Y-125541885D01*
X98761000Y-125541885D01*
X98765475Y-125557124D01*
X98766865Y-125558329D01*
X98774548Y-125560000D01*
X98949173Y-125560000D01*
X98954099Y-125559807D01*
X98982081Y-125557604D01*
X98994668Y-125555305D01*
X99138585Y-125513494D01*
X99153024Y-125507245D01*
X99280729Y-125431721D01*
X99293165Y-125422074D01*
X99398074Y-125317165D01*
X99407721Y-125304729D01*
X99483245Y-125177024D01*
X99489494Y-125162585D01*
X99531305Y-125018668D01*
X99533604Y-125006081D01*
X99535807Y-124978099D01*
X99536000Y-124973173D01*
X99536000Y-124678115D01*
X99531525Y-124662876D01*
X99530135Y-124661671D01*
X99522452Y-124660000D01*
X98779115Y-124660000D01*
X98763876Y-124664475D01*
X98762671Y-124665865D01*
X98761000Y-124673548D01*
X98761000Y-125541885D01*
X98361000Y-125541885D01*
X98361000Y-124241885D01*
X98761000Y-124241885D01*
X98765475Y-124257124D01*
X98766865Y-124258329D01*
X98774548Y-124260000D01*
X99517885Y-124260000D01*
X99533124Y-124255525D01*
X99534329Y-124254135D01*
X99536000Y-124246452D01*
X99536000Y-123946828D01*
X99535807Y-123941901D01*
X99533604Y-123913919D01*
X99531305Y-123901332D01*
X99489494Y-123757415D01*
X99483245Y-123742976D01*
X99407721Y-123615271D01*
X99398074Y-123602835D01*
X99293165Y-123497926D01*
X99280729Y-123488279D01*
X99153024Y-123412755D01*
X99138585Y-123406506D01*
X98994668Y-123364695D01*
X98982081Y-123362396D01*
X98954099Y-123360193D01*
X98949172Y-123360000D01*
X98779115Y-123360000D01*
X98763876Y-123364475D01*
X98762671Y-123365865D01*
X98761000Y-123373548D01*
X98761000Y-124241885D01*
X98361000Y-124241885D01*
X98361000Y-123378115D01*
X98356525Y-123362876D01*
X98355135Y-123361671D01*
X98347452Y-123360000D01*
X98172828Y-123360000D01*
X98167901Y-123360193D01*
X98139919Y-123362396D01*
X98127332Y-123364695D01*
X97983415Y-123406506D01*
X97968983Y-123412752D01*
X97879131Y-123465890D01*
X97810315Y-123483349D01*
X97742984Y-123460832D01*
X97710288Y-123427530D01*
X97669287Y-123366284D01*
X97651684Y-123339989D01*
X97506011Y-123194316D01*
X97334817Y-123079711D01*
X97144623Y-123000541D01*
X96942673Y-122959821D01*
X96938007Y-122959585D01*
X96938002Y-122959584D01*
X96937925Y-122959580D01*
X96937907Y-122959580D01*
X96936337Y-122959500D01*
X96934740Y-122959500D01*
X96508994Y-122959501D01*
X96085664Y-122959501D01*
X96084108Y-122959580D01*
X96084091Y-122959580D01*
X96083997Y-122959585D01*
X96083995Y-122959585D01*
X96079327Y-122959821D01*
X95877377Y-123000541D01*
X95871693Y-123002907D01*
X95692871Y-123077343D01*
X95692868Y-123077344D01*
X95687183Y-123079711D01*
X95682064Y-123083138D01*
X95682060Y-123083140D01*
X95643588Y-123108895D01*
X95575853Y-123130169D01*
X95526805Y-123121221D01*
X95482785Y-123103659D01*
X95477421Y-123101519D01*
X95471761Y-123100393D01*
X95471757Y-123100392D01*
X95266691Y-123059602D01*
X95266688Y-123059602D01*
X95261024Y-123058475D01*
X95255249Y-123058399D01*
X95255245Y-123058399D01*
X95144504Y-123056950D01*
X95040406Y-123055587D01*
X95034709Y-123056566D01*
X95034708Y-123056566D01*
X94828654Y-123091972D01*
X94828653Y-123091972D01*
X94822957Y-123092951D01*
X94615957Y-123169317D01*
X94610996Y-123172269D01*
X94610995Y-123172269D01*
X94456911Y-123263940D01*
X94426341Y-123282127D01*
X94260457Y-123427603D01*
X94123863Y-123600873D01*
X94021131Y-123796133D01*
X93986991Y-123906082D01*
X93960335Y-123991930D01*
X93955703Y-124006846D01*
X93929770Y-124225953D01*
X93502286Y-124225953D01*
X93578074Y-124150165D01*
X93587721Y-124137729D01*
X93663245Y-124010024D01*
X93669494Y-123995585D01*
X93711305Y-123851668D01*
X93713604Y-123839081D01*
X93715807Y-123811099D01*
X93716000Y-123806173D01*
X93716000Y-123311115D01*
X93711525Y-123295876D01*
X93710135Y-123294671D01*
X93702452Y-123293000D01*
X92934115Y-123293000D01*
X92918876Y-123297475D01*
X92917671Y-123298865D01*
X92916000Y-123306548D01*
X92916000Y-124374885D01*
X92516994Y-124374885D01*
X92518654Y-124367251D01*
X92531841Y-124332465D01*
X92538591Y-124320412D01*
X92541410Y-124315379D01*
X92562134Y-124254329D01*
X92610475Y-124111921D01*
X92610476Y-124111916D01*
X92612331Y-124106452D01*
X92613159Y-124100743D01*
X92613160Y-124100738D01*
X92632346Y-123968413D01*
X92643991Y-123888098D01*
X92645643Y-123825000D01*
X92625454Y-123605289D01*
X92619679Y-123584810D01*
X92584713Y-123460832D01*
X92565565Y-123392936D01*
X92539683Y-123340452D01*
X92528994Y-123318777D01*
X92516000Y-123263049D01*
X92516000Y-123019000D01*
X92536002Y-122950879D01*
X92589658Y-122904386D01*
X92642000Y-122893000D01*
X93697885Y-122893000D01*
X93713124Y-122888525D01*
X93714329Y-122887135D01*
X93716000Y-122879452D01*
X93716000Y-122379828D01*
X93715807Y-122374901D01*
X93713604Y-122346919D01*
X93711305Y-122334332D01*
X93669494Y-122190415D01*
X93663245Y-122175976D01*
X93587721Y-122048271D01*
X93578074Y-122035835D01*
X93512494Y-121970255D01*
X93478468Y-121907943D01*
X93483533Y-121837128D01*
X93512494Y-121792065D01*
X97084326Y-118220233D01*
X97146638Y-118186207D01*
X97217453Y-118191272D01*
X97274289Y-118233819D01*
X97287680Y-118258835D01*
X97288511Y-118258452D01*
X97380883Y-118458821D01*
X97508222Y-118639002D01*
X97666264Y-118792961D01*
X97671060Y-118796166D01*
X97671063Y-118796168D01*
X97755261Y-118852427D01*
X97849717Y-118915540D01*
X97855020Y-118917818D01*
X97855023Y-118917820D01*
X98047129Y-119000355D01*
X98052436Y-119002635D01*
X98107572Y-119015111D01*
X98261995Y-119050054D01*
X98262001Y-119050055D01*
X98267632Y-119051329D01*
X98273403Y-119051556D01*
X98273405Y-119051556D01*
X98341211Y-119054220D01*
X98488098Y-119059991D01*
X98597275Y-119044161D01*
X98700738Y-119029160D01*
X98700743Y-119029159D01*
X98706452Y-119028331D01*
X98711916Y-119026476D01*
X98711921Y-119026475D01*
X98909907Y-118959268D01*
X98909912Y-118959266D01*
X98915379Y-118957410D01*
X98947887Y-118939205D01*
X98995875Y-118912330D01*
X99107884Y-118849602D01*
X99153370Y-118811772D01*
X99273086Y-118712204D01*
X99277518Y-118708518D01*
X99339256Y-118634287D01*
X99414908Y-118543326D01*
X99414910Y-118543323D01*
X99418602Y-118538884D01*
X99526410Y-118346379D01*
X99528266Y-118340912D01*
X99528268Y-118340907D01*
X99595475Y-118142921D01*
X99595476Y-118142916D01*
X99597331Y-118137452D01*
X99598159Y-118131743D01*
X99598160Y-118131738D01*
X99625541Y-117942891D01*
X99628991Y-117919098D01*
X99630643Y-117856000D01*
X99610454Y-117636289D01*
X99602169Y-117606910D01*
X99559446Y-117455427D01*
X99550565Y-117423936D01*
X99452980Y-117226053D01*
X99404556Y-117161205D01*
X99324420Y-117053891D01*
X99324420Y-117053890D01*
X99320967Y-117049267D01*
X99158949Y-116899499D01*
X98972350Y-116781764D01*
X98963740Y-116778329D01*
X98828654Y-116724435D01*
X98772794Y-116680614D01*
X98749494Y-116613550D01*
X98766150Y-116544535D01*
X98786249Y-116518310D01*
X102606476Y-112698083D01*
X102668788Y-112664057D01*
X102677481Y-112662484D01*
X102768739Y-112649252D01*
X102774203Y-112647397D01*
X102774208Y-112647396D01*
X102972194Y-112580189D01*
X102972199Y-112580187D01*
X102977666Y-112578331D01*
X102986886Y-112573168D01*
X103062789Y-112530660D01*
X103170171Y-112470523D01*
X103178504Y-112463593D01*
X103314379Y-112350586D01*
X103334458Y-112333886D01*
X103399622Y-112305705D01*
X103442833Y-112307867D01*
X103534889Y-112328697D01*
X103540660Y-112328924D01*
X103540662Y-112328924D01*
X103608468Y-112331588D01*
X103755355Y-112337359D01*
X103864532Y-112321529D01*
X103967995Y-112306528D01*
X103968000Y-112306527D01*
X103973709Y-112305699D01*
X103979173Y-112303844D01*
X103979178Y-112303843D01*
X104177164Y-112236636D01*
X104177169Y-112236634D01*
X104182636Y-112234778D01*
X104190140Y-112230576D01*
X104317501Y-112159250D01*
X104375141Y-112126970D01*
X104396990Y-112108799D01*
X104534598Y-111994350D01*
X104544775Y-111985886D01*
X104606428Y-111911757D01*
X104682165Y-111820694D01*
X104682167Y-111820691D01*
X104685859Y-111816252D01*
X104767116Y-111671157D01*
X104817850Y-111621498D01*
X104887382Y-111607150D01*
X104953633Y-111632672D01*
X104964967Y-111642469D01*
X105112264Y-111785961D01*
X105117060Y-111789166D01*
X105117063Y-111789168D01*
X105226114Y-111862033D01*
X105295717Y-111908540D01*
X105301020Y-111910818D01*
X105301023Y-111910820D01*
X105480141Y-111987775D01*
X105498436Y-111995635D01*
X105570436Y-112011927D01*
X105707995Y-112043054D01*
X105708001Y-112043055D01*
X105713632Y-112044329D01*
X105719403Y-112044556D01*
X105719405Y-112044556D01*
X105787211Y-112047220D01*
X105934098Y-112052991D01*
X106055062Y-112035452D01*
X106146738Y-112022160D01*
X106146743Y-112022159D01*
X106152452Y-112021331D01*
X106157916Y-112019476D01*
X106157921Y-112019475D01*
X106355907Y-111952268D01*
X106355912Y-111952266D01*
X106361379Y-111950410D01*
X106372715Y-111944062D01*
X106532065Y-111854821D01*
X106553884Y-111842602D01*
X106563982Y-111834204D01*
X106719086Y-111705204D01*
X106723518Y-111701518D01*
X106788200Y-111623747D01*
X106860908Y-111536326D01*
X106860910Y-111536323D01*
X106864602Y-111531884D01*
X106948355Y-111382333D01*
X106969586Y-111344422D01*
X106969587Y-111344420D01*
X106972410Y-111339379D01*
X106974266Y-111333912D01*
X106974268Y-111333907D01*
X107041475Y-111135921D01*
X107041476Y-111135916D01*
X107043331Y-111130452D01*
X107044159Y-111124743D01*
X107044160Y-111124738D01*
X107068026Y-110960136D01*
X107074991Y-110912098D01*
X107076643Y-110849000D01*
X107056454Y-110629289D01*
X106996565Y-110416936D01*
X106898980Y-110219053D01*
X106892089Y-110209824D01*
X106770420Y-110046891D01*
X106770420Y-110046890D01*
X106766967Y-110042267D01*
X106618236Y-109904781D01*
X106609189Y-109896418D01*
X106609186Y-109896416D01*
X106604949Y-109892499D01*
X106592028Y-109884346D01*
X106545090Y-109831084D01*
X106534398Y-109760897D01*
X106563349Y-109696072D01*
X106570166Y-109688689D01*
X107200950Y-109057905D01*
X107263262Y-109023879D01*
X107290045Y-109021000D01*
X107343223Y-109021000D01*
X107413225Y-109042235D01*
X107582050Y-109155040D01*
X107587353Y-109157318D01*
X107587356Y-109157320D01*
X107639892Y-109179891D01*
X107784769Y-109242135D01*
X107827646Y-109251837D01*
X107994328Y-109289554D01*
X107994334Y-109289555D01*
X107999965Y-109290829D01*
X108005736Y-109291056D01*
X108005738Y-109291056D01*
X108073544Y-109293720D01*
X108220431Y-109299491D01*
X108329608Y-109283661D01*
X108433071Y-109268660D01*
X108433076Y-109268659D01*
X108438785Y-109267831D01*
X108444249Y-109265976D01*
X108444254Y-109265975D01*
X108508999Y-109243997D01*
X108579934Y-109241041D01*
X108641207Y-109276905D01*
X108673363Y-109340202D01*
X108675500Y-109363310D01*
X108675500Y-110824037D01*
X108655498Y-110892158D01*
X108648450Y-110902042D01*
X108640523Y-110912098D01*
X108589863Y-110976360D01*
X108487131Y-111171620D01*
X108421703Y-111382333D01*
X108395770Y-111601440D01*
X108410200Y-111821604D01*
X108411621Y-111827200D01*
X108411622Y-111827205D01*
X108442268Y-111947872D01*
X108464511Y-112035452D01*
X108466928Y-112040694D01*
X108466928Y-112040695D01*
X108511117Y-112136547D01*
X108556883Y-112235821D01*
X108684222Y-112416002D01*
X108842264Y-112569961D01*
X108847060Y-112573166D01*
X108847063Y-112573168D01*
X108958154Y-112647396D01*
X109025717Y-112692540D01*
X109031020Y-112694818D01*
X109031023Y-112694820D01*
X109223129Y-112777355D01*
X109228436Y-112779635D01*
X109308088Y-112797658D01*
X109437995Y-112827054D01*
X109438001Y-112827055D01*
X109443632Y-112828329D01*
X109449403Y-112828556D01*
X109449405Y-112828556D01*
X109517211Y-112831220D01*
X109664098Y-112836991D01*
X109773275Y-112821161D01*
X109876738Y-112806160D01*
X109876743Y-112806159D01*
X109882452Y-112805331D01*
X109887916Y-112803476D01*
X109887921Y-112803475D01*
X110091379Y-112734410D01*
X110092120Y-112736592D01*
X110152562Y-112728503D01*
X110216852Y-112758625D01*
X110254652Y-112818722D01*
X110255541Y-112884040D01*
X110200867Y-113099418D01*
X110195898Y-113118991D01*
X110194470Y-113124152D01*
X110082717Y-113496936D01*
X109930257Y-114005505D01*
X109928605Y-114010618D01*
X109627055Y-114879901D01*
X109625186Y-114884939D01*
X109460433Y-115301585D01*
X109321764Y-115652267D01*
X109286851Y-115740558D01*
X109284773Y-115745503D01*
X108922433Y-116558609D01*
X108910248Y-116585952D01*
X108907956Y-116590812D01*
X108497967Y-117414466D01*
X108495471Y-117419225D01*
X108050702Y-118224708D01*
X108048005Y-118229355D01*
X107997087Y-118312936D01*
X107569297Y-119015142D01*
X107566434Y-119019622D01*
X107346775Y-119347821D01*
X107054670Y-119784262D01*
X107051587Y-119788663D01*
X106507692Y-120530779D01*
X106504435Y-120535031D01*
X106213301Y-120898667D01*
X105929369Y-121253307D01*
X105925922Y-121257429D01*
X105320766Y-121950518D01*
X105317146Y-121954489D01*
X104683008Y-122621125D01*
X104679222Y-122624939D01*
X104017225Y-123263940D01*
X104013280Y-123267589D01*
X103792591Y-123463138D01*
X103384208Y-123825000D01*
X103324632Y-123877789D01*
X103320539Y-123881263D01*
X102635684Y-124437828D01*
X102606495Y-124461549D01*
X102602256Y-124464846D01*
X101864137Y-125014145D01*
X101859783Y-125017243D01*
X101448540Y-125296854D01*
X101098885Y-125534590D01*
X101094378Y-125537516D01*
X100869043Y-125677059D01*
X100356704Y-125994335D01*
X100312130Y-126021938D01*
X100307507Y-126024666D01*
X100266779Y-126047545D01*
X99505314Y-126475294D01*
X99500574Y-126477825D01*
X98679908Y-126893834D01*
X98675064Y-126896161D01*
X97837402Y-127276801D01*
X97832464Y-127278919D01*
X96979334Y-127623497D01*
X96974309Y-127625403D01*
X96107267Y-127933290D01*
X96102166Y-127934980D01*
X95960025Y-127978725D01*
X95436176Y-128139944D01*
X95222784Y-128205617D01*
X95217619Y-128207087D01*
X94327457Y-128439994D01*
X94322273Y-128441233D01*
X93908663Y-128530800D01*
X93423007Y-128635968D01*
X93417732Y-128636993D01*
X93009027Y-128707405D01*
X92510974Y-128793209D01*
X92505705Y-128794002D01*
X91593110Y-128911413D01*
X91587791Y-128911983D01*
X90952181Y-128966334D01*
X90671020Y-128990376D01*
X90665658Y-128990719D01*
X89746427Y-129029950D01*
X89741054Y-129030065D01*
X88820946Y-129030065D01*
X88815573Y-129029950D01*
X87896342Y-128990719D01*
X87890980Y-128990376D01*
X87609819Y-128966334D01*
X86974209Y-128911983D01*
X86968890Y-128911413D01*
X86056295Y-128794002D01*
X86051026Y-128793209D01*
X85552973Y-128707405D01*
X85144268Y-128636993D01*
X85138993Y-128635968D01*
X84486097Y-128494584D01*
X84423753Y-128460617D01*
X84389669Y-128398337D01*
X84394667Y-128327517D01*
X84430934Y-128275627D01*
X84530754Y-128190373D01*
X84530759Y-128190368D01*
X84534515Y-128187160D01*
X84703238Y-127989611D01*
X84838980Y-127768099D01*
X84859986Y-127717388D01*
X84936505Y-127532654D01*
X84936506Y-127532652D01*
X84938399Y-127528081D01*
X84967822Y-127405526D01*
X84997892Y-127280278D01*
X84997893Y-127280272D01*
X84999047Y-127275465D01*
X85019430Y-127016471D01*
X84999047Y-126757477D01*
X84997893Y-126752670D01*
X84997892Y-126752664D01*
X84939554Y-126509673D01*
X84938399Y-126504861D01*
X84936505Y-126500288D01*
X84840875Y-126269417D01*
X84840873Y-126269413D01*
X84838980Y-126264843D01*
X84703238Y-126043331D01*
X84557145Y-125872278D01*
X84537723Y-125849538D01*
X84534515Y-125845782D01*
X84336966Y-125677059D01*
X84115454Y-125541317D01*
X84110884Y-125539424D01*
X84110880Y-125539422D01*
X83880009Y-125443792D01*
X83880007Y-125443791D01*
X83875436Y-125441898D01*
X83787102Y-125420691D01*
X83627633Y-125382405D01*
X83627627Y-125382404D01*
X83622820Y-125381250D01*
X83363826Y-125360867D01*
X83358896Y-125361255D01*
X83358888Y-125361255D01*
X83358456Y-125361289D01*
X83358294Y-125361255D01*
X83353940Y-125361255D01*
X83353940Y-125360340D01*
X83288976Y-125346695D01*
X83238415Y-125296854D01*
X83223938Y-125230305D01*
X83222990Y-125230305D01*
X83222990Y-125225945D01*
X83222956Y-125225789D01*
X83222990Y-125225357D01*
X83222990Y-125225349D01*
X83223378Y-125220419D01*
X83202995Y-124961425D01*
X83201841Y-124956618D01*
X83201840Y-124956612D01*
X83155544Y-124763780D01*
X83142347Y-124708809D01*
X83129633Y-124678115D01*
X83044823Y-124473365D01*
X83044821Y-124473361D01*
X83042928Y-124468791D01*
X82907186Y-124247279D01*
X82738463Y-124049730D01*
X82540914Y-123881007D01*
X82319402Y-123745265D01*
X82314832Y-123743372D01*
X82314828Y-123743370D01*
X82083957Y-123647740D01*
X82083955Y-123647739D01*
X82079384Y-123645846D01*
X81952031Y-123615271D01*
X81831581Y-123586353D01*
X81831575Y-123586352D01*
X81826768Y-123585198D01*
X81567774Y-123564815D01*
X81562844Y-123565203D01*
X81562837Y-123565203D01*
X81562405Y-123565237D01*
X81562243Y-123565203D01*
X81557889Y-123565203D01*
X81557889Y-123564288D01*
X81492925Y-123550643D01*
X81442364Y-123500802D01*
X81427887Y-123434253D01*
X81426939Y-123434253D01*
X81426939Y-123429893D01*
X81426905Y-123429737D01*
X81426939Y-123429305D01*
X81426939Y-123429298D01*
X81427327Y-123424368D01*
X81406944Y-123165374D01*
X81405790Y-123160567D01*
X81405789Y-123160561D01*
X81362145Y-122978773D01*
X81360761Y-122973007D01*
X82614712Y-122973007D01*
X82615090Y-122978773D01*
X82628634Y-123185414D01*
X82629142Y-123193171D01*
X82630563Y-123198767D01*
X82630564Y-123198772D01*
X82674952Y-123373548D01*
X82683453Y-123407019D01*
X82685870Y-123412261D01*
X82685870Y-123412262D01*
X82708261Y-123460832D01*
X82775825Y-123607388D01*
X82903164Y-123787569D01*
X83061206Y-123941528D01*
X83066002Y-123944733D01*
X83066005Y-123944735D01*
X83212168Y-124042397D01*
X83244659Y-124064107D01*
X83249962Y-124066385D01*
X83249965Y-124066387D01*
X83371355Y-124118540D01*
X83447378Y-124151202D01*
X83496274Y-124162266D01*
X83656937Y-124198621D01*
X83656943Y-124198622D01*
X83662574Y-124199896D01*
X83668345Y-124200123D01*
X83668347Y-124200123D01*
X83736153Y-124202787D01*
X83883040Y-124208558D01*
X83992217Y-124192728D01*
X84095680Y-124177727D01*
X84095685Y-124177726D01*
X84101394Y-124176898D01*
X84106858Y-124175043D01*
X84106863Y-124175042D01*
X84304849Y-124107835D01*
X84304854Y-124107833D01*
X84310321Y-124105977D01*
X84317716Y-124101836D01*
X84410757Y-124049730D01*
X84502826Y-123998169D01*
X84564557Y-123946828D01*
X84621509Y-123899461D01*
X84686674Y-123871280D01*
X84756729Y-123882804D01*
X84790001Y-123906082D01*
X84878125Y-123991930D01*
X84878132Y-123991935D01*
X84882264Y-123995961D01*
X84887060Y-123999166D01*
X84887063Y-123999168D01*
X84979448Y-124060897D01*
X85065717Y-124118540D01*
X85071020Y-124120818D01*
X85071023Y-124120820D01*
X85252110Y-124198621D01*
X85268436Y-124205635D01*
X85348088Y-124223658D01*
X85477995Y-124253054D01*
X85478001Y-124253055D01*
X85483632Y-124254329D01*
X85489403Y-124254556D01*
X85489405Y-124254556D01*
X85557211Y-124257220D01*
X85704098Y-124262991D01*
X85818165Y-124246452D01*
X85916738Y-124232160D01*
X85916743Y-124232159D01*
X85922452Y-124231331D01*
X85927916Y-124229476D01*
X85927921Y-124229475D01*
X86095866Y-124172465D01*
X86131379Y-124160410D01*
X86136414Y-124157590D01*
X86141700Y-124155237D01*
X86142584Y-124157223D01*
X86202456Y-124143508D01*
X86269245Y-124167586D01*
X86283944Y-124180183D01*
X86358835Y-124255074D01*
X86371271Y-124264721D01*
X86498976Y-124340245D01*
X86513415Y-124346494D01*
X86657332Y-124388305D01*
X86669919Y-124390604D01*
X86697901Y-124392807D01*
X86702827Y-124393000D01*
X86897885Y-124393000D01*
X86913124Y-124388525D01*
X86914329Y-124387135D01*
X86916000Y-124379452D01*
X86916000Y-124374885D01*
X87316000Y-124374885D01*
X87320475Y-124390124D01*
X87321865Y-124391329D01*
X87329548Y-124393000D01*
X87529173Y-124393000D01*
X87534099Y-124392807D01*
X87562081Y-124390604D01*
X87574668Y-124388305D01*
X87718585Y-124346494D01*
X87733024Y-124340245D01*
X87860729Y-124264721D01*
X87873165Y-124255074D01*
X87978074Y-124150165D01*
X87987721Y-124137729D01*
X88063245Y-124010024D01*
X88069494Y-123995585D01*
X88111305Y-123851668D01*
X88113604Y-123839081D01*
X88115807Y-123811099D01*
X88116000Y-123806173D01*
X88116000Y-123311115D01*
X88111525Y-123295876D01*
X88110135Y-123294671D01*
X88102452Y-123293000D01*
X87334115Y-123293000D01*
X87318876Y-123297475D01*
X87317671Y-123298865D01*
X87316000Y-123306548D01*
X87316000Y-124374885D01*
X86916000Y-124374885D01*
X86916000Y-122874885D01*
X87316000Y-122874885D01*
X87320475Y-122890124D01*
X87321865Y-122891329D01*
X87329548Y-122893000D01*
X88097885Y-122893000D01*
X88113124Y-122888525D01*
X88114329Y-122887135D01*
X88116000Y-122879452D01*
X88116000Y-122379828D01*
X88115807Y-122374901D01*
X88113604Y-122346919D01*
X88111305Y-122334332D01*
X88069494Y-122190415D01*
X88063245Y-122175976D01*
X87987721Y-122048271D01*
X87978074Y-122035835D01*
X87873165Y-121930926D01*
X87860729Y-121921279D01*
X87733024Y-121845755D01*
X87718585Y-121839506D01*
X87574668Y-121797695D01*
X87562081Y-121795396D01*
X87534099Y-121793193D01*
X87529172Y-121793000D01*
X87334115Y-121793000D01*
X87318876Y-121797475D01*
X87317671Y-121798865D01*
X87316000Y-121806548D01*
X87316000Y-122874885D01*
X86916000Y-122874885D01*
X86916000Y-121811115D01*
X86911525Y-121795876D01*
X86910135Y-121794671D01*
X86902452Y-121793000D01*
X86702828Y-121793000D01*
X86697901Y-121793193D01*
X86669919Y-121795396D01*
X86657332Y-121797695D01*
X86513415Y-121839506D01*
X86498976Y-121845755D01*
X86371271Y-121921279D01*
X86358835Y-121930926D01*
X86329963Y-121959798D01*
X86267651Y-121993824D01*
X86196836Y-121988759D01*
X86189737Y-121985639D01*
X86188350Y-121984764D01*
X85983421Y-121903006D01*
X85977761Y-121901880D01*
X85977757Y-121901879D01*
X85772691Y-121861089D01*
X85772688Y-121861089D01*
X85767024Y-121859962D01*
X85761249Y-121859886D01*
X85761245Y-121859886D01*
X85650504Y-121858437D01*
X85546406Y-121857074D01*
X85540709Y-121858053D01*
X85540708Y-121858053D01*
X85334654Y-121893459D01*
X85334653Y-121893459D01*
X85328957Y-121894438D01*
X85121957Y-121970804D01*
X85116996Y-121973756D01*
X85116995Y-121973756D01*
X84952362Y-122071703D01*
X84932341Y-122083614D01*
X84918399Y-122095841D01*
X84843166Y-122161818D01*
X84778762Y-122191695D01*
X84708429Y-122182009D01*
X84674560Y-122159611D01*
X84558131Y-122051985D01*
X84558128Y-122051983D01*
X84553891Y-122048066D01*
X84367292Y-121930331D01*
X84162363Y-121848573D01*
X84156703Y-121847447D01*
X84156699Y-121847446D01*
X83951633Y-121806656D01*
X83951630Y-121806656D01*
X83945966Y-121805529D01*
X83940191Y-121805453D01*
X83940187Y-121805453D01*
X83829446Y-121804004D01*
X83725348Y-121802641D01*
X83719651Y-121803620D01*
X83719650Y-121803620D01*
X83513596Y-121839026D01*
X83513595Y-121839026D01*
X83507899Y-121840005D01*
X83300899Y-121916371D01*
X83295938Y-121919323D01*
X83295937Y-121919323D01*
X83156873Y-122002058D01*
X83111283Y-122029181D01*
X82945399Y-122174657D01*
X82808805Y-122347927D01*
X82706073Y-122543187D01*
X82640645Y-122753900D01*
X82614712Y-122973007D01*
X81360761Y-122973007D01*
X81346296Y-122912758D01*
X81336921Y-122890124D01*
X81248772Y-122677314D01*
X81248770Y-122677310D01*
X81246877Y-122672740D01*
X81111135Y-122451228D01*
X80942412Y-122253679D01*
X80744863Y-122084956D01*
X80523351Y-121949214D01*
X80518781Y-121947321D01*
X80518777Y-121947319D01*
X80287906Y-121851689D01*
X80287904Y-121851688D01*
X80283333Y-121849795D01*
X80160066Y-121820201D01*
X80035530Y-121790302D01*
X80035524Y-121790301D01*
X80030717Y-121789147D01*
X79771723Y-121768764D01*
X79766793Y-121769152D01*
X79766792Y-121769152D01*
X79713639Y-121773335D01*
X79644159Y-121758739D01*
X79593600Y-121708896D01*
X79577754Y-121647723D01*
X79577754Y-121574882D01*
X79574689Y-121555530D01*
X79541664Y-121453891D01*
X79532769Y-121436433D01*
X79485769Y-121371743D01*
X79479352Y-121364230D01*
X79013789Y-120898667D01*
X78999845Y-120891053D01*
X78998012Y-120891184D01*
X78991397Y-120895435D01*
X77246023Y-122640809D01*
X77238409Y-122654753D01*
X77238540Y-122656586D01*
X77242791Y-122663201D01*
X77711582Y-123131992D01*
X77719099Y-123138413D01*
X77783789Y-123185414D01*
X77801246Y-123194309D01*
X77902885Y-123227334D01*
X77922237Y-123230399D01*
X77995078Y-123230399D01*
X78063199Y-123250401D01*
X78109692Y-123304057D01*
X78120690Y-123366284D01*
X78118593Y-123392936D01*
X78116119Y-123424368D01*
X78136502Y-123683362D01*
X78137656Y-123688169D01*
X78137657Y-123688175D01*
X78160388Y-123782854D01*
X78197150Y-123935978D01*
X78199043Y-123940549D01*
X78199044Y-123940551D01*
X78290882Y-124162266D01*
X78296569Y-124175996D01*
X78432311Y-124397508D01*
X78601034Y-124595057D01*
X78798583Y-124763780D01*
X79020095Y-124899522D01*
X79024665Y-124901415D01*
X79024669Y-124901417D01*
X79209796Y-124978099D01*
X79260113Y-124998941D01*
X79342282Y-125018668D01*
X79507916Y-125058434D01*
X79507922Y-125058435D01*
X79512729Y-125059589D01*
X79771723Y-125079972D01*
X79776653Y-125079584D01*
X79776660Y-125079584D01*
X79777092Y-125079550D01*
X79777254Y-125079584D01*
X79781608Y-125079584D01*
X79781608Y-125080499D01*
X79846572Y-125094144D01*
X79897133Y-125143985D01*
X79911610Y-125210534D01*
X79912558Y-125210534D01*
X79912558Y-125214894D01*
X79912592Y-125215050D01*
X79912558Y-125215482D01*
X79912558Y-125215489D01*
X79912170Y-125220419D01*
X79932553Y-125479413D01*
X79933707Y-125484220D01*
X79933708Y-125484226D01*
X79957751Y-125584370D01*
X79993201Y-125732029D01*
X79995094Y-125736600D01*
X79995095Y-125736602D01*
X80087837Y-125960499D01*
X80092620Y-125972047D01*
X80228362Y-126193559D01*
X80397085Y-126391108D01*
X80594634Y-126559831D01*
X80816146Y-126695573D01*
X80820716Y-126697466D01*
X80820720Y-126697468D01*
X81051591Y-126793098D01*
X81056164Y-126794992D01*
X81144498Y-126816199D01*
X81303967Y-126854485D01*
X81303973Y-126854486D01*
X81308780Y-126855640D01*
X81567774Y-126876023D01*
X81572704Y-126875635D01*
X81572712Y-126875635D01*
X81573144Y-126875601D01*
X81573306Y-126875635D01*
X81577660Y-126875635D01*
X81577660Y-126876550D01*
X81642624Y-126890195D01*
X81693185Y-126940036D01*
X81707662Y-127006585D01*
X81708610Y-127006585D01*
X81708610Y-127010945D01*
X81708644Y-127011101D01*
X81708610Y-127011533D01*
X81708610Y-127011541D01*
X81708222Y-127016471D01*
X81728605Y-127275465D01*
X81729759Y-127280272D01*
X81729760Y-127280278D01*
X81779350Y-127486833D01*
X81775803Y-127557741D01*
X81734483Y-127615475D01*
X81668510Y-127641705D01*
X81614666Y-127634982D01*
X81587689Y-127625402D01*
X81582666Y-127623497D01*
X80729536Y-127278919D01*
X80724598Y-127276801D01*
X79886936Y-126896161D01*
X79882092Y-126893834D01*
X79061426Y-126477825D01*
X79056686Y-126475294D01*
X78295221Y-126047545D01*
X78254493Y-126024666D01*
X78249870Y-126021938D01*
X78205297Y-125994335D01*
X77692957Y-125677059D01*
X77467622Y-125537516D01*
X77463115Y-125534590D01*
X77113460Y-125296854D01*
X76702217Y-125017243D01*
X76697863Y-125014145D01*
X75959744Y-124464846D01*
X75955505Y-124461549D01*
X75926316Y-124437828D01*
X75241461Y-123881263D01*
X75237368Y-123877789D01*
X75177793Y-123825000D01*
X74769409Y-123463138D01*
X74548720Y-123267589D01*
X74544775Y-123263940D01*
X73882778Y-122624939D01*
X73878992Y-122621125D01*
X73244854Y-121954489D01*
X73241234Y-121950518D01*
X73006567Y-121681752D01*
X76373590Y-121681752D01*
X76376655Y-121701104D01*
X76409680Y-121802743D01*
X76418575Y-121820201D01*
X76465575Y-121884891D01*
X76471992Y-121892404D01*
X76937555Y-122357967D01*
X76951499Y-122365581D01*
X76953332Y-122365450D01*
X76959947Y-122361199D01*
X77680017Y-121641129D01*
X77687631Y-121627185D01*
X77687500Y-121625352D01*
X77683249Y-121618737D01*
X76963180Y-120898668D01*
X76949236Y-120891054D01*
X76947403Y-120891185D01*
X76940788Y-120895436D01*
X76471997Y-121364227D01*
X76465576Y-121371744D01*
X76418575Y-121436434D01*
X76409680Y-121453891D01*
X76376655Y-121555530D01*
X76373590Y-121574882D01*
X76373590Y-121681752D01*
X73006567Y-121681752D01*
X72636078Y-121257429D01*
X72632631Y-121253307D01*
X72348699Y-120898667D01*
X72112898Y-120604144D01*
X77238408Y-120604144D01*
X77238539Y-120605977D01*
X77242790Y-120612592D01*
X77962860Y-121332662D01*
X77976804Y-121340276D01*
X77978637Y-121340145D01*
X77985252Y-121335894D01*
X78705321Y-120615825D01*
X78712935Y-120601881D01*
X78712804Y-120600048D01*
X78708553Y-120593433D01*
X78239762Y-120124642D01*
X78232245Y-120118221D01*
X78167555Y-120071220D01*
X78150098Y-120062325D01*
X78048459Y-120029300D01*
X78029107Y-120026235D01*
X77922237Y-120026235D01*
X77902885Y-120029300D01*
X77801246Y-120062325D01*
X77783788Y-120071220D01*
X77719098Y-120118220D01*
X77711585Y-120124637D01*
X77246022Y-120590200D01*
X77238408Y-120604144D01*
X72112898Y-120604144D01*
X72057565Y-120535031D01*
X72054308Y-120530779D01*
X71510413Y-119788663D01*
X71507330Y-119784262D01*
X71215225Y-119347821D01*
X70995566Y-119019622D01*
X70992703Y-119015142D01*
X70808904Y-118713440D01*
X73470770Y-118713440D01*
X73485200Y-118933604D01*
X73486621Y-118939200D01*
X73486622Y-118939205D01*
X73538090Y-119141857D01*
X73539511Y-119147452D01*
X73541928Y-119152694D01*
X73541928Y-119152695D01*
X73580046Y-119235379D01*
X73631883Y-119347821D01*
X73759222Y-119528002D01*
X73917264Y-119681961D01*
X73922060Y-119685166D01*
X73922063Y-119685168D01*
X74006261Y-119741427D01*
X74100717Y-119804540D01*
X74106020Y-119806818D01*
X74106023Y-119806820D01*
X74298129Y-119889355D01*
X74303436Y-119891635D01*
X74383088Y-119909658D01*
X74512995Y-119939054D01*
X74513001Y-119939055D01*
X74518632Y-119940329D01*
X74524403Y-119940556D01*
X74524405Y-119940556D01*
X74592211Y-119943220D01*
X74739098Y-119948991D01*
X74848275Y-119933161D01*
X74951738Y-119918160D01*
X74951743Y-119918159D01*
X74957452Y-119917331D01*
X74962916Y-119915476D01*
X74962921Y-119915475D01*
X75160907Y-119848268D01*
X75160912Y-119848266D01*
X75166379Y-119846410D01*
X75358884Y-119738602D01*
X75528518Y-119597518D01*
X75669602Y-119427884D01*
X75777410Y-119235379D01*
X75779266Y-119229912D01*
X75779268Y-119229907D01*
X75846475Y-119031921D01*
X75846476Y-119031916D01*
X75848331Y-119026452D01*
X75849159Y-119020743D01*
X75849160Y-119020738D01*
X75868346Y-118888413D01*
X75879991Y-118808098D01*
X75881643Y-118745000D01*
X75861454Y-118525289D01*
X75801565Y-118312936D01*
X75703980Y-118115053D01*
X75571967Y-117938267D01*
X75409949Y-117788499D01*
X75223350Y-117670764D01*
X75018421Y-117589006D01*
X75012761Y-117587880D01*
X75012757Y-117587879D01*
X74807691Y-117547089D01*
X74807688Y-117547089D01*
X74802024Y-117545962D01*
X74796249Y-117545886D01*
X74796245Y-117545886D01*
X74685504Y-117544437D01*
X74581406Y-117543074D01*
X74575709Y-117544053D01*
X74575708Y-117544053D01*
X74369654Y-117579459D01*
X74369653Y-117579459D01*
X74363957Y-117580438D01*
X74156957Y-117656804D01*
X74151996Y-117659756D01*
X74151995Y-117659756D01*
X73993213Y-117754222D01*
X73967341Y-117769614D01*
X73801457Y-117915090D01*
X73664863Y-118088360D01*
X73562131Y-118283620D01*
X73496703Y-118494333D01*
X73470770Y-118713440D01*
X70808904Y-118713440D01*
X70564913Y-118312936D01*
X70513995Y-118229355D01*
X70511298Y-118224708D01*
X70066529Y-117419225D01*
X70064033Y-117414466D01*
X69654044Y-116590812D01*
X69651752Y-116585952D01*
X69639567Y-116558609D01*
X69277227Y-115745503D01*
X69275149Y-115740558D01*
X69240237Y-115652267D01*
X69101567Y-115301585D01*
X68936814Y-114884939D01*
X68934945Y-114879901D01*
X68633395Y-114010618D01*
X68631743Y-114005505D01*
X68599347Y-113897440D01*
X69665770Y-113897440D01*
X69680200Y-114117604D01*
X69681621Y-114123200D01*
X69681622Y-114123205D01*
X69723294Y-114287287D01*
X69734511Y-114331452D01*
X69736928Y-114336694D01*
X69736928Y-114336695D01*
X69775046Y-114419379D01*
X69826883Y-114531821D01*
X69954222Y-114712002D01*
X70112264Y-114865961D01*
X70117060Y-114869166D01*
X70117063Y-114869168D01*
X70201261Y-114925427D01*
X70295717Y-114988540D01*
X70301020Y-114990818D01*
X70301023Y-114990820D01*
X70493129Y-115073355D01*
X70498436Y-115075635D01*
X70578088Y-115093658D01*
X70707995Y-115123054D01*
X70708001Y-115123055D01*
X70713632Y-115124329D01*
X70719403Y-115124556D01*
X70719405Y-115124556D01*
X70787211Y-115127220D01*
X70934098Y-115132991D01*
X71043275Y-115117161D01*
X71146738Y-115102160D01*
X71146743Y-115102159D01*
X71152452Y-115101331D01*
X71157916Y-115099476D01*
X71157921Y-115099475D01*
X71355907Y-115032268D01*
X71355912Y-115032266D01*
X71361379Y-115030410D01*
X71553884Y-114922602D01*
X71565264Y-114913138D01*
X71719086Y-114785204D01*
X71723518Y-114781518D01*
X71762684Y-114734426D01*
X71860908Y-114616326D01*
X71860910Y-114616323D01*
X71864602Y-114611884D01*
X71955727Y-114449168D01*
X71969586Y-114424422D01*
X71969587Y-114424420D01*
X71972410Y-114419379D01*
X71974266Y-114413912D01*
X71974268Y-114413907D01*
X72041475Y-114215921D01*
X72041476Y-114215916D01*
X72043331Y-114210452D01*
X72044159Y-114204743D01*
X72044160Y-114204738D01*
X72064594Y-114063803D01*
X72074991Y-113992098D01*
X72076643Y-113929000D01*
X72056454Y-113709289D01*
X71996565Y-113496936D01*
X71913050Y-113327585D01*
X71901535Y-113304234D01*
X71898980Y-113299053D01*
X71870311Y-113260660D01*
X71770420Y-113126891D01*
X71770420Y-113126890D01*
X71766967Y-113122267D01*
X71669586Y-113032249D01*
X71609189Y-112976418D01*
X71609186Y-112976416D01*
X71604949Y-112972499D01*
X71418350Y-112854764D01*
X71213421Y-112773006D01*
X71207761Y-112771880D01*
X71207757Y-112771879D01*
X71002691Y-112731089D01*
X71002688Y-112731089D01*
X70997024Y-112729962D01*
X70991249Y-112729886D01*
X70991245Y-112729886D01*
X70880504Y-112728437D01*
X70776406Y-112727074D01*
X70770709Y-112728053D01*
X70770708Y-112728053D01*
X70564654Y-112763459D01*
X70564653Y-112763459D01*
X70558957Y-112764438D01*
X70351957Y-112840804D01*
X70346996Y-112843756D01*
X70346995Y-112843756D01*
X70208499Y-112926153D01*
X70162341Y-112953614D01*
X69996457Y-113099090D01*
X69859863Y-113272360D01*
X69757131Y-113467620D01*
X69691703Y-113678333D01*
X69665770Y-113897440D01*
X68599347Y-113897440D01*
X68479283Y-113496936D01*
X68367530Y-113124152D01*
X68366102Y-113118991D01*
X68361134Y-113099418D01*
X68237690Y-112613141D01*
X74110069Y-112613141D01*
X74124499Y-112833305D01*
X74125920Y-112838901D01*
X74125921Y-112838906D01*
X74159067Y-112969417D01*
X74178810Y-113047153D01*
X74181227Y-113052395D01*
X74181227Y-113052396D01*
X74219345Y-113135080D01*
X74271182Y-113247522D01*
X74398521Y-113427703D01*
X74556563Y-113581662D01*
X74561359Y-113584867D01*
X74561362Y-113584869D01*
X74645560Y-113641128D01*
X74740016Y-113704241D01*
X74745319Y-113706519D01*
X74745322Y-113706521D01*
X74937428Y-113789056D01*
X74942735Y-113791336D01*
X75022387Y-113809359D01*
X75152294Y-113838755D01*
X75152300Y-113838756D01*
X75157931Y-113840030D01*
X75163702Y-113840257D01*
X75163704Y-113840257D01*
X75231510Y-113842921D01*
X75378397Y-113848692D01*
X75487574Y-113832862D01*
X75591037Y-113817861D01*
X75591042Y-113817860D01*
X75596751Y-113817032D01*
X75602215Y-113815177D01*
X75602220Y-113815176D01*
X75800206Y-113747969D01*
X75800211Y-113747967D01*
X75805678Y-113746111D01*
X75998183Y-113638303D01*
X76036093Y-113606774D01*
X76163385Y-113500905D01*
X76167817Y-113497219D01*
X76229555Y-113422988D01*
X76305207Y-113332027D01*
X76305209Y-113332024D01*
X76308901Y-113327585D01*
X76416709Y-113135080D01*
X76418565Y-113129613D01*
X76418567Y-113129608D01*
X76485774Y-112931622D01*
X76485775Y-112931617D01*
X76487630Y-112926153D01*
X76488458Y-112920444D01*
X76488459Y-112920439D01*
X76510737Y-112766787D01*
X76519290Y-112707799D01*
X76520942Y-112644701D01*
X76500753Y-112424990D01*
X76496889Y-112411287D01*
X76456455Y-112267918D01*
X76440864Y-112212637D01*
X76343279Y-112014754D01*
X76265668Y-111910820D01*
X76214719Y-111842592D01*
X76214719Y-111842591D01*
X76211266Y-111837968D01*
X76084093Y-111720410D01*
X76053488Y-111692119D01*
X76053485Y-111692117D01*
X76049248Y-111688200D01*
X75862649Y-111570465D01*
X75657720Y-111488707D01*
X75652060Y-111487581D01*
X75652056Y-111487580D01*
X75446990Y-111446790D01*
X75446987Y-111446790D01*
X75441323Y-111445663D01*
X75435548Y-111445587D01*
X75435544Y-111445587D01*
X75324803Y-111444138D01*
X75220705Y-111442775D01*
X75215008Y-111443754D01*
X75215007Y-111443754D01*
X75008953Y-111479160D01*
X75008952Y-111479160D01*
X75003256Y-111480139D01*
X74796256Y-111556505D01*
X74791295Y-111559457D01*
X74791294Y-111559457D01*
X74711036Y-111607206D01*
X74606640Y-111669315D01*
X74440756Y-111814791D01*
X74304162Y-111988061D01*
X74201430Y-112183321D01*
X74136002Y-112394034D01*
X74110069Y-112613141D01*
X68237690Y-112613141D01*
X68197025Y-112452952D01*
X68139717Y-112227199D01*
X68138506Y-112221964D01*
X68033136Y-111717598D01*
X67950348Y-111321318D01*
X67949362Y-111316043D01*
X67943208Y-111278695D01*
X67933609Y-111220440D01*
X78331759Y-111220440D01*
X78346189Y-111440604D01*
X78347610Y-111446200D01*
X78347611Y-111446205D01*
X78397457Y-111642472D01*
X78400500Y-111654452D01*
X78402917Y-111659694D01*
X78402917Y-111659695D01*
X78452140Y-111766468D01*
X78492872Y-111854821D01*
X78620211Y-112035002D01*
X78778253Y-112188961D01*
X78783049Y-112192166D01*
X78783052Y-112192168D01*
X78888773Y-112262808D01*
X78961706Y-112311540D01*
X78967009Y-112313818D01*
X78967012Y-112313820D01*
X79080281Y-112362484D01*
X79164425Y-112398635D01*
X79215332Y-112410154D01*
X79373984Y-112446054D01*
X79373990Y-112446055D01*
X79379621Y-112447329D01*
X79385392Y-112447556D01*
X79385394Y-112447556D01*
X79453200Y-112450220D01*
X79600087Y-112455991D01*
X79709264Y-112440161D01*
X79812727Y-112425160D01*
X79812732Y-112425159D01*
X79818441Y-112424331D01*
X79823905Y-112422476D01*
X79823910Y-112422475D01*
X80021896Y-112355268D01*
X80021901Y-112355266D01*
X80027368Y-112353410D01*
X80056435Y-112337132D01*
X80197249Y-112258272D01*
X80219873Y-112245602D01*
X80230654Y-112236636D01*
X80372185Y-112118925D01*
X80389507Y-112104518D01*
X80530591Y-111934884D01*
X80543578Y-111911694D01*
X80594314Y-111862033D01*
X80663846Y-111847686D01*
X80730097Y-111873207D01*
X80742607Y-111884166D01*
X81268595Y-112410154D01*
X81302621Y-112472466D01*
X81305500Y-112499249D01*
X81305500Y-114560037D01*
X81285498Y-114628158D01*
X81278450Y-114638042D01*
X81219863Y-114712360D01*
X81117131Y-114907620D01*
X81051703Y-115118333D01*
X81025770Y-115337440D01*
X81040200Y-115557604D01*
X81041621Y-115563200D01*
X81041622Y-115563205D01*
X81087923Y-115745512D01*
X81094511Y-115771452D01*
X81096928Y-115776694D01*
X81096928Y-115776695D01*
X81121066Y-115829053D01*
X81186883Y-115971821D01*
X81314222Y-116152002D01*
X81472264Y-116305961D01*
X81477060Y-116309166D01*
X81477063Y-116309168D01*
X81486495Y-116315470D01*
X81655717Y-116428540D01*
X81661020Y-116430818D01*
X81661023Y-116430820D01*
X81835125Y-116505620D01*
X81858436Y-116515635D01*
X81895696Y-116524066D01*
X81957722Y-116558609D01*
X81991227Y-116621202D01*
X81993617Y-116638710D01*
X81994200Y-116647604D01*
X81995621Y-116653200D01*
X81995622Y-116653205D01*
X82029055Y-116784845D01*
X82048511Y-116861452D01*
X82050928Y-116866694D01*
X82050928Y-116866695D01*
X82089046Y-116949379D01*
X82140883Y-117061821D01*
X82268222Y-117242002D01*
X82426264Y-117395961D01*
X82431060Y-117399166D01*
X82431063Y-117399168D01*
X82515261Y-117455427D01*
X82609717Y-117518540D01*
X82615020Y-117520818D01*
X82615023Y-117520820D01*
X82753788Y-117580438D01*
X82812436Y-117605635D01*
X82892088Y-117623658D01*
X83021995Y-117653054D01*
X83022001Y-117653055D01*
X83027632Y-117654329D01*
X83033403Y-117654556D01*
X83033405Y-117654556D01*
X83101211Y-117657220D01*
X83248098Y-117662991D01*
X83357275Y-117647161D01*
X83460738Y-117632160D01*
X83460743Y-117632159D01*
X83466452Y-117631331D01*
X83471916Y-117629476D01*
X83471921Y-117629475D01*
X83669907Y-117562268D01*
X83669912Y-117562266D01*
X83675379Y-117560410D01*
X83699166Y-117547089D01*
X83755875Y-117515330D01*
X83867884Y-117452602D01*
X83908016Y-117419225D01*
X84033086Y-117315204D01*
X84037518Y-117311518D01*
X84178602Y-117141884D01*
X84286410Y-116949379D01*
X84288266Y-116943912D01*
X84288268Y-116943907D01*
X84355475Y-116745921D01*
X84355476Y-116745916D01*
X84357331Y-116740452D01*
X84358159Y-116734743D01*
X84358160Y-116734738D01*
X84379379Y-116588391D01*
X84388991Y-116522098D01*
X84390643Y-116459000D01*
X84370454Y-116239289D01*
X84359970Y-116202113D01*
X84312134Y-116032500D01*
X84310565Y-116026936D01*
X84212980Y-115829053D01*
X84192375Y-115801459D01*
X84084420Y-115656891D01*
X84084420Y-115656890D01*
X84080967Y-115652267D01*
X83918949Y-115502499D01*
X83732350Y-115384764D01*
X83527421Y-115303006D01*
X83521654Y-115301859D01*
X83521058Y-115301740D01*
X83520761Y-115301585D01*
X83516215Y-115300238D01*
X83516479Y-115299345D01*
X83458148Y-115268834D01*
X83423016Y-115207139D01*
X83420167Y-115189692D01*
X83416983Y-115155046D01*
X83416454Y-115149289D01*
X83356565Y-114936936D01*
X83258980Y-114739053D01*
X83239047Y-114712360D01*
X83181542Y-114635351D01*
X83156810Y-114568801D01*
X83156500Y-114559962D01*
X83156500Y-113477440D01*
X83795770Y-113477440D01*
X83810200Y-113697604D01*
X83811621Y-113703200D01*
X83811622Y-113703205D01*
X83848073Y-113846729D01*
X83864511Y-113911452D01*
X83866928Y-113916694D01*
X83866928Y-113916695D01*
X83903383Y-113995772D01*
X83956883Y-114111821D01*
X84084222Y-114292002D01*
X84242264Y-114445961D01*
X84247060Y-114449166D01*
X84247063Y-114449168D01*
X84331261Y-114505427D01*
X84425717Y-114568540D01*
X84431020Y-114570818D01*
X84431023Y-114570820D01*
X84587487Y-114638042D01*
X84628436Y-114655635D01*
X84708088Y-114673658D01*
X84837995Y-114703054D01*
X84838001Y-114703055D01*
X84843632Y-114704329D01*
X84849403Y-114704556D01*
X84849405Y-114704556D01*
X84917211Y-114707220D01*
X85064098Y-114712991D01*
X85173275Y-114697161D01*
X85276738Y-114682160D01*
X85276743Y-114682159D01*
X85282452Y-114681331D01*
X85287916Y-114679476D01*
X85287921Y-114679475D01*
X85485907Y-114612268D01*
X85485912Y-114612266D01*
X85491379Y-114610410D01*
X85497756Y-114606839D01*
X85581460Y-114559962D01*
X85683884Y-114502602D01*
X85790528Y-114413907D01*
X85849086Y-114365204D01*
X85853518Y-114361518D01*
X85979540Y-114209994D01*
X85990908Y-114196326D01*
X85990910Y-114196323D01*
X85994602Y-114191884D01*
X86102410Y-113999379D01*
X86129844Y-113918562D01*
X86170680Y-113860487D01*
X86236432Y-113833708D01*
X86306225Y-113846729D01*
X86321579Y-113856686D01*
X86321764Y-113856409D01*
X86505217Y-113978988D01*
X86510520Y-113981266D01*
X86510523Y-113981268D01*
X86702629Y-114063803D01*
X86707936Y-114066083D01*
X86787588Y-114084106D01*
X86917495Y-114113502D01*
X86917501Y-114113503D01*
X86923132Y-114114777D01*
X86928903Y-114115004D01*
X86928905Y-114115004D01*
X86995085Y-114117604D01*
X87143598Y-114123439D01*
X87252775Y-114107609D01*
X87356238Y-114092608D01*
X87356243Y-114092607D01*
X87361952Y-114091779D01*
X87367416Y-114089924D01*
X87367421Y-114089923D01*
X87565407Y-114022716D01*
X87565412Y-114022714D01*
X87570879Y-114020858D01*
X87593682Y-114008088D01*
X87741501Y-113925305D01*
X87763384Y-113913050D01*
X87789049Y-113891705D01*
X87928586Y-113775652D01*
X87933018Y-113771966D01*
X87990206Y-113703205D01*
X88070408Y-113606774D01*
X88070410Y-113606771D01*
X88074102Y-113602332D01*
X88149544Y-113467620D01*
X88179086Y-113414870D01*
X88179087Y-113414868D01*
X88181910Y-113409827D01*
X88183766Y-113404360D01*
X88183768Y-113404355D01*
X88250975Y-113206369D01*
X88250976Y-113206364D01*
X88252831Y-113200900D01*
X88253659Y-113195191D01*
X88253660Y-113195186D01*
X88275935Y-113041558D01*
X88284491Y-112982546D01*
X88286143Y-112919448D01*
X88265954Y-112699737D01*
X88251950Y-112650080D01*
X88228503Y-112566945D01*
X88206065Y-112487384D01*
X88140913Y-112355268D01*
X88111035Y-112294682D01*
X88108480Y-112289501D01*
X88077809Y-112248427D01*
X87987650Y-112127690D01*
X90126020Y-112127690D01*
X90127846Y-112155555D01*
X90139535Y-112333886D01*
X90140450Y-112347854D01*
X90141871Y-112353450D01*
X90141872Y-112353455D01*
X90178900Y-112499249D01*
X90194761Y-112561702D01*
X90197178Y-112566944D01*
X90197178Y-112566945D01*
X90241948Y-112664057D01*
X90287133Y-112762071D01*
X90414472Y-112942252D01*
X90572514Y-113096211D01*
X90577310Y-113099416D01*
X90577313Y-113099418D01*
X90661511Y-113155677D01*
X90755967Y-113218790D01*
X90761270Y-113221068D01*
X90761273Y-113221070D01*
X90880654Y-113272360D01*
X90958686Y-113305885D01*
X91032290Y-113322540D01*
X91168245Y-113353304D01*
X91168251Y-113353305D01*
X91173882Y-113354579D01*
X91179653Y-113354806D01*
X91179655Y-113354806D01*
X91247461Y-113357470D01*
X91394348Y-113363241D01*
X91503525Y-113347411D01*
X91606988Y-113332410D01*
X91606993Y-113332409D01*
X91612702Y-113331581D01*
X91618166Y-113329726D01*
X91618171Y-113329725D01*
X91816157Y-113262518D01*
X91816162Y-113262516D01*
X91821629Y-113260660D01*
X91835636Y-113252816D01*
X91902125Y-113215580D01*
X92014134Y-113152852D01*
X92035503Y-113135080D01*
X92179336Y-113015454D01*
X92183768Y-113011768D01*
X92228966Y-112957424D01*
X92321158Y-112846576D01*
X92321160Y-112846573D01*
X92324852Y-112842134D01*
X92404598Y-112699737D01*
X92429836Y-112654672D01*
X92429837Y-112654670D01*
X92432660Y-112649629D01*
X92434516Y-112644162D01*
X92434518Y-112644157D01*
X92501725Y-112446171D01*
X92501726Y-112446166D01*
X92503581Y-112440702D01*
X92504409Y-112434993D01*
X92504410Y-112434988D01*
X92526175Y-112284874D01*
X92535241Y-112222348D01*
X92536893Y-112159250D01*
X92516704Y-111939539D01*
X92513971Y-111929846D01*
X92476668Y-111797582D01*
X92456815Y-111727186D01*
X92359230Y-111529303D01*
X92330514Y-111490847D01*
X92230670Y-111357141D01*
X92230670Y-111357140D01*
X92227217Y-111352517D01*
X92065199Y-111202749D01*
X91878600Y-111085014D01*
X91673671Y-111003256D01*
X91668011Y-111002130D01*
X91668007Y-111002129D01*
X91462941Y-110961339D01*
X91462938Y-110961339D01*
X91457274Y-110960212D01*
X91451499Y-110960136D01*
X91451495Y-110960136D01*
X91340754Y-110958687D01*
X91236656Y-110957324D01*
X91230959Y-110958303D01*
X91230958Y-110958303D01*
X91024904Y-110993709D01*
X91024903Y-110993709D01*
X91019207Y-110994688D01*
X90812207Y-111071054D01*
X90807246Y-111074006D01*
X90807245Y-111074006D01*
X90721973Y-111124738D01*
X90622591Y-111183864D01*
X90456707Y-111329340D01*
X90320113Y-111502610D01*
X90217381Y-111697870D01*
X90151953Y-111908583D01*
X90126020Y-112127690D01*
X87987650Y-112127690D01*
X87979920Y-112117339D01*
X87979920Y-112117338D01*
X87976467Y-112112715D01*
X87870977Y-112015201D01*
X87818689Y-111966866D01*
X87818686Y-111966864D01*
X87814449Y-111962947D01*
X87627850Y-111845212D01*
X87422921Y-111763454D01*
X87417261Y-111762328D01*
X87417257Y-111762327D01*
X87212191Y-111721537D01*
X87212188Y-111721537D01*
X87206524Y-111720410D01*
X87200749Y-111720334D01*
X87200745Y-111720334D01*
X87090004Y-111718885D01*
X86985906Y-111717522D01*
X86980209Y-111718501D01*
X86980208Y-111718501D01*
X86774154Y-111753907D01*
X86774153Y-111753907D01*
X86768457Y-111754886D01*
X86561457Y-111831252D01*
X86556496Y-111834204D01*
X86556495Y-111834204D01*
X86388796Y-111933975D01*
X86371841Y-111944062D01*
X86205957Y-112089538D01*
X86069363Y-112262808D01*
X85966631Y-112458068D01*
X85964917Y-112463589D01*
X85964915Y-112463593D01*
X85951397Y-112507126D01*
X85912094Y-112566251D01*
X85847064Y-112594741D01*
X85776955Y-112583551D01*
X85745534Y-112562284D01*
X85744905Y-112561702D01*
X85734949Y-112552499D01*
X85548350Y-112434764D01*
X85343421Y-112353006D01*
X85337761Y-112351880D01*
X85337757Y-112351879D01*
X85132691Y-112311089D01*
X85132688Y-112311089D01*
X85127024Y-112309962D01*
X85121249Y-112309886D01*
X85121245Y-112309886D01*
X85010504Y-112308437D01*
X84906406Y-112307074D01*
X84900709Y-112308053D01*
X84900708Y-112308053D01*
X84694654Y-112343459D01*
X84694653Y-112343459D01*
X84688957Y-112344438D01*
X84481957Y-112420804D01*
X84476996Y-112423756D01*
X84476995Y-112423756D01*
X84424207Y-112455162D01*
X84292341Y-112533614D01*
X84126457Y-112679090D01*
X83989863Y-112852360D01*
X83887131Y-113047620D01*
X83841311Y-113195186D01*
X83823596Y-113252238D01*
X83821703Y-113258333D01*
X83795770Y-113477440D01*
X83156500Y-113477440D01*
X83156500Y-112146464D01*
X83158051Y-112126753D01*
X83159291Y-112118925D01*
X83160323Y-112112409D01*
X83159910Y-112104518D01*
X83156673Y-112042757D01*
X83156500Y-112036163D01*
X83156500Y-112015201D01*
X83155967Y-112010127D01*
X83154309Y-111994350D01*
X83153792Y-111987775D01*
X83150488Y-111924723D01*
X83150487Y-111924719D01*
X83150142Y-111918128D01*
X83146379Y-111904085D01*
X83142780Y-111884667D01*
X83141262Y-111870223D01*
X83119705Y-111803875D01*
X83117856Y-111797637D01*
X83099788Y-111730208D01*
X83093195Y-111717268D01*
X83085630Y-111699004D01*
X83081144Y-111685197D01*
X83077843Y-111679479D01*
X83046266Y-111624786D01*
X83043118Y-111618988D01*
X83014465Y-111562752D01*
X83014463Y-111562749D01*
X83011465Y-111556865D01*
X83002330Y-111545584D01*
X82991138Y-111529301D01*
X82983870Y-111516713D01*
X82937203Y-111464884D01*
X82932919Y-111459869D01*
X82932411Y-111459242D01*
X82919725Y-111443576D01*
X82904919Y-111428770D01*
X82900378Y-111423986D01*
X82858107Y-111377039D01*
X82858105Y-111377038D01*
X82853692Y-111372136D01*
X82841938Y-111363596D01*
X82826905Y-111350756D01*
X81369406Y-109893257D01*
X81335380Y-109830945D01*
X81333030Y-109815690D01*
X81331607Y-109800197D01*
X81328123Y-109762289D01*
X81327982Y-109760750D01*
X81327453Y-109754993D01*
X81325154Y-109746839D01*
X81271191Y-109555500D01*
X81267564Y-109542640D01*
X81169979Y-109344757D01*
X81129879Y-109291056D01*
X81041419Y-109172595D01*
X81041419Y-109172594D01*
X81037966Y-109167971D01*
X80926903Y-109065305D01*
X80880188Y-109022122D01*
X80880185Y-109022120D01*
X80875948Y-109018203D01*
X80689349Y-108900468D01*
X80484420Y-108818710D01*
X80478760Y-108817584D01*
X80478756Y-108817583D01*
X80273690Y-108776793D01*
X80273687Y-108776793D01*
X80268023Y-108775666D01*
X80262248Y-108775590D01*
X80262244Y-108775590D01*
X80151503Y-108774141D01*
X80047405Y-108772778D01*
X80041708Y-108773757D01*
X80041707Y-108773757D01*
X79835653Y-108809163D01*
X79835652Y-108809163D01*
X79829956Y-108810142D01*
X79622956Y-108886508D01*
X79433340Y-108999318D01*
X79267456Y-109144794D01*
X79130862Y-109318064D01*
X79028130Y-109513324D01*
X78962702Y-109724037D01*
X78936769Y-109943144D01*
X78937147Y-109948911D01*
X78948685Y-110124959D01*
X78933181Y-110194242D01*
X78887378Y-110241484D01*
X78833295Y-110273660D01*
X78828330Y-110276614D01*
X78662446Y-110422090D01*
X78525852Y-110595360D01*
X78423120Y-110790620D01*
X78357692Y-111001333D01*
X78331759Y-111220440D01*
X67933609Y-111220440D01*
X67799771Y-110408156D01*
X67799013Y-110402851D01*
X67797327Y-110388938D01*
X67694722Y-109542640D01*
X67688275Y-109489465D01*
X67687742Y-109484118D01*
X67652831Y-109037440D01*
X74175770Y-109037440D01*
X74190200Y-109257604D01*
X74191621Y-109263200D01*
X74191622Y-109263205D01*
X74215503Y-109357234D01*
X74244511Y-109471452D01*
X74246928Y-109476694D01*
X74246928Y-109476695D01*
X74283258Y-109555500D01*
X74336883Y-109671821D01*
X74464222Y-109852002D01*
X74622264Y-110005961D01*
X74627060Y-110009166D01*
X74627063Y-110009168D01*
X74711261Y-110065427D01*
X74805717Y-110128540D01*
X74811020Y-110130818D01*
X74811023Y-110130820D01*
X75003129Y-110213355D01*
X75008436Y-110215635D01*
X75088088Y-110233658D01*
X75217995Y-110263054D01*
X75218001Y-110263055D01*
X75223632Y-110264329D01*
X75229403Y-110264556D01*
X75229405Y-110264556D01*
X75297211Y-110267220D01*
X75444098Y-110272991D01*
X75553275Y-110257161D01*
X75656738Y-110242160D01*
X75656743Y-110242159D01*
X75662452Y-110241331D01*
X75667916Y-110239476D01*
X75667921Y-110239475D01*
X75865907Y-110172268D01*
X75865912Y-110172266D01*
X75871379Y-110170410D01*
X76063884Y-110062602D01*
X76082775Y-110046891D01*
X76229086Y-109925204D01*
X76233518Y-109921518D01*
X76321535Y-109815690D01*
X76370908Y-109756326D01*
X76370910Y-109756323D01*
X76374602Y-109751884D01*
X76482410Y-109559379D01*
X76484266Y-109553912D01*
X76484268Y-109553907D01*
X76551475Y-109355921D01*
X76551476Y-109355916D01*
X76553331Y-109350452D01*
X76554159Y-109344743D01*
X76554160Y-109344738D01*
X76579119Y-109172595D01*
X76584991Y-109132098D01*
X76586643Y-109069000D01*
X76566454Y-108849289D01*
X76558434Y-108820850D01*
X76508134Y-108642500D01*
X76506565Y-108636936D01*
X76408980Y-108439053D01*
X76402516Y-108430396D01*
X76280420Y-108266891D01*
X76280420Y-108266890D01*
X76276967Y-108262267D01*
X76114949Y-108112499D01*
X75928350Y-107994764D01*
X75723421Y-107913006D01*
X75717761Y-107911880D01*
X75717757Y-107911879D01*
X75512691Y-107871089D01*
X75512688Y-107871089D01*
X75507024Y-107869962D01*
X75501249Y-107869886D01*
X75501245Y-107869886D01*
X75390504Y-107868437D01*
X75286406Y-107867074D01*
X75280709Y-107868053D01*
X75280708Y-107868053D01*
X75074654Y-107903459D01*
X75074653Y-107903459D01*
X75068957Y-107904438D01*
X74861957Y-107980804D01*
X74672341Y-108093614D01*
X74506457Y-108239090D01*
X74369863Y-108412360D01*
X74267131Y-108607620D01*
X74201703Y-108818333D01*
X74175770Y-109037440D01*
X67652831Y-109037440D01*
X67616049Y-108566813D01*
X67615745Y-108561448D01*
X67583230Y-107641956D01*
X67583154Y-107636583D01*
X67583840Y-107542632D01*
X77206055Y-107542632D01*
X77220485Y-107762796D01*
X77221906Y-107768392D01*
X77221907Y-107768397D01*
X77258634Y-107913006D01*
X77274796Y-107976644D01*
X77277213Y-107981886D01*
X77277213Y-107981887D01*
X77315331Y-108064571D01*
X77367168Y-108177013D01*
X77494507Y-108357194D01*
X77652549Y-108511153D01*
X77657345Y-108514358D01*
X77657348Y-108514360D01*
X77803511Y-108612022D01*
X77836002Y-108633732D01*
X77841305Y-108636010D01*
X77841308Y-108636012D01*
X78033414Y-108718547D01*
X78038721Y-108720827D01*
X78118373Y-108738850D01*
X78248280Y-108768246D01*
X78248286Y-108768247D01*
X78253917Y-108769521D01*
X78259688Y-108769748D01*
X78259690Y-108769748D01*
X78327496Y-108772412D01*
X78474383Y-108778183D01*
X78583560Y-108762353D01*
X78687023Y-108747352D01*
X78687028Y-108747351D01*
X78692737Y-108746523D01*
X78698201Y-108744668D01*
X78698206Y-108744667D01*
X78896192Y-108677460D01*
X78896197Y-108677458D01*
X78901664Y-108675602D01*
X79094169Y-108567794D01*
X79101800Y-108561448D01*
X79248962Y-108439053D01*
X79263803Y-108426710D01*
X79357412Y-108314158D01*
X79401193Y-108261518D01*
X79401195Y-108261515D01*
X79404887Y-108257076D01*
X79487580Y-108109417D01*
X79509871Y-108069614D01*
X79509872Y-108069612D01*
X79512695Y-108064571D01*
X79514551Y-108059104D01*
X79514553Y-108059099D01*
X79581760Y-107861113D01*
X79581761Y-107861108D01*
X79583616Y-107855644D01*
X79584444Y-107849935D01*
X79584445Y-107849930D01*
X79614743Y-107640964D01*
X79615276Y-107637290D01*
X79616928Y-107574192D01*
X79596739Y-107354481D01*
X79536850Y-107142128D01*
X79439265Y-106944245D01*
X79434833Y-106938309D01*
X79310705Y-106772083D01*
X79310705Y-106772082D01*
X79307252Y-106767459D01*
X79172810Y-106643182D01*
X79149474Y-106621610D01*
X79149471Y-106621608D01*
X79145234Y-106617691D01*
X78958635Y-106499956D01*
X78753706Y-106418198D01*
X78748046Y-106417072D01*
X78748042Y-106417071D01*
X78542976Y-106376281D01*
X78542973Y-106376281D01*
X78537309Y-106375154D01*
X78531534Y-106375078D01*
X78531530Y-106375078D01*
X78420789Y-106373629D01*
X78316691Y-106372266D01*
X78310994Y-106373245D01*
X78310993Y-106373245D01*
X78104939Y-106408651D01*
X78104938Y-106408651D01*
X78099242Y-106409630D01*
X77892242Y-106485996D01*
X77887281Y-106488948D01*
X77887280Y-106488948D01*
X77733438Y-106580475D01*
X77702626Y-106598806D01*
X77536742Y-106744282D01*
X77400148Y-106917552D01*
X77297416Y-107112812D01*
X77231988Y-107323525D01*
X77206055Y-107542632D01*
X67583840Y-107542632D01*
X67588221Y-106942858D01*
X67589875Y-106716482D01*
X67590028Y-106711128D01*
X67590078Y-106710141D01*
X67635974Y-105792176D01*
X67636356Y-105786823D01*
X67641499Y-105731452D01*
X67681271Y-105303206D01*
X67721441Y-104870681D01*
X67722052Y-104865342D01*
X67846122Y-103953658D01*
X67846960Y-103948351D01*
X67989447Y-103155921D01*
X68009790Y-103042784D01*
X68010851Y-103037527D01*
X68033666Y-102935772D01*
X68212157Y-102139679D01*
X68213441Y-102134479D01*
X68266269Y-101938433D01*
X68452827Y-101246101D01*
X68454332Y-101240953D01*
X68472698Y-101182792D01*
X68731396Y-100363539D01*
X68733119Y-100358462D01*
X68773773Y-100246576D01*
X69047328Y-99493701D01*
X69049268Y-99488694D01*
X69050693Y-99485240D01*
X69385883Y-98672499D01*
X69400079Y-98638077D01*
X69402234Y-98633154D01*
X69725300Y-97935764D01*
X69788978Y-97798305D01*
X69791339Y-97793481D01*
X70213331Y-96975875D01*
X70215897Y-96971153D01*
X70537190Y-96408857D01*
X70672382Y-96172258D01*
X70675142Y-96167659D01*
X70720063Y-96096291D01*
X71165244Y-95389003D01*
X71168202Y-95384517D01*
X71691091Y-94627420D01*
X71694239Y-94623064D01*
X72248917Y-93888973D01*
X72252247Y-93884756D01*
X72837719Y-93174987D01*
X72841226Y-93170916D01*
X73398263Y-92551440D01*
X74359770Y-92551440D01*
X74374200Y-92771604D01*
X74375621Y-92777200D01*
X74375622Y-92777205D01*
X74401202Y-92877923D01*
X74428511Y-92985452D01*
X74430928Y-92990694D01*
X74430928Y-92990695D01*
X74469046Y-93073379D01*
X74520883Y-93185821D01*
X74648222Y-93366002D01*
X74806264Y-93519961D01*
X74811060Y-93523166D01*
X74811063Y-93523168D01*
X74895261Y-93579427D01*
X74989717Y-93642540D01*
X74995020Y-93644818D01*
X74995023Y-93644820D01*
X75132296Y-93703797D01*
X75192436Y-93729635D01*
X75272088Y-93747658D01*
X75401995Y-93777054D01*
X75402001Y-93777055D01*
X75407632Y-93778329D01*
X75413403Y-93778556D01*
X75413405Y-93778556D01*
X75481211Y-93781220D01*
X75628098Y-93786991D01*
X75737275Y-93771161D01*
X75840738Y-93756160D01*
X75840743Y-93756159D01*
X75846452Y-93755331D01*
X75851916Y-93753476D01*
X75851921Y-93753475D01*
X76049907Y-93686268D01*
X76049912Y-93686266D01*
X76055379Y-93684410D01*
X76247884Y-93576602D01*
X76260387Y-93566204D01*
X76388426Y-93459714D01*
X76417518Y-93435518D01*
X76452977Y-93392884D01*
X76554908Y-93270326D01*
X76554910Y-93270323D01*
X76558602Y-93265884D01*
X76666410Y-93073379D01*
X76668266Y-93067912D01*
X76668268Y-93067907D01*
X76735475Y-92869921D01*
X76735476Y-92869916D01*
X76737331Y-92864452D01*
X76738159Y-92858743D01*
X76738160Y-92858738D01*
X76757990Y-92721968D01*
X76768991Y-92646098D01*
X76770643Y-92583000D01*
X76750454Y-92363289D01*
X76690565Y-92150936D01*
X76592980Y-91953053D01*
X76533617Y-91873556D01*
X76464420Y-91780891D01*
X76464420Y-91780890D01*
X76460967Y-91776267D01*
X76298949Y-91626499D01*
X76112350Y-91508764D01*
X75907421Y-91427006D01*
X75901761Y-91425880D01*
X75901757Y-91425879D01*
X75696691Y-91385089D01*
X75696688Y-91385089D01*
X75691024Y-91383962D01*
X75685249Y-91383886D01*
X75685245Y-91383886D01*
X75574504Y-91382437D01*
X75470406Y-91381074D01*
X75464709Y-91382053D01*
X75464708Y-91382053D01*
X75258654Y-91417459D01*
X75258653Y-91417459D01*
X75252957Y-91418438D01*
X75045957Y-91494804D01*
X75040996Y-91497756D01*
X75040995Y-91497756D01*
X74873913Y-91597160D01*
X74856341Y-91607614D01*
X74690457Y-91753090D01*
X74553863Y-91926360D01*
X74451131Y-92121620D01*
X74385703Y-92332333D01*
X74359770Y-92551440D01*
X73398263Y-92551440D01*
X73456448Y-92486733D01*
X73460093Y-92482848D01*
X74103968Y-91825480D01*
X74107775Y-91821756D01*
X74150966Y-91781268D01*
X74779051Y-91192480D01*
X74783049Y-91188890D01*
X75480515Y-90588834D01*
X75484662Y-90585417D01*
X75695227Y-90419344D01*
X76207113Y-90015618D01*
X76211371Y-90012405D01*
X76387640Y-89885186D01*
X76454583Y-89861538D01*
X76523683Y-89877837D01*
X76573003Y-89928907D01*
X76586882Y-89998534D01*
X76572887Y-90046023D01*
X76483131Y-90216620D01*
X76417703Y-90427333D01*
X76391770Y-90646440D01*
X76392148Y-90652206D01*
X76404543Y-90841315D01*
X76406200Y-90866604D01*
X76407621Y-90872200D01*
X76407622Y-90872205D01*
X76458051Y-91070767D01*
X76460511Y-91080452D01*
X76462928Y-91085694D01*
X76462928Y-91085695D01*
X76499398Y-91164804D01*
X76552883Y-91280821D01*
X76680222Y-91461002D01*
X76838264Y-91614961D01*
X76843060Y-91618166D01*
X76843063Y-91618168D01*
X76927261Y-91674427D01*
X77021717Y-91737540D01*
X77027020Y-91739818D01*
X77027023Y-91739820D01*
X77132511Y-91785141D01*
X77224436Y-91824635D01*
X77304088Y-91842658D01*
X77433995Y-91872054D01*
X77434001Y-91872055D01*
X77439632Y-91873329D01*
X77445403Y-91873556D01*
X77445405Y-91873556D01*
X77513211Y-91876220D01*
X77660098Y-91881991D01*
X77769275Y-91866161D01*
X77872738Y-91851160D01*
X77872743Y-91851159D01*
X77878452Y-91850331D01*
X77883916Y-91848476D01*
X77883921Y-91848475D01*
X78081907Y-91781268D01*
X78081912Y-91781266D01*
X78087379Y-91779410D01*
X78092992Y-91776267D01*
X78167875Y-91734330D01*
X78279884Y-91671602D01*
X78360373Y-91604660D01*
X78374510Y-91592902D01*
X78439675Y-91564721D01*
X78492480Y-91569794D01*
X78494436Y-91570635D01*
X78557220Y-91584842D01*
X78703995Y-91618054D01*
X78704001Y-91618055D01*
X78709632Y-91619329D01*
X78715403Y-91619556D01*
X78715405Y-91619556D01*
X78783211Y-91622220D01*
X78930098Y-91627991D01*
X79044358Y-91611424D01*
X79142738Y-91597160D01*
X79142743Y-91597159D01*
X79148452Y-91596331D01*
X79153916Y-91594476D01*
X79153921Y-91594475D01*
X79351907Y-91527268D01*
X79351912Y-91527266D01*
X79357379Y-91525410D01*
X79549884Y-91417602D01*
X79588977Y-91385089D01*
X79715086Y-91280204D01*
X79719518Y-91276518D01*
X79789412Y-91192480D01*
X79856908Y-91111326D01*
X79856910Y-91111323D01*
X79860602Y-91106884D01*
X79937605Y-90969385D01*
X79965586Y-90919422D01*
X79965587Y-90919420D01*
X79968410Y-90914379D01*
X79970266Y-90908912D01*
X79970268Y-90908907D01*
X80037475Y-90710921D01*
X80037476Y-90710916D01*
X80039331Y-90705452D01*
X80040159Y-90699743D01*
X80040160Y-90699738D01*
X80070458Y-90490772D01*
X80070991Y-90487098D01*
X80072643Y-90424000D01*
X80052454Y-90204289D01*
X79992565Y-89991936D01*
X79894980Y-89794053D01*
X79762967Y-89617267D01*
X79658695Y-89520879D01*
X79605189Y-89471418D01*
X79605186Y-89471416D01*
X79600949Y-89467499D01*
X79414350Y-89349764D01*
X79209421Y-89268006D01*
X79203761Y-89266880D01*
X79203757Y-89266879D01*
X78998691Y-89226089D01*
X78998688Y-89226089D01*
X78993024Y-89224962D01*
X78987249Y-89224886D01*
X78987245Y-89224886D01*
X78876504Y-89223437D01*
X78772406Y-89222074D01*
X78766709Y-89223053D01*
X78766708Y-89223053D01*
X78560654Y-89258459D01*
X78560653Y-89258459D01*
X78554957Y-89259438D01*
X78347957Y-89335804D01*
X78342996Y-89338756D01*
X78342995Y-89338756D01*
X78275476Y-89378926D01*
X78158341Y-89448614D01*
X78107320Y-89493358D01*
X78090420Y-89508179D01*
X78026016Y-89538056D01*
X77960652Y-89530476D01*
X77955248Y-89528320D01*
X77944786Y-89524146D01*
X77944782Y-89524145D01*
X77939421Y-89522006D01*
X77933761Y-89520880D01*
X77933757Y-89520879D01*
X77728691Y-89480089D01*
X77728688Y-89480089D01*
X77723024Y-89478962D01*
X77717249Y-89478886D01*
X77717245Y-89478886D01*
X77606504Y-89477437D01*
X77502406Y-89476074D01*
X77496709Y-89477053D01*
X77496708Y-89477053D01*
X77354229Y-89501535D01*
X77283705Y-89493358D01*
X77228797Y-89448351D01*
X77206938Y-89380803D01*
X77225069Y-89312160D01*
X77263576Y-89272134D01*
X77268747Y-89268728D01*
X77730246Y-88964710D01*
X77734795Y-88961851D01*
X78269894Y-88641199D01*
X78524021Y-88488916D01*
X78528658Y-88486269D01*
X79147830Y-88150256D01*
X79207929Y-88135000D01*
X99354071Y-88135000D01*
X99414170Y-88150256D01*
G37*
%TD.AperFunction*%
%TA.AperFunction,Conductor*%
G36*
X99327576Y-92131502D02*
G01*
X99348550Y-92148405D01*
X100342952Y-93142807D01*
X100355791Y-93157839D01*
X100364329Y-93169590D01*
X100369231Y-93174003D01*
X100369232Y-93174005D01*
X100416169Y-93216267D01*
X100420953Y-93220808D01*
X100435768Y-93235623D01*
X100438332Y-93237699D01*
X100452062Y-93248818D01*
X100457077Y-93253102D01*
X100503993Y-93295345D01*
X100503997Y-93295348D01*
X100508906Y-93299768D01*
X100521486Y-93307031D01*
X100537771Y-93318224D01*
X100543924Y-93323206D01*
X100549058Y-93327363D01*
X100554942Y-93330361D01*
X100611181Y-93359016D01*
X100616979Y-93362164D01*
X100671672Y-93393741D01*
X100671674Y-93393742D01*
X100677390Y-93397042D01*
X100691197Y-93401528D01*
X100709461Y-93409093D01*
X100716521Y-93412690D01*
X100722401Y-93415686D01*
X100789783Y-93433741D01*
X100796094Y-93435611D01*
X100862416Y-93457160D01*
X100876849Y-93458677D01*
X100896291Y-93462280D01*
X100910320Y-93466039D01*
X100916912Y-93466384D01*
X100916915Y-93466385D01*
X100979960Y-93469689D01*
X100986534Y-93470206D01*
X101004120Y-93472054D01*
X101004122Y-93472054D01*
X101007394Y-93472398D01*
X101028362Y-93472398D01*
X101034956Y-93472571D01*
X101098009Y-93475876D01*
X101098014Y-93475876D01*
X101104601Y-93476221D01*
X101118947Y-93473949D01*
X101138656Y-93472398D01*
X101689425Y-93472398D01*
X101757546Y-93492400D01*
X101796858Y-93532564D01*
X101896900Y-93695819D01*
X101896904Y-93695824D01*
X101899486Y-93700038D01*
X102068209Y-93897587D01*
X102265758Y-94066310D01*
X102487270Y-94202052D01*
X102491840Y-94203945D01*
X102491844Y-94203947D01*
X102722715Y-94299577D01*
X102727288Y-94301471D01*
X102815622Y-94322678D01*
X102975091Y-94360964D01*
X102975097Y-94360965D01*
X102979904Y-94362119D01*
X103209665Y-94380201D01*
X103276005Y-94405486D01*
X103318145Y-94462624D01*
X103325778Y-94505813D01*
X103325778Y-95827631D01*
X103305776Y-95895752D01*
X103252120Y-95942245D01*
X103198129Y-95953620D01*
X103187407Y-95953480D01*
X103156406Y-95953074D01*
X103150709Y-95954053D01*
X103150708Y-95954053D01*
X102944654Y-95989459D01*
X102944653Y-95989459D01*
X102938957Y-95990438D01*
X102731957Y-96066804D01*
X102726996Y-96069756D01*
X102726995Y-96069756D01*
X102583949Y-96154860D01*
X102542341Y-96179614D01*
X102376457Y-96325090D01*
X102239863Y-96498360D01*
X102137131Y-96693620D01*
X102071703Y-96904333D01*
X102045770Y-97123440D01*
X102060200Y-97343604D01*
X102061621Y-97349200D01*
X102061622Y-97349205D01*
X102099622Y-97498826D01*
X102114511Y-97557452D01*
X102206883Y-97757821D01*
X102334222Y-97938002D01*
X102492264Y-98091961D01*
X102497060Y-98095166D01*
X102497063Y-98095168D01*
X102581261Y-98151427D01*
X102675717Y-98214540D01*
X102681020Y-98216818D01*
X102681023Y-98216820D01*
X102873129Y-98299355D01*
X102878436Y-98301635D01*
X102958088Y-98319658D01*
X103087995Y-98349054D01*
X103088001Y-98349055D01*
X103093632Y-98350329D01*
X103099403Y-98350556D01*
X103099405Y-98350556D01*
X103167211Y-98353220D01*
X103314098Y-98358991D01*
X103423275Y-98343161D01*
X103526738Y-98328160D01*
X103526743Y-98328159D01*
X103532452Y-98327331D01*
X103537916Y-98325476D01*
X103537921Y-98325475D01*
X103735907Y-98258268D01*
X103735912Y-98258266D01*
X103741379Y-98256410D01*
X103803598Y-98221566D01*
X103854416Y-98193106D01*
X103933884Y-98148602D01*
X103948058Y-98136814D01*
X104103518Y-98007518D01*
X104104939Y-98009226D01*
X104158715Y-97979861D01*
X104229530Y-97984926D01*
X104274593Y-98013887D01*
X108638595Y-102377889D01*
X108672621Y-102440201D01*
X108675500Y-102466984D01*
X108675500Y-104382821D01*
X108655498Y-104450942D01*
X108601842Y-104497435D01*
X108531568Y-104507539D01*
X108463971Y-104475346D01*
X108307189Y-104330418D01*
X108307186Y-104330416D01*
X108302949Y-104326499D01*
X108116350Y-104208764D01*
X107911421Y-104127006D01*
X107788875Y-104102630D01*
X107725967Y-104069724D01*
X107692191Y-104013258D01*
X107656565Y-103886936D01*
X107558980Y-103689053D01*
X107426967Y-103512267D01*
X107264949Y-103362499D01*
X107078350Y-103244764D01*
X106873421Y-103163006D01*
X106867761Y-103161880D01*
X106867757Y-103161879D01*
X106662691Y-103121089D01*
X106662688Y-103121089D01*
X106657024Y-103119962D01*
X106651249Y-103119886D01*
X106651245Y-103119886D01*
X106540504Y-103118437D01*
X106436406Y-103117074D01*
X106430709Y-103118053D01*
X106430708Y-103118053D01*
X106224654Y-103153459D01*
X106224653Y-103153459D01*
X106218957Y-103154438D01*
X106011957Y-103230804D01*
X105822341Y-103343614D01*
X105656457Y-103489090D01*
X105519863Y-103662360D01*
X105417131Y-103857620D01*
X105382986Y-103967586D01*
X105363803Y-104029365D01*
X105324500Y-104088490D01*
X105259470Y-104116981D01*
X105243470Y-104118001D01*
X90241046Y-104118001D01*
X90172925Y-104097999D01*
X90151951Y-104081096D01*
X86162547Y-100091692D01*
X90196821Y-100091692D01*
X90211251Y-100311856D01*
X90212672Y-100317452D01*
X90212673Y-100317457D01*
X90240567Y-100427287D01*
X90265562Y-100525704D01*
X90267979Y-100530946D01*
X90267979Y-100530947D01*
X90306097Y-100613631D01*
X90357934Y-100726073D01*
X90485273Y-100906254D01*
X90643315Y-101060213D01*
X90648111Y-101063418D01*
X90648114Y-101063420D01*
X90732312Y-101119679D01*
X90826768Y-101182792D01*
X90832071Y-101185070D01*
X90832074Y-101185072D01*
X90974147Y-101246111D01*
X91029487Y-101269887D01*
X91109139Y-101287910D01*
X91239046Y-101317306D01*
X91239052Y-101317307D01*
X91244683Y-101318581D01*
X91250454Y-101318808D01*
X91250456Y-101318808D01*
X91318262Y-101321472D01*
X91465149Y-101327243D01*
X91574326Y-101311413D01*
X91677789Y-101296412D01*
X91677794Y-101296411D01*
X91683503Y-101295583D01*
X91688967Y-101293728D01*
X91688972Y-101293727D01*
X91886958Y-101226520D01*
X91886963Y-101226518D01*
X91892430Y-101224662D01*
X92084935Y-101116854D01*
X92254569Y-100975770D01*
X92333716Y-100880607D01*
X92391959Y-100810578D01*
X92391961Y-100810575D01*
X92395653Y-100806136D01*
X92503461Y-100613631D01*
X92505317Y-100608164D01*
X92505319Y-100608159D01*
X92572526Y-100410173D01*
X92572527Y-100410168D01*
X92574382Y-100404704D01*
X92575210Y-100398995D01*
X92575211Y-100398990D01*
X92605509Y-100190024D01*
X92606042Y-100186350D01*
X92607694Y-100123252D01*
X92587505Y-99903541D01*
X92527616Y-99691188D01*
X92430031Y-99493305D01*
X92298018Y-99316519D01*
X92136000Y-99166751D01*
X91949401Y-99049016D01*
X91744472Y-98967258D01*
X91738812Y-98966132D01*
X91738808Y-98966131D01*
X91533742Y-98925341D01*
X91533739Y-98925341D01*
X91528075Y-98924214D01*
X91522300Y-98924138D01*
X91522296Y-98924138D01*
X91411555Y-98922689D01*
X91307457Y-98921326D01*
X91301760Y-98922305D01*
X91301759Y-98922305D01*
X91095705Y-98957711D01*
X91095704Y-98957711D01*
X91090008Y-98958690D01*
X90883008Y-99035056D01*
X90693392Y-99147866D01*
X90527508Y-99293342D01*
X90390914Y-99466612D01*
X90288182Y-99661872D01*
X90222754Y-99872585D01*
X90196821Y-100091692D01*
X86162547Y-100091692D01*
X85618407Y-99547552D01*
X85584381Y-99485240D01*
X85582031Y-99469986D01*
X85576983Y-99415045D01*
X85576983Y-99415044D01*
X85576454Y-99409289D01*
X85550291Y-99316519D01*
X85518134Y-99202500D01*
X85516565Y-99196936D01*
X85418980Y-98999053D01*
X85396836Y-98969398D01*
X85290420Y-98826891D01*
X85290420Y-98826890D01*
X85286967Y-98822267D01*
X85124949Y-98672499D01*
X84991292Y-98588168D01*
X84944354Y-98534901D01*
X84933665Y-98464714D01*
X84962620Y-98399889D01*
X85022024Y-98361010D01*
X85040444Y-98356911D01*
X85119887Y-98345392D01*
X85238738Y-98328160D01*
X85238743Y-98328159D01*
X85244452Y-98327331D01*
X85249916Y-98325476D01*
X85249921Y-98325475D01*
X85447907Y-98258268D01*
X85447912Y-98258266D01*
X85453379Y-98256410D01*
X85515598Y-98221565D01*
X85577163Y-98205500D01*
X85914868Y-98205500D01*
X85928476Y-98206237D01*
X85961822Y-98209860D01*
X85961826Y-98209860D01*
X85967947Y-98210525D01*
X85985832Y-98208960D01*
X86019972Y-98205974D01*
X86024796Y-98205645D01*
X86027759Y-98205500D01*
X86030841Y-98205500D01*
X86037848Y-98204813D01*
X86075392Y-98201132D01*
X86076705Y-98201010D01*
X86124184Y-98196856D01*
X86173176Y-98192570D01*
X86178505Y-98191022D01*
X86184030Y-98190480D01*
X86276813Y-98162467D01*
X86277968Y-98162125D01*
X86314791Y-98151427D01*
X86371010Y-98135094D01*
X86375940Y-98132538D01*
X86381251Y-98130935D01*
X86386700Y-98128038D01*
X86466823Y-98085437D01*
X86467989Y-98084825D01*
X86493621Y-98071538D01*
X86553912Y-98040286D01*
X86558247Y-98036826D01*
X86563151Y-98034218D01*
X86598297Y-98005554D01*
X86638290Y-97972936D01*
X86639317Y-97972108D01*
X86677247Y-97941829D01*
X86677250Y-97941826D01*
X86680000Y-97939631D01*
X86682492Y-97937139D01*
X86683579Y-97936167D01*
X86687928Y-97932452D01*
X86718025Y-97907906D01*
X86718028Y-97907903D01*
X86722800Y-97904011D01*
X86753405Y-97867016D01*
X86761394Y-97858237D01*
X87839691Y-96779940D01*
X89368974Y-96779940D01*
X89383404Y-97000104D01*
X89384825Y-97005700D01*
X89384826Y-97005705D01*
X89416192Y-97129206D01*
X89437715Y-97213952D01*
X89440132Y-97219194D01*
X89440132Y-97219195D01*
X89478250Y-97301879D01*
X89530087Y-97414321D01*
X89657426Y-97594502D01*
X89815468Y-97748461D01*
X89820264Y-97751666D01*
X89820267Y-97751668D01*
X89904465Y-97807927D01*
X89998921Y-97871040D01*
X90004224Y-97873318D01*
X90004227Y-97873320D01*
X90149570Y-97935764D01*
X90201640Y-97958135D01*
X90267051Y-97972936D01*
X90411199Y-98005554D01*
X90411205Y-98005555D01*
X90416836Y-98006829D01*
X90422607Y-98007056D01*
X90422609Y-98007056D01*
X90490415Y-98009720D01*
X90637302Y-98015491D01*
X90746479Y-97999661D01*
X90849942Y-97984660D01*
X90849947Y-97984659D01*
X90855656Y-97983831D01*
X90861120Y-97981976D01*
X90861125Y-97981975D01*
X91059111Y-97914768D01*
X91059116Y-97914766D01*
X91064583Y-97912910D01*
X91073519Y-97907906D01*
X91162209Y-97858237D01*
X91257088Y-97805102D01*
X91265259Y-97798307D01*
X91422290Y-97667704D01*
X91426722Y-97664018D01*
X91520006Y-97551857D01*
X91564112Y-97498826D01*
X91564114Y-97498823D01*
X91567806Y-97494384D01*
X91675614Y-97301879D01*
X91677470Y-97296412D01*
X91677472Y-97296407D01*
X91744679Y-97098421D01*
X91744680Y-97098416D01*
X91746535Y-97092952D01*
X91747363Y-97087243D01*
X91747364Y-97087238D01*
X91773052Y-96910070D01*
X91778195Y-96874598D01*
X91779847Y-96811500D01*
X91759658Y-96591789D01*
X91699769Y-96379436D01*
X91602184Y-96181553D01*
X91516497Y-96066804D01*
X91473624Y-96009391D01*
X91473624Y-96009390D01*
X91470171Y-96004767D01*
X91352239Y-95895752D01*
X91312393Y-95858918D01*
X91312390Y-95858916D01*
X91308153Y-95854999D01*
X91121554Y-95737264D01*
X90916625Y-95655506D01*
X90910965Y-95654380D01*
X90910961Y-95654379D01*
X90705895Y-95613589D01*
X90705892Y-95613589D01*
X90700228Y-95612462D01*
X90694453Y-95612386D01*
X90694449Y-95612386D01*
X90583708Y-95610937D01*
X90479610Y-95609574D01*
X90473913Y-95610553D01*
X90473912Y-95610553D01*
X90267858Y-95645959D01*
X90267857Y-95645959D01*
X90262161Y-95646938D01*
X90055161Y-95723304D01*
X90050200Y-95726256D01*
X90050199Y-95726256D01*
X89879804Y-95827631D01*
X89865545Y-95836114D01*
X89699661Y-95981590D01*
X89563067Y-96154860D01*
X89460335Y-96350120D01*
X89394907Y-96560833D01*
X89368974Y-96779940D01*
X87839691Y-96779940D01*
X90699737Y-93919895D01*
X90762049Y-93885869D01*
X90816640Y-93886097D01*
X90895996Y-93904054D01*
X90895999Y-93904054D01*
X90901632Y-93905329D01*
X90907403Y-93905556D01*
X90907405Y-93905556D01*
X90975211Y-93908220D01*
X91122098Y-93913991D01*
X91235234Y-93897587D01*
X91334738Y-93883160D01*
X91334743Y-93883159D01*
X91340452Y-93882331D01*
X91345916Y-93880476D01*
X91345921Y-93880475D01*
X91543907Y-93813268D01*
X91543912Y-93813266D01*
X91549379Y-93811410D01*
X91741884Y-93703602D01*
X91768356Y-93681586D01*
X91907086Y-93566204D01*
X91911518Y-93562518D01*
X91986327Y-93472571D01*
X92048908Y-93397326D01*
X92048910Y-93397323D01*
X92052602Y-93392884D01*
X92139510Y-93237699D01*
X92157586Y-93205422D01*
X92157587Y-93205420D01*
X92160410Y-93200379D01*
X92162266Y-93194912D01*
X92162268Y-93194907D01*
X92229475Y-92996921D01*
X92229476Y-92996916D01*
X92231331Y-92991452D01*
X92232159Y-92985743D01*
X92232160Y-92985738D01*
X92258607Y-92803332D01*
X92262991Y-92773098D01*
X92264643Y-92710000D01*
X92244454Y-92490289D01*
X92223017Y-92414277D01*
X92186135Y-92283502D01*
X92186134Y-92283500D01*
X92184565Y-92277936D01*
X92185406Y-92277699D01*
X92180073Y-92211883D01*
X92213506Y-92149252D01*
X92275494Y-92114639D01*
X92303441Y-92111500D01*
X99259455Y-92111500D01*
X99327576Y-92131502D01*
G37*
%TD.AperFunction*%
%TA.AperFunction,Conductor*%
G36*
X106875032Y-96096291D02*
G01*
X106920095Y-96125252D01*
X107843492Y-97048649D01*
X107857436Y-97056263D01*
X107859269Y-97056132D01*
X107865884Y-97051881D01*
X108084188Y-96833577D01*
X108146500Y-96799551D01*
X108217315Y-96804616D01*
X108274151Y-96847163D01*
X108282681Y-96860158D01*
X108311201Y-96910070D01*
X108346103Y-96971153D01*
X108348669Y-96975875D01*
X108770661Y-97793481D01*
X108773022Y-97798305D01*
X108836700Y-97935764D01*
X109159766Y-98633154D01*
X109161921Y-98638077D01*
X109176117Y-98672499D01*
X109511308Y-99485240D01*
X109512732Y-99488694D01*
X109514672Y-99493701D01*
X109788228Y-100246576D01*
X109828881Y-100358462D01*
X109830608Y-100363550D01*
X109947072Y-100732373D01*
X109948511Y-100803355D01*
X109911345Y-100863847D01*
X109847375Y-100894643D01*
X109776911Y-100885965D01*
X109737825Y-100859409D01*
X106967728Y-98089312D01*
X106933702Y-98027000D01*
X106938767Y-97956185D01*
X106981314Y-97899349D01*
X106999622Y-97887949D01*
X107022885Y-97876096D01*
X107087574Y-97829097D01*
X107095087Y-97822680D01*
X107560650Y-97357117D01*
X107568264Y-97343173D01*
X107568133Y-97341340D01*
X107563882Y-97334725D01*
X106637252Y-96408095D01*
X106603226Y-96345783D01*
X106608291Y-96274968D01*
X106637252Y-96229905D01*
X106741905Y-96125252D01*
X106804217Y-96091226D01*
X106875032Y-96096291D01*
G37*
%TD.AperFunction*%
%TD*%
M02*
