%FSLAX45Y45*%
G04 Gerber Fmt 4.5, Leading zero omitted, Abs format (unit mm)*
G04 Created by KiCad (PCBNEW (6.0.0)) date 2023-06-19 18:06:40*
%MOMM*%
%LPD*%
G01*
G04 APERTURE LIST*
%TA.AperFunction,Profile*%
%ADD10C,0.250000*%
%TD*%
%ADD11C,0.200000*%
%ADD12C,0.040000*%
%ADD13C,0.100000*%
%ADD14C,0.220000*%
G04 APERTURE END LIST*
D10*
X7897324Y-8733500D02*
X9958876Y-8733500D01*
X7897324Y-8733500D02*
G75*
G03*
X9958876Y-8733500I1030776J-2000000D01*
G01*
D11*
D12*
X7067100Y-11372900D02*
X7107100Y-11412900D01*
X7107100Y-11372900D02*
X7067100Y-11412900D01*
X7210100Y-10894900D02*
X7250100Y-10934900D01*
X7250100Y-10894900D02*
X7210100Y-10934900D01*
X7219000Y-10521000D02*
X7259000Y-10561000D01*
X7259000Y-10521000D02*
X7219000Y-10561000D01*
X7337100Y-11344900D02*
X7377100Y-11384900D01*
X7377100Y-11344900D02*
X7337100Y-11384900D01*
X7447600Y-11854500D02*
X7487600Y-11894500D01*
X7487600Y-11854500D02*
X7447600Y-11894500D01*
X7511530Y-11244470D02*
X7551530Y-11284470D01*
X7551530Y-11244470D02*
X7511530Y-11284470D01*
X7518100Y-10886900D02*
X7558100Y-10926900D01*
X7558100Y-10886900D02*
X7518100Y-10926900D01*
X7536500Y-9238300D02*
X7576500Y-9278300D01*
X7576500Y-9238300D02*
X7536500Y-9278300D01*
X7600000Y-10521000D02*
X7640000Y-10561000D01*
X7640000Y-10521000D02*
X7600000Y-10561000D01*
X7739700Y-9047800D02*
X7779700Y-9087800D01*
X7779700Y-9047800D02*
X7739700Y-9087800D01*
X7821128Y-10737419D02*
X7861128Y-10777419D01*
X7861128Y-10737419D02*
X7821128Y-10777419D01*
X7866700Y-9022400D02*
X7906700Y-9062400D01*
X7906700Y-9022400D02*
X7866700Y-9062400D01*
X7933699Y-11105200D02*
X7973699Y-11145200D01*
X7973699Y-11105200D02*
X7933699Y-11145200D01*
X7935100Y-11607900D02*
X7975100Y-11647900D01*
X7975100Y-11607900D02*
X7935100Y-11647900D01*
X7955100Y-12606900D02*
X7995100Y-12646900D01*
X7995100Y-12606900D02*
X7955100Y-12646900D01*
X7994200Y-10977470D02*
X8034200Y-11017470D01*
X8034200Y-10977470D02*
X7994200Y-11017470D01*
X8009100Y-10512900D02*
X8049100Y-10552900D01*
X8049100Y-10512900D02*
X8009100Y-10552900D01*
X8044500Y-9581200D02*
X8084500Y-9621200D01*
X8084500Y-9581200D02*
X8044500Y-9621200D01*
X8140100Y-10989900D02*
X8180100Y-11029900D01*
X8180100Y-10989900D02*
X8140100Y-11029900D01*
X8174100Y-10266900D02*
X8214100Y-10306900D01*
X8214100Y-10266900D02*
X8174100Y-10306900D01*
X8203100Y-11516900D02*
X8243100Y-11556900D01*
X8243100Y-11516900D02*
X8203100Y-11556900D01*
X8279100Y-9944900D02*
X8319100Y-9984900D01*
X8319100Y-9944900D02*
X8279100Y-9984900D01*
X8298500Y-11625900D02*
X8338500Y-11665900D01*
X8338500Y-11625900D02*
X8298500Y-11665900D01*
X8326100Y-10594900D02*
X8366100Y-10634900D01*
X8366100Y-10594900D02*
X8326100Y-10634900D01*
X8361994Y-12280457D02*
X8401994Y-12320457D01*
X8401994Y-12280457D02*
X8361994Y-12320457D01*
X8412800Y-8857300D02*
X8452800Y-8897300D01*
X8452800Y-8857300D02*
X8412800Y-8897300D01*
X8419100Y-9942900D02*
X8459100Y-9982900D01*
X8459100Y-9942900D02*
X8419100Y-9982900D01*
X8476300Y-9695500D02*
X8516300Y-9735500D01*
X8516300Y-9695500D02*
X8476300Y-9735500D01*
X8476300Y-11613200D02*
X8516300Y-11653200D01*
X8516300Y-11613200D02*
X8476300Y-11653200D01*
X8480100Y-11330900D02*
X8520100Y-11370900D01*
X8520100Y-11330900D02*
X8480100Y-11370900D01*
X8544100Y-12285900D02*
X8584100Y-12325900D01*
X8584100Y-12285900D02*
X8544100Y-12325900D01*
X8565200Y-9263700D02*
X8605200Y-9303700D01*
X8605200Y-9263700D02*
X8565200Y-9303700D01*
X8577100Y-12786900D02*
X8617100Y-12826900D01*
X8617100Y-12786900D02*
X8577100Y-12826900D01*
X8688050Y-11271945D02*
X8728050Y-11311945D01*
X8728050Y-11271945D02*
X8688050Y-11311945D01*
X8784850Y-9161670D02*
X8824850Y-9201670D01*
X8824850Y-9161670D02*
X8784850Y-9201670D01*
X8920800Y-12527600D02*
X8960800Y-12567600D01*
X8960800Y-12527600D02*
X8920800Y-12567600D01*
X8971600Y-8882700D02*
X9011600Y-8922700D01*
X9011600Y-8882700D02*
X8971600Y-8922700D01*
X9012100Y-12371900D02*
X9052100Y-12411900D01*
X9052100Y-12371900D02*
X9012100Y-12411900D01*
X9037420Y-9661150D02*
X9077420Y-9701150D01*
X9077420Y-9661150D02*
X9037420Y-9701150D01*
X9085900Y-9251000D02*
X9125900Y-9291000D01*
X9125900Y-9251000D02*
X9085900Y-9291000D01*
X9113125Y-11195925D02*
X9153125Y-11235925D01*
X9153125Y-11195925D02*
X9113125Y-11235925D01*
X9120205Y-9992325D02*
X9160205Y-10032325D01*
X9160205Y-9992325D02*
X9120205Y-10032325D01*
X9124000Y-12362500D02*
X9164000Y-12402500D01*
X9164000Y-12362500D02*
X9124000Y-12402500D01*
X9352600Y-11676700D02*
X9392600Y-11716700D01*
X9392600Y-11676700D02*
X9352600Y-11716700D01*
X9493500Y-12405751D02*
X9533500Y-12445751D01*
X9533500Y-12405751D02*
X9493500Y-12445751D01*
X9568500Y-8882700D02*
X9608500Y-8922700D01*
X9608500Y-8882700D02*
X9568500Y-8922700D01*
X9770100Y-9820900D02*
X9810100Y-9860900D01*
X9810100Y-9820900D02*
X9770100Y-9860900D01*
X9822500Y-11765600D02*
X9862500Y-11805600D01*
X9862500Y-11765600D02*
X9822500Y-11805600D01*
X9903100Y-8881900D02*
X9943100Y-8921900D01*
X9943100Y-8881900D02*
X9903100Y-8921900D01*
X9911400Y-11600500D02*
X9951400Y-11640500D01*
X9951400Y-11600500D02*
X9911400Y-11640500D01*
X9924100Y-11067100D02*
X9964100Y-11107100D01*
X9964100Y-11067100D02*
X9924100Y-11107100D01*
X10000300Y-12375200D02*
X10040300Y-12415200D01*
X10040300Y-12375200D02*
X10000300Y-12415200D01*
X10013000Y-9289100D02*
X10053000Y-9329100D01*
X10053000Y-9289100D02*
X10013000Y-9329100D01*
X10178100Y-12260900D02*
X10218100Y-12300900D01*
X10218100Y-12260900D02*
X10178100Y-12300900D01*
X10203500Y-11778300D02*
X10243500Y-11818300D01*
X10243500Y-11778300D02*
X10203500Y-11818300D01*
X10216200Y-10978200D02*
X10256200Y-11018200D01*
X10256200Y-10978200D02*
X10216200Y-11018200D01*
X10228729Y-11127692D02*
X10268729Y-11167692D01*
X10268729Y-11127692D02*
X10228729Y-11167692D01*
X10305100Y-9695500D02*
X10345100Y-9735500D01*
X10345100Y-9695500D02*
X10305100Y-9735500D01*
X10349226Y-11093337D02*
X10389226Y-11133337D01*
X10389226Y-11093337D02*
X10349226Y-11133337D01*
X10482900Y-11918000D02*
X10522900Y-11958000D01*
X10522900Y-11918000D02*
X10482900Y-11958000D01*
X10567100Y-11064900D02*
X10607100Y-11104900D01*
X10607100Y-11064900D02*
X10567100Y-11104900D01*
X10633100Y-10411900D02*
X10673100Y-10451900D01*
X10673100Y-10411900D02*
X10633100Y-10451900D01*
X10648000Y-10559100D02*
X10688000Y-10599100D01*
X10688000Y-10559100D02*
X10648000Y-10599100D01*
X10673400Y-11511600D02*
X10713400Y-11551600D01*
X10713400Y-11511600D02*
X10673400Y-11551600D01*
X10673400Y-11765600D02*
X10713400Y-11805600D01*
X10713400Y-11765600D02*
X10673400Y-11805600D01*
X10686100Y-10711500D02*
X10726100Y-10751500D01*
X10726100Y-10711500D02*
X10686100Y-10751500D01*
X10736900Y-10508300D02*
X10776900Y-10548300D01*
X10776900Y-10508300D02*
X10736900Y-10548300D01*
X10749600Y-9797100D02*
X10789600Y-9837100D01*
X10789600Y-9797100D02*
X10749600Y-9837100D01*
X10793100Y-10943900D02*
X10833100Y-10983900D01*
X10833100Y-10943900D02*
X10793100Y-10983900D01*
X10795733Y-10789550D02*
X10835733Y-10829550D01*
X10835733Y-10789550D02*
X10795733Y-10829550D01*
X10863900Y-9936800D02*
X10903900Y-9976800D01*
X10903900Y-9936800D02*
X10863900Y-9976800D01*
X10940100Y-11143300D02*
X10980100Y-11183300D01*
X10980100Y-11143300D02*
X10940100Y-11183300D01*
D13*
X7847567Y-12162832D02*
G75*
G03*
X7847567Y-12162832I-50000J0D01*
G01*
X8027172Y-12342437D02*
G75*
G03*
X8027172Y-12342437I-50000J0D01*
G01*
X8206777Y-12522042D02*
G75*
G03*
X8206777Y-12522042I-50000J0D01*
G01*
X8386383Y-12701647D02*
G75*
G03*
X8386383Y-12701647I-50000J0D01*
G01*
X10194285Y-9093085D02*
G75*
G03*
X10194285Y-9093085I-50000J0D01*
G01*
X10373890Y-9272690D02*
G75*
G03*
X10373890Y-9272690I-50000J0D01*
G01*
X10553495Y-9452295D02*
G75*
G03*
X10553495Y-9452295I-50000J0D01*
G01*
X10733100Y-9631900D02*
G75*
G03*
X10733100Y-9631900I-50000J0D01*
G01*
D14*
X7213600Y-9645600D02*
X7213600Y-9865600D01*
X7103600Y-9755600D02*
X7323600Y-9755600D01*
X10363200Y-11461700D02*
X10363200Y-11681700D01*
X10253200Y-11571700D02*
X10473200Y-11571700D01*
D11*
X6923219Y-13306476D02*
X6923219Y-13106476D01*
X6970838Y-13106476D01*
X6999409Y-13116000D01*
X7018457Y-13135048D01*
X7027981Y-13154095D01*
X7037505Y-13192190D01*
X7037505Y-13220762D01*
X7027981Y-13258857D01*
X7018457Y-13277905D01*
X6999409Y-13296952D01*
X6970838Y-13306476D01*
X6923219Y-13306476D01*
X7123219Y-13306476D02*
X7123219Y-13173143D01*
X7123219Y-13211238D02*
X7132743Y-13192190D01*
X7142267Y-13182667D01*
X7161314Y-13173143D01*
X7180362Y-13173143D01*
X7247028Y-13306476D02*
X7247028Y-13173143D01*
X7247028Y-13106476D02*
X7237505Y-13116000D01*
X7247028Y-13125524D01*
X7256552Y-13116000D01*
X7247028Y-13106476D01*
X7247028Y-13125524D01*
X7370838Y-13306476D02*
X7351790Y-13296952D01*
X7342267Y-13277905D01*
X7342267Y-13106476D01*
X7475600Y-13306476D02*
X7456552Y-13296952D01*
X7447028Y-13277905D01*
X7447028Y-13106476D01*
X7704171Y-13306476D02*
X7704171Y-13106476D01*
X7770838Y-13249333D01*
X7837505Y-13106476D01*
X7837505Y-13306476D01*
X8018457Y-13306476D02*
X8018457Y-13201714D01*
X8008933Y-13182667D01*
X7989886Y-13173143D01*
X7951790Y-13173143D01*
X7932743Y-13182667D01*
X8018457Y-13296952D02*
X7999409Y-13306476D01*
X7951790Y-13306476D01*
X7932743Y-13296952D01*
X7923219Y-13277905D01*
X7923219Y-13258857D01*
X7932743Y-13239809D01*
X7951790Y-13230286D01*
X7999409Y-13230286D01*
X8018457Y-13220762D01*
X8113695Y-13173143D02*
X8113695Y-13373143D01*
X8113695Y-13182667D02*
X8132743Y-13173143D01*
X8170838Y-13173143D01*
X8189886Y-13182667D01*
X8199409Y-13192190D01*
X8208933Y-13211238D01*
X8208933Y-13268381D01*
X8199409Y-13287428D01*
X8189886Y-13296952D01*
X8170838Y-13306476D01*
X8132743Y-13306476D01*
X8113695Y-13296952D01*
X8294648Y-13287428D02*
X8304171Y-13296952D01*
X8294648Y-13306476D01*
X8285124Y-13296952D01*
X8294648Y-13287428D01*
X8294648Y-13306476D01*
X8294648Y-13182667D02*
X8304171Y-13192190D01*
X8294648Y-13201714D01*
X8285124Y-13192190D01*
X8294648Y-13182667D01*
X8294648Y-13201714D01*
D12*
X6625600Y-13616000D02*
X6665600Y-13656000D01*
X6665600Y-13616000D02*
X6625600Y-13656000D01*
D11*
X6961314Y-13526476D02*
X6980362Y-13526476D01*
X6999409Y-13536000D01*
X7008933Y-13545524D01*
X7018457Y-13564571D01*
X7027981Y-13602667D01*
X7027981Y-13650286D01*
X7018457Y-13688381D01*
X7008933Y-13707428D01*
X6999409Y-13716952D01*
X6980362Y-13726476D01*
X6961314Y-13726476D01*
X6942267Y-13716952D01*
X6932743Y-13707428D01*
X6923219Y-13688381D01*
X6913695Y-13650286D01*
X6913695Y-13602667D01*
X6923219Y-13564571D01*
X6932743Y-13545524D01*
X6942267Y-13536000D01*
X6961314Y-13526476D01*
X7113695Y-13707428D02*
X7123219Y-13716952D01*
X7113695Y-13726476D01*
X7104171Y-13716952D01*
X7113695Y-13707428D01*
X7113695Y-13726476D01*
X7294648Y-13593143D02*
X7294648Y-13726476D01*
X7247028Y-13516952D02*
X7199409Y-13659809D01*
X7323219Y-13659809D01*
X7437505Y-13526476D02*
X7456552Y-13526476D01*
X7475600Y-13536000D01*
X7485124Y-13545524D01*
X7494648Y-13564571D01*
X7504171Y-13602667D01*
X7504171Y-13650286D01*
X7494648Y-13688381D01*
X7485124Y-13707428D01*
X7475600Y-13716952D01*
X7456552Y-13726476D01*
X7437505Y-13726476D01*
X7418457Y-13716952D01*
X7408933Y-13707428D01*
X7399409Y-13688381D01*
X7389886Y-13650286D01*
X7389886Y-13602667D01*
X7399409Y-13564571D01*
X7408933Y-13545524D01*
X7418457Y-13536000D01*
X7437505Y-13526476D01*
X7627981Y-13526476D02*
X7647028Y-13526476D01*
X7666076Y-13536000D01*
X7675600Y-13545524D01*
X7685124Y-13564571D01*
X7694648Y-13602667D01*
X7694648Y-13650286D01*
X7685124Y-13688381D01*
X7675600Y-13707428D01*
X7666076Y-13716952D01*
X7647028Y-13726476D01*
X7627981Y-13726476D01*
X7608933Y-13716952D01*
X7599409Y-13707428D01*
X7589886Y-13688381D01*
X7580362Y-13650286D01*
X7580362Y-13602667D01*
X7589886Y-13564571D01*
X7599409Y-13545524D01*
X7608933Y-13536000D01*
X7627981Y-13526476D01*
X7780362Y-13726476D02*
X7780362Y-13593143D01*
X7780362Y-13612190D02*
X7789886Y-13602667D01*
X7808933Y-13593143D01*
X7837505Y-13593143D01*
X7856552Y-13602667D01*
X7866076Y-13621714D01*
X7866076Y-13726476D01*
X7866076Y-13621714D02*
X7875600Y-13602667D01*
X7894648Y-13593143D01*
X7923219Y-13593143D01*
X7942267Y-13602667D01*
X7951790Y-13621714D01*
X7951790Y-13726476D01*
X8047028Y-13726476D02*
X8047028Y-13593143D01*
X8047028Y-13612190D02*
X8056552Y-13602667D01*
X8075600Y-13593143D01*
X8104171Y-13593143D01*
X8123219Y-13602667D01*
X8132743Y-13621714D01*
X8132743Y-13726476D01*
X8132743Y-13621714D02*
X8142267Y-13602667D01*
X8161314Y-13593143D01*
X8189886Y-13593143D01*
X8208933Y-13602667D01*
X8218457Y-13621714D01*
X8218457Y-13726476D01*
X8608933Y-13516952D02*
X8437505Y-13774095D01*
X8866076Y-13526476D02*
X8885124Y-13526476D01*
X8904171Y-13536000D01*
X8913695Y-13545524D01*
X8923219Y-13564571D01*
X8932743Y-13602667D01*
X8932743Y-13650286D01*
X8923219Y-13688381D01*
X8913695Y-13707428D01*
X8904171Y-13716952D01*
X8885124Y-13726476D01*
X8866076Y-13726476D01*
X8847029Y-13716952D01*
X8837505Y-13707428D01*
X8827981Y-13688381D01*
X8818457Y-13650286D01*
X8818457Y-13602667D01*
X8827981Y-13564571D01*
X8837505Y-13545524D01*
X8847029Y-13536000D01*
X8866076Y-13526476D01*
X9018457Y-13707428D02*
X9027981Y-13716952D01*
X9018457Y-13726476D01*
X9008933Y-13716952D01*
X9018457Y-13707428D01*
X9018457Y-13726476D01*
X9151790Y-13526476D02*
X9170838Y-13526476D01*
X9189886Y-13536000D01*
X9199410Y-13545524D01*
X9208933Y-13564571D01*
X9218457Y-13602667D01*
X9218457Y-13650286D01*
X9208933Y-13688381D01*
X9199410Y-13707428D01*
X9189886Y-13716952D01*
X9170838Y-13726476D01*
X9151790Y-13726476D01*
X9132743Y-13716952D01*
X9123219Y-13707428D01*
X9113695Y-13688381D01*
X9104171Y-13650286D01*
X9104171Y-13602667D01*
X9113695Y-13564571D01*
X9123219Y-13545524D01*
X9132743Y-13536000D01*
X9151790Y-13526476D01*
X9408933Y-13726476D02*
X9294648Y-13726476D01*
X9351790Y-13726476D02*
X9351790Y-13526476D01*
X9332743Y-13555048D01*
X9313695Y-13574095D01*
X9294648Y-13583619D01*
X9589886Y-13526476D02*
X9494648Y-13526476D01*
X9485124Y-13621714D01*
X9494648Y-13612190D01*
X9513695Y-13602667D01*
X9561314Y-13602667D01*
X9580362Y-13612190D01*
X9589886Y-13621714D01*
X9599410Y-13640762D01*
X9599410Y-13688381D01*
X9589886Y-13707428D01*
X9580362Y-13716952D01*
X9561314Y-13726476D01*
X9513695Y-13726476D01*
X9494648Y-13716952D01*
X9485124Y-13707428D01*
X9666076Y-13526476D02*
X9799410Y-13526476D01*
X9713695Y-13726476D01*
X9866076Y-13526476D02*
X9866076Y-13564571D01*
X9942267Y-13526476D02*
X9942267Y-13564571D01*
X10237505Y-13802667D02*
X10227981Y-13793143D01*
X10208933Y-13764571D01*
X10199410Y-13745524D01*
X10189886Y-13716952D01*
X10180362Y-13669333D01*
X10180362Y-13631238D01*
X10189886Y-13583619D01*
X10199410Y-13555048D01*
X10208933Y-13536000D01*
X10227981Y-13507428D01*
X10237505Y-13497905D01*
X10294648Y-13526476D02*
X10427981Y-13526476D01*
X10342267Y-13726476D01*
X10494648Y-13545524D02*
X10504171Y-13536000D01*
X10523219Y-13526476D01*
X10570838Y-13526476D01*
X10589886Y-13536000D01*
X10599410Y-13545524D01*
X10608933Y-13564571D01*
X10608933Y-13583619D01*
X10599410Y-13612190D01*
X10485124Y-13726476D01*
X10608933Y-13726476D01*
X10847029Y-13726476D02*
X10847029Y-13526476D01*
X10932743Y-13726476D02*
X10932743Y-13621714D01*
X10923219Y-13602667D01*
X10904171Y-13593143D01*
X10875600Y-13593143D01*
X10856552Y-13602667D01*
X10847029Y-13612190D01*
X11056552Y-13726476D02*
X11037505Y-13716952D01*
X11027981Y-13707428D01*
X11018457Y-13688381D01*
X11018457Y-13631238D01*
X11027981Y-13612190D01*
X11037505Y-13602667D01*
X11056552Y-13593143D01*
X11085124Y-13593143D01*
X11104171Y-13602667D01*
X11113695Y-13612190D01*
X11123219Y-13631238D01*
X11123219Y-13688381D01*
X11113695Y-13707428D01*
X11104171Y-13716952D01*
X11085124Y-13726476D01*
X11056552Y-13726476D01*
X11237505Y-13726476D02*
X11218457Y-13716952D01*
X11208933Y-13697905D01*
X11208933Y-13526476D01*
X11389886Y-13716952D02*
X11370838Y-13726476D01*
X11332743Y-13726476D01*
X11313695Y-13716952D01*
X11304171Y-13697905D01*
X11304171Y-13621714D01*
X11313695Y-13602667D01*
X11332743Y-13593143D01*
X11370838Y-13593143D01*
X11389886Y-13602667D01*
X11399409Y-13621714D01*
X11399409Y-13640762D01*
X11304171Y-13659809D01*
X11475600Y-13716952D02*
X11494648Y-13726476D01*
X11532743Y-13726476D01*
X11551790Y-13716952D01*
X11561314Y-13697905D01*
X11561314Y-13688381D01*
X11551790Y-13669333D01*
X11532743Y-13659809D01*
X11504171Y-13659809D01*
X11485124Y-13650286D01*
X11475600Y-13631238D01*
X11475600Y-13621714D01*
X11485124Y-13602667D01*
X11504171Y-13593143D01*
X11532743Y-13593143D01*
X11551790Y-13602667D01*
X11627981Y-13802667D02*
X11637505Y-13793143D01*
X11656552Y-13764571D01*
X11666076Y-13745524D01*
X11675600Y-13716952D01*
X11685124Y-13669333D01*
X11685124Y-13631238D01*
X11675600Y-13583619D01*
X11666076Y-13555048D01*
X11656552Y-13536000D01*
X11637505Y-13507428D01*
X11627981Y-13497905D01*
D13*
X6665600Y-13900000D02*
G75*
G03*
X6665600Y-13900000I-50000J0D01*
G01*
D11*
X7027981Y-13990476D02*
X6913695Y-13990476D01*
X6970838Y-13990476D02*
X6970838Y-13790476D01*
X6951790Y-13819048D01*
X6932743Y-13838095D01*
X6913695Y-13847619D01*
X7113695Y-13971428D02*
X7123219Y-13980952D01*
X7113695Y-13990476D01*
X7104171Y-13980952D01*
X7113695Y-13971428D01*
X7113695Y-13990476D01*
X7247028Y-13790476D02*
X7266076Y-13790476D01*
X7285124Y-13800000D01*
X7294648Y-13809524D01*
X7304171Y-13828571D01*
X7313695Y-13866667D01*
X7313695Y-13914286D01*
X7304171Y-13952381D01*
X7294648Y-13971428D01*
X7285124Y-13980952D01*
X7266076Y-13990476D01*
X7247028Y-13990476D01*
X7227981Y-13980952D01*
X7218457Y-13971428D01*
X7208933Y-13952381D01*
X7199409Y-13914286D01*
X7199409Y-13866667D01*
X7208933Y-13828571D01*
X7218457Y-13809524D01*
X7227981Y-13800000D01*
X7247028Y-13790476D01*
X7437505Y-13790476D02*
X7456552Y-13790476D01*
X7475600Y-13800000D01*
X7485124Y-13809524D01*
X7494648Y-13828571D01*
X7504171Y-13866667D01*
X7504171Y-13914286D01*
X7494648Y-13952381D01*
X7485124Y-13971428D01*
X7475600Y-13980952D01*
X7456552Y-13990476D01*
X7437505Y-13990476D01*
X7418457Y-13980952D01*
X7408933Y-13971428D01*
X7399409Y-13952381D01*
X7389886Y-13914286D01*
X7389886Y-13866667D01*
X7399409Y-13828571D01*
X7408933Y-13809524D01*
X7418457Y-13800000D01*
X7437505Y-13790476D01*
X7627981Y-13790476D02*
X7647028Y-13790476D01*
X7666076Y-13800000D01*
X7675600Y-13809524D01*
X7685124Y-13828571D01*
X7694648Y-13866667D01*
X7694648Y-13914286D01*
X7685124Y-13952381D01*
X7675600Y-13971428D01*
X7666076Y-13980952D01*
X7647028Y-13990476D01*
X7627981Y-13990476D01*
X7608933Y-13980952D01*
X7599409Y-13971428D01*
X7589886Y-13952381D01*
X7580362Y-13914286D01*
X7580362Y-13866667D01*
X7589886Y-13828571D01*
X7599409Y-13809524D01*
X7608933Y-13800000D01*
X7627981Y-13790476D01*
X7780362Y-13990476D02*
X7780362Y-13857143D01*
X7780362Y-13876190D02*
X7789886Y-13866667D01*
X7808933Y-13857143D01*
X7837505Y-13857143D01*
X7856552Y-13866667D01*
X7866076Y-13885714D01*
X7866076Y-13990476D01*
X7866076Y-13885714D02*
X7875600Y-13866667D01*
X7894648Y-13857143D01*
X7923219Y-13857143D01*
X7942267Y-13866667D01*
X7951790Y-13885714D01*
X7951790Y-13990476D01*
X8047028Y-13990476D02*
X8047028Y-13857143D01*
X8047028Y-13876190D02*
X8056552Y-13866667D01*
X8075600Y-13857143D01*
X8104171Y-13857143D01*
X8123219Y-13866667D01*
X8132743Y-13885714D01*
X8132743Y-13990476D01*
X8132743Y-13885714D02*
X8142267Y-13866667D01*
X8161314Y-13857143D01*
X8189886Y-13857143D01*
X8208933Y-13866667D01*
X8218457Y-13885714D01*
X8218457Y-13990476D01*
X8608933Y-13780952D02*
X8437505Y-14038095D01*
X8866076Y-13790476D02*
X8885124Y-13790476D01*
X8904171Y-13800000D01*
X8913695Y-13809524D01*
X8923219Y-13828571D01*
X8932743Y-13866667D01*
X8932743Y-13914286D01*
X8923219Y-13952381D01*
X8913695Y-13971428D01*
X8904171Y-13980952D01*
X8885124Y-13990476D01*
X8866076Y-13990476D01*
X8847029Y-13980952D01*
X8837505Y-13971428D01*
X8827981Y-13952381D01*
X8818457Y-13914286D01*
X8818457Y-13866667D01*
X8827981Y-13828571D01*
X8837505Y-13809524D01*
X8847029Y-13800000D01*
X8866076Y-13790476D01*
X9018457Y-13971428D02*
X9027981Y-13980952D01*
X9018457Y-13990476D01*
X9008933Y-13980952D01*
X9018457Y-13971428D01*
X9018457Y-13990476D01*
X9151790Y-13790476D02*
X9170838Y-13790476D01*
X9189886Y-13800000D01*
X9199410Y-13809524D01*
X9208933Y-13828571D01*
X9218457Y-13866667D01*
X9218457Y-13914286D01*
X9208933Y-13952381D01*
X9199410Y-13971428D01*
X9189886Y-13980952D01*
X9170838Y-13990476D01*
X9151790Y-13990476D01*
X9132743Y-13980952D01*
X9123219Y-13971428D01*
X9113695Y-13952381D01*
X9104171Y-13914286D01*
X9104171Y-13866667D01*
X9113695Y-13828571D01*
X9123219Y-13809524D01*
X9132743Y-13800000D01*
X9151790Y-13790476D01*
X9285124Y-13790476D02*
X9408933Y-13790476D01*
X9342267Y-13866667D01*
X9370838Y-13866667D01*
X9389886Y-13876190D01*
X9399410Y-13885714D01*
X9408933Y-13904762D01*
X9408933Y-13952381D01*
X9399410Y-13971428D01*
X9389886Y-13980952D01*
X9370838Y-13990476D01*
X9313695Y-13990476D01*
X9294648Y-13980952D01*
X9285124Y-13971428D01*
X9504171Y-13990476D02*
X9542267Y-13990476D01*
X9561314Y-13980952D01*
X9570838Y-13971428D01*
X9589886Y-13942857D01*
X9599410Y-13904762D01*
X9599410Y-13828571D01*
X9589886Y-13809524D01*
X9580362Y-13800000D01*
X9561314Y-13790476D01*
X9523219Y-13790476D01*
X9504171Y-13800000D01*
X9494648Y-13809524D01*
X9485124Y-13828571D01*
X9485124Y-13876190D01*
X9494648Y-13895238D01*
X9504171Y-13904762D01*
X9523219Y-13914286D01*
X9561314Y-13914286D01*
X9580362Y-13904762D01*
X9589886Y-13895238D01*
X9599410Y-13876190D01*
X9770838Y-13857143D02*
X9770838Y-13990476D01*
X9723219Y-13780952D02*
X9675600Y-13923809D01*
X9799410Y-13923809D01*
X9866076Y-13790476D02*
X9866076Y-13828571D01*
X9942267Y-13790476D02*
X9942267Y-13828571D01*
X10237505Y-14066667D02*
X10227981Y-14057143D01*
X10208933Y-14028571D01*
X10199410Y-14009524D01*
X10189886Y-13980952D01*
X10180362Y-13933333D01*
X10180362Y-13895238D01*
X10189886Y-13847619D01*
X10199410Y-13819048D01*
X10208933Y-13800000D01*
X10227981Y-13771428D01*
X10237505Y-13761905D01*
X10342267Y-13876190D02*
X10323219Y-13866667D01*
X10313695Y-13857143D01*
X10304171Y-13838095D01*
X10304171Y-13828571D01*
X10313695Y-13809524D01*
X10323219Y-13800000D01*
X10342267Y-13790476D01*
X10380362Y-13790476D01*
X10399410Y-13800000D01*
X10408933Y-13809524D01*
X10418457Y-13828571D01*
X10418457Y-13838095D01*
X10408933Y-13857143D01*
X10399410Y-13866667D01*
X10380362Y-13876190D01*
X10342267Y-13876190D01*
X10323219Y-13885714D01*
X10313695Y-13895238D01*
X10304171Y-13914286D01*
X10304171Y-13952381D01*
X10313695Y-13971428D01*
X10323219Y-13980952D01*
X10342267Y-13990476D01*
X10380362Y-13990476D01*
X10399410Y-13980952D01*
X10408933Y-13971428D01*
X10418457Y-13952381D01*
X10418457Y-13914286D01*
X10408933Y-13895238D01*
X10399410Y-13885714D01*
X10380362Y-13876190D01*
X10656552Y-13990476D02*
X10656552Y-13790476D01*
X10742267Y-13990476D02*
X10742267Y-13885714D01*
X10732743Y-13866667D01*
X10713695Y-13857143D01*
X10685124Y-13857143D01*
X10666076Y-13866667D01*
X10656552Y-13876190D01*
X10866076Y-13990476D02*
X10847029Y-13980952D01*
X10837505Y-13971428D01*
X10827981Y-13952381D01*
X10827981Y-13895238D01*
X10837505Y-13876190D01*
X10847029Y-13866667D01*
X10866076Y-13857143D01*
X10894648Y-13857143D01*
X10913695Y-13866667D01*
X10923219Y-13876190D01*
X10932743Y-13895238D01*
X10932743Y-13952381D01*
X10923219Y-13971428D01*
X10913695Y-13980952D01*
X10894648Y-13990476D01*
X10866076Y-13990476D01*
X11047029Y-13990476D02*
X11027981Y-13980952D01*
X11018457Y-13961905D01*
X11018457Y-13790476D01*
X11199409Y-13980952D02*
X11180362Y-13990476D01*
X11142267Y-13990476D01*
X11123219Y-13980952D01*
X11113695Y-13961905D01*
X11113695Y-13885714D01*
X11123219Y-13866667D01*
X11142267Y-13857143D01*
X11180362Y-13857143D01*
X11199409Y-13866667D01*
X11208933Y-13885714D01*
X11208933Y-13904762D01*
X11113695Y-13923809D01*
X11285124Y-13980952D02*
X11304171Y-13990476D01*
X11342267Y-13990476D01*
X11361314Y-13980952D01*
X11370838Y-13961905D01*
X11370838Y-13952381D01*
X11361314Y-13933333D01*
X11342267Y-13923809D01*
X11313695Y-13923809D01*
X11294648Y-13914286D01*
X11285124Y-13895238D01*
X11285124Y-13885714D01*
X11294648Y-13866667D01*
X11313695Y-13857143D01*
X11342267Y-13857143D01*
X11361314Y-13866667D01*
X11437505Y-14066667D02*
X11447028Y-14057143D01*
X11466076Y-14028571D01*
X11475600Y-14009524D01*
X11485124Y-13980952D01*
X11494648Y-13933333D01*
X11494648Y-13895238D01*
X11485124Y-13847619D01*
X11475600Y-13819048D01*
X11466076Y-13800000D01*
X11447028Y-13771428D01*
X11437505Y-13761905D01*
X6565600Y-14064000D02*
X6565600Y-14264000D01*
X6465600Y-14164000D02*
X6665600Y-14164000D01*
X6913695Y-14073524D02*
X6923219Y-14064000D01*
X6942267Y-14054476D01*
X6989886Y-14054476D01*
X7008933Y-14064000D01*
X7018457Y-14073524D01*
X7027981Y-14092571D01*
X7027981Y-14111619D01*
X7018457Y-14140190D01*
X6904171Y-14254476D01*
X7027981Y-14254476D01*
X7113695Y-14235428D02*
X7123219Y-14244952D01*
X7113695Y-14254476D01*
X7104171Y-14244952D01*
X7113695Y-14235428D01*
X7113695Y-14254476D01*
X7199409Y-14073524D02*
X7208933Y-14064000D01*
X7227981Y-14054476D01*
X7275600Y-14054476D01*
X7294648Y-14064000D01*
X7304171Y-14073524D01*
X7313695Y-14092571D01*
X7313695Y-14111619D01*
X7304171Y-14140190D01*
X7189886Y-14254476D01*
X7313695Y-14254476D01*
X7437505Y-14054476D02*
X7456552Y-14054476D01*
X7475600Y-14064000D01*
X7485124Y-14073524D01*
X7494648Y-14092571D01*
X7504171Y-14130667D01*
X7504171Y-14178286D01*
X7494648Y-14216381D01*
X7485124Y-14235428D01*
X7475600Y-14244952D01*
X7456552Y-14254476D01*
X7437505Y-14254476D01*
X7418457Y-14244952D01*
X7408933Y-14235428D01*
X7399409Y-14216381D01*
X7389886Y-14178286D01*
X7389886Y-14130667D01*
X7399409Y-14092571D01*
X7408933Y-14073524D01*
X7418457Y-14064000D01*
X7437505Y-14054476D01*
X7627981Y-14054476D02*
X7647028Y-14054476D01*
X7666076Y-14064000D01*
X7675600Y-14073524D01*
X7685124Y-14092571D01*
X7694648Y-14130667D01*
X7694648Y-14178286D01*
X7685124Y-14216381D01*
X7675600Y-14235428D01*
X7666076Y-14244952D01*
X7647028Y-14254476D01*
X7627981Y-14254476D01*
X7608933Y-14244952D01*
X7599409Y-14235428D01*
X7589886Y-14216381D01*
X7580362Y-14178286D01*
X7580362Y-14130667D01*
X7589886Y-14092571D01*
X7599409Y-14073524D01*
X7608933Y-14064000D01*
X7627981Y-14054476D01*
X7780362Y-14254476D02*
X7780362Y-14121143D01*
X7780362Y-14140190D02*
X7789886Y-14130667D01*
X7808933Y-14121143D01*
X7837505Y-14121143D01*
X7856552Y-14130667D01*
X7866076Y-14149714D01*
X7866076Y-14254476D01*
X7866076Y-14149714D02*
X7875600Y-14130667D01*
X7894648Y-14121143D01*
X7923219Y-14121143D01*
X7942267Y-14130667D01*
X7951790Y-14149714D01*
X7951790Y-14254476D01*
X8047028Y-14254476D02*
X8047028Y-14121143D01*
X8047028Y-14140190D02*
X8056552Y-14130667D01*
X8075600Y-14121143D01*
X8104171Y-14121143D01*
X8123219Y-14130667D01*
X8132743Y-14149714D01*
X8132743Y-14254476D01*
X8132743Y-14149714D02*
X8142267Y-14130667D01*
X8161314Y-14121143D01*
X8189886Y-14121143D01*
X8208933Y-14130667D01*
X8218457Y-14149714D01*
X8218457Y-14254476D01*
X8608933Y-14044952D02*
X8437505Y-14302095D01*
X8866076Y-14054476D02*
X8885124Y-14054476D01*
X8904171Y-14064000D01*
X8913695Y-14073524D01*
X8923219Y-14092571D01*
X8932743Y-14130667D01*
X8932743Y-14178286D01*
X8923219Y-14216381D01*
X8913695Y-14235428D01*
X8904171Y-14244952D01*
X8885124Y-14254476D01*
X8866076Y-14254476D01*
X8847029Y-14244952D01*
X8837505Y-14235428D01*
X8827981Y-14216381D01*
X8818457Y-14178286D01*
X8818457Y-14130667D01*
X8827981Y-14092571D01*
X8837505Y-14073524D01*
X8847029Y-14064000D01*
X8866076Y-14054476D01*
X9018457Y-14235428D02*
X9027981Y-14244952D01*
X9018457Y-14254476D01*
X9008933Y-14244952D01*
X9018457Y-14235428D01*
X9018457Y-14254476D01*
X9151790Y-14054476D02*
X9170838Y-14054476D01*
X9189886Y-14064000D01*
X9199410Y-14073524D01*
X9208933Y-14092571D01*
X9218457Y-14130667D01*
X9218457Y-14178286D01*
X9208933Y-14216381D01*
X9199410Y-14235428D01*
X9189886Y-14244952D01*
X9170838Y-14254476D01*
X9151790Y-14254476D01*
X9132743Y-14244952D01*
X9123219Y-14235428D01*
X9113695Y-14216381D01*
X9104171Y-14178286D01*
X9104171Y-14130667D01*
X9113695Y-14092571D01*
X9123219Y-14073524D01*
X9132743Y-14064000D01*
X9151790Y-14054476D01*
X9332743Y-14140190D02*
X9313695Y-14130667D01*
X9304171Y-14121143D01*
X9294648Y-14102095D01*
X9294648Y-14092571D01*
X9304171Y-14073524D01*
X9313695Y-14064000D01*
X9332743Y-14054476D01*
X9370838Y-14054476D01*
X9389886Y-14064000D01*
X9399410Y-14073524D01*
X9408933Y-14092571D01*
X9408933Y-14102095D01*
X9399410Y-14121143D01*
X9389886Y-14130667D01*
X9370838Y-14140190D01*
X9332743Y-14140190D01*
X9313695Y-14149714D01*
X9304171Y-14159238D01*
X9294648Y-14178286D01*
X9294648Y-14216381D01*
X9304171Y-14235428D01*
X9313695Y-14244952D01*
X9332743Y-14254476D01*
X9370838Y-14254476D01*
X9389886Y-14244952D01*
X9399410Y-14235428D01*
X9408933Y-14216381D01*
X9408933Y-14178286D01*
X9399410Y-14159238D01*
X9389886Y-14149714D01*
X9370838Y-14140190D01*
X9580362Y-14054476D02*
X9542267Y-14054476D01*
X9523219Y-14064000D01*
X9513695Y-14073524D01*
X9494648Y-14102095D01*
X9485124Y-14140190D01*
X9485124Y-14216381D01*
X9494648Y-14235428D01*
X9504171Y-14244952D01*
X9523219Y-14254476D01*
X9561314Y-14254476D01*
X9580362Y-14244952D01*
X9589886Y-14235428D01*
X9599410Y-14216381D01*
X9599410Y-14168762D01*
X9589886Y-14149714D01*
X9580362Y-14140190D01*
X9561314Y-14130667D01*
X9523219Y-14130667D01*
X9504171Y-14140190D01*
X9494648Y-14149714D01*
X9485124Y-14168762D01*
X9770838Y-14054476D02*
X9732743Y-14054476D01*
X9713695Y-14064000D01*
X9704171Y-14073524D01*
X9685124Y-14102095D01*
X9675600Y-14140190D01*
X9675600Y-14216381D01*
X9685124Y-14235428D01*
X9694648Y-14244952D01*
X9713695Y-14254476D01*
X9751790Y-14254476D01*
X9770838Y-14244952D01*
X9780362Y-14235428D01*
X9789886Y-14216381D01*
X9789886Y-14168762D01*
X9780362Y-14149714D01*
X9770838Y-14140190D01*
X9751790Y-14130667D01*
X9713695Y-14130667D01*
X9694648Y-14140190D01*
X9685124Y-14149714D01*
X9675600Y-14168762D01*
X9866076Y-14054476D02*
X9866076Y-14092571D01*
X9942267Y-14054476D02*
X9942267Y-14092571D01*
X10237505Y-14330667D02*
X10227981Y-14321143D01*
X10208933Y-14292571D01*
X10199410Y-14273524D01*
X10189886Y-14244952D01*
X10180362Y-14197333D01*
X10180362Y-14159238D01*
X10189886Y-14111619D01*
X10199410Y-14083048D01*
X10208933Y-14064000D01*
X10227981Y-14035428D01*
X10237505Y-14025905D01*
X10304171Y-14073524D02*
X10313695Y-14064000D01*
X10332743Y-14054476D01*
X10380362Y-14054476D01*
X10399410Y-14064000D01*
X10408933Y-14073524D01*
X10418457Y-14092571D01*
X10418457Y-14111619D01*
X10408933Y-14140190D01*
X10294648Y-14254476D01*
X10418457Y-14254476D01*
X10656552Y-14254476D02*
X10656552Y-14054476D01*
X10742267Y-14254476D02*
X10742267Y-14149714D01*
X10732743Y-14130667D01*
X10713695Y-14121143D01*
X10685124Y-14121143D01*
X10666076Y-14130667D01*
X10656552Y-14140190D01*
X10866076Y-14254476D02*
X10847029Y-14244952D01*
X10837505Y-14235428D01*
X10827981Y-14216381D01*
X10827981Y-14159238D01*
X10837505Y-14140190D01*
X10847029Y-14130667D01*
X10866076Y-14121143D01*
X10894648Y-14121143D01*
X10913695Y-14130667D01*
X10923219Y-14140190D01*
X10932743Y-14159238D01*
X10932743Y-14216381D01*
X10923219Y-14235428D01*
X10913695Y-14244952D01*
X10894648Y-14254476D01*
X10866076Y-14254476D01*
X11047029Y-14254476D02*
X11027981Y-14244952D01*
X11018457Y-14225905D01*
X11018457Y-14054476D01*
X11199409Y-14244952D02*
X11180362Y-14254476D01*
X11142267Y-14254476D01*
X11123219Y-14244952D01*
X11113695Y-14225905D01*
X11113695Y-14149714D01*
X11123219Y-14130667D01*
X11142267Y-14121143D01*
X11180362Y-14121143D01*
X11199409Y-14130667D01*
X11208933Y-14149714D01*
X11208933Y-14168762D01*
X11113695Y-14187809D01*
X11285124Y-14244952D02*
X11304171Y-14254476D01*
X11342267Y-14254476D01*
X11361314Y-14244952D01*
X11370838Y-14225905D01*
X11370838Y-14216381D01*
X11361314Y-14197333D01*
X11342267Y-14187809D01*
X11313695Y-14187809D01*
X11294648Y-14178286D01*
X11285124Y-14159238D01*
X11285124Y-14149714D01*
X11294648Y-14130667D01*
X11313695Y-14121143D01*
X11342267Y-14121143D01*
X11361314Y-14130667D01*
X11437505Y-14330667D02*
X11447028Y-14321143D01*
X11466076Y-14292571D01*
X11475600Y-14273524D01*
X11485124Y-14244952D01*
X11494648Y-14197333D01*
X11494648Y-14159238D01*
X11485124Y-14111619D01*
X11475600Y-14083048D01*
X11466076Y-14064000D01*
X11447028Y-14035428D01*
X11437505Y-14025905D01*
M02*
