%TF.GenerationSoftware,KiCad,Pcbnew,7.0.1*%
%TF.CreationDate,2023-11-27T02:11:57-06:00*%
%TF.ProjectId,RoundScanner,526f756e-6453-4636-916e-6e65722e6b69,1.0*%
%TF.SameCoordinates,Original*%
%TF.FileFunction,Legend,Top*%
%TF.FilePolarity,Positive*%
%FSLAX46Y46*%
G04 Gerber Fmt 4.6, Leading zero omitted, Abs format (unit mm)*
G04 Created by KiCad (PCBNEW 7.0.1) date 2023-11-27 02:11:57*
%MOMM*%
%LPD*%
G01*
G04 APERTURE LIST*
%ADD10C,0.125000*%
%ADD11C,0.120000*%
%ADD12C,0.150000*%
%ADD13C,0.250000*%
%ADD14C,0.500000*%
%ADD15C,0.127000*%
%ADD16C,0.200000*%
G04 APERTURE END LIST*
D10*
%TO.C,D8*%
X97487309Y-102223047D02*
X96987309Y-102223047D01*
X96987309Y-102223047D02*
X96987309Y-102103999D01*
X96987309Y-102103999D02*
X97011119Y-102032571D01*
X97011119Y-102032571D02*
X97058738Y-101984952D01*
X97058738Y-101984952D02*
X97106357Y-101961142D01*
X97106357Y-101961142D02*
X97201595Y-101937333D01*
X97201595Y-101937333D02*
X97273023Y-101937333D01*
X97273023Y-101937333D02*
X97368261Y-101961142D01*
X97368261Y-101961142D02*
X97415880Y-101984952D01*
X97415880Y-101984952D02*
X97463500Y-102032571D01*
X97463500Y-102032571D02*
X97487309Y-102103999D01*
X97487309Y-102103999D02*
X97487309Y-102223047D01*
X97201595Y-101651618D02*
X97177785Y-101699237D01*
X97177785Y-101699237D02*
X97153976Y-101723047D01*
X97153976Y-101723047D02*
X97106357Y-101746856D01*
X97106357Y-101746856D02*
X97082547Y-101746856D01*
X97082547Y-101746856D02*
X97034928Y-101723047D01*
X97034928Y-101723047D02*
X97011119Y-101699237D01*
X97011119Y-101699237D02*
X96987309Y-101651618D01*
X96987309Y-101651618D02*
X96987309Y-101556380D01*
X96987309Y-101556380D02*
X97011119Y-101508761D01*
X97011119Y-101508761D02*
X97034928Y-101484952D01*
X97034928Y-101484952D02*
X97082547Y-101461142D01*
X97082547Y-101461142D02*
X97106357Y-101461142D01*
X97106357Y-101461142D02*
X97153976Y-101484952D01*
X97153976Y-101484952D02*
X97177785Y-101508761D01*
X97177785Y-101508761D02*
X97201595Y-101556380D01*
X97201595Y-101556380D02*
X97201595Y-101651618D01*
X97201595Y-101651618D02*
X97225404Y-101699237D01*
X97225404Y-101699237D02*
X97249214Y-101723047D01*
X97249214Y-101723047D02*
X97296833Y-101746856D01*
X97296833Y-101746856D02*
X97392071Y-101746856D01*
X97392071Y-101746856D02*
X97439690Y-101723047D01*
X97439690Y-101723047D02*
X97463500Y-101699237D01*
X97463500Y-101699237D02*
X97487309Y-101651618D01*
X97487309Y-101651618D02*
X97487309Y-101556380D01*
X97487309Y-101556380D02*
X97463500Y-101508761D01*
X97463500Y-101508761D02*
X97439690Y-101484952D01*
X97439690Y-101484952D02*
X97392071Y-101461142D01*
X97392071Y-101461142D02*
X97296833Y-101461142D01*
X97296833Y-101461142D02*
X97249214Y-101484952D01*
X97249214Y-101484952D02*
X97225404Y-101508761D01*
X97225404Y-101508761D02*
X97201595Y-101556380D01*
%TO.C,C7*%
X86597666Y-92952690D02*
X86573857Y-92976500D01*
X86573857Y-92976500D02*
X86502428Y-93000309D01*
X86502428Y-93000309D02*
X86454809Y-93000309D01*
X86454809Y-93000309D02*
X86383381Y-92976500D01*
X86383381Y-92976500D02*
X86335762Y-92928880D01*
X86335762Y-92928880D02*
X86311952Y-92881261D01*
X86311952Y-92881261D02*
X86288143Y-92786023D01*
X86288143Y-92786023D02*
X86288143Y-92714595D01*
X86288143Y-92714595D02*
X86311952Y-92619357D01*
X86311952Y-92619357D02*
X86335762Y-92571738D01*
X86335762Y-92571738D02*
X86383381Y-92524119D01*
X86383381Y-92524119D02*
X86454809Y-92500309D01*
X86454809Y-92500309D02*
X86502428Y-92500309D01*
X86502428Y-92500309D02*
X86573857Y-92524119D01*
X86573857Y-92524119D02*
X86597666Y-92547928D01*
X86764333Y-92500309D02*
X87097666Y-92500309D01*
X87097666Y-92500309D02*
X86883381Y-93000309D01*
%TO.C,R27*%
X79912309Y-101290428D02*
X79674214Y-101457094D01*
X79912309Y-101576142D02*
X79412309Y-101576142D01*
X79412309Y-101576142D02*
X79412309Y-101385666D01*
X79412309Y-101385666D02*
X79436119Y-101338047D01*
X79436119Y-101338047D02*
X79459928Y-101314237D01*
X79459928Y-101314237D02*
X79507547Y-101290428D01*
X79507547Y-101290428D02*
X79578976Y-101290428D01*
X79578976Y-101290428D02*
X79626595Y-101314237D01*
X79626595Y-101314237D02*
X79650404Y-101338047D01*
X79650404Y-101338047D02*
X79674214Y-101385666D01*
X79674214Y-101385666D02*
X79674214Y-101576142D01*
X79459928Y-101099951D02*
X79436119Y-101076142D01*
X79436119Y-101076142D02*
X79412309Y-101028523D01*
X79412309Y-101028523D02*
X79412309Y-100909475D01*
X79412309Y-100909475D02*
X79436119Y-100861856D01*
X79436119Y-100861856D02*
X79459928Y-100838047D01*
X79459928Y-100838047D02*
X79507547Y-100814237D01*
X79507547Y-100814237D02*
X79555166Y-100814237D01*
X79555166Y-100814237D02*
X79626595Y-100838047D01*
X79626595Y-100838047D02*
X79912309Y-101123761D01*
X79912309Y-101123761D02*
X79912309Y-100814237D01*
X79412309Y-100647571D02*
X79412309Y-100314238D01*
X79412309Y-100314238D02*
X79912309Y-100528523D01*
%TO.C,C13*%
X67664690Y-109290428D02*
X67688500Y-109314237D01*
X67688500Y-109314237D02*
X67712309Y-109385666D01*
X67712309Y-109385666D02*
X67712309Y-109433285D01*
X67712309Y-109433285D02*
X67688500Y-109504713D01*
X67688500Y-109504713D02*
X67640880Y-109552332D01*
X67640880Y-109552332D02*
X67593261Y-109576142D01*
X67593261Y-109576142D02*
X67498023Y-109599951D01*
X67498023Y-109599951D02*
X67426595Y-109599951D01*
X67426595Y-109599951D02*
X67331357Y-109576142D01*
X67331357Y-109576142D02*
X67283738Y-109552332D01*
X67283738Y-109552332D02*
X67236119Y-109504713D01*
X67236119Y-109504713D02*
X67212309Y-109433285D01*
X67212309Y-109433285D02*
X67212309Y-109385666D01*
X67212309Y-109385666D02*
X67236119Y-109314237D01*
X67236119Y-109314237D02*
X67259928Y-109290428D01*
X67712309Y-108814237D02*
X67712309Y-109099951D01*
X67712309Y-108957094D02*
X67212309Y-108957094D01*
X67212309Y-108957094D02*
X67283738Y-109004713D01*
X67283738Y-109004713D02*
X67331357Y-109052332D01*
X67331357Y-109052332D02*
X67355166Y-109099951D01*
X67212309Y-108647571D02*
X67212309Y-108338047D01*
X67212309Y-108338047D02*
X67402785Y-108504714D01*
X67402785Y-108504714D02*
X67402785Y-108433285D01*
X67402785Y-108433285D02*
X67426595Y-108385666D01*
X67426595Y-108385666D02*
X67450404Y-108361857D01*
X67450404Y-108361857D02*
X67498023Y-108338047D01*
X67498023Y-108338047D02*
X67617071Y-108338047D01*
X67617071Y-108338047D02*
X67664690Y-108361857D01*
X67664690Y-108361857D02*
X67688500Y-108385666D01*
X67688500Y-108385666D02*
X67712309Y-108433285D01*
X67712309Y-108433285D02*
X67712309Y-108576142D01*
X67712309Y-108576142D02*
X67688500Y-108623761D01*
X67688500Y-108623761D02*
X67664690Y-108647571D01*
%TO.C,R1*%
X101770666Y-98759309D02*
X101604000Y-98521214D01*
X101484952Y-98759309D02*
X101484952Y-98259309D01*
X101484952Y-98259309D02*
X101675428Y-98259309D01*
X101675428Y-98259309D02*
X101723047Y-98283119D01*
X101723047Y-98283119D02*
X101746857Y-98306928D01*
X101746857Y-98306928D02*
X101770666Y-98354547D01*
X101770666Y-98354547D02*
X101770666Y-98425976D01*
X101770666Y-98425976D02*
X101746857Y-98473595D01*
X101746857Y-98473595D02*
X101723047Y-98497404D01*
X101723047Y-98497404D02*
X101675428Y-98521214D01*
X101675428Y-98521214D02*
X101484952Y-98521214D01*
X102246857Y-98759309D02*
X101961143Y-98759309D01*
X102104000Y-98759309D02*
X102104000Y-98259309D01*
X102104000Y-98259309D02*
X102056381Y-98330738D01*
X102056381Y-98330738D02*
X102008762Y-98378357D01*
X102008762Y-98378357D02*
X101961143Y-98402166D01*
%TO.C,C3*%
X90734690Y-97746333D02*
X90758500Y-97770142D01*
X90758500Y-97770142D02*
X90782309Y-97841571D01*
X90782309Y-97841571D02*
X90782309Y-97889190D01*
X90782309Y-97889190D02*
X90758500Y-97960618D01*
X90758500Y-97960618D02*
X90710880Y-98008237D01*
X90710880Y-98008237D02*
X90663261Y-98032047D01*
X90663261Y-98032047D02*
X90568023Y-98055856D01*
X90568023Y-98055856D02*
X90496595Y-98055856D01*
X90496595Y-98055856D02*
X90401357Y-98032047D01*
X90401357Y-98032047D02*
X90353738Y-98008237D01*
X90353738Y-98008237D02*
X90306119Y-97960618D01*
X90306119Y-97960618D02*
X90282309Y-97889190D01*
X90282309Y-97889190D02*
X90282309Y-97841571D01*
X90282309Y-97841571D02*
X90306119Y-97770142D01*
X90306119Y-97770142D02*
X90329928Y-97746333D01*
X90282309Y-97579666D02*
X90282309Y-97270142D01*
X90282309Y-97270142D02*
X90472785Y-97436809D01*
X90472785Y-97436809D02*
X90472785Y-97365380D01*
X90472785Y-97365380D02*
X90496595Y-97317761D01*
X90496595Y-97317761D02*
X90520404Y-97293952D01*
X90520404Y-97293952D02*
X90568023Y-97270142D01*
X90568023Y-97270142D02*
X90687071Y-97270142D01*
X90687071Y-97270142D02*
X90734690Y-97293952D01*
X90734690Y-97293952D02*
X90758500Y-97317761D01*
X90758500Y-97317761D02*
X90782309Y-97365380D01*
X90782309Y-97365380D02*
X90782309Y-97508237D01*
X90782309Y-97508237D02*
X90758500Y-97555856D01*
X90758500Y-97555856D02*
X90734690Y-97579666D01*
%TO.C,C5*%
X76997666Y-97952690D02*
X76973857Y-97976500D01*
X76973857Y-97976500D02*
X76902428Y-98000309D01*
X76902428Y-98000309D02*
X76854809Y-98000309D01*
X76854809Y-98000309D02*
X76783381Y-97976500D01*
X76783381Y-97976500D02*
X76735762Y-97928880D01*
X76735762Y-97928880D02*
X76711952Y-97881261D01*
X76711952Y-97881261D02*
X76688143Y-97786023D01*
X76688143Y-97786023D02*
X76688143Y-97714595D01*
X76688143Y-97714595D02*
X76711952Y-97619357D01*
X76711952Y-97619357D02*
X76735762Y-97571738D01*
X76735762Y-97571738D02*
X76783381Y-97524119D01*
X76783381Y-97524119D02*
X76854809Y-97500309D01*
X76854809Y-97500309D02*
X76902428Y-97500309D01*
X76902428Y-97500309D02*
X76973857Y-97524119D01*
X76973857Y-97524119D02*
X76997666Y-97547928D01*
X77450047Y-97500309D02*
X77211952Y-97500309D01*
X77211952Y-97500309D02*
X77188143Y-97738404D01*
X77188143Y-97738404D02*
X77211952Y-97714595D01*
X77211952Y-97714595D02*
X77259571Y-97690785D01*
X77259571Y-97690785D02*
X77378619Y-97690785D01*
X77378619Y-97690785D02*
X77426238Y-97714595D01*
X77426238Y-97714595D02*
X77450047Y-97738404D01*
X77450047Y-97738404D02*
X77473857Y-97786023D01*
X77473857Y-97786023D02*
X77473857Y-97905071D01*
X77473857Y-97905071D02*
X77450047Y-97952690D01*
X77450047Y-97952690D02*
X77426238Y-97976500D01*
X77426238Y-97976500D02*
X77378619Y-98000309D01*
X77378619Y-98000309D02*
X77259571Y-98000309D01*
X77259571Y-98000309D02*
X77211952Y-97976500D01*
X77211952Y-97976500D02*
X77188143Y-97952690D01*
%TO.C,Q1*%
X81159928Y-112316619D02*
X81136119Y-112364238D01*
X81136119Y-112364238D02*
X81088500Y-112411857D01*
X81088500Y-112411857D02*
X81017071Y-112483285D01*
X81017071Y-112483285D02*
X80993261Y-112530904D01*
X80993261Y-112530904D02*
X80993261Y-112578523D01*
X81112309Y-112554714D02*
X81088500Y-112602333D01*
X81088500Y-112602333D02*
X81040880Y-112649952D01*
X81040880Y-112649952D02*
X80945642Y-112673761D01*
X80945642Y-112673761D02*
X80778976Y-112673761D01*
X80778976Y-112673761D02*
X80683738Y-112649952D01*
X80683738Y-112649952D02*
X80636119Y-112602333D01*
X80636119Y-112602333D02*
X80612309Y-112554714D01*
X80612309Y-112554714D02*
X80612309Y-112459476D01*
X80612309Y-112459476D02*
X80636119Y-112411857D01*
X80636119Y-112411857D02*
X80683738Y-112364238D01*
X80683738Y-112364238D02*
X80778976Y-112340428D01*
X80778976Y-112340428D02*
X80945642Y-112340428D01*
X80945642Y-112340428D02*
X81040880Y-112364238D01*
X81040880Y-112364238D02*
X81088500Y-112411857D01*
X81088500Y-112411857D02*
X81112309Y-112459476D01*
X81112309Y-112459476D02*
X81112309Y-112554714D01*
X81112309Y-111864237D02*
X81112309Y-112149951D01*
X81112309Y-112007094D02*
X80612309Y-112007094D01*
X80612309Y-112007094D02*
X80683738Y-112054713D01*
X80683738Y-112054713D02*
X80731357Y-112102332D01*
X80731357Y-112102332D02*
X80755166Y-112149951D01*
%TO.C,R16*%
X93531571Y-127485309D02*
X93364905Y-127247214D01*
X93245857Y-127485309D02*
X93245857Y-126985309D01*
X93245857Y-126985309D02*
X93436333Y-126985309D01*
X93436333Y-126985309D02*
X93483952Y-127009119D01*
X93483952Y-127009119D02*
X93507762Y-127032928D01*
X93507762Y-127032928D02*
X93531571Y-127080547D01*
X93531571Y-127080547D02*
X93531571Y-127151976D01*
X93531571Y-127151976D02*
X93507762Y-127199595D01*
X93507762Y-127199595D02*
X93483952Y-127223404D01*
X93483952Y-127223404D02*
X93436333Y-127247214D01*
X93436333Y-127247214D02*
X93245857Y-127247214D01*
X94007762Y-127485309D02*
X93722048Y-127485309D01*
X93864905Y-127485309D02*
X93864905Y-126985309D01*
X93864905Y-126985309D02*
X93817286Y-127056738D01*
X93817286Y-127056738D02*
X93769667Y-127104357D01*
X93769667Y-127104357D02*
X93722048Y-127128166D01*
X94436333Y-126985309D02*
X94341095Y-126985309D01*
X94341095Y-126985309D02*
X94293476Y-127009119D01*
X94293476Y-127009119D02*
X94269666Y-127032928D01*
X94269666Y-127032928D02*
X94222047Y-127104357D01*
X94222047Y-127104357D02*
X94198238Y-127199595D01*
X94198238Y-127199595D02*
X94198238Y-127390071D01*
X94198238Y-127390071D02*
X94222047Y-127437690D01*
X94222047Y-127437690D02*
X94245857Y-127461500D01*
X94245857Y-127461500D02*
X94293476Y-127485309D01*
X94293476Y-127485309D02*
X94388714Y-127485309D01*
X94388714Y-127485309D02*
X94436333Y-127461500D01*
X94436333Y-127461500D02*
X94460142Y-127437690D01*
X94460142Y-127437690D02*
X94483952Y-127390071D01*
X94483952Y-127390071D02*
X94483952Y-127271023D01*
X94483952Y-127271023D02*
X94460142Y-127223404D01*
X94460142Y-127223404D02*
X94436333Y-127199595D01*
X94436333Y-127199595D02*
X94388714Y-127175785D01*
X94388714Y-127175785D02*
X94293476Y-127175785D01*
X94293476Y-127175785D02*
X94245857Y-127199595D01*
X94245857Y-127199595D02*
X94222047Y-127223404D01*
X94222047Y-127223404D02*
X94198238Y-127271023D01*
%TO.C,R4*%
X88181666Y-90020309D02*
X88015000Y-89782214D01*
X87895952Y-90020309D02*
X87895952Y-89520309D01*
X87895952Y-89520309D02*
X88086428Y-89520309D01*
X88086428Y-89520309D02*
X88134047Y-89544119D01*
X88134047Y-89544119D02*
X88157857Y-89567928D01*
X88157857Y-89567928D02*
X88181666Y-89615547D01*
X88181666Y-89615547D02*
X88181666Y-89686976D01*
X88181666Y-89686976D02*
X88157857Y-89734595D01*
X88157857Y-89734595D02*
X88134047Y-89758404D01*
X88134047Y-89758404D02*
X88086428Y-89782214D01*
X88086428Y-89782214D02*
X87895952Y-89782214D01*
X88610238Y-89686976D02*
X88610238Y-90020309D01*
X88491190Y-89496500D02*
X88372143Y-89853642D01*
X88372143Y-89853642D02*
X88681666Y-89853642D01*
%TO.C,R13*%
X84909571Y-116550309D02*
X84742905Y-116312214D01*
X84623857Y-116550309D02*
X84623857Y-116050309D01*
X84623857Y-116050309D02*
X84814333Y-116050309D01*
X84814333Y-116050309D02*
X84861952Y-116074119D01*
X84861952Y-116074119D02*
X84885762Y-116097928D01*
X84885762Y-116097928D02*
X84909571Y-116145547D01*
X84909571Y-116145547D02*
X84909571Y-116216976D01*
X84909571Y-116216976D02*
X84885762Y-116264595D01*
X84885762Y-116264595D02*
X84861952Y-116288404D01*
X84861952Y-116288404D02*
X84814333Y-116312214D01*
X84814333Y-116312214D02*
X84623857Y-116312214D01*
X85385762Y-116550309D02*
X85100048Y-116550309D01*
X85242905Y-116550309D02*
X85242905Y-116050309D01*
X85242905Y-116050309D02*
X85195286Y-116121738D01*
X85195286Y-116121738D02*
X85147667Y-116169357D01*
X85147667Y-116169357D02*
X85100048Y-116193166D01*
X85552428Y-116050309D02*
X85861952Y-116050309D01*
X85861952Y-116050309D02*
X85695285Y-116240785D01*
X85695285Y-116240785D02*
X85766714Y-116240785D01*
X85766714Y-116240785D02*
X85814333Y-116264595D01*
X85814333Y-116264595D02*
X85838142Y-116288404D01*
X85838142Y-116288404D02*
X85861952Y-116336023D01*
X85861952Y-116336023D02*
X85861952Y-116455071D01*
X85861952Y-116455071D02*
X85838142Y-116502690D01*
X85838142Y-116502690D02*
X85814333Y-116526500D01*
X85814333Y-116526500D02*
X85766714Y-116550309D01*
X85766714Y-116550309D02*
X85623857Y-116550309D01*
X85623857Y-116550309D02*
X85576238Y-116526500D01*
X85576238Y-116526500D02*
X85552428Y-116502690D01*
%TO.C,C20*%
X75664690Y-117490428D02*
X75688500Y-117514237D01*
X75688500Y-117514237D02*
X75712309Y-117585666D01*
X75712309Y-117585666D02*
X75712309Y-117633285D01*
X75712309Y-117633285D02*
X75688500Y-117704713D01*
X75688500Y-117704713D02*
X75640880Y-117752332D01*
X75640880Y-117752332D02*
X75593261Y-117776142D01*
X75593261Y-117776142D02*
X75498023Y-117799951D01*
X75498023Y-117799951D02*
X75426595Y-117799951D01*
X75426595Y-117799951D02*
X75331357Y-117776142D01*
X75331357Y-117776142D02*
X75283738Y-117752332D01*
X75283738Y-117752332D02*
X75236119Y-117704713D01*
X75236119Y-117704713D02*
X75212309Y-117633285D01*
X75212309Y-117633285D02*
X75212309Y-117585666D01*
X75212309Y-117585666D02*
X75236119Y-117514237D01*
X75236119Y-117514237D02*
X75259928Y-117490428D01*
X75259928Y-117299951D02*
X75236119Y-117276142D01*
X75236119Y-117276142D02*
X75212309Y-117228523D01*
X75212309Y-117228523D02*
X75212309Y-117109475D01*
X75212309Y-117109475D02*
X75236119Y-117061856D01*
X75236119Y-117061856D02*
X75259928Y-117038047D01*
X75259928Y-117038047D02*
X75307547Y-117014237D01*
X75307547Y-117014237D02*
X75355166Y-117014237D01*
X75355166Y-117014237D02*
X75426595Y-117038047D01*
X75426595Y-117038047D02*
X75712309Y-117323761D01*
X75712309Y-117323761D02*
X75712309Y-117014237D01*
X75212309Y-116704714D02*
X75212309Y-116657095D01*
X75212309Y-116657095D02*
X75236119Y-116609476D01*
X75236119Y-116609476D02*
X75259928Y-116585666D01*
X75259928Y-116585666D02*
X75307547Y-116561857D01*
X75307547Y-116561857D02*
X75402785Y-116538047D01*
X75402785Y-116538047D02*
X75521833Y-116538047D01*
X75521833Y-116538047D02*
X75617071Y-116561857D01*
X75617071Y-116561857D02*
X75664690Y-116585666D01*
X75664690Y-116585666D02*
X75688500Y-116609476D01*
X75688500Y-116609476D02*
X75712309Y-116657095D01*
X75712309Y-116657095D02*
X75712309Y-116704714D01*
X75712309Y-116704714D02*
X75688500Y-116752333D01*
X75688500Y-116752333D02*
X75664690Y-116776142D01*
X75664690Y-116776142D02*
X75617071Y-116799952D01*
X75617071Y-116799952D02*
X75521833Y-116823761D01*
X75521833Y-116823761D02*
X75402785Y-116823761D01*
X75402785Y-116823761D02*
X75307547Y-116799952D01*
X75307547Y-116799952D02*
X75259928Y-116776142D01*
X75259928Y-116776142D02*
X75236119Y-116752333D01*
X75236119Y-116752333D02*
X75212309Y-116704714D01*
%TO.C,TP1*%
X78539048Y-121697309D02*
X78824762Y-121697309D01*
X78681905Y-122197309D02*
X78681905Y-121697309D01*
X78991428Y-122197309D02*
X78991428Y-121697309D01*
X78991428Y-121697309D02*
X79181904Y-121697309D01*
X79181904Y-121697309D02*
X79229523Y-121721119D01*
X79229523Y-121721119D02*
X79253333Y-121744928D01*
X79253333Y-121744928D02*
X79277142Y-121792547D01*
X79277142Y-121792547D02*
X79277142Y-121863976D01*
X79277142Y-121863976D02*
X79253333Y-121911595D01*
X79253333Y-121911595D02*
X79229523Y-121935404D01*
X79229523Y-121935404D02*
X79181904Y-121959214D01*
X79181904Y-121959214D02*
X78991428Y-121959214D01*
X79753333Y-122197309D02*
X79467619Y-122197309D01*
X79610476Y-122197309D02*
X79610476Y-121697309D01*
X79610476Y-121697309D02*
X79562857Y-121768738D01*
X79562857Y-121768738D02*
X79515238Y-121816357D01*
X79515238Y-121816357D02*
X79467619Y-121840166D01*
%TO.C,R7*%
X79997666Y-118432309D02*
X79831000Y-118194214D01*
X79711952Y-118432309D02*
X79711952Y-117932309D01*
X79711952Y-117932309D02*
X79902428Y-117932309D01*
X79902428Y-117932309D02*
X79950047Y-117956119D01*
X79950047Y-117956119D02*
X79973857Y-117979928D01*
X79973857Y-117979928D02*
X79997666Y-118027547D01*
X79997666Y-118027547D02*
X79997666Y-118098976D01*
X79997666Y-118098976D02*
X79973857Y-118146595D01*
X79973857Y-118146595D02*
X79950047Y-118170404D01*
X79950047Y-118170404D02*
X79902428Y-118194214D01*
X79902428Y-118194214D02*
X79711952Y-118194214D01*
X80164333Y-117932309D02*
X80497666Y-117932309D01*
X80497666Y-117932309D02*
X80283381Y-118432309D01*
%TO.C,C24*%
X88705571Y-97846690D02*
X88681762Y-97870500D01*
X88681762Y-97870500D02*
X88610333Y-97894309D01*
X88610333Y-97894309D02*
X88562714Y-97894309D01*
X88562714Y-97894309D02*
X88491286Y-97870500D01*
X88491286Y-97870500D02*
X88443667Y-97822880D01*
X88443667Y-97822880D02*
X88419857Y-97775261D01*
X88419857Y-97775261D02*
X88396048Y-97680023D01*
X88396048Y-97680023D02*
X88396048Y-97608595D01*
X88396048Y-97608595D02*
X88419857Y-97513357D01*
X88419857Y-97513357D02*
X88443667Y-97465738D01*
X88443667Y-97465738D02*
X88491286Y-97418119D01*
X88491286Y-97418119D02*
X88562714Y-97394309D01*
X88562714Y-97394309D02*
X88610333Y-97394309D01*
X88610333Y-97394309D02*
X88681762Y-97418119D01*
X88681762Y-97418119D02*
X88705571Y-97441928D01*
X88896048Y-97441928D02*
X88919857Y-97418119D01*
X88919857Y-97418119D02*
X88967476Y-97394309D01*
X88967476Y-97394309D02*
X89086524Y-97394309D01*
X89086524Y-97394309D02*
X89134143Y-97418119D01*
X89134143Y-97418119D02*
X89157952Y-97441928D01*
X89157952Y-97441928D02*
X89181762Y-97489547D01*
X89181762Y-97489547D02*
X89181762Y-97537166D01*
X89181762Y-97537166D02*
X89157952Y-97608595D01*
X89157952Y-97608595D02*
X88872238Y-97894309D01*
X88872238Y-97894309D02*
X89181762Y-97894309D01*
X89610333Y-97560976D02*
X89610333Y-97894309D01*
X89491285Y-97370500D02*
X89372238Y-97727642D01*
X89372238Y-97727642D02*
X89681761Y-97727642D01*
%TO.C,R29*%
X103559571Y-101800309D02*
X103392905Y-101562214D01*
X103273857Y-101800309D02*
X103273857Y-101300309D01*
X103273857Y-101300309D02*
X103464333Y-101300309D01*
X103464333Y-101300309D02*
X103511952Y-101324119D01*
X103511952Y-101324119D02*
X103535762Y-101347928D01*
X103535762Y-101347928D02*
X103559571Y-101395547D01*
X103559571Y-101395547D02*
X103559571Y-101466976D01*
X103559571Y-101466976D02*
X103535762Y-101514595D01*
X103535762Y-101514595D02*
X103511952Y-101538404D01*
X103511952Y-101538404D02*
X103464333Y-101562214D01*
X103464333Y-101562214D02*
X103273857Y-101562214D01*
X103750048Y-101347928D02*
X103773857Y-101324119D01*
X103773857Y-101324119D02*
X103821476Y-101300309D01*
X103821476Y-101300309D02*
X103940524Y-101300309D01*
X103940524Y-101300309D02*
X103988143Y-101324119D01*
X103988143Y-101324119D02*
X104011952Y-101347928D01*
X104011952Y-101347928D02*
X104035762Y-101395547D01*
X104035762Y-101395547D02*
X104035762Y-101443166D01*
X104035762Y-101443166D02*
X104011952Y-101514595D01*
X104011952Y-101514595D02*
X103726238Y-101800309D01*
X103726238Y-101800309D02*
X104035762Y-101800309D01*
X104273857Y-101800309D02*
X104369095Y-101800309D01*
X104369095Y-101800309D02*
X104416714Y-101776500D01*
X104416714Y-101776500D02*
X104440523Y-101752690D01*
X104440523Y-101752690D02*
X104488142Y-101681261D01*
X104488142Y-101681261D02*
X104511952Y-101586023D01*
X104511952Y-101586023D02*
X104511952Y-101395547D01*
X104511952Y-101395547D02*
X104488142Y-101347928D01*
X104488142Y-101347928D02*
X104464333Y-101324119D01*
X104464333Y-101324119D02*
X104416714Y-101300309D01*
X104416714Y-101300309D02*
X104321476Y-101300309D01*
X104321476Y-101300309D02*
X104273857Y-101324119D01*
X104273857Y-101324119D02*
X104250047Y-101347928D01*
X104250047Y-101347928D02*
X104226238Y-101395547D01*
X104226238Y-101395547D02*
X104226238Y-101514595D01*
X104226238Y-101514595D02*
X104250047Y-101562214D01*
X104250047Y-101562214D02*
X104273857Y-101586023D01*
X104273857Y-101586023D02*
X104321476Y-101609833D01*
X104321476Y-101609833D02*
X104416714Y-101609833D01*
X104416714Y-101609833D02*
X104464333Y-101586023D01*
X104464333Y-101586023D02*
X104488142Y-101562214D01*
X104488142Y-101562214D02*
X104511952Y-101514595D01*
%TO.C,C27*%
X73759571Y-109152690D02*
X73735762Y-109176500D01*
X73735762Y-109176500D02*
X73664333Y-109200309D01*
X73664333Y-109200309D02*
X73616714Y-109200309D01*
X73616714Y-109200309D02*
X73545286Y-109176500D01*
X73545286Y-109176500D02*
X73497667Y-109128880D01*
X73497667Y-109128880D02*
X73473857Y-109081261D01*
X73473857Y-109081261D02*
X73450048Y-108986023D01*
X73450048Y-108986023D02*
X73450048Y-108914595D01*
X73450048Y-108914595D02*
X73473857Y-108819357D01*
X73473857Y-108819357D02*
X73497667Y-108771738D01*
X73497667Y-108771738D02*
X73545286Y-108724119D01*
X73545286Y-108724119D02*
X73616714Y-108700309D01*
X73616714Y-108700309D02*
X73664333Y-108700309D01*
X73664333Y-108700309D02*
X73735762Y-108724119D01*
X73735762Y-108724119D02*
X73759571Y-108747928D01*
X73950048Y-108747928D02*
X73973857Y-108724119D01*
X73973857Y-108724119D02*
X74021476Y-108700309D01*
X74021476Y-108700309D02*
X74140524Y-108700309D01*
X74140524Y-108700309D02*
X74188143Y-108724119D01*
X74188143Y-108724119D02*
X74211952Y-108747928D01*
X74211952Y-108747928D02*
X74235762Y-108795547D01*
X74235762Y-108795547D02*
X74235762Y-108843166D01*
X74235762Y-108843166D02*
X74211952Y-108914595D01*
X74211952Y-108914595D02*
X73926238Y-109200309D01*
X73926238Y-109200309D02*
X74235762Y-109200309D01*
X74402428Y-108700309D02*
X74735761Y-108700309D01*
X74735761Y-108700309D02*
X74521476Y-109200309D01*
%TO.C,C2*%
X99865666Y-98227690D02*
X99841857Y-98251500D01*
X99841857Y-98251500D02*
X99770428Y-98275309D01*
X99770428Y-98275309D02*
X99722809Y-98275309D01*
X99722809Y-98275309D02*
X99651381Y-98251500D01*
X99651381Y-98251500D02*
X99603762Y-98203880D01*
X99603762Y-98203880D02*
X99579952Y-98156261D01*
X99579952Y-98156261D02*
X99556143Y-98061023D01*
X99556143Y-98061023D02*
X99556143Y-97989595D01*
X99556143Y-97989595D02*
X99579952Y-97894357D01*
X99579952Y-97894357D02*
X99603762Y-97846738D01*
X99603762Y-97846738D02*
X99651381Y-97799119D01*
X99651381Y-97799119D02*
X99722809Y-97775309D01*
X99722809Y-97775309D02*
X99770428Y-97775309D01*
X99770428Y-97775309D02*
X99841857Y-97799119D01*
X99841857Y-97799119D02*
X99865666Y-97822928D01*
X100056143Y-97822928D02*
X100079952Y-97799119D01*
X100079952Y-97799119D02*
X100127571Y-97775309D01*
X100127571Y-97775309D02*
X100246619Y-97775309D01*
X100246619Y-97775309D02*
X100294238Y-97799119D01*
X100294238Y-97799119D02*
X100318047Y-97822928D01*
X100318047Y-97822928D02*
X100341857Y-97870547D01*
X100341857Y-97870547D02*
X100341857Y-97918166D01*
X100341857Y-97918166D02*
X100318047Y-97989595D01*
X100318047Y-97989595D02*
X100032333Y-98275309D01*
X100032333Y-98275309D02*
X100341857Y-98275309D01*
%TO.C,C14*%
X75064690Y-118982428D02*
X75088500Y-119006237D01*
X75088500Y-119006237D02*
X75112309Y-119077666D01*
X75112309Y-119077666D02*
X75112309Y-119125285D01*
X75112309Y-119125285D02*
X75088500Y-119196713D01*
X75088500Y-119196713D02*
X75040880Y-119244332D01*
X75040880Y-119244332D02*
X74993261Y-119268142D01*
X74993261Y-119268142D02*
X74898023Y-119291951D01*
X74898023Y-119291951D02*
X74826595Y-119291951D01*
X74826595Y-119291951D02*
X74731357Y-119268142D01*
X74731357Y-119268142D02*
X74683738Y-119244332D01*
X74683738Y-119244332D02*
X74636119Y-119196713D01*
X74636119Y-119196713D02*
X74612309Y-119125285D01*
X74612309Y-119125285D02*
X74612309Y-119077666D01*
X74612309Y-119077666D02*
X74636119Y-119006237D01*
X74636119Y-119006237D02*
X74659928Y-118982428D01*
X75112309Y-118506237D02*
X75112309Y-118791951D01*
X75112309Y-118649094D02*
X74612309Y-118649094D01*
X74612309Y-118649094D02*
X74683738Y-118696713D01*
X74683738Y-118696713D02*
X74731357Y-118744332D01*
X74731357Y-118744332D02*
X74755166Y-118791951D01*
X74778976Y-118077666D02*
X75112309Y-118077666D01*
X74588500Y-118196714D02*
X74945642Y-118315761D01*
X74945642Y-118315761D02*
X74945642Y-118006238D01*
%TO.C,D10*%
X98912309Y-107176142D02*
X98412309Y-107176142D01*
X98412309Y-107176142D02*
X98412309Y-107057094D01*
X98412309Y-107057094D02*
X98436119Y-106985666D01*
X98436119Y-106985666D02*
X98483738Y-106938047D01*
X98483738Y-106938047D02*
X98531357Y-106914237D01*
X98531357Y-106914237D02*
X98626595Y-106890428D01*
X98626595Y-106890428D02*
X98698023Y-106890428D01*
X98698023Y-106890428D02*
X98793261Y-106914237D01*
X98793261Y-106914237D02*
X98840880Y-106938047D01*
X98840880Y-106938047D02*
X98888500Y-106985666D01*
X98888500Y-106985666D02*
X98912309Y-107057094D01*
X98912309Y-107057094D02*
X98912309Y-107176142D01*
X98912309Y-106414237D02*
X98912309Y-106699951D01*
X98912309Y-106557094D02*
X98412309Y-106557094D01*
X98412309Y-106557094D02*
X98483738Y-106604713D01*
X98483738Y-106604713D02*
X98531357Y-106652332D01*
X98531357Y-106652332D02*
X98555166Y-106699951D01*
X98412309Y-106104714D02*
X98412309Y-106057095D01*
X98412309Y-106057095D02*
X98436119Y-106009476D01*
X98436119Y-106009476D02*
X98459928Y-105985666D01*
X98459928Y-105985666D02*
X98507547Y-105961857D01*
X98507547Y-105961857D02*
X98602785Y-105938047D01*
X98602785Y-105938047D02*
X98721833Y-105938047D01*
X98721833Y-105938047D02*
X98817071Y-105961857D01*
X98817071Y-105961857D02*
X98864690Y-105985666D01*
X98864690Y-105985666D02*
X98888500Y-106009476D01*
X98888500Y-106009476D02*
X98912309Y-106057095D01*
X98912309Y-106057095D02*
X98912309Y-106104714D01*
X98912309Y-106104714D02*
X98888500Y-106152333D01*
X98888500Y-106152333D02*
X98864690Y-106176142D01*
X98864690Y-106176142D02*
X98817071Y-106199952D01*
X98817071Y-106199952D02*
X98721833Y-106223761D01*
X98721833Y-106223761D02*
X98602785Y-106223761D01*
X98602785Y-106223761D02*
X98507547Y-106199952D01*
X98507547Y-106199952D02*
X98459928Y-106176142D01*
X98459928Y-106176142D02*
X98436119Y-106152333D01*
X98436119Y-106152333D02*
X98412309Y-106104714D01*
%TO.C,D5*%
X97111952Y-111200309D02*
X97111952Y-110700309D01*
X97111952Y-110700309D02*
X97231000Y-110700309D01*
X97231000Y-110700309D02*
X97302428Y-110724119D01*
X97302428Y-110724119D02*
X97350047Y-110771738D01*
X97350047Y-110771738D02*
X97373857Y-110819357D01*
X97373857Y-110819357D02*
X97397666Y-110914595D01*
X97397666Y-110914595D02*
X97397666Y-110986023D01*
X97397666Y-110986023D02*
X97373857Y-111081261D01*
X97373857Y-111081261D02*
X97350047Y-111128880D01*
X97350047Y-111128880D02*
X97302428Y-111176500D01*
X97302428Y-111176500D02*
X97231000Y-111200309D01*
X97231000Y-111200309D02*
X97111952Y-111200309D01*
X97850047Y-110700309D02*
X97611952Y-110700309D01*
X97611952Y-110700309D02*
X97588143Y-110938404D01*
X97588143Y-110938404D02*
X97611952Y-110914595D01*
X97611952Y-110914595D02*
X97659571Y-110890785D01*
X97659571Y-110890785D02*
X97778619Y-110890785D01*
X97778619Y-110890785D02*
X97826238Y-110914595D01*
X97826238Y-110914595D02*
X97850047Y-110938404D01*
X97850047Y-110938404D02*
X97873857Y-110986023D01*
X97873857Y-110986023D02*
X97873857Y-111105071D01*
X97873857Y-111105071D02*
X97850047Y-111152690D01*
X97850047Y-111152690D02*
X97826238Y-111176500D01*
X97826238Y-111176500D02*
X97778619Y-111200309D01*
X97778619Y-111200309D02*
X97659571Y-111200309D01*
X97659571Y-111200309D02*
X97611952Y-111176500D01*
X97611952Y-111176500D02*
X97588143Y-111152690D01*
%TO.C,TP3*%
X91250048Y-125052309D02*
X91535762Y-125052309D01*
X91392905Y-125552309D02*
X91392905Y-125052309D01*
X91702428Y-125552309D02*
X91702428Y-125052309D01*
X91702428Y-125052309D02*
X91892904Y-125052309D01*
X91892904Y-125052309D02*
X91940523Y-125076119D01*
X91940523Y-125076119D02*
X91964333Y-125099928D01*
X91964333Y-125099928D02*
X91988142Y-125147547D01*
X91988142Y-125147547D02*
X91988142Y-125218976D01*
X91988142Y-125218976D02*
X91964333Y-125266595D01*
X91964333Y-125266595D02*
X91940523Y-125290404D01*
X91940523Y-125290404D02*
X91892904Y-125314214D01*
X91892904Y-125314214D02*
X91702428Y-125314214D01*
X92154809Y-125052309D02*
X92464333Y-125052309D01*
X92464333Y-125052309D02*
X92297666Y-125242785D01*
X92297666Y-125242785D02*
X92369095Y-125242785D01*
X92369095Y-125242785D02*
X92416714Y-125266595D01*
X92416714Y-125266595D02*
X92440523Y-125290404D01*
X92440523Y-125290404D02*
X92464333Y-125338023D01*
X92464333Y-125338023D02*
X92464333Y-125457071D01*
X92464333Y-125457071D02*
X92440523Y-125504690D01*
X92440523Y-125504690D02*
X92416714Y-125528500D01*
X92416714Y-125528500D02*
X92369095Y-125552309D01*
X92369095Y-125552309D02*
X92226238Y-125552309D01*
X92226238Y-125552309D02*
X92178619Y-125528500D01*
X92178619Y-125528500D02*
X92154809Y-125504690D01*
%TO.C,C16*%
X70927190Y-116290428D02*
X70951000Y-116314237D01*
X70951000Y-116314237D02*
X70974809Y-116385666D01*
X70974809Y-116385666D02*
X70974809Y-116433285D01*
X70974809Y-116433285D02*
X70951000Y-116504713D01*
X70951000Y-116504713D02*
X70903380Y-116552332D01*
X70903380Y-116552332D02*
X70855761Y-116576142D01*
X70855761Y-116576142D02*
X70760523Y-116599951D01*
X70760523Y-116599951D02*
X70689095Y-116599951D01*
X70689095Y-116599951D02*
X70593857Y-116576142D01*
X70593857Y-116576142D02*
X70546238Y-116552332D01*
X70546238Y-116552332D02*
X70498619Y-116504713D01*
X70498619Y-116504713D02*
X70474809Y-116433285D01*
X70474809Y-116433285D02*
X70474809Y-116385666D01*
X70474809Y-116385666D02*
X70498619Y-116314237D01*
X70498619Y-116314237D02*
X70522428Y-116290428D01*
X70974809Y-115814237D02*
X70974809Y-116099951D01*
X70974809Y-115957094D02*
X70474809Y-115957094D01*
X70474809Y-115957094D02*
X70546238Y-116004713D01*
X70546238Y-116004713D02*
X70593857Y-116052332D01*
X70593857Y-116052332D02*
X70617666Y-116099951D01*
X70474809Y-115385666D02*
X70474809Y-115480904D01*
X70474809Y-115480904D02*
X70498619Y-115528523D01*
X70498619Y-115528523D02*
X70522428Y-115552333D01*
X70522428Y-115552333D02*
X70593857Y-115599952D01*
X70593857Y-115599952D02*
X70689095Y-115623761D01*
X70689095Y-115623761D02*
X70879571Y-115623761D01*
X70879571Y-115623761D02*
X70927190Y-115599952D01*
X70927190Y-115599952D02*
X70951000Y-115576142D01*
X70951000Y-115576142D02*
X70974809Y-115528523D01*
X70974809Y-115528523D02*
X70974809Y-115433285D01*
X70974809Y-115433285D02*
X70951000Y-115385666D01*
X70951000Y-115385666D02*
X70927190Y-115361857D01*
X70927190Y-115361857D02*
X70879571Y-115338047D01*
X70879571Y-115338047D02*
X70760523Y-115338047D01*
X70760523Y-115338047D02*
X70712904Y-115361857D01*
X70712904Y-115361857D02*
X70689095Y-115385666D01*
X70689095Y-115385666D02*
X70665285Y-115433285D01*
X70665285Y-115433285D02*
X70665285Y-115528523D01*
X70665285Y-115528523D02*
X70689095Y-115576142D01*
X70689095Y-115576142D02*
X70712904Y-115599952D01*
X70712904Y-115599952D02*
X70760523Y-115623761D01*
%TO.C,U3*%
X90412309Y-101749952D02*
X90817071Y-101749952D01*
X90817071Y-101749952D02*
X90864690Y-101726142D01*
X90864690Y-101726142D02*
X90888500Y-101702333D01*
X90888500Y-101702333D02*
X90912309Y-101654714D01*
X90912309Y-101654714D02*
X90912309Y-101559476D01*
X90912309Y-101559476D02*
X90888500Y-101511857D01*
X90888500Y-101511857D02*
X90864690Y-101488047D01*
X90864690Y-101488047D02*
X90817071Y-101464238D01*
X90817071Y-101464238D02*
X90412309Y-101464238D01*
X90412309Y-101273761D02*
X90412309Y-100964237D01*
X90412309Y-100964237D02*
X90602785Y-101130904D01*
X90602785Y-101130904D02*
X90602785Y-101059475D01*
X90602785Y-101059475D02*
X90626595Y-101011856D01*
X90626595Y-101011856D02*
X90650404Y-100988047D01*
X90650404Y-100988047D02*
X90698023Y-100964237D01*
X90698023Y-100964237D02*
X90817071Y-100964237D01*
X90817071Y-100964237D02*
X90864690Y-100988047D01*
X90864690Y-100988047D02*
X90888500Y-101011856D01*
X90888500Y-101011856D02*
X90912309Y-101059475D01*
X90912309Y-101059475D02*
X90912309Y-101202332D01*
X90912309Y-101202332D02*
X90888500Y-101249951D01*
X90888500Y-101249951D02*
X90864690Y-101273761D01*
%TO.C,D9*%
X98021309Y-104636047D02*
X97521309Y-104636047D01*
X97521309Y-104636047D02*
X97521309Y-104516999D01*
X97521309Y-104516999D02*
X97545119Y-104445571D01*
X97545119Y-104445571D02*
X97592738Y-104397952D01*
X97592738Y-104397952D02*
X97640357Y-104374142D01*
X97640357Y-104374142D02*
X97735595Y-104350333D01*
X97735595Y-104350333D02*
X97807023Y-104350333D01*
X97807023Y-104350333D02*
X97902261Y-104374142D01*
X97902261Y-104374142D02*
X97949880Y-104397952D01*
X97949880Y-104397952D02*
X97997500Y-104445571D01*
X97997500Y-104445571D02*
X98021309Y-104516999D01*
X98021309Y-104516999D02*
X98021309Y-104636047D01*
X98021309Y-104112237D02*
X98021309Y-104016999D01*
X98021309Y-104016999D02*
X97997500Y-103969380D01*
X97997500Y-103969380D02*
X97973690Y-103945571D01*
X97973690Y-103945571D02*
X97902261Y-103897952D01*
X97902261Y-103897952D02*
X97807023Y-103874142D01*
X97807023Y-103874142D02*
X97616547Y-103874142D01*
X97616547Y-103874142D02*
X97568928Y-103897952D01*
X97568928Y-103897952D02*
X97545119Y-103921761D01*
X97545119Y-103921761D02*
X97521309Y-103969380D01*
X97521309Y-103969380D02*
X97521309Y-104064618D01*
X97521309Y-104064618D02*
X97545119Y-104112237D01*
X97545119Y-104112237D02*
X97568928Y-104136047D01*
X97568928Y-104136047D02*
X97616547Y-104159856D01*
X97616547Y-104159856D02*
X97735595Y-104159856D01*
X97735595Y-104159856D02*
X97783214Y-104136047D01*
X97783214Y-104136047D02*
X97807023Y-104112237D01*
X97807023Y-104112237D02*
X97830833Y-104064618D01*
X97830833Y-104064618D02*
X97830833Y-103969380D01*
X97830833Y-103969380D02*
X97807023Y-103921761D01*
X97807023Y-103921761D02*
X97783214Y-103897952D01*
X97783214Y-103897952D02*
X97735595Y-103874142D01*
%TO.C,C17*%
X69964690Y-115790428D02*
X69988500Y-115814237D01*
X69988500Y-115814237D02*
X70012309Y-115885666D01*
X70012309Y-115885666D02*
X70012309Y-115933285D01*
X70012309Y-115933285D02*
X69988500Y-116004713D01*
X69988500Y-116004713D02*
X69940880Y-116052332D01*
X69940880Y-116052332D02*
X69893261Y-116076142D01*
X69893261Y-116076142D02*
X69798023Y-116099951D01*
X69798023Y-116099951D02*
X69726595Y-116099951D01*
X69726595Y-116099951D02*
X69631357Y-116076142D01*
X69631357Y-116076142D02*
X69583738Y-116052332D01*
X69583738Y-116052332D02*
X69536119Y-116004713D01*
X69536119Y-116004713D02*
X69512309Y-115933285D01*
X69512309Y-115933285D02*
X69512309Y-115885666D01*
X69512309Y-115885666D02*
X69536119Y-115814237D01*
X69536119Y-115814237D02*
X69559928Y-115790428D01*
X70012309Y-115314237D02*
X70012309Y-115599951D01*
X70012309Y-115457094D02*
X69512309Y-115457094D01*
X69512309Y-115457094D02*
X69583738Y-115504713D01*
X69583738Y-115504713D02*
X69631357Y-115552332D01*
X69631357Y-115552332D02*
X69655166Y-115599951D01*
X69512309Y-115147571D02*
X69512309Y-114814238D01*
X69512309Y-114814238D02*
X70012309Y-115028523D01*
%TO.C,D3*%
X85200047Y-114000309D02*
X85200047Y-113500309D01*
X85200047Y-113500309D02*
X85319095Y-113500309D01*
X85319095Y-113500309D02*
X85390523Y-113524119D01*
X85390523Y-113524119D02*
X85438142Y-113571738D01*
X85438142Y-113571738D02*
X85461952Y-113619357D01*
X85461952Y-113619357D02*
X85485761Y-113714595D01*
X85485761Y-113714595D02*
X85485761Y-113786023D01*
X85485761Y-113786023D02*
X85461952Y-113881261D01*
X85461952Y-113881261D02*
X85438142Y-113928880D01*
X85438142Y-113928880D02*
X85390523Y-113976500D01*
X85390523Y-113976500D02*
X85319095Y-114000309D01*
X85319095Y-114000309D02*
X85200047Y-114000309D01*
X85652428Y-113500309D02*
X85961952Y-113500309D01*
X85961952Y-113500309D02*
X85795285Y-113690785D01*
X85795285Y-113690785D02*
X85866714Y-113690785D01*
X85866714Y-113690785D02*
X85914333Y-113714595D01*
X85914333Y-113714595D02*
X85938142Y-113738404D01*
X85938142Y-113738404D02*
X85961952Y-113786023D01*
X85961952Y-113786023D02*
X85961952Y-113905071D01*
X85961952Y-113905071D02*
X85938142Y-113952690D01*
X85938142Y-113952690D02*
X85914333Y-113976500D01*
X85914333Y-113976500D02*
X85866714Y-114000309D01*
X85866714Y-114000309D02*
X85723857Y-114000309D01*
X85723857Y-114000309D02*
X85676238Y-113976500D01*
X85676238Y-113976500D02*
X85652428Y-113952690D01*
%TO.C,U2*%
X78612309Y-102249952D02*
X79017071Y-102249952D01*
X79017071Y-102249952D02*
X79064690Y-102226142D01*
X79064690Y-102226142D02*
X79088500Y-102202333D01*
X79088500Y-102202333D02*
X79112309Y-102154714D01*
X79112309Y-102154714D02*
X79112309Y-102059476D01*
X79112309Y-102059476D02*
X79088500Y-102011857D01*
X79088500Y-102011857D02*
X79064690Y-101988047D01*
X79064690Y-101988047D02*
X79017071Y-101964238D01*
X79017071Y-101964238D02*
X78612309Y-101964238D01*
X78659928Y-101749951D02*
X78636119Y-101726142D01*
X78636119Y-101726142D02*
X78612309Y-101678523D01*
X78612309Y-101678523D02*
X78612309Y-101559475D01*
X78612309Y-101559475D02*
X78636119Y-101511856D01*
X78636119Y-101511856D02*
X78659928Y-101488047D01*
X78659928Y-101488047D02*
X78707547Y-101464237D01*
X78707547Y-101464237D02*
X78755166Y-101464237D01*
X78755166Y-101464237D02*
X78826595Y-101488047D01*
X78826595Y-101488047D02*
X79112309Y-101773761D01*
X79112309Y-101773761D02*
X79112309Y-101464237D01*
%TO.C,R2*%
X88943666Y-91798309D02*
X88777000Y-91560214D01*
X88657952Y-91798309D02*
X88657952Y-91298309D01*
X88657952Y-91298309D02*
X88848428Y-91298309D01*
X88848428Y-91298309D02*
X88896047Y-91322119D01*
X88896047Y-91322119D02*
X88919857Y-91345928D01*
X88919857Y-91345928D02*
X88943666Y-91393547D01*
X88943666Y-91393547D02*
X88943666Y-91464976D01*
X88943666Y-91464976D02*
X88919857Y-91512595D01*
X88919857Y-91512595D02*
X88896047Y-91536404D01*
X88896047Y-91536404D02*
X88848428Y-91560214D01*
X88848428Y-91560214D02*
X88657952Y-91560214D01*
X89134143Y-91345928D02*
X89157952Y-91322119D01*
X89157952Y-91322119D02*
X89205571Y-91298309D01*
X89205571Y-91298309D02*
X89324619Y-91298309D01*
X89324619Y-91298309D02*
X89372238Y-91322119D01*
X89372238Y-91322119D02*
X89396047Y-91345928D01*
X89396047Y-91345928D02*
X89419857Y-91393547D01*
X89419857Y-91393547D02*
X89419857Y-91441166D01*
X89419857Y-91441166D02*
X89396047Y-91512595D01*
X89396047Y-91512595D02*
X89110333Y-91798309D01*
X89110333Y-91798309D02*
X89419857Y-91798309D01*
%TO.C,U4*%
X92440710Y-116844309D02*
X92440710Y-117249071D01*
X92440710Y-117249071D02*
X92464520Y-117296690D01*
X92464520Y-117296690D02*
X92488329Y-117320500D01*
X92488329Y-117320500D02*
X92535948Y-117344309D01*
X92535948Y-117344309D02*
X92631186Y-117344309D01*
X92631186Y-117344309D02*
X92678805Y-117320500D01*
X92678805Y-117320500D02*
X92702615Y-117296690D01*
X92702615Y-117296690D02*
X92726424Y-117249071D01*
X92726424Y-117249071D02*
X92726424Y-116844309D01*
X93178806Y-117010976D02*
X93178806Y-117344309D01*
X93059758Y-116820500D02*
X92940711Y-117177642D01*
X92940711Y-117177642D02*
X93250234Y-117177642D01*
%TO.C,D4*%
X93911952Y-116020309D02*
X93911952Y-115520309D01*
X93911952Y-115520309D02*
X94031000Y-115520309D01*
X94031000Y-115520309D02*
X94102428Y-115544119D01*
X94102428Y-115544119D02*
X94150047Y-115591738D01*
X94150047Y-115591738D02*
X94173857Y-115639357D01*
X94173857Y-115639357D02*
X94197666Y-115734595D01*
X94197666Y-115734595D02*
X94197666Y-115806023D01*
X94197666Y-115806023D02*
X94173857Y-115901261D01*
X94173857Y-115901261D02*
X94150047Y-115948880D01*
X94150047Y-115948880D02*
X94102428Y-115996500D01*
X94102428Y-115996500D02*
X94031000Y-116020309D01*
X94031000Y-116020309D02*
X93911952Y-116020309D01*
X94626238Y-115686976D02*
X94626238Y-116020309D01*
X94507190Y-115496500D02*
X94388143Y-115853642D01*
X94388143Y-115853642D02*
X94697666Y-115853642D01*
%TO.C,R12*%
X80759571Y-122135809D02*
X80592905Y-121897714D01*
X80473857Y-122135809D02*
X80473857Y-121635809D01*
X80473857Y-121635809D02*
X80664333Y-121635809D01*
X80664333Y-121635809D02*
X80711952Y-121659619D01*
X80711952Y-121659619D02*
X80735762Y-121683428D01*
X80735762Y-121683428D02*
X80759571Y-121731047D01*
X80759571Y-121731047D02*
X80759571Y-121802476D01*
X80759571Y-121802476D02*
X80735762Y-121850095D01*
X80735762Y-121850095D02*
X80711952Y-121873904D01*
X80711952Y-121873904D02*
X80664333Y-121897714D01*
X80664333Y-121897714D02*
X80473857Y-121897714D01*
X81235762Y-122135809D02*
X80950048Y-122135809D01*
X81092905Y-122135809D02*
X81092905Y-121635809D01*
X81092905Y-121635809D02*
X81045286Y-121707238D01*
X81045286Y-121707238D02*
X80997667Y-121754857D01*
X80997667Y-121754857D02*
X80950048Y-121778666D01*
X81426238Y-121683428D02*
X81450047Y-121659619D01*
X81450047Y-121659619D02*
X81497666Y-121635809D01*
X81497666Y-121635809D02*
X81616714Y-121635809D01*
X81616714Y-121635809D02*
X81664333Y-121659619D01*
X81664333Y-121659619D02*
X81688142Y-121683428D01*
X81688142Y-121683428D02*
X81711952Y-121731047D01*
X81711952Y-121731047D02*
X81711952Y-121778666D01*
X81711952Y-121778666D02*
X81688142Y-121850095D01*
X81688142Y-121850095D02*
X81402428Y-122135809D01*
X81402428Y-122135809D02*
X81711952Y-122135809D01*
%TO.C,U10*%
X74612309Y-116588047D02*
X75017071Y-116588047D01*
X75017071Y-116588047D02*
X75064690Y-116564237D01*
X75064690Y-116564237D02*
X75088500Y-116540428D01*
X75088500Y-116540428D02*
X75112309Y-116492809D01*
X75112309Y-116492809D02*
X75112309Y-116397571D01*
X75112309Y-116397571D02*
X75088500Y-116349952D01*
X75088500Y-116349952D02*
X75064690Y-116326142D01*
X75064690Y-116326142D02*
X75017071Y-116302333D01*
X75017071Y-116302333D02*
X74612309Y-116302333D01*
X75112309Y-115802332D02*
X75112309Y-116088046D01*
X75112309Y-115945189D02*
X74612309Y-115945189D01*
X74612309Y-115945189D02*
X74683738Y-115992808D01*
X74683738Y-115992808D02*
X74731357Y-116040427D01*
X74731357Y-116040427D02*
X74755166Y-116088046D01*
X74612309Y-115492809D02*
X74612309Y-115445190D01*
X74612309Y-115445190D02*
X74636119Y-115397571D01*
X74636119Y-115397571D02*
X74659928Y-115373761D01*
X74659928Y-115373761D02*
X74707547Y-115349952D01*
X74707547Y-115349952D02*
X74802785Y-115326142D01*
X74802785Y-115326142D02*
X74921833Y-115326142D01*
X74921833Y-115326142D02*
X75017071Y-115349952D01*
X75017071Y-115349952D02*
X75064690Y-115373761D01*
X75064690Y-115373761D02*
X75088500Y-115397571D01*
X75088500Y-115397571D02*
X75112309Y-115445190D01*
X75112309Y-115445190D02*
X75112309Y-115492809D01*
X75112309Y-115492809D02*
X75088500Y-115540428D01*
X75088500Y-115540428D02*
X75064690Y-115564237D01*
X75064690Y-115564237D02*
X75017071Y-115588047D01*
X75017071Y-115588047D02*
X74921833Y-115611856D01*
X74921833Y-115611856D02*
X74802785Y-115611856D01*
X74802785Y-115611856D02*
X74707547Y-115588047D01*
X74707547Y-115588047D02*
X74659928Y-115564237D01*
X74659928Y-115564237D02*
X74636119Y-115540428D01*
X74636119Y-115540428D02*
X74612309Y-115492809D01*
%TO.C,C11*%
X100959571Y-122752690D02*
X100935762Y-122776500D01*
X100935762Y-122776500D02*
X100864333Y-122800309D01*
X100864333Y-122800309D02*
X100816714Y-122800309D01*
X100816714Y-122800309D02*
X100745286Y-122776500D01*
X100745286Y-122776500D02*
X100697667Y-122728880D01*
X100697667Y-122728880D02*
X100673857Y-122681261D01*
X100673857Y-122681261D02*
X100650048Y-122586023D01*
X100650048Y-122586023D02*
X100650048Y-122514595D01*
X100650048Y-122514595D02*
X100673857Y-122419357D01*
X100673857Y-122419357D02*
X100697667Y-122371738D01*
X100697667Y-122371738D02*
X100745286Y-122324119D01*
X100745286Y-122324119D02*
X100816714Y-122300309D01*
X100816714Y-122300309D02*
X100864333Y-122300309D01*
X100864333Y-122300309D02*
X100935762Y-122324119D01*
X100935762Y-122324119D02*
X100959571Y-122347928D01*
X101435762Y-122800309D02*
X101150048Y-122800309D01*
X101292905Y-122800309D02*
X101292905Y-122300309D01*
X101292905Y-122300309D02*
X101245286Y-122371738D01*
X101245286Y-122371738D02*
X101197667Y-122419357D01*
X101197667Y-122419357D02*
X101150048Y-122443166D01*
X101911952Y-122800309D02*
X101626238Y-122800309D01*
X101769095Y-122800309D02*
X101769095Y-122300309D01*
X101769095Y-122300309D02*
X101721476Y-122371738D01*
X101721476Y-122371738D02*
X101673857Y-122419357D01*
X101673857Y-122419357D02*
X101626238Y-122443166D01*
%TO.C,C6*%
X84797666Y-92952690D02*
X84773857Y-92976500D01*
X84773857Y-92976500D02*
X84702428Y-93000309D01*
X84702428Y-93000309D02*
X84654809Y-93000309D01*
X84654809Y-93000309D02*
X84583381Y-92976500D01*
X84583381Y-92976500D02*
X84535762Y-92928880D01*
X84535762Y-92928880D02*
X84511952Y-92881261D01*
X84511952Y-92881261D02*
X84488143Y-92786023D01*
X84488143Y-92786023D02*
X84488143Y-92714595D01*
X84488143Y-92714595D02*
X84511952Y-92619357D01*
X84511952Y-92619357D02*
X84535762Y-92571738D01*
X84535762Y-92571738D02*
X84583381Y-92524119D01*
X84583381Y-92524119D02*
X84654809Y-92500309D01*
X84654809Y-92500309D02*
X84702428Y-92500309D01*
X84702428Y-92500309D02*
X84773857Y-92524119D01*
X84773857Y-92524119D02*
X84797666Y-92547928D01*
X85226238Y-92500309D02*
X85131000Y-92500309D01*
X85131000Y-92500309D02*
X85083381Y-92524119D01*
X85083381Y-92524119D02*
X85059571Y-92547928D01*
X85059571Y-92547928D02*
X85011952Y-92619357D01*
X85011952Y-92619357D02*
X84988143Y-92714595D01*
X84988143Y-92714595D02*
X84988143Y-92905071D01*
X84988143Y-92905071D02*
X85011952Y-92952690D01*
X85011952Y-92952690D02*
X85035762Y-92976500D01*
X85035762Y-92976500D02*
X85083381Y-93000309D01*
X85083381Y-93000309D02*
X85178619Y-93000309D01*
X85178619Y-93000309D02*
X85226238Y-92976500D01*
X85226238Y-92976500D02*
X85250047Y-92952690D01*
X85250047Y-92952690D02*
X85273857Y-92905071D01*
X85273857Y-92905071D02*
X85273857Y-92786023D01*
X85273857Y-92786023D02*
X85250047Y-92738404D01*
X85250047Y-92738404D02*
X85226238Y-92714595D01*
X85226238Y-92714595D02*
X85178619Y-92690785D01*
X85178619Y-92690785D02*
X85083381Y-92690785D01*
X85083381Y-92690785D02*
X85035762Y-92714595D01*
X85035762Y-92714595D02*
X85011952Y-92738404D01*
X85011952Y-92738404D02*
X84988143Y-92786023D01*
%TO.C,U9*%
X92314309Y-88645952D02*
X92719071Y-88645952D01*
X92719071Y-88645952D02*
X92766690Y-88622142D01*
X92766690Y-88622142D02*
X92790500Y-88598333D01*
X92790500Y-88598333D02*
X92814309Y-88550714D01*
X92814309Y-88550714D02*
X92814309Y-88455476D01*
X92814309Y-88455476D02*
X92790500Y-88407857D01*
X92790500Y-88407857D02*
X92766690Y-88384047D01*
X92766690Y-88384047D02*
X92719071Y-88360238D01*
X92719071Y-88360238D02*
X92314309Y-88360238D01*
X92814309Y-88098332D02*
X92814309Y-88003094D01*
X92814309Y-88003094D02*
X92790500Y-87955475D01*
X92790500Y-87955475D02*
X92766690Y-87931666D01*
X92766690Y-87931666D02*
X92695261Y-87884047D01*
X92695261Y-87884047D02*
X92600023Y-87860237D01*
X92600023Y-87860237D02*
X92409547Y-87860237D01*
X92409547Y-87860237D02*
X92361928Y-87884047D01*
X92361928Y-87884047D02*
X92338119Y-87907856D01*
X92338119Y-87907856D02*
X92314309Y-87955475D01*
X92314309Y-87955475D02*
X92314309Y-88050713D01*
X92314309Y-88050713D02*
X92338119Y-88098332D01*
X92338119Y-88098332D02*
X92361928Y-88122142D01*
X92361928Y-88122142D02*
X92409547Y-88145951D01*
X92409547Y-88145951D02*
X92528595Y-88145951D01*
X92528595Y-88145951D02*
X92576214Y-88122142D01*
X92576214Y-88122142D02*
X92600023Y-88098332D01*
X92600023Y-88098332D02*
X92623833Y-88050713D01*
X92623833Y-88050713D02*
X92623833Y-87955475D01*
X92623833Y-87955475D02*
X92600023Y-87907856D01*
X92600023Y-87907856D02*
X92576214Y-87884047D01*
X92576214Y-87884047D02*
X92528595Y-87860237D01*
%TO.C,R14*%
X102312309Y-118490428D02*
X102074214Y-118657094D01*
X102312309Y-118776142D02*
X101812309Y-118776142D01*
X101812309Y-118776142D02*
X101812309Y-118585666D01*
X101812309Y-118585666D02*
X101836119Y-118538047D01*
X101836119Y-118538047D02*
X101859928Y-118514237D01*
X101859928Y-118514237D02*
X101907547Y-118490428D01*
X101907547Y-118490428D02*
X101978976Y-118490428D01*
X101978976Y-118490428D02*
X102026595Y-118514237D01*
X102026595Y-118514237D02*
X102050404Y-118538047D01*
X102050404Y-118538047D02*
X102074214Y-118585666D01*
X102074214Y-118585666D02*
X102074214Y-118776142D01*
X102312309Y-118014237D02*
X102312309Y-118299951D01*
X102312309Y-118157094D02*
X101812309Y-118157094D01*
X101812309Y-118157094D02*
X101883738Y-118204713D01*
X101883738Y-118204713D02*
X101931357Y-118252332D01*
X101931357Y-118252332D02*
X101955166Y-118299951D01*
X101978976Y-117585666D02*
X102312309Y-117585666D01*
X101788500Y-117704714D02*
X102145642Y-117823761D01*
X102145642Y-117823761D02*
X102145642Y-117514238D01*
%TO.C,R5*%
X82282309Y-94939833D02*
X82044214Y-95106499D01*
X82282309Y-95225547D02*
X81782309Y-95225547D01*
X81782309Y-95225547D02*
X81782309Y-95035071D01*
X81782309Y-95035071D02*
X81806119Y-94987452D01*
X81806119Y-94987452D02*
X81829928Y-94963642D01*
X81829928Y-94963642D02*
X81877547Y-94939833D01*
X81877547Y-94939833D02*
X81948976Y-94939833D01*
X81948976Y-94939833D02*
X81996595Y-94963642D01*
X81996595Y-94963642D02*
X82020404Y-94987452D01*
X82020404Y-94987452D02*
X82044214Y-95035071D01*
X82044214Y-95035071D02*
X82044214Y-95225547D01*
X81782309Y-94487452D02*
X81782309Y-94725547D01*
X81782309Y-94725547D02*
X82020404Y-94749356D01*
X82020404Y-94749356D02*
X81996595Y-94725547D01*
X81996595Y-94725547D02*
X81972785Y-94677928D01*
X81972785Y-94677928D02*
X81972785Y-94558880D01*
X81972785Y-94558880D02*
X81996595Y-94511261D01*
X81996595Y-94511261D02*
X82020404Y-94487452D01*
X82020404Y-94487452D02*
X82068023Y-94463642D01*
X82068023Y-94463642D02*
X82187071Y-94463642D01*
X82187071Y-94463642D02*
X82234690Y-94487452D01*
X82234690Y-94487452D02*
X82258500Y-94511261D01*
X82258500Y-94511261D02*
X82282309Y-94558880D01*
X82282309Y-94558880D02*
X82282309Y-94677928D01*
X82282309Y-94677928D02*
X82258500Y-94725547D01*
X82258500Y-94725547D02*
X82234690Y-94749356D01*
%TO.C,R28*%
X85759571Y-99800309D02*
X85592905Y-99562214D01*
X85473857Y-99800309D02*
X85473857Y-99300309D01*
X85473857Y-99300309D02*
X85664333Y-99300309D01*
X85664333Y-99300309D02*
X85711952Y-99324119D01*
X85711952Y-99324119D02*
X85735762Y-99347928D01*
X85735762Y-99347928D02*
X85759571Y-99395547D01*
X85759571Y-99395547D02*
X85759571Y-99466976D01*
X85759571Y-99466976D02*
X85735762Y-99514595D01*
X85735762Y-99514595D02*
X85711952Y-99538404D01*
X85711952Y-99538404D02*
X85664333Y-99562214D01*
X85664333Y-99562214D02*
X85473857Y-99562214D01*
X85950048Y-99347928D02*
X85973857Y-99324119D01*
X85973857Y-99324119D02*
X86021476Y-99300309D01*
X86021476Y-99300309D02*
X86140524Y-99300309D01*
X86140524Y-99300309D02*
X86188143Y-99324119D01*
X86188143Y-99324119D02*
X86211952Y-99347928D01*
X86211952Y-99347928D02*
X86235762Y-99395547D01*
X86235762Y-99395547D02*
X86235762Y-99443166D01*
X86235762Y-99443166D02*
X86211952Y-99514595D01*
X86211952Y-99514595D02*
X85926238Y-99800309D01*
X85926238Y-99800309D02*
X86235762Y-99800309D01*
X86521476Y-99514595D02*
X86473857Y-99490785D01*
X86473857Y-99490785D02*
X86450047Y-99466976D01*
X86450047Y-99466976D02*
X86426238Y-99419357D01*
X86426238Y-99419357D02*
X86426238Y-99395547D01*
X86426238Y-99395547D02*
X86450047Y-99347928D01*
X86450047Y-99347928D02*
X86473857Y-99324119D01*
X86473857Y-99324119D02*
X86521476Y-99300309D01*
X86521476Y-99300309D02*
X86616714Y-99300309D01*
X86616714Y-99300309D02*
X86664333Y-99324119D01*
X86664333Y-99324119D02*
X86688142Y-99347928D01*
X86688142Y-99347928D02*
X86711952Y-99395547D01*
X86711952Y-99395547D02*
X86711952Y-99419357D01*
X86711952Y-99419357D02*
X86688142Y-99466976D01*
X86688142Y-99466976D02*
X86664333Y-99490785D01*
X86664333Y-99490785D02*
X86616714Y-99514595D01*
X86616714Y-99514595D02*
X86521476Y-99514595D01*
X86521476Y-99514595D02*
X86473857Y-99538404D01*
X86473857Y-99538404D02*
X86450047Y-99562214D01*
X86450047Y-99562214D02*
X86426238Y-99609833D01*
X86426238Y-99609833D02*
X86426238Y-99705071D01*
X86426238Y-99705071D02*
X86450047Y-99752690D01*
X86450047Y-99752690D02*
X86473857Y-99776500D01*
X86473857Y-99776500D02*
X86521476Y-99800309D01*
X86521476Y-99800309D02*
X86616714Y-99800309D01*
X86616714Y-99800309D02*
X86664333Y-99776500D01*
X86664333Y-99776500D02*
X86688142Y-99752690D01*
X86688142Y-99752690D02*
X86711952Y-99705071D01*
X86711952Y-99705071D02*
X86711952Y-99609833D01*
X86711952Y-99609833D02*
X86688142Y-99562214D01*
X86688142Y-99562214D02*
X86664333Y-99538404D01*
X86664333Y-99538404D02*
X86616714Y-99514595D01*
%TO.C,R8*%
X78797666Y-106530309D02*
X78631000Y-106292214D01*
X78511952Y-106530309D02*
X78511952Y-106030309D01*
X78511952Y-106030309D02*
X78702428Y-106030309D01*
X78702428Y-106030309D02*
X78750047Y-106054119D01*
X78750047Y-106054119D02*
X78773857Y-106077928D01*
X78773857Y-106077928D02*
X78797666Y-106125547D01*
X78797666Y-106125547D02*
X78797666Y-106196976D01*
X78797666Y-106196976D02*
X78773857Y-106244595D01*
X78773857Y-106244595D02*
X78750047Y-106268404D01*
X78750047Y-106268404D02*
X78702428Y-106292214D01*
X78702428Y-106292214D02*
X78511952Y-106292214D01*
X79083381Y-106244595D02*
X79035762Y-106220785D01*
X79035762Y-106220785D02*
X79011952Y-106196976D01*
X79011952Y-106196976D02*
X78988143Y-106149357D01*
X78988143Y-106149357D02*
X78988143Y-106125547D01*
X78988143Y-106125547D02*
X79011952Y-106077928D01*
X79011952Y-106077928D02*
X79035762Y-106054119D01*
X79035762Y-106054119D02*
X79083381Y-106030309D01*
X79083381Y-106030309D02*
X79178619Y-106030309D01*
X79178619Y-106030309D02*
X79226238Y-106054119D01*
X79226238Y-106054119D02*
X79250047Y-106077928D01*
X79250047Y-106077928D02*
X79273857Y-106125547D01*
X79273857Y-106125547D02*
X79273857Y-106149357D01*
X79273857Y-106149357D02*
X79250047Y-106196976D01*
X79250047Y-106196976D02*
X79226238Y-106220785D01*
X79226238Y-106220785D02*
X79178619Y-106244595D01*
X79178619Y-106244595D02*
X79083381Y-106244595D01*
X79083381Y-106244595D02*
X79035762Y-106268404D01*
X79035762Y-106268404D02*
X79011952Y-106292214D01*
X79011952Y-106292214D02*
X78988143Y-106339833D01*
X78988143Y-106339833D02*
X78988143Y-106435071D01*
X78988143Y-106435071D02*
X79011952Y-106482690D01*
X79011952Y-106482690D02*
X79035762Y-106506500D01*
X79035762Y-106506500D02*
X79083381Y-106530309D01*
X79083381Y-106530309D02*
X79178619Y-106530309D01*
X79178619Y-106530309D02*
X79226238Y-106506500D01*
X79226238Y-106506500D02*
X79250047Y-106482690D01*
X79250047Y-106482690D02*
X79273857Y-106435071D01*
X79273857Y-106435071D02*
X79273857Y-106339833D01*
X79273857Y-106339833D02*
X79250047Y-106292214D01*
X79250047Y-106292214D02*
X79226238Y-106268404D01*
X79226238Y-106268404D02*
X79178619Y-106244595D01*
%TO.C,C10*%
X69864690Y-100090428D02*
X69888500Y-100114237D01*
X69888500Y-100114237D02*
X69912309Y-100185666D01*
X69912309Y-100185666D02*
X69912309Y-100233285D01*
X69912309Y-100233285D02*
X69888500Y-100304713D01*
X69888500Y-100304713D02*
X69840880Y-100352332D01*
X69840880Y-100352332D02*
X69793261Y-100376142D01*
X69793261Y-100376142D02*
X69698023Y-100399951D01*
X69698023Y-100399951D02*
X69626595Y-100399951D01*
X69626595Y-100399951D02*
X69531357Y-100376142D01*
X69531357Y-100376142D02*
X69483738Y-100352332D01*
X69483738Y-100352332D02*
X69436119Y-100304713D01*
X69436119Y-100304713D02*
X69412309Y-100233285D01*
X69412309Y-100233285D02*
X69412309Y-100185666D01*
X69412309Y-100185666D02*
X69436119Y-100114237D01*
X69436119Y-100114237D02*
X69459928Y-100090428D01*
X69912309Y-99614237D02*
X69912309Y-99899951D01*
X69912309Y-99757094D02*
X69412309Y-99757094D01*
X69412309Y-99757094D02*
X69483738Y-99804713D01*
X69483738Y-99804713D02*
X69531357Y-99852332D01*
X69531357Y-99852332D02*
X69555166Y-99899951D01*
X69412309Y-99304714D02*
X69412309Y-99257095D01*
X69412309Y-99257095D02*
X69436119Y-99209476D01*
X69436119Y-99209476D02*
X69459928Y-99185666D01*
X69459928Y-99185666D02*
X69507547Y-99161857D01*
X69507547Y-99161857D02*
X69602785Y-99138047D01*
X69602785Y-99138047D02*
X69721833Y-99138047D01*
X69721833Y-99138047D02*
X69817071Y-99161857D01*
X69817071Y-99161857D02*
X69864690Y-99185666D01*
X69864690Y-99185666D02*
X69888500Y-99209476D01*
X69888500Y-99209476D02*
X69912309Y-99257095D01*
X69912309Y-99257095D02*
X69912309Y-99304714D01*
X69912309Y-99304714D02*
X69888500Y-99352333D01*
X69888500Y-99352333D02*
X69864690Y-99376142D01*
X69864690Y-99376142D02*
X69817071Y-99399952D01*
X69817071Y-99399952D02*
X69721833Y-99423761D01*
X69721833Y-99423761D02*
X69602785Y-99423761D01*
X69602785Y-99423761D02*
X69507547Y-99399952D01*
X69507547Y-99399952D02*
X69459928Y-99376142D01*
X69459928Y-99376142D02*
X69436119Y-99352333D01*
X69436119Y-99352333D02*
X69412309Y-99304714D01*
%TO.C,X1*%
X72529238Y-110617309D02*
X72862571Y-111117309D01*
X72862571Y-110617309D02*
X72529238Y-111117309D01*
X73314952Y-111117309D02*
X73029238Y-111117309D01*
X73172095Y-111117309D02*
X73172095Y-110617309D01*
X73172095Y-110617309D02*
X73124476Y-110688738D01*
X73124476Y-110688738D02*
X73076857Y-110736357D01*
X73076857Y-110736357D02*
X73029238Y-110760166D01*
%TO.C,R26*%
X101159571Y-112400309D02*
X100992905Y-112162214D01*
X100873857Y-112400309D02*
X100873857Y-111900309D01*
X100873857Y-111900309D02*
X101064333Y-111900309D01*
X101064333Y-111900309D02*
X101111952Y-111924119D01*
X101111952Y-111924119D02*
X101135762Y-111947928D01*
X101135762Y-111947928D02*
X101159571Y-111995547D01*
X101159571Y-111995547D02*
X101159571Y-112066976D01*
X101159571Y-112066976D02*
X101135762Y-112114595D01*
X101135762Y-112114595D02*
X101111952Y-112138404D01*
X101111952Y-112138404D02*
X101064333Y-112162214D01*
X101064333Y-112162214D02*
X100873857Y-112162214D01*
X101350048Y-111947928D02*
X101373857Y-111924119D01*
X101373857Y-111924119D02*
X101421476Y-111900309D01*
X101421476Y-111900309D02*
X101540524Y-111900309D01*
X101540524Y-111900309D02*
X101588143Y-111924119D01*
X101588143Y-111924119D02*
X101611952Y-111947928D01*
X101611952Y-111947928D02*
X101635762Y-111995547D01*
X101635762Y-111995547D02*
X101635762Y-112043166D01*
X101635762Y-112043166D02*
X101611952Y-112114595D01*
X101611952Y-112114595D02*
X101326238Y-112400309D01*
X101326238Y-112400309D02*
X101635762Y-112400309D01*
X102064333Y-111900309D02*
X101969095Y-111900309D01*
X101969095Y-111900309D02*
X101921476Y-111924119D01*
X101921476Y-111924119D02*
X101897666Y-111947928D01*
X101897666Y-111947928D02*
X101850047Y-112019357D01*
X101850047Y-112019357D02*
X101826238Y-112114595D01*
X101826238Y-112114595D02*
X101826238Y-112305071D01*
X101826238Y-112305071D02*
X101850047Y-112352690D01*
X101850047Y-112352690D02*
X101873857Y-112376500D01*
X101873857Y-112376500D02*
X101921476Y-112400309D01*
X101921476Y-112400309D02*
X102016714Y-112400309D01*
X102016714Y-112400309D02*
X102064333Y-112376500D01*
X102064333Y-112376500D02*
X102088142Y-112352690D01*
X102088142Y-112352690D02*
X102111952Y-112305071D01*
X102111952Y-112305071D02*
X102111952Y-112186023D01*
X102111952Y-112186023D02*
X102088142Y-112138404D01*
X102088142Y-112138404D02*
X102064333Y-112114595D01*
X102064333Y-112114595D02*
X102016714Y-112090785D01*
X102016714Y-112090785D02*
X101921476Y-112090785D01*
X101921476Y-112090785D02*
X101873857Y-112114595D01*
X101873857Y-112114595D02*
X101850047Y-112138404D01*
X101850047Y-112138404D02*
X101826238Y-112186023D01*
%TO.C,R18*%
X68512309Y-112690428D02*
X68274214Y-112857094D01*
X68512309Y-112976142D02*
X68012309Y-112976142D01*
X68012309Y-112976142D02*
X68012309Y-112785666D01*
X68012309Y-112785666D02*
X68036119Y-112738047D01*
X68036119Y-112738047D02*
X68059928Y-112714237D01*
X68059928Y-112714237D02*
X68107547Y-112690428D01*
X68107547Y-112690428D02*
X68178976Y-112690428D01*
X68178976Y-112690428D02*
X68226595Y-112714237D01*
X68226595Y-112714237D02*
X68250404Y-112738047D01*
X68250404Y-112738047D02*
X68274214Y-112785666D01*
X68274214Y-112785666D02*
X68274214Y-112976142D01*
X68512309Y-112214237D02*
X68512309Y-112499951D01*
X68512309Y-112357094D02*
X68012309Y-112357094D01*
X68012309Y-112357094D02*
X68083738Y-112404713D01*
X68083738Y-112404713D02*
X68131357Y-112452332D01*
X68131357Y-112452332D02*
X68155166Y-112499951D01*
X68226595Y-111928523D02*
X68202785Y-111976142D01*
X68202785Y-111976142D02*
X68178976Y-111999952D01*
X68178976Y-111999952D02*
X68131357Y-112023761D01*
X68131357Y-112023761D02*
X68107547Y-112023761D01*
X68107547Y-112023761D02*
X68059928Y-111999952D01*
X68059928Y-111999952D02*
X68036119Y-111976142D01*
X68036119Y-111976142D02*
X68012309Y-111928523D01*
X68012309Y-111928523D02*
X68012309Y-111833285D01*
X68012309Y-111833285D02*
X68036119Y-111785666D01*
X68036119Y-111785666D02*
X68059928Y-111761857D01*
X68059928Y-111761857D02*
X68107547Y-111738047D01*
X68107547Y-111738047D02*
X68131357Y-111738047D01*
X68131357Y-111738047D02*
X68178976Y-111761857D01*
X68178976Y-111761857D02*
X68202785Y-111785666D01*
X68202785Y-111785666D02*
X68226595Y-111833285D01*
X68226595Y-111833285D02*
X68226595Y-111928523D01*
X68226595Y-111928523D02*
X68250404Y-111976142D01*
X68250404Y-111976142D02*
X68274214Y-111999952D01*
X68274214Y-111999952D02*
X68321833Y-112023761D01*
X68321833Y-112023761D02*
X68417071Y-112023761D01*
X68417071Y-112023761D02*
X68464690Y-111999952D01*
X68464690Y-111999952D02*
X68488500Y-111976142D01*
X68488500Y-111976142D02*
X68512309Y-111928523D01*
X68512309Y-111928523D02*
X68512309Y-111833285D01*
X68512309Y-111833285D02*
X68488500Y-111785666D01*
X68488500Y-111785666D02*
X68464690Y-111761857D01*
X68464690Y-111761857D02*
X68417071Y-111738047D01*
X68417071Y-111738047D02*
X68321833Y-111738047D01*
X68321833Y-111738047D02*
X68274214Y-111761857D01*
X68274214Y-111761857D02*
X68250404Y-111785666D01*
X68250404Y-111785666D02*
X68226595Y-111833285D01*
%TO.C,C15*%
X100988690Y-124456428D02*
X101012500Y-124480237D01*
X101012500Y-124480237D02*
X101036309Y-124551666D01*
X101036309Y-124551666D02*
X101036309Y-124599285D01*
X101036309Y-124599285D02*
X101012500Y-124670713D01*
X101012500Y-124670713D02*
X100964880Y-124718332D01*
X100964880Y-124718332D02*
X100917261Y-124742142D01*
X100917261Y-124742142D02*
X100822023Y-124765951D01*
X100822023Y-124765951D02*
X100750595Y-124765951D01*
X100750595Y-124765951D02*
X100655357Y-124742142D01*
X100655357Y-124742142D02*
X100607738Y-124718332D01*
X100607738Y-124718332D02*
X100560119Y-124670713D01*
X100560119Y-124670713D02*
X100536309Y-124599285D01*
X100536309Y-124599285D02*
X100536309Y-124551666D01*
X100536309Y-124551666D02*
X100560119Y-124480237D01*
X100560119Y-124480237D02*
X100583928Y-124456428D01*
X101036309Y-123980237D02*
X101036309Y-124265951D01*
X101036309Y-124123094D02*
X100536309Y-124123094D01*
X100536309Y-124123094D02*
X100607738Y-124170713D01*
X100607738Y-124170713D02*
X100655357Y-124218332D01*
X100655357Y-124218332D02*
X100679166Y-124265951D01*
X100536309Y-123527857D02*
X100536309Y-123765952D01*
X100536309Y-123765952D02*
X100774404Y-123789761D01*
X100774404Y-123789761D02*
X100750595Y-123765952D01*
X100750595Y-123765952D02*
X100726785Y-123718333D01*
X100726785Y-123718333D02*
X100726785Y-123599285D01*
X100726785Y-123599285D02*
X100750595Y-123551666D01*
X100750595Y-123551666D02*
X100774404Y-123527857D01*
X100774404Y-123527857D02*
X100822023Y-123504047D01*
X100822023Y-123504047D02*
X100941071Y-123504047D01*
X100941071Y-123504047D02*
X100988690Y-123527857D01*
X100988690Y-123527857D02*
X101012500Y-123551666D01*
X101012500Y-123551666D02*
X101036309Y-123599285D01*
X101036309Y-123599285D02*
X101036309Y-123718333D01*
X101036309Y-123718333D02*
X101012500Y-123765952D01*
X101012500Y-123765952D02*
X100988690Y-123789761D01*
%TO.C,C8*%
X98597666Y-117152690D02*
X98573857Y-117176500D01*
X98573857Y-117176500D02*
X98502428Y-117200309D01*
X98502428Y-117200309D02*
X98454809Y-117200309D01*
X98454809Y-117200309D02*
X98383381Y-117176500D01*
X98383381Y-117176500D02*
X98335762Y-117128880D01*
X98335762Y-117128880D02*
X98311952Y-117081261D01*
X98311952Y-117081261D02*
X98288143Y-116986023D01*
X98288143Y-116986023D02*
X98288143Y-116914595D01*
X98288143Y-116914595D02*
X98311952Y-116819357D01*
X98311952Y-116819357D02*
X98335762Y-116771738D01*
X98335762Y-116771738D02*
X98383381Y-116724119D01*
X98383381Y-116724119D02*
X98454809Y-116700309D01*
X98454809Y-116700309D02*
X98502428Y-116700309D01*
X98502428Y-116700309D02*
X98573857Y-116724119D01*
X98573857Y-116724119D02*
X98597666Y-116747928D01*
X98883381Y-116914595D02*
X98835762Y-116890785D01*
X98835762Y-116890785D02*
X98811952Y-116866976D01*
X98811952Y-116866976D02*
X98788143Y-116819357D01*
X98788143Y-116819357D02*
X98788143Y-116795547D01*
X98788143Y-116795547D02*
X98811952Y-116747928D01*
X98811952Y-116747928D02*
X98835762Y-116724119D01*
X98835762Y-116724119D02*
X98883381Y-116700309D01*
X98883381Y-116700309D02*
X98978619Y-116700309D01*
X98978619Y-116700309D02*
X99026238Y-116724119D01*
X99026238Y-116724119D02*
X99050047Y-116747928D01*
X99050047Y-116747928D02*
X99073857Y-116795547D01*
X99073857Y-116795547D02*
X99073857Y-116819357D01*
X99073857Y-116819357D02*
X99050047Y-116866976D01*
X99050047Y-116866976D02*
X99026238Y-116890785D01*
X99026238Y-116890785D02*
X98978619Y-116914595D01*
X98978619Y-116914595D02*
X98883381Y-116914595D01*
X98883381Y-116914595D02*
X98835762Y-116938404D01*
X98835762Y-116938404D02*
X98811952Y-116962214D01*
X98811952Y-116962214D02*
X98788143Y-117009833D01*
X98788143Y-117009833D02*
X98788143Y-117105071D01*
X98788143Y-117105071D02*
X98811952Y-117152690D01*
X98811952Y-117152690D02*
X98835762Y-117176500D01*
X98835762Y-117176500D02*
X98883381Y-117200309D01*
X98883381Y-117200309D02*
X98978619Y-117200309D01*
X98978619Y-117200309D02*
X99026238Y-117176500D01*
X99026238Y-117176500D02*
X99050047Y-117152690D01*
X99050047Y-117152690D02*
X99073857Y-117105071D01*
X99073857Y-117105071D02*
X99073857Y-117009833D01*
X99073857Y-117009833D02*
X99050047Y-116962214D01*
X99050047Y-116962214D02*
X99026238Y-116938404D01*
X99026238Y-116938404D02*
X98978619Y-116914595D01*
%TO.C,U1*%
X95184047Y-98010309D02*
X95184047Y-98415071D01*
X95184047Y-98415071D02*
X95207857Y-98462690D01*
X95207857Y-98462690D02*
X95231666Y-98486500D01*
X95231666Y-98486500D02*
X95279285Y-98510309D01*
X95279285Y-98510309D02*
X95374523Y-98510309D01*
X95374523Y-98510309D02*
X95422142Y-98486500D01*
X95422142Y-98486500D02*
X95445952Y-98462690D01*
X95445952Y-98462690D02*
X95469761Y-98415071D01*
X95469761Y-98415071D02*
X95469761Y-98010309D01*
X95969762Y-98510309D02*
X95684048Y-98510309D01*
X95826905Y-98510309D02*
X95826905Y-98010309D01*
X95826905Y-98010309D02*
X95779286Y-98081738D01*
X95779286Y-98081738D02*
X95731667Y-98129357D01*
X95731667Y-98129357D02*
X95684048Y-98153166D01*
%TO.C,R11*%
X82377623Y-122135809D02*
X82210957Y-121897714D01*
X82091909Y-122135809D02*
X82091909Y-121635809D01*
X82091909Y-121635809D02*
X82282385Y-121635809D01*
X82282385Y-121635809D02*
X82330004Y-121659619D01*
X82330004Y-121659619D02*
X82353814Y-121683428D01*
X82353814Y-121683428D02*
X82377623Y-121731047D01*
X82377623Y-121731047D02*
X82377623Y-121802476D01*
X82377623Y-121802476D02*
X82353814Y-121850095D01*
X82353814Y-121850095D02*
X82330004Y-121873904D01*
X82330004Y-121873904D02*
X82282385Y-121897714D01*
X82282385Y-121897714D02*
X82091909Y-121897714D01*
X82853814Y-122135809D02*
X82568100Y-122135809D01*
X82710957Y-122135809D02*
X82710957Y-121635809D01*
X82710957Y-121635809D02*
X82663338Y-121707238D01*
X82663338Y-121707238D02*
X82615719Y-121754857D01*
X82615719Y-121754857D02*
X82568100Y-121778666D01*
X83330004Y-122135809D02*
X83044290Y-122135809D01*
X83187147Y-122135809D02*
X83187147Y-121635809D01*
X83187147Y-121635809D02*
X83139528Y-121707238D01*
X83139528Y-121707238D02*
X83091909Y-121754857D01*
X83091909Y-121754857D02*
X83044290Y-121778666D01*
%TO.C,C22*%
X73359571Y-97752690D02*
X73335762Y-97776500D01*
X73335762Y-97776500D02*
X73264333Y-97800309D01*
X73264333Y-97800309D02*
X73216714Y-97800309D01*
X73216714Y-97800309D02*
X73145286Y-97776500D01*
X73145286Y-97776500D02*
X73097667Y-97728880D01*
X73097667Y-97728880D02*
X73073857Y-97681261D01*
X73073857Y-97681261D02*
X73050048Y-97586023D01*
X73050048Y-97586023D02*
X73050048Y-97514595D01*
X73050048Y-97514595D02*
X73073857Y-97419357D01*
X73073857Y-97419357D02*
X73097667Y-97371738D01*
X73097667Y-97371738D02*
X73145286Y-97324119D01*
X73145286Y-97324119D02*
X73216714Y-97300309D01*
X73216714Y-97300309D02*
X73264333Y-97300309D01*
X73264333Y-97300309D02*
X73335762Y-97324119D01*
X73335762Y-97324119D02*
X73359571Y-97347928D01*
X73550048Y-97347928D02*
X73573857Y-97324119D01*
X73573857Y-97324119D02*
X73621476Y-97300309D01*
X73621476Y-97300309D02*
X73740524Y-97300309D01*
X73740524Y-97300309D02*
X73788143Y-97324119D01*
X73788143Y-97324119D02*
X73811952Y-97347928D01*
X73811952Y-97347928D02*
X73835762Y-97395547D01*
X73835762Y-97395547D02*
X73835762Y-97443166D01*
X73835762Y-97443166D02*
X73811952Y-97514595D01*
X73811952Y-97514595D02*
X73526238Y-97800309D01*
X73526238Y-97800309D02*
X73835762Y-97800309D01*
X74026238Y-97347928D02*
X74050047Y-97324119D01*
X74050047Y-97324119D02*
X74097666Y-97300309D01*
X74097666Y-97300309D02*
X74216714Y-97300309D01*
X74216714Y-97300309D02*
X74264333Y-97324119D01*
X74264333Y-97324119D02*
X74288142Y-97347928D01*
X74288142Y-97347928D02*
X74311952Y-97395547D01*
X74311952Y-97395547D02*
X74311952Y-97443166D01*
X74311952Y-97443166D02*
X74288142Y-97514595D01*
X74288142Y-97514595D02*
X74002428Y-97800309D01*
X74002428Y-97800309D02*
X74311952Y-97800309D01*
%TO.C,R6*%
X85597666Y-99000309D02*
X85431000Y-98762214D01*
X85311952Y-99000309D02*
X85311952Y-98500309D01*
X85311952Y-98500309D02*
X85502428Y-98500309D01*
X85502428Y-98500309D02*
X85550047Y-98524119D01*
X85550047Y-98524119D02*
X85573857Y-98547928D01*
X85573857Y-98547928D02*
X85597666Y-98595547D01*
X85597666Y-98595547D02*
X85597666Y-98666976D01*
X85597666Y-98666976D02*
X85573857Y-98714595D01*
X85573857Y-98714595D02*
X85550047Y-98738404D01*
X85550047Y-98738404D02*
X85502428Y-98762214D01*
X85502428Y-98762214D02*
X85311952Y-98762214D01*
X86026238Y-98500309D02*
X85931000Y-98500309D01*
X85931000Y-98500309D02*
X85883381Y-98524119D01*
X85883381Y-98524119D02*
X85859571Y-98547928D01*
X85859571Y-98547928D02*
X85811952Y-98619357D01*
X85811952Y-98619357D02*
X85788143Y-98714595D01*
X85788143Y-98714595D02*
X85788143Y-98905071D01*
X85788143Y-98905071D02*
X85811952Y-98952690D01*
X85811952Y-98952690D02*
X85835762Y-98976500D01*
X85835762Y-98976500D02*
X85883381Y-99000309D01*
X85883381Y-99000309D02*
X85978619Y-99000309D01*
X85978619Y-99000309D02*
X86026238Y-98976500D01*
X86026238Y-98976500D02*
X86050047Y-98952690D01*
X86050047Y-98952690D02*
X86073857Y-98905071D01*
X86073857Y-98905071D02*
X86073857Y-98786023D01*
X86073857Y-98786023D02*
X86050047Y-98738404D01*
X86050047Y-98738404D02*
X86026238Y-98714595D01*
X86026238Y-98714595D02*
X85978619Y-98690785D01*
X85978619Y-98690785D02*
X85883381Y-98690785D01*
X85883381Y-98690785D02*
X85835762Y-98714595D01*
X85835762Y-98714595D02*
X85811952Y-98738404D01*
X85811952Y-98738404D02*
X85788143Y-98786023D01*
%TO.C,R19*%
X80159571Y-110400309D02*
X79992905Y-110162214D01*
X79873857Y-110400309D02*
X79873857Y-109900309D01*
X79873857Y-109900309D02*
X80064333Y-109900309D01*
X80064333Y-109900309D02*
X80111952Y-109924119D01*
X80111952Y-109924119D02*
X80135762Y-109947928D01*
X80135762Y-109947928D02*
X80159571Y-109995547D01*
X80159571Y-109995547D02*
X80159571Y-110066976D01*
X80159571Y-110066976D02*
X80135762Y-110114595D01*
X80135762Y-110114595D02*
X80111952Y-110138404D01*
X80111952Y-110138404D02*
X80064333Y-110162214D01*
X80064333Y-110162214D02*
X79873857Y-110162214D01*
X80635762Y-110400309D02*
X80350048Y-110400309D01*
X80492905Y-110400309D02*
X80492905Y-109900309D01*
X80492905Y-109900309D02*
X80445286Y-109971738D01*
X80445286Y-109971738D02*
X80397667Y-110019357D01*
X80397667Y-110019357D02*
X80350048Y-110043166D01*
X80873857Y-110400309D02*
X80969095Y-110400309D01*
X80969095Y-110400309D02*
X81016714Y-110376500D01*
X81016714Y-110376500D02*
X81040523Y-110352690D01*
X81040523Y-110352690D02*
X81088142Y-110281261D01*
X81088142Y-110281261D02*
X81111952Y-110186023D01*
X81111952Y-110186023D02*
X81111952Y-109995547D01*
X81111952Y-109995547D02*
X81088142Y-109947928D01*
X81088142Y-109947928D02*
X81064333Y-109924119D01*
X81064333Y-109924119D02*
X81016714Y-109900309D01*
X81016714Y-109900309D02*
X80921476Y-109900309D01*
X80921476Y-109900309D02*
X80873857Y-109924119D01*
X80873857Y-109924119D02*
X80850047Y-109947928D01*
X80850047Y-109947928D02*
X80826238Y-109995547D01*
X80826238Y-109995547D02*
X80826238Y-110114595D01*
X80826238Y-110114595D02*
X80850047Y-110162214D01*
X80850047Y-110162214D02*
X80873857Y-110186023D01*
X80873857Y-110186023D02*
X80921476Y-110209833D01*
X80921476Y-110209833D02*
X81016714Y-110209833D01*
X81016714Y-110209833D02*
X81064333Y-110186023D01*
X81064333Y-110186023D02*
X81088142Y-110162214D01*
X81088142Y-110162214D02*
X81111952Y-110114595D01*
%TO.C,D11*%
X98656309Y-109827142D02*
X98156309Y-109827142D01*
X98156309Y-109827142D02*
X98156309Y-109708094D01*
X98156309Y-109708094D02*
X98180119Y-109636666D01*
X98180119Y-109636666D02*
X98227738Y-109589047D01*
X98227738Y-109589047D02*
X98275357Y-109565237D01*
X98275357Y-109565237D02*
X98370595Y-109541428D01*
X98370595Y-109541428D02*
X98442023Y-109541428D01*
X98442023Y-109541428D02*
X98537261Y-109565237D01*
X98537261Y-109565237D02*
X98584880Y-109589047D01*
X98584880Y-109589047D02*
X98632500Y-109636666D01*
X98632500Y-109636666D02*
X98656309Y-109708094D01*
X98656309Y-109708094D02*
X98656309Y-109827142D01*
X98656309Y-109065237D02*
X98656309Y-109350951D01*
X98656309Y-109208094D02*
X98156309Y-109208094D01*
X98156309Y-109208094D02*
X98227738Y-109255713D01*
X98227738Y-109255713D02*
X98275357Y-109303332D01*
X98275357Y-109303332D02*
X98299166Y-109350951D01*
X98656309Y-108589047D02*
X98656309Y-108874761D01*
X98656309Y-108731904D02*
X98156309Y-108731904D01*
X98156309Y-108731904D02*
X98227738Y-108779523D01*
X98227738Y-108779523D02*
X98275357Y-108827142D01*
X98275357Y-108827142D02*
X98299166Y-108874761D01*
%TO.C,C23*%
X73359571Y-96752690D02*
X73335762Y-96776500D01*
X73335762Y-96776500D02*
X73264333Y-96800309D01*
X73264333Y-96800309D02*
X73216714Y-96800309D01*
X73216714Y-96800309D02*
X73145286Y-96776500D01*
X73145286Y-96776500D02*
X73097667Y-96728880D01*
X73097667Y-96728880D02*
X73073857Y-96681261D01*
X73073857Y-96681261D02*
X73050048Y-96586023D01*
X73050048Y-96586023D02*
X73050048Y-96514595D01*
X73050048Y-96514595D02*
X73073857Y-96419357D01*
X73073857Y-96419357D02*
X73097667Y-96371738D01*
X73097667Y-96371738D02*
X73145286Y-96324119D01*
X73145286Y-96324119D02*
X73216714Y-96300309D01*
X73216714Y-96300309D02*
X73264333Y-96300309D01*
X73264333Y-96300309D02*
X73335762Y-96324119D01*
X73335762Y-96324119D02*
X73359571Y-96347928D01*
X73550048Y-96347928D02*
X73573857Y-96324119D01*
X73573857Y-96324119D02*
X73621476Y-96300309D01*
X73621476Y-96300309D02*
X73740524Y-96300309D01*
X73740524Y-96300309D02*
X73788143Y-96324119D01*
X73788143Y-96324119D02*
X73811952Y-96347928D01*
X73811952Y-96347928D02*
X73835762Y-96395547D01*
X73835762Y-96395547D02*
X73835762Y-96443166D01*
X73835762Y-96443166D02*
X73811952Y-96514595D01*
X73811952Y-96514595D02*
X73526238Y-96800309D01*
X73526238Y-96800309D02*
X73835762Y-96800309D01*
X74002428Y-96300309D02*
X74311952Y-96300309D01*
X74311952Y-96300309D02*
X74145285Y-96490785D01*
X74145285Y-96490785D02*
X74216714Y-96490785D01*
X74216714Y-96490785D02*
X74264333Y-96514595D01*
X74264333Y-96514595D02*
X74288142Y-96538404D01*
X74288142Y-96538404D02*
X74311952Y-96586023D01*
X74311952Y-96586023D02*
X74311952Y-96705071D01*
X74311952Y-96705071D02*
X74288142Y-96752690D01*
X74288142Y-96752690D02*
X74264333Y-96776500D01*
X74264333Y-96776500D02*
X74216714Y-96800309D01*
X74216714Y-96800309D02*
X74073857Y-96800309D01*
X74073857Y-96800309D02*
X74026238Y-96776500D01*
X74026238Y-96776500D02*
X74002428Y-96752690D01*
%TO.C,R10*%
X98992571Y-118241309D02*
X98825905Y-118003214D01*
X98706857Y-118241309D02*
X98706857Y-117741309D01*
X98706857Y-117741309D02*
X98897333Y-117741309D01*
X98897333Y-117741309D02*
X98944952Y-117765119D01*
X98944952Y-117765119D02*
X98968762Y-117788928D01*
X98968762Y-117788928D02*
X98992571Y-117836547D01*
X98992571Y-117836547D02*
X98992571Y-117907976D01*
X98992571Y-117907976D02*
X98968762Y-117955595D01*
X98968762Y-117955595D02*
X98944952Y-117979404D01*
X98944952Y-117979404D02*
X98897333Y-118003214D01*
X98897333Y-118003214D02*
X98706857Y-118003214D01*
X99468762Y-118241309D02*
X99183048Y-118241309D01*
X99325905Y-118241309D02*
X99325905Y-117741309D01*
X99325905Y-117741309D02*
X99278286Y-117812738D01*
X99278286Y-117812738D02*
X99230667Y-117860357D01*
X99230667Y-117860357D02*
X99183048Y-117884166D01*
X99778285Y-117741309D02*
X99825904Y-117741309D01*
X99825904Y-117741309D02*
X99873523Y-117765119D01*
X99873523Y-117765119D02*
X99897333Y-117788928D01*
X99897333Y-117788928D02*
X99921142Y-117836547D01*
X99921142Y-117836547D02*
X99944952Y-117931785D01*
X99944952Y-117931785D02*
X99944952Y-118050833D01*
X99944952Y-118050833D02*
X99921142Y-118146071D01*
X99921142Y-118146071D02*
X99897333Y-118193690D01*
X99897333Y-118193690D02*
X99873523Y-118217500D01*
X99873523Y-118217500D02*
X99825904Y-118241309D01*
X99825904Y-118241309D02*
X99778285Y-118241309D01*
X99778285Y-118241309D02*
X99730666Y-118217500D01*
X99730666Y-118217500D02*
X99706857Y-118193690D01*
X99706857Y-118193690D02*
X99683047Y-118146071D01*
X99683047Y-118146071D02*
X99659238Y-118050833D01*
X99659238Y-118050833D02*
X99659238Y-117931785D01*
X99659238Y-117931785D02*
X99683047Y-117836547D01*
X99683047Y-117836547D02*
X99706857Y-117788928D01*
X99706857Y-117788928D02*
X99730666Y-117765119D01*
X99730666Y-117765119D02*
X99778285Y-117741309D01*
%TO.C,C1*%
X94597666Y-90152690D02*
X94573857Y-90176500D01*
X94573857Y-90176500D02*
X94502428Y-90200309D01*
X94502428Y-90200309D02*
X94454809Y-90200309D01*
X94454809Y-90200309D02*
X94383381Y-90176500D01*
X94383381Y-90176500D02*
X94335762Y-90128880D01*
X94335762Y-90128880D02*
X94311952Y-90081261D01*
X94311952Y-90081261D02*
X94288143Y-89986023D01*
X94288143Y-89986023D02*
X94288143Y-89914595D01*
X94288143Y-89914595D02*
X94311952Y-89819357D01*
X94311952Y-89819357D02*
X94335762Y-89771738D01*
X94335762Y-89771738D02*
X94383381Y-89724119D01*
X94383381Y-89724119D02*
X94454809Y-89700309D01*
X94454809Y-89700309D02*
X94502428Y-89700309D01*
X94502428Y-89700309D02*
X94573857Y-89724119D01*
X94573857Y-89724119D02*
X94597666Y-89747928D01*
X95073857Y-90200309D02*
X94788143Y-90200309D01*
X94931000Y-90200309D02*
X94931000Y-89700309D01*
X94931000Y-89700309D02*
X94883381Y-89771738D01*
X94883381Y-89771738D02*
X94835762Y-89819357D01*
X94835762Y-89819357D02*
X94788143Y-89843166D01*
%TO.C,U5*%
X110100047Y-110900309D02*
X110100047Y-111305071D01*
X110100047Y-111305071D02*
X110123857Y-111352690D01*
X110123857Y-111352690D02*
X110147666Y-111376500D01*
X110147666Y-111376500D02*
X110195285Y-111400309D01*
X110195285Y-111400309D02*
X110290523Y-111400309D01*
X110290523Y-111400309D02*
X110338142Y-111376500D01*
X110338142Y-111376500D02*
X110361952Y-111352690D01*
X110361952Y-111352690D02*
X110385761Y-111305071D01*
X110385761Y-111305071D02*
X110385761Y-110900309D01*
X110861952Y-110900309D02*
X110623857Y-110900309D01*
X110623857Y-110900309D02*
X110600048Y-111138404D01*
X110600048Y-111138404D02*
X110623857Y-111114595D01*
X110623857Y-111114595D02*
X110671476Y-111090785D01*
X110671476Y-111090785D02*
X110790524Y-111090785D01*
X110790524Y-111090785D02*
X110838143Y-111114595D01*
X110838143Y-111114595D02*
X110861952Y-111138404D01*
X110861952Y-111138404D02*
X110885762Y-111186023D01*
X110885762Y-111186023D02*
X110885762Y-111305071D01*
X110885762Y-111305071D02*
X110861952Y-111352690D01*
X110861952Y-111352690D02*
X110838143Y-111376500D01*
X110838143Y-111376500D02*
X110790524Y-111400309D01*
X110790524Y-111400309D02*
X110671476Y-111400309D01*
X110671476Y-111400309D02*
X110623857Y-111376500D01*
X110623857Y-111376500D02*
X110600048Y-111352690D01*
%TO.C,C18*%
X105105690Y-113890428D02*
X105129500Y-113914237D01*
X105129500Y-113914237D02*
X105153309Y-113985666D01*
X105153309Y-113985666D02*
X105153309Y-114033285D01*
X105153309Y-114033285D02*
X105129500Y-114104713D01*
X105129500Y-114104713D02*
X105081880Y-114152332D01*
X105081880Y-114152332D02*
X105034261Y-114176142D01*
X105034261Y-114176142D02*
X104939023Y-114199951D01*
X104939023Y-114199951D02*
X104867595Y-114199951D01*
X104867595Y-114199951D02*
X104772357Y-114176142D01*
X104772357Y-114176142D02*
X104724738Y-114152332D01*
X104724738Y-114152332D02*
X104677119Y-114104713D01*
X104677119Y-114104713D02*
X104653309Y-114033285D01*
X104653309Y-114033285D02*
X104653309Y-113985666D01*
X104653309Y-113985666D02*
X104677119Y-113914237D01*
X104677119Y-113914237D02*
X104700928Y-113890428D01*
X105153309Y-113414237D02*
X105153309Y-113699951D01*
X105153309Y-113557094D02*
X104653309Y-113557094D01*
X104653309Y-113557094D02*
X104724738Y-113604713D01*
X104724738Y-113604713D02*
X104772357Y-113652332D01*
X104772357Y-113652332D02*
X104796166Y-113699951D01*
X104867595Y-113128523D02*
X104843785Y-113176142D01*
X104843785Y-113176142D02*
X104819976Y-113199952D01*
X104819976Y-113199952D02*
X104772357Y-113223761D01*
X104772357Y-113223761D02*
X104748547Y-113223761D01*
X104748547Y-113223761D02*
X104700928Y-113199952D01*
X104700928Y-113199952D02*
X104677119Y-113176142D01*
X104677119Y-113176142D02*
X104653309Y-113128523D01*
X104653309Y-113128523D02*
X104653309Y-113033285D01*
X104653309Y-113033285D02*
X104677119Y-112985666D01*
X104677119Y-112985666D02*
X104700928Y-112961857D01*
X104700928Y-112961857D02*
X104748547Y-112938047D01*
X104748547Y-112938047D02*
X104772357Y-112938047D01*
X104772357Y-112938047D02*
X104819976Y-112961857D01*
X104819976Y-112961857D02*
X104843785Y-112985666D01*
X104843785Y-112985666D02*
X104867595Y-113033285D01*
X104867595Y-113033285D02*
X104867595Y-113128523D01*
X104867595Y-113128523D02*
X104891404Y-113176142D01*
X104891404Y-113176142D02*
X104915214Y-113199952D01*
X104915214Y-113199952D02*
X104962833Y-113223761D01*
X104962833Y-113223761D02*
X105058071Y-113223761D01*
X105058071Y-113223761D02*
X105105690Y-113199952D01*
X105105690Y-113199952D02*
X105129500Y-113176142D01*
X105129500Y-113176142D02*
X105153309Y-113128523D01*
X105153309Y-113128523D02*
X105153309Y-113033285D01*
X105153309Y-113033285D02*
X105129500Y-112985666D01*
X105129500Y-112985666D02*
X105105690Y-112961857D01*
X105105690Y-112961857D02*
X105058071Y-112938047D01*
X105058071Y-112938047D02*
X104962833Y-112938047D01*
X104962833Y-112938047D02*
X104915214Y-112961857D01*
X104915214Y-112961857D02*
X104891404Y-112985666D01*
X104891404Y-112985666D02*
X104867595Y-113033285D01*
%TO.C,R25*%
X101359571Y-114200309D02*
X101192905Y-113962214D01*
X101073857Y-114200309D02*
X101073857Y-113700309D01*
X101073857Y-113700309D02*
X101264333Y-113700309D01*
X101264333Y-113700309D02*
X101311952Y-113724119D01*
X101311952Y-113724119D02*
X101335762Y-113747928D01*
X101335762Y-113747928D02*
X101359571Y-113795547D01*
X101359571Y-113795547D02*
X101359571Y-113866976D01*
X101359571Y-113866976D02*
X101335762Y-113914595D01*
X101335762Y-113914595D02*
X101311952Y-113938404D01*
X101311952Y-113938404D02*
X101264333Y-113962214D01*
X101264333Y-113962214D02*
X101073857Y-113962214D01*
X101550048Y-113747928D02*
X101573857Y-113724119D01*
X101573857Y-113724119D02*
X101621476Y-113700309D01*
X101621476Y-113700309D02*
X101740524Y-113700309D01*
X101740524Y-113700309D02*
X101788143Y-113724119D01*
X101788143Y-113724119D02*
X101811952Y-113747928D01*
X101811952Y-113747928D02*
X101835762Y-113795547D01*
X101835762Y-113795547D02*
X101835762Y-113843166D01*
X101835762Y-113843166D02*
X101811952Y-113914595D01*
X101811952Y-113914595D02*
X101526238Y-114200309D01*
X101526238Y-114200309D02*
X101835762Y-114200309D01*
X102288142Y-113700309D02*
X102050047Y-113700309D01*
X102050047Y-113700309D02*
X102026238Y-113938404D01*
X102026238Y-113938404D02*
X102050047Y-113914595D01*
X102050047Y-113914595D02*
X102097666Y-113890785D01*
X102097666Y-113890785D02*
X102216714Y-113890785D01*
X102216714Y-113890785D02*
X102264333Y-113914595D01*
X102264333Y-113914595D02*
X102288142Y-113938404D01*
X102288142Y-113938404D02*
X102311952Y-113986023D01*
X102311952Y-113986023D02*
X102311952Y-114105071D01*
X102311952Y-114105071D02*
X102288142Y-114152690D01*
X102288142Y-114152690D02*
X102264333Y-114176500D01*
X102264333Y-114176500D02*
X102216714Y-114200309D01*
X102216714Y-114200309D02*
X102097666Y-114200309D01*
X102097666Y-114200309D02*
X102050047Y-114176500D01*
X102050047Y-114176500D02*
X102026238Y-114152690D01*
%TO.C,C4*%
X76997666Y-96952690D02*
X76973857Y-96976500D01*
X76973857Y-96976500D02*
X76902428Y-97000309D01*
X76902428Y-97000309D02*
X76854809Y-97000309D01*
X76854809Y-97000309D02*
X76783381Y-96976500D01*
X76783381Y-96976500D02*
X76735762Y-96928880D01*
X76735762Y-96928880D02*
X76711952Y-96881261D01*
X76711952Y-96881261D02*
X76688143Y-96786023D01*
X76688143Y-96786023D02*
X76688143Y-96714595D01*
X76688143Y-96714595D02*
X76711952Y-96619357D01*
X76711952Y-96619357D02*
X76735762Y-96571738D01*
X76735762Y-96571738D02*
X76783381Y-96524119D01*
X76783381Y-96524119D02*
X76854809Y-96500309D01*
X76854809Y-96500309D02*
X76902428Y-96500309D01*
X76902428Y-96500309D02*
X76973857Y-96524119D01*
X76973857Y-96524119D02*
X76997666Y-96547928D01*
X77426238Y-96666976D02*
X77426238Y-97000309D01*
X77307190Y-96476500D02*
X77188143Y-96833642D01*
X77188143Y-96833642D02*
X77497666Y-96833642D01*
%TO.C,D7*%
X80990952Y-103127309D02*
X80990952Y-102627309D01*
X80990952Y-102627309D02*
X81110000Y-102627309D01*
X81110000Y-102627309D02*
X81181428Y-102651119D01*
X81181428Y-102651119D02*
X81229047Y-102698738D01*
X81229047Y-102698738D02*
X81252857Y-102746357D01*
X81252857Y-102746357D02*
X81276666Y-102841595D01*
X81276666Y-102841595D02*
X81276666Y-102913023D01*
X81276666Y-102913023D02*
X81252857Y-103008261D01*
X81252857Y-103008261D02*
X81229047Y-103055880D01*
X81229047Y-103055880D02*
X81181428Y-103103500D01*
X81181428Y-103103500D02*
X81110000Y-103127309D01*
X81110000Y-103127309D02*
X80990952Y-103127309D01*
X81443333Y-102627309D02*
X81776666Y-102627309D01*
X81776666Y-102627309D02*
X81562381Y-103127309D01*
%TO.C,R32*%
X101942309Y-109490428D02*
X101704214Y-109657094D01*
X101942309Y-109776142D02*
X101442309Y-109776142D01*
X101442309Y-109776142D02*
X101442309Y-109585666D01*
X101442309Y-109585666D02*
X101466119Y-109538047D01*
X101466119Y-109538047D02*
X101489928Y-109514237D01*
X101489928Y-109514237D02*
X101537547Y-109490428D01*
X101537547Y-109490428D02*
X101608976Y-109490428D01*
X101608976Y-109490428D02*
X101656595Y-109514237D01*
X101656595Y-109514237D02*
X101680404Y-109538047D01*
X101680404Y-109538047D02*
X101704214Y-109585666D01*
X101704214Y-109585666D02*
X101704214Y-109776142D01*
X101442309Y-109323761D02*
X101442309Y-109014237D01*
X101442309Y-109014237D02*
X101632785Y-109180904D01*
X101632785Y-109180904D02*
X101632785Y-109109475D01*
X101632785Y-109109475D02*
X101656595Y-109061856D01*
X101656595Y-109061856D02*
X101680404Y-109038047D01*
X101680404Y-109038047D02*
X101728023Y-109014237D01*
X101728023Y-109014237D02*
X101847071Y-109014237D01*
X101847071Y-109014237D02*
X101894690Y-109038047D01*
X101894690Y-109038047D02*
X101918500Y-109061856D01*
X101918500Y-109061856D02*
X101942309Y-109109475D01*
X101942309Y-109109475D02*
X101942309Y-109252332D01*
X101942309Y-109252332D02*
X101918500Y-109299951D01*
X101918500Y-109299951D02*
X101894690Y-109323761D01*
X101489928Y-108823761D02*
X101466119Y-108799952D01*
X101466119Y-108799952D02*
X101442309Y-108752333D01*
X101442309Y-108752333D02*
X101442309Y-108633285D01*
X101442309Y-108633285D02*
X101466119Y-108585666D01*
X101466119Y-108585666D02*
X101489928Y-108561857D01*
X101489928Y-108561857D02*
X101537547Y-108538047D01*
X101537547Y-108538047D02*
X101585166Y-108538047D01*
X101585166Y-108538047D02*
X101656595Y-108561857D01*
X101656595Y-108561857D02*
X101942309Y-108847571D01*
X101942309Y-108847571D02*
X101942309Y-108538047D01*
%TO.C,U6*%
X85292309Y-108149952D02*
X85697071Y-108149952D01*
X85697071Y-108149952D02*
X85744690Y-108126142D01*
X85744690Y-108126142D02*
X85768500Y-108102333D01*
X85768500Y-108102333D02*
X85792309Y-108054714D01*
X85792309Y-108054714D02*
X85792309Y-107959476D01*
X85792309Y-107959476D02*
X85768500Y-107911857D01*
X85768500Y-107911857D02*
X85744690Y-107888047D01*
X85744690Y-107888047D02*
X85697071Y-107864238D01*
X85697071Y-107864238D02*
X85292309Y-107864238D01*
X85292309Y-107411856D02*
X85292309Y-107507094D01*
X85292309Y-107507094D02*
X85316119Y-107554713D01*
X85316119Y-107554713D02*
X85339928Y-107578523D01*
X85339928Y-107578523D02*
X85411357Y-107626142D01*
X85411357Y-107626142D02*
X85506595Y-107649951D01*
X85506595Y-107649951D02*
X85697071Y-107649951D01*
X85697071Y-107649951D02*
X85744690Y-107626142D01*
X85744690Y-107626142D02*
X85768500Y-107602332D01*
X85768500Y-107602332D02*
X85792309Y-107554713D01*
X85792309Y-107554713D02*
X85792309Y-107459475D01*
X85792309Y-107459475D02*
X85768500Y-107411856D01*
X85768500Y-107411856D02*
X85744690Y-107388047D01*
X85744690Y-107388047D02*
X85697071Y-107364237D01*
X85697071Y-107364237D02*
X85578023Y-107364237D01*
X85578023Y-107364237D02*
X85530404Y-107388047D01*
X85530404Y-107388047D02*
X85506595Y-107411856D01*
X85506595Y-107411856D02*
X85482785Y-107459475D01*
X85482785Y-107459475D02*
X85482785Y-107554713D01*
X85482785Y-107554713D02*
X85506595Y-107602332D01*
X85506595Y-107602332D02*
X85530404Y-107626142D01*
X85530404Y-107626142D02*
X85578023Y-107649951D01*
%TO.C,C21*%
X97468571Y-118193690D02*
X97444762Y-118217500D01*
X97444762Y-118217500D02*
X97373333Y-118241309D01*
X97373333Y-118241309D02*
X97325714Y-118241309D01*
X97325714Y-118241309D02*
X97254286Y-118217500D01*
X97254286Y-118217500D02*
X97206667Y-118169880D01*
X97206667Y-118169880D02*
X97182857Y-118122261D01*
X97182857Y-118122261D02*
X97159048Y-118027023D01*
X97159048Y-118027023D02*
X97159048Y-117955595D01*
X97159048Y-117955595D02*
X97182857Y-117860357D01*
X97182857Y-117860357D02*
X97206667Y-117812738D01*
X97206667Y-117812738D02*
X97254286Y-117765119D01*
X97254286Y-117765119D02*
X97325714Y-117741309D01*
X97325714Y-117741309D02*
X97373333Y-117741309D01*
X97373333Y-117741309D02*
X97444762Y-117765119D01*
X97444762Y-117765119D02*
X97468571Y-117788928D01*
X97659048Y-117788928D02*
X97682857Y-117765119D01*
X97682857Y-117765119D02*
X97730476Y-117741309D01*
X97730476Y-117741309D02*
X97849524Y-117741309D01*
X97849524Y-117741309D02*
X97897143Y-117765119D01*
X97897143Y-117765119D02*
X97920952Y-117788928D01*
X97920952Y-117788928D02*
X97944762Y-117836547D01*
X97944762Y-117836547D02*
X97944762Y-117884166D01*
X97944762Y-117884166D02*
X97920952Y-117955595D01*
X97920952Y-117955595D02*
X97635238Y-118241309D01*
X97635238Y-118241309D02*
X97944762Y-118241309D01*
X98420952Y-118241309D02*
X98135238Y-118241309D01*
X98278095Y-118241309D02*
X98278095Y-117741309D01*
X98278095Y-117741309D02*
X98230476Y-117812738D01*
X98230476Y-117812738D02*
X98182857Y-117860357D01*
X98182857Y-117860357D02*
X98135238Y-117884166D01*
%TO.C,R3*%
X87927666Y-91798309D02*
X87761000Y-91560214D01*
X87641952Y-91798309D02*
X87641952Y-91298309D01*
X87641952Y-91298309D02*
X87832428Y-91298309D01*
X87832428Y-91298309D02*
X87880047Y-91322119D01*
X87880047Y-91322119D02*
X87903857Y-91345928D01*
X87903857Y-91345928D02*
X87927666Y-91393547D01*
X87927666Y-91393547D02*
X87927666Y-91464976D01*
X87927666Y-91464976D02*
X87903857Y-91512595D01*
X87903857Y-91512595D02*
X87880047Y-91536404D01*
X87880047Y-91536404D02*
X87832428Y-91560214D01*
X87832428Y-91560214D02*
X87641952Y-91560214D01*
X88094333Y-91298309D02*
X88403857Y-91298309D01*
X88403857Y-91298309D02*
X88237190Y-91488785D01*
X88237190Y-91488785D02*
X88308619Y-91488785D01*
X88308619Y-91488785D02*
X88356238Y-91512595D01*
X88356238Y-91512595D02*
X88380047Y-91536404D01*
X88380047Y-91536404D02*
X88403857Y-91584023D01*
X88403857Y-91584023D02*
X88403857Y-91703071D01*
X88403857Y-91703071D02*
X88380047Y-91750690D01*
X88380047Y-91750690D02*
X88356238Y-91774500D01*
X88356238Y-91774500D02*
X88308619Y-91798309D01*
X88308619Y-91798309D02*
X88165762Y-91798309D01*
X88165762Y-91798309D02*
X88118143Y-91774500D01*
X88118143Y-91774500D02*
X88094333Y-91750690D01*
%TO.C,R24*%
X105133309Y-112208428D02*
X104895214Y-112375094D01*
X105133309Y-112494142D02*
X104633309Y-112494142D01*
X104633309Y-112494142D02*
X104633309Y-112303666D01*
X104633309Y-112303666D02*
X104657119Y-112256047D01*
X104657119Y-112256047D02*
X104680928Y-112232237D01*
X104680928Y-112232237D02*
X104728547Y-112208428D01*
X104728547Y-112208428D02*
X104799976Y-112208428D01*
X104799976Y-112208428D02*
X104847595Y-112232237D01*
X104847595Y-112232237D02*
X104871404Y-112256047D01*
X104871404Y-112256047D02*
X104895214Y-112303666D01*
X104895214Y-112303666D02*
X104895214Y-112494142D01*
X104680928Y-112017951D02*
X104657119Y-111994142D01*
X104657119Y-111994142D02*
X104633309Y-111946523D01*
X104633309Y-111946523D02*
X104633309Y-111827475D01*
X104633309Y-111827475D02*
X104657119Y-111779856D01*
X104657119Y-111779856D02*
X104680928Y-111756047D01*
X104680928Y-111756047D02*
X104728547Y-111732237D01*
X104728547Y-111732237D02*
X104776166Y-111732237D01*
X104776166Y-111732237D02*
X104847595Y-111756047D01*
X104847595Y-111756047D02*
X105133309Y-112041761D01*
X105133309Y-112041761D02*
X105133309Y-111732237D01*
X104799976Y-111303666D02*
X105133309Y-111303666D01*
X104609500Y-111422714D02*
X104966642Y-111541761D01*
X104966642Y-111541761D02*
X104966642Y-111232238D01*
%TO.C,C12*%
X88070908Y-121311690D02*
X88047099Y-121335500D01*
X88047099Y-121335500D02*
X87975670Y-121359309D01*
X87975670Y-121359309D02*
X87928051Y-121359309D01*
X87928051Y-121359309D02*
X87856623Y-121335500D01*
X87856623Y-121335500D02*
X87809004Y-121287880D01*
X87809004Y-121287880D02*
X87785194Y-121240261D01*
X87785194Y-121240261D02*
X87761385Y-121145023D01*
X87761385Y-121145023D02*
X87761385Y-121073595D01*
X87761385Y-121073595D02*
X87785194Y-120978357D01*
X87785194Y-120978357D02*
X87809004Y-120930738D01*
X87809004Y-120930738D02*
X87856623Y-120883119D01*
X87856623Y-120883119D02*
X87928051Y-120859309D01*
X87928051Y-120859309D02*
X87975670Y-120859309D01*
X87975670Y-120859309D02*
X88047099Y-120883119D01*
X88047099Y-120883119D02*
X88070908Y-120906928D01*
X88547099Y-121359309D02*
X88261385Y-121359309D01*
X88404242Y-121359309D02*
X88404242Y-120859309D01*
X88404242Y-120859309D02*
X88356623Y-120930738D01*
X88356623Y-120930738D02*
X88309004Y-120978357D01*
X88309004Y-120978357D02*
X88261385Y-121002166D01*
X88737575Y-120906928D02*
X88761384Y-120883119D01*
X88761384Y-120883119D02*
X88809003Y-120859309D01*
X88809003Y-120859309D02*
X88928051Y-120859309D01*
X88928051Y-120859309D02*
X88975670Y-120883119D01*
X88975670Y-120883119D02*
X88999479Y-120906928D01*
X88999479Y-120906928D02*
X89023289Y-120954547D01*
X89023289Y-120954547D02*
X89023289Y-121002166D01*
X89023289Y-121002166D02*
X88999479Y-121073595D01*
X88999479Y-121073595D02*
X88713765Y-121359309D01*
X88713765Y-121359309D02*
X89023289Y-121359309D01*
%TO.C,R30*%
X103359571Y-103400309D02*
X103192905Y-103162214D01*
X103073857Y-103400309D02*
X103073857Y-102900309D01*
X103073857Y-102900309D02*
X103264333Y-102900309D01*
X103264333Y-102900309D02*
X103311952Y-102924119D01*
X103311952Y-102924119D02*
X103335762Y-102947928D01*
X103335762Y-102947928D02*
X103359571Y-102995547D01*
X103359571Y-102995547D02*
X103359571Y-103066976D01*
X103359571Y-103066976D02*
X103335762Y-103114595D01*
X103335762Y-103114595D02*
X103311952Y-103138404D01*
X103311952Y-103138404D02*
X103264333Y-103162214D01*
X103264333Y-103162214D02*
X103073857Y-103162214D01*
X103526238Y-102900309D02*
X103835762Y-102900309D01*
X103835762Y-102900309D02*
X103669095Y-103090785D01*
X103669095Y-103090785D02*
X103740524Y-103090785D01*
X103740524Y-103090785D02*
X103788143Y-103114595D01*
X103788143Y-103114595D02*
X103811952Y-103138404D01*
X103811952Y-103138404D02*
X103835762Y-103186023D01*
X103835762Y-103186023D02*
X103835762Y-103305071D01*
X103835762Y-103305071D02*
X103811952Y-103352690D01*
X103811952Y-103352690D02*
X103788143Y-103376500D01*
X103788143Y-103376500D02*
X103740524Y-103400309D01*
X103740524Y-103400309D02*
X103597667Y-103400309D01*
X103597667Y-103400309D02*
X103550048Y-103376500D01*
X103550048Y-103376500D02*
X103526238Y-103352690D01*
X104145285Y-102900309D02*
X104192904Y-102900309D01*
X104192904Y-102900309D02*
X104240523Y-102924119D01*
X104240523Y-102924119D02*
X104264333Y-102947928D01*
X104264333Y-102947928D02*
X104288142Y-102995547D01*
X104288142Y-102995547D02*
X104311952Y-103090785D01*
X104311952Y-103090785D02*
X104311952Y-103209833D01*
X104311952Y-103209833D02*
X104288142Y-103305071D01*
X104288142Y-103305071D02*
X104264333Y-103352690D01*
X104264333Y-103352690D02*
X104240523Y-103376500D01*
X104240523Y-103376500D02*
X104192904Y-103400309D01*
X104192904Y-103400309D02*
X104145285Y-103400309D01*
X104145285Y-103400309D02*
X104097666Y-103376500D01*
X104097666Y-103376500D02*
X104073857Y-103352690D01*
X104073857Y-103352690D02*
X104050047Y-103305071D01*
X104050047Y-103305071D02*
X104026238Y-103209833D01*
X104026238Y-103209833D02*
X104026238Y-103090785D01*
X104026238Y-103090785D02*
X104050047Y-102995547D01*
X104050047Y-102995547D02*
X104073857Y-102947928D01*
X104073857Y-102947928D02*
X104097666Y-102924119D01*
X104097666Y-102924119D02*
X104145285Y-102900309D01*
%TO.C,C19*%
X78864690Y-118890428D02*
X78888500Y-118914237D01*
X78888500Y-118914237D02*
X78912309Y-118985666D01*
X78912309Y-118985666D02*
X78912309Y-119033285D01*
X78912309Y-119033285D02*
X78888500Y-119104713D01*
X78888500Y-119104713D02*
X78840880Y-119152332D01*
X78840880Y-119152332D02*
X78793261Y-119176142D01*
X78793261Y-119176142D02*
X78698023Y-119199951D01*
X78698023Y-119199951D02*
X78626595Y-119199951D01*
X78626595Y-119199951D02*
X78531357Y-119176142D01*
X78531357Y-119176142D02*
X78483738Y-119152332D01*
X78483738Y-119152332D02*
X78436119Y-119104713D01*
X78436119Y-119104713D02*
X78412309Y-119033285D01*
X78412309Y-119033285D02*
X78412309Y-118985666D01*
X78412309Y-118985666D02*
X78436119Y-118914237D01*
X78436119Y-118914237D02*
X78459928Y-118890428D01*
X78912309Y-118414237D02*
X78912309Y-118699951D01*
X78912309Y-118557094D02*
X78412309Y-118557094D01*
X78412309Y-118557094D02*
X78483738Y-118604713D01*
X78483738Y-118604713D02*
X78531357Y-118652332D01*
X78531357Y-118652332D02*
X78555166Y-118699951D01*
X78912309Y-118176142D02*
X78912309Y-118080904D01*
X78912309Y-118080904D02*
X78888500Y-118033285D01*
X78888500Y-118033285D02*
X78864690Y-118009476D01*
X78864690Y-118009476D02*
X78793261Y-117961857D01*
X78793261Y-117961857D02*
X78698023Y-117938047D01*
X78698023Y-117938047D02*
X78507547Y-117938047D01*
X78507547Y-117938047D02*
X78459928Y-117961857D01*
X78459928Y-117961857D02*
X78436119Y-117985666D01*
X78436119Y-117985666D02*
X78412309Y-118033285D01*
X78412309Y-118033285D02*
X78412309Y-118128523D01*
X78412309Y-118128523D02*
X78436119Y-118176142D01*
X78436119Y-118176142D02*
X78459928Y-118199952D01*
X78459928Y-118199952D02*
X78507547Y-118223761D01*
X78507547Y-118223761D02*
X78626595Y-118223761D01*
X78626595Y-118223761D02*
X78674214Y-118199952D01*
X78674214Y-118199952D02*
X78698023Y-118176142D01*
X78698023Y-118176142D02*
X78721833Y-118128523D01*
X78721833Y-118128523D02*
X78721833Y-118033285D01*
X78721833Y-118033285D02*
X78698023Y-117985666D01*
X78698023Y-117985666D02*
X78674214Y-117961857D01*
X78674214Y-117961857D02*
X78626595Y-117938047D01*
%TO.C,R31*%
X101712309Y-106090428D02*
X101474214Y-106257094D01*
X101712309Y-106376142D02*
X101212309Y-106376142D01*
X101212309Y-106376142D02*
X101212309Y-106185666D01*
X101212309Y-106185666D02*
X101236119Y-106138047D01*
X101236119Y-106138047D02*
X101259928Y-106114237D01*
X101259928Y-106114237D02*
X101307547Y-106090428D01*
X101307547Y-106090428D02*
X101378976Y-106090428D01*
X101378976Y-106090428D02*
X101426595Y-106114237D01*
X101426595Y-106114237D02*
X101450404Y-106138047D01*
X101450404Y-106138047D02*
X101474214Y-106185666D01*
X101474214Y-106185666D02*
X101474214Y-106376142D01*
X101212309Y-105923761D02*
X101212309Y-105614237D01*
X101212309Y-105614237D02*
X101402785Y-105780904D01*
X101402785Y-105780904D02*
X101402785Y-105709475D01*
X101402785Y-105709475D02*
X101426595Y-105661856D01*
X101426595Y-105661856D02*
X101450404Y-105638047D01*
X101450404Y-105638047D02*
X101498023Y-105614237D01*
X101498023Y-105614237D02*
X101617071Y-105614237D01*
X101617071Y-105614237D02*
X101664690Y-105638047D01*
X101664690Y-105638047D02*
X101688500Y-105661856D01*
X101688500Y-105661856D02*
X101712309Y-105709475D01*
X101712309Y-105709475D02*
X101712309Y-105852332D01*
X101712309Y-105852332D02*
X101688500Y-105899951D01*
X101688500Y-105899951D02*
X101664690Y-105923761D01*
X101712309Y-105138047D02*
X101712309Y-105423761D01*
X101712309Y-105280904D02*
X101212309Y-105280904D01*
X101212309Y-105280904D02*
X101283738Y-105328523D01*
X101283738Y-105328523D02*
X101331357Y-105376142D01*
X101331357Y-105376142D02*
X101355166Y-105423761D01*
%TO.C,D6*%
X80749309Y-105424047D02*
X80249309Y-105424047D01*
X80249309Y-105424047D02*
X80249309Y-105304999D01*
X80249309Y-105304999D02*
X80273119Y-105233571D01*
X80273119Y-105233571D02*
X80320738Y-105185952D01*
X80320738Y-105185952D02*
X80368357Y-105162142D01*
X80368357Y-105162142D02*
X80463595Y-105138333D01*
X80463595Y-105138333D02*
X80535023Y-105138333D01*
X80535023Y-105138333D02*
X80630261Y-105162142D01*
X80630261Y-105162142D02*
X80677880Y-105185952D01*
X80677880Y-105185952D02*
X80725500Y-105233571D01*
X80725500Y-105233571D02*
X80749309Y-105304999D01*
X80749309Y-105304999D02*
X80749309Y-105424047D01*
X80249309Y-104709761D02*
X80249309Y-104804999D01*
X80249309Y-104804999D02*
X80273119Y-104852618D01*
X80273119Y-104852618D02*
X80296928Y-104876428D01*
X80296928Y-104876428D02*
X80368357Y-104924047D01*
X80368357Y-104924047D02*
X80463595Y-104947856D01*
X80463595Y-104947856D02*
X80654071Y-104947856D01*
X80654071Y-104947856D02*
X80701690Y-104924047D01*
X80701690Y-104924047D02*
X80725500Y-104900237D01*
X80725500Y-104900237D02*
X80749309Y-104852618D01*
X80749309Y-104852618D02*
X80749309Y-104757380D01*
X80749309Y-104757380D02*
X80725500Y-104709761D01*
X80725500Y-104709761D02*
X80701690Y-104685952D01*
X80701690Y-104685952D02*
X80654071Y-104662142D01*
X80654071Y-104662142D02*
X80535023Y-104662142D01*
X80535023Y-104662142D02*
X80487404Y-104685952D01*
X80487404Y-104685952D02*
X80463595Y-104709761D01*
X80463595Y-104709761D02*
X80439785Y-104757380D01*
X80439785Y-104757380D02*
X80439785Y-104852618D01*
X80439785Y-104852618D02*
X80463595Y-104900237D01*
X80463595Y-104900237D02*
X80487404Y-104924047D01*
X80487404Y-104924047D02*
X80535023Y-104947856D01*
%TO.C,R9*%
X86727666Y-121339309D02*
X86561000Y-121101214D01*
X86441952Y-121339309D02*
X86441952Y-120839309D01*
X86441952Y-120839309D02*
X86632428Y-120839309D01*
X86632428Y-120839309D02*
X86680047Y-120863119D01*
X86680047Y-120863119D02*
X86703857Y-120886928D01*
X86703857Y-120886928D02*
X86727666Y-120934547D01*
X86727666Y-120934547D02*
X86727666Y-121005976D01*
X86727666Y-121005976D02*
X86703857Y-121053595D01*
X86703857Y-121053595D02*
X86680047Y-121077404D01*
X86680047Y-121077404D02*
X86632428Y-121101214D01*
X86632428Y-121101214D02*
X86441952Y-121101214D01*
X86965762Y-121339309D02*
X87061000Y-121339309D01*
X87061000Y-121339309D02*
X87108619Y-121315500D01*
X87108619Y-121315500D02*
X87132428Y-121291690D01*
X87132428Y-121291690D02*
X87180047Y-121220261D01*
X87180047Y-121220261D02*
X87203857Y-121125023D01*
X87203857Y-121125023D02*
X87203857Y-120934547D01*
X87203857Y-120934547D02*
X87180047Y-120886928D01*
X87180047Y-120886928D02*
X87156238Y-120863119D01*
X87156238Y-120863119D02*
X87108619Y-120839309D01*
X87108619Y-120839309D02*
X87013381Y-120839309D01*
X87013381Y-120839309D02*
X86965762Y-120863119D01*
X86965762Y-120863119D02*
X86941952Y-120886928D01*
X86941952Y-120886928D02*
X86918143Y-120934547D01*
X86918143Y-120934547D02*
X86918143Y-121053595D01*
X86918143Y-121053595D02*
X86941952Y-121101214D01*
X86941952Y-121101214D02*
X86965762Y-121125023D01*
X86965762Y-121125023D02*
X87013381Y-121148833D01*
X87013381Y-121148833D02*
X87108619Y-121148833D01*
X87108619Y-121148833D02*
X87156238Y-121125023D01*
X87156238Y-121125023D02*
X87180047Y-121101214D01*
X87180047Y-121101214D02*
X87203857Y-121053595D01*
%TO.C,U8*%
X87612309Y-113949952D02*
X88017071Y-113949952D01*
X88017071Y-113949952D02*
X88064690Y-113926142D01*
X88064690Y-113926142D02*
X88088500Y-113902333D01*
X88088500Y-113902333D02*
X88112309Y-113854714D01*
X88112309Y-113854714D02*
X88112309Y-113759476D01*
X88112309Y-113759476D02*
X88088500Y-113711857D01*
X88088500Y-113711857D02*
X88064690Y-113688047D01*
X88064690Y-113688047D02*
X88017071Y-113664238D01*
X88017071Y-113664238D02*
X87612309Y-113664238D01*
X87826595Y-113354713D02*
X87802785Y-113402332D01*
X87802785Y-113402332D02*
X87778976Y-113426142D01*
X87778976Y-113426142D02*
X87731357Y-113449951D01*
X87731357Y-113449951D02*
X87707547Y-113449951D01*
X87707547Y-113449951D02*
X87659928Y-113426142D01*
X87659928Y-113426142D02*
X87636119Y-113402332D01*
X87636119Y-113402332D02*
X87612309Y-113354713D01*
X87612309Y-113354713D02*
X87612309Y-113259475D01*
X87612309Y-113259475D02*
X87636119Y-113211856D01*
X87636119Y-113211856D02*
X87659928Y-113188047D01*
X87659928Y-113188047D02*
X87707547Y-113164237D01*
X87707547Y-113164237D02*
X87731357Y-113164237D01*
X87731357Y-113164237D02*
X87778976Y-113188047D01*
X87778976Y-113188047D02*
X87802785Y-113211856D01*
X87802785Y-113211856D02*
X87826595Y-113259475D01*
X87826595Y-113259475D02*
X87826595Y-113354713D01*
X87826595Y-113354713D02*
X87850404Y-113402332D01*
X87850404Y-113402332D02*
X87874214Y-113426142D01*
X87874214Y-113426142D02*
X87921833Y-113449951D01*
X87921833Y-113449951D02*
X88017071Y-113449951D01*
X88017071Y-113449951D02*
X88064690Y-113426142D01*
X88064690Y-113426142D02*
X88088500Y-113402332D01*
X88088500Y-113402332D02*
X88112309Y-113354713D01*
X88112309Y-113354713D02*
X88112309Y-113259475D01*
X88112309Y-113259475D02*
X88088500Y-113211856D01*
X88088500Y-113211856D02*
X88064690Y-113188047D01*
X88064690Y-113188047D02*
X88017071Y-113164237D01*
X88017071Y-113164237D02*
X87921833Y-113164237D01*
X87921833Y-113164237D02*
X87874214Y-113188047D01*
X87874214Y-113188047D02*
X87850404Y-113211856D01*
X87850404Y-113211856D02*
X87826595Y-113259475D01*
D11*
%TO.C,D8*%
X96541000Y-102862000D02*
X96541000Y-100592000D01*
X96541000Y-100592000D02*
X92481000Y-100592000D01*
X92481000Y-102862000D02*
X96541000Y-102862000D01*
%TO.C,C7*%
X87124000Y-94722733D02*
X87124000Y-95015267D01*
X86104000Y-94722733D02*
X86104000Y-95015267D01*
%TO.C,R27*%
X81403500Y-100714276D02*
X81403500Y-101223724D01*
X80358500Y-100714276D02*
X80358500Y-101223724D01*
%TO.C,C13*%
X68171000Y-110115267D02*
X68171000Y-109822733D01*
X69191000Y-110115267D02*
X69191000Y-109822733D01*
%TO.C,R1*%
X102306500Y-96114276D02*
X102306500Y-96623724D01*
X101261500Y-96114276D02*
X101261500Y-96623724D01*
%TO.C,C3*%
X91191000Y-93622733D02*
X91191000Y-93915267D01*
X90171000Y-93622733D02*
X90171000Y-93915267D01*
%TO.C,C5*%
X77227267Y-101079000D02*
X76934733Y-101079000D01*
X77227267Y-100059000D02*
X76934733Y-100059000D01*
D12*
%TO.C,Q1*%
X79331000Y-114294000D02*
X77231000Y-114294000D01*
X79331000Y-111644000D02*
X77231000Y-111644000D01*
D13*
X81062065Y-113619000D02*
G75*
G03*
X81062065Y-113619000I-125000J0D01*
G01*
D11*
%TO.C,R16*%
X93374499Y-125464721D02*
X93374499Y-124955273D01*
X94419499Y-125464721D02*
X94419499Y-124955273D01*
%TO.C,R4*%
X86233724Y-90438500D02*
X85724276Y-90438500D01*
X86233724Y-89393500D02*
X85724276Y-89393500D01*
%TO.C,R13*%
X87935724Y-116891500D02*
X87426276Y-116891500D01*
X87935724Y-115846500D02*
X87426276Y-115846500D01*
%TO.C,C20*%
X77191000Y-116022733D02*
X77191000Y-116315267D01*
X76171000Y-116022733D02*
X76171000Y-116315267D01*
%TO.C,TP1*%
X79231000Y-120569000D02*
G75*
G03*
X79231000Y-120569000I-950000J0D01*
G01*
%TO.C,R7*%
X79558500Y-116423724D02*
X79558500Y-115914276D01*
X80603500Y-116423724D02*
X80603500Y-115914276D01*
%TO.C,C24*%
X89534733Y-95659000D02*
X89827267Y-95659000D01*
X89534733Y-96679000D02*
X89827267Y-96679000D01*
%TO.C,R29*%
X101535724Y-102091500D02*
X101026276Y-102091500D01*
X101535724Y-101046500D02*
X101026276Y-101046500D01*
%TO.C,C27*%
X74734733Y-109659000D02*
X75027267Y-109659000D01*
X74734733Y-110679000D02*
X75027267Y-110679000D01*
%TO.C,C2*%
X100516000Y-95738733D02*
X100516000Y-96031267D01*
X99496000Y-95738733D02*
X99496000Y-96031267D01*
%TO.C,C14*%
X77227267Y-119079000D02*
X76934733Y-119079000D01*
X77227267Y-118059000D02*
X76934733Y-118059000D01*
%TO.C,D10*%
X97837000Y-107688000D02*
X97837000Y-105418000D01*
X97837000Y-105418000D02*
X93777000Y-105418000D01*
X93777000Y-107688000D02*
X97837000Y-107688000D01*
%TO.C,D5*%
X96821000Y-112514000D02*
X96821000Y-110244000D01*
X96821000Y-110244000D02*
X92761000Y-110244000D01*
X92761000Y-112514000D02*
X96821000Y-112514000D01*
%TO.C,TP3*%
X92831000Y-126969000D02*
G75*
G03*
X92831000Y-126969000I-950000J0D01*
G01*
%TO.C,C16*%
X72734733Y-115459000D02*
X73027267Y-115459000D01*
X72734733Y-116479000D02*
X73027267Y-116479000D01*
%TO.C,U3*%
X87181000Y-103369000D02*
X87181000Y-106569000D01*
X91381000Y-106569000D02*
X91381000Y-101869000D01*
%TO.C,D9*%
X97075000Y-105275000D02*
X97075000Y-103005000D01*
X97075000Y-103005000D02*
X93015000Y-103005000D01*
X93015000Y-105275000D02*
X97075000Y-105275000D01*
%TO.C,C17*%
X70334733Y-113459000D02*
X70627267Y-113459000D01*
X70334733Y-114479000D02*
X70627267Y-114479000D01*
D12*
%TO.C,D3*%
X85906000Y-113043999D02*
X82256000Y-113043999D01*
X85906000Y-112994000D02*
X85906000Y-113043999D01*
X85906000Y-110094000D02*
X85906000Y-110144000D01*
X85906000Y-110094000D02*
X82256000Y-110094000D01*
X82256000Y-112994000D02*
X82256000Y-113043999D01*
X82256000Y-110094000D02*
X82256000Y-110144000D01*
D13*
X81806000Y-111569000D02*
G75*
G03*
X81806000Y-111569000I-125000J0D01*
G01*
D12*
%TO.C,U2*%
X78025000Y-104131466D02*
X78025000Y-105889534D01*
X68025000Y-104131466D02*
X78025000Y-104131466D01*
X78025000Y-105889534D02*
X68025000Y-105889534D01*
X68025000Y-105889534D02*
X68025000Y-104131466D01*
D13*
X77595000Y-101182401D02*
G75*
G03*
X77595000Y-101182401I-125000J0D01*
G01*
D14*
X77575000Y-104835500D02*
G75*
G03*
X77575000Y-104835500I-250000J0D01*
G01*
D11*
%TO.C,R2*%
X88558500Y-94023724D02*
X88558500Y-93514276D01*
X89603500Y-94023724D02*
X89603500Y-93514276D01*
D15*
%TO.C,U4*%
X91256663Y-118125000D02*
X95156663Y-118125000D01*
X91256663Y-123175000D02*
X95156663Y-123175000D01*
D16*
X89266663Y-118345000D02*
G75*
G03*
X89266663Y-118345000I-100000J0D01*
G01*
D11*
%TO.C,D4*%
X96741000Y-115104000D02*
X96741000Y-112834000D01*
X96741000Y-112834000D02*
X92681000Y-112834000D01*
X92681000Y-115104000D02*
X96741000Y-115104000D01*
%TO.C,R12*%
X80558500Y-120023724D02*
X80558500Y-119514276D01*
X81603500Y-120023724D02*
X81603500Y-119514276D01*
%TO.C,U10*%
X72521000Y-113169000D02*
X72521000Y-114844000D01*
X72521000Y-113169000D02*
X72521000Y-112519000D01*
X75641000Y-113169000D02*
X75641000Y-113819000D01*
X75641000Y-113169000D02*
X75641000Y-112519000D01*
%TO.C,C11*%
X98827267Y-123079000D02*
X98534733Y-123079000D01*
X98827267Y-122059000D02*
X98534733Y-122059000D01*
%TO.C,C6*%
X85473000Y-94722733D02*
X85473000Y-95015267D01*
X84453000Y-94722733D02*
X84453000Y-95015267D01*
%TO.C,U9*%
X89583500Y-89969000D02*
X89583500Y-91644000D01*
X89583500Y-89969000D02*
X89583500Y-89319000D01*
X92703500Y-89969000D02*
X92703500Y-90619000D01*
X92703500Y-89969000D02*
X92703500Y-89319000D01*
%TO.C,R14*%
X100308500Y-118673724D02*
X100308500Y-118164276D01*
X101353500Y-118673724D02*
X101353500Y-118164276D01*
%TO.C,R5*%
X82958500Y-95111224D02*
X82958500Y-94601776D01*
X84003500Y-95111224D02*
X84003500Y-94601776D01*
%TO.C,R28*%
X86423224Y-101291500D02*
X85913776Y-101291500D01*
X86423224Y-100246500D02*
X85913776Y-100246500D01*
%TO.C,R8*%
X78358500Y-108623724D02*
X78358500Y-108114276D01*
X79403500Y-108623724D02*
X79403500Y-108114276D01*
%TO.C,C10*%
X71591000Y-99622733D02*
X71591000Y-99915267D01*
X70571000Y-99622733D02*
X70571000Y-99915267D01*
%TO.C,X1*%
X71991000Y-109649000D02*
X71991000Y-110289000D01*
X71261000Y-111529000D02*
X71951000Y-111529000D01*
X71051000Y-108609000D02*
X70711000Y-108609000D01*
X71041000Y-111329000D02*
X70711000Y-111329000D01*
X69771000Y-109649000D02*
X69771000Y-110289000D01*
X71041000Y-111329000D02*
G75*
G03*
X71261000Y-111528999I310001J120002D01*
G01*
%TO.C,R26*%
X99335724Y-112691500D02*
X98826276Y-112691500D01*
X99335724Y-111646500D02*
X98826276Y-111646500D01*
%TO.C,R18*%
X70535724Y-112891500D02*
X70026276Y-112891500D01*
X70535724Y-111846500D02*
X70026276Y-111846500D01*
%TO.C,C15*%
X98827267Y-124679000D02*
X98534733Y-124679000D01*
X98827267Y-123659000D02*
X98534733Y-123659000D01*
%TO.C,C8*%
X96427267Y-117279000D02*
X96134733Y-117279000D01*
X96427267Y-116259000D02*
X96134733Y-116259000D01*
D15*
%TO.C,U1*%
X97130000Y-97267000D02*
X93230000Y-97267000D01*
X97130000Y-92217000D02*
X93230000Y-92217000D01*
D16*
X99320000Y-97047000D02*
G75*
G03*
X99320000Y-97047000I-100000J0D01*
G01*
D11*
%TO.C,R11*%
X83203500Y-119514276D02*
X83203500Y-120023724D01*
X82158500Y-119514276D02*
X82158500Y-120023724D01*
%TO.C,C22*%
X73534733Y-100059000D02*
X73827267Y-100059000D01*
X73534733Y-101079000D02*
X73827267Y-101079000D01*
%TO.C,R6*%
X85426276Y-96846500D02*
X85935724Y-96846500D01*
X85426276Y-97891500D02*
X85935724Y-97891500D01*
%TO.C,R19*%
X79958500Y-108423724D02*
X79958500Y-107914276D01*
X81003500Y-108423724D02*
X81003500Y-107914276D01*
%TO.C,D11*%
X97837000Y-110101000D02*
X97837000Y-107831000D01*
X97837000Y-107831000D02*
X93777000Y-107831000D01*
X93777000Y-110101000D02*
X97837000Y-110101000D01*
%TO.C,C23*%
X73827267Y-99479000D02*
X73534733Y-99479000D01*
X73827267Y-98459000D02*
X73534733Y-98459000D01*
%TO.C,R10*%
X99825163Y-119914276D02*
X99825163Y-120423724D01*
X98780163Y-119914276D02*
X98780163Y-120423724D01*
%TO.C,C1*%
X94945267Y-91696000D02*
X94652733Y-91696000D01*
X94945267Y-90676000D02*
X94652733Y-90676000D01*
D16*
%TO.C,U5*%
X110609000Y-110546000D02*
X109134000Y-110546000D01*
X108784000Y-110196000D02*
X105084000Y-110196000D01*
X108784000Y-105196000D02*
X108784000Y-110196000D01*
X105084000Y-110196000D02*
X105084000Y-105196000D01*
X105084000Y-105196000D02*
X108784000Y-105196000D01*
D11*
%TO.C,C18*%
X106934733Y-113059000D02*
X107227267Y-113059000D01*
X106934733Y-114079000D02*
X107227267Y-114079000D01*
%TO.C,R25*%
X99335724Y-114491500D02*
X98826276Y-114491500D01*
X99335724Y-113446500D02*
X98826276Y-113446500D01*
%TO.C,C4*%
X76934733Y-98459000D02*
X77227267Y-98459000D01*
X76934733Y-99479000D02*
X77227267Y-99479000D01*
%TO.C,D7*%
X86741000Y-103904000D02*
X86741000Y-101634000D01*
X86741000Y-101634000D02*
X82681000Y-101634000D01*
X82681000Y-103904000D02*
X86741000Y-103904000D01*
%TO.C,R32*%
X100803500Y-108914276D02*
X100803500Y-109423724D01*
X99758500Y-108914276D02*
X99758500Y-109423724D01*
D16*
%TO.C,U6*%
X81981000Y-109453500D02*
G75*
G03*
X81981000Y-109453500I-100000J0D01*
G01*
D11*
%TO.C,C21*%
X97268663Y-120315267D02*
X97268663Y-120022733D01*
X98288663Y-120315267D02*
X98288663Y-120022733D01*
%TO.C,R3*%
X86233724Y-92089500D02*
X85724276Y-92089500D01*
X86233724Y-91044500D02*
X85724276Y-91044500D01*
%TO.C,R24*%
X107315724Y-112409500D02*
X106806276Y-112409500D01*
X107315724Y-111364500D02*
X106806276Y-111364500D01*
%TO.C,C12*%
X87871000Y-119115267D02*
X87871000Y-118822733D01*
X88891000Y-119115267D02*
X88891000Y-118822733D01*
%TO.C,R30*%
X101535724Y-103691500D02*
X101026276Y-103691500D01*
X101535724Y-102646500D02*
X101026276Y-102646500D01*
%TO.C,C19*%
X78791000Y-116022733D02*
X78791000Y-116315267D01*
X77771000Y-116022733D02*
X77771000Y-116315267D01*
%TO.C,R31*%
X99758500Y-106023724D02*
X99758500Y-105514276D01*
X100803500Y-106023724D02*
X100803500Y-105514276D01*
%TO.C,D6*%
X80979000Y-104034000D02*
X80979000Y-106304000D01*
X80979000Y-106304000D02*
X85039000Y-106304000D01*
X85039000Y-104034000D02*
X80979000Y-104034000D01*
%TO.C,R9*%
X86288500Y-119203724D02*
X86288500Y-118694276D01*
X87333500Y-119203724D02*
X87333500Y-118694276D01*
%TO.C,U8*%
X91381000Y-111819000D02*
X91381000Y-108619000D01*
X87181000Y-108619000D02*
X87181000Y-113319000D01*
%TD*%
M02*
