%TF.GenerationSoftware,KiCad,Pcbnew,7.0.1*%
%TF.CreationDate,2023-11-27T02:11:57-06:00*%
%TF.ProjectId,RoundScanner,526f756e-6453-4636-916e-6e65722e6b69,1.0*%
%TF.SameCoordinates,Original*%
%TF.FileFunction,Copper,L2,Inr*%
%TF.FilePolarity,Positive*%
%FSLAX46Y46*%
G04 Gerber Fmt 4.6, Leading zero omitted, Abs format (unit mm)*
G04 Created by KiCad (PCBNEW 7.0.1) date 2023-11-27 02:11:57*
%MOMM*%
%LPD*%
G01*
G04 APERTURE LIST*
G04 Aperture macros list*
%AMHorizOval*
0 Thick line with rounded ends*
0 $1 width*
0 $2 $3 position (X,Y) of the first rounded end (center of the circle)*
0 $4 $5 position (X,Y) of the second rounded end (center of the circle)*
0 Add line between two ends*
20,1,$1,$2,$3,$4,$5,0*
0 Add two circle primitives to create the rounded ends*
1,1,$1,$2,$3*
1,1,$1,$4,$5*%
%AMRotRect*
0 Rectangle, with rotation*
0 The origin of the aperture is its center*
0 $1 length*
0 $2 width*
0 $3 Rotation angle, in degrees counterclockwise*
0 Add horizontal line*
21,1,$1,$2,0,0,$3*%
G04 Aperture macros list end*
%TA.AperFunction,ComponentPad*%
%ADD10RotRect,1.700000X1.700000X225.000000*%
%TD*%
%TA.AperFunction,ComponentPad*%
%ADD11HorizOval,1.700000X0.000000X0.000000X0.000000X0.000000X0*%
%TD*%
%TA.AperFunction,ComponentPad*%
%ADD12RotRect,1.700000X1.700000X35.000000*%
%TD*%
%TA.AperFunction,ComponentPad*%
%ADD13HorizOval,1.700000X0.000000X0.000000X0.000000X0.000000X0*%
%TD*%
%TA.AperFunction,ComponentPad*%
%ADD14C,3.500000*%
%TD*%
%TA.AperFunction,ViaPad*%
%ADD15C,0.800000*%
%TD*%
%TA.AperFunction,Conductor*%
%ADD16C,0.250000*%
%TD*%
%TA.AperFunction,Conductor*%
%ADD17C,0.500000*%
%TD*%
G04 APERTURE END LIST*
D10*
%TO.N,GND*%
%TO.C,J2*%
X72581202Y-118754786D03*
D11*
%TO.N,+3.3V*%
X74377253Y-120550837D03*
%TO.N,SDA*%
X76173304Y-122346888D03*
%TO.N,SCL*%
X77969356Y-124142940D03*
D12*
%TO.N,GND*%
X107726327Y-99059969D03*
D13*
%TO.N,/LED/LED_RESET*%
X106269443Y-96979323D03*
%TO.N,/MCU + IO/AS7341_INT*%
X104812559Y-94898677D03*
%TO.N,/ADC/DRDY_INT*%
X103355674Y-92818030D03*
D14*
%TO.N,GND*%
X75281000Y-93569000D03*
X103281000Y-121569000D03*
%TD*%
D15*
%TO.N,SDA*%
X74681000Y-109103635D03*
X102362000Y-109982000D03*
X78881000Y-110769000D03*
%TO.N,SCL*%
X75681000Y-112769000D03*
X102487287Y-111476921D03*
X80937250Y-122425250D03*
X73281000Y-108969000D03*
X91440000Y-124769000D03*
%TO.N,+1V8*%
X80081000Y-110769000D03*
X82231000Y-115369000D03*
%TO.N,/MCU + IO/AS7341_INT*%
X80281000Y-105369000D03*
%TO.N,/ADC/DRDY_INT*%
X72390000Y-105169000D03*
%TO.N,/ADC/AIN2+*%
X72881000Y-97569000D03*
X98425000Y-117856000D03*
%TO.N,/ADC/AIN2-*%
X87899533Y-114950467D03*
X74481000Y-96769000D03*
%TO.N,GND*%
X88881000Y-121169000D03*
X99231000Y-89019000D03*
X101281000Y-114969000D03*
X84963000Y-116332000D03*
X87681000Y-88369000D03*
X110109000Y-101219000D03*
X85852000Y-92837000D03*
X108131000Y-109639000D03*
X76281000Y-104969000D03*
X101481000Y-116369000D03*
X99316188Y-116202812D03*
X95885000Y-89027000D03*
X83281000Y-109769000D03*
X85481000Y-106969000D03*
X83281000Y-122169000D03*
X78089007Y-114408549D03*
X88081000Y-97169000D03*
X106934000Y-115316000D03*
X106934000Y-117856000D03*
X110363000Y-103251000D03*
X68931000Y-104969000D03*
X92681000Y-100169000D03*
X97901000Y-98409000D03*
X84328000Y-88773000D03*
X85481000Y-108969000D03*
X100681000Y-93369000D03*
X70631000Y-105069000D03*
X93081000Y-97769000D03*
X83461000Y-106149000D03*
X72681000Y-111969000D03*
X72556500Y-110169000D03*
X95281000Y-127969000D03*
X79081000Y-118369000D03*
X79751000Y-126269000D03*
X85971000Y-128069000D03*
X104681000Y-112569000D03*
%TO.N,Net-(C2-Pad2)*%
X87081000Y-92769000D03*
X103251000Y-97155000D03*
%TO.N,Net-(D2-A)*%
X95135000Y-124257513D03*
%TO.N,Net-(U5-~{OUT0})*%
X103692257Y-111133368D03*
X108157333Y-108095500D03*
%TO.N,Net-(U5-~{OUT1})*%
X107061000Y-107315000D03*
X98681000Y-110871000D03*
%TO.N,Net-(U5-~{OUT2})*%
X106680000Y-105791000D03*
X82991000Y-99649000D03*
%TO.N,Net-(U5-~{OUT3})*%
X107569000Y-105283000D03*
X87281000Y-101969000D03*
%TO.N,/LED/LED_RESET*%
X109601000Y-111633000D03*
%TO.N,+3.3V*%
X91881000Y-115769000D03*
X90681000Y-97569000D03*
X81081000Y-103569000D03*
X95281000Y-126122497D03*
X94081000Y-116769000D03*
X89298263Y-125569000D03*
X84681000Y-113369000D03*
X105871000Y-110849000D03*
X69481000Y-114969000D03*
X83681000Y-92769000D03*
X89881000Y-88769000D03*
X91402051Y-100123252D03*
X82081000Y-117569000D03*
%TO.N,VDDA*%
X88681000Y-98969000D03*
X93481000Y-90169000D03*
X98281000Y-126169000D03*
%TD*%
D16*
%TO.N,/ADC/AIN2+*%
X78338500Y-97569000D02*
X72881000Y-97569000D01*
X89780468Y-117856000D02*
X86281000Y-114356532D01*
X86281000Y-105511500D02*
X78338500Y-97569000D01*
X98425000Y-117856000D02*
X89780468Y-117856000D01*
X86281000Y-114356532D02*
X86281000Y-105511500D01*
%TO.N,/ADC/AIN2-*%
X87899533Y-105779778D02*
X78888755Y-96769000D01*
X87899533Y-114950467D02*
X87899533Y-105779778D01*
X78888755Y-96769000D02*
X74481000Y-96769000D01*
%TO.N,Net-(C2-Pad2)*%
X98865000Y-92769000D02*
X87081000Y-92769000D01*
X103251000Y-97155000D02*
X98865000Y-92769000D01*
D17*
%TO.N,VDDA*%
X100281000Y-110569000D02*
X88681000Y-98969000D01*
X98281000Y-126169000D02*
X100281000Y-124169000D01*
X100281000Y-124169000D02*
X100281000Y-110569000D01*
%TD*%
%TA.AperFunction,Conductor*%
%TO.N,GND*%
G36*
X99566090Y-87552735D02*
G01*
X100317457Y-87960163D01*
X100322025Y-87962765D01*
X100699199Y-88188266D01*
X101120923Y-88440402D01*
X101125398Y-88443206D01*
X101879051Y-88937872D01*
X101903552Y-88953953D01*
X101907902Y-88956942D01*
X102454842Y-89349733D01*
X102663881Y-89499857D01*
X102668111Y-89503030D01*
X103400713Y-90077252D01*
X103404777Y-90080578D01*
X104056297Y-90636929D01*
X104112592Y-90685001D01*
X104116537Y-90688516D01*
X104182416Y-90749734D01*
X104798369Y-91322118D01*
X104802167Y-91325799D01*
X105456801Y-91987451D01*
X105460440Y-91991287D01*
X106086735Y-92679835D01*
X106090187Y-92683795D01*
X106161389Y-92768999D01*
X106687041Y-93398029D01*
X106690347Y-93402158D01*
X107256697Y-94140807D01*
X107259826Y-94145071D01*
X107794664Y-94906818D01*
X107797611Y-94911208D01*
X108288693Y-95677082D01*
X108300011Y-95694732D01*
X108302763Y-95699228D01*
X108595491Y-96200916D01*
X108771853Y-96503173D01*
X108774422Y-96507796D01*
X109209347Y-97330694D01*
X109211720Y-97335421D01*
X109611731Y-98175857D01*
X109613903Y-98180679D01*
X109978289Y-99037158D01*
X109980257Y-99042068D01*
X110148531Y-99488759D01*
X110272511Y-99817872D01*
X110308376Y-99913076D01*
X110310131Y-99918049D01*
X110370345Y-100100795D01*
X110601408Y-100802065D01*
X110602958Y-100807122D01*
X110856887Y-101702618D01*
X110858222Y-101707736D01*
X111074333Y-102613040D01*
X111075453Y-102618209D01*
X111253386Y-103531815D01*
X111254288Y-103537027D01*
X111393719Y-104457275D01*
X111394402Y-104462519D01*
X111495095Y-105387857D01*
X111495556Y-105393126D01*
X111557323Y-106321829D01*
X111557563Y-106327113D01*
X111580301Y-107257579D01*
X111580320Y-107262868D01*
X111563988Y-108193516D01*
X111563784Y-108198801D01*
X111508410Y-109127929D01*
X111507984Y-109133201D01*
X111413668Y-110059158D01*
X111413022Y-110064407D01*
X111279927Y-110985613D01*
X111279061Y-110990831D01*
X111107423Y-111905630D01*
X111106339Y-111910807D01*
X110896455Y-112817624D01*
X110895154Y-112822750D01*
X110647414Y-113719909D01*
X110645900Y-113724977D01*
X110360708Y-114611000D01*
X110358983Y-114615995D01*
X110356571Y-114622537D01*
X110036871Y-115489239D01*
X110034937Y-115494161D01*
X109676454Y-116353131D01*
X109674315Y-116357968D01*
X109280107Y-117201120D01*
X109277767Y-117205864D01*
X108848508Y-118031755D01*
X108845971Y-118036395D01*
X108382443Y-118843522D01*
X108379713Y-118848053D01*
X107882703Y-119635042D01*
X107879785Y-119639453D01*
X107350215Y-120404847D01*
X107347115Y-120409133D01*
X106785864Y-121151663D01*
X106782587Y-121155814D01*
X106190682Y-121874118D01*
X106187234Y-121878128D01*
X105565694Y-122570972D01*
X105562080Y-122574834D01*
X104912028Y-123240965D01*
X104908256Y-123244672D01*
X104230808Y-123882948D01*
X104226883Y-123886494D01*
X103523236Y-124495785D01*
X103519165Y-124499162D01*
X102790581Y-125078374D01*
X102786373Y-125081578D01*
X102034120Y-125629706D01*
X102029781Y-125632730D01*
X101255201Y-126148796D01*
X101250739Y-126151636D01*
X100455168Y-126634749D01*
X100450590Y-126637399D01*
X99635429Y-127086707D01*
X99630745Y-127089162D01*
X98797478Y-127503849D01*
X98792694Y-127506106D01*
X97942732Y-127885468D01*
X97937859Y-127887521D01*
X97072755Y-128230868D01*
X97067799Y-128232716D01*
X96189017Y-128539464D01*
X96183987Y-128541102D01*
X95293116Y-128810696D01*
X95288023Y-128812121D01*
X94386644Y-129044085D01*
X94381495Y-129045296D01*
X93471138Y-129239235D01*
X93465944Y-129240228D01*
X92548266Y-129395789D01*
X92543033Y-129396563D01*
X91619643Y-129513472D01*
X91614383Y-129514026D01*
X90686901Y-129592080D01*
X90681623Y-129592413D01*
X89751672Y-129631476D01*
X89746384Y-129631587D01*
X88815616Y-129631587D01*
X88810328Y-129631476D01*
X87880376Y-129592413D01*
X87875098Y-129592080D01*
X86947616Y-129514026D01*
X86942356Y-129513472D01*
X86018966Y-129396563D01*
X86013733Y-129395789D01*
X85096055Y-129240228D01*
X85090861Y-129239235D01*
X84180504Y-129045296D01*
X84175355Y-129044085D01*
X83273976Y-128812121D01*
X83268883Y-128810696D01*
X82378012Y-128541102D01*
X82372982Y-128539464D01*
X81494200Y-128232716D01*
X81489244Y-128230868D01*
X80624140Y-127887521D01*
X80619267Y-127885468D01*
X79769305Y-127506106D01*
X79764521Y-127503849D01*
X78931254Y-127089162D01*
X78926570Y-127086707D01*
X78111409Y-126637399D01*
X78106831Y-126634749D01*
X77311260Y-126151636D01*
X77306798Y-126148796D01*
X76532218Y-125632730D01*
X76527879Y-125629706D01*
X76444564Y-125568999D01*
X88592618Y-125568999D01*
X88613122Y-125737871D01*
X88673444Y-125896929D01*
X88673445Y-125896930D01*
X88770080Y-126036929D01*
X88897411Y-126149734D01*
X89048038Y-126228790D01*
X89213207Y-126269500D01*
X89383317Y-126269500D01*
X89383319Y-126269500D01*
X89548488Y-126228790D01*
X89699115Y-126149734D01*
X89729859Y-126122497D01*
X94575355Y-126122497D01*
X94595859Y-126291368D01*
X94656181Y-126450426D01*
X94656182Y-126450427D01*
X94752817Y-126590426D01*
X94880148Y-126703231D01*
X95030775Y-126782287D01*
X95195944Y-126822997D01*
X95366054Y-126822997D01*
X95366056Y-126822997D01*
X95531225Y-126782287D01*
X95681852Y-126703231D01*
X95809183Y-126590426D01*
X95905818Y-126450427D01*
X95966140Y-126291369D01*
X95986645Y-126122497D01*
X95966140Y-125953625D01*
X95905818Y-125794567D01*
X95809183Y-125654568D01*
X95681852Y-125541763D01*
X95531225Y-125462707D01*
X95366056Y-125421997D01*
X95195944Y-125421997D01*
X95030775Y-125462707D01*
X95011787Y-125472673D01*
X94880148Y-125541763D01*
X94752816Y-125654569D01*
X94656181Y-125794567D01*
X94595859Y-125953625D01*
X94575355Y-126122497D01*
X89729859Y-126122497D01*
X89826446Y-126036929D01*
X89923081Y-125896930D01*
X89983403Y-125737872D01*
X90003908Y-125569000D01*
X89983403Y-125400128D01*
X89923081Y-125241070D01*
X89826446Y-125101071D01*
X89699115Y-124988266D01*
X89548488Y-124909210D01*
X89383319Y-124868500D01*
X89213207Y-124868500D01*
X89048038Y-124909210D01*
X88993430Y-124937871D01*
X88897411Y-124988266D01*
X88770079Y-125101072D01*
X88673444Y-125241070D01*
X88613122Y-125400128D01*
X88592618Y-125568999D01*
X76444564Y-125568999D01*
X75775626Y-125081578D01*
X75771418Y-125078374D01*
X75042834Y-124499162D01*
X75038776Y-124495795D01*
X74335109Y-123886487D01*
X74331191Y-123882948D01*
X74164135Y-123725552D01*
X73674802Y-123264513D01*
X73653743Y-123244672D01*
X73649971Y-123240965D01*
X73173959Y-122753179D01*
X72999914Y-122574828D01*
X72996305Y-122570972D01*
X72795282Y-122346887D01*
X72374749Y-121878110D01*
X72371333Y-121874136D01*
X71779408Y-121155809D01*
X71776135Y-121151663D01*
X71321993Y-120550837D01*
X71214871Y-120409115D01*
X71211797Y-120404866D01*
X70706135Y-119674025D01*
X71874095Y-119674025D01*
X72400739Y-120200669D01*
X72420537Y-120216351D01*
X72525121Y-120256868D01*
X72637283Y-120256868D01*
X72741867Y-120216351D01*
X72761658Y-120200675D01*
X73268357Y-119693976D01*
X73322039Y-119662150D01*
X73384409Y-119659988D01*
X73440165Y-119688020D01*
X73475632Y-119739369D01*
X73482107Y-119801439D01*
X73458003Y-119859003D01*
X73394888Y-119942579D01*
X73299847Y-120133449D01*
X73241497Y-120338524D01*
X73221824Y-120550837D01*
X73241497Y-120763149D01*
X73299847Y-120968224D01*
X73394888Y-121159094D01*
X73394889Y-121159095D01*
X73523381Y-121329244D01*
X73664999Y-121458347D01*
X73680951Y-121472889D01*
X73862231Y-121585134D01*
X73862234Y-121585135D01*
X74061055Y-121662158D01*
X74270643Y-121701337D01*
X74483861Y-121701337D01*
X74483863Y-121701337D01*
X74693451Y-121662158D01*
X74892272Y-121585135D01*
X74915440Y-121570790D01*
X75073554Y-121472890D01*
X75089503Y-121458350D01*
X75143655Y-121429269D01*
X75205122Y-121429268D01*
X75259275Y-121458347D01*
X75293228Y-121509585D01*
X75298900Y-121570790D01*
X75274941Y-121627395D01*
X75190939Y-121738630D01*
X75095898Y-121929500D01*
X75037548Y-122134575D01*
X75017875Y-122346887D01*
X75037548Y-122559200D01*
X75095898Y-122764275D01*
X75190939Y-122955145D01*
X75255184Y-123040218D01*
X75319432Y-123125295D01*
X75461045Y-123254393D01*
X75477002Y-123268940D01*
X75658282Y-123381185D01*
X75658285Y-123381186D01*
X75857106Y-123458209D01*
X76066694Y-123497388D01*
X76279912Y-123497388D01*
X76279914Y-123497388D01*
X76489502Y-123458209D01*
X76688323Y-123381186D01*
X76715219Y-123364533D01*
X76738712Y-123349986D01*
X76869606Y-123268940D01*
X76885560Y-123254395D01*
X76939713Y-123225315D01*
X77001180Y-123225314D01*
X77055333Y-123254393D01*
X77089285Y-123305632D01*
X77094957Y-123366836D01*
X77070998Y-123423441D01*
X76986991Y-123534682D01*
X76891950Y-123725552D01*
X76833600Y-123930627D01*
X76813927Y-124142939D01*
X76833600Y-124355252D01*
X76891950Y-124560327D01*
X76986991Y-124751197D01*
X77051236Y-124836270D01*
X77115484Y-124921347D01*
X77273053Y-125064991D01*
X77273054Y-125064992D01*
X77454334Y-125177237D01*
X77454337Y-125177238D01*
X77653158Y-125254261D01*
X77862746Y-125293440D01*
X78075964Y-125293440D01*
X78075966Y-125293440D01*
X78285554Y-125254261D01*
X78484375Y-125177238D01*
X78665658Y-125064992D01*
X78823228Y-124921347D01*
X78938276Y-124769000D01*
X90734355Y-124769000D01*
X90754859Y-124937871D01*
X90815181Y-125096929D01*
X90815182Y-125096930D01*
X90911817Y-125236929D01*
X91039148Y-125349734D01*
X91189775Y-125428790D01*
X91354944Y-125469500D01*
X91525054Y-125469500D01*
X91525056Y-125469500D01*
X91690225Y-125428790D01*
X91840852Y-125349734D01*
X91968183Y-125236929D01*
X92064818Y-125096930D01*
X92125140Y-124937872D01*
X92145645Y-124769000D01*
X92125140Y-124600128D01*
X92064818Y-124441070D01*
X91968183Y-124301071D01*
X91919016Y-124257513D01*
X94429355Y-124257513D01*
X94449859Y-124426384D01*
X94510181Y-124585442D01*
X94510182Y-124585443D01*
X94606817Y-124725442D01*
X94734148Y-124838247D01*
X94884775Y-124917303D01*
X95049944Y-124958013D01*
X95220054Y-124958013D01*
X95220056Y-124958013D01*
X95385225Y-124917303D01*
X95535852Y-124838247D01*
X95663183Y-124725442D01*
X95759818Y-124585443D01*
X95820140Y-124426385D01*
X95840645Y-124257513D01*
X95820140Y-124088641D01*
X95759818Y-123929583D01*
X95663183Y-123789584D01*
X95535852Y-123676779D01*
X95385225Y-123597723D01*
X95220056Y-123557013D01*
X95049944Y-123557013D01*
X94884775Y-123597723D01*
X94734148Y-123676779D01*
X94679095Y-123725552D01*
X94606816Y-123789585D01*
X94510181Y-123929583D01*
X94449859Y-124088641D01*
X94429355Y-124257513D01*
X91919016Y-124257513D01*
X91840852Y-124188266D01*
X91690225Y-124109210D01*
X91525056Y-124068500D01*
X91354944Y-124068500D01*
X91189775Y-124109210D01*
X91039148Y-124188266D01*
X90932342Y-124282888D01*
X90911816Y-124301072D01*
X90815181Y-124441070D01*
X90754859Y-124600128D01*
X90734355Y-124769000D01*
X78938276Y-124769000D01*
X78951722Y-124751195D01*
X79046761Y-124560329D01*
X79105112Y-124355250D01*
X79124785Y-124142940D01*
X79105112Y-123930630D01*
X79046761Y-123725551D01*
X78951722Y-123534685D01*
X78823228Y-123364533D01*
X78665658Y-123220888D01*
X78665657Y-123220887D01*
X78484377Y-123108642D01*
X78285554Y-123031619D01*
X78285553Y-123031618D01*
X78075966Y-122992440D01*
X77862746Y-122992440D01*
X77723020Y-123018559D01*
X77653157Y-123031619D01*
X77454334Y-123108642D01*
X77273050Y-123220889D01*
X77257094Y-123235435D01*
X77202941Y-123264513D01*
X77141475Y-123264512D01*
X77087324Y-123235431D01*
X77053373Y-123184193D01*
X77047702Y-123122989D01*
X77071660Y-123066388D01*
X77155670Y-122955143D01*
X77250709Y-122764277D01*
X77309060Y-122559198D01*
X77321472Y-122425249D01*
X80231605Y-122425249D01*
X80252109Y-122594121D01*
X80312431Y-122753179D01*
X80312432Y-122753180D01*
X80409067Y-122893179D01*
X80536398Y-123005984D01*
X80687025Y-123085040D01*
X80852194Y-123125750D01*
X81022304Y-123125750D01*
X81022306Y-123125750D01*
X81187475Y-123085040D01*
X81338102Y-123005984D01*
X81465433Y-122893179D01*
X81562068Y-122753180D01*
X81622390Y-122594122D01*
X81642895Y-122425250D01*
X81622390Y-122256378D01*
X81562068Y-122097320D01*
X81465433Y-121957321D01*
X81338102Y-121844516D01*
X81187475Y-121765460D01*
X81022306Y-121724750D01*
X80852194Y-121724750D01*
X80687025Y-121765460D01*
X80536398Y-121844515D01*
X80536398Y-121844516D01*
X80409066Y-121957322D01*
X80312431Y-122097320D01*
X80252109Y-122256378D01*
X80231605Y-122425249D01*
X77321472Y-122425249D01*
X77328733Y-122346888D01*
X77309060Y-122134578D01*
X77250709Y-121929499D01*
X77155670Y-121738633D01*
X77027176Y-121568481D01*
X76869606Y-121424836D01*
X76869605Y-121424835D01*
X76688325Y-121312590D01*
X76489502Y-121235567D01*
X76279914Y-121196388D01*
X76066694Y-121196388D01*
X75926968Y-121222507D01*
X75857105Y-121235567D01*
X75658282Y-121312590D01*
X75476998Y-121424837D01*
X75461049Y-121439377D01*
X75406896Y-121468456D01*
X75345430Y-121468455D01*
X75291278Y-121439375D01*
X75257327Y-121388136D01*
X75251656Y-121326932D01*
X75275615Y-121270330D01*
X75359619Y-121159092D01*
X75454658Y-120968226D01*
X75513009Y-120763147D01*
X75532682Y-120550837D01*
X75513009Y-120338527D01*
X75454658Y-120133448D01*
X75359619Y-119942582D01*
X75231125Y-119772430D01*
X75073555Y-119628785D01*
X75073554Y-119628784D01*
X74892274Y-119516539D01*
X74693451Y-119439516D01*
X74483863Y-119400337D01*
X74270643Y-119400337D01*
X74135199Y-119425656D01*
X74061054Y-119439516D01*
X73862233Y-119516539D01*
X73692101Y-119621880D01*
X73634495Y-119640450D01*
X73574877Y-119630016D01*
X73527001Y-119592986D01*
X73501916Y-119537904D01*
X73505410Y-119477480D01*
X73536676Y-119425656D01*
X74027089Y-118935243D01*
X74042767Y-118915450D01*
X74083284Y-118810867D01*
X74083284Y-118698705D01*
X74042767Y-118594120D01*
X74027091Y-118574329D01*
X73500440Y-118047679D01*
X72581202Y-118966918D01*
X72581201Y-118966919D01*
X71874095Y-119674024D01*
X71874095Y-119674025D01*
X70706135Y-119674025D01*
X70682200Y-119639432D01*
X70679309Y-119635062D01*
X70182268Y-118848023D01*
X70179574Y-118843552D01*
X70160803Y-118810867D01*
X71079120Y-118810867D01*
X71119636Y-118915451D01*
X71135312Y-118935242D01*
X71661962Y-119461892D01*
X72369070Y-118754786D01*
X72369070Y-118754785D01*
X71661964Y-118047679D01*
X71661963Y-118047679D01*
X71135315Y-118574327D01*
X71119636Y-118594121D01*
X71079120Y-118698705D01*
X71079120Y-118810867D01*
X70160803Y-118810867D01*
X69716013Y-118036368D01*
X69713505Y-118031782D01*
X69611512Y-117835548D01*
X71874095Y-117835548D01*
X72581201Y-118542654D01*
X72581202Y-118542654D01*
X73288308Y-117835547D01*
X73288308Y-117835546D01*
X73021761Y-117568999D01*
X81375355Y-117568999D01*
X81395859Y-117737871D01*
X81456181Y-117896929D01*
X81456182Y-117896930D01*
X81552817Y-118036929D01*
X81680148Y-118149734D01*
X81830775Y-118228790D01*
X81995944Y-118269500D01*
X82166054Y-118269500D01*
X82166056Y-118269500D01*
X82331225Y-118228790D01*
X82481852Y-118149734D01*
X82609183Y-118036929D01*
X82705818Y-117896930D01*
X82766140Y-117737872D01*
X82786645Y-117569000D01*
X82766140Y-117400128D01*
X82705818Y-117241070D01*
X82609183Y-117101071D01*
X82481852Y-116988266D01*
X82331225Y-116909210D01*
X82166056Y-116868500D01*
X81995944Y-116868500D01*
X81830775Y-116909210D01*
X81776167Y-116937871D01*
X81680148Y-116988266D01*
X81552816Y-117101072D01*
X81456181Y-117241070D01*
X81395859Y-117400128D01*
X81375355Y-117568999D01*
X73021761Y-117568999D01*
X72761664Y-117308902D01*
X72741866Y-117293220D01*
X72637283Y-117252704D01*
X72525121Y-117252704D01*
X72420536Y-117293220D01*
X72400740Y-117308900D01*
X71874095Y-117835546D01*
X71874095Y-117835548D01*
X69611512Y-117835548D01*
X69284229Y-117205858D01*
X69281892Y-117201120D01*
X69279597Y-117196211D01*
X68887680Y-116357959D01*
X68885545Y-116353131D01*
X68884127Y-116349734D01*
X68527058Y-115494151D01*
X68525138Y-115489264D01*
X68333228Y-114968999D01*
X68775355Y-114968999D01*
X68795859Y-115137871D01*
X68856181Y-115296929D01*
X68856182Y-115296930D01*
X68952817Y-115436929D01*
X69080148Y-115549734D01*
X69230775Y-115628790D01*
X69395944Y-115669500D01*
X69566054Y-115669500D01*
X69566056Y-115669500D01*
X69731225Y-115628790D01*
X69881852Y-115549734D01*
X70009183Y-115436929D01*
X70056071Y-115369000D01*
X81525355Y-115369000D01*
X81545859Y-115537871D01*
X81606181Y-115696929D01*
X81606182Y-115696930D01*
X81702817Y-115836929D01*
X81830148Y-115949734D01*
X81980775Y-116028790D01*
X82145944Y-116069500D01*
X82316054Y-116069500D01*
X82316056Y-116069500D01*
X82481225Y-116028790D01*
X82631852Y-115949734D01*
X82759183Y-115836929D01*
X82855818Y-115696930D01*
X82916140Y-115537872D01*
X82936645Y-115369000D01*
X82916140Y-115200128D01*
X82855818Y-115041070D01*
X82759183Y-114901071D01*
X82631852Y-114788266D01*
X82481225Y-114709210D01*
X82316056Y-114668500D01*
X82145944Y-114668500D01*
X81980775Y-114709210D01*
X81971910Y-114713863D01*
X81830148Y-114788266D01*
X81702816Y-114901072D01*
X81606181Y-115041070D01*
X81545859Y-115200128D01*
X81525355Y-115369000D01*
X70056071Y-115369000D01*
X70105818Y-115296930D01*
X70166140Y-115137872D01*
X70186645Y-114969000D01*
X70166140Y-114800128D01*
X70105818Y-114641070D01*
X70009183Y-114501071D01*
X69881852Y-114388266D01*
X69731225Y-114309210D01*
X69566056Y-114268500D01*
X69395944Y-114268500D01*
X69230775Y-114309210D01*
X69181902Y-114334861D01*
X69080148Y-114388266D01*
X68952816Y-114501072D01*
X68856181Y-114641070D01*
X68795859Y-114800128D01*
X68775355Y-114968999D01*
X68333228Y-114968999D01*
X68203000Y-114615952D01*
X68201302Y-114611032D01*
X67916090Y-113724948D01*
X67914594Y-113719940D01*
X67666844Y-112822749D01*
X67665544Y-112817624D01*
X67654290Y-112769000D01*
X74975355Y-112769000D01*
X74995859Y-112937871D01*
X75056181Y-113096929D01*
X75056182Y-113096930D01*
X75152817Y-113236929D01*
X75280148Y-113349734D01*
X75430775Y-113428790D01*
X75595944Y-113469500D01*
X75766054Y-113469500D01*
X75766056Y-113469500D01*
X75931225Y-113428790D01*
X76045146Y-113368999D01*
X83975355Y-113368999D01*
X83995859Y-113537871D01*
X84056181Y-113696929D01*
X84099545Y-113759751D01*
X84152817Y-113836929D01*
X84280148Y-113949734D01*
X84430775Y-114028790D01*
X84595944Y-114069500D01*
X84766054Y-114069500D01*
X84766056Y-114069500D01*
X84931225Y-114028790D01*
X85081852Y-113949734D01*
X85209183Y-113836929D01*
X85305818Y-113696930D01*
X85366140Y-113537872D01*
X85386645Y-113369000D01*
X85366140Y-113200128D01*
X85305818Y-113041070D01*
X85209183Y-112901071D01*
X85081852Y-112788266D01*
X84931225Y-112709210D01*
X84766056Y-112668500D01*
X84595944Y-112668500D01*
X84430775Y-112709210D01*
X84280148Y-112788266D01*
X84241224Y-112822750D01*
X84152816Y-112901072D01*
X84056181Y-113041070D01*
X83995859Y-113200128D01*
X83975355Y-113368999D01*
X76045146Y-113368999D01*
X76081852Y-113349734D01*
X76209183Y-113236929D01*
X76305818Y-113096930D01*
X76366140Y-112937872D01*
X76386645Y-112769000D01*
X76366140Y-112600128D01*
X76305818Y-112441070D01*
X76209183Y-112301071D01*
X76081852Y-112188266D01*
X75931225Y-112109210D01*
X75766056Y-112068500D01*
X75595944Y-112068500D01*
X75430775Y-112109210D01*
X75378381Y-112136709D01*
X75280148Y-112188266D01*
X75152816Y-112301072D01*
X75056181Y-112441070D01*
X74995859Y-112600128D01*
X74975355Y-112769000D01*
X67654290Y-112769000D01*
X67455660Y-111910807D01*
X67454576Y-111905630D01*
X67384247Y-111530788D01*
X67282934Y-110990810D01*
X67282072Y-110985613D01*
X67280280Y-110973211D01*
X67250776Y-110768999D01*
X78175355Y-110768999D01*
X78195859Y-110937871D01*
X78256181Y-111096929D01*
X78292117Y-111148991D01*
X78352817Y-111236929D01*
X78480148Y-111349734D01*
X78630775Y-111428790D01*
X78795944Y-111469500D01*
X78966054Y-111469500D01*
X78966056Y-111469500D01*
X79131225Y-111428790D01*
X79281852Y-111349734D01*
X79397447Y-111247325D01*
X79450846Y-111219299D01*
X79511154Y-111219299D01*
X79564553Y-111247326D01*
X79680145Y-111349732D01*
X79680146Y-111349732D01*
X79680148Y-111349734D01*
X79830775Y-111428790D01*
X79995944Y-111469500D01*
X80166054Y-111469500D01*
X80166056Y-111469500D01*
X80331225Y-111428790D01*
X80481852Y-111349734D01*
X80609183Y-111236929D01*
X80705818Y-111096930D01*
X80766140Y-110937872D01*
X80786645Y-110769000D01*
X80766140Y-110600128D01*
X80705818Y-110441070D01*
X80609183Y-110301071D01*
X80481852Y-110188266D01*
X80331225Y-110109210D01*
X80166056Y-110068500D01*
X79995944Y-110068500D01*
X79830775Y-110109210D01*
X79751396Y-110150872D01*
X79680148Y-110188266D01*
X79564552Y-110290674D01*
X79511152Y-110318700D01*
X79450845Y-110318700D01*
X79397446Y-110290673D01*
X79281854Y-110188267D01*
X79233506Y-110162892D01*
X79131225Y-110109210D01*
X78966056Y-110068500D01*
X78795944Y-110068500D01*
X78630775Y-110109210D01*
X78480148Y-110188266D01*
X78454250Y-110211210D01*
X78352816Y-110301072D01*
X78256181Y-110441070D01*
X78195859Y-110600128D01*
X78175355Y-110768999D01*
X67250776Y-110768999D01*
X67148974Y-110064389D01*
X67148331Y-110059158D01*
X67054013Y-109133181D01*
X67053589Y-109127929D01*
X67044117Y-108968999D01*
X72575355Y-108968999D01*
X72595859Y-109137871D01*
X72656181Y-109296929D01*
X72673632Y-109322211D01*
X72752817Y-109436929D01*
X72880148Y-109549734D01*
X73030775Y-109628790D01*
X73195944Y-109669500D01*
X73366054Y-109669500D01*
X73366056Y-109669500D01*
X73531225Y-109628790D01*
X73681852Y-109549734D01*
X73809183Y-109436929D01*
X73833532Y-109401653D01*
X73885512Y-109358333D01*
X73952410Y-109348149D01*
X74014929Y-109374043D01*
X74055036Y-109428546D01*
X74056179Y-109431562D01*
X74113132Y-109514071D01*
X74152817Y-109571564D01*
X74280148Y-109684369D01*
X74430775Y-109763425D01*
X74595944Y-109804135D01*
X74766054Y-109804135D01*
X74766056Y-109804135D01*
X74931225Y-109763425D01*
X75081852Y-109684369D01*
X75209183Y-109571564D01*
X75305818Y-109431565D01*
X75366140Y-109272507D01*
X75386645Y-109103635D01*
X75366140Y-108934763D01*
X75305818Y-108775705D01*
X75209183Y-108635706D01*
X75081852Y-108522901D01*
X74931225Y-108443845D01*
X74766056Y-108403135D01*
X74595944Y-108403135D01*
X74430775Y-108443845D01*
X74321741Y-108501071D01*
X74280148Y-108522901D01*
X74152814Y-108635708D01*
X74128468Y-108670980D01*
X74076484Y-108714303D01*
X74009585Y-108724484D01*
X73947067Y-108698588D01*
X73906961Y-108644084D01*
X73905818Y-108641070D01*
X73809183Y-108501071D01*
X73681852Y-108388266D01*
X73531225Y-108309210D01*
X73366056Y-108268500D01*
X73195944Y-108268500D01*
X73030775Y-108309210D01*
X72880147Y-108388266D01*
X72880148Y-108388266D01*
X72752816Y-108501072D01*
X72656181Y-108641070D01*
X72595859Y-108800128D01*
X72575355Y-108968999D01*
X67044117Y-108968999D01*
X66998213Y-108198770D01*
X66998012Y-108193547D01*
X66981679Y-107262864D01*
X66981698Y-107257579D01*
X66984422Y-107146128D01*
X67004436Y-106327099D01*
X67004676Y-106321829D01*
X67066444Y-105393106D01*
X67066904Y-105387857D01*
X67068956Y-105369000D01*
X67090720Y-105168999D01*
X71684355Y-105168999D01*
X71704859Y-105337871D01*
X71765181Y-105496929D01*
X71765182Y-105496930D01*
X71861817Y-105636929D01*
X71989148Y-105749734D01*
X72139775Y-105828790D01*
X72304944Y-105869500D01*
X72475054Y-105869500D01*
X72475056Y-105869500D01*
X72640225Y-105828790D01*
X72790852Y-105749734D01*
X72918183Y-105636929D01*
X73014818Y-105496930D01*
X73063335Y-105369000D01*
X79575355Y-105369000D01*
X79576493Y-105378374D01*
X79595859Y-105537871D01*
X79656181Y-105696929D01*
X79692630Y-105749734D01*
X79752817Y-105836929D01*
X79880148Y-105949734D01*
X80030775Y-106028790D01*
X80195944Y-106069500D01*
X80366054Y-106069500D01*
X80366056Y-106069500D01*
X80531225Y-106028790D01*
X80681852Y-105949734D01*
X80809183Y-105836929D01*
X80905818Y-105696930D01*
X80966140Y-105537872D01*
X80986645Y-105369000D01*
X80966140Y-105200128D01*
X80905818Y-105041070D01*
X80809183Y-104901071D01*
X80681852Y-104788266D01*
X80531225Y-104709210D01*
X80366056Y-104668500D01*
X80195944Y-104668500D01*
X80030775Y-104709210D01*
X79880148Y-104788265D01*
X79880148Y-104788266D01*
X79752816Y-104901072D01*
X79656181Y-105041070D01*
X79595859Y-105200128D01*
X79577885Y-105348163D01*
X79575355Y-105369000D01*
X73063335Y-105369000D01*
X73075140Y-105337872D01*
X73095645Y-105169000D01*
X73075140Y-105000128D01*
X73014818Y-104841070D01*
X72918183Y-104701071D01*
X72790852Y-104588266D01*
X72640225Y-104509210D01*
X72475056Y-104468500D01*
X72304944Y-104468500D01*
X72139775Y-104509210D01*
X72000134Y-104582500D01*
X71989148Y-104588266D01*
X71861816Y-104701072D01*
X71765181Y-104841070D01*
X71704859Y-105000128D01*
X71684355Y-105168999D01*
X67090720Y-105168999D01*
X67167601Y-104462483D01*
X67168275Y-104457311D01*
X67302867Y-103568999D01*
X80375355Y-103568999D01*
X80395859Y-103737871D01*
X80456181Y-103896929D01*
X80456182Y-103896930D01*
X80552817Y-104036929D01*
X80680148Y-104149734D01*
X80830775Y-104228790D01*
X80995944Y-104269500D01*
X81166054Y-104269500D01*
X81166056Y-104269500D01*
X81331225Y-104228790D01*
X81481852Y-104149734D01*
X81609183Y-104036929D01*
X81705818Y-103896930D01*
X81766140Y-103737872D01*
X81786645Y-103569000D01*
X81766140Y-103400128D01*
X81705818Y-103241070D01*
X81609183Y-103101071D01*
X81481852Y-102988266D01*
X81331225Y-102909210D01*
X81166056Y-102868500D01*
X80995944Y-102868500D01*
X80830775Y-102909210D01*
X80680147Y-102988266D01*
X80680148Y-102988266D01*
X80552816Y-103101072D01*
X80456181Y-103241070D01*
X80395859Y-103400128D01*
X80375355Y-103568999D01*
X67302867Y-103568999D01*
X67307718Y-103536983D01*
X67308605Y-103531860D01*
X67486549Y-102618191D01*
X67487666Y-102613040D01*
X67502779Y-102549734D01*
X67703779Y-101707724D01*
X67705112Y-101702618D01*
X67762263Y-101501072D01*
X67959048Y-100807096D01*
X67960582Y-100802092D01*
X68251882Y-99918006D01*
X68253602Y-99913133D01*
X68581748Y-99042052D01*
X68583710Y-99037158D01*
X68604109Y-98989211D01*
X68948107Y-98180654D01*
X68950256Y-98175881D01*
X69239105Y-97569000D01*
X72175355Y-97569000D01*
X72195859Y-97737871D01*
X72256181Y-97896929D01*
X72299545Y-97959751D01*
X72352817Y-98036929D01*
X72480148Y-98149734D01*
X72630775Y-98228790D01*
X72795944Y-98269500D01*
X72966054Y-98269500D01*
X72966056Y-98269500D01*
X73131225Y-98228790D01*
X73281852Y-98149734D01*
X73409183Y-98036929D01*
X73409184Y-98036927D01*
X73420635Y-98026783D01*
X73422950Y-98029396D01*
X73446019Y-98008945D01*
X73504599Y-97994500D01*
X78110062Y-97994500D01*
X78158280Y-98004091D01*
X78199157Y-98031405D01*
X85818595Y-105650842D01*
X85845909Y-105691719D01*
X85855500Y-105739937D01*
X85855500Y-114423926D01*
X85862912Y-114446738D01*
X85867528Y-114465963D01*
X85871281Y-114489659D01*
X85882170Y-114511029D01*
X85889737Y-114529295D01*
X85897151Y-114552113D01*
X85911249Y-114571517D01*
X85921580Y-114588375D01*
X85932472Y-114609752D01*
X85956446Y-114633726D01*
X89431938Y-118109218D01*
X89431940Y-118109220D01*
X89527248Y-118204528D01*
X89548633Y-118215424D01*
X89565473Y-118225743D01*
X89584887Y-118239849D01*
X89602990Y-118245730D01*
X89607697Y-118247260D01*
X89625967Y-118254827D01*
X89647342Y-118265719D01*
X89671031Y-118269470D01*
X89690260Y-118274086D01*
X89713075Y-118281500D01*
X89746980Y-118281500D01*
X89847861Y-118281500D01*
X97801401Y-118281500D01*
X97859981Y-118295945D01*
X97883049Y-118316396D01*
X97885365Y-118313783D01*
X97896816Y-118323927D01*
X97896817Y-118323929D01*
X98024148Y-118436734D01*
X98174775Y-118515790D01*
X98339944Y-118556500D01*
X98510054Y-118556500D01*
X98510056Y-118556500D01*
X98675225Y-118515790D01*
X98825852Y-118436734D01*
X98953183Y-118323929D01*
X99049818Y-118183930D01*
X99110140Y-118024872D01*
X99130645Y-117856000D01*
X99110140Y-117687128D01*
X99049818Y-117528070D01*
X98953183Y-117388071D01*
X98825852Y-117275266D01*
X98675225Y-117196210D01*
X98510056Y-117155500D01*
X98339944Y-117155500D01*
X98174775Y-117196210D01*
X98024148Y-117275266D01*
X97925055Y-117363055D01*
X97885365Y-117398217D01*
X97883049Y-117395603D01*
X97859981Y-117416055D01*
X97801401Y-117430500D01*
X94715643Y-117430500D01*
X94650458Y-117412328D01*
X94604075Y-117363055D01*
X94589873Y-117296892D01*
X94611945Y-117232926D01*
X94705818Y-117096930D01*
X94766140Y-116937872D01*
X94786645Y-116769000D01*
X94766140Y-116600128D01*
X94705818Y-116441070D01*
X94609183Y-116301071D01*
X94481852Y-116188266D01*
X94331225Y-116109210D01*
X94166056Y-116068500D01*
X93995944Y-116068500D01*
X93830775Y-116109210D01*
X93680147Y-116188266D01*
X93680148Y-116188266D01*
X93552816Y-116301072D01*
X93456181Y-116441070D01*
X93395859Y-116600128D01*
X93375355Y-116768999D01*
X93395859Y-116937871D01*
X93456180Y-117096927D01*
X93456181Y-117096929D01*
X93456182Y-117096930D01*
X93550054Y-117232926D01*
X93572127Y-117296892D01*
X93557925Y-117363055D01*
X93511542Y-117412328D01*
X93446357Y-117430500D01*
X90008905Y-117430500D01*
X89960687Y-117420909D01*
X89919810Y-117393595D01*
X88295215Y-115769000D01*
X91175355Y-115769000D01*
X91195859Y-115937871D01*
X91256181Y-116096929D01*
X91256182Y-116096930D01*
X91352817Y-116236929D01*
X91480148Y-116349734D01*
X91630775Y-116428790D01*
X91795944Y-116469500D01*
X91966054Y-116469500D01*
X91966056Y-116469500D01*
X92131225Y-116428790D01*
X92281852Y-116349734D01*
X92409183Y-116236929D01*
X92505818Y-116096930D01*
X92566140Y-115937872D01*
X92586645Y-115769000D01*
X92566140Y-115600128D01*
X92505818Y-115441070D01*
X92409183Y-115301071D01*
X92281852Y-115188266D01*
X92131225Y-115109210D01*
X91966056Y-115068500D01*
X91795944Y-115068500D01*
X91630775Y-115109210D01*
X91576167Y-115137871D01*
X91480148Y-115188266D01*
X91352816Y-115301072D01*
X91256181Y-115441070D01*
X91195859Y-115600128D01*
X91175355Y-115769000D01*
X88295215Y-115769000D01*
X88262128Y-115735913D01*
X88231508Y-115686116D01*
X88226658Y-115627859D01*
X88248620Y-115573683D01*
X88292666Y-115535251D01*
X88300385Y-115531201D01*
X88427716Y-115418396D01*
X88524351Y-115278397D01*
X88584673Y-115119339D01*
X88605178Y-114950467D01*
X88584673Y-114781595D01*
X88524351Y-114622537D01*
X88427716Y-114482538D01*
X88409007Y-114465963D01*
X88367480Y-114429173D01*
X88336134Y-114386573D01*
X88325033Y-114334861D01*
X88325033Y-105712386D01*
X88320010Y-105696929D01*
X88317619Y-105689570D01*
X88313003Y-105670340D01*
X88309252Y-105646652D01*
X88298360Y-105625276D01*
X88290794Y-105607008D01*
X88283383Y-105584199D01*
X88269279Y-105564786D01*
X88258955Y-105547938D01*
X88248061Y-105526558D01*
X88152753Y-105431250D01*
X84690503Y-101969000D01*
X86575355Y-101969000D01*
X86595859Y-102137871D01*
X86656181Y-102296929D01*
X86656182Y-102296930D01*
X86752817Y-102436929D01*
X86880148Y-102549734D01*
X87030775Y-102628790D01*
X87195944Y-102669500D01*
X87366054Y-102669500D01*
X87366056Y-102669500D01*
X87531225Y-102628790D01*
X87681852Y-102549734D01*
X87809183Y-102436929D01*
X87905818Y-102296930D01*
X87966140Y-102137872D01*
X87986645Y-101969000D01*
X87966140Y-101800128D01*
X87905818Y-101641070D01*
X87809183Y-101501071D01*
X87681852Y-101388266D01*
X87531225Y-101309210D01*
X87366056Y-101268500D01*
X87195944Y-101268500D01*
X87030775Y-101309210D01*
X86880147Y-101388266D01*
X86880148Y-101388266D01*
X86752816Y-101501072D01*
X86656181Y-101641070D01*
X86595859Y-101800128D01*
X86575355Y-101969000D01*
X84690503Y-101969000D01*
X83223978Y-100502475D01*
X83193358Y-100452678D01*
X83188507Y-100394422D01*
X83210470Y-100340246D01*
X83254518Y-100301813D01*
X83391850Y-100229735D01*
X83391849Y-100229735D01*
X83391852Y-100229734D01*
X83519183Y-100116929D01*
X83615818Y-99976930D01*
X83676140Y-99817872D01*
X83696645Y-99649000D01*
X83676140Y-99480128D01*
X83615818Y-99321070D01*
X83519183Y-99181071D01*
X83391852Y-99068266D01*
X83241225Y-98989210D01*
X83159225Y-98968999D01*
X87975355Y-98968999D01*
X87995859Y-99137871D01*
X88056181Y-99296929D01*
X88056182Y-99296930D01*
X88152817Y-99436929D01*
X88280148Y-99549734D01*
X88430775Y-99628790D01*
X88571172Y-99663394D01*
X88630112Y-99696637D01*
X94143741Y-105210266D01*
X98894909Y-109961433D01*
X98927388Y-110017426D01*
X98927780Y-110082157D01*
X98895981Y-110138539D01*
X98840384Y-110171693D01*
X98775663Y-110172867D01*
X98766059Y-110170500D01*
X98766056Y-110170500D01*
X98595944Y-110170500D01*
X98430775Y-110211210D01*
X98280148Y-110290266D01*
X98164313Y-110392887D01*
X98152816Y-110403072D01*
X98056181Y-110543070D01*
X97995859Y-110702128D01*
X97975355Y-110871000D01*
X97995859Y-111039871D01*
X98056181Y-111198929D01*
X98082411Y-111236929D01*
X98152817Y-111338929D01*
X98280148Y-111451734D01*
X98430775Y-111530790D01*
X98595944Y-111571500D01*
X98766054Y-111571500D01*
X98766056Y-111571500D01*
X98931225Y-111530790D01*
X99081852Y-111451734D01*
X99209183Y-111338929D01*
X99305818Y-111198930D01*
X99366140Y-111039872D01*
X99386645Y-110871000D01*
X99372911Y-110757892D01*
X99380728Y-110696606D01*
X99416742Y-110646402D01*
X99472292Y-110619355D01*
X99534021Y-110621967D01*
X99587087Y-110653611D01*
X99693595Y-110760119D01*
X99720909Y-110800996D01*
X99730500Y-110849214D01*
X99730500Y-123888786D01*
X99720909Y-123937004D01*
X99693597Y-123977878D01*
X98593101Y-125078374D01*
X98230112Y-125441363D01*
X98171171Y-125474606D01*
X98030774Y-125509210D01*
X97968751Y-125541763D01*
X97880148Y-125588266D01*
X97831617Y-125631261D01*
X97752816Y-125701072D01*
X97656181Y-125841070D01*
X97595859Y-126000128D01*
X97575355Y-126169000D01*
X97595859Y-126337871D01*
X97656181Y-126496929D01*
X97656182Y-126496930D01*
X97752817Y-126636929D01*
X97880148Y-126749734D01*
X98030775Y-126828790D01*
X98195944Y-126869500D01*
X98366054Y-126869500D01*
X98366056Y-126869500D01*
X98531225Y-126828790D01*
X98681852Y-126749734D01*
X98809183Y-126636929D01*
X98905818Y-126496930D01*
X98966140Y-126337872D01*
X98971332Y-126295107D01*
X98983126Y-126255143D01*
X99007314Y-126221209D01*
X100662097Y-124566425D01*
X100665130Y-124563493D01*
X100712044Y-124519680D01*
X100733337Y-124484662D01*
X100740591Y-124474003D01*
X100765361Y-124441342D01*
X100771880Y-124424809D01*
X100781437Y-124405566D01*
X100790672Y-124390382D01*
X100801732Y-124350905D01*
X100805834Y-124338705D01*
X100820876Y-124300564D01*
X100822694Y-124282874D01*
X100826702Y-124261786D01*
X100831500Y-124244665D01*
X100831500Y-124203680D01*
X100832161Y-124190795D01*
X100832421Y-124188266D01*
X100836352Y-124150028D01*
X100833332Y-124132511D01*
X100831500Y-124111104D01*
X100831500Y-110580561D01*
X100831573Y-110576260D01*
X100832380Y-110552634D01*
X100833762Y-110512174D01*
X100824058Y-110472356D01*
X100821650Y-110459686D01*
X100816070Y-110419080D01*
X100808988Y-110402778D01*
X100802139Y-110382408D01*
X100797934Y-110365150D01*
X100797933Y-110365148D01*
X100777838Y-110329409D01*
X100772114Y-110317885D01*
X100755780Y-110280280D01*
X100744558Y-110266488D01*
X100732475Y-110248734D01*
X100723765Y-110233241D01*
X100694794Y-110204270D01*
X100686149Y-110194691D01*
X100660279Y-110162892D01*
X100645752Y-110152638D01*
X100629319Y-110138795D01*
X100472524Y-109982000D01*
X101656355Y-109982000D01*
X101676859Y-110150871D01*
X101737181Y-110309929D01*
X101780544Y-110372751D01*
X101833817Y-110449929D01*
X101961148Y-110562734D01*
X102111775Y-110641790D01*
X102111777Y-110641790D01*
X102125323Y-110648900D01*
X102124177Y-110651082D01*
X102155171Y-110667349D01*
X102189431Y-110716980D01*
X102196702Y-110776849D01*
X102175317Y-110833238D01*
X102130176Y-110873229D01*
X102086435Y-110896186D01*
X102086435Y-110896187D01*
X101959103Y-111008993D01*
X101862468Y-111148991D01*
X101802146Y-111308049D01*
X101781642Y-111476920D01*
X101802146Y-111645792D01*
X101862468Y-111804850D01*
X101862469Y-111804851D01*
X101959104Y-111944850D01*
X102086435Y-112057655D01*
X102237062Y-112136711D01*
X102402231Y-112177421D01*
X102572341Y-112177421D01*
X102572343Y-112177421D01*
X102737512Y-112136711D01*
X102888139Y-112057655D01*
X103015470Y-111944850D01*
X103112105Y-111804851D01*
X103120139Y-111783664D01*
X103162257Y-111727617D01*
X103227812Y-111702755D01*
X103296504Y-111716778D01*
X103442032Y-111793158D01*
X103607201Y-111833868D01*
X103777311Y-111833868D01*
X103777313Y-111833868D01*
X103942482Y-111793158D01*
X104093109Y-111714102D01*
X104184655Y-111633000D01*
X108895355Y-111633000D01*
X108915859Y-111801871D01*
X108976181Y-111960929D01*
X108976182Y-111960930D01*
X109072817Y-112100929D01*
X109200148Y-112213734D01*
X109350775Y-112292790D01*
X109515944Y-112333500D01*
X109686054Y-112333500D01*
X109686056Y-112333500D01*
X109851225Y-112292790D01*
X110001852Y-112213734D01*
X110129183Y-112100929D01*
X110225818Y-111960930D01*
X110286140Y-111801872D01*
X110306645Y-111633000D01*
X110286140Y-111464128D01*
X110225818Y-111305070D01*
X110129183Y-111165071D01*
X110001852Y-111052266D01*
X109851225Y-110973210D01*
X109686056Y-110932500D01*
X109515944Y-110932500D01*
X109350775Y-110973210D01*
X109200148Y-111052266D01*
X109108603Y-111133368D01*
X109072816Y-111165072D01*
X108976181Y-111305070D01*
X108915859Y-111464128D01*
X108895355Y-111633000D01*
X104184655Y-111633000D01*
X104220440Y-111601297D01*
X104317075Y-111461298D01*
X104377397Y-111302240D01*
X104397902Y-111133368D01*
X104377397Y-110964496D01*
X104333596Y-110849000D01*
X105165355Y-110849000D01*
X105185859Y-111017871D01*
X105246181Y-111176929D01*
X105275427Y-111219299D01*
X105342817Y-111316929D01*
X105470148Y-111429734D01*
X105620775Y-111508790D01*
X105785944Y-111549500D01*
X105956054Y-111549500D01*
X105956056Y-111549500D01*
X106121225Y-111508790D01*
X106271852Y-111429734D01*
X106399183Y-111316929D01*
X106495818Y-111176930D01*
X106556140Y-111017872D01*
X106576645Y-110849000D01*
X106556140Y-110680128D01*
X106495818Y-110521070D01*
X106399183Y-110381071D01*
X106271852Y-110268266D01*
X106121225Y-110189210D01*
X105956056Y-110148500D01*
X105785944Y-110148500D01*
X105620775Y-110189210D01*
X105470148Y-110268266D01*
X105360791Y-110365148D01*
X105342816Y-110381072D01*
X105246181Y-110521070D01*
X105185859Y-110680128D01*
X105165355Y-110849000D01*
X104333596Y-110849000D01*
X104317075Y-110805438D01*
X104220440Y-110665439D01*
X104093109Y-110552634D01*
X103942482Y-110473578D01*
X103777313Y-110432868D01*
X103607201Y-110432868D01*
X103442032Y-110473578D01*
X103291405Y-110552634D01*
X103185563Y-110646402D01*
X103164073Y-110665440D01*
X103067438Y-110805439D01*
X103059403Y-110826625D01*
X103017284Y-110882673D01*
X102951730Y-110907534D01*
X102883037Y-110893509D01*
X102723965Y-110810021D01*
X102725110Y-110807838D01*
X102694104Y-110791561D01*
X102659851Y-110741928D01*
X102652586Y-110682062D01*
X102673973Y-110625677D01*
X102719109Y-110585692D01*
X102762852Y-110562734D01*
X102890183Y-110449929D01*
X102986818Y-110309930D01*
X103047140Y-110150872D01*
X103067645Y-109982000D01*
X103047140Y-109813128D01*
X102986818Y-109654070D01*
X102890183Y-109514071D01*
X102762852Y-109401266D01*
X102612225Y-109322210D01*
X102447056Y-109281500D01*
X102276944Y-109281500D01*
X102111775Y-109322210D01*
X101961148Y-109401266D01*
X101926949Y-109431564D01*
X101833816Y-109514072D01*
X101737181Y-109654070D01*
X101676859Y-109813128D01*
X101656355Y-109982000D01*
X100472524Y-109982000D01*
X96281523Y-105790999D01*
X105974355Y-105790999D01*
X105994859Y-105959871D01*
X106055181Y-106118929D01*
X106055182Y-106118930D01*
X106151817Y-106258929D01*
X106279148Y-106371734D01*
X106429775Y-106450790D01*
X106594944Y-106491500D01*
X106594946Y-106491500D01*
X106611499Y-106491500D01*
X106675376Y-106508892D01*
X106721619Y-106556266D01*
X106737462Y-106620545D01*
X106718532Y-106683983D01*
X106670056Y-106729065D01*
X106660564Y-106734047D01*
X106660146Y-106734267D01*
X106532816Y-106847072D01*
X106436181Y-106987070D01*
X106375859Y-107146128D01*
X106355355Y-107315000D01*
X106375859Y-107483871D01*
X106436181Y-107642929D01*
X106436182Y-107642930D01*
X106532817Y-107782929D01*
X106660148Y-107895734D01*
X106810775Y-107974790D01*
X106975944Y-108015500D01*
X107146054Y-108015500D01*
X107146056Y-108015500D01*
X107295287Y-107978718D01*
X107365337Y-107981541D01*
X107423037Y-108021369D01*
X107450518Y-108085869D01*
X107472192Y-108264371D01*
X107532514Y-108423429D01*
X107575878Y-108486251D01*
X107629150Y-108563429D01*
X107756481Y-108676234D01*
X107907108Y-108755290D01*
X108072277Y-108796000D01*
X108242387Y-108796000D01*
X108242389Y-108796000D01*
X108407558Y-108755290D01*
X108558185Y-108676234D01*
X108685516Y-108563429D01*
X108782151Y-108423430D01*
X108842473Y-108264372D01*
X108862978Y-108095500D01*
X108842473Y-107926628D01*
X108782151Y-107767570D01*
X108685516Y-107627571D01*
X108558185Y-107514766D01*
X108407558Y-107435710D01*
X108242389Y-107395000D01*
X108072277Y-107395000D01*
X107923048Y-107431781D01*
X107852994Y-107428957D01*
X107795295Y-107389130D01*
X107767814Y-107324630D01*
X107746140Y-107146128D01*
X107685818Y-106987070D01*
X107685817Y-106987069D01*
X107589183Y-106847071D01*
X107461852Y-106734266D01*
X107311225Y-106655210D01*
X107146056Y-106614500D01*
X107129501Y-106614500D01*
X107065624Y-106597108D01*
X107019381Y-106549734D01*
X107003538Y-106485455D01*
X107022468Y-106422017D01*
X107070943Y-106376934D01*
X107080852Y-106371734D01*
X107208183Y-106258929D01*
X107304818Y-106118930D01*
X107327519Y-106059070D01*
X107361776Y-106009441D01*
X107415177Y-105981414D01*
X107475484Y-105981414D01*
X107483944Y-105983500D01*
X107654054Y-105983500D01*
X107654056Y-105983500D01*
X107819225Y-105942790D01*
X107969852Y-105863734D01*
X108097183Y-105750929D01*
X108193818Y-105610930D01*
X108254140Y-105451872D01*
X108274645Y-105283000D01*
X108254140Y-105114128D01*
X108193818Y-104955070D01*
X108097183Y-104815071D01*
X107969852Y-104702266D01*
X107819225Y-104623210D01*
X107654056Y-104582500D01*
X107483944Y-104582500D01*
X107318775Y-104623210D01*
X107232483Y-104668500D01*
X107168148Y-104702266D01*
X107040816Y-104815072D01*
X106944182Y-104955069D01*
X106921481Y-105014927D01*
X106887223Y-105064558D01*
X106833824Y-105092584D01*
X106773517Y-105092585D01*
X106765057Y-105090500D01*
X106765056Y-105090500D01*
X106594944Y-105090500D01*
X106429775Y-105131210D01*
X106357775Y-105168999D01*
X106279148Y-105210266D01*
X106151816Y-105323072D01*
X106055181Y-105463070D01*
X105994859Y-105622128D01*
X105974355Y-105790999D01*
X96281523Y-105790999D01*
X91506422Y-101015897D01*
X91473648Y-100958800D01*
X91474145Y-100892967D01*
X91507778Y-100836371D01*
X91565361Y-100804464D01*
X91652276Y-100783042D01*
X91802903Y-100703986D01*
X91930234Y-100591181D01*
X92026869Y-100451182D01*
X92087191Y-100292124D01*
X92107696Y-100123252D01*
X92087191Y-99954380D01*
X92044743Y-99842453D01*
X106870339Y-99842453D01*
X107297536Y-100452553D01*
X107314305Y-100471430D01*
X107410264Y-100529493D01*
X107520721Y-100548969D01*
X107630751Y-100527229D01*
X107652968Y-100515225D01*
X108263065Y-100088029D01*
X108263066Y-100088028D01*
X107689491Y-99268878D01*
X107689490Y-99268877D01*
X106870339Y-99842453D01*
X92044743Y-99842453D01*
X92026869Y-99795322D01*
X91930234Y-99655323D01*
X91802903Y-99542518D01*
X91652276Y-99463462D01*
X91487107Y-99422752D01*
X91316995Y-99422752D01*
X91151826Y-99463462D01*
X91001198Y-99542518D01*
X91001199Y-99542518D01*
X90873867Y-99655324D01*
X90777232Y-99795322D01*
X90711486Y-99968685D01*
X90707225Y-99967069D01*
X90691516Y-100004118D01*
X90634617Y-100043982D01*
X90565239Y-100047629D01*
X90504475Y-100013950D01*
X89407317Y-98916792D01*
X89383127Y-98882855D01*
X89371331Y-98842883D01*
X89366140Y-98800128D01*
X89305818Y-98641070D01*
X89298990Y-98631178D01*
X89209183Y-98501071D01*
X89081852Y-98388266D01*
X88931225Y-98309210D01*
X88766056Y-98268500D01*
X88595944Y-98268500D01*
X88430775Y-98309210D01*
X88280148Y-98388265D01*
X88280148Y-98388266D01*
X88152816Y-98501072D01*
X88056181Y-98641070D01*
X87995859Y-98800128D01*
X87975355Y-98968999D01*
X83159225Y-98968999D01*
X83076056Y-98948500D01*
X82905944Y-98948500D01*
X82740775Y-98989210D01*
X82649419Y-99037158D01*
X82590148Y-99068266D01*
X82462816Y-99181072D01*
X82366182Y-99321069D01*
X82346305Y-99373481D01*
X82310612Y-99424364D01*
X82254938Y-99451994D01*
X82192829Y-99449647D01*
X82139398Y-99417895D01*
X80290503Y-97569000D01*
X89975355Y-97569000D01*
X89995859Y-97737871D01*
X90056181Y-97896929D01*
X90099545Y-97959751D01*
X90152817Y-98036929D01*
X90280148Y-98149734D01*
X90430775Y-98228790D01*
X90595944Y-98269500D01*
X90766054Y-98269500D01*
X90766056Y-98269500D01*
X90931225Y-98228790D01*
X91081852Y-98149734D01*
X91209183Y-98036929D01*
X91305818Y-97896930D01*
X91366140Y-97737872D01*
X91386645Y-97569000D01*
X91366140Y-97400128D01*
X91305818Y-97241070D01*
X91209183Y-97101071D01*
X91081852Y-96988266D01*
X90931225Y-96909210D01*
X90766056Y-96868500D01*
X90595944Y-96868500D01*
X90430775Y-96909210D01*
X90376167Y-96937871D01*
X90280148Y-96988266D01*
X90152816Y-97101072D01*
X90056181Y-97241070D01*
X89995859Y-97400128D01*
X89975355Y-97569000D01*
X80290503Y-97569000D01*
X79165949Y-96444446D01*
X79141975Y-96420472D01*
X79141974Y-96420471D01*
X79120598Y-96409580D01*
X79103740Y-96399249D01*
X79084336Y-96385151D01*
X79061518Y-96377737D01*
X79043252Y-96370170D01*
X79021882Y-96359281D01*
X78998186Y-96355528D01*
X78978961Y-96350912D01*
X78956149Y-96343500D01*
X78956148Y-96343500D01*
X78922243Y-96343500D01*
X75104599Y-96343500D01*
X75046019Y-96329055D01*
X75022950Y-96308603D01*
X75020635Y-96311217D01*
X75009183Y-96301072D01*
X75009183Y-96301071D01*
X74881852Y-96188266D01*
X74731225Y-96109210D01*
X74566056Y-96068500D01*
X74395944Y-96068500D01*
X74230775Y-96109210D01*
X74080148Y-96188265D01*
X74080148Y-96188266D01*
X73952816Y-96301072D01*
X73856181Y-96441070D01*
X73795859Y-96600128D01*
X73775355Y-96769000D01*
X73795859Y-96937871D01*
X73809114Y-96972820D01*
X73816383Y-97032688D01*
X73794998Y-97089076D01*
X73749857Y-97129068D01*
X73691302Y-97143500D01*
X73504599Y-97143500D01*
X73446019Y-97129055D01*
X73422950Y-97108603D01*
X73420635Y-97111217D01*
X73409183Y-97101072D01*
X73409183Y-97101071D01*
X73281852Y-96988266D01*
X73131225Y-96909210D01*
X72966056Y-96868500D01*
X72795944Y-96868500D01*
X72630775Y-96909210D01*
X72576167Y-96937871D01*
X72480148Y-96988266D01*
X72352816Y-97101072D01*
X72256181Y-97241070D01*
X72195859Y-97400128D01*
X72175355Y-97569000D01*
X69239105Y-97569000D01*
X69350285Y-97335408D01*
X69352652Y-97330694D01*
X69400021Y-97241070D01*
X69787593Y-96507765D01*
X69790129Y-96503203D01*
X70259257Y-95699193D01*
X70261957Y-95694781D01*
X70764410Y-94911175D01*
X70767311Y-94906853D01*
X71302196Y-94145039D01*
X71305279Y-94140837D01*
X71871668Y-93402137D01*
X71874941Y-93398049D01*
X72400610Y-92768999D01*
X82975355Y-92768999D01*
X82995859Y-92937871D01*
X83056181Y-93096929D01*
X83056182Y-93096930D01*
X83152817Y-93236929D01*
X83280148Y-93349734D01*
X83430775Y-93428790D01*
X83595944Y-93469500D01*
X83766054Y-93469500D01*
X83766056Y-93469500D01*
X83931225Y-93428790D01*
X84081852Y-93349734D01*
X84209183Y-93236929D01*
X84305818Y-93096930D01*
X84366140Y-92937872D01*
X84386645Y-92769000D01*
X84386645Y-92768999D01*
X86375355Y-92768999D01*
X86395859Y-92937871D01*
X86456181Y-93096929D01*
X86456182Y-93096930D01*
X86552817Y-93236929D01*
X86680148Y-93349734D01*
X86830775Y-93428790D01*
X86995944Y-93469500D01*
X87166054Y-93469500D01*
X87166056Y-93469500D01*
X87331225Y-93428790D01*
X87481852Y-93349734D01*
X87609183Y-93236929D01*
X87609184Y-93236927D01*
X87620635Y-93226783D01*
X87622950Y-93229396D01*
X87646019Y-93208945D01*
X87704599Y-93194500D01*
X98636562Y-93194500D01*
X98684780Y-93204091D01*
X98725657Y-93231405D01*
X102513223Y-97018971D01*
X102543235Y-97066963D01*
X102549210Y-97123251D01*
X102545355Y-97155001D01*
X102565859Y-97323871D01*
X102626181Y-97482929D01*
X102626182Y-97482930D01*
X102722817Y-97622929D01*
X102850148Y-97735734D01*
X103000775Y-97814790D01*
X103165944Y-97855500D01*
X103336054Y-97855500D01*
X103336056Y-97855500D01*
X103501225Y-97814790D01*
X103651852Y-97735734D01*
X103779183Y-97622929D01*
X103875818Y-97482930D01*
X103936140Y-97323872D01*
X103956645Y-97155000D01*
X103936140Y-96986128D01*
X103875818Y-96827070D01*
X103779183Y-96687071D01*
X103651852Y-96574266D01*
X103501225Y-96495210D01*
X103336056Y-96454500D01*
X103204438Y-96454500D01*
X103156220Y-96444909D01*
X103115343Y-96417595D01*
X99515778Y-92818030D01*
X102200245Y-92818030D01*
X102219918Y-93030342D01*
X102278268Y-93235417D01*
X102373309Y-93426287D01*
X102398421Y-93459540D01*
X102501802Y-93596437D01*
X102655641Y-93736681D01*
X102659372Y-93740082D01*
X102840652Y-93852327D01*
X102871762Y-93864379D01*
X103039476Y-93929351D01*
X103249064Y-93968530D01*
X103462282Y-93968530D01*
X103462284Y-93968530D01*
X103671872Y-93929351D01*
X103870693Y-93852328D01*
X103905103Y-93831021D01*
X103963676Y-93812387D01*
X104024096Y-93823681D01*
X104071984Y-93862215D01*
X104095944Y-93918819D01*
X104090273Y-93980023D01*
X104056322Y-94031262D01*
X103958686Y-94120270D01*
X103830194Y-94290419D01*
X103735153Y-94481289D01*
X103676803Y-94686364D01*
X103657130Y-94898677D01*
X103676803Y-95110989D01*
X103735153Y-95316064D01*
X103830194Y-95506934D01*
X103894440Y-95592008D01*
X103958687Y-95677084D01*
X104056316Y-95766085D01*
X104116257Y-95820729D01*
X104297537Y-95932974D01*
X104297540Y-95932975D01*
X104496361Y-96009998D01*
X104705949Y-96049177D01*
X104919167Y-96049177D01*
X104919169Y-96049177D01*
X105128757Y-96009998D01*
X105327578Y-95932975D01*
X105361983Y-95911671D01*
X105420554Y-95893038D01*
X105480974Y-95904331D01*
X105528862Y-95942865D01*
X105552822Y-95999469D01*
X105547151Y-96060674D01*
X105513200Y-96111913D01*
X105415570Y-96200916D01*
X105287078Y-96371065D01*
X105192037Y-96561935D01*
X105133687Y-96767010D01*
X105114014Y-96979323D01*
X105133687Y-97191635D01*
X105192037Y-97396710D01*
X105287078Y-97587580D01*
X105313773Y-97622929D01*
X105415571Y-97757730D01*
X105568264Y-97896929D01*
X105573141Y-97901375D01*
X105754421Y-98013620D01*
X105754424Y-98013621D01*
X105953245Y-98090644D01*
X106162833Y-98129823D01*
X106376051Y-98129823D01*
X106376053Y-98129823D01*
X106585641Y-98090644D01*
X106780562Y-98015131D01*
X106840382Y-98007439D01*
X106896926Y-98028431D01*
X106937235Y-98073299D01*
X106952072Y-98131761D01*
X106938037Y-98190421D01*
X106898346Y-98235837D01*
X106333742Y-98631178D01*
X106314865Y-98647947D01*
X106256802Y-98743906D01*
X106237326Y-98854363D01*
X106259066Y-98964393D01*
X106271070Y-98986610D01*
X106698265Y-99596707D01*
X106698266Y-99596708D01*
X107412202Y-99096805D01*
X107935235Y-99096805D01*
X108508811Y-99915955D01*
X108508812Y-99915956D01*
X109118911Y-99488759D01*
X109137788Y-99471990D01*
X109195851Y-99376031D01*
X109215327Y-99265574D01*
X109193587Y-99155544D01*
X109181583Y-99133327D01*
X108754387Y-98523229D01*
X108754386Y-98523228D01*
X107935236Y-99096804D01*
X107935235Y-99096805D01*
X107412202Y-99096805D01*
X107763163Y-98851060D01*
X108582313Y-98277483D01*
X108155117Y-97667384D01*
X108138348Y-97648507D01*
X108042389Y-97590444D01*
X107931932Y-97570968D01*
X107821902Y-97592708D01*
X107799685Y-97604712D01*
X107213248Y-98015340D01*
X107154641Y-98037384D01*
X107092659Y-98028494D01*
X107042610Y-97990867D01*
X107016854Y-97933794D01*
X107021751Y-97871370D01*
X107056092Y-97819012D01*
X107123315Y-97757730D01*
X107251809Y-97587578D01*
X107346848Y-97396712D01*
X107405199Y-97191633D01*
X107424872Y-96979323D01*
X107405199Y-96767013D01*
X107346848Y-96561934D01*
X107251809Y-96371068D01*
X107238902Y-96353977D01*
X107198949Y-96301071D01*
X107123315Y-96200916D01*
X106965745Y-96057271D01*
X106965744Y-96057270D01*
X106784464Y-95945025D01*
X106585641Y-95868002D01*
X106585640Y-95868001D01*
X106376053Y-95828823D01*
X106162833Y-95828823D01*
X106023107Y-95854942D01*
X105953244Y-95868002D01*
X105754423Y-95945025D01*
X105720018Y-95966328D01*
X105661444Y-95984961D01*
X105601025Y-95973667D01*
X105553138Y-95935132D01*
X105529179Y-95878528D01*
X105534850Y-95817324D01*
X105568802Y-95766085D01*
X105666431Y-95677084D01*
X105794925Y-95506932D01*
X105889964Y-95316066D01*
X105948315Y-95110987D01*
X105967988Y-94898677D01*
X105948315Y-94686367D01*
X105889964Y-94481288D01*
X105794925Y-94290422D01*
X105666431Y-94120270D01*
X105508861Y-93976625D01*
X105508860Y-93976624D01*
X105327580Y-93864379D01*
X105128757Y-93787356D01*
X104919169Y-93748177D01*
X104705949Y-93748177D01*
X104566223Y-93774296D01*
X104496360Y-93787356D01*
X104297536Y-93864380D01*
X104263126Y-93885686D01*
X104204553Y-93904319D01*
X104144133Y-93893024D01*
X104096247Y-93854490D01*
X104072288Y-93797885D01*
X104077960Y-93736681D01*
X104111909Y-93685444D01*
X104209546Y-93596437D01*
X104338040Y-93426285D01*
X104433079Y-93235419D01*
X104491430Y-93030340D01*
X104511103Y-92818030D01*
X104491430Y-92605720D01*
X104433079Y-92400641D01*
X104338040Y-92209775D01*
X104209546Y-92039623D01*
X104051976Y-91895978D01*
X104051975Y-91895977D01*
X103870695Y-91783732D01*
X103671872Y-91706709D01*
X103462284Y-91667530D01*
X103249064Y-91667530D01*
X103109338Y-91693649D01*
X103039475Y-91706709D01*
X102840652Y-91783732D01*
X102659372Y-91895977D01*
X102501801Y-92039624D01*
X102373309Y-92209772D01*
X102278268Y-92400642D01*
X102219918Y-92605717D01*
X102200245Y-92818030D01*
X99515778Y-92818030D01*
X99142194Y-92444446D01*
X99118220Y-92420472D01*
X99118219Y-92420471D01*
X99096843Y-92409580D01*
X99079985Y-92399249D01*
X99060581Y-92385151D01*
X99037763Y-92377737D01*
X99019497Y-92370170D01*
X98998127Y-92359281D01*
X98974431Y-92355528D01*
X98955206Y-92350912D01*
X98932394Y-92343500D01*
X98932393Y-92343500D01*
X98898488Y-92343500D01*
X87704599Y-92343500D01*
X87646019Y-92329055D01*
X87622950Y-92308603D01*
X87620635Y-92311217D01*
X87609183Y-92301072D01*
X87609183Y-92301071D01*
X87481852Y-92188266D01*
X87331225Y-92109210D01*
X87166056Y-92068500D01*
X86995944Y-92068500D01*
X86830775Y-92109210D01*
X86680148Y-92188265D01*
X86680148Y-92188266D01*
X86552816Y-92301072D01*
X86456181Y-92441070D01*
X86395859Y-92600128D01*
X86375355Y-92768999D01*
X84386645Y-92768999D01*
X84366140Y-92600128D01*
X84305818Y-92441070D01*
X84209183Y-92301071D01*
X84081852Y-92188266D01*
X83931225Y-92109210D01*
X83766056Y-92068500D01*
X83595944Y-92068500D01*
X83430775Y-92109210D01*
X83280148Y-92188265D01*
X83280148Y-92188266D01*
X83152816Y-92301072D01*
X83056181Y-92441070D01*
X82995859Y-92600128D01*
X82975355Y-92768999D01*
X72400610Y-92768999D01*
X72471835Y-92683767D01*
X72475240Y-92679862D01*
X73101582Y-91991261D01*
X73105173Y-91987477D01*
X73759855Y-91325776D01*
X73763606Y-91322140D01*
X74445485Y-90688494D01*
X74449378Y-90685026D01*
X75053675Y-90168999D01*
X92775355Y-90168999D01*
X92795859Y-90337871D01*
X92856181Y-90496929D01*
X92856182Y-90496930D01*
X92952817Y-90636929D01*
X93080148Y-90749734D01*
X93230775Y-90828790D01*
X93395944Y-90869500D01*
X93566054Y-90869500D01*
X93566056Y-90869500D01*
X93731225Y-90828790D01*
X93881852Y-90749734D01*
X94009183Y-90636929D01*
X94105818Y-90496930D01*
X94166140Y-90337872D01*
X94186645Y-90169000D01*
X94166140Y-90000128D01*
X94105818Y-89841070D01*
X94009183Y-89701071D01*
X93881852Y-89588266D01*
X93731225Y-89509210D01*
X93566056Y-89468500D01*
X93395944Y-89468500D01*
X93230775Y-89509210D01*
X93080147Y-89588266D01*
X93080148Y-89588266D01*
X92952816Y-89701072D01*
X92856181Y-89841070D01*
X92795859Y-90000128D01*
X92775355Y-90168999D01*
X75053675Y-90168999D01*
X75157245Y-90080558D01*
X75161262Y-90077270D01*
X75893910Y-89503013D01*
X75898094Y-89499874D01*
X76654119Y-88956926D01*
X76658416Y-88953973D01*
X76940234Y-88769000D01*
X89175355Y-88769000D01*
X89195859Y-88937871D01*
X89256181Y-89096929D01*
X89256182Y-89096930D01*
X89352817Y-89236929D01*
X89480148Y-89349734D01*
X89630775Y-89428790D01*
X89795944Y-89469500D01*
X89966054Y-89469500D01*
X89966056Y-89469500D01*
X90131225Y-89428790D01*
X90281852Y-89349734D01*
X90409183Y-89236929D01*
X90505818Y-89096930D01*
X90566140Y-88937872D01*
X90586645Y-88769000D01*
X90566140Y-88600128D01*
X90505818Y-88441070D01*
X90409183Y-88301071D01*
X90281852Y-88188266D01*
X90131225Y-88109210D01*
X89966056Y-88068500D01*
X89795944Y-88068500D01*
X89630775Y-88109210D01*
X89480147Y-88188266D01*
X89480148Y-88188266D01*
X89352816Y-88301072D01*
X89256181Y-88441070D01*
X89195859Y-88600128D01*
X89175355Y-88769000D01*
X76940234Y-88769000D01*
X77436623Y-88443192D01*
X77441047Y-88440420D01*
X78239994Y-87962753D01*
X78244521Y-87960174D01*
X78995909Y-87552735D01*
X79055970Y-87537500D01*
X99506030Y-87537500D01*
X99566090Y-87552735D01*
G37*
%TD.AperFunction*%
%TD*%
M02*
