%TF.GenerationSoftware,KiCad,Pcbnew,7.0.1*%
%TF.CreationDate,2023-11-10T16:14:54-06:00*%
%TF.ProjectId,RoundScanner,526f756e-6453-4636-916e-6e65722e6b69,1.0*%
%TF.SameCoordinates,Original*%
%TF.FileFunction,Drillmap*%
%TF.FilePolarity,Positive*%
%FSLAX45Y45*%
G04 Gerber Fmt 4.5, Leading zero omitted, Abs format (unit mm)*
G04 Created by KiCad (PCBNEW 7.0.1) date 2023-11-10 16:14:54*
%MOMM*%
%LPD*%
G01*
G04 APERTURE LIST*
%ADD10C,0.250000*%
%ADD11C,0.200000*%
G04 APERTURE END LIST*
D10*
X7897324Y-8733500D02*
X9958876Y-8733500D01*
X7897324Y-8733500D02*
G75*
G03*
X9958876Y-8733500I1030776J-2000000D01*
G01*
D11*
X6913219Y-13308524D02*
X6913219Y-13108524D01*
X6913219Y-13108524D02*
X6960838Y-13108524D01*
X6960838Y-13108524D02*
X6989409Y-13118048D01*
X6989409Y-13118048D02*
X7008457Y-13137095D01*
X7008457Y-13137095D02*
X7017981Y-13156143D01*
X7017981Y-13156143D02*
X7027505Y-13194238D01*
X7027505Y-13194238D02*
X7027505Y-13222809D01*
X7027505Y-13222809D02*
X7017981Y-13260905D01*
X7017981Y-13260905D02*
X7008457Y-13279952D01*
X7008457Y-13279952D02*
X6989409Y-13299000D01*
X6989409Y-13299000D02*
X6960838Y-13308524D01*
X6960838Y-13308524D02*
X6913219Y-13308524D01*
X7113219Y-13308524D02*
X7113219Y-13175190D01*
X7113219Y-13213286D02*
X7122743Y-13194238D01*
X7122743Y-13194238D02*
X7132267Y-13184714D01*
X7132267Y-13184714D02*
X7151314Y-13175190D01*
X7151314Y-13175190D02*
X7170362Y-13175190D01*
X7237028Y-13308524D02*
X7237028Y-13175190D01*
X7237028Y-13108524D02*
X7227505Y-13118048D01*
X7227505Y-13118048D02*
X7237028Y-13127571D01*
X7237028Y-13127571D02*
X7246552Y-13118048D01*
X7246552Y-13118048D02*
X7237028Y-13108524D01*
X7237028Y-13108524D02*
X7237028Y-13127571D01*
X7360838Y-13308524D02*
X7341790Y-13299000D01*
X7341790Y-13299000D02*
X7332267Y-13279952D01*
X7332267Y-13279952D02*
X7332267Y-13108524D01*
X7465600Y-13308524D02*
X7446552Y-13299000D01*
X7446552Y-13299000D02*
X7437028Y-13279952D01*
X7437028Y-13279952D02*
X7437028Y-13108524D01*
X7694171Y-13308524D02*
X7694171Y-13108524D01*
X7694171Y-13108524D02*
X7760838Y-13251381D01*
X7760838Y-13251381D02*
X7827505Y-13108524D01*
X7827505Y-13108524D02*
X7827505Y-13308524D01*
X8008457Y-13308524D02*
X8008457Y-13203762D01*
X8008457Y-13203762D02*
X7998933Y-13184714D01*
X7998933Y-13184714D02*
X7979886Y-13175190D01*
X7979886Y-13175190D02*
X7941790Y-13175190D01*
X7941790Y-13175190D02*
X7922743Y-13184714D01*
X8008457Y-13299000D02*
X7989409Y-13308524D01*
X7989409Y-13308524D02*
X7941790Y-13308524D01*
X7941790Y-13308524D02*
X7922743Y-13299000D01*
X7922743Y-13299000D02*
X7913219Y-13279952D01*
X7913219Y-13279952D02*
X7913219Y-13260905D01*
X7913219Y-13260905D02*
X7922743Y-13241857D01*
X7922743Y-13241857D02*
X7941790Y-13232333D01*
X7941790Y-13232333D02*
X7989409Y-13232333D01*
X7989409Y-13232333D02*
X8008457Y-13222809D01*
X8103695Y-13175190D02*
X8103695Y-13375190D01*
X8103695Y-13184714D02*
X8122743Y-13175190D01*
X8122743Y-13175190D02*
X8160838Y-13175190D01*
X8160838Y-13175190D02*
X8179886Y-13184714D01*
X8179886Y-13184714D02*
X8189409Y-13194238D01*
X8189409Y-13194238D02*
X8198933Y-13213286D01*
X8198933Y-13213286D02*
X8198933Y-13270428D01*
X8198933Y-13270428D02*
X8189409Y-13289476D01*
X8189409Y-13289476D02*
X8179886Y-13299000D01*
X8179886Y-13299000D02*
X8160838Y-13308524D01*
X8160838Y-13308524D02*
X8122743Y-13308524D01*
X8122743Y-13308524D02*
X8103695Y-13299000D01*
X8284648Y-13289476D02*
X8294171Y-13299000D01*
X8294171Y-13299000D02*
X8284648Y-13308524D01*
X8284648Y-13308524D02*
X8275124Y-13299000D01*
X8275124Y-13299000D02*
X8284648Y-13289476D01*
X8284648Y-13289476D02*
X8284648Y-13308524D01*
X8284648Y-13184714D02*
X8294171Y-13194238D01*
X8294171Y-13194238D02*
X8284648Y-13203762D01*
X8284648Y-13203762D02*
X8275124Y-13194238D01*
X8275124Y-13194238D02*
X8284648Y-13184714D01*
X8284648Y-13184714D02*
X8284648Y-13203762D01*
M02*
