%TF.GenerationSoftware,KiCad,Pcbnew,7.0.1*%
%TF.CreationDate,2023-11-10T16:14:48-06:00*%
%TF.ProjectId,RoundScanner,526f756e-6453-4636-916e-6e65722e6b69,1.0*%
%TF.SameCoordinates,Original*%
%TF.FileFunction,Copper,L4,Bot*%
%TF.FilePolarity,Positive*%
%FSLAX46Y46*%
G04 Gerber Fmt 4.6, Leading zero omitted, Abs format (unit mm)*
G04 Created by KiCad (PCBNEW 7.0.1) date 2023-11-10 16:14:48*
%MOMM*%
%LPD*%
G01*
G04 APERTURE LIST*
G04 Aperture macros list*
%AMRoundRect*
0 Rectangle with rounded corners*
0 $1 Rounding radius*
0 $2 $3 $4 $5 $6 $7 $8 $9 X,Y pos of 4 corners*
0 Add a 4 corners polygon primitive as box body*
4,1,4,$2,$3,$4,$5,$6,$7,$8,$9,$2,$3,0*
0 Add four circle primitives for the rounded corners*
1,1,$1+$1,$2,$3*
1,1,$1+$1,$4,$5*
1,1,$1+$1,$6,$7*
1,1,$1+$1,$8,$9*
0 Add four rect primitives between the rounded corners*
20,1,$1+$1,$2,$3,$4,$5,0*
20,1,$1+$1,$4,$5,$6,$7,0*
20,1,$1+$1,$6,$7,$8,$9,0*
20,1,$1+$1,$8,$9,$2,$3,0*%
%AMHorizOval*
0 Thick line with rounded ends*
0 $1 width*
0 $2 $3 position (X,Y) of the first rounded end (center of the circle)*
0 $4 $5 position (X,Y) of the second rounded end (center of the circle)*
0 Add line between two ends*
20,1,$1,$2,$3,$4,$5,0*
0 Add two circle primitives to create the rounded ends*
1,1,$1,$2,$3*
1,1,$1,$4,$5*%
%AMRotRect*
0 Rectangle, with rotation*
0 The origin of the aperture is its center*
0 $1 length*
0 $2 width*
0 $3 Rotation angle, in degrees counterclockwise*
0 Add horizontal line*
21,1,$1,$2,0,0,$3*%
G04 Aperture macros list end*
%TA.AperFunction,ComponentPad*%
%ADD10C,3.500000*%
%TD*%
%TA.AperFunction,ComponentPad*%
%ADD11RotRect,1.700000X1.700000X45.000000*%
%TD*%
%TA.AperFunction,ComponentPad*%
%ADD12HorizOval,1.700000X0.000000X0.000000X0.000000X0.000000X0*%
%TD*%
%TA.AperFunction,ComponentPad*%
%ADD13RotRect,1.700000X1.700000X225.000000*%
%TD*%
%TA.AperFunction,ComponentPad*%
%ADD14HorizOval,1.700000X0.000000X0.000000X0.000000X0.000000X0*%
%TD*%
%TA.AperFunction,SMDPad,CuDef*%
%ADD15RoundRect,0.250000X0.325000X0.450000X-0.325000X0.450000X-0.325000X-0.450000X0.325000X-0.450000X0*%
%TD*%
%TA.AperFunction,SMDPad,CuDef*%
%ADD16RoundRect,0.150000X-0.150000X-0.625000X0.150000X-0.625000X0.150000X0.625000X-0.150000X0.625000X0*%
%TD*%
%TA.AperFunction,SMDPad,CuDef*%
%ADD17RoundRect,0.250000X-0.350000X-0.650000X0.350000X-0.650000X0.350000X0.650000X-0.350000X0.650000X0*%
%TD*%
%TA.AperFunction,ViaPad*%
%ADD18C,0.800000*%
%TD*%
%TA.AperFunction,Conductor*%
%ADD19C,0.250000*%
%TD*%
%TA.AperFunction,Conductor*%
%ADD20C,0.500000*%
%TD*%
G04 APERTURE END LIST*
%TA.AperFunction,EtchedComponent*%
%TO.C,LOGO2*%
G36*
X93223409Y-91954100D02*
G01*
X93257075Y-91965988D01*
X93309049Y-91985091D01*
X93377392Y-92010659D01*
X93460165Y-92041940D01*
X93555430Y-92078181D01*
X93661249Y-92118631D01*
X93775682Y-92162538D01*
X93896792Y-92209151D01*
X94022639Y-92257718D01*
X94151286Y-92307487D01*
X94280793Y-92357706D01*
X94409223Y-92407624D01*
X94534637Y-92456488D01*
X94655096Y-92503548D01*
X94768661Y-92548052D01*
X94873395Y-92589247D01*
X94967359Y-92626382D01*
X95048613Y-92658705D01*
X95115221Y-92685465D01*
X95165242Y-92705909D01*
X95196739Y-92719287D01*
X95207773Y-92724846D01*
X95206878Y-92726313D01*
X95191349Y-92738428D01*
X95158479Y-92760601D01*
X95110801Y-92791221D01*
X95050849Y-92828680D01*
X94981157Y-92871365D01*
X94904261Y-92917669D01*
X94879490Y-92932503D01*
X94804659Y-92977818D01*
X94737881Y-93018998D01*
X94681680Y-93054437D01*
X94638579Y-93082529D01*
X94611101Y-93101668D01*
X94601769Y-93110246D01*
X94606604Y-93120731D01*
X94622830Y-93150481D01*
X94649190Y-93196800D01*
X94684393Y-93257530D01*
X94727153Y-93330508D01*
X94776179Y-93413576D01*
X94830184Y-93504571D01*
X94887879Y-93601335D01*
X94947975Y-93701706D01*
X95009183Y-93803524D01*
X95070214Y-93904629D01*
X95129781Y-94002860D01*
X95186594Y-94096057D01*
X95239365Y-94182059D01*
X95286805Y-94258705D01*
X95312043Y-94299143D01*
X95395837Y-94431865D01*
X95479202Y-94561682D01*
X95560444Y-94686066D01*
X95637871Y-94802488D01*
X95709790Y-94908420D01*
X95774507Y-95001335D01*
X95830331Y-95078703D01*
X95875567Y-95137996D01*
X95983037Y-95265346D01*
X96100965Y-95386620D01*
X96216222Y-95484745D01*
X96329419Y-95560001D01*
X96441162Y-95612668D01*
X96552063Y-95643025D01*
X96662728Y-95651354D01*
X96773767Y-95637935D01*
X96885788Y-95603048D01*
X96963884Y-95566796D01*
X97059300Y-95508723D01*
X97153908Y-95435007D01*
X97249226Y-95344176D01*
X97346772Y-95234758D01*
X97448064Y-95105279D01*
X97554620Y-94954267D01*
X97578182Y-94918992D01*
X97625361Y-94846831D01*
X97683085Y-94757121D01*
X97750218Y-94651704D01*
X97825621Y-94532420D01*
X97908157Y-94401111D01*
X97996688Y-94259617D01*
X98090078Y-94109779D01*
X98187188Y-93953437D01*
X98286881Y-93792432D01*
X98388020Y-93628606D01*
X98489467Y-93463799D01*
X98590085Y-93299851D01*
X98688736Y-93138605D01*
X98784283Y-92981899D01*
X98875588Y-92831576D01*
X98961515Y-92689475D01*
X99040924Y-92557439D01*
X99112680Y-92437307D01*
X99175644Y-92330920D01*
X99217119Y-92260944D01*
X99256749Y-92195135D01*
X99291060Y-92139238D01*
X99318371Y-92095961D01*
X99336998Y-92068010D01*
X99345260Y-92058092D01*
X99353030Y-92061732D01*
X99379799Y-92076210D01*
X99423511Y-92100598D01*
X99482044Y-92133689D01*
X99553280Y-92174280D01*
X99635098Y-92221165D01*
X99725378Y-92273140D01*
X99822000Y-92329000D01*
X99832140Y-92334874D01*
X99941157Y-92398100D01*
X100031259Y-92450583D01*
X100104174Y-92493453D01*
X100161627Y-92527839D01*
X100205345Y-92554870D01*
X100237054Y-92575674D01*
X100258480Y-92591381D01*
X100271351Y-92603120D01*
X100277391Y-92612018D01*
X100278328Y-92619207D01*
X100275888Y-92625813D01*
X100261510Y-92652204D01*
X100235172Y-92699491D01*
X100199425Y-92763038D01*
X100155638Y-92840453D01*
X100105178Y-92929343D01*
X100049413Y-93027315D01*
X99989711Y-93131975D01*
X99927439Y-93240932D01*
X99863965Y-93351792D01*
X99800658Y-93462162D01*
X99738884Y-93569650D01*
X99680011Y-93671862D01*
X99625408Y-93766406D01*
X99576442Y-93850889D01*
X99534480Y-93922917D01*
X99513044Y-93959553D01*
X99355164Y-94227381D01*
X99206083Y-94476520D01*
X99064243Y-94709485D01*
X98928084Y-94928791D01*
X98796048Y-95136953D01*
X98666574Y-95336486D01*
X98538103Y-95529905D01*
X98517675Y-95560220D01*
X98433490Y-95682940D01*
X98357835Y-95788930D01*
X98288011Y-95881561D01*
X98221320Y-95964204D01*
X98155064Y-96040232D01*
X98086545Y-96113014D01*
X98013065Y-96185923D01*
X97962013Y-96233745D01*
X97797976Y-96369086D01*
X97626985Y-96482476D01*
X97447171Y-96574785D01*
X97256669Y-96646881D01*
X97053610Y-96699635D01*
X96836129Y-96733914D01*
X96820901Y-96735502D01*
X96742705Y-96741037D01*
X96651349Y-96744250D01*
X96554242Y-96745143D01*
X96458787Y-96743714D01*
X96372393Y-96739965D01*
X96302465Y-96733896D01*
X96257652Y-96727882D01*
X96082974Y-96693105D01*
X95917271Y-96640815D01*
X95759128Y-96570089D01*
X95607127Y-96480006D01*
X95459851Y-96369644D01*
X95315882Y-96238082D01*
X95173803Y-96084396D01*
X95032197Y-95907667D01*
X94977659Y-95833641D01*
X94899039Y-95723004D01*
X94811498Y-95596202D01*
X94716695Y-95455846D01*
X94616291Y-95304546D01*
X94511946Y-95144913D01*
X94405319Y-94979558D01*
X94298071Y-94811092D01*
X94191860Y-94642125D01*
X94088347Y-94475268D01*
X93989192Y-94313133D01*
X93896055Y-94158329D01*
X93810595Y-94013468D01*
X93734472Y-93881160D01*
X93669347Y-93764017D01*
X93667658Y-93760930D01*
X93646088Y-93724660D01*
X93627726Y-93699033D01*
X93616387Y-93689425D01*
X93613887Y-93690265D01*
X93594021Y-93700378D01*
X93557172Y-93720747D01*
X93505975Y-93749865D01*
X93443069Y-93786222D01*
X93371089Y-93828310D01*
X93292673Y-93874620D01*
X93262106Y-93892741D01*
X93186619Y-93937335D01*
X93119078Y-93977015D01*
X93062013Y-94010310D01*
X93017957Y-94035745D01*
X92989441Y-94051847D01*
X92978996Y-94057144D01*
X92979712Y-94047140D01*
X92982730Y-94014898D01*
X92987918Y-93962061D01*
X92995100Y-93890333D01*
X93004104Y-93801419D01*
X93014754Y-93697024D01*
X93026877Y-93578854D01*
X93040298Y-93448612D01*
X93054845Y-93308005D01*
X93070343Y-93158736D01*
X93086617Y-93002511D01*
X93103350Y-92842904D01*
X93123553Y-92652639D01*
X93141596Y-92485777D01*
X93157510Y-92342047D01*
X93171329Y-92221175D01*
X93183083Y-92122891D01*
X93192805Y-92046921D01*
X93200527Y-91992993D01*
X93206280Y-91960835D01*
X93210097Y-91950174D01*
X93223409Y-91954100D01*
G37*
%TD.AperFunction*%
%TD*%
D10*
%TO.P,H2,1,1*%
%TO.N,GND*%
X72136000Y-97556000D03*
%TD*%
%TO.P,H1,1,1*%
%TO.N,GND*%
X103632000Y-115717000D03*
%TD*%
D11*
%TO.P,J4,1,Pin_1*%
%TO.N,GND*%
X106881000Y-96369000D03*
D12*
%TO.P,J4,2,Pin_2*%
%TO.N,/LED/LED_RESET*%
X105084949Y-94572949D03*
%TO.P,J4,3,Pin_3*%
%TO.N,/MCU + IO/AS7341_INT*%
X103288898Y-92776898D03*
%TO.P,J4,4,Pin_4*%
%TO.N,/ADC/DRDY_INT*%
X101492846Y-90980846D03*
%TD*%
D13*
%TO.P,J1,1,Pin_1*%
%TO.N,GND*%
X77975672Y-121628317D03*
D14*
%TO.P,J1,2,Pin_2*%
%TO.N,VCC*%
X79771723Y-123424368D03*
%TO.P,J1,3,Pin_3*%
%TO.N,SDA*%
X81567774Y-125220419D03*
%TO.P,J1,4,Pin_4*%
%TO.N,SCL*%
X83363826Y-127016471D03*
%TD*%
D15*
%TO.P,D2,1,K*%
%TO.N,GND*%
X98481000Y-124369000D03*
%TO.P,D2,2,A*%
%TO.N,Net-(D2-A)*%
X96431000Y-124369000D03*
%TD*%
D16*
%TO.P,J3,1,Pin_1*%
%TO.N,GND*%
X88381000Y-127169000D03*
%TO.P,J3,2,Pin_2*%
%TO.N,VCC*%
X89381000Y-127169000D03*
%TO.P,J3,3,Pin_3*%
%TO.N,SDA*%
X90381000Y-127169000D03*
%TO.P,J3,4,Pin_4*%
%TO.N,SCL*%
X91381000Y-127169000D03*
D17*
%TO.P,J3,MP,Pin_5*%
%TO.N,GND*%
X87081000Y-123294000D03*
X92681000Y-123294000D03*
%TD*%
D18*
%TO.N,/ADC/AIN+*%
X80081000Y-96569000D03*
X78867000Y-90424000D03*
%TO.N,SDA*%
X75381000Y-109069000D03*
X102362000Y-109982000D03*
X90081000Y-124569000D03*
X83819942Y-123004567D03*
X79536989Y-111252000D03*
%TO.N,SCL*%
X102487287Y-111476921D03*
X85641000Y-123059000D03*
X75315299Y-110569000D03*
X91440000Y-124769000D03*
%TO.N,+1V8*%
X80141999Y-109974704D03*
X82231000Y-115369000D03*
%TO.N,/MCU + IO/AS7341_INT*%
X79681000Y-105369000D03*
%TO.N,/ADC/DRDY_INT*%
X72390000Y-105169000D03*
%TO.N,/ADC/AIN2+*%
X75565000Y-92583000D03*
X98425000Y-117856000D03*
%TO.N,/ADC/AIN2-*%
X87899533Y-114950467D03*
X77597000Y-90678000D03*
%TO.N,GND*%
X105881000Y-120369000D03*
X99231000Y-89019000D03*
X104481000Y-121969000D03*
X84963000Y-116332000D03*
X87681000Y-88369000D03*
X107696000Y-98171000D03*
X85852000Y-92837000D03*
X108131000Y-109639000D03*
X99316188Y-116202812D03*
X95885000Y-89027000D03*
X102881000Y-123369000D03*
X70681000Y-117569000D03*
X81601000Y-110099000D03*
X85481000Y-106969000D03*
X76481000Y-114769000D03*
X106934000Y-115316000D03*
X106934000Y-117856000D03*
X108839000Y-99568000D03*
X97901000Y-98409000D03*
X84328000Y-88773000D03*
X85481000Y-108969000D03*
X100681000Y-93369000D03*
X73571000Y-113649000D03*
X83461000Y-106149000D03*
X73281000Y-109569000D03*
X95281000Y-127969000D03*
X79751000Y-126269000D03*
X78525250Y-116524750D03*
X85971000Y-128069000D03*
%TO.N,Net-(C2-Pad2)*%
X88048500Y-91816701D03*
X103251000Y-97155000D03*
%TO.N,Net-(D2-A)*%
X95135000Y-124257513D03*
%TO.N,Net-(U5-~{OUT0})*%
X103692257Y-111133368D03*
X108157333Y-108095500D03*
%TO.N,Net-(U5-~{OUT1})*%
X107061000Y-107315000D03*
X98681000Y-110871000D03*
%TO.N,Net-(U5-~{OUT2})*%
X106680000Y-105791000D03*
X82991000Y-99649000D03*
%TO.N,Net-(U5-~{OUT3})*%
X107569000Y-105283000D03*
X84391000Y-99629000D03*
%TO.N,/LED/LED_RESET*%
X109601000Y-111633000D03*
%TO.N,+3.3V*%
X91881000Y-115769000D03*
X90574204Y-96811500D03*
X81081000Y-103569000D03*
X76200000Y-105410000D03*
X95281000Y-126122497D03*
X73681000Y-116369000D03*
X107161501Y-103758999D03*
X93726000Y-116967000D03*
X85281000Y-109969000D03*
X75081000Y-116369000D03*
X105871000Y-110849000D03*
X83281000Y-94969000D03*
X90998812Y-92649812D03*
X91402051Y-100123252D03*
X83185000Y-116459000D03*
%TO.N,VDDA*%
X89681000Y-97569000D03*
X93481000Y-90169000D03*
X98281000Y-126169000D03*
%TO.N,Net-(U2-AVDD{slash}LDO)*%
X78681000Y-102569000D03*
X78411285Y-107574192D03*
X85681000Y-98569000D03*
%TD*%
D19*
%TO.N,SDA*%
X90416000Y-124904000D02*
X90081000Y-124569000D01*
X90081000Y-122263000D02*
X90081000Y-124569000D01*
X90416000Y-126968000D02*
X90416000Y-124904000D01*
X102362000Y-109982000D02*
X90081000Y-122263000D01*
%TO.N,SCL*%
X102487287Y-111508417D02*
X91440000Y-122555704D01*
X91440000Y-126944000D02*
X91440000Y-124769000D01*
X91440000Y-122555704D02*
X91440000Y-124769000D01*
%TO.N,+1V8*%
X82231000Y-115369000D02*
X82231000Y-112063705D01*
X82231000Y-112063705D02*
X80141999Y-109974704D01*
%TO.N,/MCU + IO/AS7341_INT*%
X85928518Y-96393000D02*
X83439000Y-96393000D01*
X98903499Y-90394499D02*
X94931097Y-90394499D01*
X93077018Y-89244500D02*
X85928518Y-96393000D01*
X93781098Y-89244500D02*
X93077018Y-89244500D01*
X79681000Y-100151000D02*
X79681000Y-105369000D01*
X83439000Y-96393000D02*
X79681000Y-100151000D01*
X94931097Y-90394499D02*
X93781098Y-89244500D01*
X103288898Y-92776898D02*
X101285898Y-92776898D01*
X101285898Y-92776898D02*
X98903499Y-90394499D01*
%TO.N,/ADC/DRDY_INT*%
X100456844Y-89944844D02*
X95117132Y-89944844D01*
X93967287Y-88794999D02*
X92555001Y-88794999D01*
X95117132Y-89944844D02*
X93967287Y-88794999D01*
X72631000Y-105169000D02*
X72390000Y-105169000D01*
X85431000Y-95919000D02*
X81881000Y-95919000D01*
X92555001Y-88794999D02*
X85431000Y-95919000D01*
X101492846Y-90980846D02*
X100456844Y-89944844D01*
X81881000Y-95919000D02*
X72631000Y-105169000D01*
%TO.N,GND*%
X98561000Y-124460000D02*
X99695000Y-124460000D01*
X99695000Y-124460000D02*
X100203000Y-123952000D01*
%TO.N,Net-(D2-A)*%
X96308513Y-124257513D02*
X95135000Y-124257513D01*
%TO.N,Net-(U5-~{OUT0})*%
X108157333Y-108095500D02*
X106854500Y-108095500D01*
X103816632Y-111133368D02*
X103692257Y-111133368D01*
X106854500Y-108095500D02*
X103816632Y-111133368D01*
%TO.N,Net-(U5-~{OUT1})*%
X102237000Y-107315000D02*
X98681000Y-110871000D01*
X107061000Y-107315000D02*
X102237000Y-107315000D01*
%TO.N,Net-(U5-~{OUT2})*%
X106680000Y-105791000D02*
X89133000Y-105791000D01*
X89133000Y-105791000D02*
X82991000Y-99649000D01*
%TO.N,Net-(U5-~{OUT3})*%
X107569000Y-105283000D02*
X107329501Y-105043501D01*
X89805501Y-105043501D02*
X84391000Y-99629000D01*
X107329501Y-105043501D02*
X89805501Y-105043501D01*
%TO.N,/LED/LED_RESET*%
X104481000Y-95176898D02*
X105084949Y-94572949D01*
X109601000Y-111633000D02*
X109601000Y-102031439D01*
X104481000Y-96911439D02*
X104481000Y-95176898D01*
X109601000Y-102031439D02*
X104481000Y-96911439D01*
D20*
%TO.N,VCC*%
X89408000Y-125476000D02*
X84588000Y-125476000D01*
X89408000Y-126960000D02*
X89408000Y-125476000D01*
X84588000Y-125476000D02*
X82536368Y-123424368D01*
X82536368Y-123424368D02*
X79771723Y-123424368D01*
%TO.N,VDDA*%
X89681000Y-97569000D02*
X89681000Y-95169000D01*
X92528996Y-91121004D02*
X93481000Y-90169000D01*
X89681000Y-95169000D02*
X92528996Y-92321004D01*
X92528996Y-92321004D02*
X92528996Y-91121004D01*
%TD*%
%TA.AperFunction,Conductor*%
%TO.N,GND*%
G36*
X99566090Y-87550735D02*
G01*
X100317457Y-87958163D01*
X100322025Y-87960765D01*
X101120923Y-88438402D01*
X101125398Y-88441206D01*
X101790151Y-88877522D01*
X101903552Y-88951953D01*
X101907902Y-88954942D01*
X102564795Y-89426697D01*
X102663881Y-89497857D01*
X102668111Y-89501030D01*
X103400713Y-90075252D01*
X103404777Y-90078578D01*
X104112592Y-90683001D01*
X104116537Y-90686516D01*
X104785131Y-91307816D01*
X104798369Y-91320118D01*
X104802167Y-91323799D01*
X105444440Y-91972958D01*
X105456801Y-91985451D01*
X105460440Y-91989287D01*
X106086735Y-92677835D01*
X106090187Y-92681795D01*
X106417591Y-93073587D01*
X106687041Y-93396029D01*
X106690347Y-93400158D01*
X107256697Y-94138807D01*
X107259826Y-94143071D01*
X107782976Y-94888172D01*
X107794664Y-94904818D01*
X107797612Y-94909210D01*
X108255765Y-95623729D01*
X108275269Y-95681364D01*
X108265490Y-95741420D01*
X108228707Y-95789890D01*
X108173500Y-95815471D01*
X108112742Y-95812199D01*
X108060602Y-95780835D01*
X107906305Y-95626538D01*
X107906304Y-95626538D01*
X107163843Y-96369000D01*
X107163843Y-96369001D01*
X107906303Y-97111461D01*
X107906305Y-97111461D01*
X108388179Y-96629586D01*
X108443927Y-96552858D01*
X108485092Y-96426166D01*
X108514820Y-96377027D01*
X108563269Y-96346187D01*
X108620372Y-96340052D01*
X108674266Y-96359898D01*
X108713754Y-96401601D01*
X108728088Y-96426166D01*
X108771861Y-96501187D01*
X108774422Y-96505796D01*
X109209347Y-97328694D01*
X109211720Y-97333421D01*
X109611731Y-98173857D01*
X109613903Y-98178679D01*
X109978289Y-99035158D01*
X109980257Y-99040068D01*
X110151046Y-99493436D01*
X110300822Y-99891025D01*
X110308376Y-99911076D01*
X110310131Y-99916049D01*
X110393513Y-100169109D01*
X110601408Y-100800065D01*
X110602958Y-100805122D01*
X110856887Y-101700618D01*
X110858222Y-101705736D01*
X111074333Y-102611040D01*
X111075453Y-102616209D01*
X111253386Y-103529815D01*
X111254288Y-103535027D01*
X111393719Y-104455275D01*
X111394402Y-104460519D01*
X111495095Y-105385857D01*
X111495556Y-105391126D01*
X111557323Y-106319829D01*
X111557563Y-106325113D01*
X111580301Y-107255579D01*
X111580320Y-107260868D01*
X111563988Y-108191516D01*
X111563784Y-108196801D01*
X111508410Y-109125929D01*
X111507984Y-109131201D01*
X111413668Y-110057158D01*
X111413022Y-110062407D01*
X111279927Y-110983613D01*
X111279061Y-110988831D01*
X111107423Y-111903630D01*
X111106339Y-111908807D01*
X110896455Y-112815624D01*
X110895154Y-112820750D01*
X110647414Y-113717909D01*
X110645900Y-113722977D01*
X110360708Y-114609000D01*
X110358982Y-114614000D01*
X110036871Y-115487239D01*
X110034937Y-115492161D01*
X109676454Y-116351131D01*
X109674315Y-116355968D01*
X109280107Y-117199120D01*
X109277767Y-117203864D01*
X108848508Y-118029755D01*
X108845971Y-118034395D01*
X108382443Y-118841522D01*
X108379713Y-118846053D01*
X107882703Y-119633042D01*
X107879785Y-119637453D01*
X107350215Y-120402847D01*
X107347115Y-120407133D01*
X106785864Y-121149663D01*
X106782587Y-121153814D01*
X106190682Y-121872118D01*
X106187234Y-121876128D01*
X105565694Y-122568972D01*
X105562080Y-122572834D01*
X104912028Y-123238965D01*
X104908256Y-123242672D01*
X104230808Y-123880948D01*
X104226883Y-123884494D01*
X103523236Y-124493785D01*
X103519165Y-124497162D01*
X102790581Y-125076374D01*
X102786373Y-125079578D01*
X102034120Y-125627706D01*
X102029781Y-125630730D01*
X101255201Y-126146796D01*
X101250739Y-126149636D01*
X100455168Y-126632749D01*
X100450590Y-126635399D01*
X99635429Y-127084707D01*
X99630745Y-127087162D01*
X98797478Y-127501849D01*
X98792694Y-127504106D01*
X97942732Y-127883468D01*
X97937859Y-127885521D01*
X97072755Y-128228868D01*
X97067799Y-128230716D01*
X96189017Y-128537464D01*
X96183987Y-128539102D01*
X95293116Y-128808696D01*
X95288023Y-128810121D01*
X94386644Y-129042085D01*
X94381495Y-129043296D01*
X93471138Y-129237235D01*
X93465944Y-129238228D01*
X92548266Y-129393789D01*
X92543033Y-129394563D01*
X91619643Y-129511472D01*
X91614383Y-129512026D01*
X90686901Y-129590080D01*
X90681623Y-129590413D01*
X89751672Y-129629476D01*
X89746384Y-129629587D01*
X88815616Y-129629587D01*
X88810328Y-129629476D01*
X87880376Y-129590413D01*
X87875098Y-129590080D01*
X86947616Y-129512026D01*
X86942356Y-129511472D01*
X86018966Y-129394563D01*
X86013733Y-129393789D01*
X85096055Y-129238228D01*
X85090861Y-129237235D01*
X84180504Y-129043296D01*
X84175355Y-129042085D01*
X83273976Y-128810121D01*
X83268883Y-128808696D01*
X82378012Y-128539102D01*
X82372982Y-128537464D01*
X81494200Y-128230716D01*
X81489244Y-128228868D01*
X80624140Y-127885521D01*
X80619267Y-127883468D01*
X79769305Y-127504106D01*
X79764521Y-127501849D01*
X78931254Y-127087162D01*
X78926570Y-127084707D01*
X78111409Y-126635399D01*
X78106831Y-126632749D01*
X77561762Y-126301754D01*
X77311257Y-126149634D01*
X77306798Y-126146796D01*
X77214987Y-126085627D01*
X76616173Y-125686665D01*
X76532218Y-125630730D01*
X76527879Y-125627706D01*
X75775626Y-125079578D01*
X75771418Y-125076374D01*
X75042834Y-124497162D01*
X75038776Y-124493795D01*
X74335109Y-123884487D01*
X74331191Y-123880948D01*
X74313801Y-123864564D01*
X73653743Y-123242672D01*
X73649971Y-123238965D01*
X73347656Y-122929172D01*
X72999914Y-122572828D01*
X72996305Y-122568972D01*
X72985330Y-122556738D01*
X72374749Y-121876110D01*
X72371333Y-121872136D01*
X72222624Y-121691671D01*
X76373590Y-121691671D01*
X76412745Y-121812177D01*
X76468486Y-121888898D01*
X76950366Y-122370778D01*
X77692829Y-121628317D01*
X77692829Y-121628316D01*
X76950368Y-120885855D01*
X76950367Y-120885855D01*
X76468489Y-121367734D01*
X76412744Y-121444458D01*
X76373590Y-121564962D01*
X76373590Y-121691671D01*
X72222624Y-121691671D01*
X71779408Y-121153809D01*
X71776135Y-121149663D01*
X71362943Y-120603013D01*
X77233210Y-120603013D01*
X77975671Y-121345474D01*
X77975672Y-121345474D01*
X78718133Y-120603012D01*
X78236254Y-120121134D01*
X78159530Y-120065389D01*
X78039027Y-120026235D01*
X77912318Y-120026235D01*
X77791811Y-120065390D01*
X77715086Y-120121134D01*
X77233210Y-120603011D01*
X77233210Y-120603013D01*
X71362943Y-120603013D01*
X71214871Y-120407115D01*
X71211797Y-120402866D01*
X70682200Y-119637432D01*
X70679309Y-119633062D01*
X70182268Y-118846023D01*
X70179574Y-118841552D01*
X69716013Y-118034368D01*
X69713505Y-118029782D01*
X69284229Y-117203858D01*
X69281892Y-117199120D01*
X69260968Y-117154367D01*
X68893777Y-116369000D01*
X72875435Y-116369000D01*
X72895632Y-116548257D01*
X72955210Y-116718521D01*
X73051184Y-116871263D01*
X73178736Y-116998815D01*
X73178738Y-116998816D01*
X73331478Y-117094789D01*
X73501745Y-117154368D01*
X73681000Y-117174565D01*
X73860255Y-117154368D01*
X74030522Y-117094789D01*
X74183262Y-116998816D01*
X74220816Y-116961262D01*
X74291905Y-116890174D01*
X74348389Y-116857562D01*
X74413611Y-116857562D01*
X74470095Y-116890174D01*
X74578736Y-116998815D01*
X74578738Y-116998816D01*
X74731478Y-117094789D01*
X74901745Y-117154368D01*
X75081000Y-117174565D01*
X75260255Y-117154368D01*
X75430522Y-117094789D01*
X75583262Y-116998816D01*
X75710816Y-116871262D01*
X75806789Y-116718522D01*
X75866368Y-116548255D01*
X75886565Y-116369000D01*
X75866368Y-116189745D01*
X75806789Y-116019478D01*
X75762037Y-115948255D01*
X75710815Y-115866736D01*
X75583263Y-115739184D01*
X75430521Y-115643210D01*
X75260257Y-115583632D01*
X75081000Y-115563435D01*
X74901742Y-115583632D01*
X74731478Y-115643210D01*
X74578736Y-115739184D01*
X74470095Y-115847826D01*
X74413611Y-115880438D01*
X74348389Y-115880438D01*
X74291905Y-115847826D01*
X74183263Y-115739184D01*
X74030521Y-115643210D01*
X73860257Y-115583632D01*
X73681000Y-115563435D01*
X73501742Y-115583632D01*
X73331478Y-115643210D01*
X73178736Y-115739184D01*
X73051184Y-115866736D01*
X72955210Y-116019478D01*
X72895632Y-116189742D01*
X72875435Y-116369000D01*
X68893777Y-116369000D01*
X68887680Y-116355959D01*
X68885545Y-116351131D01*
X68879724Y-116337184D01*
X68527058Y-115492151D01*
X68525138Y-115487264D01*
X68203000Y-114613952D01*
X68201302Y-114609032D01*
X67916090Y-113722948D01*
X67914594Y-113717940D01*
X67666844Y-112820749D01*
X67665544Y-112815624D01*
X67455660Y-111908807D01*
X67454576Y-111903630D01*
X67408184Y-111656367D01*
X67282934Y-110988810D01*
X67282072Y-110983613D01*
X67263763Y-110856892D01*
X67222169Y-110569000D01*
X74509734Y-110569000D01*
X74529931Y-110748257D01*
X74589509Y-110918521D01*
X74685483Y-111071263D01*
X74813035Y-111198815D01*
X74965777Y-111294789D01*
X75127167Y-111351262D01*
X75136044Y-111354368D01*
X75315299Y-111374565D01*
X75494554Y-111354368D01*
X75664821Y-111294789D01*
X75732921Y-111251999D01*
X78731424Y-111251999D01*
X78751621Y-111431257D01*
X78811199Y-111601521D01*
X78907173Y-111754263D01*
X79034725Y-111881815D01*
X79187467Y-111977789D01*
X79277977Y-112009460D01*
X79357734Y-112037368D01*
X79536989Y-112057565D01*
X79716244Y-112037368D01*
X79886511Y-111977789D01*
X80039251Y-111881816D01*
X80166805Y-111754262D01*
X80262778Y-111601522D01*
X80322357Y-111431255D01*
X80342554Y-111252000D01*
X80340513Y-111233890D01*
X80348778Y-111172878D01*
X80384970Y-111123063D01*
X80440446Y-111096347D01*
X80501958Y-111099109D01*
X80554816Y-111130691D01*
X81668595Y-112244470D01*
X81695909Y-112285347D01*
X81705500Y-112333565D01*
X81705500Y-114710232D01*
X81695909Y-114758450D01*
X81668597Y-114799324D01*
X81601183Y-114866738D01*
X81601183Y-114866739D01*
X81505210Y-115019478D01*
X81445632Y-115189742D01*
X81425435Y-115368999D01*
X81445632Y-115548257D01*
X81505210Y-115718521D01*
X81601184Y-115871263D01*
X81728736Y-115998815D01*
X81728738Y-115998816D01*
X81881478Y-116094789D01*
X82051745Y-116154368D01*
X82231000Y-116174565D01*
X82256797Y-116171658D01*
X82312518Y-116177935D01*
X82359999Y-116207768D01*
X82389834Y-116255249D01*
X82396113Y-116310972D01*
X82379435Y-116458999D01*
X82399632Y-116638257D01*
X82459210Y-116808521D01*
X82555184Y-116961263D01*
X82682736Y-117088815D01*
X82774155Y-117146257D01*
X82835478Y-117184789D01*
X83005745Y-117244368D01*
X83185000Y-117264565D01*
X83364255Y-117244368D01*
X83534522Y-117184789D01*
X83687262Y-117088816D01*
X83814816Y-116961262D01*
X83910789Y-116808522D01*
X83970368Y-116638255D01*
X83990565Y-116459000D01*
X83970368Y-116279745D01*
X83961796Y-116255249D01*
X83910789Y-116109478D01*
X83814815Y-115956736D01*
X83687263Y-115829184D01*
X83591481Y-115769000D01*
X91075435Y-115769000D01*
X91095632Y-115948257D01*
X91155210Y-116118521D01*
X91251184Y-116271263D01*
X91378736Y-116398815D01*
X91474520Y-116459000D01*
X91531478Y-116494789D01*
X91701745Y-116554368D01*
X91881000Y-116574565D01*
X92060255Y-116554368D01*
X92230522Y-116494789D01*
X92383262Y-116398816D01*
X92510816Y-116271262D01*
X92606789Y-116118522D01*
X92666368Y-115948255D01*
X92686565Y-115769000D01*
X92666368Y-115589745D01*
X92606789Y-115419478D01*
X92531709Y-115299989D01*
X92510815Y-115266736D01*
X92383263Y-115139184D01*
X92230521Y-115043210D01*
X92060257Y-114983632D01*
X91881000Y-114963435D01*
X91701742Y-114983632D01*
X91531478Y-115043210D01*
X91378736Y-115139184D01*
X91251184Y-115266736D01*
X91155210Y-115419478D01*
X91095632Y-115589742D01*
X91075435Y-115769000D01*
X83591481Y-115769000D01*
X83534521Y-115733210D01*
X83364257Y-115673632D01*
X83244751Y-115660167D01*
X83185000Y-115653435D01*
X83184999Y-115653435D01*
X83174994Y-115654562D01*
X83159200Y-115656341D01*
X83103478Y-115650063D01*
X83055998Y-115620229D01*
X83026165Y-115572749D01*
X83019886Y-115517029D01*
X83036565Y-115369000D01*
X83016368Y-115189745D01*
X82956789Y-115019478D01*
X82913426Y-114950466D01*
X87093968Y-114950466D01*
X87114165Y-115129724D01*
X87173743Y-115299988D01*
X87269717Y-115452730D01*
X87397269Y-115580282D01*
X87497419Y-115643210D01*
X87550011Y-115676256D01*
X87720278Y-115735835D01*
X87899533Y-115756032D01*
X88078788Y-115735835D01*
X88249055Y-115676256D01*
X88401795Y-115580283D01*
X88529349Y-115452729D01*
X88625322Y-115299989D01*
X88684901Y-115129722D01*
X88705098Y-114950467D01*
X88684901Y-114771212D01*
X88625322Y-114600945D01*
X88529349Y-114448205D01*
X88529348Y-114448203D01*
X88401796Y-114320651D01*
X88249054Y-114224677D01*
X88078790Y-114165099D01*
X87899533Y-114144902D01*
X87720275Y-114165099D01*
X87550011Y-114224677D01*
X87397269Y-114320651D01*
X87269717Y-114448203D01*
X87173743Y-114600945D01*
X87114165Y-114771209D01*
X87093968Y-114950466D01*
X82913426Y-114950466D01*
X82860816Y-114866738D01*
X82793402Y-114799324D01*
X82766091Y-114758450D01*
X82756500Y-114710232D01*
X82756500Y-112074854D01*
X82756573Y-112070553D01*
X82756637Y-112068656D01*
X82758660Y-112009460D01*
X82749463Y-111971724D01*
X82747057Y-111959060D01*
X82741771Y-111920594D01*
X82740964Y-111918736D01*
X82735207Y-111905483D01*
X82728358Y-111885117D01*
X82727554Y-111881816D01*
X82724458Y-111869111D01*
X82705425Y-111835263D01*
X82699692Y-111823720D01*
X82684219Y-111788096D01*
X82684217Y-111788093D01*
X82673820Y-111775313D01*
X82661731Y-111757551D01*
X82653659Y-111743195D01*
X82653658Y-111743194D01*
X82626195Y-111715731D01*
X82617559Y-111706161D01*
X82593055Y-111676041D01*
X82593054Y-111676040D01*
X82579583Y-111666531D01*
X82563157Y-111652693D01*
X80984151Y-110073687D01*
X80954315Y-110026201D01*
X80950093Y-109988706D01*
X80949153Y-109988812D01*
X80947563Y-109974706D01*
X80947564Y-109974704D01*
X80946921Y-109969000D01*
X84475435Y-109969000D01*
X84495632Y-110148257D01*
X84555210Y-110318521D01*
X84651184Y-110471263D01*
X84778736Y-110598815D01*
X84931478Y-110694789D01*
X85088507Y-110749736D01*
X85101745Y-110754368D01*
X85281000Y-110774565D01*
X85460255Y-110754368D01*
X85630522Y-110694789D01*
X85783262Y-110598816D01*
X85910816Y-110471262D01*
X86006789Y-110318522D01*
X86066368Y-110148255D01*
X86086565Y-109969000D01*
X86066368Y-109789745D01*
X86006789Y-109619478D01*
X86006788Y-109619477D01*
X85910815Y-109466736D01*
X85783263Y-109339184D01*
X85630521Y-109243210D01*
X85460257Y-109183632D01*
X85281000Y-109163435D01*
X85101742Y-109183632D01*
X84931478Y-109243210D01*
X84778736Y-109339184D01*
X84651184Y-109466736D01*
X84555210Y-109619478D01*
X84495632Y-109789742D01*
X84475435Y-109969000D01*
X80946921Y-109969000D01*
X80927367Y-109795449D01*
X80867788Y-109625182D01*
X80864204Y-109619478D01*
X80771814Y-109472440D01*
X80644262Y-109344888D01*
X80491520Y-109248914D01*
X80321256Y-109189336D01*
X80141999Y-109169139D01*
X79962741Y-109189336D01*
X79792477Y-109248914D01*
X79639735Y-109344888D01*
X79512183Y-109472440D01*
X79416209Y-109625182D01*
X79356631Y-109795446D01*
X79336434Y-109974703D01*
X79356631Y-110153961D01*
X79412610Y-110313939D01*
X79417484Y-110378979D01*
X79389186Y-110437742D01*
X79335297Y-110474483D01*
X79187466Y-110526211D01*
X79034725Y-110622184D01*
X78907173Y-110749736D01*
X78811199Y-110902478D01*
X78751621Y-111072742D01*
X78731424Y-111251999D01*
X75732921Y-111251999D01*
X75817561Y-111198816D01*
X75945115Y-111071262D01*
X76041088Y-110918522D01*
X76100667Y-110748255D01*
X76120864Y-110569000D01*
X76100667Y-110389745D01*
X76041088Y-110219478D01*
X75994422Y-110145210D01*
X75945114Y-110066736D01*
X75807523Y-109929145D01*
X75810177Y-109926490D01*
X75785691Y-109900594D01*
X75769967Y-109839644D01*
X75785688Y-109778693D01*
X75828930Y-109732955D01*
X75883262Y-109698816D01*
X76010816Y-109571262D01*
X76106789Y-109418522D01*
X76166368Y-109248255D01*
X76186565Y-109069000D01*
X76166368Y-108889745D01*
X76163261Y-108880867D01*
X76106789Y-108719478D01*
X76010815Y-108566736D01*
X75883263Y-108439184D01*
X75730521Y-108343210D01*
X75560257Y-108283632D01*
X75381000Y-108263435D01*
X75201742Y-108283632D01*
X75031478Y-108343210D01*
X74878736Y-108439184D01*
X74751184Y-108566736D01*
X74655210Y-108719478D01*
X74595632Y-108889742D01*
X74575435Y-109069000D01*
X74595632Y-109248257D01*
X74655210Y-109418521D01*
X74751184Y-109571263D01*
X74888776Y-109708855D01*
X74886119Y-109711511D01*
X74910588Y-109737371D01*
X74926331Y-109798328D01*
X74910617Y-109859293D01*
X74867368Y-109905045D01*
X74813033Y-109939186D01*
X74685483Y-110066736D01*
X74589509Y-110219478D01*
X74529931Y-110389742D01*
X74509734Y-110569000D01*
X67222169Y-110569000D01*
X67148974Y-110062389D01*
X67148331Y-110057158D01*
X67147635Y-110050323D01*
X67054013Y-109131181D01*
X67053589Y-109125929D01*
X66998213Y-108196770D01*
X66998012Y-108191547D01*
X66987178Y-107574192D01*
X77605720Y-107574192D01*
X77625917Y-107753449D01*
X77685495Y-107923713D01*
X77781469Y-108076455D01*
X77909021Y-108204007D01*
X77909023Y-108204008D01*
X78061763Y-108299981D01*
X78232030Y-108359560D01*
X78411285Y-108379757D01*
X78590540Y-108359560D01*
X78760807Y-108299981D01*
X78913547Y-108204008D01*
X79041101Y-108076454D01*
X79137074Y-107923714D01*
X79196653Y-107753447D01*
X79216850Y-107574192D01*
X79196653Y-107394937D01*
X79137074Y-107224670D01*
X79041101Y-107071930D01*
X79041100Y-107071928D01*
X78913548Y-106944376D01*
X78760806Y-106848402D01*
X78590542Y-106788824D01*
X78411285Y-106768627D01*
X78232027Y-106788824D01*
X78061763Y-106848402D01*
X77909021Y-106944376D01*
X77781469Y-107071928D01*
X77685495Y-107224670D01*
X77625917Y-107394934D01*
X77605720Y-107574192D01*
X66987178Y-107574192D01*
X66981679Y-107260864D01*
X66981698Y-107255579D01*
X66983120Y-107197392D01*
X67004436Y-106325099D01*
X67004676Y-106319829D01*
X67004776Y-106318332D01*
X67066444Y-105391106D01*
X67066904Y-105385857D01*
X67067724Y-105378323D01*
X67090502Y-105169000D01*
X71584435Y-105169000D01*
X71604632Y-105348257D01*
X71664210Y-105518521D01*
X71760184Y-105671263D01*
X71887736Y-105798815D01*
X71887738Y-105798816D01*
X72040478Y-105894789D01*
X72210745Y-105954368D01*
X72390000Y-105974565D01*
X72569255Y-105954368D01*
X72739522Y-105894789D01*
X72892262Y-105798816D01*
X73019816Y-105671262D01*
X73097105Y-105548257D01*
X73115788Y-105518524D01*
X73115789Y-105518521D01*
X73153762Y-105409999D01*
X75394435Y-105409999D01*
X75414632Y-105589257D01*
X75474210Y-105759521D01*
X75570184Y-105912263D01*
X75697736Y-106039815D01*
X75850478Y-106135789D01*
X75961290Y-106174564D01*
X76020745Y-106195368D01*
X76200000Y-106215565D01*
X76379255Y-106195368D01*
X76549522Y-106135789D01*
X76702262Y-106039816D01*
X76829816Y-105912262D01*
X76925789Y-105759522D01*
X76985368Y-105589255D01*
X77005565Y-105410000D01*
X76985368Y-105230745D01*
X76971021Y-105189745D01*
X76925789Y-105060478D01*
X76829815Y-104907736D01*
X76702263Y-104780184D01*
X76549521Y-104684210D01*
X76379257Y-104624632D01*
X76200000Y-104604435D01*
X76020742Y-104624632D01*
X75850478Y-104684210D01*
X75697736Y-104780184D01*
X75570184Y-104907736D01*
X75474210Y-105060478D01*
X75414632Y-105230742D01*
X75394435Y-105409999D01*
X73153762Y-105409999D01*
X73155349Y-105405463D01*
X73185180Y-105357988D01*
X82061763Y-96481405D01*
X82102641Y-96454091D01*
X82150859Y-96444500D01*
X82340141Y-96444500D01*
X82397344Y-96458233D01*
X82442077Y-96496439D01*
X82464590Y-96550789D01*
X82459974Y-96609436D01*
X82429236Y-96659595D01*
X79317303Y-99771526D01*
X79314211Y-99774515D01*
X79269532Y-99816242D01*
X79249356Y-99849421D01*
X79242099Y-99860082D01*
X79218635Y-99891024D01*
X79212590Y-99906354D01*
X79203037Y-99925588D01*
X79194473Y-99939672D01*
X79183999Y-99977054D01*
X79179888Y-99989280D01*
X79165640Y-100025411D01*
X79163955Y-100041802D01*
X79159946Y-100062899D01*
X79155500Y-100078771D01*
X79155500Y-100117606D01*
X79154839Y-100130491D01*
X79150868Y-100169109D01*
X79153668Y-100185345D01*
X79155500Y-100206752D01*
X79155500Y-101709363D01*
X79141444Y-101767195D01*
X79102412Y-101812124D01*
X79047113Y-101834126D01*
X78987886Y-101828292D01*
X78860255Y-101783632D01*
X78681000Y-101763435D01*
X78501742Y-101783632D01*
X78331478Y-101843210D01*
X78178736Y-101939184D01*
X78051184Y-102066736D01*
X77955210Y-102219478D01*
X77895632Y-102389742D01*
X77875435Y-102569000D01*
X77895632Y-102748257D01*
X77955210Y-102918521D01*
X78051184Y-103071263D01*
X78178736Y-103198815D01*
X78331478Y-103294789D01*
X78420319Y-103325876D01*
X78501745Y-103354368D01*
X78681000Y-103374565D01*
X78860255Y-103354368D01*
X78987886Y-103309707D01*
X79047113Y-103303874D01*
X79102412Y-103325876D01*
X79141444Y-103370805D01*
X79155500Y-103428637D01*
X79155500Y-104710232D01*
X79145909Y-104758450D01*
X79118597Y-104799324D01*
X79051183Y-104866738D01*
X79051183Y-104866739D01*
X78955210Y-105019478D01*
X78895632Y-105189742D01*
X78895632Y-105189745D01*
X78875435Y-105369000D01*
X78877334Y-105385857D01*
X78895632Y-105548257D01*
X78955210Y-105718521D01*
X79051184Y-105871263D01*
X79178736Y-105998815D01*
X79178738Y-105998816D01*
X79331478Y-106094789D01*
X79501745Y-106154368D01*
X79681000Y-106174565D01*
X79860255Y-106154368D01*
X80030522Y-106094789D01*
X80183262Y-105998816D01*
X80310816Y-105871262D01*
X80406789Y-105718522D01*
X80466368Y-105548255D01*
X80486565Y-105369000D01*
X80466368Y-105189745D01*
X80406789Y-105019478D01*
X80310816Y-104866738D01*
X80243402Y-104799324D01*
X80216091Y-104758450D01*
X80206500Y-104710232D01*
X80206500Y-104119205D01*
X80222913Y-104057023D01*
X80267875Y-104011040D01*
X80329673Y-103993237D01*
X80392208Y-104008250D01*
X80439188Y-104052170D01*
X80451186Y-104071265D01*
X80578736Y-104198815D01*
X80678120Y-104261262D01*
X80731478Y-104294789D01*
X80901745Y-104354368D01*
X81081000Y-104374565D01*
X81260255Y-104354368D01*
X81430522Y-104294789D01*
X81583262Y-104198816D01*
X81710816Y-104071262D01*
X81806789Y-103918522D01*
X81866368Y-103748255D01*
X81886565Y-103569000D01*
X81866368Y-103389745D01*
X81806789Y-103219478D01*
X81793806Y-103198815D01*
X81710815Y-103066736D01*
X81583263Y-102939184D01*
X81430521Y-102843210D01*
X81260257Y-102783632D01*
X81081000Y-102763435D01*
X80901742Y-102783632D01*
X80731478Y-102843210D01*
X80578736Y-102939184D01*
X80451186Y-103066734D01*
X80439188Y-103085830D01*
X80392208Y-103129750D01*
X80329673Y-103144763D01*
X80267875Y-103126960D01*
X80222913Y-103080977D01*
X80206500Y-103018795D01*
X80206500Y-100420860D01*
X80216091Y-100372642D01*
X80243405Y-100331765D01*
X83619765Y-96955405D01*
X83660642Y-96928091D01*
X83708860Y-96918500D01*
X85917369Y-96918500D01*
X85921670Y-96918573D01*
X85923634Y-96918640D01*
X85982763Y-96920660D01*
X86020497Y-96911463D01*
X86033139Y-96909060D01*
X86071629Y-96903771D01*
X86086745Y-96897204D01*
X86107107Y-96890356D01*
X86123112Y-96886457D01*
X86156968Y-96867419D01*
X86168497Y-96861694D01*
X86204127Y-96846219D01*
X86216913Y-96835816D01*
X86234660Y-96823737D01*
X86249030Y-96815658D01*
X86276493Y-96788193D01*
X86286065Y-96779556D01*
X86295848Y-96771597D01*
X86316183Y-96755054D01*
X86325688Y-96741586D01*
X86339522Y-96725164D01*
X90081167Y-92983519D01*
X90128645Y-92953687D01*
X90184367Y-92947408D01*
X90237296Y-92965929D01*
X90276947Y-93005580D01*
X90368996Y-93152075D01*
X90484392Y-93267471D01*
X90517004Y-93323955D01*
X90517004Y-93389177D01*
X90484392Y-93445661D01*
X89281642Y-94648410D01*
X89264947Y-94661787D01*
X89215164Y-94714800D01*
X89212414Y-94717638D01*
X89192088Y-94737964D01*
X89189439Y-94741380D01*
X89181742Y-94750391D01*
X89150551Y-94783607D01*
X89140404Y-94802065D01*
X89129554Y-94818583D01*
X89116638Y-94835235D01*
X89098546Y-94877042D01*
X89093326Y-94887697D01*
X89071372Y-94927631D01*
X89066130Y-94948048D01*
X89059728Y-94966746D01*
X89051364Y-94986075D01*
X89044237Y-95031069D01*
X89041831Y-95042689D01*
X89030500Y-95086823D01*
X89030500Y-95107885D01*
X89028949Y-95127596D01*
X89025653Y-95148405D01*
X89029941Y-95193765D01*
X89030500Y-95205623D01*
X89030500Y-97063357D01*
X89011187Y-97130392D01*
X89001880Y-97145204D01*
X88955210Y-97219478D01*
X88895632Y-97389742D01*
X88875435Y-97569000D01*
X88895632Y-97748257D01*
X88955210Y-97918521D01*
X89051184Y-98071263D01*
X89178736Y-98198815D01*
X89178738Y-98198816D01*
X89331478Y-98294789D01*
X89501745Y-98354368D01*
X89681000Y-98374565D01*
X89860255Y-98354368D01*
X90030522Y-98294789D01*
X90183262Y-98198816D01*
X90310816Y-98071262D01*
X90406789Y-97918522D01*
X90466368Y-97748255D01*
X90468702Y-97727531D01*
X90487222Y-97674605D01*
X90526874Y-97634954D01*
X90579798Y-97616434D01*
X90753459Y-97596868D01*
X90923726Y-97537289D01*
X91076466Y-97441316D01*
X91204020Y-97313762D01*
X91299993Y-97161022D01*
X91359572Y-96990755D01*
X91379769Y-96811500D01*
X91359572Y-96632245D01*
X91329947Y-96547583D01*
X91299993Y-96461978D01*
X91204019Y-96309236D01*
X91076467Y-96181684D01*
X90923725Y-96085710D01*
X90753461Y-96026132D01*
X90633955Y-96012667D01*
X90574204Y-96005935D01*
X90574203Y-96005935D01*
X90537455Y-96010075D01*
X90471606Y-96017494D01*
X90402830Y-96005809D01*
X90350813Y-95959323D01*
X90331500Y-95892287D01*
X90331500Y-95490636D01*
X90341091Y-95442418D01*
X90368405Y-95401541D01*
X90881774Y-94888172D01*
X92423236Y-93346708D01*
X92475862Y-93315198D01*
X92537133Y-93312271D01*
X92592526Y-93338622D01*
X92628911Y-93388007D01*
X92637665Y-93448721D01*
X92632645Y-93497435D01*
X92632605Y-93497661D01*
X92628494Y-93537722D01*
X92628489Y-93537770D01*
X92624321Y-93578223D01*
X92624315Y-93578453D01*
X92620510Y-93615541D01*
X92620457Y-93615840D01*
X92616410Y-93655512D01*
X92616410Y-93655514D01*
X92615749Y-93661954D01*
X92612162Y-93696916D01*
X92612154Y-93697218D01*
X92609855Y-93719762D01*
X92609785Y-93720145D01*
X92605595Y-93761523D01*
X92605586Y-93761613D01*
X92601501Y-93801654D01*
X92601493Y-93802023D01*
X92600753Y-93809331D01*
X92600651Y-93809899D01*
X92599733Y-93819069D01*
X92596641Y-93849945D01*
X92595218Y-93863999D01*
X92593399Y-93881957D01*
X92593305Y-93882484D01*
X92589427Y-93921984D01*
X92589402Y-93922233D01*
X92587999Y-93936235D01*
X92587664Y-93938139D01*
X92585417Y-93962145D01*
X92579728Y-93989555D01*
X92578618Y-93992948D01*
X92578547Y-94029900D01*
X92578000Y-94041385D01*
X92577728Y-94044294D01*
X92577690Y-94054087D01*
X92577267Y-94059992D01*
X92577991Y-94068427D01*
X92578452Y-94079432D01*
X92578375Y-94119814D01*
X92579458Y-94123168D01*
X92585086Y-94151083D01*
X92585387Y-94154594D01*
X92601108Y-94191800D01*
X92604943Y-94202113D01*
X92617351Y-94240546D01*
X92619279Y-94243211D01*
X92619412Y-94243394D01*
X92633396Y-94268214D01*
X92634765Y-94271454D01*
X92634766Y-94271455D01*
X92634768Y-94271459D01*
X92661217Y-94301986D01*
X92668055Y-94310615D01*
X92688246Y-94338518D01*
X92691725Y-94343325D01*
X92694080Y-94345043D01*
X92694567Y-94345398D01*
X92715541Y-94364685D01*
X92717843Y-94367342D01*
X92752428Y-94388200D01*
X92761599Y-94394294D01*
X92794220Y-94418089D01*
X92797555Y-94419179D01*
X92823471Y-94431045D01*
X92826481Y-94432861D01*
X92865821Y-94442011D01*
X92876429Y-94444973D01*
X92914802Y-94457522D01*
X92918322Y-94457528D01*
X92946615Y-94460802D01*
X92950048Y-94461601D01*
X92990278Y-94458147D01*
X93001268Y-94457686D01*
X93041667Y-94457764D01*
X93045008Y-94456685D01*
X93072954Y-94451050D01*
X93076450Y-94450751D01*
X93108849Y-94437060D01*
X93113632Y-94435039D01*
X93123973Y-94431193D01*
X93132030Y-94428593D01*
X93143815Y-94422615D01*
X93151732Y-94418940D01*
X93152697Y-94418532D01*
X93157730Y-94416530D01*
X93158918Y-94416088D01*
X93158923Y-94416084D01*
X93162004Y-94414937D01*
X93166862Y-94412548D01*
X93185314Y-94404751D01*
X93193311Y-94401372D01*
X93199353Y-94396137D01*
X93219916Y-94381643D01*
X93248032Y-94365768D01*
X93251086Y-94363678D01*
X93263001Y-94356727D01*
X93289555Y-94341397D01*
X93289557Y-94341395D01*
X93296890Y-94337162D01*
X93297905Y-94336457D01*
X93321453Y-94322623D01*
X93348134Y-94307056D01*
X93348141Y-94307049D01*
X93356088Y-94302413D01*
X93356356Y-94302226D01*
X93365958Y-94296554D01*
X93428448Y-94279050D01*
X93491360Y-94294967D01*
X93538007Y-94340083D01*
X93551709Y-94362857D01*
X93552235Y-94363738D01*
X93554361Y-94367342D01*
X93570608Y-94394882D01*
X93573066Y-94398355D01*
X93625647Y-94485751D01*
X93627276Y-94488983D01*
X93646499Y-94520415D01*
X93646973Y-94521196D01*
X93666019Y-94552852D01*
X93668130Y-94555787D01*
X93725943Y-94650320D01*
X93727407Y-94653175D01*
X93747134Y-94684975D01*
X93747554Y-94685657D01*
X93767082Y-94717588D01*
X93768971Y-94720176D01*
X93830506Y-94819365D01*
X93831881Y-94822009D01*
X93851906Y-94853866D01*
X93852301Y-94854498D01*
X93872232Y-94886625D01*
X93874008Y-94889027D01*
X93937750Y-94990432D01*
X93939100Y-94992989D01*
X93943295Y-94999579D01*
X93943297Y-94999583D01*
X93959418Y-95024905D01*
X93959805Y-95025517D01*
X93979941Y-95057552D01*
X93981668Y-95059858D01*
X94046064Y-95161012D01*
X94047448Y-95163597D01*
X94051647Y-95170109D01*
X94051649Y-95170113D01*
X94059562Y-95182384D01*
X94067939Y-95195375D01*
X94068333Y-95195991D01*
X94088566Y-95227772D01*
X94090336Y-95230109D01*
X94150387Y-95323234D01*
X94153791Y-95328512D01*
X94155281Y-95331258D01*
X94159464Y-95337658D01*
X94159465Y-95337659D01*
X94175929Y-95362848D01*
X94176273Y-95363378D01*
X94196579Y-95394868D01*
X94198480Y-95397347D01*
X94216910Y-95425542D01*
X94259400Y-95490545D01*
X94261076Y-95493585D01*
X94281553Y-95524442D01*
X94282033Y-95525172D01*
X94302337Y-95556235D01*
X94304473Y-95558981D01*
X94325221Y-95590245D01*
X94361277Y-95644579D01*
X94363265Y-95648120D01*
X94383614Y-95678247D01*
X94384186Y-95679101D01*
X94404277Y-95709376D01*
X94406784Y-95712551D01*
X94457932Y-95788276D01*
X94460406Y-95792590D01*
X94480398Y-95821547D01*
X94481123Y-95822608D01*
X94500811Y-95851757D01*
X94503921Y-95855620D01*
X94547955Y-95919402D01*
X94551231Y-95924962D01*
X94554314Y-95929301D01*
X94554315Y-95929302D01*
X94569412Y-95950547D01*
X94570455Y-95952014D01*
X94571436Y-95953415D01*
X94590383Y-95980859D01*
X94594492Y-95985842D01*
X94629822Y-96035559D01*
X94633966Y-96042350D01*
X94636523Y-96045820D01*
X94652575Y-96067608D01*
X94653795Y-96069293D01*
X94669450Y-96091324D01*
X94671948Y-96094839D01*
X94677090Y-96100884D01*
X94691545Y-96120504D01*
X94699547Y-96132806D01*
X94699944Y-96133502D01*
X94712974Y-96149764D01*
X94716066Y-96153787D01*
X94728452Y-96170598D01*
X94728455Y-96170602D01*
X94729034Y-96171173D01*
X94738859Y-96182068D01*
X94840752Y-96309236D01*
X94847022Y-96317061D01*
X94853449Y-96325833D01*
X94858323Y-96333126D01*
X94867083Y-96342602D01*
X94872887Y-96349342D01*
X94880966Y-96359424D01*
X94885916Y-96363927D01*
X94887445Y-96365318D01*
X94895170Y-96372982D01*
X94910664Y-96389742D01*
X95008774Y-96495867D01*
X95014753Y-96502826D01*
X95022444Y-96512469D01*
X95022446Y-96512471D01*
X95022447Y-96512472D01*
X95029334Y-96518766D01*
X95036854Y-96526242D01*
X95043193Y-96533098D01*
X95052879Y-96540734D01*
X95059863Y-96546664D01*
X95178080Y-96654692D01*
X95183461Y-96659913D01*
X95194463Y-96671245D01*
X95199161Y-96674765D01*
X95208604Y-96682586D01*
X95212948Y-96686555D01*
X95223881Y-96693770D01*
X95226128Y-96695253D01*
X95232276Y-96699580D01*
X95350543Y-96788204D01*
X95356625Y-96792761D01*
X95361463Y-96796574D01*
X95375822Y-96808475D01*
X95378425Y-96810017D01*
X95389766Y-96817595D01*
X95392184Y-96819408D01*
X95408642Y-96828101D01*
X95414012Y-96831108D01*
X95536620Y-96903771D01*
X95545290Y-96908909D01*
X95549847Y-96911743D01*
X95566848Y-96922824D01*
X95567711Y-96923210D01*
X95568082Y-96923376D01*
X95580892Y-96930009D01*
X95582053Y-96930697D01*
X95600941Y-96938195D01*
X95605848Y-96940266D01*
X95743662Y-97001900D01*
X95748389Y-97004135D01*
X95766688Y-97013264D01*
X95767873Y-97013638D01*
X95781393Y-97018774D01*
X95782536Y-97019286D01*
X95782540Y-97019287D01*
X95802244Y-97024602D01*
X95807337Y-97026091D01*
X95950419Y-97071243D01*
X95956130Y-97073197D01*
X95973859Y-97079742D01*
X95976557Y-97080279D01*
X95989888Y-97083698D01*
X95992507Y-97084525D01*
X96011222Y-97087325D01*
X96017099Y-97088349D01*
X96155180Y-97115840D01*
X96166665Y-97118694D01*
X96173143Y-97120631D01*
X96184053Y-97122094D01*
X96187900Y-97122611D01*
X96195743Y-97123916D01*
X96210362Y-97126827D01*
X96212457Y-97126909D01*
X96233667Y-97129931D01*
X96255551Y-97131830D01*
X96261406Y-97132476D01*
X96280434Y-97135030D01*
X96282896Y-97134971D01*
X96296773Y-97135406D01*
X96307874Y-97136370D01*
X96322053Y-97138419D01*
X96323541Y-97138722D01*
X96343681Y-97139595D01*
X96349108Y-97139948D01*
X96369165Y-97141690D01*
X96370663Y-97141583D01*
X96384998Y-97141388D01*
X96407556Y-97142367D01*
X96419616Y-97143672D01*
X96421275Y-97143696D01*
X96421277Y-97143697D01*
X96445344Y-97144056D01*
X96448859Y-97144159D01*
X96472913Y-97145204D01*
X96472915Y-97145203D01*
X96474581Y-97145276D01*
X96486705Y-97144676D01*
X96513216Y-97145073D01*
X96523819Y-97145939D01*
X96526401Y-97145915D01*
X96526407Y-97145916D01*
X96551650Y-97145683D01*
X96554537Y-97145691D01*
X96579763Y-97146070D01*
X96579769Y-97146069D01*
X96582362Y-97146108D01*
X96592966Y-97145302D01*
X96620466Y-97145050D01*
X96631738Y-97145687D01*
X96643422Y-97145276D01*
X96658581Y-97144742D01*
X96661832Y-97144670D01*
X96686549Y-97144443D01*
X96686553Y-97144442D01*
X96688741Y-97144422D01*
X96699966Y-97143287D01*
X96724763Y-97142415D01*
X96739214Y-97142786D01*
X96739541Y-97142762D01*
X96739543Y-97142763D01*
X96761673Y-97141195D01*
X96766124Y-97140960D01*
X96788281Y-97140182D01*
X96788282Y-97140181D01*
X96788614Y-97140170D01*
X96802944Y-97138275D01*
X96816617Y-97137307D01*
X96830364Y-97137187D01*
X96831092Y-97137111D01*
X96850244Y-97135113D01*
X96863402Y-97134433D01*
X96867351Y-97134437D01*
X96870312Y-97133969D01*
X96881056Y-97132746D01*
X96881350Y-97132725D01*
X96894903Y-97130456D01*
X96909018Y-97128985D01*
X96912837Y-97127964D01*
X96925717Y-97125237D01*
X97100561Y-97097677D01*
X97107931Y-97096738D01*
X97123809Y-97095193D01*
X97129372Y-97093747D01*
X97141437Y-97091235D01*
X97147101Y-97090343D01*
X97162251Y-97085432D01*
X97169369Y-97083356D01*
X97344791Y-97037782D01*
X97350825Y-97036372D01*
X97368949Y-97032610D01*
X97371904Y-97031491D01*
X97384815Y-97027384D01*
X97387881Y-97026588D01*
X97401311Y-97020729D01*
X97404849Y-97019187D01*
X97410606Y-97016843D01*
X97577992Y-96953496D01*
X97583196Y-96951658D01*
X97602037Y-96945474D01*
X97603695Y-96944623D01*
X97616646Y-96938868D01*
X97618408Y-96938202D01*
X97635608Y-96928378D01*
X97640495Y-96925729D01*
X97799175Y-96844270D01*
X97804368Y-96841754D01*
X97822057Y-96833675D01*
X97823877Y-96832468D01*
X97835992Y-96825371D01*
X97836683Y-96825015D01*
X97837932Y-96824375D01*
X97853666Y-96812869D01*
X97858351Y-96809606D01*
X98007774Y-96710518D01*
X98013329Y-96707042D01*
X98028547Y-96698070D01*
X98031663Y-96695498D01*
X98042205Y-96687686D01*
X98045585Y-96685446D01*
X98058571Y-96673523D01*
X98063564Y-96669177D01*
X98197770Y-96558449D01*
X98207260Y-96551344D01*
X98212809Y-96547584D01*
X98223718Y-96537363D01*
X98229647Y-96532149D01*
X98241208Y-96522612D01*
X98245663Y-96517570D01*
X98253922Y-96509071D01*
X98262171Y-96501344D01*
X98271637Y-96493555D01*
X98272775Y-96492425D01*
X98272780Y-96492422D01*
X98289809Y-96475524D01*
X98292388Y-96473039D01*
X98311027Y-96455580D01*
X98319154Y-96446407D01*
X98345619Y-96420147D01*
X98356139Y-96410922D01*
X98356538Y-96410497D01*
X98356547Y-96410491D01*
X98372039Y-96394033D01*
X98374961Y-96391033D01*
X98391008Y-96375113D01*
X98391011Y-96375108D01*
X98391419Y-96374704D01*
X98400368Y-96363942D01*
X98425235Y-96337527D01*
X98436105Y-96327276D01*
X98436291Y-96327121D01*
X98450394Y-96310937D01*
X98453597Y-96307401D01*
X98468276Y-96291810D01*
X98468412Y-96291609D01*
X98477533Y-96279795D01*
X98502617Y-96251011D01*
X98513130Y-96240309D01*
X98513200Y-96240247D01*
X98526781Y-96223415D01*
X98529751Y-96219875D01*
X98543963Y-96203569D01*
X98544009Y-96203494D01*
X98552729Y-96191260D01*
X98579160Y-96158507D01*
X98588391Y-96148420D01*
X98588850Y-96147810D01*
X98588856Y-96147805D01*
X98602623Y-96129539D01*
X98605124Y-96126332D01*
X98619479Y-96108546D01*
X98619479Y-96108545D01*
X98619959Y-96107951D01*
X98627490Y-96096550D01*
X98656860Y-96057586D01*
X98664232Y-96049037D01*
X98665493Y-96047269D01*
X98665499Y-96047264D01*
X98679853Y-96027153D01*
X98681747Y-96024570D01*
X98696625Y-96004835D01*
X98696627Y-96004831D01*
X98697938Y-96003092D01*
X98703878Y-95993495D01*
X98738260Y-95945326D01*
X98743691Y-95938738D01*
X98745918Y-95935490D01*
X98745921Y-95935488D01*
X98761004Y-95913499D01*
X98762250Y-95911718D01*
X98777778Y-95889966D01*
X98777779Y-95889962D01*
X98780063Y-95886764D01*
X98784394Y-95879401D01*
X98825722Y-95819156D01*
X98828285Y-95815961D01*
X98832184Y-95810173D01*
X98832191Y-95810167D01*
X98848049Y-95786632D01*
X98850110Y-95784023D01*
X98854273Y-95777754D01*
X98854278Y-95777750D01*
X98858347Y-95771621D01*
X98859347Y-95770140D01*
X98865766Y-95760785D01*
X98865768Y-95760779D01*
X98869708Y-95755037D01*
X98871736Y-95751481D01*
X98887846Y-95727575D01*
X98887849Y-95727567D01*
X98892037Y-95721353D01*
X98893664Y-95718450D01*
X98978825Y-95590236D01*
X98982015Y-95586124D01*
X98985383Y-95580933D01*
X98985385Y-95580931D01*
X99001043Y-95556797D01*
X99001727Y-95555758D01*
X99021056Y-95526658D01*
X99023561Y-95522095D01*
X99110934Y-95387443D01*
X99113980Y-95383431D01*
X99117366Y-95378092D01*
X99117368Y-95378090D01*
X99132845Y-95353687D01*
X99133513Y-95352647D01*
X99152601Y-95323234D01*
X99154982Y-95318788D01*
X99245444Y-95176167D01*
X99248256Y-95172386D01*
X99251707Y-95166826D01*
X99251713Y-95166820D01*
X99267152Y-95141950D01*
X99267545Y-95141325D01*
X99283169Y-95116695D01*
X99283171Y-95116689D01*
X99286665Y-95111182D01*
X99288850Y-95107003D01*
X99383857Y-94953979D01*
X99386386Y-94950512D01*
X99389935Y-94944683D01*
X99405173Y-94919653D01*
X99405613Y-94918937D01*
X99421123Y-94893959D01*
X99421123Y-94893957D01*
X99424716Y-94888172D01*
X99426677Y-94884334D01*
X99527662Y-94718472D01*
X99529880Y-94715377D01*
X99533564Y-94709218D01*
X99533569Y-94709214D01*
X99548753Y-94683836D01*
X99549073Y-94683306D01*
X99564558Y-94657875D01*
X99564558Y-94657873D01*
X99568281Y-94651760D01*
X99569996Y-94648337D01*
X99678437Y-94467113D01*
X99680340Y-94464419D01*
X99699380Y-94432120D01*
X99699682Y-94431610D01*
X99715019Y-94405981D01*
X99715020Y-94405977D01*
X99718884Y-94399521D01*
X99720339Y-94396563D01*
X99837444Y-94197906D01*
X99838399Y-94196540D01*
X99842798Y-94189019D01*
X99842803Y-94189015D01*
X99858410Y-94162340D01*
X99859613Y-94160298D01*
X99860110Y-94159588D01*
X99864669Y-94151759D01*
X99864671Y-94151757D01*
X99866391Y-94148802D01*
X99866662Y-94148341D01*
X99874067Y-94135781D01*
X99874069Y-94135774D01*
X99878479Y-94128294D01*
X99879171Y-94126865D01*
X99880282Y-94124960D01*
X99880316Y-94124980D01*
X99880373Y-94124802D01*
X99896074Y-94097971D01*
X99896075Y-94097967D01*
X99900778Y-94089931D01*
X99901203Y-94089047D01*
X99901893Y-94087862D01*
X99902546Y-94086922D01*
X99922541Y-94052422D01*
X99922685Y-94052174D01*
X99938365Y-94025260D01*
X99938367Y-94025253D01*
X99943001Y-94017300D01*
X99943499Y-94016262D01*
X99945329Y-94013104D01*
X99951245Y-94002897D01*
X99951705Y-94002232D01*
X99966755Y-93976172D01*
X99972238Y-93966678D01*
X99974866Y-93962145D01*
X99980596Y-93952257D01*
X99987719Y-93939969D01*
X99987719Y-93939967D01*
X99992422Y-93931854D01*
X99992768Y-93931129D01*
X100006182Y-93907904D01*
X100006525Y-93907407D01*
X100011327Y-93899070D01*
X100026854Y-93872111D01*
X100042589Y-93844868D01*
X100042590Y-93844865D01*
X100047432Y-93836482D01*
X100047694Y-93835930D01*
X100065222Y-93805498D01*
X100065508Y-93805082D01*
X100070416Y-93796541D01*
X100070419Y-93796538D01*
X100086090Y-93769268D01*
X100086137Y-93769188D01*
X100106564Y-93733724D01*
X100106776Y-93733275D01*
X100127197Y-93697743D01*
X100127438Y-93697392D01*
X100132381Y-93688774D01*
X100132383Y-93688772D01*
X100147765Y-93661954D01*
X100151426Y-93655585D01*
X100154529Y-93650183D01*
X100163604Y-93634395D01*
X100163605Y-93634392D01*
X100168455Y-93625953D01*
X100168640Y-93625560D01*
X100190716Y-93587071D01*
X100190944Y-93586741D01*
X100211512Y-93550819D01*
X100219024Y-93537722D01*
X100227055Y-93523721D01*
X100227056Y-93523716D01*
X100231946Y-93515192D01*
X100232119Y-93514826D01*
X100236814Y-93506627D01*
X100254347Y-93476003D01*
X100254572Y-93475675D01*
X100259511Y-93467032D01*
X100259516Y-93467027D01*
X100275063Y-93439823D01*
X100290662Y-93412580D01*
X100290663Y-93412575D01*
X100295663Y-93403844D01*
X100295832Y-93403481D01*
X100316911Y-93366601D01*
X100317151Y-93366248D01*
X100321970Y-93357800D01*
X100321973Y-93357797D01*
X100337540Y-93330508D01*
X100353067Y-93303340D01*
X100353067Y-93303338D01*
X100357954Y-93294788D01*
X100358136Y-93294400D01*
X100376754Y-93261761D01*
X100377025Y-93261365D01*
X100386167Y-93245305D01*
X100397204Y-93225913D01*
X100412910Y-93198381D01*
X100412909Y-93198381D01*
X100417739Y-93189916D01*
X100417950Y-93189464D01*
X100432839Y-93163307D01*
X100433173Y-93162815D01*
X100437907Y-93154474D01*
X100437912Y-93154469D01*
X100453304Y-93127352D01*
X100468836Y-93100067D01*
X100468836Y-93100065D01*
X100473585Y-93091724D01*
X100473840Y-93091175D01*
X100483657Y-93073884D01*
X100484105Y-93073220D01*
X100488715Y-93065069D01*
X100488722Y-93065061D01*
X100504092Y-93037886D01*
X100504226Y-93037741D01*
X100504187Y-93037719D01*
X100514605Y-93019366D01*
X100519492Y-93010758D01*
X100519493Y-93010754D01*
X100524125Y-93002595D01*
X100524468Y-93001859D01*
X100527849Y-92995880D01*
X100528530Y-92994872D01*
X100530664Y-92991079D01*
X100532275Y-92989323D01*
X100538974Y-92979400D01*
X100539362Y-92978913D01*
X100540790Y-92980050D01*
X100569601Y-92948675D01*
X100623336Y-92928018D01*
X100680651Y-92933418D01*
X100729581Y-92963750D01*
X100906423Y-93140592D01*
X100909413Y-93143685D01*
X100951143Y-93188367D01*
X100984325Y-93208545D01*
X100994985Y-93215801D01*
X101012862Y-93229358D01*
X101025923Y-93239262D01*
X101041252Y-93245307D01*
X101060493Y-93254864D01*
X101074569Y-93263424D01*
X101111950Y-93273897D01*
X101124181Y-93278010D01*
X101149082Y-93287829D01*
X101160309Y-93292257D01*
X101176701Y-93293941D01*
X101197811Y-93297954D01*
X101204907Y-93299942D01*
X101213669Y-93302398D01*
X101213670Y-93302398D01*
X101252504Y-93302398D01*
X101265389Y-93303059D01*
X101304007Y-93307029D01*
X101304007Y-93307028D01*
X101304008Y-93307029D01*
X101313676Y-93305362D01*
X101320243Y-93304230D01*
X101341650Y-93302398D01*
X102073897Y-93302398D01*
X102141597Y-93322131D01*
X102188092Y-93375149D01*
X102201795Y-93404536D01*
X102327302Y-93583778D01*
X102482017Y-93738493D01*
X102482020Y-93738495D01*
X102482021Y-93738496D01*
X102661259Y-93864000D01*
X102859568Y-93956473D01*
X103070921Y-94013105D01*
X103288898Y-94032175D01*
X103506875Y-94013105D01*
X103718228Y-93956473D01*
X103740278Y-93946191D01*
X103755142Y-93939260D01*
X103814986Y-93927627D01*
X103873287Y-93945450D01*
X103916395Y-93988558D01*
X103934220Y-94046858D01*
X103922588Y-94106703D01*
X103905630Y-94143071D01*
X103905374Y-94143619D01*
X103848742Y-94354972D01*
X103829672Y-94572949D01*
X103842208Y-94716244D01*
X103848742Y-94790926D01*
X103905373Y-95002279D01*
X103943695Y-95084459D01*
X103955500Y-95137709D01*
X103955500Y-95143504D01*
X103954839Y-95156389D01*
X103950868Y-95195007D01*
X103953668Y-95211243D01*
X103955500Y-95232650D01*
X103955500Y-96424279D01*
X103938025Y-96488296D01*
X103890449Y-96534557D01*
X103825966Y-96550229D01*
X103762464Y-96530966D01*
X103600521Y-96429210D01*
X103430257Y-96369632D01*
X103251000Y-96349435D01*
X103071742Y-96369632D01*
X102901478Y-96429210D01*
X102748736Y-96525184D01*
X102621184Y-96652736D01*
X102525210Y-96805478D01*
X102465632Y-96975742D01*
X102446456Y-97145939D01*
X102445435Y-97155000D01*
X102450372Y-97198816D01*
X102465632Y-97334257D01*
X102525210Y-97504521D01*
X102621184Y-97657263D01*
X102748736Y-97784815D01*
X102748738Y-97784816D01*
X102901478Y-97880789D01*
X103071745Y-97940368D01*
X103251000Y-97960565D01*
X103430255Y-97940368D01*
X103600522Y-97880789D01*
X103753262Y-97784816D01*
X103880816Y-97657262D01*
X103976789Y-97504522D01*
X104002353Y-97431461D01*
X104037321Y-97379129D01*
X104093243Y-97350239D01*
X104156162Y-97352004D01*
X104210376Y-97383985D01*
X109038595Y-102212203D01*
X109065909Y-102253080D01*
X109075500Y-102301298D01*
X109075500Y-107614791D01*
X109059087Y-107676973D01*
X109014125Y-107722956D01*
X108952327Y-107740759D01*
X108889792Y-107725746D01*
X108842813Y-107681827D01*
X108787147Y-107593235D01*
X108659596Y-107465684D01*
X108506854Y-107369710D01*
X108336590Y-107310132D01*
X108217084Y-107296667D01*
X108157333Y-107289935D01*
X108157332Y-107289935D01*
X108119358Y-107294213D01*
X107992626Y-107308492D01*
X107928134Y-107298772D01*
X107877141Y-107258106D01*
X107853314Y-107197395D01*
X107846368Y-107135745D01*
X107786789Y-106965478D01*
X107690816Y-106812738D01*
X107690815Y-106812736D01*
X107563263Y-106685184D01*
X107410521Y-106589210D01*
X107328244Y-106560420D01*
X107305958Y-106552622D01*
X107253623Y-106517653D01*
X107224733Y-106461731D01*
X107226499Y-106398812D01*
X107258477Y-106344600D01*
X107309816Y-106293262D01*
X107404947Y-106141861D01*
X107456965Y-106095376D01*
X107525739Y-106083690D01*
X107569000Y-106088565D01*
X107748255Y-106068368D01*
X107918522Y-106008789D01*
X108071262Y-105912816D01*
X108198816Y-105785262D01*
X108294789Y-105632522D01*
X108354368Y-105462255D01*
X108374565Y-105283000D01*
X108354368Y-105103745D01*
X108294789Y-104933478D01*
X108294788Y-104933477D01*
X108198815Y-104780736D01*
X108071263Y-104653184D01*
X107918522Y-104557211D01*
X107794328Y-104513753D01*
X107741992Y-104478783D01*
X107713103Y-104422861D01*
X107714869Y-104359942D01*
X107746847Y-104305730D01*
X107791317Y-104261261D01*
X107887290Y-104108521D01*
X107946869Y-103938254D01*
X107967066Y-103758999D01*
X107946869Y-103579744D01*
X107887290Y-103409477D01*
X107791317Y-103256737D01*
X107791316Y-103256735D01*
X107663764Y-103129183D01*
X107511022Y-103033209D01*
X107340758Y-102973631D01*
X107161501Y-102953434D01*
X106982243Y-102973631D01*
X106811979Y-103033209D01*
X106659237Y-103129183D01*
X106531685Y-103256735D01*
X106435711Y-103409477D01*
X106376133Y-103579741D01*
X106355936Y-103758998D01*
X106376133Y-103938256D01*
X106435711Y-104108520D01*
X106531685Y-104261262D01*
X106573329Y-104302906D01*
X106604067Y-104353065D01*
X106608683Y-104411712D01*
X106586170Y-104466062D01*
X106541437Y-104504268D01*
X106484234Y-104518001D01*
X90075361Y-104518001D01*
X90027143Y-104508410D01*
X89986266Y-104481096D01*
X85628421Y-100123252D01*
X90596486Y-100123252D01*
X90616683Y-100302509D01*
X90676261Y-100472773D01*
X90772235Y-100625515D01*
X90899787Y-100753067D01*
X90899789Y-100753068D01*
X91052529Y-100849041D01*
X91222796Y-100908620D01*
X91402051Y-100928817D01*
X91581306Y-100908620D01*
X91751573Y-100849041D01*
X91904313Y-100753068D01*
X92031867Y-100625514D01*
X92127840Y-100472774D01*
X92187419Y-100302507D01*
X92207616Y-100123252D01*
X92187419Y-99943997D01*
X92177644Y-99916063D01*
X92127840Y-99773730D01*
X92031866Y-99620988D01*
X91904314Y-99493436D01*
X91751572Y-99397462D01*
X91581308Y-99337884D01*
X91402051Y-99317687D01*
X91222793Y-99337884D01*
X91052529Y-99397462D01*
X90899787Y-99493436D01*
X90772235Y-99620988D01*
X90676261Y-99773730D01*
X90616683Y-99943994D01*
X90596486Y-100123252D01*
X85628421Y-100123252D01*
X85233152Y-99727983D01*
X85203316Y-99680497D01*
X85199094Y-99643002D01*
X85198154Y-99643108D01*
X85196564Y-99629002D01*
X85196565Y-99629000D01*
X85176368Y-99449745D01*
X85176367Y-99449743D01*
X85174778Y-99435637D01*
X85178062Y-99435266D01*
X85175441Y-99388632D01*
X85209185Y-99327571D01*
X85270244Y-99293823D01*
X85339897Y-99297734D01*
X85501745Y-99354368D01*
X85681000Y-99374565D01*
X85860255Y-99354368D01*
X86030522Y-99294789D01*
X86183262Y-99198816D01*
X86310816Y-99071262D01*
X86406789Y-98918522D01*
X86466368Y-98748255D01*
X86486565Y-98569000D01*
X86466368Y-98389745D01*
X86406789Y-98219478D01*
X86310816Y-98066738D01*
X86310815Y-98066736D01*
X86183263Y-97939184D01*
X86030521Y-97843210D01*
X85860257Y-97783632D01*
X85681000Y-97763435D01*
X85501742Y-97783632D01*
X85331478Y-97843210D01*
X85178736Y-97939184D01*
X85051184Y-98066736D01*
X84955210Y-98219478D01*
X84895632Y-98389742D01*
X84875435Y-98568999D01*
X84897222Y-98762363D01*
X84893938Y-98762732D01*
X84896556Y-98809378D01*
X84862809Y-98870433D01*
X84801752Y-98904176D01*
X84732101Y-98900264D01*
X84570257Y-98843632D01*
X84391000Y-98823435D01*
X84211742Y-98843632D01*
X84041478Y-98903210D01*
X83888736Y-98999184D01*
X83770095Y-99117826D01*
X83713611Y-99150438D01*
X83648389Y-99150438D01*
X83591905Y-99117826D01*
X83493263Y-99019184D01*
X83340521Y-98923210D01*
X83170257Y-98863632D01*
X82991000Y-98843435D01*
X82811742Y-98863632D01*
X82641478Y-98923210D01*
X82488736Y-99019184D01*
X82361184Y-99146736D01*
X82265210Y-99299478D01*
X82205632Y-99469742D01*
X82185435Y-99648999D01*
X82205632Y-99828257D01*
X82265210Y-99998521D01*
X82361184Y-100151263D01*
X82488736Y-100278815D01*
X82488738Y-100278816D01*
X82641478Y-100374789D01*
X82811745Y-100434368D01*
X82991000Y-100454565D01*
X82991002Y-100454564D01*
X83005108Y-100456154D01*
X83005002Y-100457093D01*
X83042496Y-100461315D01*
X83089982Y-100491152D01*
X88753538Y-106154708D01*
X88756529Y-106157802D01*
X88798243Y-106202468D01*
X88798245Y-106202469D01*
X88831419Y-106222642D01*
X88842074Y-106229894D01*
X88873025Y-106253365D01*
X88888355Y-106259410D01*
X88907599Y-106268968D01*
X88921672Y-106277526D01*
X88942540Y-106283372D01*
X88959052Y-106287999D01*
X88971276Y-106292109D01*
X89007411Y-106306359D01*
X89023801Y-106308043D01*
X89044912Y-106312056D01*
X89060772Y-106316500D01*
X89099598Y-106316500D01*
X89112483Y-106317161D01*
X89115058Y-106317425D01*
X89151110Y-106321132D01*
X89164639Y-106318799D01*
X89167351Y-106318332D01*
X89188758Y-106316500D01*
X106021232Y-106316500D01*
X106069450Y-106326091D01*
X106110324Y-106353402D01*
X106177738Y-106420816D01*
X106330478Y-106516789D01*
X106409874Y-106544571D01*
X106466770Y-106584940D01*
X106493467Y-106649393D01*
X106481781Y-106718169D01*
X106435295Y-106770187D01*
X106368259Y-106789500D01*
X102248149Y-106789500D01*
X102243848Y-106789427D01*
X102229676Y-106788942D01*
X102182754Y-106787340D01*
X102182752Y-106787340D01*
X102145029Y-106796532D01*
X102132360Y-106798940D01*
X102093887Y-106804228D01*
X102078770Y-106810795D01*
X102058407Y-106817643D01*
X102042405Y-106821542D01*
X102008567Y-106840568D01*
X101997019Y-106846304D01*
X101961390Y-106861781D01*
X101948601Y-106872185D01*
X101930852Y-106884264D01*
X101916490Y-106892340D01*
X101889031Y-106919798D01*
X101879459Y-106928436D01*
X101849335Y-106952944D01*
X101839831Y-106966409D01*
X101825990Y-106982839D01*
X98779983Y-110028846D01*
X98732510Y-110058678D01*
X98695001Y-110062907D01*
X98695107Y-110063846D01*
X98681001Y-110065435D01*
X98583402Y-110076431D01*
X98501742Y-110085632D01*
X98331478Y-110145210D01*
X98178736Y-110241184D01*
X98051184Y-110368736D01*
X97955210Y-110521478D01*
X97895632Y-110691742D01*
X97875435Y-110870999D01*
X97895632Y-111050257D01*
X97955210Y-111220521D01*
X98051184Y-111373263D01*
X98178736Y-111500815D01*
X98296465Y-111574789D01*
X98331478Y-111596789D01*
X98501745Y-111656368D01*
X98681000Y-111676565D01*
X98860255Y-111656368D01*
X99030522Y-111596789D01*
X99183262Y-111500816D01*
X99310816Y-111373262D01*
X99406789Y-111220522D01*
X99466368Y-111050255D01*
X99486565Y-110871000D01*
X99486564Y-110870997D01*
X99488154Y-110856892D01*
X99489093Y-110856997D01*
X99493316Y-110819501D01*
X99523150Y-110772018D01*
X102417764Y-107877404D01*
X102458641Y-107850091D01*
X102506859Y-107840500D01*
X106062141Y-107840500D01*
X106119344Y-107854233D01*
X106164077Y-107892439D01*
X106186590Y-107946789D01*
X106181974Y-108005436D01*
X106151236Y-108055595D01*
X103903021Y-110303808D01*
X103855542Y-110333642D01*
X103799820Y-110339921D01*
X103692258Y-110327803D01*
X103692257Y-110327803D01*
X103659250Y-110331522D01*
X103512999Y-110348000D01*
X103342736Y-110407578D01*
X103286716Y-110442778D01*
X103228156Y-110461805D01*
X103167572Y-110450810D01*
X103119432Y-110412419D01*
X103095232Y-110355800D01*
X103100752Y-110294475D01*
X103119400Y-110241184D01*
X103147368Y-110161255D01*
X103167565Y-109982000D01*
X103147368Y-109802745D01*
X103087789Y-109632478D01*
X103049325Y-109571263D01*
X102991815Y-109479736D01*
X102864263Y-109352184D01*
X102711521Y-109256210D01*
X102541257Y-109196632D01*
X102362000Y-109176435D01*
X102182742Y-109196632D01*
X102012478Y-109256210D01*
X101859736Y-109352184D01*
X101732184Y-109479736D01*
X101636210Y-109632478D01*
X101576632Y-109802742D01*
X101570261Y-109859293D01*
X101557258Y-109974703D01*
X101554846Y-109996107D01*
X101553906Y-109996001D01*
X101549678Y-110033508D01*
X101519846Y-110080982D01*
X94726928Y-116873901D01*
X94665870Y-116907647D01*
X94596216Y-116903735D01*
X94539320Y-116863363D01*
X94512626Y-116798911D01*
X94511368Y-116787745D01*
X94487145Y-116718521D01*
X94451789Y-116617478D01*
X94355815Y-116464736D01*
X94228263Y-116337184D01*
X94075521Y-116241210D01*
X93905257Y-116181632D01*
X93726000Y-116161435D01*
X93546742Y-116181632D01*
X93376478Y-116241210D01*
X93223736Y-116337184D01*
X93096184Y-116464736D01*
X93000210Y-116617478D01*
X92940632Y-116787742D01*
X92920435Y-116967000D01*
X92940632Y-117146257D01*
X93000210Y-117316521D01*
X93096184Y-117469263D01*
X93223736Y-117596815D01*
X93223738Y-117596816D01*
X93376478Y-117692789D01*
X93546745Y-117752368D01*
X93557911Y-117753626D01*
X93622363Y-117780320D01*
X93662735Y-117837216D01*
X93666647Y-117906870D01*
X93632901Y-117967928D01*
X89717303Y-121883526D01*
X89714211Y-121886515D01*
X89669532Y-121928242D01*
X89649356Y-121961421D01*
X89642099Y-121972082D01*
X89618635Y-122003024D01*
X89612590Y-122018354D01*
X89603037Y-122037588D01*
X89594473Y-122051672D01*
X89583999Y-122089054D01*
X89579888Y-122101280D01*
X89565640Y-122137411D01*
X89563955Y-122153802D01*
X89559946Y-122174899D01*
X89555500Y-122190771D01*
X89555500Y-122229606D01*
X89554839Y-122242491D01*
X89550868Y-122281109D01*
X89553668Y-122297345D01*
X89555500Y-122318752D01*
X89555500Y-123910232D01*
X89545909Y-123958450D01*
X89518597Y-123999324D01*
X89471429Y-124046493D01*
X89451183Y-124066739D01*
X89355210Y-124219478D01*
X89295632Y-124389742D01*
X89283715Y-124495512D01*
X89275435Y-124569000D01*
X89288549Y-124685395D01*
X89276864Y-124754169D01*
X89230378Y-124806187D01*
X89163342Y-124825500D01*
X87612004Y-124825500D01*
X87554214Y-124811466D01*
X87509298Y-124772490D01*
X87487261Y-124717254D01*
X87493012Y-124658063D01*
X87525271Y-124608103D01*
X87576851Y-124578503D01*
X87691196Y-124545282D01*
X87832559Y-124461680D01*
X87948680Y-124345559D01*
X88032282Y-124204196D01*
X88078099Y-124046493D01*
X88081000Y-124009638D01*
X88081000Y-123494000D01*
X87007000Y-123494000D01*
X86944000Y-123477119D01*
X86897881Y-123431000D01*
X86881000Y-123368000D01*
X86881000Y-121994000D01*
X87281000Y-121994000D01*
X87281000Y-123094000D01*
X88081000Y-123094000D01*
X88081000Y-122578362D01*
X88078099Y-122541506D01*
X88032282Y-122383803D01*
X87948680Y-122242440D01*
X87832559Y-122126319D01*
X87691196Y-122042717D01*
X87533493Y-121996900D01*
X87496638Y-121994000D01*
X87281000Y-121994000D01*
X86881000Y-121994000D01*
X86665362Y-121994000D01*
X86628506Y-121996900D01*
X86470803Y-122042717D01*
X86329440Y-122126319D01*
X86213317Y-122242442D01*
X86179709Y-122299271D01*
X86132122Y-122345455D01*
X86067676Y-122361080D01*
X86004222Y-122341819D01*
X85990522Y-122333211D01*
X85990521Y-122333210D01*
X85990520Y-122333210D01*
X85820257Y-122273632D01*
X85641000Y-122253435D01*
X85461742Y-122273632D01*
X85291478Y-122333210D01*
X85138736Y-122429184D01*
X85011184Y-122556736D01*
X84915211Y-122709477D01*
X84853247Y-122886559D01*
X84815068Y-122941667D01*
X84754027Y-122969392D01*
X84687407Y-122961885D01*
X84634068Y-122921271D01*
X84609111Y-122859051D01*
X84605310Y-122825312D01*
X84545731Y-122655045D01*
X84494690Y-122573814D01*
X84449757Y-122502303D01*
X84322205Y-122374751D01*
X84169463Y-122278777D01*
X83999199Y-122219199D01*
X83819942Y-122199002D01*
X83640684Y-122219199D01*
X83470420Y-122278777D01*
X83317678Y-122374751D01*
X83190126Y-122502303D01*
X83094152Y-122655045D01*
X83047121Y-122789454D01*
X83008070Y-122845284D01*
X82945664Y-122872622D01*
X82878150Y-122863475D01*
X82828325Y-122841913D01*
X82817667Y-122836692D01*
X82777737Y-122814741D01*
X82757323Y-122809499D01*
X82738623Y-122803096D01*
X82719293Y-122794732D01*
X82674300Y-122787605D01*
X82662680Y-122785199D01*
X82618545Y-122773868D01*
X82597483Y-122773868D01*
X82577772Y-122772317D01*
X82576456Y-122772108D01*
X82556963Y-122769021D01*
X82556962Y-122769021D01*
X82511603Y-122773309D01*
X82499745Y-122773868D01*
X80908408Y-122773868D01*
X80850227Y-122759631D01*
X80805195Y-122720138D01*
X80733320Y-122617489D01*
X80578603Y-122462772D01*
X80399362Y-122337266D01*
X80201052Y-122244792D01*
X79989700Y-122188161D01*
X79771723Y-122169091D01*
X79553745Y-122188161D01*
X79525273Y-122195790D01*
X79502322Y-122201940D01*
X79437101Y-122201940D01*
X79380617Y-122169329D01*
X79348005Y-122112844D01*
X79348005Y-122047622D01*
X79380617Y-121991138D01*
X79482851Y-121888903D01*
X79538599Y-121812175D01*
X79577754Y-121691672D01*
X79577754Y-121564963D01*
X79538598Y-121444456D01*
X79482857Y-121367735D01*
X79000976Y-120885855D01*
X77975673Y-121911160D01*
X77975670Y-121911161D01*
X77233210Y-122653621D01*
X77715089Y-123135499D01*
X77791813Y-123191244D01*
X77912317Y-123230399D01*
X78039026Y-123230399D01*
X78159532Y-123191243D01*
X78236253Y-123135502D01*
X78338491Y-123033264D01*
X78394975Y-123000652D01*
X78460198Y-123000652D01*
X78516682Y-123033263D01*
X78549293Y-123089747D01*
X78549294Y-123154970D01*
X78535516Y-123206389D01*
X78522594Y-123354089D01*
X78516446Y-123424368D01*
X78524562Y-123517135D01*
X78535516Y-123642345D01*
X78592147Y-123853697D01*
X78684621Y-124052007D01*
X78810127Y-124231248D01*
X78964842Y-124385963D01*
X78964845Y-124385965D01*
X78964846Y-124385966D01*
X79144084Y-124511470D01*
X79342393Y-124603943D01*
X79553746Y-124660575D01*
X79771723Y-124679645D01*
X79989700Y-124660575D01*
X80201053Y-124603943D01*
X80231501Y-124589745D01*
X80237967Y-124586730D01*
X80297811Y-124575097D01*
X80356112Y-124592920D01*
X80399220Y-124636028D01*
X80417045Y-124694328D01*
X80405413Y-124754173D01*
X80402801Y-124759776D01*
X80388199Y-124791089D01*
X80346086Y-124948257D01*
X80331567Y-125002443D01*
X80312497Y-125220418D01*
X80331567Y-125438396D01*
X80388198Y-125649748D01*
X80480672Y-125848058D01*
X80606178Y-126027299D01*
X80760893Y-126182014D01*
X80760896Y-126182016D01*
X80760897Y-126182017D01*
X80940135Y-126307521D01*
X81138444Y-126399994D01*
X81349797Y-126456626D01*
X81567774Y-126475696D01*
X81785751Y-126456626D01*
X81997104Y-126399994D01*
X82034019Y-126382780D01*
X82093864Y-126371147D01*
X82152165Y-126388970D01*
X82195273Y-126432078D01*
X82213098Y-126490378D01*
X82201465Y-126550223D01*
X82184251Y-126587141D01*
X82127619Y-126798494D01*
X82127619Y-126798495D01*
X82108549Y-127016471D01*
X82127619Y-127234448D01*
X82184250Y-127445800D01*
X82276724Y-127644110D01*
X82402230Y-127823351D01*
X82556945Y-127978066D01*
X82556948Y-127978068D01*
X82556949Y-127978069D01*
X82736187Y-128103573D01*
X82934496Y-128196046D01*
X83145849Y-128252678D01*
X83363826Y-128271748D01*
X83581803Y-128252678D01*
X83793156Y-128196046D01*
X83991465Y-128103573D01*
X84170703Y-127978069D01*
X84325424Y-127823348D01*
X84450928Y-127644110D01*
X84543401Y-127445801D01*
X84563980Y-127369000D01*
X87681000Y-127369000D01*
X87681000Y-127837061D01*
X87691613Y-127925445D01*
X87747078Y-128066095D01*
X87838434Y-128186565D01*
X87958904Y-128277921D01*
X88099554Y-128333386D01*
X88180999Y-128343167D01*
X88181000Y-128343167D01*
X88181000Y-127369000D01*
X87681000Y-127369000D01*
X84563980Y-127369000D01*
X84600033Y-127234448D01*
X84619103Y-127016471D01*
X84600033Y-126798494D01*
X84543401Y-126587141D01*
X84450928Y-126388833D01*
X84424915Y-126351683D01*
X84406071Y-126324770D01*
X84383555Y-126260740D01*
X84397522Y-126194319D01*
X84443920Y-126144781D01*
X84509285Y-126126500D01*
X84526885Y-126126500D01*
X84546594Y-126128050D01*
X84567405Y-126131347D01*
X84612764Y-126127059D01*
X84624623Y-126126500D01*
X87619288Y-126126500D01*
X87678209Y-126141125D01*
X87723452Y-126181606D01*
X87744513Y-126238545D01*
X87736503Y-126298724D01*
X87691613Y-126412555D01*
X87681000Y-126500939D01*
X87681000Y-126969000D01*
X88455000Y-126969000D01*
X88518000Y-126985881D01*
X88564119Y-127032000D01*
X88581000Y-127095000D01*
X88581000Y-128343167D01*
X88662445Y-128333386D01*
X88803092Y-128277922D01*
X88804449Y-128276894D01*
X88853546Y-128254225D01*
X88907623Y-128254224D01*
X88956720Y-128276891D01*
X88958658Y-128278361D01*
X89098191Y-128333386D01*
X89099436Y-128333877D01*
X89187897Y-128344500D01*
X89187898Y-128344500D01*
X89574102Y-128344500D01*
X89574103Y-128344500D01*
X89603589Y-128340958D01*
X89662564Y-128333877D01*
X89803342Y-128278361D01*
X89804868Y-128277203D01*
X89853962Y-128254537D01*
X89908038Y-128254537D01*
X89957131Y-128277203D01*
X89958658Y-128278361D01*
X90099436Y-128333877D01*
X90143666Y-128339188D01*
X90187897Y-128344500D01*
X90187898Y-128344500D01*
X90574102Y-128344500D01*
X90574103Y-128344500D01*
X90603589Y-128340958D01*
X90662564Y-128333877D01*
X90803342Y-128278361D01*
X90804868Y-128277203D01*
X90853962Y-128254537D01*
X90908038Y-128254537D01*
X90957131Y-128277203D01*
X90958658Y-128278361D01*
X91099436Y-128333877D01*
X91143666Y-128339188D01*
X91187897Y-128344500D01*
X91187898Y-128344500D01*
X91574102Y-128344500D01*
X91574103Y-128344500D01*
X91618333Y-128339188D01*
X91662564Y-128333877D01*
X91803342Y-128278361D01*
X91923922Y-128186922D01*
X92015361Y-128066342D01*
X92070877Y-127925564D01*
X92081500Y-127837102D01*
X92081500Y-126500898D01*
X92078473Y-126475695D01*
X92070877Y-126412436D01*
X92036306Y-126324770D01*
X92015361Y-126271658D01*
X91991101Y-126239667D01*
X91972072Y-126203697D01*
X91965500Y-126163535D01*
X91965500Y-125427768D01*
X91975091Y-125379550D01*
X92002402Y-125338675D01*
X92069816Y-125271262D01*
X92165789Y-125118522D01*
X92225368Y-124948255D01*
X92245565Y-124769000D01*
X92241633Y-124734105D01*
X92253319Y-124665331D01*
X92299805Y-124613313D01*
X92366841Y-124594000D01*
X92481000Y-124594000D01*
X92481000Y-123494000D01*
X92881000Y-123494000D01*
X92881000Y-124594000D01*
X93096638Y-124594000D01*
X93133493Y-124591099D01*
X93291196Y-124545282D01*
X93432559Y-124461680D01*
X93548680Y-124345559D01*
X93600751Y-124257512D01*
X94329435Y-124257512D01*
X94349632Y-124436770D01*
X94409210Y-124607034D01*
X94505184Y-124759776D01*
X94632736Y-124887328D01*
X94785478Y-124983302D01*
X94952175Y-125041632D01*
X94955745Y-125042881D01*
X95135000Y-125063078D01*
X95314255Y-125042881D01*
X95356297Y-125028169D01*
X95413139Y-125022023D01*
X95466849Y-125041632D01*
X95506363Y-125082961D01*
X95541977Y-125143182D01*
X95559497Y-125209865D01*
X95539298Y-125275787D01*
X95487427Y-125321208D01*
X95419417Y-125332527D01*
X95281000Y-125316932D01*
X95101742Y-125337129D01*
X94931478Y-125396707D01*
X94778736Y-125492681D01*
X94651184Y-125620233D01*
X94555210Y-125772975D01*
X94495632Y-125943239D01*
X94475435Y-126122496D01*
X94495632Y-126301754D01*
X94555210Y-126472018D01*
X94651184Y-126624760D01*
X94778736Y-126752312D01*
X94852236Y-126798495D01*
X94931478Y-126848286D01*
X95101745Y-126907865D01*
X95281000Y-126928062D01*
X95460255Y-126907865D01*
X95630522Y-126848286D01*
X95783262Y-126752313D01*
X95910816Y-126624759D01*
X96006789Y-126472019D01*
X96066368Y-126301752D01*
X96086565Y-126122497D01*
X96066368Y-125943242D01*
X96049116Y-125893940D01*
X96016769Y-125801496D01*
X96006789Y-125772975D01*
X95937394Y-125662534D01*
X95918133Y-125599033D01*
X95933805Y-125534551D01*
X95980066Y-125486975D01*
X96044083Y-125469500D01*
X96821690Y-125469500D01*
X96821694Y-125469500D01*
X96858569Y-125466598D01*
X97016398Y-125420744D01*
X97157865Y-125337081D01*
X97274081Y-125220865D01*
X97347838Y-125096147D01*
X97393862Y-125050842D01*
X97456290Y-125034289D01*
X97518718Y-125050841D01*
X97564744Y-125096150D01*
X97638319Y-125220559D01*
X97754441Y-125336681D01*
X97757136Y-125338275D01*
X97798310Y-125377551D01*
X97818006Y-125430936D01*
X97812207Y-125487543D01*
X97782096Y-125535825D01*
X97651183Y-125666738D01*
X97555210Y-125819478D01*
X97495632Y-125989742D01*
X97475435Y-126168999D01*
X97495632Y-126348257D01*
X97555210Y-126518521D01*
X97651184Y-126671263D01*
X97778736Y-126798815D01*
X97778738Y-126798816D01*
X97931478Y-126894789D01*
X98101745Y-126954368D01*
X98281000Y-126974565D01*
X98460255Y-126954368D01*
X98630522Y-126894789D01*
X98783262Y-126798816D01*
X98910816Y-126671262D01*
X99006789Y-126518522D01*
X99066368Y-126348255D01*
X99086565Y-126169000D01*
X99066368Y-125989745D01*
X99006789Y-125819478D01*
X98910815Y-125666736D01*
X98905475Y-125661396D01*
X98873036Y-125605549D01*
X98872529Y-125540966D01*
X98904086Y-125484616D01*
X98959418Y-125451304D01*
X99066195Y-125420282D01*
X99207559Y-125336680D01*
X99323680Y-125220559D01*
X99407282Y-125079196D01*
X99453099Y-124921493D01*
X99456000Y-124884638D01*
X99456000Y-124569000D01*
X98407000Y-124569000D01*
X98344000Y-124552119D01*
X98297881Y-124506000D01*
X98281000Y-124443000D01*
X98281000Y-123269000D01*
X98681000Y-123269000D01*
X98681000Y-124169000D01*
X99456000Y-124169000D01*
X99456000Y-123853362D01*
X99453099Y-123816506D01*
X99407282Y-123658803D01*
X99323680Y-123517440D01*
X99207559Y-123401319D01*
X99066196Y-123317717D01*
X98908493Y-123271900D01*
X98871638Y-123269000D01*
X98681000Y-123269000D01*
X98281000Y-123269000D01*
X98090362Y-123269000D01*
X98053506Y-123271900D01*
X97895803Y-123317717D01*
X97754440Y-123401319D01*
X97638316Y-123517443D01*
X97564743Y-123641849D01*
X97518718Y-123687158D01*
X97456290Y-123703710D01*
X97393862Y-123687157D01*
X97347836Y-123641849D01*
X97338849Y-123626653D01*
X97274081Y-123517135D01*
X97274079Y-123517133D01*
X97274078Y-123517131D01*
X97157868Y-123400921D01*
X97157865Y-123400919D01*
X97016398Y-123317256D01*
X96858569Y-123271402D01*
X96821694Y-123268500D01*
X96040306Y-123268500D01*
X96010806Y-123270821D01*
X96003430Y-123271402D01*
X95845602Y-123317256D01*
X95704133Y-123400919D01*
X95606291Y-123498762D01*
X95545233Y-123532507D01*
X95475581Y-123528595D01*
X95314257Y-123472145D01*
X95135000Y-123451948D01*
X94955742Y-123472145D01*
X94785478Y-123531723D01*
X94632736Y-123627697D01*
X94505184Y-123755249D01*
X94409210Y-123907991D01*
X94349632Y-124078255D01*
X94329435Y-124257512D01*
X93600751Y-124257512D01*
X93632282Y-124204196D01*
X93678099Y-124046493D01*
X93681000Y-124009638D01*
X93681000Y-123494000D01*
X92881000Y-123494000D01*
X92481000Y-123494000D01*
X92481000Y-123220000D01*
X92497881Y-123157000D01*
X92544000Y-123110881D01*
X92607000Y-123094000D01*
X93681000Y-123094000D01*
X93681000Y-122578362D01*
X93678099Y-122541506D01*
X93632282Y-122383803D01*
X93548680Y-122242440D01*
X93432559Y-122126319D01*
X93291196Y-122042717D01*
X93133493Y-121996900D01*
X93096638Y-121994000D01*
X93049064Y-121994000D01*
X92991861Y-121980267D01*
X92947128Y-121942061D01*
X92924615Y-121887711D01*
X92929231Y-121829064D01*
X92959969Y-121778905D01*
X96882874Y-117855999D01*
X97619435Y-117855999D01*
X97639632Y-118035257D01*
X97699210Y-118205521D01*
X97795184Y-118358263D01*
X97922736Y-118485815D01*
X97922738Y-118485816D01*
X98075478Y-118581789D01*
X98245745Y-118641368D01*
X98425000Y-118661565D01*
X98604255Y-118641368D01*
X98774522Y-118581789D01*
X98927262Y-118485816D01*
X99054816Y-118358262D01*
X99150789Y-118205522D01*
X99210368Y-118035255D01*
X99230565Y-117856000D01*
X99210368Y-117676745D01*
X99150789Y-117506478D01*
X99054816Y-117353738D01*
X99054815Y-117353736D01*
X98927263Y-117226184D01*
X98774521Y-117130210D01*
X98604257Y-117070632D01*
X98425000Y-117050435D01*
X98245742Y-117070632D01*
X98075478Y-117130210D01*
X97922736Y-117226184D01*
X97795184Y-117353736D01*
X97699210Y-117506478D01*
X97639632Y-117676742D01*
X97619435Y-117855999D01*
X96882874Y-117855999D01*
X97688438Y-117050435D01*
X102421288Y-112317583D01*
X102455711Y-112293159D01*
X102496269Y-112281473D01*
X102666542Y-112262289D01*
X102836809Y-112202710D01*
X102989549Y-112106737D01*
X103117103Y-111979183D01*
X103168006Y-111898170D01*
X103215815Y-111853811D01*
X103279404Y-111839298D01*
X103329261Y-111854678D01*
X103329335Y-111854468D01*
X103334950Y-111856433D01*
X103341726Y-111858523D01*
X103342735Y-111859157D01*
X103513002Y-111918736D01*
X103692257Y-111938933D01*
X103871512Y-111918736D01*
X104041779Y-111859157D01*
X104194519Y-111763184D01*
X104322073Y-111635630D01*
X104418046Y-111482890D01*
X104477625Y-111312623D01*
X104485015Y-111247026D01*
X104496699Y-111206469D01*
X104521123Y-111172045D01*
X104858022Y-110835146D01*
X104919077Y-110801402D01*
X104988730Y-110805314D01*
X105045625Y-110845683D01*
X105072323Y-110910135D01*
X105085632Y-111028257D01*
X105145210Y-111198521D01*
X105241184Y-111351263D01*
X105368736Y-111478815D01*
X105521478Y-111574789D01*
X105597876Y-111601522D01*
X105691745Y-111634368D01*
X105871000Y-111654565D01*
X106050255Y-111634368D01*
X106220522Y-111574789D01*
X106373262Y-111478816D01*
X106500816Y-111351262D01*
X106596789Y-111198522D01*
X106656368Y-111028255D01*
X106676565Y-110849000D01*
X106656368Y-110669745D01*
X106596789Y-110499478D01*
X106579060Y-110471262D01*
X106500815Y-110346736D01*
X106373263Y-110219184D01*
X106220521Y-110123210D01*
X106050257Y-110063632D01*
X105932134Y-110050323D01*
X105867682Y-110023626D01*
X105827313Y-109966730D01*
X105823401Y-109897077D01*
X105857144Y-109836023D01*
X107035266Y-108657902D01*
X107076141Y-108630591D01*
X107124359Y-108621000D01*
X107498565Y-108621000D01*
X107546783Y-108630591D01*
X107587657Y-108657902D01*
X107655071Y-108725316D01*
X107807811Y-108821289D01*
X107978078Y-108880868D01*
X108157333Y-108901065D01*
X108336588Y-108880868D01*
X108506855Y-108821289D01*
X108659595Y-108725316D01*
X108787149Y-108597762D01*
X108842813Y-108509172D01*
X108889792Y-108465254D01*
X108952327Y-108450241D01*
X109014125Y-108468044D01*
X109059087Y-108514027D01*
X109075500Y-108576209D01*
X109075500Y-110974232D01*
X109065909Y-111022450D01*
X109038597Y-111063324D01*
X109002813Y-111099109D01*
X108971183Y-111130739D01*
X108875210Y-111283478D01*
X108815632Y-111453742D01*
X108795435Y-111633000D01*
X108815632Y-111812257D01*
X108875210Y-111982521D01*
X108971184Y-112135263D01*
X109098736Y-112262815D01*
X109185904Y-112317586D01*
X109251478Y-112358789D01*
X109421745Y-112418368D01*
X109601000Y-112438565D01*
X109780255Y-112418368D01*
X109950522Y-112358789D01*
X110103262Y-112262816D01*
X110230816Y-112135262D01*
X110326789Y-111982522D01*
X110386368Y-111812255D01*
X110406565Y-111633000D01*
X110386368Y-111453745D01*
X110351594Y-111354368D01*
X110326789Y-111283478D01*
X110273592Y-111198816D01*
X110230816Y-111130738D01*
X110163402Y-111063324D01*
X110136091Y-111022450D01*
X110126500Y-110974232D01*
X110126500Y-102042588D01*
X110126573Y-102038287D01*
X110126631Y-102036566D01*
X110128660Y-101977194D01*
X110119466Y-101939468D01*
X110117060Y-101926811D01*
X110111771Y-101888328D01*
X110105205Y-101873214D01*
X110098356Y-101852847D01*
X110094457Y-101836844D01*
X110094456Y-101836843D01*
X110094456Y-101836841D01*
X110075431Y-101803006D01*
X110069692Y-101791451D01*
X110054219Y-101755829D01*
X110043819Y-101743046D01*
X110031729Y-101725283D01*
X110023657Y-101710927D01*
X110013348Y-101700618D01*
X109996195Y-101683465D01*
X109987559Y-101673895D01*
X109963055Y-101643775D01*
X109963054Y-101643774D01*
X109949583Y-101634265D01*
X109933157Y-101620427D01*
X105707034Y-97394304D01*
X106138538Y-97394304D01*
X106620417Y-97876182D01*
X106697141Y-97931927D01*
X106817645Y-97971082D01*
X106944354Y-97971082D01*
X107064860Y-97931926D01*
X107141581Y-97876185D01*
X107623461Y-97394304D01*
X107623461Y-97394303D01*
X106881001Y-96651843D01*
X106881000Y-96651843D01*
X106138538Y-97394304D01*
X105707034Y-97394304D01*
X105043405Y-96730675D01*
X105016091Y-96689798D01*
X105006500Y-96641580D01*
X105006500Y-95950547D01*
X105021595Y-95890747D01*
X105063262Y-95845275D01*
X105121516Y-95825026D01*
X105302926Y-95809156D01*
X105302930Y-95809155D01*
X105354347Y-95795378D01*
X105419570Y-95795377D01*
X105476054Y-95827988D01*
X105508665Y-95884472D01*
X105508666Y-95949695D01*
X105476055Y-96006179D01*
X105373817Y-96108417D01*
X105318072Y-96185141D01*
X105278918Y-96305645D01*
X105278918Y-96432354D01*
X105318073Y-96552860D01*
X105373814Y-96629581D01*
X105855695Y-97111461D01*
X105855696Y-97111461D01*
X106881000Y-96086157D01*
X107623461Y-95343695D01*
X107141582Y-94861817D01*
X107064858Y-94806072D01*
X106944355Y-94766918D01*
X106817646Y-94766918D01*
X106697139Y-94806073D01*
X106620417Y-94861814D01*
X106518179Y-94964053D01*
X106461694Y-94996664D01*
X106396472Y-94996663D01*
X106339988Y-94964052D01*
X106307377Y-94907567D01*
X106307377Y-94842346D01*
X106321156Y-94790926D01*
X106340226Y-94572949D01*
X106321156Y-94354972D01*
X106264524Y-94143619D01*
X106172051Y-93945311D01*
X106168110Y-93939683D01*
X106046544Y-93766068D01*
X105891829Y-93611353D01*
X105712588Y-93485847D01*
X105514278Y-93393373D01*
X105302926Y-93336742D01*
X105084949Y-93317672D01*
X104866972Y-93336742D01*
X104655619Y-93393374D01*
X104655615Y-93393375D01*
X104655614Y-93393376D01*
X104618703Y-93410588D01*
X104558858Y-93422220D01*
X104500558Y-93404395D01*
X104457450Y-93361287D01*
X104439627Y-93302986D01*
X104451260Y-93243142D01*
X104465401Y-93212815D01*
X104468473Y-93206228D01*
X104525105Y-92994875D01*
X104544175Y-92776898D01*
X104525105Y-92558921D01*
X104468473Y-92347568D01*
X104376000Y-92149260D01*
X104366290Y-92135393D01*
X104262413Y-91987040D01*
X104250496Y-91970021D01*
X104250495Y-91970020D01*
X104250493Y-91970017D01*
X104095778Y-91815302D01*
X103916537Y-91689796D01*
X103718227Y-91597322D01*
X103506875Y-91540691D01*
X103288898Y-91521621D01*
X103070921Y-91540691D01*
X102859568Y-91597323D01*
X102859564Y-91597324D01*
X102859563Y-91597325D01*
X102822650Y-91614538D01*
X102762805Y-91626170D01*
X102704505Y-91608345D01*
X102661397Y-91565237D01*
X102643574Y-91506936D01*
X102655207Y-91447092D01*
X102672420Y-91410178D01*
X102674132Y-91403789D01*
X102729053Y-91198823D01*
X102748123Y-90980846D01*
X102729053Y-90762869D01*
X102672421Y-90551516D01*
X102579948Y-90353208D01*
X102454444Y-90173969D01*
X102454443Y-90173968D01*
X102454441Y-90173965D01*
X102299726Y-90019250D01*
X102120485Y-89893744D01*
X101922175Y-89801270D01*
X101710823Y-89744639D01*
X101710822Y-89744638D01*
X101492846Y-89725569D01*
X101492845Y-89725569D01*
X101274868Y-89744639D01*
X101128201Y-89783938D01*
X101062979Y-89783938D01*
X101006495Y-89751326D01*
X100836317Y-89581148D01*
X100833327Y-89578055D01*
X100791599Y-89533375D01*
X100758423Y-89513200D01*
X100747760Y-89505942D01*
X100716819Y-89482479D01*
X100701487Y-89476433D01*
X100682247Y-89466877D01*
X100668172Y-89458318D01*
X100630784Y-89447842D01*
X100618558Y-89443730D01*
X100582433Y-89429484D01*
X100566040Y-89427799D01*
X100544938Y-89423789D01*
X100529072Y-89419344D01*
X100529071Y-89419344D01*
X100490238Y-89419344D01*
X100477353Y-89418683D01*
X100438734Y-89414712D01*
X100422499Y-89417512D01*
X100401092Y-89419344D01*
X95386991Y-89419344D01*
X95338773Y-89409753D01*
X95297896Y-89382439D01*
X94346760Y-88431303D01*
X94343770Y-88428210D01*
X94321501Y-88404366D01*
X94302042Y-88383530D01*
X94274051Y-88366508D01*
X94268866Y-88363355D01*
X94258203Y-88356097D01*
X94227262Y-88332634D01*
X94211930Y-88326588D01*
X94192690Y-88317032D01*
X94178615Y-88308473D01*
X94141227Y-88297997D01*
X94129001Y-88293885D01*
X94092876Y-88279639D01*
X94076483Y-88277954D01*
X94055381Y-88273944D01*
X94039515Y-88269499D01*
X94039514Y-88269499D01*
X94000681Y-88269499D01*
X93987796Y-88268838D01*
X93949177Y-88264867D01*
X93932942Y-88267667D01*
X93911535Y-88269499D01*
X92566150Y-88269499D01*
X92561849Y-88269426D01*
X92550565Y-88269040D01*
X92500755Y-88267339D01*
X92500752Y-88267339D01*
X92463028Y-88276531D01*
X92450360Y-88278939D01*
X92411888Y-88284227D01*
X92396771Y-88290794D01*
X92376412Y-88297641D01*
X92360406Y-88301541D01*
X92326568Y-88320568D01*
X92315017Y-88326305D01*
X92300446Y-88332635D01*
X92279390Y-88341781D01*
X92266609Y-88352179D01*
X92248853Y-88364264D01*
X92234488Y-88372341D01*
X92207026Y-88399802D01*
X92197455Y-88408439D01*
X92167336Y-88432944D01*
X92157831Y-88446409D01*
X92143992Y-88462836D01*
X89010789Y-91596039D01*
X88956575Y-91628020D01*
X88893656Y-91629785D01*
X88837734Y-91600895D01*
X88802765Y-91548559D01*
X88774289Y-91467179D01*
X88678315Y-91314437D01*
X88550763Y-91186885D01*
X88398021Y-91090911D01*
X88227757Y-91031333D01*
X88048500Y-91011136D01*
X87869242Y-91031333D01*
X87698978Y-91090911D01*
X87546236Y-91186885D01*
X87418684Y-91314437D01*
X87322710Y-91467179D01*
X87263132Y-91637443D01*
X87242935Y-91816701D01*
X87263132Y-91995958D01*
X87322710Y-92166222D01*
X87418684Y-92318964D01*
X87546236Y-92446516D01*
X87698978Y-92542490D01*
X87780358Y-92570966D01*
X87832694Y-92605935D01*
X87861584Y-92661857D01*
X87859819Y-92724776D01*
X87827838Y-92778990D01*
X85250233Y-95356597D01*
X85209359Y-95383909D01*
X85161141Y-95393500D01*
X84158133Y-95393500D01*
X84100301Y-95379444D01*
X84055372Y-95340412D01*
X84033370Y-95285113D01*
X84039204Y-95225885D01*
X84043715Y-95212993D01*
X84066368Y-95148255D01*
X84086565Y-94969000D01*
X84066368Y-94789745D01*
X84058380Y-94766918D01*
X84006789Y-94619478D01*
X83910815Y-94466736D01*
X83783263Y-94339184D01*
X83630521Y-94243210D01*
X83460257Y-94183632D01*
X83281000Y-94163435D01*
X83101742Y-94183632D01*
X82931478Y-94243210D01*
X82778736Y-94339184D01*
X82651184Y-94466736D01*
X82555210Y-94619478D01*
X82495632Y-94789742D01*
X82475435Y-94969000D01*
X82495632Y-95148257D01*
X82522796Y-95225885D01*
X82528630Y-95285113D01*
X82506628Y-95340412D01*
X82461699Y-95379444D01*
X82403867Y-95393500D01*
X81892149Y-95393500D01*
X81887848Y-95393427D01*
X81873676Y-95392942D01*
X81826754Y-95391340D01*
X81826752Y-95391340D01*
X81789029Y-95400532D01*
X81776360Y-95402940D01*
X81737887Y-95408228D01*
X81722770Y-95414795D01*
X81702407Y-95421643D01*
X81686405Y-95425542D01*
X81652567Y-95444568D01*
X81641019Y-95450304D01*
X81605390Y-95465781D01*
X81592604Y-95476183D01*
X81574850Y-95488266D01*
X81560487Y-95496342D01*
X81533041Y-95523789D01*
X81523465Y-95532432D01*
X81493335Y-95556945D01*
X81483831Y-95570409D01*
X81469990Y-95586839D01*
X80930304Y-96126525D01*
X80882824Y-96156359D01*
X80827101Y-96162638D01*
X80774173Y-96144117D01*
X80734521Y-96104465D01*
X80732271Y-96100884D01*
X80710816Y-96066738D01*
X80710814Y-96066736D01*
X80710813Y-96066734D01*
X80583263Y-95939184D01*
X80430521Y-95843210D01*
X80260257Y-95783632D01*
X80081000Y-95763435D01*
X79901742Y-95783632D01*
X79731478Y-95843210D01*
X79578736Y-95939184D01*
X79451184Y-96066736D01*
X79355210Y-96219478D01*
X79295632Y-96389742D01*
X79275435Y-96568999D01*
X79295632Y-96748257D01*
X79355210Y-96918521D01*
X79451184Y-97071263D01*
X79578734Y-97198813D01*
X79578736Y-97198814D01*
X79578738Y-97198816D01*
X79616466Y-97222522D01*
X79656117Y-97262173D01*
X79674638Y-97315101D01*
X79668359Y-97370824D01*
X79638525Y-97418304D01*
X72702237Y-104354592D01*
X72641183Y-104388337D01*
X72583377Y-104385092D01*
X72583363Y-104385222D01*
X72581063Y-104384962D01*
X72571533Y-104384428D01*
X72569260Y-104383633D01*
X72569256Y-104383632D01*
X72569255Y-104383632D01*
X72390000Y-104363435D01*
X72210742Y-104383632D01*
X72040478Y-104443210D01*
X71887736Y-104539184D01*
X71760184Y-104666736D01*
X71664210Y-104819478D01*
X71604632Y-104989742D01*
X71584435Y-105169000D01*
X67090502Y-105169000D01*
X67167601Y-104460483D01*
X67168275Y-104455311D01*
X67307718Y-103534983D01*
X67308605Y-103529860D01*
X67486549Y-102616191D01*
X67487666Y-102611040D01*
X67540494Y-102389742D01*
X67703779Y-101705724D01*
X67705112Y-101700618D01*
X67709973Y-101683476D01*
X67959048Y-100805096D01*
X67960582Y-100800092D01*
X68251882Y-99916006D01*
X68253602Y-99911133D01*
X68581748Y-99040052D01*
X68583710Y-99035158D01*
X68599015Y-98999184D01*
X68948107Y-98178654D01*
X68950256Y-98173881D01*
X69350285Y-97333408D01*
X69352652Y-97328694D01*
X69787593Y-96505765D01*
X69790129Y-96501203D01*
X70259257Y-95697193D01*
X70261957Y-95692781D01*
X70764410Y-94909175D01*
X70767311Y-94904853D01*
X71302196Y-94143039D01*
X71305279Y-94138837D01*
X71871668Y-93400137D01*
X71874941Y-93396049D01*
X72471835Y-92681767D01*
X72475240Y-92677862D01*
X72561525Y-92583000D01*
X74759435Y-92583000D01*
X74779632Y-92762257D01*
X74839210Y-92932521D01*
X74935184Y-93085263D01*
X75062736Y-93212815D01*
X75193603Y-93295044D01*
X75215478Y-93308789D01*
X75385745Y-93368368D01*
X75565000Y-93388565D01*
X75744255Y-93368368D01*
X75914522Y-93308789D01*
X76067262Y-93212816D01*
X76194816Y-93085262D01*
X76290789Y-92932522D01*
X76350368Y-92762255D01*
X76370565Y-92583000D01*
X76350368Y-92403745D01*
X76320701Y-92318963D01*
X76290789Y-92233478D01*
X76194815Y-92080736D01*
X76067263Y-91953184D01*
X75914521Y-91857210D01*
X75744257Y-91797632D01*
X75565000Y-91777435D01*
X75385742Y-91797632D01*
X75215478Y-91857210D01*
X75062736Y-91953184D01*
X74935184Y-92080736D01*
X74839210Y-92233478D01*
X74779632Y-92403742D01*
X74759435Y-92583000D01*
X72561525Y-92583000D01*
X73101582Y-91989261D01*
X73105173Y-91985477D01*
X73759855Y-91323776D01*
X73763606Y-91320140D01*
X74445485Y-90686494D01*
X74449378Y-90683026D01*
X74455264Y-90678000D01*
X76791435Y-90678000D01*
X76792192Y-90684721D01*
X76811632Y-90857257D01*
X76871210Y-91027521D01*
X76967184Y-91180263D01*
X77094736Y-91307815D01*
X77123717Y-91326025D01*
X77247478Y-91403789D01*
X77417745Y-91463368D01*
X77597000Y-91483565D01*
X77776255Y-91463368D01*
X77946522Y-91403789D01*
X78099262Y-91307816D01*
X78226816Y-91180262D01*
X78255781Y-91134163D01*
X78303593Y-91089801D01*
X78367180Y-91075287D01*
X78429505Y-91094512D01*
X78517478Y-91149789D01*
X78604570Y-91180264D01*
X78687745Y-91209368D01*
X78867000Y-91229565D01*
X79046255Y-91209368D01*
X79216522Y-91149789D01*
X79369262Y-91053816D01*
X79496816Y-90926262D01*
X79592789Y-90773522D01*
X79652368Y-90603255D01*
X79672565Y-90424000D01*
X79652368Y-90244745D01*
X79592789Y-90074478D01*
X79525783Y-89967838D01*
X79496815Y-89921736D01*
X79369263Y-89794184D01*
X79216521Y-89698210D01*
X79046257Y-89638632D01*
X78867000Y-89618435D01*
X78687742Y-89638632D01*
X78517478Y-89698210D01*
X78364736Y-89794184D01*
X78237186Y-89921734D01*
X78208217Y-89967838D01*
X78160405Y-90012200D01*
X78096818Y-90026713D01*
X78034495Y-90007488D01*
X77971392Y-89967838D01*
X77946521Y-89952210D01*
X77776257Y-89892632D01*
X77597000Y-89872435D01*
X77417742Y-89892632D01*
X77247478Y-89952210D01*
X77094736Y-90048184D01*
X76967184Y-90175736D01*
X76871210Y-90328478D01*
X76811632Y-90498742D01*
X76799856Y-90603257D01*
X76791435Y-90678000D01*
X74455264Y-90678000D01*
X75157245Y-90078558D01*
X75161262Y-90075270D01*
X75893910Y-89501013D01*
X75898094Y-89497874D01*
X76654119Y-88954926D01*
X76658416Y-88951973D01*
X77436623Y-88441192D01*
X77441047Y-88438420D01*
X78239994Y-87960753D01*
X78244521Y-87958174D01*
X78995909Y-87550735D01*
X79055970Y-87535500D01*
X99506030Y-87535500D01*
X99566090Y-87550735D01*
G37*
%TD.AperFunction*%
%TD*%
M02*
