%TF.GenerationSoftware,KiCad,Pcbnew,(6.0.0)*%
%TF.CreationDate,2023-06-19T18:06:32-05:00*%
%TF.ProjectId,RoundScanner,526f756e-6453-4636-916e-6e65722e6b69,1.0*%
%TF.SameCoordinates,Original*%
%TF.FileFunction,Copper,L3,Inr*%
%TF.FilePolarity,Positive*%
%FSLAX46Y46*%
G04 Gerber Fmt 4.6, Leading zero omitted, Abs format (unit mm)*
G04 Created by KiCad (PCBNEW (6.0.0)) date 2023-06-19 18:06:32*
%MOMM*%
%LPD*%
G01*
G04 APERTURE LIST*
G04 Aperture macros list*
%AMHorizOval*
0 Thick line with rounded ends*
0 $1 width*
0 $2 $3 position (X,Y) of the first rounded end (center of the circle)*
0 $4 $5 position (X,Y) of the second rounded end (center of the circle)*
0 Add line between two ends*
20,1,$1,$2,$3,$4,$5,0*
0 Add two circle primitives to create the rounded ends*
1,1,$1,$2,$3*
1,1,$1,$4,$5*%
%AMRotRect*
0 Rectangle, with rotation*
0 The origin of the aperture is its center*
0 $1 length*
0 $2 width*
0 $3 Rotation angle, in degrees counterclockwise*
0 Add horizontal line*
21,1,$1,$2,0,0,$3*%
G04 Aperture macros list end*
%TA.AperFunction,ComponentPad*%
%ADD10C,3.500000*%
%TD*%
%TA.AperFunction,ComponentPad*%
%ADD11RotRect,1.700000X1.700000X45.000000*%
%TD*%
%TA.AperFunction,ComponentPad*%
%ADD12HorizOval,1.700000X0.000000X0.000000X0.000000X0.000000X0*%
%TD*%
%TA.AperFunction,ComponentPad*%
%ADD13RotRect,1.700000X1.700000X225.000000*%
%TD*%
%TA.AperFunction,ComponentPad*%
%ADD14HorizOval,1.700000X0.000000X0.000000X0.000000X0.000000X0*%
%TD*%
%TA.AperFunction,ViaPad*%
%ADD15C,0.800000*%
%TD*%
%TA.AperFunction,Conductor*%
%ADD16C,0.500000*%
%TD*%
%TA.AperFunction,Conductor*%
%ADD17C,0.250000*%
%TD*%
G04 APERTURE END LIST*
D10*
%TO.N,GND*%
%TO.C,H2*%
X72136000Y-97556000D03*
%TD*%
%TO.N,GND*%
%TO.C,H1*%
X103632000Y-115717000D03*
%TD*%
D11*
%TO.N,GND*%
%TO.C,J4*%
X106831000Y-96319000D03*
D12*
%TO.N,LED RESET*%
X105034949Y-94522949D03*
%TO.N,AS7341_INT*%
X103238898Y-92726898D03*
%TO.N,DRDY_INT*%
X101442846Y-90930846D03*
%TD*%
D13*
%TO.N,GND*%
%TO.C,J1*%
X77975672Y-121628317D03*
D14*
%TO.N,+3V3*%
X79771723Y-123424368D03*
%TO.N,SDA*%
X81567774Y-125220419D03*
%TO.N,SCL*%
X83363826Y-127016471D03*
%TD*%
D15*
%TO.N,+3V3*%
X90574204Y-96811500D03*
X78411285Y-107574192D03*
X81941000Y-102869000D03*
X89408000Y-125476000D03*
X76200000Y-105410000D03*
X106531000Y-104319000D03*
X74676000Y-118745000D03*
X93726000Y-116967000D03*
X70871000Y-113929000D03*
X84963000Y-97155000D03*
X85001000Y-113509000D03*
X105871000Y-110849000D03*
X91059000Y-92710000D03*
X91402051Y-100123252D03*
X91331250Y-112159250D03*
X83185000Y-116459000D03*
%TO.N,Net-(C2-Pad2)*%
X88048500Y-91816701D03*
X103251000Y-97155000D03*
%TO.N,/ADC/AIN+*%
X80645000Y-96012000D03*
X78867000Y-90424000D03*
%TO.N,SDA*%
X75381000Y-109069000D03*
X102362000Y-109982000D03*
X90321000Y-123919000D03*
X83819942Y-123004567D03*
X79536989Y-111252000D03*
%TO.N,LED RESET*%
X109601000Y-111633000D03*
%TO.N,Net-(R25-Pad1)*%
X103692257Y-111133368D03*
X108157333Y-108095500D03*
%TO.N,Net-(R26-Pad1)*%
X107061000Y-107315000D03*
X99441000Y-110871000D03*
%TO.N,Net-(R27-Pad1)*%
X106680000Y-105791000D03*
X82991000Y-99649000D03*
%TO.N,Net-(R28-Pad1)*%
X107569000Y-105283000D03*
X84391000Y-99629000D03*
%TO.N,DRDY_INT*%
X72390000Y-105410000D03*
%TO.N,SCL*%
X102487287Y-111476921D03*
X85641000Y-123059000D03*
X75315299Y-112644701D03*
X91440000Y-123825000D03*
%TO.N,Net-(D2-Pad2)*%
X95135000Y-124257513D03*
%TO.N,+1V8*%
X80141999Y-109974704D03*
X82231000Y-115369000D03*
%TO.N,/ADC/AIN2+*%
X75565000Y-92583000D03*
X98425000Y-117856000D03*
%TO.N,/ADC/AIN2-*%
X87080500Y-112919448D03*
X77597000Y-90678000D03*
%TO.N,GND*%
X105029000Y-119380000D03*
X99231000Y-89019000D03*
X102235000Y-117983000D03*
X84963000Y-116332000D03*
X89916000Y-89027000D03*
X107696000Y-98171000D03*
X85852000Y-92837000D03*
X108131000Y-109639000D03*
X99314000Y-116205000D03*
X95885000Y-89027000D03*
X101981000Y-122809000D03*
X81601000Y-110099000D03*
X106934000Y-115316000D03*
X106934000Y-117856000D03*
X108839000Y-99568000D03*
X97901000Y-98409000D03*
X84328000Y-88773000D03*
X100330000Y-93091000D03*
X73571000Y-113649000D03*
X83461000Y-106149000D03*
X72301000Y-109149000D03*
X100203000Y-123952000D03*
X79751000Y-126269000D03*
X79551000Y-116279000D03*
X85971000Y-128069000D03*
%TO.N,AS7341_INT*%
X80291000Y-105329000D03*
%TD*%
D16*
%TO.N,+3V3*%
X91402051Y-100123252D02*
X91402051Y-97639347D01*
X91402051Y-97639347D02*
X90574204Y-96811500D01*
D17*
%TO.N,SDA*%
X74422000Y-110028000D02*
X75381000Y-109069000D01*
X77564000Y-111252000D02*
X79536989Y-111252000D01*
X90271000Y-123969000D02*
X90321000Y-123919000D01*
X75381000Y-109069000D02*
X77564000Y-111252000D01*
X74422000Y-113606625D02*
X74422000Y-110028000D01*
X83819942Y-123004567D02*
X84784375Y-123969000D01*
X83819942Y-123004567D02*
X74422000Y-113606625D01*
X84784375Y-123969000D02*
X90271000Y-123969000D01*
%TO.N,SCL*%
X90674000Y-123059000D02*
X85641000Y-123059000D01*
X76941301Y-112644701D02*
X85641000Y-121344400D01*
X85641000Y-121344400D02*
X85641000Y-123059000D01*
X91440000Y-123825000D02*
X90674000Y-123059000D01*
X75315299Y-112644701D02*
X76941301Y-112644701D01*
%TD*%
%TA.AperFunction,Conductor*%
%TO.N,+3V3*%
G36*
X83167410Y-88155002D02*
G01*
X83213903Y-88208658D01*
X83224007Y-88278932D01*
X83216027Y-88308016D01*
X83214131Y-88311620D01*
X83212422Y-88317125D01*
X83212420Y-88317129D01*
X83159904Y-88486261D01*
X83148703Y-88522333D01*
X83122770Y-88741440D01*
X83137200Y-88961604D01*
X83138621Y-88967200D01*
X83138622Y-88967205D01*
X83188470Y-89163479D01*
X83191511Y-89175452D01*
X83193928Y-89180694D01*
X83193928Y-89180695D01*
X83264514Y-89333806D01*
X83283883Y-89375821D01*
X83411222Y-89556002D01*
X83569264Y-89709961D01*
X83574060Y-89713166D01*
X83574063Y-89713168D01*
X83711930Y-89805287D01*
X83752717Y-89832540D01*
X83758020Y-89834818D01*
X83758023Y-89834820D01*
X83950129Y-89917355D01*
X83955436Y-89919635D01*
X84035088Y-89937658D01*
X84164995Y-89967054D01*
X84165001Y-89967055D01*
X84170632Y-89968329D01*
X84176403Y-89968556D01*
X84176405Y-89968556D01*
X84244211Y-89971220D01*
X84391098Y-89976991D01*
X84500275Y-89961161D01*
X84603738Y-89946160D01*
X84603743Y-89946159D01*
X84609452Y-89945331D01*
X84614916Y-89943476D01*
X84614921Y-89943475D01*
X84812907Y-89876268D01*
X84812912Y-89876266D01*
X84818379Y-89874410D01*
X85010884Y-89766602D01*
X85018634Y-89760157D01*
X85176086Y-89629204D01*
X85180518Y-89625518D01*
X85275008Y-89511907D01*
X85317908Y-89460326D01*
X85317910Y-89460323D01*
X85321602Y-89455884D01*
X85409962Y-89298106D01*
X85426586Y-89268422D01*
X85426587Y-89268420D01*
X85429410Y-89263379D01*
X85431266Y-89257912D01*
X85431268Y-89257907D01*
X85498475Y-89059921D01*
X85498476Y-89059916D01*
X85500331Y-89054452D01*
X85501159Y-89048743D01*
X85501160Y-89048738D01*
X85531458Y-88839772D01*
X85531991Y-88836098D01*
X85533643Y-88773000D01*
X85513454Y-88553289D01*
X85453565Y-88340936D01*
X85441627Y-88316728D01*
X85429437Y-88246786D01*
X85456996Y-88181356D01*
X85515555Y-88141213D01*
X85554633Y-88135000D01*
X88830631Y-88135000D01*
X88898752Y-88155002D01*
X88945245Y-88208658D01*
X88955349Y-88278932D01*
X88929581Y-88339005D01*
X88904863Y-88370360D01*
X88802131Y-88565620D01*
X88736703Y-88776333D01*
X88710770Y-88995440D01*
X88725200Y-89215604D01*
X88726621Y-89221200D01*
X88726622Y-89221205D01*
X88769281Y-89389171D01*
X88779511Y-89429452D01*
X88781928Y-89434694D01*
X88781928Y-89434695D01*
X88818229Y-89513438D01*
X88871883Y-89629821D01*
X88999222Y-89810002D01*
X89157264Y-89963961D01*
X89162060Y-89967166D01*
X89162063Y-89967168D01*
X89243168Y-90021360D01*
X89340717Y-90086540D01*
X89346020Y-90088818D01*
X89346023Y-90088820D01*
X89527783Y-90166910D01*
X89543436Y-90173635D01*
X89613439Y-90189475D01*
X89752995Y-90221054D01*
X89753001Y-90221055D01*
X89758632Y-90222329D01*
X89764403Y-90222556D01*
X89764405Y-90222556D01*
X89832211Y-90225220D01*
X89979098Y-90230991D01*
X90102807Y-90213054D01*
X90191738Y-90200160D01*
X90191743Y-90200159D01*
X90197452Y-90199331D01*
X90202916Y-90197476D01*
X90202921Y-90197475D01*
X90400907Y-90130268D01*
X90400912Y-90130266D01*
X90406379Y-90128410D01*
X90417347Y-90122268D01*
X90501160Y-90075330D01*
X90598884Y-90020602D01*
X90604863Y-90015630D01*
X90764086Y-89883204D01*
X90768518Y-89879518D01*
X90843447Y-89789426D01*
X90905908Y-89714326D01*
X90905910Y-89714323D01*
X90909602Y-89709884D01*
X91007998Y-89534186D01*
X91014586Y-89522422D01*
X91014587Y-89522420D01*
X91017410Y-89517379D01*
X91019266Y-89511912D01*
X91019268Y-89511907D01*
X91086475Y-89313921D01*
X91086476Y-89313916D01*
X91088331Y-89308452D01*
X91089159Y-89302743D01*
X91089160Y-89302738D01*
X91109351Y-89163479D01*
X91119991Y-89090098D01*
X91121643Y-89027000D01*
X91101454Y-88807289D01*
X91092086Y-88774070D01*
X91043134Y-88600500D01*
X91041565Y-88594936D01*
X90943980Y-88397053D01*
X90920660Y-88365824D01*
X90898680Y-88336389D01*
X90873948Y-88269839D01*
X90889122Y-88200483D01*
X90939384Y-88150341D01*
X90999638Y-88135000D01*
X94799631Y-88135000D01*
X94867752Y-88155002D01*
X94914245Y-88208658D01*
X94924349Y-88278932D01*
X94898581Y-88339005D01*
X94873863Y-88370360D01*
X94771131Y-88565620D01*
X94705703Y-88776333D01*
X94679770Y-88995440D01*
X94694200Y-89215604D01*
X94695621Y-89221200D01*
X94695622Y-89221205D01*
X94738281Y-89389171D01*
X94748511Y-89429452D01*
X94750928Y-89434694D01*
X94750928Y-89434695D01*
X94787229Y-89513438D01*
X94840883Y-89629821D01*
X94968222Y-89810002D01*
X95126264Y-89963961D01*
X95131060Y-89967166D01*
X95131063Y-89967168D01*
X95212168Y-90021360D01*
X95309717Y-90086540D01*
X95315020Y-90088818D01*
X95315023Y-90088820D01*
X95496783Y-90166910D01*
X95512436Y-90173635D01*
X95582439Y-90189475D01*
X95721995Y-90221054D01*
X95722001Y-90221055D01*
X95727632Y-90222329D01*
X95733403Y-90222556D01*
X95733405Y-90222556D01*
X95801211Y-90225220D01*
X95948098Y-90230991D01*
X96071807Y-90213054D01*
X96160738Y-90200160D01*
X96160743Y-90200159D01*
X96166452Y-90199331D01*
X96171916Y-90197476D01*
X96171921Y-90197475D01*
X96369907Y-90130268D01*
X96369912Y-90130266D01*
X96375379Y-90128410D01*
X96386347Y-90122268D01*
X96470160Y-90075330D01*
X96567884Y-90020602D01*
X96573863Y-90015630D01*
X96733086Y-89883204D01*
X96737518Y-89879518D01*
X96812447Y-89789426D01*
X96874908Y-89714326D01*
X96874910Y-89714323D01*
X96878602Y-89709884D01*
X96976998Y-89534186D01*
X96983586Y-89522422D01*
X96983587Y-89522420D01*
X96986410Y-89517379D01*
X96988266Y-89511912D01*
X96988268Y-89511907D01*
X97055475Y-89313921D01*
X97055476Y-89313916D01*
X97057331Y-89308452D01*
X97058159Y-89302743D01*
X97058160Y-89302738D01*
X97078351Y-89163479D01*
X97088991Y-89090098D01*
X97090643Y-89027000D01*
X97070454Y-88807289D01*
X97061086Y-88774070D01*
X97012134Y-88600500D01*
X97010565Y-88594936D01*
X96912980Y-88397053D01*
X96889660Y-88365824D01*
X96867680Y-88336389D01*
X96842948Y-88269839D01*
X96858122Y-88200483D01*
X96908384Y-88150341D01*
X96968638Y-88135000D01*
X98139324Y-88135000D01*
X98207445Y-88155002D01*
X98253938Y-88208658D01*
X98264042Y-88278932D01*
X98238275Y-88339004D01*
X98219863Y-88362360D01*
X98117131Y-88557620D01*
X98051703Y-88768333D01*
X98025770Y-88987440D01*
X98040200Y-89207604D01*
X98041621Y-89213200D01*
X98041622Y-89213205D01*
X98091367Y-89409073D01*
X98094511Y-89421452D01*
X98096928Y-89426694D01*
X98096928Y-89426695D01*
X98112432Y-89460326D01*
X98186883Y-89621821D01*
X98314222Y-89802002D01*
X98472264Y-89955961D01*
X98477060Y-89959166D01*
X98477063Y-89959168D01*
X98559072Y-90013964D01*
X98655717Y-90078540D01*
X98661020Y-90080818D01*
X98661023Y-90080820D01*
X98776117Y-90130268D01*
X98858436Y-90165635D01*
X98899426Y-90174910D01*
X99067995Y-90213054D01*
X99068001Y-90213055D01*
X99073632Y-90214329D01*
X99079403Y-90214556D01*
X99079405Y-90214556D01*
X99147211Y-90217220D01*
X99294098Y-90222991D01*
X99423083Y-90204289D01*
X99506738Y-90192160D01*
X99506743Y-90192159D01*
X99512452Y-90191331D01*
X99517916Y-90189476D01*
X99517921Y-90189475D01*
X99715907Y-90122268D01*
X99715912Y-90122266D01*
X99721379Y-90120410D01*
X99742025Y-90108848D01*
X99756779Y-90100585D01*
X99825987Y-90084751D01*
X99892769Y-90108848D01*
X99935922Y-90165225D01*
X99941745Y-90235982D01*
X99934754Y-90258737D01*
X99868273Y-90419236D01*
X99867118Y-90424048D01*
X99808780Y-90667039D01*
X99808779Y-90667045D01*
X99807625Y-90671852D01*
X99787242Y-90930846D01*
X99807625Y-91189840D01*
X99808779Y-91194647D01*
X99808780Y-91194653D01*
X99830600Y-91285537D01*
X99868273Y-91442456D01*
X99870166Y-91447027D01*
X99870167Y-91447029D01*
X99964364Y-91674439D01*
X99967692Y-91682474D01*
X100007115Y-91746806D01*
X100018675Y-91765671D01*
X100037213Y-91834205D01*
X100015756Y-91901882D01*
X99954853Y-91949718D01*
X99930848Y-91958574D01*
X99810957Y-92002804D01*
X99805996Y-92005756D01*
X99805995Y-92005756D01*
X99641498Y-92103622D01*
X99621341Y-92115614D01*
X99455457Y-92261090D01*
X99318863Y-92434360D01*
X99216131Y-92629620D01*
X99150703Y-92840333D01*
X99124770Y-93059440D01*
X99139200Y-93279604D01*
X99140621Y-93285200D01*
X99140622Y-93285205D01*
X99179890Y-93439821D01*
X99193511Y-93493452D01*
X99195928Y-93498694D01*
X99195928Y-93498695D01*
X99231844Y-93576602D01*
X99285883Y-93693821D01*
X99413222Y-93874002D01*
X99571264Y-94027961D01*
X99576060Y-94031166D01*
X99576063Y-94031168D01*
X99660261Y-94087427D01*
X99754717Y-94150540D01*
X99760020Y-94152818D01*
X99760023Y-94152820D01*
X99868595Y-94199466D01*
X99957436Y-94237635D01*
X100037088Y-94255658D01*
X100166995Y-94285054D01*
X100167001Y-94285055D01*
X100172632Y-94286329D01*
X100178403Y-94286556D01*
X100178405Y-94286556D01*
X100246211Y-94289220D01*
X100393098Y-94294991D01*
X100502275Y-94279161D01*
X100605738Y-94264160D01*
X100605743Y-94264159D01*
X100611452Y-94263331D01*
X100616916Y-94261476D01*
X100616921Y-94261475D01*
X100814907Y-94194268D01*
X100814912Y-94194266D01*
X100820379Y-94192410D01*
X101012884Y-94084602D01*
X101031774Y-94068892D01*
X101178086Y-93947204D01*
X101182518Y-93943518D01*
X101244256Y-93869287D01*
X101319908Y-93778326D01*
X101319910Y-93778323D01*
X101323602Y-93773884D01*
X101431410Y-93581379D01*
X101433266Y-93575912D01*
X101433268Y-93575907D01*
X101492673Y-93400903D01*
X101533510Y-93342827D01*
X101599263Y-93316048D01*
X101669055Y-93329069D01*
X101720728Y-93377756D01*
X101728394Y-93393185D01*
X101763744Y-93478526D01*
X101899486Y-93700038D01*
X102068209Y-93897587D01*
X102265758Y-94066310D01*
X102487270Y-94202052D01*
X102491840Y-94203945D01*
X102491844Y-94203947D01*
X102722715Y-94299577D01*
X102727288Y-94301471D01*
X102815622Y-94322678D01*
X102975091Y-94360964D01*
X102975097Y-94360965D01*
X102979904Y-94362119D01*
X103238898Y-94382502D01*
X103243828Y-94382114D01*
X103243835Y-94382114D01*
X103244267Y-94382080D01*
X103244429Y-94382114D01*
X103248783Y-94382114D01*
X103248783Y-94383029D01*
X103313747Y-94396674D01*
X103364308Y-94446515D01*
X103378785Y-94513064D01*
X103379733Y-94513064D01*
X103379733Y-94517424D01*
X103379767Y-94517580D01*
X103379733Y-94518012D01*
X103379733Y-94518019D01*
X103379345Y-94522949D01*
X103399728Y-94781943D01*
X103400882Y-94786750D01*
X103400883Y-94786756D01*
X103415217Y-94846459D01*
X103460376Y-95034559D01*
X103462269Y-95039130D01*
X103462270Y-95039132D01*
X103547784Y-95245579D01*
X103559795Y-95274577D01*
X103695537Y-95496089D01*
X103864260Y-95693638D01*
X104061809Y-95862361D01*
X104283321Y-95998103D01*
X104287891Y-95999996D01*
X104287895Y-95999998D01*
X104518766Y-96095628D01*
X104523339Y-96097522D01*
X104636839Y-96124771D01*
X104731473Y-96147491D01*
X104793042Y-96182843D01*
X104825725Y-96245870D01*
X104827274Y-96284053D01*
X104823354Y-96319000D01*
X104824139Y-96325999D01*
X104833433Y-96408857D01*
X104843372Y-96497472D01*
X104902434Y-96667073D01*
X104997603Y-96819375D01*
X105000769Y-96822929D01*
X105002052Y-96824212D01*
X105334196Y-97156355D01*
X106327071Y-98149229D01*
X106330625Y-98152397D01*
X106443756Y-98223089D01*
X106490926Y-98276150D01*
X106502716Y-98321703D01*
X106505200Y-98359604D01*
X106506622Y-98365202D01*
X106506622Y-98365204D01*
X106558090Y-98567857D01*
X106559511Y-98573452D01*
X106651883Y-98773821D01*
X106779222Y-98954002D01*
X106937264Y-99107961D01*
X106942060Y-99111166D01*
X106942063Y-99111168D01*
X107048826Y-99182504D01*
X107120717Y-99230540D01*
X107126020Y-99232818D01*
X107126023Y-99232820D01*
X107294935Y-99305390D01*
X107323436Y-99317635D01*
X107538632Y-99366329D01*
X107538121Y-99368585D01*
X107593858Y-99393264D01*
X107632930Y-99452542D01*
X107637580Y-99504245D01*
X107634839Y-99527408D01*
X107633770Y-99536440D01*
X107648200Y-99756604D01*
X107649621Y-99762200D01*
X107649622Y-99762205D01*
X107687273Y-99910452D01*
X107702511Y-99970452D01*
X107794883Y-100170821D01*
X107922222Y-100351002D01*
X108080264Y-100504961D01*
X108085060Y-100508166D01*
X108085063Y-100508168D01*
X108201489Y-100585961D01*
X108263717Y-100627540D01*
X108269020Y-100629818D01*
X108269023Y-100629820D01*
X108457556Y-100710820D01*
X108466436Y-100714635D01*
X108523671Y-100727586D01*
X108675995Y-100762054D01*
X108676001Y-100762055D01*
X108681632Y-100763329D01*
X108687403Y-100763556D01*
X108687405Y-100763556D01*
X108755211Y-100766220D01*
X108902098Y-100771991D01*
X109011275Y-100756161D01*
X109114738Y-100741160D01*
X109114743Y-100741159D01*
X109120452Y-100740331D01*
X109125916Y-100738476D01*
X109125921Y-100738475D01*
X109323907Y-100671268D01*
X109323912Y-100671266D01*
X109329379Y-100669410D01*
X109377913Y-100642230D01*
X109472661Y-100589168D01*
X109521884Y-100561602D01*
X109671691Y-100437008D01*
X109736855Y-100408827D01*
X109806911Y-100420350D01*
X109859615Y-100467919D01*
X109872413Y-100495941D01*
X109959511Y-100771764D01*
X110035830Y-101013453D01*
X110107668Y-101240953D01*
X110109173Y-101246101D01*
X110295732Y-101938433D01*
X110348559Y-102134479D01*
X110349843Y-102139679D01*
X110514146Y-102872488D01*
X110551149Y-103037527D01*
X110552212Y-103042795D01*
X110715040Y-103948351D01*
X110715878Y-103953658D01*
X110839948Y-104865342D01*
X110840559Y-104870681D01*
X110884786Y-105346891D01*
X110920502Y-105731452D01*
X110925644Y-105786823D01*
X110926026Y-105792176D01*
X110968637Y-106644422D01*
X110971972Y-106711128D01*
X110972125Y-106716482D01*
X110974336Y-107019124D01*
X110978846Y-107636583D01*
X110978770Y-107641956D01*
X110946255Y-108561448D01*
X110945951Y-108566813D01*
X110874258Y-109484118D01*
X110873725Y-109489465D01*
X110765040Y-110385921D01*
X110762987Y-110402851D01*
X110762229Y-110408156D01*
X110714008Y-110700820D01*
X110705421Y-110752933D01*
X110674610Y-110816895D01*
X110614109Y-110854046D01*
X110543128Y-110852591D01*
X110495568Y-110824973D01*
X110339189Y-110680418D01*
X110339186Y-110680416D01*
X110334949Y-110676499D01*
X110148350Y-110558764D01*
X109943421Y-110477006D01*
X109937761Y-110475880D01*
X109937757Y-110475879D01*
X109732691Y-110435089D01*
X109732688Y-110435089D01*
X109727024Y-110433962D01*
X109721249Y-110433886D01*
X109721245Y-110433886D01*
X109610504Y-110432437D01*
X109506406Y-110431074D01*
X109500709Y-110432053D01*
X109500708Y-110432053D01*
X109465695Y-110438069D01*
X109288957Y-110468438D01*
X109286206Y-110469453D01*
X109216153Y-110467785D01*
X109157357Y-110427990D01*
X109129410Y-110362725D01*
X109141184Y-110292712D01*
X109144572Y-110286225D01*
X109232410Y-110129379D01*
X109234266Y-110123912D01*
X109234268Y-110123907D01*
X109301475Y-109925921D01*
X109301476Y-109925916D01*
X109303331Y-109920452D01*
X109304159Y-109914743D01*
X109304160Y-109914738D01*
X109333283Y-109713879D01*
X109334991Y-109702098D01*
X109336643Y-109639000D01*
X109316454Y-109419289D01*
X109303251Y-109372472D01*
X109281935Y-109296891D01*
X109256565Y-109206936D01*
X109158980Y-109009053D01*
X109123846Y-108962003D01*
X109099114Y-108895453D01*
X109114288Y-108826097D01*
X109127929Y-108806046D01*
X109146190Y-108784089D01*
X109150935Y-108778384D01*
X109243477Y-108613138D01*
X109255919Y-108590922D01*
X109255920Y-108590920D01*
X109258743Y-108585879D01*
X109260599Y-108580412D01*
X109260601Y-108580407D01*
X109327808Y-108382421D01*
X109327809Y-108382416D01*
X109329664Y-108376952D01*
X109330492Y-108371243D01*
X109330493Y-108371238D01*
X109355840Y-108196418D01*
X109361324Y-108158598D01*
X109362976Y-108095500D01*
X109342787Y-107875789D01*
X109282898Y-107663436D01*
X109185313Y-107465553D01*
X109053300Y-107288767D01*
X108891282Y-107138999D01*
X108704683Y-107021264D01*
X108499754Y-106939506D01*
X108494094Y-106938380D01*
X108494090Y-106938379D01*
X108289025Y-106897589D01*
X108289020Y-106897589D01*
X108283357Y-106896462D01*
X108277580Y-106896386D01*
X108277577Y-106896386D01*
X108269853Y-106896285D01*
X108202001Y-106875392D01*
X108158499Y-106826024D01*
X108091535Y-106690234D01*
X108088980Y-106685053D01*
X108007138Y-106575454D01*
X107982406Y-106508905D01*
X107997580Y-106439548D01*
X108047842Y-106389406D01*
X108054831Y-106385954D01*
X108059379Y-106384410D01*
X108064422Y-106381586D01*
X108064426Y-106381584D01*
X108176341Y-106318908D01*
X108251884Y-106276602D01*
X108260823Y-106269168D01*
X108417086Y-106139204D01*
X108421518Y-106135518D01*
X108456977Y-106092884D01*
X108558908Y-105970326D01*
X108558910Y-105970323D01*
X108562602Y-105965884D01*
X108648528Y-105812452D01*
X108667586Y-105778422D01*
X108667587Y-105778420D01*
X108670410Y-105773379D01*
X108672266Y-105767912D01*
X108672268Y-105767907D01*
X108739475Y-105569921D01*
X108739476Y-105569916D01*
X108741331Y-105564452D01*
X108742159Y-105558743D01*
X108742160Y-105558738D01*
X108761346Y-105426413D01*
X108772991Y-105346098D01*
X108774643Y-105283000D01*
X108754454Y-105063289D01*
X108731952Y-104983500D01*
X108706076Y-104891753D01*
X108694565Y-104850936D01*
X108596980Y-104653053D01*
X108576375Y-104625459D01*
X108468420Y-104480891D01*
X108468420Y-104480890D01*
X108464967Y-104476267D01*
X108356951Y-104376418D01*
X108307189Y-104330418D01*
X108307186Y-104330416D01*
X108302949Y-104326499D01*
X108116350Y-104208764D01*
X107911421Y-104127006D01*
X107905761Y-104125880D01*
X107905757Y-104125879D01*
X107700691Y-104085089D01*
X107700688Y-104085089D01*
X107695024Y-104083962D01*
X107689249Y-104083886D01*
X107689245Y-104083886D01*
X107578504Y-104082437D01*
X107474406Y-104081074D01*
X107468709Y-104082053D01*
X107468708Y-104082053D01*
X107262654Y-104117459D01*
X107262653Y-104117459D01*
X107256957Y-104118438D01*
X107049957Y-104194804D01*
X107044996Y-104197756D01*
X107044995Y-104197756D01*
X106946851Y-104256146D01*
X106860341Y-104307614D01*
X106694457Y-104453090D01*
X106690878Y-104457630D01*
X106690877Y-104457631D01*
X106617491Y-104550722D01*
X106559610Y-104591836D01*
X106539881Y-104596897D01*
X106475896Y-104607891D01*
X106373654Y-104625459D01*
X106373653Y-104625459D01*
X106367957Y-104626438D01*
X106160957Y-104702804D01*
X106155996Y-104705756D01*
X106155995Y-104705756D01*
X106083605Y-104748824D01*
X105971341Y-104815614D01*
X105805457Y-104961090D01*
X105668863Y-105134360D01*
X105566131Y-105329620D01*
X105540022Y-105413704D01*
X105507761Y-105517604D01*
X105500703Y-105540333D01*
X105474770Y-105759440D01*
X105489200Y-105979604D01*
X105490621Y-105985200D01*
X105490622Y-105985205D01*
X105540480Y-106181518D01*
X105543511Y-106193452D01*
X105635883Y-106393821D01*
X105763222Y-106574002D01*
X105767356Y-106578029D01*
X105767361Y-106578035D01*
X105916023Y-106722857D01*
X105950861Y-106784718D01*
X105945199Y-106853020D01*
X105947131Y-106853620D01*
X105901208Y-107001518D01*
X105881703Y-107064333D01*
X105855770Y-107283440D01*
X105870200Y-107503604D01*
X105871621Y-107509200D01*
X105871622Y-107509205D01*
X105912206Y-107669000D01*
X105924511Y-107717452D01*
X105926928Y-107722694D01*
X105926928Y-107722695D01*
X105994820Y-107869962D01*
X106016883Y-107917821D01*
X106144222Y-108098002D01*
X106302264Y-108251961D01*
X106307060Y-108255166D01*
X106307063Y-108255168D01*
X106431556Y-108338351D01*
X106485717Y-108374540D01*
X106491020Y-108376818D01*
X106491023Y-108376820D01*
X106573745Y-108412360D01*
X106688436Y-108461635D01*
X106903632Y-108510329D01*
X106909401Y-108510556D01*
X106909404Y-108510556D01*
X106951663Y-108512216D01*
X107018946Y-108534877D01*
X107061143Y-108585367D01*
X107113216Y-108698321D01*
X107116546Y-108703033D01*
X107116549Y-108703038D01*
X107167903Y-108775702D01*
X107190884Y-108842877D01*
X107173899Y-108911812D01*
X107163956Y-108926428D01*
X107119863Y-108982360D01*
X107117174Y-108987471D01*
X107117172Y-108987474D01*
X107080170Y-109057804D01*
X107017131Y-109177620D01*
X106951703Y-109388333D01*
X106925770Y-109607440D01*
X106940200Y-109827604D01*
X106941621Y-109833200D01*
X106941622Y-109833205D01*
X106985305Y-110005204D01*
X106994511Y-110041452D01*
X106996928Y-110046694D01*
X106996928Y-110046695D01*
X107035046Y-110129379D01*
X107086883Y-110241821D01*
X107214222Y-110422002D01*
X107372264Y-110575961D01*
X107377060Y-110579166D01*
X107377063Y-110579168D01*
X107493617Y-110657046D01*
X107555717Y-110698540D01*
X107561020Y-110700818D01*
X107561023Y-110700820D01*
X107682320Y-110752933D01*
X107758436Y-110785635D01*
X107824978Y-110800692D01*
X107967995Y-110833054D01*
X107968001Y-110833055D01*
X107973632Y-110834329D01*
X107979403Y-110834556D01*
X107979405Y-110834556D01*
X108047211Y-110837220D01*
X108194098Y-110842991D01*
X108309441Y-110826267D01*
X108406738Y-110812160D01*
X108406743Y-110812159D01*
X108412452Y-110811331D01*
X108435080Y-110803650D01*
X108506013Y-110800692D01*
X108567287Y-110836554D01*
X108599444Y-110899851D01*
X108592277Y-110970484D01*
X108587090Y-110981630D01*
X108563442Y-111026577D01*
X108487131Y-111171620D01*
X108421703Y-111382333D01*
X108395770Y-111601440D01*
X108410200Y-111821604D01*
X108411621Y-111827200D01*
X108411622Y-111827205D01*
X108442268Y-111947872D01*
X108464511Y-112035452D01*
X108556883Y-112235821D01*
X108684222Y-112416002D01*
X108842264Y-112569961D01*
X108847060Y-112573166D01*
X108847063Y-112573168D01*
X108958154Y-112647396D01*
X109025717Y-112692540D01*
X109031020Y-112694818D01*
X109031023Y-112694820D01*
X109179534Y-112758625D01*
X109228436Y-112779635D01*
X109308088Y-112797658D01*
X109437995Y-112827054D01*
X109438001Y-112827055D01*
X109443632Y-112828329D01*
X109449403Y-112828556D01*
X109449405Y-112828556D01*
X109517211Y-112831220D01*
X109664098Y-112836991D01*
X109773275Y-112821161D01*
X109876738Y-112806160D01*
X109876743Y-112806159D01*
X109882452Y-112805331D01*
X109887916Y-112803476D01*
X109887921Y-112803475D01*
X110091379Y-112734410D01*
X110092120Y-112736592D01*
X110152562Y-112728503D01*
X110216852Y-112758625D01*
X110254652Y-112818722D01*
X110255541Y-112884040D01*
X110198675Y-113108052D01*
X110195898Y-113118991D01*
X110194470Y-113124152D01*
X110109804Y-113406579D01*
X109930257Y-114005505D01*
X109928605Y-114010618D01*
X109627055Y-114879901D01*
X109625186Y-114884939D01*
X109431367Y-115375090D01*
X109297732Y-115713042D01*
X109286851Y-115740558D01*
X109284773Y-115745503D01*
X108916024Y-116572991D01*
X108910248Y-116585952D01*
X108907958Y-116590808D01*
X108813971Y-116779624D01*
X108497967Y-117414466D01*
X108495471Y-117419225D01*
X108353498Y-117676340D01*
X108303059Y-117726305D01*
X108233615Y-117741069D01*
X108167212Y-117715945D01*
X108124934Y-117658909D01*
X108119819Y-117640266D01*
X108119454Y-117636289D01*
X108059565Y-117423936D01*
X107961980Y-117226053D01*
X107956796Y-117219110D01*
X107833420Y-117053891D01*
X107833420Y-117053890D01*
X107829967Y-117049267D01*
X107720571Y-116948142D01*
X107672189Y-116903418D01*
X107672186Y-116903416D01*
X107667949Y-116899499D01*
X107481350Y-116781764D01*
X107278955Y-116701017D01*
X107223096Y-116657196D01*
X107199795Y-116590132D01*
X107216451Y-116521117D01*
X107267775Y-116472063D01*
X107285144Y-116464674D01*
X107418907Y-116419268D01*
X107418912Y-116419266D01*
X107424379Y-116417410D01*
X107456887Y-116399205D01*
X107547182Y-116348637D01*
X107616884Y-116309602D01*
X107621878Y-116305449D01*
X107782086Y-116172204D01*
X107786518Y-116168518D01*
X107828495Y-116118046D01*
X107923908Y-116003326D01*
X107923910Y-116003323D01*
X107927602Y-115998884D01*
X108035410Y-115806379D01*
X108037266Y-115800912D01*
X108037268Y-115800907D01*
X108104475Y-115602921D01*
X108104476Y-115602916D01*
X108106331Y-115597452D01*
X108107159Y-115591743D01*
X108107160Y-115591738D01*
X108134863Y-115400669D01*
X108137991Y-115379098D01*
X108139643Y-115316000D01*
X108119454Y-115096289D01*
X108115273Y-115081462D01*
X108089509Y-114990112D01*
X108059565Y-114883936D01*
X107961980Y-114686053D01*
X107887238Y-114585961D01*
X107833420Y-114513891D01*
X107833420Y-114513890D01*
X107829967Y-114509267D01*
X107708976Y-114397424D01*
X107672189Y-114363418D01*
X107672186Y-114363416D01*
X107667949Y-114359499D01*
X107481350Y-114241764D01*
X107276421Y-114160006D01*
X107270761Y-114158880D01*
X107270757Y-114158879D01*
X107065691Y-114118089D01*
X107065688Y-114118089D01*
X107060024Y-114116962D01*
X107054249Y-114116886D01*
X107054245Y-114116886D01*
X106943504Y-114115437D01*
X106839406Y-114114074D01*
X106833709Y-114115053D01*
X106833708Y-114115053D01*
X106627654Y-114150459D01*
X106627653Y-114150459D01*
X106621957Y-114151438D01*
X106414957Y-114227804D01*
X106409996Y-114230756D01*
X106409995Y-114230756D01*
X106329231Y-114278806D01*
X106225341Y-114340614D01*
X106059457Y-114486090D01*
X106057600Y-114488446D01*
X105996984Y-114523637D01*
X105926060Y-114520430D01*
X105868128Y-114479388D01*
X105860598Y-114468775D01*
X105748809Y-114292624D01*
X105699478Y-114214890D01*
X105494911Y-113967610D01*
X105290496Y-113775652D01*
X105263851Y-113750631D01*
X105263850Y-113750631D01*
X105260964Y-113747920D01*
X105205288Y-113707469D01*
X105004537Y-113561615D01*
X105004532Y-113561612D01*
X105001328Y-113559284D01*
X104942577Y-113526985D01*
X104723559Y-113406579D01*
X104723556Y-113406578D01*
X104720097Y-113404676D01*
X104421706Y-113286534D01*
X104110861Y-113206723D01*
X103792464Y-113166500D01*
X103471536Y-113166500D01*
X103153139Y-113206723D01*
X102842294Y-113286534D01*
X102543903Y-113404676D01*
X102540444Y-113406578D01*
X102540441Y-113406579D01*
X102321424Y-113526985D01*
X102262672Y-113559284D01*
X102259468Y-113561612D01*
X102259463Y-113561615D01*
X102058712Y-113707469D01*
X102003036Y-113747920D01*
X102000150Y-113750631D01*
X102000149Y-113750631D01*
X101973504Y-113775652D01*
X101769089Y-113967610D01*
X101564522Y-114214890D01*
X101392561Y-114485858D01*
X101390877Y-114489437D01*
X101390873Y-114489444D01*
X101267197Y-114752268D01*
X101255916Y-114776242D01*
X101254690Y-114780014D01*
X101254690Y-114780015D01*
X101241869Y-114819475D01*
X101156744Y-115081462D01*
X101096608Y-115396706D01*
X101076457Y-115717000D01*
X101096608Y-116037294D01*
X101156744Y-116352538D01*
X101169466Y-116391692D01*
X101239664Y-116607738D01*
X101255916Y-116657758D01*
X101257603Y-116661344D01*
X101257605Y-116661348D01*
X101361832Y-116882839D01*
X101392561Y-116948142D01*
X101394679Y-116951480D01*
X101394687Y-116951494D01*
X101406825Y-116970620D01*
X101426438Y-117038854D01*
X101406047Y-117106859D01*
X101383518Y-117132866D01*
X101360457Y-117153090D01*
X101356878Y-117157630D01*
X101356877Y-117157631D01*
X101308411Y-117219110D01*
X101223863Y-117326360D01*
X101121131Y-117521620D01*
X101055703Y-117732333D01*
X101029770Y-117951440D01*
X101044200Y-118171604D01*
X101045621Y-118177200D01*
X101045622Y-118177205D01*
X101084724Y-118331167D01*
X101098511Y-118385452D01*
X101100928Y-118390694D01*
X101100928Y-118390695D01*
X101139046Y-118473379D01*
X101190883Y-118585821D01*
X101318222Y-118766002D01*
X101476264Y-118919961D01*
X101481060Y-118923166D01*
X101481063Y-118923168D01*
X101565261Y-118979427D01*
X101659717Y-119042540D01*
X101665020Y-119044818D01*
X101665023Y-119044820D01*
X101775746Y-119092390D01*
X101862436Y-119129635D01*
X101942088Y-119147658D01*
X102071995Y-119177054D01*
X102072001Y-119177055D01*
X102077632Y-119178329D01*
X102083403Y-119178556D01*
X102083405Y-119178556D01*
X102151211Y-119181220D01*
X102298098Y-119186991D01*
X102407275Y-119171161D01*
X102510738Y-119156160D01*
X102510743Y-119156159D01*
X102516452Y-119155331D01*
X102521916Y-119153476D01*
X102521921Y-119153475D01*
X102719907Y-119086268D01*
X102719912Y-119086266D01*
X102725379Y-119084410D01*
X102917884Y-118976602D01*
X102944356Y-118954586D01*
X103083086Y-118839204D01*
X103087518Y-118835518D01*
X103158599Y-118750053D01*
X103224908Y-118670326D01*
X103224910Y-118670323D01*
X103228602Y-118665884D01*
X103336410Y-118473379D01*
X103377274Y-118352998D01*
X103418110Y-118294923D01*
X103483862Y-118268144D01*
X103496586Y-118267500D01*
X103792464Y-118267500D01*
X104110861Y-118227277D01*
X104181699Y-118209089D01*
X104252654Y-118211522D01*
X104311030Y-118251930D01*
X104338293Y-118317484D01*
X104325787Y-118387370D01*
X104296111Y-118425863D01*
X104154457Y-118550090D01*
X104017863Y-118723360D01*
X103915131Y-118918620D01*
X103849703Y-119129333D01*
X103823770Y-119348440D01*
X103838200Y-119568604D01*
X103839621Y-119574200D01*
X103839622Y-119574205D01*
X103870919Y-119697434D01*
X103892511Y-119782452D01*
X103894928Y-119787694D01*
X103894928Y-119787695D01*
X103933046Y-119870379D01*
X103984883Y-119982821D01*
X104112222Y-120163002D01*
X104270264Y-120316961D01*
X104275060Y-120320166D01*
X104275063Y-120320168D01*
X104359261Y-120376427D01*
X104453717Y-120439540D01*
X104459020Y-120441818D01*
X104459023Y-120441820D01*
X104651129Y-120524355D01*
X104656436Y-120526635D01*
X104736088Y-120544658D01*
X104865995Y-120574054D01*
X104866001Y-120574055D01*
X104871632Y-120575329D01*
X104877403Y-120575556D01*
X104877405Y-120575556D01*
X104945211Y-120578220D01*
X105092098Y-120583991D01*
X105201275Y-120568161D01*
X105304738Y-120553160D01*
X105304743Y-120553159D01*
X105310452Y-120552331D01*
X105315916Y-120550476D01*
X105315921Y-120550475D01*
X105513907Y-120483268D01*
X105513912Y-120483266D01*
X105519379Y-120481410D01*
X105711884Y-120373602D01*
X105881518Y-120232518D01*
X106022602Y-120062884D01*
X106130410Y-119870379D01*
X106132266Y-119864912D01*
X106132268Y-119864907D01*
X106199475Y-119666921D01*
X106199476Y-119666916D01*
X106201331Y-119661452D01*
X106202159Y-119655743D01*
X106202160Y-119655738D01*
X106232458Y-119446772D01*
X106232991Y-119443098D01*
X106234643Y-119380000D01*
X106214454Y-119160289D01*
X106187725Y-119065514D01*
X106188485Y-118994524D01*
X106227506Y-118935213D01*
X106292399Y-118906413D01*
X106358731Y-118915547D01*
X106556125Y-119000354D01*
X106556133Y-119000356D01*
X106561436Y-119002635D01*
X106616572Y-119015111D01*
X106770995Y-119050054D01*
X106771001Y-119050055D01*
X106776632Y-119051329D01*
X106782403Y-119051556D01*
X106782405Y-119051556D01*
X106850211Y-119054220D01*
X106997098Y-119059991D01*
X107117455Y-119042540D01*
X107209738Y-119029160D01*
X107209743Y-119029159D01*
X107215452Y-119028331D01*
X107220916Y-119026476D01*
X107220921Y-119026475D01*
X107310148Y-118996186D01*
X107381083Y-118993230D01*
X107442355Y-119029093D01*
X107474512Y-119092390D01*
X107467343Y-119163024D01*
X107455360Y-119185581D01*
X107054670Y-119784262D01*
X107051587Y-119788663D01*
X107044669Y-119798102D01*
X106509795Y-120527910D01*
X106507692Y-120530779D01*
X106504435Y-120535031D01*
X106064437Y-121084603D01*
X105929369Y-121253307D01*
X105925924Y-121257427D01*
X105900191Y-121286899D01*
X105320766Y-121950518D01*
X105317146Y-121954489D01*
X104683008Y-122621125D01*
X104679222Y-122624939D01*
X104017225Y-123263940D01*
X104013280Y-123267589D01*
X103755136Y-123496326D01*
X103377422Y-123831013D01*
X103324632Y-123877789D01*
X103320539Y-123881263D01*
X102775399Y-124324285D01*
X102606495Y-124461549D01*
X102602256Y-124464846D01*
X101864137Y-125014145D01*
X101859783Y-125017243D01*
X101521245Y-125247421D01*
X101098885Y-125534590D01*
X101094378Y-125537516D01*
X100869043Y-125677059D01*
X100319754Y-126017217D01*
X100312130Y-126021938D01*
X100307507Y-126024666D01*
X100266779Y-126047545D01*
X99505314Y-126475294D01*
X99500574Y-126477825D01*
X98948901Y-126757477D01*
X98727151Y-126869886D01*
X98679908Y-126893834D01*
X98675066Y-126896160D01*
X98640474Y-126911879D01*
X97837402Y-127276801D01*
X97832464Y-127278919D01*
X96979334Y-127623497D01*
X96974309Y-127625403D01*
X96107267Y-127933290D01*
X96102166Y-127934980D01*
X95461670Y-128132098D01*
X95222784Y-128205617D01*
X95217619Y-128207087D01*
X94327457Y-128439994D01*
X94322273Y-128441233D01*
X93908663Y-128530800D01*
X93423007Y-128635968D01*
X93417732Y-128636993D01*
X93009027Y-128707405D01*
X92510974Y-128793209D01*
X92505705Y-128794002D01*
X91593110Y-128911413D01*
X91587791Y-128911983D01*
X90952181Y-128966334D01*
X90671020Y-128990376D01*
X90665658Y-128990719D01*
X89746427Y-129029950D01*
X89741054Y-129030065D01*
X88820946Y-129030065D01*
X88815573Y-129029950D01*
X87896342Y-128990719D01*
X87890980Y-128990376D01*
X87373683Y-128946142D01*
X87074141Y-128920528D01*
X87007972Y-128894795D01*
X86966220Y-128837373D01*
X86962140Y-128766494D01*
X86974942Y-128733420D01*
X87069586Y-128564422D01*
X87069587Y-128564420D01*
X87072410Y-128559379D01*
X87074266Y-128553912D01*
X87074268Y-128553907D01*
X87141475Y-128355921D01*
X87141476Y-128355916D01*
X87143331Y-128350452D01*
X87144159Y-128344743D01*
X87144160Y-128344738D01*
X87167552Y-128183403D01*
X87174991Y-128132098D01*
X87176643Y-128069000D01*
X87156454Y-127849289D01*
X87096565Y-127636936D01*
X86998980Y-127439053D01*
X86879403Y-127278920D01*
X86870420Y-127266891D01*
X86870420Y-127266890D01*
X86866967Y-127262267D01*
X86739032Y-127144005D01*
X86709189Y-127116418D01*
X86709186Y-127116416D01*
X86704949Y-127112499D01*
X86518350Y-126994764D01*
X86313421Y-126913006D01*
X86307761Y-126911880D01*
X86307757Y-126911879D01*
X86102691Y-126871089D01*
X86102688Y-126871089D01*
X86097024Y-126869962D01*
X86091249Y-126869886D01*
X86091245Y-126869886D01*
X85980504Y-126868437D01*
X85876406Y-126867074D01*
X85870709Y-126868053D01*
X85870708Y-126868053D01*
X85664654Y-126903459D01*
X85664653Y-126903459D01*
X85658957Y-126904438D01*
X85451957Y-126980804D01*
X85262341Y-127093614D01*
X85240807Y-127112499D01*
X85227906Y-127123813D01*
X85163502Y-127153690D01*
X85093169Y-127144005D01*
X85039238Y-127097833D01*
X85018830Y-127029833D01*
X85019042Y-127023987D01*
X85019042Y-127021401D01*
X85019430Y-127016471D01*
X84999047Y-126757477D01*
X84997893Y-126752670D01*
X84997892Y-126752664D01*
X84939554Y-126509673D01*
X84938399Y-126504861D01*
X84936505Y-126500288D01*
X84840875Y-126269417D01*
X84840873Y-126269413D01*
X84838980Y-126264843D01*
X84703238Y-126043331D01*
X84534515Y-125845782D01*
X84336966Y-125677059D01*
X84115454Y-125541317D01*
X84110884Y-125539424D01*
X84110880Y-125539422D01*
X83880009Y-125443792D01*
X83880007Y-125443791D01*
X83875436Y-125441898D01*
X83787102Y-125420691D01*
X83627633Y-125382405D01*
X83627627Y-125382404D01*
X83622820Y-125381250D01*
X83363826Y-125360867D01*
X83358896Y-125361255D01*
X83358888Y-125361255D01*
X83358456Y-125361289D01*
X83358294Y-125361255D01*
X83353940Y-125361255D01*
X83353940Y-125360340D01*
X83288976Y-125346695D01*
X83238415Y-125296854D01*
X83223938Y-125230305D01*
X83222990Y-125230305D01*
X83222990Y-125225945D01*
X83222956Y-125225789D01*
X83222990Y-125225357D01*
X83222990Y-125225349D01*
X83223378Y-125220419D01*
X83202995Y-124961425D01*
X83201841Y-124956618D01*
X83201840Y-124956612D01*
X83150416Y-124742420D01*
X83142347Y-124708809D01*
X83129386Y-124677518D01*
X83044823Y-124473365D01*
X83044821Y-124473361D01*
X83042928Y-124468791D01*
X82907186Y-124247279D01*
X82738463Y-124049730D01*
X82727255Y-124040157D01*
X82695181Y-124012764D01*
X82540914Y-123881007D01*
X82319402Y-123745265D01*
X82314832Y-123743372D01*
X82314828Y-123743370D01*
X82083957Y-123647740D01*
X82083955Y-123647739D01*
X82079384Y-123645846D01*
X81954838Y-123615945D01*
X81831581Y-123586353D01*
X81831575Y-123586352D01*
X81826768Y-123585198D01*
X81567774Y-123564815D01*
X81308780Y-123585198D01*
X81303973Y-123586352D01*
X81303967Y-123586353D01*
X81180710Y-123615945D01*
X81056164Y-123645846D01*
X81051593Y-123647739D01*
X81051591Y-123647740D01*
X80820720Y-123743370D01*
X80820716Y-123743372D01*
X80816146Y-123745265D01*
X80594634Y-123881007D01*
X80440367Y-124012764D01*
X80408294Y-124040157D01*
X80397085Y-124049730D01*
X80228362Y-124247279D01*
X80092620Y-124468791D01*
X80090727Y-124473361D01*
X80090725Y-124473365D01*
X80006162Y-124677518D01*
X79993201Y-124708809D01*
X79932553Y-124961425D01*
X79932391Y-124963488D01*
X79902319Y-125026918D01*
X79842050Y-125064444D01*
X79806638Y-125069041D01*
X79656406Y-125067074D01*
X79650709Y-125068053D01*
X79650708Y-125068053D01*
X79444654Y-125103459D01*
X79444653Y-125103459D01*
X79438957Y-125104438D01*
X79231957Y-125180804D01*
X79226996Y-125183756D01*
X79226995Y-125183756D01*
X79148754Y-125230305D01*
X79042341Y-125293614D01*
X78876457Y-125439090D01*
X78739863Y-125612360D01*
X78637131Y-125807620D01*
X78571703Y-126018333D01*
X78571484Y-126018265D01*
X78539029Y-126078373D01*
X78476878Y-126112692D01*
X78406039Y-126107961D01*
X78387804Y-126099553D01*
X78295221Y-126047545D01*
X78254493Y-126024666D01*
X78249870Y-126021938D01*
X78242247Y-126017217D01*
X77692957Y-125677059D01*
X77467622Y-125537516D01*
X77463115Y-125534590D01*
X77040755Y-125247421D01*
X76702217Y-125017243D01*
X76697863Y-125014145D01*
X75959744Y-124464846D01*
X75955505Y-124461549D01*
X75786601Y-124324285D01*
X75241461Y-123881263D01*
X75237368Y-123877789D01*
X75184579Y-123831013D01*
X74806864Y-123496326D01*
X74548720Y-123267589D01*
X74544775Y-123263940D01*
X73882778Y-122624939D01*
X73878992Y-122621125D01*
X73244854Y-121954489D01*
X73241234Y-121950518D01*
X72959911Y-121628317D01*
X75968026Y-121628317D01*
X75968811Y-121635316D01*
X75978400Y-121720804D01*
X75988044Y-121806789D01*
X76047106Y-121976390D01*
X76055405Y-121989671D01*
X76139444Y-122124161D01*
X76142275Y-122128692D01*
X76145441Y-122132246D01*
X77471743Y-123458546D01*
X77475297Y-123461714D01*
X77627599Y-123556883D01*
X77797200Y-123615945D01*
X77804193Y-123616729D01*
X77804196Y-123616730D01*
X77968673Y-123635178D01*
X77975672Y-123635963D01*
X77982671Y-123635178D01*
X78147148Y-123616730D01*
X78147151Y-123616729D01*
X78154144Y-123615945D01*
X78323745Y-123556883D01*
X78437975Y-123485504D01*
X78471525Y-123464540D01*
X78471528Y-123464538D01*
X78476047Y-123461714D01*
X78479601Y-123458548D01*
X78811517Y-123126632D01*
X79804637Y-122133510D01*
X79805901Y-122132246D01*
X79809069Y-122128692D01*
X79904238Y-121976390D01*
X79963300Y-121806789D01*
X79972945Y-121720804D01*
X79982533Y-121635316D01*
X79983318Y-121628317D01*
X79963300Y-121449845D01*
X79904238Y-121280244D01*
X79823426Y-121150918D01*
X79811895Y-121132464D01*
X79811893Y-121132461D01*
X79809069Y-121127942D01*
X79805903Y-121124388D01*
X79474010Y-120792495D01*
X78480865Y-119799352D01*
X78479601Y-119798088D01*
X78476047Y-119794920D01*
X78323745Y-119699751D01*
X78154144Y-119640689D01*
X78147151Y-119639905D01*
X78147148Y-119639904D01*
X77982671Y-119621456D01*
X77975672Y-119620671D01*
X77968673Y-119621456D01*
X77804196Y-119639904D01*
X77804193Y-119639905D01*
X77797200Y-119640689D01*
X77627599Y-119699751D01*
X77544614Y-119751606D01*
X77479819Y-119792094D01*
X77479816Y-119792096D01*
X77475297Y-119794920D01*
X77471743Y-119798086D01*
X76145443Y-121124388D01*
X76142275Y-121127942D01*
X76047106Y-121280244D01*
X75988044Y-121449845D01*
X75968026Y-121628317D01*
X72959911Y-121628317D01*
X72661809Y-121286899D01*
X72636076Y-121257427D01*
X72632631Y-121253307D01*
X72497563Y-121084603D01*
X72057565Y-120535031D01*
X72054308Y-120530779D01*
X72052206Y-120527910D01*
X71517331Y-119798102D01*
X71510413Y-119788663D01*
X71507330Y-119784262D01*
X71365723Y-119572683D01*
X70995566Y-119019622D01*
X70992703Y-119015142D01*
X70581953Y-118340907D01*
X70513995Y-118229355D01*
X70511298Y-118224708D01*
X70066529Y-117419225D01*
X70064033Y-117414466D01*
X69748029Y-116779624D01*
X69654042Y-116590808D01*
X69651752Y-116585952D01*
X69645976Y-116572991D01*
X69277227Y-115745503D01*
X69275149Y-115740558D01*
X69264269Y-115713042D01*
X69130633Y-115375090D01*
X68936814Y-114884939D01*
X68934945Y-114879901D01*
X68633395Y-114010618D01*
X68631743Y-114005505D01*
X68452196Y-113406579D01*
X68367530Y-113124152D01*
X68366102Y-113118991D01*
X68363326Y-113108052D01*
X68196794Y-112452039D01*
X68139717Y-112227199D01*
X68138506Y-112221964D01*
X68033136Y-111717598D01*
X67950348Y-111321318D01*
X67949362Y-111316043D01*
X67948595Y-111311389D01*
X67799771Y-110408156D01*
X67799013Y-110402851D01*
X67796961Y-110385921D01*
X67688275Y-109489465D01*
X67687742Y-109484118D01*
X67659084Y-109117440D01*
X71095770Y-109117440D01*
X71096148Y-109123206D01*
X71109398Y-109325360D01*
X71110200Y-109337604D01*
X71111621Y-109343200D01*
X71111622Y-109343205D01*
X71148768Y-109489465D01*
X71164511Y-109551452D01*
X71256883Y-109751821D01*
X71384222Y-109932002D01*
X71542264Y-110085961D01*
X71547060Y-110089166D01*
X71547063Y-110089168D01*
X71673702Y-110173785D01*
X71725717Y-110208540D01*
X71731020Y-110210818D01*
X71731023Y-110210820D01*
X71923129Y-110293355D01*
X71928436Y-110295635D01*
X72008088Y-110313658D01*
X72137995Y-110343054D01*
X72138001Y-110343055D01*
X72143632Y-110344329D01*
X72149403Y-110344556D01*
X72149405Y-110344556D01*
X72217211Y-110347220D01*
X72364098Y-110352991D01*
X72473275Y-110337161D01*
X72576738Y-110322160D01*
X72576743Y-110322159D01*
X72582452Y-110321331D01*
X72587916Y-110319476D01*
X72587921Y-110319475D01*
X72785907Y-110252268D01*
X72785912Y-110252266D01*
X72791379Y-110250410D01*
X72816082Y-110236576D01*
X72871875Y-110205330D01*
X72983884Y-110142602D01*
X73005098Y-110124959D01*
X73149086Y-110005204D01*
X73153518Y-110001518D01*
X73277138Y-109852882D01*
X73336076Y-109813299D01*
X73407058Y-109811863D01*
X73467548Y-109849030D01*
X73498341Y-109913002D01*
X73499839Y-109940050D01*
X73499209Y-109952065D01*
X73498692Y-109958636D01*
X73496844Y-109976222D01*
X73496500Y-109979496D01*
X73496500Y-110000464D01*
X73496327Y-110007058D01*
X73493329Y-110064267D01*
X73492677Y-110076703D01*
X73493709Y-110083219D01*
X73494949Y-110091047D01*
X73496500Y-110110758D01*
X73496500Y-112337425D01*
X73476498Y-112405546D01*
X73422842Y-112452039D01*
X73391838Y-112461605D01*
X73264654Y-112483459D01*
X73264653Y-112483459D01*
X73258957Y-112484438D01*
X73051957Y-112560804D01*
X73046996Y-112563756D01*
X73046995Y-112563756D01*
X72870465Y-112668781D01*
X72862341Y-112673614D01*
X72696457Y-112819090D01*
X72559863Y-112992360D01*
X72457131Y-113187620D01*
X72391703Y-113398333D01*
X72365770Y-113617440D01*
X72380200Y-113837604D01*
X72381621Y-113843200D01*
X72381622Y-113843205D01*
X72415292Y-113975778D01*
X72434511Y-114051452D01*
X72436928Y-114056694D01*
X72436928Y-114056695D01*
X72467593Y-114123212D01*
X72526883Y-114251821D01*
X72654222Y-114432002D01*
X72812264Y-114585961D01*
X72817060Y-114589166D01*
X72817063Y-114589168D01*
X72953318Y-114680210D01*
X72995717Y-114708540D01*
X73001020Y-114710818D01*
X73001023Y-114710820D01*
X73162079Y-114780015D01*
X73198436Y-114795635D01*
X73278088Y-114813658D01*
X73407995Y-114843054D01*
X73408001Y-114843055D01*
X73413632Y-114844329D01*
X73419403Y-114844556D01*
X73419405Y-114844556D01*
X73487211Y-114847220D01*
X73634098Y-114852991D01*
X73743275Y-114837161D01*
X73846738Y-114822160D01*
X73846743Y-114822159D01*
X73852452Y-114821331D01*
X73857916Y-114819476D01*
X73857921Y-114819475D01*
X74055907Y-114752268D01*
X74055912Y-114752266D01*
X74061379Y-114750410D01*
X74103514Y-114726813D01*
X74172719Y-114710980D01*
X74239502Y-114735076D01*
X74254173Y-114747653D01*
X82590660Y-123084140D01*
X82624686Y-123146452D01*
X82627295Y-123164993D01*
X82628695Y-123186358D01*
X82629142Y-123193171D01*
X82683453Y-123407019D01*
X82775825Y-123607388D01*
X82903164Y-123787569D01*
X83061206Y-123941528D01*
X83066002Y-123944733D01*
X83066005Y-123944735D01*
X83205291Y-124037802D01*
X83244659Y-124064107D01*
X83249962Y-124066385D01*
X83249965Y-124066387D01*
X83355949Y-124111921D01*
X83447378Y-124151202D01*
X83662574Y-124199896D01*
X83668347Y-124200123D01*
X83670049Y-124200347D01*
X83734975Y-124229072D01*
X83742694Y-124236174D01*
X84071429Y-124564909D01*
X84084268Y-124579941D01*
X84092806Y-124591692D01*
X84097708Y-124596105D01*
X84097709Y-124596107D01*
X84144646Y-124638369D01*
X84149430Y-124642910D01*
X84164245Y-124657725D01*
X84171900Y-124663924D01*
X84180539Y-124670920D01*
X84185554Y-124675204D01*
X84232470Y-124717447D01*
X84232474Y-124717450D01*
X84237383Y-124721870D01*
X84249963Y-124729133D01*
X84266248Y-124740326D01*
X84272401Y-124745308D01*
X84277535Y-124749465D01*
X84283419Y-124752463D01*
X84339658Y-124781118D01*
X84345456Y-124784266D01*
X84400149Y-124815843D01*
X84400151Y-124815844D01*
X84405867Y-124819144D01*
X84419674Y-124823630D01*
X84437938Y-124831195D01*
X84444998Y-124834792D01*
X84450878Y-124837788D01*
X84518260Y-124855843D01*
X84524571Y-124857713D01*
X84590893Y-124879262D01*
X84605326Y-124880779D01*
X84624768Y-124884382D01*
X84638797Y-124888141D01*
X84645389Y-124888486D01*
X84645392Y-124888487D01*
X84708437Y-124891791D01*
X84715011Y-124892308D01*
X84732597Y-124894156D01*
X84732599Y-124894156D01*
X84735871Y-124894500D01*
X84756839Y-124894500D01*
X84763433Y-124894673D01*
X84826486Y-124897978D01*
X84826491Y-124897978D01*
X84833078Y-124898323D01*
X84847424Y-124896051D01*
X84867133Y-124894500D01*
X89581720Y-124894500D01*
X89651722Y-124915735D01*
X89710614Y-124955085D01*
X89745717Y-124978540D01*
X89751020Y-124980818D01*
X89751023Y-124980820D01*
X89924306Y-125055268D01*
X89948436Y-125065635D01*
X90028088Y-125083658D01*
X90157995Y-125113054D01*
X90158001Y-125113055D01*
X90163632Y-125114329D01*
X90169403Y-125114556D01*
X90169405Y-125114556D01*
X90237211Y-125117220D01*
X90384098Y-125122991D01*
X90504048Y-125105599D01*
X90596738Y-125092160D01*
X90596743Y-125092159D01*
X90602452Y-125091331D01*
X90607916Y-125089476D01*
X90607921Y-125089475D01*
X90805911Y-125022266D01*
X90811379Y-125020410D01*
X90917610Y-124960918D01*
X90986818Y-124945085D01*
X91028913Y-124955085D01*
X91062125Y-124969354D01*
X91062132Y-124969356D01*
X91067436Y-124971635D01*
X91108028Y-124980820D01*
X91276995Y-125019054D01*
X91277001Y-125019055D01*
X91282632Y-125020329D01*
X91288403Y-125020556D01*
X91288405Y-125020556D01*
X91356211Y-125023220D01*
X91503098Y-125028991D01*
X91623455Y-125011540D01*
X91715738Y-124998160D01*
X91715743Y-124998159D01*
X91721452Y-124997331D01*
X91726916Y-124995476D01*
X91726921Y-124995475D01*
X91924907Y-124928268D01*
X91924912Y-124928266D01*
X91930379Y-124926410D01*
X91987050Y-124894673D01*
X92048366Y-124860334D01*
X92122884Y-124818602D01*
X92135387Y-124808204D01*
X92288086Y-124681204D01*
X92292518Y-124677518D01*
X92327977Y-124634884D01*
X92429908Y-124512326D01*
X92429910Y-124512323D01*
X92433602Y-124507884D01*
X92519528Y-124354452D01*
X92538586Y-124320422D01*
X92538587Y-124320420D01*
X92541410Y-124315379D01*
X92543266Y-124309912D01*
X92543268Y-124309907D01*
X92571766Y-124225953D01*
X93929770Y-124225953D01*
X93944200Y-124446117D01*
X93945621Y-124451713D01*
X93945622Y-124451718D01*
X93997090Y-124654370D01*
X93998511Y-124659965D01*
X94000928Y-124665207D01*
X94000928Y-124665208D01*
X94073962Y-124823630D01*
X94090883Y-124860334D01*
X94218222Y-125040515D01*
X94376264Y-125194474D01*
X94381060Y-125197679D01*
X94381063Y-125197681D01*
X94465261Y-125253940D01*
X94559717Y-125317053D01*
X94565020Y-125319331D01*
X94565023Y-125319333D01*
X94708236Y-125380862D01*
X94762436Y-125404148D01*
X94842088Y-125422171D01*
X94971995Y-125451567D01*
X94972001Y-125451568D01*
X94977632Y-125452842D01*
X94983403Y-125453069D01*
X94983405Y-125453069D01*
X95051211Y-125455733D01*
X95198098Y-125461504D01*
X95320255Y-125443792D01*
X95410738Y-125430673D01*
X95410743Y-125430672D01*
X95416452Y-125429844D01*
X95421916Y-125427989D01*
X95421921Y-125427988D01*
X95619907Y-125360781D01*
X95619912Y-125360779D01*
X95625379Y-125358923D01*
X95817884Y-125251115D01*
X95842906Y-125230305D01*
X95983086Y-125113717D01*
X95987518Y-125110031D01*
X96033064Y-125055268D01*
X96124908Y-124944839D01*
X96124910Y-124944836D01*
X96128602Y-124940397D01*
X96196507Y-124819144D01*
X96233586Y-124752935D01*
X96233587Y-124752933D01*
X96236410Y-124747892D01*
X96238266Y-124742425D01*
X96238268Y-124742420D01*
X96305475Y-124544434D01*
X96305476Y-124544429D01*
X96307331Y-124538965D01*
X96308159Y-124533256D01*
X96308160Y-124533251D01*
X96334084Y-124354452D01*
X96338991Y-124320611D01*
X96340643Y-124257513D01*
X96320454Y-124037802D01*
X96287355Y-123920440D01*
X98997770Y-123920440D01*
X99012200Y-124140604D01*
X99013621Y-124146200D01*
X99013622Y-124146205D01*
X99039292Y-124247279D01*
X99066511Y-124354452D01*
X99068928Y-124359694D01*
X99068928Y-124359695D01*
X99106111Y-124440350D01*
X99158883Y-124554821D01*
X99286222Y-124735002D01*
X99444264Y-124888961D01*
X99449060Y-124892166D01*
X99449063Y-124892168D01*
X99564581Y-124969354D01*
X99627717Y-125011540D01*
X99633020Y-125013818D01*
X99633023Y-125013820D01*
X99813435Y-125091331D01*
X99830436Y-125098635D01*
X99900797Y-125114556D01*
X100039995Y-125146054D01*
X100040001Y-125146055D01*
X100045632Y-125147329D01*
X100051403Y-125147556D01*
X100051405Y-125147556D01*
X100119211Y-125150220D01*
X100266098Y-125155991D01*
X100375275Y-125140161D01*
X100478738Y-125125160D01*
X100478743Y-125125159D01*
X100484452Y-125124331D01*
X100489916Y-125122476D01*
X100489921Y-125122475D01*
X100687907Y-125055268D01*
X100687912Y-125055266D01*
X100693379Y-125053410D01*
X100885884Y-124945602D01*
X100892143Y-124940397D01*
X101051086Y-124808204D01*
X101055518Y-124804518D01*
X101118217Y-124729131D01*
X101192908Y-124639326D01*
X101192910Y-124639323D01*
X101196602Y-124634884D01*
X101304410Y-124442379D01*
X101306266Y-124436912D01*
X101306268Y-124436907D01*
X101373475Y-124238921D01*
X101373476Y-124238916D01*
X101375331Y-124233452D01*
X101376159Y-124227743D01*
X101376160Y-124227738D01*
X101403358Y-124040157D01*
X101432928Y-123975611D01*
X101492700Y-123937299D01*
X101563696Y-123937383D01*
X101577793Y-123942470D01*
X101603124Y-123953353D01*
X101603126Y-123953354D01*
X101608436Y-123955635D01*
X101688088Y-123973658D01*
X101817995Y-124003054D01*
X101818001Y-124003055D01*
X101823632Y-124004329D01*
X101829403Y-124004556D01*
X101829405Y-124004556D01*
X101897211Y-124007220D01*
X102044098Y-124012991D01*
X102153275Y-123997161D01*
X102256738Y-123982160D01*
X102256743Y-123982159D01*
X102262452Y-123981331D01*
X102267916Y-123979476D01*
X102267921Y-123979475D01*
X102465907Y-123912268D01*
X102465912Y-123912266D01*
X102471379Y-123910410D01*
X102663884Y-123802602D01*
X102671663Y-123796133D01*
X102829086Y-123665204D01*
X102833518Y-123661518D01*
X102873347Y-123613629D01*
X102970908Y-123496326D01*
X102970910Y-123496323D01*
X102974602Y-123491884D01*
X103082410Y-123299379D01*
X103084266Y-123293912D01*
X103084268Y-123293907D01*
X103151475Y-123095921D01*
X103151476Y-123095916D01*
X103153331Y-123090452D01*
X103154159Y-123084743D01*
X103154160Y-123084738D01*
X103184458Y-122875772D01*
X103184991Y-122872098D01*
X103186643Y-122809000D01*
X103166454Y-122589289D01*
X103106565Y-122376936D01*
X103008980Y-122179053D01*
X102985828Y-122148048D01*
X102880420Y-122006891D01*
X102880420Y-122006890D01*
X102876967Y-122002267D01*
X102714949Y-121852499D01*
X102528350Y-121734764D01*
X102323421Y-121653006D01*
X102317761Y-121651880D01*
X102317757Y-121651879D01*
X102112691Y-121611089D01*
X102112688Y-121611089D01*
X102107024Y-121609962D01*
X102101249Y-121609886D01*
X102101245Y-121609886D01*
X101990504Y-121608437D01*
X101886406Y-121607074D01*
X101880709Y-121608053D01*
X101880708Y-121608053D01*
X101674654Y-121643459D01*
X101674653Y-121643459D01*
X101668957Y-121644438D01*
X101461957Y-121720804D01*
X101456996Y-121723756D01*
X101456995Y-121723756D01*
X101317430Y-121806789D01*
X101272341Y-121833614D01*
X101106457Y-121979090D01*
X100969863Y-122152360D01*
X100867131Y-122347620D01*
X100801703Y-122558333D01*
X100801024Y-122564070D01*
X100782585Y-122719857D01*
X100754714Y-122785155D01*
X100695966Y-122825018D01*
X100624991Y-122826792D01*
X100610778Y-122822080D01*
X100545421Y-122796006D01*
X100539761Y-122794880D01*
X100539757Y-122794879D01*
X100334691Y-122754089D01*
X100334688Y-122754089D01*
X100329024Y-122752962D01*
X100323249Y-122752886D01*
X100323245Y-122752886D01*
X100212504Y-122751437D01*
X100108406Y-122750074D01*
X100102709Y-122751053D01*
X100102708Y-122751053D01*
X99896654Y-122786459D01*
X99896653Y-122786459D01*
X99890957Y-122787438D01*
X99683957Y-122863804D01*
X99494341Y-122976614D01*
X99328457Y-123122090D01*
X99191863Y-123295360D01*
X99089131Y-123490620D01*
X99023703Y-123701333D01*
X98997770Y-123920440D01*
X96287355Y-123920440D01*
X96260565Y-123825449D01*
X96162980Y-123627566D01*
X96131053Y-123584810D01*
X96034420Y-123455404D01*
X96034420Y-123455403D01*
X96030967Y-123450780D01*
X95868949Y-123301012D01*
X95682350Y-123183277D01*
X95477421Y-123101519D01*
X95471761Y-123100393D01*
X95471757Y-123100392D01*
X95266691Y-123059602D01*
X95266688Y-123059602D01*
X95261024Y-123058475D01*
X95255249Y-123058399D01*
X95255245Y-123058399D01*
X95144504Y-123056950D01*
X95040406Y-123055587D01*
X95034709Y-123056566D01*
X95034708Y-123056566D01*
X94828654Y-123091972D01*
X94828653Y-123091972D01*
X94822957Y-123092951D01*
X94615957Y-123169317D01*
X94610996Y-123172269D01*
X94610995Y-123172269D01*
X94456911Y-123263940D01*
X94426341Y-123282127D01*
X94260457Y-123427603D01*
X94123863Y-123600873D01*
X94021131Y-123796133D01*
X93955703Y-124006846D01*
X93929770Y-124225953D01*
X92571766Y-124225953D01*
X92610475Y-124111921D01*
X92610476Y-124111916D01*
X92612331Y-124106452D01*
X92613159Y-124100743D01*
X92613160Y-124100738D01*
X92634014Y-123956910D01*
X92643991Y-123888098D01*
X92645643Y-123825000D01*
X92625454Y-123605289D01*
X92619679Y-123584810D01*
X92583707Y-123457265D01*
X92565565Y-123392936D01*
X92467980Y-123195053D01*
X92459187Y-123183277D01*
X92339420Y-123022891D01*
X92339420Y-123022890D01*
X92335967Y-123018267D01*
X92173949Y-122868499D01*
X91987350Y-122750764D01*
X91782421Y-122669006D01*
X91776761Y-122667880D01*
X91776757Y-122667879D01*
X91583279Y-122629394D01*
X91518765Y-122594910D01*
X91386947Y-122463092D01*
X91374110Y-122448064D01*
X91365569Y-122436308D01*
X91313729Y-122389631D01*
X91308945Y-122385090D01*
X91294130Y-122370275D01*
X91286475Y-122364076D01*
X91277836Y-122357080D01*
X91272821Y-122352796D01*
X91225905Y-122310553D01*
X91225901Y-122310550D01*
X91220992Y-122306130D01*
X91208412Y-122298867D01*
X91192127Y-122287674D01*
X91185974Y-122282692D01*
X91185972Y-122282690D01*
X91180840Y-122278535D01*
X91118717Y-122246882D01*
X91112919Y-122243734D01*
X91058226Y-122212157D01*
X91058224Y-122212156D01*
X91052508Y-122208856D01*
X91038700Y-122204370D01*
X91020437Y-122196805D01*
X91013377Y-122193208D01*
X91007497Y-122190212D01*
X90940115Y-122172157D01*
X90933804Y-122170287D01*
X90894357Y-122157470D01*
X90873761Y-122150778D01*
X90873760Y-122150778D01*
X90867482Y-122148738D01*
X90853049Y-122147221D01*
X90833607Y-122143618D01*
X90819578Y-122139859D01*
X90812986Y-122139514D01*
X90812983Y-122139513D01*
X90749938Y-122136209D01*
X90743364Y-122135692D01*
X90725778Y-122133844D01*
X90725776Y-122133844D01*
X90722504Y-122133500D01*
X90701536Y-122133500D01*
X90694942Y-122133327D01*
X90631889Y-122130022D01*
X90631884Y-122130022D01*
X90625297Y-122129677D01*
X90610951Y-122131949D01*
X90591242Y-122133500D01*
X86692500Y-122133500D01*
X86624379Y-122113498D01*
X86577886Y-122059842D01*
X86566500Y-122007500D01*
X86566500Y-121427158D01*
X86568051Y-121407447D01*
X86569291Y-121399619D01*
X86570323Y-121393103D01*
X86566673Y-121323458D01*
X86566500Y-121316864D01*
X86566500Y-121295896D01*
X86566156Y-121292622D01*
X86564308Y-121275036D01*
X86563791Y-121268462D01*
X86560487Y-121205417D01*
X86560486Y-121205414D01*
X86560141Y-121198822D01*
X86556382Y-121184793D01*
X86552779Y-121165351D01*
X86551952Y-121157484D01*
X86551262Y-121150918D01*
X86529713Y-121084596D01*
X86527841Y-121078278D01*
X86511496Y-121017277D01*
X86511496Y-121017276D01*
X86509788Y-121010903D01*
X86503195Y-120997963D01*
X86495630Y-120979699D01*
X86491144Y-120965892D01*
X86487843Y-120960174D01*
X86456266Y-120905481D01*
X86453118Y-120899683D01*
X86424463Y-120843444D01*
X86421465Y-120837560D01*
X86417308Y-120832426D01*
X86412326Y-120826273D01*
X86401131Y-120809985D01*
X86393870Y-120797408D01*
X86389450Y-120792499D01*
X86389447Y-120792495D01*
X86347204Y-120745579D01*
X86342920Y-120740564D01*
X86331801Y-120726834D01*
X86329725Y-120724270D01*
X86314910Y-120709455D01*
X86310369Y-120704671D01*
X86268107Y-120657734D01*
X86268105Y-120657733D01*
X86263692Y-120652831D01*
X86251941Y-120644293D01*
X86236909Y-120631454D01*
X83429895Y-117824440D01*
X97219770Y-117824440D01*
X97234200Y-118044604D01*
X97235621Y-118050200D01*
X97235622Y-118050205D01*
X97279763Y-118224006D01*
X97288511Y-118258452D01*
X97290928Y-118263694D01*
X97290928Y-118263695D01*
X97329046Y-118346379D01*
X97380883Y-118458821D01*
X97508222Y-118639002D01*
X97666264Y-118792961D01*
X97671060Y-118796166D01*
X97671063Y-118796168D01*
X97755261Y-118852427D01*
X97849717Y-118915540D01*
X97855020Y-118917818D01*
X97855023Y-118917820D01*
X98047127Y-119000354D01*
X98052436Y-119002635D01*
X98107572Y-119015111D01*
X98261995Y-119050054D01*
X98262001Y-119050055D01*
X98267632Y-119051329D01*
X98273403Y-119051556D01*
X98273405Y-119051556D01*
X98341211Y-119054220D01*
X98488098Y-119059991D01*
X98608455Y-119042540D01*
X98700738Y-119029160D01*
X98700743Y-119029159D01*
X98706452Y-119028331D01*
X98711916Y-119026476D01*
X98711921Y-119026475D01*
X98909907Y-118959268D01*
X98909912Y-118959266D01*
X98915379Y-118957410D01*
X98974791Y-118924138D01*
X99006441Y-118906413D01*
X99107884Y-118849602D01*
X99120387Y-118839204D01*
X99273086Y-118712204D01*
X99277518Y-118708518D01*
X99312977Y-118665884D01*
X99414908Y-118543326D01*
X99414910Y-118543323D01*
X99418602Y-118538884D01*
X99504528Y-118385452D01*
X99523586Y-118351422D01*
X99523587Y-118351420D01*
X99526410Y-118346379D01*
X99528266Y-118340912D01*
X99528268Y-118340907D01*
X99595475Y-118142921D01*
X99595476Y-118142916D01*
X99597331Y-118137452D01*
X99598159Y-118131743D01*
X99598160Y-118131738D01*
X99621844Y-117968387D01*
X99628991Y-117919098D01*
X99630643Y-117856000D01*
X99610454Y-117636289D01*
X99579725Y-117527329D01*
X99574947Y-117510389D01*
X99575707Y-117439397D01*
X99614728Y-117380085D01*
X99655714Y-117356875D01*
X99733279Y-117330545D01*
X99804379Y-117306410D01*
X99865523Y-117272168D01*
X99938615Y-117231234D01*
X99996884Y-117198602D01*
X100009387Y-117188204D01*
X100162086Y-117061204D01*
X100166518Y-117057518D01*
X100201977Y-117014884D01*
X100303908Y-116892326D01*
X100303910Y-116892323D01*
X100307602Y-116887884D01*
X100393528Y-116734452D01*
X100412586Y-116700422D01*
X100412587Y-116700420D01*
X100415410Y-116695379D01*
X100417266Y-116689912D01*
X100417268Y-116689907D01*
X100484475Y-116491921D01*
X100484476Y-116491916D01*
X100486331Y-116486452D01*
X100487159Y-116480743D01*
X100487160Y-116480738D01*
X100506346Y-116348413D01*
X100517991Y-116268098D01*
X100519643Y-116205000D01*
X100499454Y-115985289D01*
X100476952Y-115905500D01*
X100448997Y-115806379D01*
X100439565Y-115772936D01*
X100341980Y-115575053D01*
X100290888Y-115506632D01*
X100213420Y-115402891D01*
X100213420Y-115402890D01*
X100209967Y-115398267D01*
X100047949Y-115248499D01*
X99861350Y-115130764D01*
X99656421Y-115049006D01*
X99650761Y-115047880D01*
X99650757Y-115047879D01*
X99445691Y-115007089D01*
X99445688Y-115007089D01*
X99440024Y-115005962D01*
X99434249Y-115005886D01*
X99434245Y-115005886D01*
X99323504Y-115004437D01*
X99219406Y-115003074D01*
X99213709Y-115004053D01*
X99213708Y-115004053D01*
X99007654Y-115039459D01*
X99007653Y-115039459D01*
X99001957Y-115040438D01*
X98794957Y-115116804D01*
X98789996Y-115119756D01*
X98789995Y-115119756D01*
X98691851Y-115178146D01*
X98605341Y-115229614D01*
X98439457Y-115375090D01*
X98302863Y-115548360D01*
X98200131Y-115743620D01*
X98134703Y-115954333D01*
X98108770Y-116173440D01*
X98123200Y-116393604D01*
X98124621Y-116399200D01*
X98124622Y-116399205D01*
X98129246Y-116417410D01*
X98160719Y-116541331D01*
X98163557Y-116552507D01*
X98160939Y-116623455D01*
X98120379Y-116681725D01*
X98085045Y-116701735D01*
X98081481Y-116703050D01*
X97905957Y-116767804D01*
X97900996Y-116770756D01*
X97900995Y-116770756D01*
X97823423Y-116816907D01*
X97716341Y-116880614D01*
X97550457Y-117026090D01*
X97413863Y-117199360D01*
X97311131Y-117394620D01*
X97245703Y-117605333D01*
X97219770Y-117824440D01*
X83429895Y-117824440D01*
X82370817Y-116765362D01*
X82336791Y-116703050D01*
X82341856Y-116632235D01*
X82384403Y-116575399D01*
X82441831Y-116551571D01*
X82475828Y-116546641D01*
X82512452Y-116541331D01*
X82517916Y-116539476D01*
X82517921Y-116539475D01*
X82715907Y-116472268D01*
X82715912Y-116472266D01*
X82721379Y-116470410D01*
X82728581Y-116466377D01*
X82821060Y-116414586D01*
X82913884Y-116362602D01*
X82921445Y-116356314D01*
X82988625Y-116300440D01*
X83757770Y-116300440D01*
X83772200Y-116520604D01*
X83773621Y-116526200D01*
X83773622Y-116526205D01*
X83818202Y-116701735D01*
X83826511Y-116734452D01*
X83828928Y-116739694D01*
X83828928Y-116739695D01*
X83897245Y-116887884D01*
X83918883Y-116934821D01*
X84046222Y-117115002D01*
X84204264Y-117268961D01*
X84209060Y-117272166D01*
X84209063Y-117272168D01*
X84298423Y-117331876D01*
X84387717Y-117391540D01*
X84393020Y-117393818D01*
X84393023Y-117393820D01*
X84561935Y-117466390D01*
X84590436Y-117478635D01*
X84670088Y-117496658D01*
X84799995Y-117526054D01*
X84800001Y-117526055D01*
X84805632Y-117527329D01*
X84811403Y-117527556D01*
X84811405Y-117527556D01*
X84879211Y-117530220D01*
X85026098Y-117535991D01*
X85135275Y-117520161D01*
X85238738Y-117505160D01*
X85238743Y-117505159D01*
X85244452Y-117504331D01*
X85249916Y-117502476D01*
X85249921Y-117502475D01*
X85447907Y-117435268D01*
X85447912Y-117435266D01*
X85453379Y-117433410D01*
X85482880Y-117416889D01*
X85553515Y-117377331D01*
X85645884Y-117325602D01*
X85666729Y-117308266D01*
X85811086Y-117188204D01*
X85815518Y-117184518D01*
X85841657Y-117153090D01*
X85952908Y-117019326D01*
X85952910Y-117019323D01*
X85956602Y-117014884D01*
X86064410Y-116822379D01*
X86066266Y-116816912D01*
X86066268Y-116816907D01*
X86133475Y-116618921D01*
X86133476Y-116618916D01*
X86135331Y-116613452D01*
X86136159Y-116607743D01*
X86136160Y-116607738D01*
X86156967Y-116464230D01*
X86166991Y-116395098D01*
X86168643Y-116332000D01*
X86148454Y-116112289D01*
X86132409Y-116055395D01*
X86112637Y-115985289D01*
X86088565Y-115899936D01*
X85990980Y-115702053D01*
X85956532Y-115655921D01*
X85862420Y-115529891D01*
X85862420Y-115529890D01*
X85858967Y-115525267D01*
X85751719Y-115426128D01*
X85701189Y-115379418D01*
X85701186Y-115379416D01*
X85696949Y-115375499D01*
X85510350Y-115257764D01*
X85305421Y-115176006D01*
X85299761Y-115174880D01*
X85299757Y-115174879D01*
X85094691Y-115134089D01*
X85094688Y-115134089D01*
X85089024Y-115132962D01*
X85083249Y-115132886D01*
X85083245Y-115132886D01*
X84972504Y-115131437D01*
X84868406Y-115130074D01*
X84862709Y-115131053D01*
X84862708Y-115131053D01*
X84656654Y-115166459D01*
X84656653Y-115166459D01*
X84650957Y-115167438D01*
X84443957Y-115243804D01*
X84438996Y-115246756D01*
X84438995Y-115246756D01*
X84286570Y-115337440D01*
X84254341Y-115356614D01*
X84088457Y-115502090D01*
X83951863Y-115675360D01*
X83849131Y-115870620D01*
X83783703Y-116081333D01*
X83757770Y-116300440D01*
X82988625Y-116300440D01*
X83079086Y-116225204D01*
X83083518Y-116221518D01*
X83131284Y-116164086D01*
X83220908Y-116056326D01*
X83220910Y-116056323D01*
X83224602Y-116051884D01*
X83332410Y-115859379D01*
X83334266Y-115853912D01*
X83334268Y-115853907D01*
X83401475Y-115655921D01*
X83401476Y-115655916D01*
X83403331Y-115650452D01*
X83404159Y-115644743D01*
X83404160Y-115644738D01*
X83434458Y-115435772D01*
X83434991Y-115432098D01*
X83436643Y-115369000D01*
X83416454Y-115149289D01*
X83412099Y-115133845D01*
X83358134Y-114942500D01*
X83356565Y-114936936D01*
X83258980Y-114739053D01*
X83126967Y-114562267D01*
X82990404Y-114436029D01*
X82969189Y-114416418D01*
X82969186Y-114416416D01*
X82964949Y-114412499D01*
X82778350Y-114294764D01*
X82573421Y-114213006D01*
X82567761Y-114211880D01*
X82567757Y-114211879D01*
X82362691Y-114171089D01*
X82362688Y-114171089D01*
X82357024Y-114169962D01*
X82351249Y-114169886D01*
X82351245Y-114169886D01*
X82240504Y-114168437D01*
X82136406Y-114167074D01*
X82130709Y-114168053D01*
X82130708Y-114168053D01*
X81924654Y-114203459D01*
X81924653Y-114203459D01*
X81918957Y-114204438D01*
X81711957Y-114280804D01*
X81522341Y-114393614D01*
X81356457Y-114539090D01*
X81219863Y-114712360D01*
X81117131Y-114907620D01*
X81051703Y-115118333D01*
X81051024Y-115124072D01*
X81051022Y-115124080D01*
X81047531Y-115153571D01*
X81019661Y-115218868D01*
X80960912Y-115258732D01*
X80889937Y-115260505D01*
X80833310Y-115227855D01*
X78493343Y-112887888D01*
X85875270Y-112887888D01*
X85889700Y-113108052D01*
X85891121Y-113113648D01*
X85891122Y-113113653D01*
X85934780Y-113285553D01*
X85944011Y-113321900D01*
X85946428Y-113327142D01*
X85946428Y-113327143D01*
X85983049Y-113406579D01*
X86036383Y-113522269D01*
X86163722Y-113702450D01*
X86321764Y-113856409D01*
X86326560Y-113859614D01*
X86326563Y-113859616D01*
X86410761Y-113915875D01*
X86505217Y-113978988D01*
X86510520Y-113981266D01*
X86510523Y-113981268D01*
X86673881Y-114051452D01*
X86707936Y-114066083D01*
X86787588Y-114084106D01*
X86917495Y-114113502D01*
X86917501Y-114113503D01*
X86923132Y-114114777D01*
X86928903Y-114115004D01*
X86928905Y-114115004D01*
X86996711Y-114117668D01*
X87143598Y-114123439D01*
X87252775Y-114107609D01*
X87356238Y-114092608D01*
X87356243Y-114092607D01*
X87361952Y-114091779D01*
X87367416Y-114089924D01*
X87367421Y-114089923D01*
X87565407Y-114022716D01*
X87565412Y-114022714D01*
X87570879Y-114020858D01*
X87593682Y-114008088D01*
X87670801Y-113964899D01*
X87763384Y-113913050D01*
X87854098Y-113837604D01*
X87928586Y-113775652D01*
X87933018Y-113771966D01*
X88044185Y-113638303D01*
X88070408Y-113606774D01*
X88070410Y-113606771D01*
X88074102Y-113602332D01*
X88181910Y-113409827D01*
X88183766Y-113404360D01*
X88183768Y-113404355D01*
X88250975Y-113206369D01*
X88250976Y-113206364D01*
X88252831Y-113200900D01*
X88253659Y-113195191D01*
X88253660Y-113195186D01*
X88283068Y-112992360D01*
X88284491Y-112982546D01*
X88286143Y-112919448D01*
X88265954Y-112699737D01*
X88257843Y-112670975D01*
X88207634Y-112492948D01*
X88206065Y-112487384D01*
X88108480Y-112289501D01*
X88077809Y-112248427D01*
X87979920Y-112117339D01*
X87979920Y-112117338D01*
X87976467Y-112112715D01*
X87843252Y-111989572D01*
X87818689Y-111966866D01*
X87818686Y-111966864D01*
X87814449Y-111962947D01*
X87627850Y-111845212D01*
X87422921Y-111763454D01*
X87417261Y-111762328D01*
X87417257Y-111762327D01*
X87212191Y-111721537D01*
X87212188Y-111721537D01*
X87206524Y-111720410D01*
X87200749Y-111720334D01*
X87200745Y-111720334D01*
X87089645Y-111718880D01*
X86985906Y-111717522D01*
X86980209Y-111718501D01*
X86980208Y-111718501D01*
X86774154Y-111753907D01*
X86774153Y-111753907D01*
X86768457Y-111754886D01*
X86561457Y-111831252D01*
X86556496Y-111834204D01*
X86556495Y-111834204D01*
X86395748Y-111929839D01*
X86371841Y-111944062D01*
X86205957Y-112089538D01*
X86069363Y-112262808D01*
X85966631Y-112458068D01*
X85901203Y-112668781D01*
X85875270Y-112887888D01*
X78493343Y-112887888D01*
X77998050Y-112392595D01*
X77964024Y-112330283D01*
X77969089Y-112259468D01*
X78011636Y-112202632D01*
X78078156Y-112177821D01*
X78087145Y-112177500D01*
X78722879Y-112177500D01*
X78792881Y-112198735D01*
X78961706Y-112311540D01*
X78967009Y-112313818D01*
X78967012Y-112313820D01*
X79159118Y-112396355D01*
X79164425Y-112398635D01*
X79220339Y-112411287D01*
X79373984Y-112446054D01*
X79373990Y-112446055D01*
X79379621Y-112447329D01*
X79385392Y-112447556D01*
X79385394Y-112447556D01*
X79453200Y-112450220D01*
X79600087Y-112455991D01*
X79709264Y-112440161D01*
X79812727Y-112425160D01*
X79812732Y-112425159D01*
X79818441Y-112424331D01*
X79823905Y-112422476D01*
X79823910Y-112422475D01*
X80021896Y-112355268D01*
X80021901Y-112355266D01*
X80027368Y-112353410D01*
X80055912Y-112337425D01*
X80202720Y-112255208D01*
X80219873Y-112245602D01*
X80230654Y-112236636D01*
X80366953Y-112123276D01*
X80389507Y-112104518D01*
X80491859Y-111981454D01*
X80526897Y-111939326D01*
X80526899Y-111939323D01*
X80530591Y-111934884D01*
X80625398Y-111765594D01*
X80635575Y-111747422D01*
X80635576Y-111747420D01*
X80638399Y-111742379D01*
X80640255Y-111736912D01*
X80640257Y-111736907D01*
X80707464Y-111538921D01*
X80707465Y-111538916D01*
X80709320Y-111533452D01*
X80710148Y-111527743D01*
X80710149Y-111527738D01*
X80729335Y-111395413D01*
X80740980Y-111315098D01*
X80742632Y-111252000D01*
X80739136Y-111213958D01*
X80752820Y-111144294D01*
X80801996Y-111093086D01*
X80871050Y-111076594D01*
X80934610Y-111097664D01*
X81025717Y-111158540D01*
X81031020Y-111160818D01*
X81031023Y-111160820D01*
X81223129Y-111243355D01*
X81228436Y-111245635D01*
X81308088Y-111263658D01*
X81437995Y-111293054D01*
X81438001Y-111293055D01*
X81443632Y-111294329D01*
X81449403Y-111294556D01*
X81449405Y-111294556D01*
X81517211Y-111297220D01*
X81664098Y-111302991D01*
X81773275Y-111287161D01*
X81876738Y-111272160D01*
X81876743Y-111272159D01*
X81882452Y-111271331D01*
X81887916Y-111269476D01*
X81887921Y-111269475D01*
X82085907Y-111202268D01*
X82085912Y-111202266D01*
X82091379Y-111200410D01*
X82105045Y-111192757D01*
X82274845Y-111097664D01*
X82283884Y-111092602D01*
X82303132Y-111076594D01*
X82449086Y-110955204D01*
X82453518Y-110951518D01*
X82535795Y-110852591D01*
X82546733Y-110839440D01*
X98235770Y-110839440D01*
X98250200Y-111059604D01*
X98251621Y-111065200D01*
X98251622Y-111065205D01*
X98303090Y-111267857D01*
X98304511Y-111273452D01*
X98306928Y-111278694D01*
X98306928Y-111278695D01*
X98345046Y-111361379D01*
X98396883Y-111473821D01*
X98524222Y-111654002D01*
X98682264Y-111807961D01*
X98687060Y-111811166D01*
X98687063Y-111811168D01*
X98771261Y-111867427D01*
X98865717Y-111930540D01*
X98871020Y-111932818D01*
X98871023Y-111932820D01*
X99063129Y-112015355D01*
X99068436Y-112017635D01*
X99147176Y-112035452D01*
X99277995Y-112065054D01*
X99278001Y-112065055D01*
X99283632Y-112066329D01*
X99289403Y-112066556D01*
X99289405Y-112066556D01*
X99357211Y-112069220D01*
X99504098Y-112074991D01*
X99613275Y-112059161D01*
X99716738Y-112044160D01*
X99716743Y-112044159D01*
X99722452Y-112043331D01*
X99727916Y-112041476D01*
X99727921Y-112041475D01*
X99925907Y-111974268D01*
X99925912Y-111974266D01*
X99931379Y-111972410D01*
X99948277Y-111962947D01*
X100107499Y-111873778D01*
X100123884Y-111864602D01*
X100143494Y-111848293D01*
X100289086Y-111727204D01*
X100293518Y-111723518D01*
X100381048Y-111618275D01*
X100430908Y-111558326D01*
X100430910Y-111558323D01*
X100434602Y-111553884D01*
X100542410Y-111361379D01*
X100544266Y-111355912D01*
X100544268Y-111355907D01*
X100611475Y-111157921D01*
X100611476Y-111157916D01*
X100613331Y-111152452D01*
X100614159Y-111146743D01*
X100614160Y-111146738D01*
X100644458Y-110937772D01*
X100644991Y-110934098D01*
X100646643Y-110871000D01*
X100626454Y-110651289D01*
X100601229Y-110561845D01*
X100574701Y-110467785D01*
X100566565Y-110438936D01*
X100468980Y-110241053D01*
X100434025Y-110194242D01*
X100340420Y-110068891D01*
X100340420Y-110068890D01*
X100336967Y-110064267D01*
X100213830Y-109950440D01*
X101156770Y-109950440D01*
X101171200Y-110170604D01*
X101172621Y-110176200D01*
X101172622Y-110176205D01*
X101217310Y-110352162D01*
X101225511Y-110384452D01*
X101227928Y-110389694D01*
X101227928Y-110389695D01*
X101248336Y-110433962D01*
X101317883Y-110584821D01*
X101398252Y-110698540D01*
X101435061Y-110750624D01*
X101458042Y-110817798D01*
X101443672Y-110882010D01*
X101373418Y-111015541D01*
X101307990Y-111226254D01*
X101282057Y-111445361D01*
X101296487Y-111665525D01*
X101297908Y-111671121D01*
X101297909Y-111671126D01*
X101331639Y-111803934D01*
X101350798Y-111879373D01*
X101443170Y-112079742D01*
X101570509Y-112259923D01*
X101728551Y-112413882D01*
X101733347Y-112417087D01*
X101733350Y-112417089D01*
X101838555Y-112487384D01*
X101912004Y-112536461D01*
X101917307Y-112538739D01*
X101917310Y-112538741D01*
X102030996Y-112587584D01*
X102114723Y-112623556D01*
X102194375Y-112641579D01*
X102324282Y-112670975D01*
X102324288Y-112670976D01*
X102329919Y-112672250D01*
X102335690Y-112672477D01*
X102335692Y-112672477D01*
X102403498Y-112675141D01*
X102550385Y-112680912D01*
X102659562Y-112665082D01*
X102763025Y-112650081D01*
X102763030Y-112650080D01*
X102768739Y-112649252D01*
X102774203Y-112647397D01*
X102774208Y-112647396D01*
X102972194Y-112580189D01*
X102972199Y-112580187D01*
X102977666Y-112578331D01*
X102986886Y-112573168D01*
X103130128Y-112492948D01*
X103170171Y-112470523D01*
X103185147Y-112458068D01*
X103334458Y-112333886D01*
X103399622Y-112305705D01*
X103442833Y-112307867D01*
X103534889Y-112328697D01*
X103540660Y-112328924D01*
X103540662Y-112328924D01*
X103608468Y-112331588D01*
X103755355Y-112337359D01*
X103864532Y-112321529D01*
X103967995Y-112306528D01*
X103968000Y-112306527D01*
X103973709Y-112305699D01*
X103979173Y-112303844D01*
X103979178Y-112303843D01*
X104177164Y-112236636D01*
X104177169Y-112236634D01*
X104182636Y-112234778D01*
X104190140Y-112230576D01*
X104284913Y-112177500D01*
X104375141Y-112126970D01*
X104396990Y-112108799D01*
X104540343Y-111989572D01*
X104544775Y-111985886D01*
X104629001Y-111884616D01*
X104682165Y-111820694D01*
X104682167Y-111820691D01*
X104685859Y-111816252D01*
X104759299Y-111685116D01*
X104790843Y-111628790D01*
X104790844Y-111628788D01*
X104793667Y-111623747D01*
X104795523Y-111618280D01*
X104795525Y-111618275D01*
X104862732Y-111420289D01*
X104862733Y-111420284D01*
X104864588Y-111414820D01*
X104865416Y-111409111D01*
X104865417Y-111409106D01*
X104893711Y-111213960D01*
X104896248Y-111196466D01*
X104897900Y-111133368D01*
X104877711Y-110913657D01*
X104873818Y-110899851D01*
X104841800Y-110786326D01*
X104817822Y-110701304D01*
X104754024Y-110571934D01*
X104722792Y-110508602D01*
X104720237Y-110503421D01*
X104676239Y-110444500D01*
X104591677Y-110331259D01*
X104591677Y-110331258D01*
X104588224Y-110326635D01*
X104426206Y-110176867D01*
X104239607Y-110059132D01*
X104034678Y-109977374D01*
X104029018Y-109976248D01*
X104029014Y-109976247D01*
X103823948Y-109935457D01*
X103823945Y-109935457D01*
X103818281Y-109934330D01*
X103812506Y-109934254D01*
X103812502Y-109934254D01*
X103744022Y-109933358D01*
X103676395Y-109932473D01*
X103608543Y-109911581D01*
X103562756Y-109857322D01*
X103552574Y-109818012D01*
X103547983Y-109768046D01*
X103547454Y-109762289D01*
X103531427Y-109705459D01*
X103489134Y-109555500D01*
X103487565Y-109549936D01*
X103389980Y-109352053D01*
X103379191Y-109337604D01*
X103261420Y-109179891D01*
X103261420Y-109179890D01*
X103257967Y-109175267D01*
X103160586Y-109085249D01*
X103100189Y-109029418D01*
X103100186Y-109029416D01*
X103095949Y-109025499D01*
X102909350Y-108907764D01*
X102704421Y-108826006D01*
X102698761Y-108824880D01*
X102698757Y-108824879D01*
X102493691Y-108784089D01*
X102493688Y-108784089D01*
X102488024Y-108782962D01*
X102482249Y-108782886D01*
X102482245Y-108782886D01*
X102371504Y-108781437D01*
X102267406Y-108780074D01*
X102261709Y-108781053D01*
X102261708Y-108781053D01*
X102055654Y-108816459D01*
X102055653Y-108816459D01*
X102049957Y-108817438D01*
X101842957Y-108893804D01*
X101837996Y-108896756D01*
X101837995Y-108896756D01*
X101670570Y-108996364D01*
X101653341Y-109006614D01*
X101487457Y-109152090D01*
X101350863Y-109325360D01*
X101248131Y-109520620D01*
X101210223Y-109642704D01*
X101186682Y-109718520D01*
X101182703Y-109731333D01*
X101156770Y-109950440D01*
X100213830Y-109950440D01*
X100199733Y-109937409D01*
X100179189Y-109918418D01*
X100179186Y-109918416D01*
X100174949Y-109914499D01*
X99988350Y-109796764D01*
X99810517Y-109725816D01*
X99788785Y-109717146D01*
X99783421Y-109715006D01*
X99777761Y-109713880D01*
X99777757Y-109713879D01*
X99572691Y-109673089D01*
X99572688Y-109673089D01*
X99567024Y-109671962D01*
X99561249Y-109671886D01*
X99561245Y-109671886D01*
X99450504Y-109670437D01*
X99346406Y-109669074D01*
X99340709Y-109670053D01*
X99340708Y-109670053D01*
X99134654Y-109705459D01*
X99134653Y-109705459D01*
X99128957Y-109706438D01*
X98921957Y-109782804D01*
X98916996Y-109785756D01*
X98916995Y-109785756D01*
X98754515Y-109882422D01*
X98732341Y-109895614D01*
X98566457Y-110041090D01*
X98429863Y-110214360D01*
X98327131Y-110409620D01*
X98261703Y-110620333D01*
X98235770Y-110839440D01*
X82546733Y-110839440D01*
X82590908Y-110786326D01*
X82590910Y-110786323D01*
X82594602Y-110781884D01*
X82702410Y-110589379D01*
X82704266Y-110583912D01*
X82704268Y-110583907D01*
X82771475Y-110385921D01*
X82771476Y-110385916D01*
X82773331Y-110380452D01*
X82774159Y-110374743D01*
X82774160Y-110374738D01*
X82797413Y-110214360D01*
X82804991Y-110162098D01*
X82806643Y-110099000D01*
X82786454Y-109879289D01*
X82780681Y-109858817D01*
X82750505Y-109751821D01*
X82726565Y-109666936D01*
X82628980Y-109469053D01*
X82608204Y-109441230D01*
X82500420Y-109296891D01*
X82500420Y-109296890D01*
X82496967Y-109292267D01*
X82378912Y-109183138D01*
X82339189Y-109146418D01*
X82339186Y-109146416D01*
X82334949Y-109142499D01*
X82148350Y-109024764D01*
X81943421Y-108943006D01*
X81937761Y-108941880D01*
X81937757Y-108941879D01*
X81732691Y-108901089D01*
X81732688Y-108901089D01*
X81727024Y-108899962D01*
X81721249Y-108899886D01*
X81721245Y-108899886D01*
X81610504Y-108898437D01*
X81506406Y-108897074D01*
X81500709Y-108898053D01*
X81500708Y-108898053D01*
X81294654Y-108933459D01*
X81294653Y-108933459D01*
X81288957Y-108934438D01*
X81081957Y-109010804D01*
X81032606Y-109040165D01*
X80963838Y-109057804D01*
X80896448Y-109035464D01*
X80882655Y-109024402D01*
X80880194Y-109022127D01*
X80880188Y-109022122D01*
X80875948Y-109018203D01*
X80689349Y-108900468D01*
X80484420Y-108818710D01*
X80478760Y-108817584D01*
X80478756Y-108817583D01*
X80273690Y-108776793D01*
X80273687Y-108776793D01*
X80268023Y-108775666D01*
X80262248Y-108775590D01*
X80262244Y-108775590D01*
X80151503Y-108774141D01*
X80047405Y-108772778D01*
X80041708Y-108773757D01*
X80041707Y-108773757D01*
X79835653Y-108809163D01*
X79835652Y-108809163D01*
X79829956Y-108810142D01*
X79622956Y-108886508D01*
X79617995Y-108889460D01*
X79617994Y-108889460D01*
X79496061Y-108962003D01*
X79433340Y-108999318D01*
X79267456Y-109144794D01*
X79130862Y-109318064D01*
X79028130Y-109513324D01*
X78962702Y-109724037D01*
X78936769Y-109943144D01*
X78937147Y-109948911D01*
X78948685Y-110124959D01*
X78933181Y-110194242D01*
X78887378Y-110241484D01*
X78833298Y-110273658D01*
X78833295Y-110273660D01*
X78828330Y-110276614D01*
X78823986Y-110280424D01*
X78823980Y-110280428D01*
X78807099Y-110295232D01*
X78742695Y-110325109D01*
X78724022Y-110326500D01*
X77999545Y-110326500D01*
X77931424Y-110306498D01*
X77910450Y-110289595D01*
X76608407Y-108987552D01*
X76574381Y-108925240D01*
X76572031Y-108909986D01*
X76571488Y-108904070D01*
X76566454Y-108849289D01*
X76558434Y-108820850D01*
X76508134Y-108642500D01*
X76506565Y-108636936D01*
X76408980Y-108439053D01*
X76276967Y-108262267D01*
X76114949Y-108112499D01*
X75928350Y-107994764D01*
X75723421Y-107913006D01*
X75717761Y-107911880D01*
X75717757Y-107911879D01*
X75512691Y-107871089D01*
X75512688Y-107871089D01*
X75507024Y-107869962D01*
X75501249Y-107869886D01*
X75501245Y-107869886D01*
X75390504Y-107868437D01*
X75286406Y-107867074D01*
X75280709Y-107868053D01*
X75280708Y-107868053D01*
X75074654Y-107903459D01*
X75074653Y-107903459D01*
X75068957Y-107904438D01*
X74861957Y-107980804D01*
X74856996Y-107983756D01*
X74856995Y-107983756D01*
X74722528Y-108063756D01*
X74672341Y-108093614D01*
X74506457Y-108239090D01*
X74369863Y-108412360D01*
X74267131Y-108607620D01*
X74201703Y-108818333D01*
X74190754Y-108910845D01*
X74190580Y-108912312D01*
X74162710Y-108977609D01*
X74154548Y-108986597D01*
X73826092Y-109315053D01*
X73811064Y-109327890D01*
X73799308Y-109336431D01*
X73794895Y-109341333D01*
X73794893Y-109341334D01*
X73752631Y-109388271D01*
X73748090Y-109393055D01*
X73733275Y-109407870D01*
X73731199Y-109410434D01*
X73720080Y-109424164D01*
X73715796Y-109429180D01*
X73704946Y-109441230D01*
X73644499Y-109478469D01*
X73573516Y-109477117D01*
X73514531Y-109437603D01*
X73486274Y-109372472D01*
X73486614Y-109338839D01*
X73487630Y-109331837D01*
X73504991Y-109212098D01*
X73506643Y-109149000D01*
X73486454Y-108929289D01*
X73480384Y-108907764D01*
X73445165Y-108782886D01*
X73426565Y-108716936D01*
X73328980Y-108519053D01*
X73322466Y-108510329D01*
X73200420Y-108346891D01*
X73200420Y-108346890D01*
X73196967Y-108342267D01*
X73034949Y-108192499D01*
X72848350Y-108074764D01*
X72643421Y-107993006D01*
X72637761Y-107991880D01*
X72637757Y-107991879D01*
X72432691Y-107951089D01*
X72432688Y-107951089D01*
X72427024Y-107949962D01*
X72421249Y-107949886D01*
X72421245Y-107949886D01*
X72310504Y-107948437D01*
X72206406Y-107947074D01*
X72200709Y-107948053D01*
X72200708Y-107948053D01*
X71994654Y-107983459D01*
X71994653Y-107983459D01*
X71988957Y-107984438D01*
X71781957Y-108060804D01*
X71776996Y-108063756D01*
X71776995Y-108063756D01*
X71617581Y-108158598D01*
X71592341Y-108173614D01*
X71426457Y-108319090D01*
X71289863Y-108492360D01*
X71187131Y-108687620D01*
X71121703Y-108898333D01*
X71095770Y-109117440D01*
X67659084Y-109117440D01*
X67616049Y-108566813D01*
X67615745Y-108561448D01*
X67583230Y-107641956D01*
X67583154Y-107636583D01*
X67587664Y-107019124D01*
X67589875Y-106716482D01*
X67590028Y-106711128D01*
X67593364Y-106644422D01*
X67635974Y-105792176D01*
X67636356Y-105786823D01*
X67641499Y-105731452D01*
X67674284Y-105378440D01*
X71184770Y-105378440D01*
X71199200Y-105598604D01*
X71200621Y-105604200D01*
X71200622Y-105604205D01*
X71241512Y-105765206D01*
X71253511Y-105812452D01*
X71255928Y-105817694D01*
X71255928Y-105817695D01*
X71293103Y-105898333D01*
X71345883Y-106012821D01*
X71473222Y-106193002D01*
X71631264Y-106346961D01*
X71636060Y-106350166D01*
X71636063Y-106350168D01*
X71720261Y-106406427D01*
X71814717Y-106469540D01*
X71820020Y-106471818D01*
X71820023Y-106471820D01*
X72005372Y-106551452D01*
X72017436Y-106556635D01*
X72073350Y-106569287D01*
X72226995Y-106604054D01*
X72227001Y-106604055D01*
X72232632Y-106605329D01*
X72238403Y-106605556D01*
X72238405Y-106605556D01*
X72306211Y-106608220D01*
X72453098Y-106613991D01*
X72562275Y-106598161D01*
X72665738Y-106583160D01*
X72665743Y-106583159D01*
X72671452Y-106582331D01*
X72676916Y-106580476D01*
X72676921Y-106580475D01*
X72874907Y-106513268D01*
X72874912Y-106513266D01*
X72880379Y-106511410D01*
X72885992Y-106508267D01*
X73035143Y-106424738D01*
X73072884Y-106403602D01*
X73084645Y-106393821D01*
X73238086Y-106266204D01*
X73242518Y-106262518D01*
X73268402Y-106231397D01*
X73379908Y-106097326D01*
X73379910Y-106097323D01*
X73383602Y-106092884D01*
X73491410Y-105900379D01*
X73493266Y-105894912D01*
X73493268Y-105894907D01*
X73560475Y-105696921D01*
X73560476Y-105696916D01*
X73562331Y-105691452D01*
X73563159Y-105685743D01*
X73563160Y-105685738D01*
X73582346Y-105553413D01*
X73593991Y-105473098D01*
X73595643Y-105410000D01*
X73585300Y-105297440D01*
X79085770Y-105297440D01*
X79100200Y-105517604D01*
X79101621Y-105523200D01*
X79101622Y-105523205D01*
X79142080Y-105682504D01*
X79154511Y-105731452D01*
X79156928Y-105736694D01*
X79156928Y-105736695D01*
X79194270Y-105817695D01*
X79246883Y-105931821D01*
X79374222Y-106112002D01*
X79532264Y-106265961D01*
X79537060Y-106269166D01*
X79537063Y-106269168D01*
X79647868Y-106343205D01*
X79715717Y-106388540D01*
X79721020Y-106390818D01*
X79721023Y-106390820D01*
X79909556Y-106471820D01*
X79918436Y-106475635D01*
X79998088Y-106493658D01*
X80127995Y-106523054D01*
X80128001Y-106523055D01*
X80133632Y-106524329D01*
X80139403Y-106524556D01*
X80139405Y-106524556D01*
X80207211Y-106527220D01*
X80354098Y-106532991D01*
X80463275Y-106517161D01*
X80566738Y-106502160D01*
X80566743Y-106502159D01*
X80572452Y-106501331D01*
X80577916Y-106499476D01*
X80577921Y-106499475D01*
X80775907Y-106432268D01*
X80775912Y-106432266D01*
X80781379Y-106430410D01*
X80973884Y-106322602D01*
X81143518Y-106181518D01*
X81192016Y-106123206D01*
X81196812Y-106117440D01*
X82255770Y-106117440D01*
X82270200Y-106337604D01*
X82271621Y-106343200D01*
X82271622Y-106343205D01*
X82317680Y-106524556D01*
X82324511Y-106551452D01*
X82326928Y-106556694D01*
X82326928Y-106556695D01*
X82365046Y-106639379D01*
X82416883Y-106751821D01*
X82544222Y-106932002D01*
X82702264Y-107085961D01*
X82707060Y-107089166D01*
X82707063Y-107089168D01*
X82787506Y-107142918D01*
X82885717Y-107208540D01*
X82891020Y-107210818D01*
X82891023Y-107210820D01*
X83072450Y-107288767D01*
X83088436Y-107295635D01*
X83168088Y-107313658D01*
X83297995Y-107343054D01*
X83298001Y-107343055D01*
X83303632Y-107344329D01*
X83309403Y-107344556D01*
X83309405Y-107344556D01*
X83377211Y-107347220D01*
X83524098Y-107352991D01*
X83633275Y-107337161D01*
X83736738Y-107322160D01*
X83736743Y-107322159D01*
X83742452Y-107321331D01*
X83747916Y-107319476D01*
X83747921Y-107319475D01*
X83945907Y-107252268D01*
X83945912Y-107252266D01*
X83951379Y-107250410D01*
X84143884Y-107142602D01*
X84313518Y-107001518D01*
X84365093Y-106939506D01*
X84450908Y-106836326D01*
X84450910Y-106836323D01*
X84454602Y-106831884D01*
X84562410Y-106639379D01*
X84564266Y-106633912D01*
X84564268Y-106633907D01*
X84631475Y-106435921D01*
X84631476Y-106435916D01*
X84633331Y-106430452D01*
X84634159Y-106424743D01*
X84634160Y-106424738D01*
X84664458Y-106215772D01*
X84664991Y-106212098D01*
X84666643Y-106149000D01*
X84646454Y-105929289D01*
X84636758Y-105894907D01*
X84596935Y-105753705D01*
X84586565Y-105716936D01*
X84488980Y-105519053D01*
X84388285Y-105384206D01*
X84360420Y-105346891D01*
X84360420Y-105346890D01*
X84356967Y-105342267D01*
X84194949Y-105192499D01*
X84008350Y-105074764D01*
X83803421Y-104993006D01*
X83797761Y-104991880D01*
X83797757Y-104991879D01*
X83592691Y-104951089D01*
X83592688Y-104951089D01*
X83587024Y-104949962D01*
X83581249Y-104949886D01*
X83581245Y-104949886D01*
X83470504Y-104948437D01*
X83366406Y-104947074D01*
X83360709Y-104948053D01*
X83360708Y-104948053D01*
X83154654Y-104983459D01*
X83154653Y-104983459D01*
X83148957Y-104984438D01*
X82941957Y-105060804D01*
X82936996Y-105063756D01*
X82936995Y-105063756D01*
X82850785Y-105115046D01*
X82752341Y-105173614D01*
X82586457Y-105319090D01*
X82449863Y-105492360D01*
X82347131Y-105687620D01*
X82281703Y-105898333D01*
X82255770Y-106117440D01*
X81196812Y-106117440D01*
X81280908Y-106016326D01*
X81280910Y-106016323D01*
X81284602Y-106011884D01*
X81392410Y-105819379D01*
X81394266Y-105813912D01*
X81394268Y-105813907D01*
X81461475Y-105615921D01*
X81461476Y-105615916D01*
X81463331Y-105610452D01*
X81464159Y-105604743D01*
X81464160Y-105604738D01*
X81494458Y-105395772D01*
X81494991Y-105392098D01*
X81496643Y-105329000D01*
X81476454Y-105109289D01*
X81465105Y-105069046D01*
X81432697Y-104954138D01*
X81416565Y-104896936D01*
X81318980Y-104699053D01*
X81264025Y-104625459D01*
X81190420Y-104526891D01*
X81190420Y-104526890D01*
X81186967Y-104522267D01*
X81024949Y-104372499D01*
X80838350Y-104254764D01*
X80633421Y-104173006D01*
X80627761Y-104171880D01*
X80627757Y-104171879D01*
X80422691Y-104131089D01*
X80422688Y-104131089D01*
X80417024Y-104129962D01*
X80411249Y-104129886D01*
X80411245Y-104129886D01*
X80300504Y-104128437D01*
X80196406Y-104127074D01*
X80190709Y-104128053D01*
X80190708Y-104128053D01*
X79984654Y-104163459D01*
X79984653Y-104163459D01*
X79978957Y-104164438D01*
X79771957Y-104240804D01*
X79766996Y-104243756D01*
X79766995Y-104243756D01*
X79635809Y-104321804D01*
X79582341Y-104353614D01*
X79416457Y-104499090D01*
X79279863Y-104672360D01*
X79177131Y-104867620D01*
X79111703Y-105078333D01*
X79085770Y-105297440D01*
X73585300Y-105297440D01*
X73575454Y-105190289D01*
X73515565Y-104977936D01*
X73417980Y-104780053D01*
X73404148Y-104761529D01*
X73289420Y-104607891D01*
X73289420Y-104607890D01*
X73285967Y-104603267D01*
X73169145Y-104495278D01*
X73128189Y-104457418D01*
X73128186Y-104457416D01*
X73123949Y-104453499D01*
X72937350Y-104335764D01*
X72732421Y-104254006D01*
X72726761Y-104252880D01*
X72726757Y-104252879D01*
X72521691Y-104212089D01*
X72521688Y-104212089D01*
X72516024Y-104210962D01*
X72510249Y-104210886D01*
X72510245Y-104210886D01*
X72399504Y-104209437D01*
X72295406Y-104208074D01*
X72289709Y-104209053D01*
X72289708Y-104209053D01*
X72083654Y-104244459D01*
X72083653Y-104244459D01*
X72077957Y-104245438D01*
X71870957Y-104321804D01*
X71865996Y-104324756D01*
X71865995Y-104324756D01*
X71785747Y-104372499D01*
X71681341Y-104434614D01*
X71515457Y-104580090D01*
X71378863Y-104753360D01*
X71276131Y-104948620D01*
X71210703Y-105159333D01*
X71184770Y-105378440D01*
X67674284Y-105378440D01*
X67677214Y-105346891D01*
X67721441Y-104870681D01*
X67722052Y-104865342D01*
X67846122Y-103953658D01*
X67846960Y-103948351D01*
X68009788Y-103042795D01*
X68010851Y-103037527D01*
X68047855Y-102872488D01*
X68212157Y-102139679D01*
X68213441Y-102134479D01*
X68266269Y-101938433D01*
X68452827Y-101246101D01*
X68454332Y-101240953D01*
X68731396Y-100363539D01*
X68733119Y-100358462D01*
X68734367Y-100355029D01*
X69047328Y-99493701D01*
X69049268Y-99488694D01*
X69086298Y-99398908D01*
X69322208Y-98826891D01*
X69400079Y-98638077D01*
X69402234Y-98633154D01*
X69503561Y-98414424D01*
X69550344Y-98361021D01*
X69618572Y-98341389D01*
X69686583Y-98361760D01*
X69732785Y-98415667D01*
X69737720Y-98428446D01*
X69759916Y-98496758D01*
X69761603Y-98500344D01*
X69761605Y-98500348D01*
X69894873Y-98783556D01*
X69894877Y-98783563D01*
X69896561Y-98787142D01*
X70068522Y-99058110D01*
X70273089Y-99305390D01*
X70275976Y-99308101D01*
X70493393Y-99512268D01*
X70507036Y-99525080D01*
X70510238Y-99527407D01*
X70510240Y-99527408D01*
X70763463Y-99711385D01*
X70763468Y-99711388D01*
X70766672Y-99713716D01*
X70770141Y-99715623D01*
X70770144Y-99715625D01*
X71044441Y-99866421D01*
X71047903Y-99868324D01*
X71346294Y-99986466D01*
X71657139Y-100066277D01*
X71975536Y-100106500D01*
X72296464Y-100106500D01*
X72614861Y-100066277D01*
X72925706Y-99986466D01*
X73224097Y-99868324D01*
X73227559Y-99866421D01*
X73501856Y-99715625D01*
X73501859Y-99715623D01*
X73505328Y-99713716D01*
X73508532Y-99711388D01*
X73508537Y-99711385D01*
X73637841Y-99617440D01*
X81785770Y-99617440D01*
X81800200Y-99837604D01*
X81801621Y-99843200D01*
X81801622Y-99843205D01*
X81853090Y-100045857D01*
X81854511Y-100051452D01*
X81856928Y-100056694D01*
X81856928Y-100056695D01*
X81879889Y-100106500D01*
X81946883Y-100251821D01*
X82074222Y-100432002D01*
X82232264Y-100585961D01*
X82237060Y-100589166D01*
X82237063Y-100589168D01*
X82347910Y-100663233D01*
X82415717Y-100708540D01*
X82421020Y-100710818D01*
X82421023Y-100710820D01*
X82574852Y-100776910D01*
X82618436Y-100795635D01*
X82698088Y-100813658D01*
X82827995Y-100843054D01*
X82828001Y-100843055D01*
X82833632Y-100844329D01*
X82839403Y-100844556D01*
X82839405Y-100844556D01*
X82907211Y-100847220D01*
X83054098Y-100852991D01*
X83163275Y-100837161D01*
X83266738Y-100822160D01*
X83266743Y-100822159D01*
X83272452Y-100821331D01*
X83277916Y-100819476D01*
X83277921Y-100819475D01*
X83475907Y-100752268D01*
X83475912Y-100752266D01*
X83481379Y-100750410D01*
X83646277Y-100658062D01*
X83715483Y-100642230D01*
X83777841Y-100663232D01*
X83815717Y-100688540D01*
X83821020Y-100690818D01*
X83821023Y-100690820D01*
X83938193Y-100741160D01*
X84018436Y-100775635D01*
X84096747Y-100793355D01*
X84227995Y-100823054D01*
X84228001Y-100823055D01*
X84233632Y-100824329D01*
X84239403Y-100824556D01*
X84239405Y-100824556D01*
X84307211Y-100827220D01*
X84454098Y-100832991D01*
X84563275Y-100817161D01*
X84666738Y-100802160D01*
X84666743Y-100802159D01*
X84672452Y-100801331D01*
X84677916Y-100799476D01*
X84677921Y-100799475D01*
X84875907Y-100732268D01*
X84875912Y-100732266D01*
X84881379Y-100730410D01*
X84909548Y-100714635D01*
X84961870Y-100685333D01*
X85073884Y-100622602D01*
X85082395Y-100615524D01*
X85239086Y-100485204D01*
X85243518Y-100481518D01*
X85288622Y-100427287D01*
X85380908Y-100316326D01*
X85380910Y-100316323D01*
X85384602Y-100311884D01*
X85463601Y-100170821D01*
X85489586Y-100124422D01*
X85489587Y-100124420D01*
X85492410Y-100119379D01*
X85494266Y-100113912D01*
X85494268Y-100113907D01*
X85561475Y-99915921D01*
X85561476Y-99915916D01*
X85563331Y-99910452D01*
X85564159Y-99904743D01*
X85564160Y-99904738D01*
X85591580Y-99715625D01*
X85594991Y-99692098D01*
X85596643Y-99629000D01*
X85576454Y-99409289D01*
X85564975Y-99368585D01*
X85518134Y-99202500D01*
X85516565Y-99196936D01*
X85418980Y-98999053D01*
X85286967Y-98822267D01*
X85150287Y-98695921D01*
X85129189Y-98676418D01*
X85129186Y-98676416D01*
X85124949Y-98672499D01*
X84938350Y-98554764D01*
X84733421Y-98473006D01*
X84727761Y-98471880D01*
X84727757Y-98471879D01*
X84522691Y-98431089D01*
X84522688Y-98431089D01*
X84517024Y-98429962D01*
X84511249Y-98429886D01*
X84511245Y-98429886D01*
X84400504Y-98428437D01*
X84296406Y-98427074D01*
X84290709Y-98428053D01*
X84290708Y-98428053D01*
X84084654Y-98463459D01*
X84084653Y-98463459D01*
X84078957Y-98464438D01*
X83871957Y-98540804D01*
X83738907Y-98619960D01*
X83670139Y-98637600D01*
X83607250Y-98618236D01*
X83543238Y-98577847D01*
X83543229Y-98577842D01*
X83538350Y-98574764D01*
X83333421Y-98493006D01*
X83327761Y-98491880D01*
X83327757Y-98491879D01*
X83122691Y-98451089D01*
X83122688Y-98451089D01*
X83117024Y-98449962D01*
X83111249Y-98449886D01*
X83111245Y-98449886D01*
X83000504Y-98448437D01*
X82896406Y-98447074D01*
X82890709Y-98448053D01*
X82890708Y-98448053D01*
X82684654Y-98483459D01*
X82684653Y-98483459D01*
X82678957Y-98484438D01*
X82471957Y-98560804D01*
X82466996Y-98563756D01*
X82466995Y-98563756D01*
X82289396Y-98669417D01*
X82282341Y-98673614D01*
X82116457Y-98819090D01*
X81979863Y-98992360D01*
X81877131Y-99187620D01*
X81811703Y-99398333D01*
X81785770Y-99617440D01*
X73637841Y-99617440D01*
X73761760Y-99527408D01*
X73761762Y-99527407D01*
X73764964Y-99525080D01*
X73778608Y-99512268D01*
X73996024Y-99308101D01*
X73998911Y-99305390D01*
X74203478Y-99058110D01*
X74375439Y-98787142D01*
X74377123Y-98783563D01*
X74377127Y-98783556D01*
X74510395Y-98500348D01*
X74510397Y-98500344D01*
X74512084Y-98496758D01*
X74519802Y-98473006D01*
X74550853Y-98377440D01*
X96695770Y-98377440D01*
X96710200Y-98597604D01*
X96711621Y-98603200D01*
X96711622Y-98603205D01*
X96757426Y-98783556D01*
X96764511Y-98811452D01*
X96766928Y-98816694D01*
X96766928Y-98816695D01*
X96805046Y-98899379D01*
X96856883Y-99011821D01*
X96984222Y-99192002D01*
X97142264Y-99345961D01*
X97147060Y-99349166D01*
X97147063Y-99349168D01*
X97231261Y-99405427D01*
X97325717Y-99468540D01*
X97331020Y-99470818D01*
X97331023Y-99470820D01*
X97451007Y-99522369D01*
X97528436Y-99555635D01*
X97608088Y-99573658D01*
X97737995Y-99603054D01*
X97738001Y-99603055D01*
X97743632Y-99604329D01*
X97749403Y-99604556D01*
X97749405Y-99604556D01*
X97817211Y-99607220D01*
X97964098Y-99612991D01*
X98073275Y-99597161D01*
X98176738Y-99582160D01*
X98176743Y-99582159D01*
X98182452Y-99581331D01*
X98187916Y-99579476D01*
X98187921Y-99579475D01*
X98385907Y-99512268D01*
X98385912Y-99512266D01*
X98391379Y-99510410D01*
X98402388Y-99504245D01*
X98494710Y-99452542D01*
X98583884Y-99402602D01*
X98595651Y-99392816D01*
X98749086Y-99265204D01*
X98753518Y-99261518D01*
X98807985Y-99196029D01*
X98890908Y-99096326D01*
X98890910Y-99096323D01*
X98894602Y-99091884D01*
X99002410Y-98899379D01*
X99004266Y-98893912D01*
X99004268Y-98893907D01*
X99071475Y-98695921D01*
X99071476Y-98695916D01*
X99073331Y-98690452D01*
X99074159Y-98684743D01*
X99074160Y-98684738D01*
X99101959Y-98493006D01*
X99104991Y-98472098D01*
X99106643Y-98409000D01*
X99086454Y-98189289D01*
X99075149Y-98149202D01*
X99028134Y-97982500D01*
X99026565Y-97976936D01*
X98928980Y-97779053D01*
X98829161Y-97645379D01*
X98800420Y-97606891D01*
X98800420Y-97606890D01*
X98796967Y-97602267D01*
X98634949Y-97452499D01*
X98448350Y-97334764D01*
X98243421Y-97253006D01*
X98237761Y-97251880D01*
X98237757Y-97251879D01*
X98032691Y-97211089D01*
X98032688Y-97211089D01*
X98027024Y-97209962D01*
X98021249Y-97209886D01*
X98021245Y-97209886D01*
X97910504Y-97208437D01*
X97806406Y-97207074D01*
X97800709Y-97208053D01*
X97800708Y-97208053D01*
X97594654Y-97243459D01*
X97594653Y-97243459D01*
X97588957Y-97244438D01*
X97381957Y-97320804D01*
X97192341Y-97433614D01*
X97026457Y-97579090D01*
X96889863Y-97752360D01*
X96787131Y-97947620D01*
X96742312Y-98091961D01*
X96724725Y-98148602D01*
X96721703Y-98158333D01*
X96695770Y-98377440D01*
X74550853Y-98377440D01*
X74610029Y-98195314D01*
X74611256Y-98191538D01*
X74671392Y-97876294D01*
X74691543Y-97556000D01*
X74671392Y-97235706D01*
X74611256Y-96920462D01*
X74512084Y-96615242D01*
X74509418Y-96609576D01*
X74377127Y-96328444D01*
X74377123Y-96328437D01*
X74375439Y-96324858D01*
X74203478Y-96053890D01*
X74142715Y-95980440D01*
X79439770Y-95980440D01*
X79454200Y-96200604D01*
X79455621Y-96206200D01*
X79455622Y-96206205D01*
X79486969Y-96329632D01*
X79508511Y-96414452D01*
X79510928Y-96419694D01*
X79510928Y-96419695D01*
X79546784Y-96497472D01*
X79600883Y-96614821D01*
X79728222Y-96795002D01*
X79886264Y-96948961D01*
X79891060Y-96952166D01*
X79891063Y-96952168D01*
X79975261Y-97008427D01*
X80069717Y-97071540D01*
X80075020Y-97073818D01*
X80075023Y-97073820D01*
X80190517Y-97123440D01*
X80272436Y-97158635D01*
X80352088Y-97176658D01*
X80481995Y-97206054D01*
X80482001Y-97206055D01*
X80487632Y-97207329D01*
X80493403Y-97207556D01*
X80493405Y-97207556D01*
X80554647Y-97209962D01*
X80708098Y-97215991D01*
X80817275Y-97200161D01*
X80920738Y-97185160D01*
X80920743Y-97185159D01*
X80926452Y-97184331D01*
X80931916Y-97182476D01*
X80931921Y-97182475D01*
X81105833Y-97123440D01*
X102045770Y-97123440D01*
X102060200Y-97343604D01*
X102061621Y-97349200D01*
X102061622Y-97349205D01*
X102087073Y-97449417D01*
X102114511Y-97557452D01*
X102116928Y-97562694D01*
X102116928Y-97562695D01*
X102155046Y-97645379D01*
X102206883Y-97757821D01*
X102334222Y-97938002D01*
X102492264Y-98091961D01*
X102497060Y-98095166D01*
X102497063Y-98095168D01*
X102629599Y-98183725D01*
X102675717Y-98214540D01*
X102681020Y-98216818D01*
X102681023Y-98216820D01*
X102819118Y-98276150D01*
X102878436Y-98301635D01*
X102958088Y-98319658D01*
X103087995Y-98349054D01*
X103088001Y-98349055D01*
X103093632Y-98350329D01*
X103099403Y-98350556D01*
X103099405Y-98350556D01*
X103167211Y-98353220D01*
X103314098Y-98358991D01*
X103423275Y-98343161D01*
X103526738Y-98328160D01*
X103526743Y-98328159D01*
X103532452Y-98327331D01*
X103537916Y-98325476D01*
X103537921Y-98325475D01*
X103735907Y-98258268D01*
X103735912Y-98258266D01*
X103741379Y-98256410D01*
X103933884Y-98148602D01*
X104103518Y-98007518D01*
X104244602Y-97837884D01*
X104352410Y-97645379D01*
X104354266Y-97639912D01*
X104354268Y-97639907D01*
X104421475Y-97441921D01*
X104421476Y-97441916D01*
X104423331Y-97436452D01*
X104424159Y-97430743D01*
X104424160Y-97430738D01*
X104449619Y-97255146D01*
X104454991Y-97218098D01*
X104456643Y-97155000D01*
X104436454Y-96935289D01*
X104432273Y-96920462D01*
X104378134Y-96728500D01*
X104376565Y-96722936D01*
X104278980Y-96525053D01*
X104262049Y-96502379D01*
X104150420Y-96352891D01*
X104150420Y-96352890D01*
X104146967Y-96348267D01*
X104036195Y-96245870D01*
X103989189Y-96202418D01*
X103989186Y-96202416D01*
X103984949Y-96198499D01*
X103798350Y-96080764D01*
X103593421Y-95999006D01*
X103587761Y-95997880D01*
X103587757Y-95997879D01*
X103382691Y-95957089D01*
X103382688Y-95957089D01*
X103377024Y-95955962D01*
X103371249Y-95955886D01*
X103371245Y-95955886D01*
X103260504Y-95954437D01*
X103156406Y-95953074D01*
X103150709Y-95954053D01*
X103150708Y-95954053D01*
X102944654Y-95989459D01*
X102944653Y-95989459D01*
X102938957Y-95990438D01*
X102731957Y-96066804D01*
X102542341Y-96179614D01*
X102376457Y-96325090D01*
X102239863Y-96498360D01*
X102137131Y-96693620D01*
X102071703Y-96904333D01*
X102045770Y-97123440D01*
X81105833Y-97123440D01*
X81129907Y-97115268D01*
X81129912Y-97115266D01*
X81135379Y-97113410D01*
X81327884Y-97005602D01*
X81497518Y-96864518D01*
X81532107Y-96822929D01*
X81634908Y-96699326D01*
X81634910Y-96699323D01*
X81638602Y-96694884D01*
X81703813Y-96578442D01*
X81743586Y-96507422D01*
X81743587Y-96507420D01*
X81746410Y-96502379D01*
X81748266Y-96496912D01*
X81748268Y-96496907D01*
X81815475Y-96298921D01*
X81815476Y-96298916D01*
X81817331Y-96293452D01*
X81818159Y-96287743D01*
X81818160Y-96287738D01*
X81845572Y-96098677D01*
X81848991Y-96075098D01*
X81850643Y-96012000D01*
X81830454Y-95792289D01*
X81770565Y-95579936D01*
X81672980Y-95382053D01*
X81592724Y-95274577D01*
X81544420Y-95209891D01*
X81544420Y-95209890D01*
X81540967Y-95205267D01*
X81378949Y-95055499D01*
X81192350Y-94937764D01*
X80987421Y-94856006D01*
X80981761Y-94854880D01*
X80981757Y-94854879D01*
X80776691Y-94814089D01*
X80776688Y-94814089D01*
X80771024Y-94812962D01*
X80765249Y-94812886D01*
X80765245Y-94812886D01*
X80654504Y-94811437D01*
X80550406Y-94810074D01*
X80544709Y-94811053D01*
X80544708Y-94811053D01*
X80338654Y-94846459D01*
X80338653Y-94846459D01*
X80332957Y-94847438D01*
X80125957Y-94923804D01*
X79936341Y-95036614D01*
X79770457Y-95182090D01*
X79633863Y-95355360D01*
X79531131Y-95550620D01*
X79465703Y-95761333D01*
X79439770Y-95980440D01*
X74142715Y-95980440D01*
X73998911Y-95806610D01*
X73764964Y-95586920D01*
X73761760Y-95584592D01*
X73508537Y-95400615D01*
X73508532Y-95400612D01*
X73505328Y-95398284D01*
X73485229Y-95387234D01*
X73227559Y-95245579D01*
X73227556Y-95245578D01*
X73224097Y-95243676D01*
X72925706Y-95125534D01*
X72614861Y-95045723D01*
X72296464Y-95005500D01*
X71975536Y-95005500D01*
X71792648Y-95028604D01*
X71657477Y-95045680D01*
X71587386Y-95034374D01*
X71534535Y-94986968D01*
X71515704Y-94918515D01*
X71538009Y-94849070D01*
X71691092Y-94627420D01*
X71694239Y-94623064D01*
X72248917Y-93888973D01*
X72252247Y-93884756D01*
X72837719Y-93174987D01*
X72841226Y-93170916D01*
X73398263Y-92551440D01*
X74359770Y-92551440D01*
X74374200Y-92771604D01*
X74375621Y-92777200D01*
X74375622Y-92777205D01*
X74407767Y-92903772D01*
X74428511Y-92985452D01*
X74430928Y-92990694D01*
X74430928Y-92990695D01*
X74506258Y-93154098D01*
X74520883Y-93185821D01*
X74648222Y-93366002D01*
X74806264Y-93519961D01*
X74811060Y-93523166D01*
X74811063Y-93523168D01*
X74895261Y-93579427D01*
X74989717Y-93642540D01*
X74995020Y-93644818D01*
X74995023Y-93644820D01*
X75120053Y-93698537D01*
X75192436Y-93729635D01*
X75272088Y-93747658D01*
X75401995Y-93777054D01*
X75402001Y-93777055D01*
X75407632Y-93778329D01*
X75413403Y-93778556D01*
X75413405Y-93778556D01*
X75481211Y-93781220D01*
X75628098Y-93786991D01*
X75737275Y-93771161D01*
X75840738Y-93756160D01*
X75840743Y-93756159D01*
X75846452Y-93755331D01*
X75851916Y-93753476D01*
X75851921Y-93753475D01*
X76049907Y-93686268D01*
X76049912Y-93686266D01*
X76055379Y-93684410D01*
X76247884Y-93576602D01*
X76322146Y-93514839D01*
X76413086Y-93439204D01*
X76417518Y-93435518D01*
X76452725Y-93393186D01*
X76554908Y-93270326D01*
X76554910Y-93270323D01*
X76558602Y-93265884D01*
X76666410Y-93073379D01*
X76668266Y-93067912D01*
X76668268Y-93067907D01*
X76735475Y-92869921D01*
X76735476Y-92869916D01*
X76737331Y-92864452D01*
X76738159Y-92858743D01*
X76738160Y-92858738D01*
X76745888Y-92805440D01*
X84646770Y-92805440D01*
X84661200Y-93025604D01*
X84662621Y-93031200D01*
X84662622Y-93031205D01*
X84699139Y-93174987D01*
X84715511Y-93239452D01*
X84717928Y-93244694D01*
X84717928Y-93244695D01*
X84756046Y-93327379D01*
X84807883Y-93439821D01*
X84935222Y-93620002D01*
X85093264Y-93773961D01*
X85098060Y-93777166D01*
X85098063Y-93777168D01*
X85182261Y-93833427D01*
X85276717Y-93896540D01*
X85282020Y-93898818D01*
X85282023Y-93898820D01*
X85474129Y-93981355D01*
X85479436Y-93983635D01*
X85559088Y-94001658D01*
X85688995Y-94031054D01*
X85689001Y-94031055D01*
X85694632Y-94032329D01*
X85700403Y-94032556D01*
X85700405Y-94032556D01*
X85768211Y-94035220D01*
X85915098Y-94040991D01*
X86024275Y-94025161D01*
X86127738Y-94010160D01*
X86127743Y-94010159D01*
X86133452Y-94009331D01*
X86138916Y-94007476D01*
X86138921Y-94007475D01*
X86336907Y-93940268D01*
X86336912Y-93940266D01*
X86342379Y-93938410D01*
X86534884Y-93830602D01*
X86587321Y-93786991D01*
X86700086Y-93693204D01*
X86704518Y-93689518D01*
X86794457Y-93581379D01*
X86841908Y-93524326D01*
X86841910Y-93524323D01*
X86845602Y-93519884D01*
X86953410Y-93327379D01*
X86955266Y-93321912D01*
X86955268Y-93321907D01*
X87022475Y-93123921D01*
X87022476Y-93123916D01*
X87024331Y-93118452D01*
X87025159Y-93112743D01*
X87025160Y-93112738D01*
X87053379Y-92918111D01*
X87055991Y-92900098D01*
X87057643Y-92837000D01*
X87057304Y-92833309D01*
X87057189Y-92829804D01*
X87074949Y-92761065D01*
X87127054Y-92712840D01*
X87196959Y-92700440D01*
X87262471Y-92727803D01*
X87271038Y-92735420D01*
X87289764Y-92753662D01*
X87294560Y-92756867D01*
X87294563Y-92756869D01*
X87419477Y-92840333D01*
X87473217Y-92876241D01*
X87478520Y-92878519D01*
X87478523Y-92878521D01*
X87670629Y-92961056D01*
X87675936Y-92963336D01*
X87748948Y-92979857D01*
X87885495Y-93010755D01*
X87885501Y-93010756D01*
X87891132Y-93012030D01*
X87896903Y-93012257D01*
X87896905Y-93012257D01*
X87964711Y-93014921D01*
X88111598Y-93020692D01*
X88220775Y-93004862D01*
X88324238Y-92989861D01*
X88324243Y-92989860D01*
X88329952Y-92989032D01*
X88335416Y-92987177D01*
X88335421Y-92987176D01*
X88533407Y-92919969D01*
X88533412Y-92919967D01*
X88538879Y-92918111D01*
X88577667Y-92896389D01*
X88667517Y-92846070D01*
X88731384Y-92810303D01*
X88737232Y-92805440D01*
X88896586Y-92672905D01*
X88901018Y-92669219D01*
X88965183Y-92592070D01*
X89038408Y-92504027D01*
X89038410Y-92504024D01*
X89042102Y-92499585D01*
X89115207Y-92369046D01*
X89147086Y-92312123D01*
X89147087Y-92312121D01*
X89149910Y-92307080D01*
X89151766Y-92301613D01*
X89151768Y-92301608D01*
X89218975Y-92103622D01*
X89218976Y-92103617D01*
X89220831Y-92098153D01*
X89221659Y-92092444D01*
X89221660Y-92092439D01*
X89242353Y-91949718D01*
X89252491Y-91879799D01*
X89254143Y-91816701D01*
X89233954Y-91596990D01*
X89174065Y-91384637D01*
X89076480Y-91186754D01*
X88944467Y-91009968D01*
X88841146Y-90914459D01*
X88786689Y-90864119D01*
X88786686Y-90864117D01*
X88782449Y-90860200D01*
X88595850Y-90742465D01*
X88390921Y-90660707D01*
X88385261Y-90659581D01*
X88385257Y-90659580D01*
X88180191Y-90618790D01*
X88180188Y-90618790D01*
X88174524Y-90617663D01*
X88168749Y-90617587D01*
X88168745Y-90617587D01*
X88058004Y-90616138D01*
X87953906Y-90614775D01*
X87948209Y-90615754D01*
X87948208Y-90615754D01*
X87742154Y-90651160D01*
X87742153Y-90651160D01*
X87736457Y-90652139D01*
X87529457Y-90728505D01*
X87524496Y-90731457D01*
X87524495Y-90731457D01*
X87444489Y-90779056D01*
X87339841Y-90841315D01*
X87173957Y-90986791D01*
X87037363Y-91160061D01*
X86934631Y-91355321D01*
X86869203Y-91566034D01*
X86843270Y-91785141D01*
X86843648Y-91790908D01*
X86843648Y-91790909D01*
X86845863Y-91824712D01*
X86830359Y-91893995D01*
X86779858Y-91943897D01*
X86710395Y-91958574D01*
X86644024Y-91933367D01*
X86634611Y-91925482D01*
X86585949Y-91880499D01*
X86399350Y-91762764D01*
X86194421Y-91681006D01*
X86188761Y-91679880D01*
X86188757Y-91679879D01*
X85983691Y-91639089D01*
X85983688Y-91639089D01*
X85978024Y-91637962D01*
X85972249Y-91637886D01*
X85972245Y-91637886D01*
X85861504Y-91636437D01*
X85757406Y-91635074D01*
X85751709Y-91636053D01*
X85751708Y-91636053D01*
X85545654Y-91671459D01*
X85545653Y-91671459D01*
X85539957Y-91672438D01*
X85332957Y-91748804D01*
X85327996Y-91751756D01*
X85327995Y-91751756D01*
X85160913Y-91851160D01*
X85143341Y-91861614D01*
X84977457Y-92007090D01*
X84840863Y-92180360D01*
X84738131Y-92375620D01*
X84672703Y-92586333D01*
X84646770Y-92805440D01*
X76745888Y-92805440D01*
X76765104Y-92672905D01*
X76768991Y-92646098D01*
X76770643Y-92583000D01*
X76750454Y-92363289D01*
X76690565Y-92150936D01*
X76592980Y-91953053D01*
X76572387Y-91925475D01*
X76464420Y-91780891D01*
X76464420Y-91780890D01*
X76460967Y-91776267D01*
X76350797Y-91674427D01*
X76303189Y-91630418D01*
X76303186Y-91630416D01*
X76298949Y-91626499D01*
X76112350Y-91508764D01*
X75907421Y-91427006D01*
X75901761Y-91425880D01*
X75901757Y-91425879D01*
X75696691Y-91385089D01*
X75696688Y-91385089D01*
X75691024Y-91383962D01*
X75685249Y-91383886D01*
X75685245Y-91383886D01*
X75574504Y-91382437D01*
X75470406Y-91381074D01*
X75464709Y-91382053D01*
X75464708Y-91382053D01*
X75258654Y-91417459D01*
X75258653Y-91417459D01*
X75252957Y-91418438D01*
X75045957Y-91494804D01*
X75040996Y-91497756D01*
X75040995Y-91497756D01*
X74864522Y-91602747D01*
X74856341Y-91607614D01*
X74690457Y-91753090D01*
X74553863Y-91926360D01*
X74451131Y-92121620D01*
X74385703Y-92332333D01*
X74359770Y-92551440D01*
X73398263Y-92551440D01*
X73456448Y-92486733D01*
X73460093Y-92482848D01*
X74103968Y-91825480D01*
X74107775Y-91821756D01*
X74109217Y-91820405D01*
X74779051Y-91192480D01*
X74783049Y-91188890D01*
X75480515Y-90588834D01*
X75484662Y-90585417D01*
X75701162Y-90414663D01*
X76207113Y-90015618D01*
X76211371Y-90012405D01*
X76387640Y-89885186D01*
X76454583Y-89861538D01*
X76523683Y-89877837D01*
X76573003Y-89928907D01*
X76586882Y-89998534D01*
X76572887Y-90046023D01*
X76483131Y-90216620D01*
X76417703Y-90427333D01*
X76391770Y-90646440D01*
X76392148Y-90652206D01*
X76404543Y-90841315D01*
X76406200Y-90866604D01*
X76407621Y-90872200D01*
X76407622Y-90872205D01*
X76454586Y-91057122D01*
X76460511Y-91080452D01*
X76462928Y-91085694D01*
X76462928Y-91085695D01*
X76499398Y-91164804D01*
X76552883Y-91280821D01*
X76680222Y-91461002D01*
X76838264Y-91614961D01*
X76843060Y-91618166D01*
X76843063Y-91618168D01*
X76940310Y-91683146D01*
X77021717Y-91737540D01*
X77027020Y-91739818D01*
X77027023Y-91739820D01*
X77197369Y-91813006D01*
X77224436Y-91824635D01*
X77304088Y-91842658D01*
X77433995Y-91872054D01*
X77434001Y-91872055D01*
X77439632Y-91873329D01*
X77445403Y-91873556D01*
X77445405Y-91873556D01*
X77509905Y-91876090D01*
X77660098Y-91881991D01*
X77774358Y-91865424D01*
X77872738Y-91851160D01*
X77872743Y-91851159D01*
X77878452Y-91850331D01*
X77883916Y-91848476D01*
X77883921Y-91848475D01*
X78081907Y-91781268D01*
X78081912Y-91781266D01*
X78087379Y-91779410D01*
X78092992Y-91776267D01*
X78252935Y-91686694D01*
X78279884Y-91671602D01*
X78318977Y-91639089D01*
X78374510Y-91592902D01*
X78439675Y-91564721D01*
X78492480Y-91569794D01*
X78494436Y-91570635D01*
X78557220Y-91584842D01*
X78703995Y-91618054D01*
X78704001Y-91618055D01*
X78709632Y-91619329D01*
X78715403Y-91619556D01*
X78715405Y-91619556D01*
X78783211Y-91622220D01*
X78930098Y-91627991D01*
X79044358Y-91611424D01*
X79142738Y-91597160D01*
X79142743Y-91597159D01*
X79148452Y-91596331D01*
X79153916Y-91594476D01*
X79153921Y-91594475D01*
X79351907Y-91527268D01*
X79351912Y-91527266D01*
X79357379Y-91525410D01*
X79549884Y-91417602D01*
X79588977Y-91385089D01*
X79715086Y-91280204D01*
X79719518Y-91276518D01*
X79789412Y-91192480D01*
X79856908Y-91111326D01*
X79856910Y-91111323D01*
X79860602Y-91106884D01*
X79968410Y-90914379D01*
X79970266Y-90908912D01*
X79970268Y-90908907D01*
X80037475Y-90710921D01*
X80037476Y-90710916D01*
X80039331Y-90705452D01*
X80040159Y-90699743D01*
X80040160Y-90699738D01*
X80070458Y-90490772D01*
X80070991Y-90487098D01*
X80072643Y-90424000D01*
X80052454Y-90204289D01*
X80044169Y-90174910D01*
X80000863Y-90021360D01*
X79992565Y-89991936D01*
X79894980Y-89794053D01*
X79828361Y-89704839D01*
X79766420Y-89621891D01*
X79766420Y-89621890D01*
X79762967Y-89617267D01*
X79654909Y-89517379D01*
X79605189Y-89471418D01*
X79605186Y-89471416D01*
X79600949Y-89467499D01*
X79414350Y-89349764D01*
X79209421Y-89268006D01*
X79203761Y-89266880D01*
X79203757Y-89266879D01*
X78998691Y-89226089D01*
X78998688Y-89226089D01*
X78993024Y-89224962D01*
X78987249Y-89224886D01*
X78987245Y-89224886D01*
X78876504Y-89223437D01*
X78772406Y-89222074D01*
X78766709Y-89223053D01*
X78766708Y-89223053D01*
X78560654Y-89258459D01*
X78560653Y-89258459D01*
X78554957Y-89259438D01*
X78347957Y-89335804D01*
X78342996Y-89338756D01*
X78342995Y-89338756D01*
X78181737Y-89434695D01*
X78158341Y-89448614D01*
X78107320Y-89493358D01*
X78090420Y-89508179D01*
X78026016Y-89538056D01*
X77960652Y-89530476D01*
X77955248Y-89528320D01*
X77944786Y-89524146D01*
X77944782Y-89524145D01*
X77939421Y-89522006D01*
X77933761Y-89520880D01*
X77933757Y-89520879D01*
X77728691Y-89480089D01*
X77728688Y-89480089D01*
X77723024Y-89478962D01*
X77717249Y-89478886D01*
X77717245Y-89478886D01*
X77606504Y-89477437D01*
X77502406Y-89476074D01*
X77496709Y-89477053D01*
X77496708Y-89477053D01*
X77354229Y-89501535D01*
X77283705Y-89493358D01*
X77228797Y-89448351D01*
X77206938Y-89380803D01*
X77225069Y-89312160D01*
X77263576Y-89272134D01*
X77269843Y-89268006D01*
X77730246Y-88964710D01*
X77734795Y-88961851D01*
X77857372Y-88888398D01*
X78524021Y-88488916D01*
X78528658Y-88486269D01*
X79018821Y-88220267D01*
X79147830Y-88150256D01*
X79207929Y-88135000D01*
X83099289Y-88135000D01*
X83167410Y-88155002D01*
G37*
%TD.AperFunction*%
%TD*%
M02*
