%TF.GenerationSoftware,KiCad,Pcbnew,7.0.1*%
%TF.CreationDate,2023-11-27T02:12:03-06:00*%
%TF.ProjectId,RoundScanner,526f756e-6453-4636-916e-6e65722e6b69,1.0*%
%TF.SameCoordinates,Original*%
%TF.FileFunction,Drillmap*%
%TF.FilePolarity,Positive*%
%FSLAX45Y45*%
G04 Gerber Fmt 4.5, Leading zero omitted, Abs format (unit mm)*
G04 Created by KiCad (PCBNEW 7.0.1) date 2023-11-27 02:12:03*
%MOMM*%
%LPD*%
G01*
G04 APERTURE LIST*
%ADD10C,0.200000*%
%ADD11C,0.040000*%
%ADD12C,0.100000*%
%ADD13C,0.220000*%
G04 APERTURE END LIST*
D10*
D11*
X6873100Y-10476900D02*
X6913100Y-10516900D01*
X6913100Y-10476900D02*
X6873100Y-10516900D01*
X6928100Y-11476900D02*
X6968100Y-11516900D01*
X6968100Y-11476900D02*
X6928100Y-11516900D01*
X7043100Y-10486900D02*
X7083100Y-10526900D01*
X7083100Y-10486900D02*
X7043100Y-10526900D01*
X7219000Y-10496900D02*
X7259000Y-10536900D01*
X7259000Y-10496900D02*
X7219000Y-10536900D01*
X7235650Y-10996900D02*
X7275650Y-11036900D01*
X7275650Y-10996900D02*
X7235650Y-11036900D01*
X7248100Y-11176900D02*
X7288100Y-11216900D01*
X7288100Y-11176900D02*
X7248100Y-11216900D01*
X7268100Y-9736900D02*
X7308100Y-9776900D01*
X7308100Y-9736900D02*
X7268100Y-9776900D01*
X7308100Y-10876900D02*
X7348100Y-10916900D01*
X7348100Y-10876900D02*
X7308100Y-10916900D01*
X7428100Y-9656900D02*
X7468100Y-9696900D01*
X7468100Y-9656900D02*
X7428100Y-9696900D01*
X7448100Y-10890364D02*
X7488100Y-10930364D01*
X7488100Y-10890364D02*
X7448100Y-10930364D01*
X7548100Y-11256900D02*
X7588100Y-11296900D01*
X7588100Y-11256900D02*
X7548100Y-11296900D01*
X7608100Y-10476900D02*
X7648100Y-10516900D01*
X7648100Y-10476900D02*
X7608100Y-10516900D01*
X7788901Y-11420855D02*
X7828901Y-11460855D01*
X7828901Y-11420855D02*
X7788901Y-11460855D01*
X7868100Y-11056900D02*
X7908100Y-11096900D01*
X7908100Y-11056900D02*
X7868100Y-11096900D01*
X7888100Y-11816900D02*
X7928100Y-11856900D01*
X7928100Y-11816900D02*
X7888100Y-11856900D01*
X7955100Y-12606900D02*
X7995100Y-12646900D01*
X7995100Y-12606900D02*
X7955100Y-12646900D01*
X7988100Y-11056900D02*
X8028100Y-11096900D01*
X8028100Y-11056900D02*
X7988100Y-11096900D01*
X8008100Y-10516900D02*
X8048100Y-10556900D01*
X8048100Y-10516900D02*
X8008100Y-10556900D01*
X8073725Y-12222525D02*
X8113725Y-12262525D01*
X8113725Y-12222525D02*
X8073725Y-12262525D01*
X8088100Y-10336900D02*
X8128100Y-10376900D01*
X8128100Y-10336900D02*
X8088100Y-10376900D01*
X8188100Y-11736900D02*
X8228100Y-11776900D01*
X8228100Y-11736900D02*
X8188100Y-11776900D01*
X8203100Y-11516900D02*
X8243100Y-11556900D01*
X8243100Y-11516900D02*
X8203100Y-11556900D01*
X8279100Y-9944900D02*
X8319100Y-9984900D01*
X8319100Y-9944900D02*
X8279100Y-9984900D01*
X8308100Y-10956900D02*
X8348100Y-10996900D01*
X8348100Y-10956900D02*
X8308100Y-10996900D01*
X8308100Y-12196900D02*
X8348100Y-12236900D01*
X8348100Y-12196900D02*
X8308100Y-12236900D01*
X8326100Y-10594900D02*
X8366100Y-10634900D01*
X8366100Y-10594900D02*
X8326100Y-10634900D01*
X8348100Y-9256900D02*
X8388100Y-9296900D01*
X8388100Y-9256900D02*
X8348100Y-9296900D01*
X8412800Y-8857300D02*
X8452800Y-8897300D01*
X8452800Y-8857300D02*
X8412800Y-8897300D01*
X8448100Y-11316900D02*
X8488100Y-11356900D01*
X8488100Y-11316900D02*
X8448100Y-11356900D01*
X8476300Y-11613200D02*
X8516300Y-11653200D01*
X8516300Y-11613200D02*
X8476300Y-11653200D01*
X8528100Y-10676900D02*
X8568100Y-10716900D01*
X8568100Y-10676900D02*
X8528100Y-10716900D01*
X8528100Y-10876900D02*
X8568100Y-10916900D01*
X8568100Y-10876900D02*
X8528100Y-10916900D01*
X8565200Y-9263700D02*
X8605200Y-9303700D01*
X8605200Y-9263700D02*
X8565200Y-9303700D01*
X8577100Y-12786900D02*
X8617100Y-12826900D01*
X8617100Y-12786900D02*
X8577100Y-12826900D01*
X8688100Y-9256900D02*
X8728100Y-9296900D01*
X8728100Y-9256900D02*
X8688100Y-9296900D01*
X8708100Y-10176900D02*
X8748100Y-10216900D01*
X8748100Y-10176900D02*
X8708100Y-10216900D01*
X8748100Y-8816900D02*
X8788100Y-8856900D01*
X8788100Y-8816900D02*
X8748100Y-8856900D01*
X8769953Y-11475047D02*
X8809953Y-11515047D01*
X8809953Y-11475047D02*
X8769953Y-11515047D01*
X8788100Y-9696900D02*
X8828100Y-9736900D01*
X8828100Y-9696900D02*
X8788100Y-9736900D01*
X8848100Y-9876900D02*
X8888100Y-9916900D01*
X8888100Y-9876900D02*
X8848100Y-9916900D01*
X8868100Y-12096900D02*
X8908100Y-12136900D01*
X8908100Y-12096900D02*
X8868100Y-12136900D01*
X8909826Y-12536900D02*
X8949826Y-12576900D01*
X8949826Y-12536900D02*
X8909826Y-12576900D01*
X8968100Y-8856900D02*
X9008100Y-8896900D01*
X9008100Y-8856900D02*
X8968100Y-8896900D01*
X9048100Y-9736900D02*
X9088100Y-9776900D01*
X9088100Y-9736900D02*
X9048100Y-9776900D01*
X9120205Y-9992325D02*
X9160205Y-10032325D01*
X9160205Y-9992325D02*
X9120205Y-10032325D01*
X9124000Y-12456900D02*
X9164000Y-12496900D01*
X9164000Y-12456900D02*
X9124000Y-12496900D01*
X9168100Y-11556900D02*
X9208100Y-11596900D01*
X9208100Y-11556900D02*
X9168100Y-11596900D01*
X9248100Y-9996900D02*
X9288100Y-10036900D01*
X9288100Y-9996900D02*
X9248100Y-10036900D01*
X9288100Y-9756900D02*
X9328100Y-9796900D01*
X9328100Y-9756900D02*
X9288100Y-9796900D01*
X9328100Y-8996900D02*
X9368100Y-9036900D01*
X9368100Y-8996900D02*
X9328100Y-9036900D01*
X9388100Y-11656900D02*
X9428100Y-11696900D01*
X9428100Y-11656900D02*
X9388100Y-11696900D01*
X9493500Y-12405751D02*
X9533500Y-12445751D01*
X9533500Y-12405751D02*
X9493500Y-12445751D01*
X9508100Y-12592250D02*
X9548100Y-12632250D01*
X9548100Y-12592250D02*
X9508100Y-12632250D01*
X9508100Y-12776900D02*
X9548100Y-12816900D01*
X9548100Y-12776900D02*
X9508100Y-12816900D01*
X9568500Y-8882700D02*
X9608500Y-8922700D01*
X9608500Y-8882700D02*
X9568500Y-8922700D01*
X9770100Y-9820900D02*
X9810100Y-9860900D01*
X9810100Y-9820900D02*
X9770100Y-9860900D01*
X9808100Y-12596900D02*
X9848100Y-12636900D01*
X9848100Y-12596900D02*
X9808100Y-12636900D01*
X9822500Y-11765600D02*
X9862500Y-11805600D01*
X9862500Y-11765600D02*
X9822500Y-11805600D01*
X9848100Y-11067100D02*
X9888100Y-11107100D01*
X9888100Y-11067100D02*
X9848100Y-11107100D01*
X9903100Y-8881900D02*
X9943100Y-8921900D01*
X9943100Y-8881900D02*
X9903100Y-8921900D01*
X9911619Y-11600281D02*
X9951619Y-11640281D01*
X9951619Y-11600281D02*
X9911619Y-11640281D01*
X10048100Y-9316900D02*
X10088100Y-9356900D01*
X10088100Y-9316900D02*
X10048100Y-9356900D01*
X10108100Y-11476900D02*
X10148100Y-11516900D01*
X10148100Y-11476900D02*
X10108100Y-11516900D01*
X10128100Y-11616900D02*
X10168100Y-11656900D01*
X10168100Y-11616900D02*
X10128100Y-11656900D01*
X10216200Y-10978200D02*
X10256200Y-11018200D01*
X10256200Y-10978200D02*
X10216200Y-11018200D01*
X10228729Y-11127692D02*
X10268729Y-11167692D01*
X10268729Y-11127692D02*
X10228729Y-11167692D01*
X10305100Y-9695500D02*
X10345100Y-9735500D01*
X10345100Y-9695500D02*
X10305100Y-9735500D01*
X10349226Y-11093337D02*
X10389226Y-11133337D01*
X10389226Y-11093337D02*
X10349226Y-11133337D01*
X10448100Y-11236900D02*
X10488100Y-11276900D01*
X10488100Y-11236900D02*
X10448100Y-11276900D01*
X10567100Y-11064900D02*
X10607100Y-11104900D01*
X10607100Y-11064900D02*
X10567100Y-11104900D01*
X10648000Y-10559100D02*
X10688000Y-10599100D01*
X10688000Y-10559100D02*
X10648000Y-10599100D01*
X10673400Y-11511600D02*
X10713400Y-11551600D01*
X10713400Y-11511600D02*
X10673400Y-11551600D01*
X10673400Y-11765600D02*
X10713400Y-11805600D01*
X10713400Y-11765600D02*
X10673400Y-11805600D01*
X10686100Y-10711500D02*
X10726100Y-10751500D01*
X10726100Y-10711500D02*
X10686100Y-10751500D01*
X10736900Y-10508300D02*
X10776900Y-10548300D01*
X10776900Y-10508300D02*
X10736900Y-10548300D01*
X10793100Y-10943900D02*
X10833100Y-10983900D01*
X10833100Y-10943900D02*
X10793100Y-10983900D01*
X10795733Y-10789550D02*
X10835733Y-10829550D01*
X10835733Y-10789550D02*
X10795733Y-10829550D01*
X10940100Y-11143300D02*
X10980100Y-11183300D01*
X10980100Y-11143300D02*
X10940100Y-11183300D01*
X10990900Y-10101900D02*
X11030900Y-10141900D01*
X11030900Y-10101900D02*
X10990900Y-10141900D01*
X11016300Y-10305100D02*
X11056300Y-10345100D01*
X11056300Y-10305100D02*
X11016300Y-10345100D01*
D12*
X7308120Y-11875479D02*
G75*
G03*
X7308120Y-11875479I-50000J0D01*
G01*
X7487725Y-12055084D02*
G75*
G03*
X7487725Y-12055084I-50000J0D01*
G01*
X7667330Y-12234689D02*
G75*
G03*
X7667330Y-12234689I-50000J0D01*
G01*
X7846936Y-12414294D02*
G75*
G03*
X7846936Y-12414294I-50000J0D01*
G01*
X10385567Y-9281803D02*
G75*
G03*
X10385567Y-9281803I-50000J0D01*
G01*
X10531256Y-9489868D02*
G75*
G03*
X10531256Y-9489868I-50000J0D01*
G01*
X10676944Y-9697932D02*
G75*
G03*
X10676944Y-9697932I-50000J0D01*
G01*
X10822633Y-9905997D02*
G75*
G03*
X10822633Y-9905997I-50000J0D01*
G01*
D13*
X7528100Y-9246900D02*
X7528100Y-9466900D01*
X7418100Y-9356900D02*
X7638100Y-9356900D01*
X10328100Y-12046900D02*
X10328100Y-12266900D01*
X10218100Y-12156900D02*
X10438100Y-12156900D01*
D10*
X6913219Y-13308724D02*
X6913219Y-13108724D01*
X6913219Y-13108724D02*
X6960838Y-13108724D01*
X6960838Y-13108724D02*
X6989409Y-13118248D01*
X6989409Y-13118248D02*
X7008457Y-13137295D01*
X7008457Y-13137295D02*
X7017981Y-13156343D01*
X7017981Y-13156343D02*
X7027505Y-13194438D01*
X7027505Y-13194438D02*
X7027505Y-13223009D01*
X7027505Y-13223009D02*
X7017981Y-13261105D01*
X7017981Y-13261105D02*
X7008457Y-13280152D01*
X7008457Y-13280152D02*
X6989409Y-13299200D01*
X6989409Y-13299200D02*
X6960838Y-13308724D01*
X6960838Y-13308724D02*
X6913219Y-13308724D01*
X7113219Y-13308724D02*
X7113219Y-13175390D01*
X7113219Y-13213486D02*
X7122743Y-13194438D01*
X7122743Y-13194438D02*
X7132267Y-13184914D01*
X7132267Y-13184914D02*
X7151314Y-13175390D01*
X7151314Y-13175390D02*
X7170362Y-13175390D01*
X7237028Y-13308724D02*
X7237028Y-13175390D01*
X7237028Y-13108724D02*
X7227505Y-13118248D01*
X7227505Y-13118248D02*
X7237028Y-13127771D01*
X7237028Y-13127771D02*
X7246552Y-13118248D01*
X7246552Y-13118248D02*
X7237028Y-13108724D01*
X7237028Y-13108724D02*
X7237028Y-13127771D01*
X7360838Y-13308724D02*
X7341790Y-13299200D01*
X7341790Y-13299200D02*
X7332267Y-13280152D01*
X7332267Y-13280152D02*
X7332267Y-13108724D01*
X7465600Y-13308724D02*
X7446552Y-13299200D01*
X7446552Y-13299200D02*
X7437028Y-13280152D01*
X7437028Y-13280152D02*
X7437028Y-13108724D01*
X7694171Y-13308724D02*
X7694171Y-13108724D01*
X7694171Y-13108724D02*
X7760838Y-13251581D01*
X7760838Y-13251581D02*
X7827505Y-13108724D01*
X7827505Y-13108724D02*
X7827505Y-13308724D01*
X8008457Y-13308724D02*
X8008457Y-13203962D01*
X8008457Y-13203962D02*
X7998933Y-13184914D01*
X7998933Y-13184914D02*
X7979886Y-13175390D01*
X7979886Y-13175390D02*
X7941790Y-13175390D01*
X7941790Y-13175390D02*
X7922743Y-13184914D01*
X8008457Y-13299200D02*
X7989409Y-13308724D01*
X7989409Y-13308724D02*
X7941790Y-13308724D01*
X7941790Y-13308724D02*
X7922743Y-13299200D01*
X7922743Y-13299200D02*
X7913219Y-13280152D01*
X7913219Y-13280152D02*
X7913219Y-13261105D01*
X7913219Y-13261105D02*
X7922743Y-13242057D01*
X7922743Y-13242057D02*
X7941790Y-13232533D01*
X7941790Y-13232533D02*
X7989409Y-13232533D01*
X7989409Y-13232533D02*
X8008457Y-13223009D01*
X8103695Y-13175390D02*
X8103695Y-13375390D01*
X8103695Y-13184914D02*
X8122743Y-13175390D01*
X8122743Y-13175390D02*
X8160838Y-13175390D01*
X8160838Y-13175390D02*
X8179886Y-13184914D01*
X8179886Y-13184914D02*
X8189409Y-13194438D01*
X8189409Y-13194438D02*
X8198933Y-13213486D01*
X8198933Y-13213486D02*
X8198933Y-13270628D01*
X8198933Y-13270628D02*
X8189409Y-13289676D01*
X8189409Y-13289676D02*
X8179886Y-13299200D01*
X8179886Y-13299200D02*
X8160838Y-13308724D01*
X8160838Y-13308724D02*
X8122743Y-13308724D01*
X8122743Y-13308724D02*
X8103695Y-13299200D01*
X8284648Y-13289676D02*
X8294171Y-13299200D01*
X8294171Y-13299200D02*
X8284648Y-13308724D01*
X8284648Y-13308724D02*
X8275124Y-13299200D01*
X8275124Y-13299200D02*
X8284648Y-13289676D01*
X8284648Y-13289676D02*
X8284648Y-13308724D01*
X8284648Y-13184914D02*
X8294171Y-13194438D01*
X8294171Y-13194438D02*
X8284648Y-13203962D01*
X8284648Y-13203962D02*
X8275124Y-13194438D01*
X8275124Y-13194438D02*
X8284648Y-13184914D01*
X8284648Y-13184914D02*
X8284648Y-13203962D01*
D11*
X6625600Y-13616200D02*
X6665600Y-13656200D01*
X6665600Y-13616200D02*
X6625600Y-13656200D01*
D10*
X6951314Y-13528724D02*
X6970362Y-13528724D01*
X6970362Y-13528724D02*
X6989409Y-13538248D01*
X6989409Y-13538248D02*
X6998933Y-13547771D01*
X6998933Y-13547771D02*
X7008457Y-13566819D01*
X7008457Y-13566819D02*
X7017981Y-13604914D01*
X7017981Y-13604914D02*
X7017981Y-13652533D01*
X7017981Y-13652533D02*
X7008457Y-13690628D01*
X7008457Y-13690628D02*
X6998933Y-13709676D01*
X6998933Y-13709676D02*
X6989409Y-13719200D01*
X6989409Y-13719200D02*
X6970362Y-13728724D01*
X6970362Y-13728724D02*
X6951314Y-13728724D01*
X6951314Y-13728724D02*
X6932267Y-13719200D01*
X6932267Y-13719200D02*
X6922743Y-13709676D01*
X6922743Y-13709676D02*
X6913219Y-13690628D01*
X6913219Y-13690628D02*
X6903695Y-13652533D01*
X6903695Y-13652533D02*
X6903695Y-13604914D01*
X6903695Y-13604914D02*
X6913219Y-13566819D01*
X6913219Y-13566819D02*
X6922743Y-13547771D01*
X6922743Y-13547771D02*
X6932267Y-13538248D01*
X6932267Y-13538248D02*
X6951314Y-13528724D01*
X7103695Y-13709676D02*
X7113219Y-13719200D01*
X7113219Y-13719200D02*
X7103695Y-13728724D01*
X7103695Y-13728724D02*
X7094171Y-13719200D01*
X7094171Y-13719200D02*
X7103695Y-13709676D01*
X7103695Y-13709676D02*
X7103695Y-13728724D01*
X7284648Y-13595390D02*
X7284648Y-13728724D01*
X7237028Y-13519200D02*
X7189409Y-13662057D01*
X7189409Y-13662057D02*
X7313219Y-13662057D01*
X7427505Y-13528724D02*
X7446552Y-13528724D01*
X7446552Y-13528724D02*
X7465600Y-13538248D01*
X7465600Y-13538248D02*
X7475124Y-13547771D01*
X7475124Y-13547771D02*
X7484648Y-13566819D01*
X7484648Y-13566819D02*
X7494171Y-13604914D01*
X7494171Y-13604914D02*
X7494171Y-13652533D01*
X7494171Y-13652533D02*
X7484648Y-13690628D01*
X7484648Y-13690628D02*
X7475124Y-13709676D01*
X7475124Y-13709676D02*
X7465600Y-13719200D01*
X7465600Y-13719200D02*
X7446552Y-13728724D01*
X7446552Y-13728724D02*
X7427505Y-13728724D01*
X7427505Y-13728724D02*
X7408457Y-13719200D01*
X7408457Y-13719200D02*
X7398933Y-13709676D01*
X7398933Y-13709676D02*
X7389409Y-13690628D01*
X7389409Y-13690628D02*
X7379886Y-13652533D01*
X7379886Y-13652533D02*
X7379886Y-13604914D01*
X7379886Y-13604914D02*
X7389409Y-13566819D01*
X7389409Y-13566819D02*
X7398933Y-13547771D01*
X7398933Y-13547771D02*
X7408457Y-13538248D01*
X7408457Y-13538248D02*
X7427505Y-13528724D01*
X7617981Y-13528724D02*
X7637029Y-13528724D01*
X7637029Y-13528724D02*
X7656076Y-13538248D01*
X7656076Y-13538248D02*
X7665600Y-13547771D01*
X7665600Y-13547771D02*
X7675124Y-13566819D01*
X7675124Y-13566819D02*
X7684648Y-13604914D01*
X7684648Y-13604914D02*
X7684648Y-13652533D01*
X7684648Y-13652533D02*
X7675124Y-13690628D01*
X7675124Y-13690628D02*
X7665600Y-13709676D01*
X7665600Y-13709676D02*
X7656076Y-13719200D01*
X7656076Y-13719200D02*
X7637029Y-13728724D01*
X7637029Y-13728724D02*
X7617981Y-13728724D01*
X7617981Y-13728724D02*
X7598933Y-13719200D01*
X7598933Y-13719200D02*
X7589409Y-13709676D01*
X7589409Y-13709676D02*
X7579886Y-13690628D01*
X7579886Y-13690628D02*
X7570362Y-13652533D01*
X7570362Y-13652533D02*
X7570362Y-13604914D01*
X7570362Y-13604914D02*
X7579886Y-13566819D01*
X7579886Y-13566819D02*
X7589409Y-13547771D01*
X7589409Y-13547771D02*
X7598933Y-13538248D01*
X7598933Y-13538248D02*
X7617981Y-13528724D01*
X7770362Y-13728724D02*
X7770362Y-13595390D01*
X7770362Y-13614438D02*
X7779886Y-13604914D01*
X7779886Y-13604914D02*
X7798933Y-13595390D01*
X7798933Y-13595390D02*
X7827505Y-13595390D01*
X7827505Y-13595390D02*
X7846552Y-13604914D01*
X7846552Y-13604914D02*
X7856076Y-13623962D01*
X7856076Y-13623962D02*
X7856076Y-13728724D01*
X7856076Y-13623962D02*
X7865600Y-13604914D01*
X7865600Y-13604914D02*
X7884648Y-13595390D01*
X7884648Y-13595390D02*
X7913219Y-13595390D01*
X7913219Y-13595390D02*
X7932267Y-13604914D01*
X7932267Y-13604914D02*
X7941790Y-13623962D01*
X7941790Y-13623962D02*
X7941790Y-13728724D01*
X8037029Y-13728724D02*
X8037029Y-13595390D01*
X8037029Y-13614438D02*
X8046552Y-13604914D01*
X8046552Y-13604914D02*
X8065600Y-13595390D01*
X8065600Y-13595390D02*
X8094171Y-13595390D01*
X8094171Y-13595390D02*
X8113219Y-13604914D01*
X8113219Y-13604914D02*
X8122743Y-13623962D01*
X8122743Y-13623962D02*
X8122743Y-13728724D01*
X8122743Y-13623962D02*
X8132267Y-13604914D01*
X8132267Y-13604914D02*
X8151314Y-13595390D01*
X8151314Y-13595390D02*
X8179886Y-13595390D01*
X8179886Y-13595390D02*
X8198933Y-13604914D01*
X8198933Y-13604914D02*
X8208457Y-13623962D01*
X8208457Y-13623962D02*
X8208457Y-13728724D01*
X8598933Y-13519200D02*
X8427505Y-13776343D01*
X8856076Y-13528724D02*
X8875124Y-13528724D01*
X8875124Y-13528724D02*
X8894172Y-13538248D01*
X8894172Y-13538248D02*
X8903695Y-13547771D01*
X8903695Y-13547771D02*
X8913219Y-13566819D01*
X8913219Y-13566819D02*
X8922743Y-13604914D01*
X8922743Y-13604914D02*
X8922743Y-13652533D01*
X8922743Y-13652533D02*
X8913219Y-13690628D01*
X8913219Y-13690628D02*
X8903695Y-13709676D01*
X8903695Y-13709676D02*
X8894172Y-13719200D01*
X8894172Y-13719200D02*
X8875124Y-13728724D01*
X8875124Y-13728724D02*
X8856076Y-13728724D01*
X8856076Y-13728724D02*
X8837029Y-13719200D01*
X8837029Y-13719200D02*
X8827505Y-13709676D01*
X8827505Y-13709676D02*
X8817981Y-13690628D01*
X8817981Y-13690628D02*
X8808457Y-13652533D01*
X8808457Y-13652533D02*
X8808457Y-13604914D01*
X8808457Y-13604914D02*
X8817981Y-13566819D01*
X8817981Y-13566819D02*
X8827505Y-13547771D01*
X8827505Y-13547771D02*
X8837029Y-13538248D01*
X8837029Y-13538248D02*
X8856076Y-13528724D01*
X9008457Y-13709676D02*
X9017981Y-13719200D01*
X9017981Y-13719200D02*
X9008457Y-13728724D01*
X9008457Y-13728724D02*
X8998934Y-13719200D01*
X8998934Y-13719200D02*
X9008457Y-13709676D01*
X9008457Y-13709676D02*
X9008457Y-13728724D01*
X9141791Y-13528724D02*
X9160838Y-13528724D01*
X9160838Y-13528724D02*
X9179886Y-13538248D01*
X9179886Y-13538248D02*
X9189410Y-13547771D01*
X9189410Y-13547771D02*
X9198934Y-13566819D01*
X9198934Y-13566819D02*
X9208457Y-13604914D01*
X9208457Y-13604914D02*
X9208457Y-13652533D01*
X9208457Y-13652533D02*
X9198934Y-13690628D01*
X9198934Y-13690628D02*
X9189410Y-13709676D01*
X9189410Y-13709676D02*
X9179886Y-13719200D01*
X9179886Y-13719200D02*
X9160838Y-13728724D01*
X9160838Y-13728724D02*
X9141791Y-13728724D01*
X9141791Y-13728724D02*
X9122743Y-13719200D01*
X9122743Y-13719200D02*
X9113219Y-13709676D01*
X9113219Y-13709676D02*
X9103695Y-13690628D01*
X9103695Y-13690628D02*
X9094172Y-13652533D01*
X9094172Y-13652533D02*
X9094172Y-13604914D01*
X9094172Y-13604914D02*
X9103695Y-13566819D01*
X9103695Y-13566819D02*
X9113219Y-13547771D01*
X9113219Y-13547771D02*
X9122743Y-13538248D01*
X9122743Y-13538248D02*
X9141791Y-13528724D01*
X9398934Y-13728724D02*
X9284648Y-13728724D01*
X9341791Y-13728724D02*
X9341791Y-13528724D01*
X9341791Y-13528724D02*
X9322743Y-13557295D01*
X9322743Y-13557295D02*
X9303695Y-13576343D01*
X9303695Y-13576343D02*
X9284648Y-13585867D01*
X9579886Y-13528724D02*
X9484648Y-13528724D01*
X9484648Y-13528724D02*
X9475124Y-13623962D01*
X9475124Y-13623962D02*
X9484648Y-13614438D01*
X9484648Y-13614438D02*
X9503695Y-13604914D01*
X9503695Y-13604914D02*
X9551315Y-13604914D01*
X9551315Y-13604914D02*
X9570362Y-13614438D01*
X9570362Y-13614438D02*
X9579886Y-13623962D01*
X9579886Y-13623962D02*
X9589410Y-13643009D01*
X9589410Y-13643009D02*
X9589410Y-13690628D01*
X9589410Y-13690628D02*
X9579886Y-13709676D01*
X9579886Y-13709676D02*
X9570362Y-13719200D01*
X9570362Y-13719200D02*
X9551315Y-13728724D01*
X9551315Y-13728724D02*
X9503695Y-13728724D01*
X9503695Y-13728724D02*
X9484648Y-13719200D01*
X9484648Y-13719200D02*
X9475124Y-13709676D01*
X9656076Y-13528724D02*
X9789410Y-13528724D01*
X9789410Y-13528724D02*
X9703695Y-13728724D01*
X9856076Y-13528724D02*
X9856076Y-13566819D01*
X9932267Y-13528724D02*
X9932267Y-13566819D01*
X10227505Y-13804914D02*
X10217981Y-13795390D01*
X10217981Y-13795390D02*
X10198934Y-13766819D01*
X10198934Y-13766819D02*
X10189410Y-13747771D01*
X10189410Y-13747771D02*
X10179886Y-13719200D01*
X10179886Y-13719200D02*
X10170362Y-13671581D01*
X10170362Y-13671581D02*
X10170362Y-13633486D01*
X10170362Y-13633486D02*
X10179886Y-13585867D01*
X10179886Y-13585867D02*
X10189410Y-13557295D01*
X10189410Y-13557295D02*
X10198934Y-13538248D01*
X10198934Y-13538248D02*
X10217981Y-13509676D01*
X10217981Y-13509676D02*
X10227505Y-13500152D01*
X10332267Y-13614438D02*
X10313219Y-13604914D01*
X10313219Y-13604914D02*
X10303696Y-13595390D01*
X10303696Y-13595390D02*
X10294172Y-13576343D01*
X10294172Y-13576343D02*
X10294172Y-13566819D01*
X10294172Y-13566819D02*
X10303696Y-13547771D01*
X10303696Y-13547771D02*
X10313219Y-13538248D01*
X10313219Y-13538248D02*
X10332267Y-13528724D01*
X10332267Y-13528724D02*
X10370362Y-13528724D01*
X10370362Y-13528724D02*
X10389410Y-13538248D01*
X10389410Y-13538248D02*
X10398934Y-13547771D01*
X10398934Y-13547771D02*
X10408457Y-13566819D01*
X10408457Y-13566819D02*
X10408457Y-13576343D01*
X10408457Y-13576343D02*
X10398934Y-13595390D01*
X10398934Y-13595390D02*
X10389410Y-13604914D01*
X10389410Y-13604914D02*
X10370362Y-13614438D01*
X10370362Y-13614438D02*
X10332267Y-13614438D01*
X10332267Y-13614438D02*
X10313219Y-13623962D01*
X10313219Y-13623962D02*
X10303696Y-13633486D01*
X10303696Y-13633486D02*
X10294172Y-13652533D01*
X10294172Y-13652533D02*
X10294172Y-13690628D01*
X10294172Y-13690628D02*
X10303696Y-13709676D01*
X10303696Y-13709676D02*
X10313219Y-13719200D01*
X10313219Y-13719200D02*
X10332267Y-13728724D01*
X10332267Y-13728724D02*
X10370362Y-13728724D01*
X10370362Y-13728724D02*
X10389410Y-13719200D01*
X10389410Y-13719200D02*
X10398934Y-13709676D01*
X10398934Y-13709676D02*
X10408457Y-13690628D01*
X10408457Y-13690628D02*
X10408457Y-13652533D01*
X10408457Y-13652533D02*
X10398934Y-13633486D01*
X10398934Y-13633486D02*
X10389410Y-13623962D01*
X10389410Y-13623962D02*
X10370362Y-13614438D01*
X10532267Y-13528724D02*
X10551315Y-13528724D01*
X10551315Y-13528724D02*
X10570362Y-13538248D01*
X10570362Y-13538248D02*
X10579886Y-13547771D01*
X10579886Y-13547771D02*
X10589410Y-13566819D01*
X10589410Y-13566819D02*
X10598934Y-13604914D01*
X10598934Y-13604914D02*
X10598934Y-13652533D01*
X10598934Y-13652533D02*
X10589410Y-13690628D01*
X10589410Y-13690628D02*
X10579886Y-13709676D01*
X10579886Y-13709676D02*
X10570362Y-13719200D01*
X10570362Y-13719200D02*
X10551315Y-13728724D01*
X10551315Y-13728724D02*
X10532267Y-13728724D01*
X10532267Y-13728724D02*
X10513219Y-13719200D01*
X10513219Y-13719200D02*
X10503696Y-13709676D01*
X10503696Y-13709676D02*
X10494172Y-13690628D01*
X10494172Y-13690628D02*
X10484648Y-13652533D01*
X10484648Y-13652533D02*
X10484648Y-13604914D01*
X10484648Y-13604914D02*
X10494172Y-13566819D01*
X10494172Y-13566819D02*
X10503696Y-13547771D01*
X10503696Y-13547771D02*
X10513219Y-13538248D01*
X10513219Y-13538248D02*
X10532267Y-13528724D01*
X10837029Y-13728724D02*
X10837029Y-13528724D01*
X10922743Y-13728724D02*
X10922743Y-13623962D01*
X10922743Y-13623962D02*
X10913219Y-13604914D01*
X10913219Y-13604914D02*
X10894172Y-13595390D01*
X10894172Y-13595390D02*
X10865600Y-13595390D01*
X10865600Y-13595390D02*
X10846553Y-13604914D01*
X10846553Y-13604914D02*
X10837029Y-13614438D01*
X11046553Y-13728724D02*
X11027505Y-13719200D01*
X11027505Y-13719200D02*
X11017981Y-13709676D01*
X11017981Y-13709676D02*
X11008458Y-13690628D01*
X11008458Y-13690628D02*
X11008458Y-13633486D01*
X11008458Y-13633486D02*
X11017981Y-13614438D01*
X11017981Y-13614438D02*
X11027505Y-13604914D01*
X11027505Y-13604914D02*
X11046553Y-13595390D01*
X11046553Y-13595390D02*
X11075124Y-13595390D01*
X11075124Y-13595390D02*
X11094172Y-13604914D01*
X11094172Y-13604914D02*
X11103696Y-13614438D01*
X11103696Y-13614438D02*
X11113219Y-13633486D01*
X11113219Y-13633486D02*
X11113219Y-13690628D01*
X11113219Y-13690628D02*
X11103696Y-13709676D01*
X11103696Y-13709676D02*
X11094172Y-13719200D01*
X11094172Y-13719200D02*
X11075124Y-13728724D01*
X11075124Y-13728724D02*
X11046553Y-13728724D01*
X11227505Y-13728724D02*
X11208457Y-13719200D01*
X11208457Y-13719200D02*
X11198934Y-13700152D01*
X11198934Y-13700152D02*
X11198934Y-13528724D01*
X11379886Y-13719200D02*
X11360838Y-13728724D01*
X11360838Y-13728724D02*
X11322743Y-13728724D01*
X11322743Y-13728724D02*
X11303696Y-13719200D01*
X11303696Y-13719200D02*
X11294172Y-13700152D01*
X11294172Y-13700152D02*
X11294172Y-13623962D01*
X11294172Y-13623962D02*
X11303696Y-13604914D01*
X11303696Y-13604914D02*
X11322743Y-13595390D01*
X11322743Y-13595390D02*
X11360838Y-13595390D01*
X11360838Y-13595390D02*
X11379886Y-13604914D01*
X11379886Y-13604914D02*
X11389410Y-13623962D01*
X11389410Y-13623962D02*
X11389410Y-13643009D01*
X11389410Y-13643009D02*
X11294172Y-13662057D01*
X11465600Y-13719200D02*
X11484648Y-13728724D01*
X11484648Y-13728724D02*
X11522743Y-13728724D01*
X11522743Y-13728724D02*
X11541791Y-13719200D01*
X11541791Y-13719200D02*
X11551315Y-13700152D01*
X11551315Y-13700152D02*
X11551315Y-13690628D01*
X11551315Y-13690628D02*
X11541791Y-13671581D01*
X11541791Y-13671581D02*
X11522743Y-13662057D01*
X11522743Y-13662057D02*
X11494172Y-13662057D01*
X11494172Y-13662057D02*
X11475124Y-13652533D01*
X11475124Y-13652533D02*
X11465600Y-13633486D01*
X11465600Y-13633486D02*
X11465600Y-13623962D01*
X11465600Y-13623962D02*
X11475124Y-13604914D01*
X11475124Y-13604914D02*
X11494172Y-13595390D01*
X11494172Y-13595390D02*
X11522743Y-13595390D01*
X11522743Y-13595390D02*
X11541791Y-13604914D01*
X11617981Y-13804914D02*
X11627505Y-13795390D01*
X11627505Y-13795390D02*
X11646553Y-13766819D01*
X11646553Y-13766819D02*
X11656077Y-13747771D01*
X11656077Y-13747771D02*
X11665600Y-13719200D01*
X11665600Y-13719200D02*
X11675124Y-13671581D01*
X11675124Y-13671581D02*
X11675124Y-13633486D01*
X11675124Y-13633486D02*
X11665600Y-13585867D01*
X11665600Y-13585867D02*
X11656077Y-13557295D01*
X11656077Y-13557295D02*
X11646553Y-13538248D01*
X11646553Y-13538248D02*
X11627505Y-13509676D01*
X11627505Y-13509676D02*
X11617981Y-13500152D01*
D12*
X6665600Y-13900200D02*
G75*
G03*
X6665600Y-13900200I-50000J0D01*
G01*
D10*
X7017981Y-13992724D02*
X6903695Y-13992724D01*
X6960838Y-13992724D02*
X6960838Y-13792724D01*
X6960838Y-13792724D02*
X6941790Y-13821295D01*
X6941790Y-13821295D02*
X6922743Y-13840343D01*
X6922743Y-13840343D02*
X6903695Y-13849867D01*
X7103695Y-13973676D02*
X7113219Y-13983200D01*
X7113219Y-13983200D02*
X7103695Y-13992724D01*
X7103695Y-13992724D02*
X7094171Y-13983200D01*
X7094171Y-13983200D02*
X7103695Y-13973676D01*
X7103695Y-13973676D02*
X7103695Y-13992724D01*
X7237028Y-13792724D02*
X7256076Y-13792724D01*
X7256076Y-13792724D02*
X7275124Y-13802248D01*
X7275124Y-13802248D02*
X7284648Y-13811771D01*
X7284648Y-13811771D02*
X7294171Y-13830819D01*
X7294171Y-13830819D02*
X7303695Y-13868914D01*
X7303695Y-13868914D02*
X7303695Y-13916533D01*
X7303695Y-13916533D02*
X7294171Y-13954628D01*
X7294171Y-13954628D02*
X7284648Y-13973676D01*
X7284648Y-13973676D02*
X7275124Y-13983200D01*
X7275124Y-13983200D02*
X7256076Y-13992724D01*
X7256076Y-13992724D02*
X7237028Y-13992724D01*
X7237028Y-13992724D02*
X7217981Y-13983200D01*
X7217981Y-13983200D02*
X7208457Y-13973676D01*
X7208457Y-13973676D02*
X7198933Y-13954628D01*
X7198933Y-13954628D02*
X7189409Y-13916533D01*
X7189409Y-13916533D02*
X7189409Y-13868914D01*
X7189409Y-13868914D02*
X7198933Y-13830819D01*
X7198933Y-13830819D02*
X7208457Y-13811771D01*
X7208457Y-13811771D02*
X7217981Y-13802248D01*
X7217981Y-13802248D02*
X7237028Y-13792724D01*
X7427505Y-13792724D02*
X7446552Y-13792724D01*
X7446552Y-13792724D02*
X7465600Y-13802248D01*
X7465600Y-13802248D02*
X7475124Y-13811771D01*
X7475124Y-13811771D02*
X7484648Y-13830819D01*
X7484648Y-13830819D02*
X7494171Y-13868914D01*
X7494171Y-13868914D02*
X7494171Y-13916533D01*
X7494171Y-13916533D02*
X7484648Y-13954628D01*
X7484648Y-13954628D02*
X7475124Y-13973676D01*
X7475124Y-13973676D02*
X7465600Y-13983200D01*
X7465600Y-13983200D02*
X7446552Y-13992724D01*
X7446552Y-13992724D02*
X7427505Y-13992724D01*
X7427505Y-13992724D02*
X7408457Y-13983200D01*
X7408457Y-13983200D02*
X7398933Y-13973676D01*
X7398933Y-13973676D02*
X7389409Y-13954628D01*
X7389409Y-13954628D02*
X7379886Y-13916533D01*
X7379886Y-13916533D02*
X7379886Y-13868914D01*
X7379886Y-13868914D02*
X7389409Y-13830819D01*
X7389409Y-13830819D02*
X7398933Y-13811771D01*
X7398933Y-13811771D02*
X7408457Y-13802248D01*
X7408457Y-13802248D02*
X7427505Y-13792724D01*
X7617981Y-13792724D02*
X7637029Y-13792724D01*
X7637029Y-13792724D02*
X7656076Y-13802248D01*
X7656076Y-13802248D02*
X7665600Y-13811771D01*
X7665600Y-13811771D02*
X7675124Y-13830819D01*
X7675124Y-13830819D02*
X7684648Y-13868914D01*
X7684648Y-13868914D02*
X7684648Y-13916533D01*
X7684648Y-13916533D02*
X7675124Y-13954628D01*
X7675124Y-13954628D02*
X7665600Y-13973676D01*
X7665600Y-13973676D02*
X7656076Y-13983200D01*
X7656076Y-13983200D02*
X7637029Y-13992724D01*
X7637029Y-13992724D02*
X7617981Y-13992724D01*
X7617981Y-13992724D02*
X7598933Y-13983200D01*
X7598933Y-13983200D02*
X7589409Y-13973676D01*
X7589409Y-13973676D02*
X7579886Y-13954628D01*
X7579886Y-13954628D02*
X7570362Y-13916533D01*
X7570362Y-13916533D02*
X7570362Y-13868914D01*
X7570362Y-13868914D02*
X7579886Y-13830819D01*
X7579886Y-13830819D02*
X7589409Y-13811771D01*
X7589409Y-13811771D02*
X7598933Y-13802248D01*
X7598933Y-13802248D02*
X7617981Y-13792724D01*
X7770362Y-13992724D02*
X7770362Y-13859390D01*
X7770362Y-13878438D02*
X7779886Y-13868914D01*
X7779886Y-13868914D02*
X7798933Y-13859390D01*
X7798933Y-13859390D02*
X7827505Y-13859390D01*
X7827505Y-13859390D02*
X7846552Y-13868914D01*
X7846552Y-13868914D02*
X7856076Y-13887962D01*
X7856076Y-13887962D02*
X7856076Y-13992724D01*
X7856076Y-13887962D02*
X7865600Y-13868914D01*
X7865600Y-13868914D02*
X7884648Y-13859390D01*
X7884648Y-13859390D02*
X7913219Y-13859390D01*
X7913219Y-13859390D02*
X7932267Y-13868914D01*
X7932267Y-13868914D02*
X7941790Y-13887962D01*
X7941790Y-13887962D02*
X7941790Y-13992724D01*
X8037029Y-13992724D02*
X8037029Y-13859390D01*
X8037029Y-13878438D02*
X8046552Y-13868914D01*
X8046552Y-13868914D02*
X8065600Y-13859390D01*
X8065600Y-13859390D02*
X8094171Y-13859390D01*
X8094171Y-13859390D02*
X8113219Y-13868914D01*
X8113219Y-13868914D02*
X8122743Y-13887962D01*
X8122743Y-13887962D02*
X8122743Y-13992724D01*
X8122743Y-13887962D02*
X8132267Y-13868914D01*
X8132267Y-13868914D02*
X8151314Y-13859390D01*
X8151314Y-13859390D02*
X8179886Y-13859390D01*
X8179886Y-13859390D02*
X8198933Y-13868914D01*
X8198933Y-13868914D02*
X8208457Y-13887962D01*
X8208457Y-13887962D02*
X8208457Y-13992724D01*
X8598933Y-13783200D02*
X8427505Y-14040343D01*
X8856076Y-13792724D02*
X8875124Y-13792724D01*
X8875124Y-13792724D02*
X8894172Y-13802248D01*
X8894172Y-13802248D02*
X8903695Y-13811771D01*
X8903695Y-13811771D02*
X8913219Y-13830819D01*
X8913219Y-13830819D02*
X8922743Y-13868914D01*
X8922743Y-13868914D02*
X8922743Y-13916533D01*
X8922743Y-13916533D02*
X8913219Y-13954628D01*
X8913219Y-13954628D02*
X8903695Y-13973676D01*
X8903695Y-13973676D02*
X8894172Y-13983200D01*
X8894172Y-13983200D02*
X8875124Y-13992724D01*
X8875124Y-13992724D02*
X8856076Y-13992724D01*
X8856076Y-13992724D02*
X8837029Y-13983200D01*
X8837029Y-13983200D02*
X8827505Y-13973676D01*
X8827505Y-13973676D02*
X8817981Y-13954628D01*
X8817981Y-13954628D02*
X8808457Y-13916533D01*
X8808457Y-13916533D02*
X8808457Y-13868914D01*
X8808457Y-13868914D02*
X8817981Y-13830819D01*
X8817981Y-13830819D02*
X8827505Y-13811771D01*
X8827505Y-13811771D02*
X8837029Y-13802248D01*
X8837029Y-13802248D02*
X8856076Y-13792724D01*
X9008457Y-13973676D02*
X9017981Y-13983200D01*
X9017981Y-13983200D02*
X9008457Y-13992724D01*
X9008457Y-13992724D02*
X8998934Y-13983200D01*
X8998934Y-13983200D02*
X9008457Y-13973676D01*
X9008457Y-13973676D02*
X9008457Y-13992724D01*
X9141791Y-13792724D02*
X9160838Y-13792724D01*
X9160838Y-13792724D02*
X9179886Y-13802248D01*
X9179886Y-13802248D02*
X9189410Y-13811771D01*
X9189410Y-13811771D02*
X9198934Y-13830819D01*
X9198934Y-13830819D02*
X9208457Y-13868914D01*
X9208457Y-13868914D02*
X9208457Y-13916533D01*
X9208457Y-13916533D02*
X9198934Y-13954628D01*
X9198934Y-13954628D02*
X9189410Y-13973676D01*
X9189410Y-13973676D02*
X9179886Y-13983200D01*
X9179886Y-13983200D02*
X9160838Y-13992724D01*
X9160838Y-13992724D02*
X9141791Y-13992724D01*
X9141791Y-13992724D02*
X9122743Y-13983200D01*
X9122743Y-13983200D02*
X9113219Y-13973676D01*
X9113219Y-13973676D02*
X9103695Y-13954628D01*
X9103695Y-13954628D02*
X9094172Y-13916533D01*
X9094172Y-13916533D02*
X9094172Y-13868914D01*
X9094172Y-13868914D02*
X9103695Y-13830819D01*
X9103695Y-13830819D02*
X9113219Y-13811771D01*
X9113219Y-13811771D02*
X9122743Y-13802248D01*
X9122743Y-13802248D02*
X9141791Y-13792724D01*
X9275124Y-13792724D02*
X9398934Y-13792724D01*
X9398934Y-13792724D02*
X9332267Y-13868914D01*
X9332267Y-13868914D02*
X9360838Y-13868914D01*
X9360838Y-13868914D02*
X9379886Y-13878438D01*
X9379886Y-13878438D02*
X9389410Y-13887962D01*
X9389410Y-13887962D02*
X9398934Y-13907009D01*
X9398934Y-13907009D02*
X9398934Y-13954628D01*
X9398934Y-13954628D02*
X9389410Y-13973676D01*
X9389410Y-13973676D02*
X9379886Y-13983200D01*
X9379886Y-13983200D02*
X9360838Y-13992724D01*
X9360838Y-13992724D02*
X9303695Y-13992724D01*
X9303695Y-13992724D02*
X9284648Y-13983200D01*
X9284648Y-13983200D02*
X9275124Y-13973676D01*
X9494172Y-13992724D02*
X9532267Y-13992724D01*
X9532267Y-13992724D02*
X9551315Y-13983200D01*
X9551315Y-13983200D02*
X9560838Y-13973676D01*
X9560838Y-13973676D02*
X9579886Y-13945105D01*
X9579886Y-13945105D02*
X9589410Y-13907009D01*
X9589410Y-13907009D02*
X9589410Y-13830819D01*
X9589410Y-13830819D02*
X9579886Y-13811771D01*
X9579886Y-13811771D02*
X9570362Y-13802248D01*
X9570362Y-13802248D02*
X9551315Y-13792724D01*
X9551315Y-13792724D02*
X9513219Y-13792724D01*
X9513219Y-13792724D02*
X9494172Y-13802248D01*
X9494172Y-13802248D02*
X9484648Y-13811771D01*
X9484648Y-13811771D02*
X9475124Y-13830819D01*
X9475124Y-13830819D02*
X9475124Y-13878438D01*
X9475124Y-13878438D02*
X9484648Y-13897486D01*
X9484648Y-13897486D02*
X9494172Y-13907009D01*
X9494172Y-13907009D02*
X9513219Y-13916533D01*
X9513219Y-13916533D02*
X9551315Y-13916533D01*
X9551315Y-13916533D02*
X9570362Y-13907009D01*
X9570362Y-13907009D02*
X9579886Y-13897486D01*
X9579886Y-13897486D02*
X9589410Y-13878438D01*
X9760838Y-13859390D02*
X9760838Y-13992724D01*
X9713219Y-13783200D02*
X9665600Y-13926057D01*
X9665600Y-13926057D02*
X9789410Y-13926057D01*
X9856076Y-13792724D02*
X9856076Y-13830819D01*
X9932267Y-13792724D02*
X9932267Y-13830819D01*
X10227505Y-14068914D02*
X10217981Y-14059390D01*
X10217981Y-14059390D02*
X10198934Y-14030819D01*
X10198934Y-14030819D02*
X10189410Y-14011771D01*
X10189410Y-14011771D02*
X10179886Y-13983200D01*
X10179886Y-13983200D02*
X10170362Y-13935581D01*
X10170362Y-13935581D02*
X10170362Y-13897486D01*
X10170362Y-13897486D02*
X10179886Y-13849867D01*
X10179886Y-13849867D02*
X10189410Y-13821295D01*
X10189410Y-13821295D02*
X10198934Y-13802248D01*
X10198934Y-13802248D02*
X10217981Y-13773676D01*
X10217981Y-13773676D02*
X10227505Y-13764152D01*
X10332267Y-13878438D02*
X10313219Y-13868914D01*
X10313219Y-13868914D02*
X10303696Y-13859390D01*
X10303696Y-13859390D02*
X10294172Y-13840343D01*
X10294172Y-13840343D02*
X10294172Y-13830819D01*
X10294172Y-13830819D02*
X10303696Y-13811771D01*
X10303696Y-13811771D02*
X10313219Y-13802248D01*
X10313219Y-13802248D02*
X10332267Y-13792724D01*
X10332267Y-13792724D02*
X10370362Y-13792724D01*
X10370362Y-13792724D02*
X10389410Y-13802248D01*
X10389410Y-13802248D02*
X10398934Y-13811771D01*
X10398934Y-13811771D02*
X10408457Y-13830819D01*
X10408457Y-13830819D02*
X10408457Y-13840343D01*
X10408457Y-13840343D02*
X10398934Y-13859390D01*
X10398934Y-13859390D02*
X10389410Y-13868914D01*
X10389410Y-13868914D02*
X10370362Y-13878438D01*
X10370362Y-13878438D02*
X10332267Y-13878438D01*
X10332267Y-13878438D02*
X10313219Y-13887962D01*
X10313219Y-13887962D02*
X10303696Y-13897486D01*
X10303696Y-13897486D02*
X10294172Y-13916533D01*
X10294172Y-13916533D02*
X10294172Y-13954628D01*
X10294172Y-13954628D02*
X10303696Y-13973676D01*
X10303696Y-13973676D02*
X10313219Y-13983200D01*
X10313219Y-13983200D02*
X10332267Y-13992724D01*
X10332267Y-13992724D02*
X10370362Y-13992724D01*
X10370362Y-13992724D02*
X10389410Y-13983200D01*
X10389410Y-13983200D02*
X10398934Y-13973676D01*
X10398934Y-13973676D02*
X10408457Y-13954628D01*
X10408457Y-13954628D02*
X10408457Y-13916533D01*
X10408457Y-13916533D02*
X10398934Y-13897486D01*
X10398934Y-13897486D02*
X10389410Y-13887962D01*
X10389410Y-13887962D02*
X10370362Y-13878438D01*
X10646553Y-13992724D02*
X10646553Y-13792724D01*
X10732267Y-13992724D02*
X10732267Y-13887962D01*
X10732267Y-13887962D02*
X10722743Y-13868914D01*
X10722743Y-13868914D02*
X10703696Y-13859390D01*
X10703696Y-13859390D02*
X10675124Y-13859390D01*
X10675124Y-13859390D02*
X10656077Y-13868914D01*
X10656077Y-13868914D02*
X10646553Y-13878438D01*
X10856077Y-13992724D02*
X10837029Y-13983200D01*
X10837029Y-13983200D02*
X10827505Y-13973676D01*
X10827505Y-13973676D02*
X10817981Y-13954628D01*
X10817981Y-13954628D02*
X10817981Y-13897486D01*
X10817981Y-13897486D02*
X10827505Y-13878438D01*
X10827505Y-13878438D02*
X10837029Y-13868914D01*
X10837029Y-13868914D02*
X10856077Y-13859390D01*
X10856077Y-13859390D02*
X10884648Y-13859390D01*
X10884648Y-13859390D02*
X10903696Y-13868914D01*
X10903696Y-13868914D02*
X10913219Y-13878438D01*
X10913219Y-13878438D02*
X10922743Y-13897486D01*
X10922743Y-13897486D02*
X10922743Y-13954628D01*
X10922743Y-13954628D02*
X10913219Y-13973676D01*
X10913219Y-13973676D02*
X10903696Y-13983200D01*
X10903696Y-13983200D02*
X10884648Y-13992724D01*
X10884648Y-13992724D02*
X10856077Y-13992724D01*
X11037029Y-13992724D02*
X11017981Y-13983200D01*
X11017981Y-13983200D02*
X11008458Y-13964152D01*
X11008458Y-13964152D02*
X11008458Y-13792724D01*
X11189410Y-13983200D02*
X11170362Y-13992724D01*
X11170362Y-13992724D02*
X11132267Y-13992724D01*
X11132267Y-13992724D02*
X11113219Y-13983200D01*
X11113219Y-13983200D02*
X11103696Y-13964152D01*
X11103696Y-13964152D02*
X11103696Y-13887962D01*
X11103696Y-13887962D02*
X11113219Y-13868914D01*
X11113219Y-13868914D02*
X11132267Y-13859390D01*
X11132267Y-13859390D02*
X11170362Y-13859390D01*
X11170362Y-13859390D02*
X11189410Y-13868914D01*
X11189410Y-13868914D02*
X11198934Y-13887962D01*
X11198934Y-13887962D02*
X11198934Y-13907009D01*
X11198934Y-13907009D02*
X11103696Y-13926057D01*
X11275124Y-13983200D02*
X11294172Y-13992724D01*
X11294172Y-13992724D02*
X11332267Y-13992724D01*
X11332267Y-13992724D02*
X11351315Y-13983200D01*
X11351315Y-13983200D02*
X11360838Y-13964152D01*
X11360838Y-13964152D02*
X11360838Y-13954628D01*
X11360838Y-13954628D02*
X11351315Y-13935581D01*
X11351315Y-13935581D02*
X11332267Y-13926057D01*
X11332267Y-13926057D02*
X11303696Y-13926057D01*
X11303696Y-13926057D02*
X11284648Y-13916533D01*
X11284648Y-13916533D02*
X11275124Y-13897486D01*
X11275124Y-13897486D02*
X11275124Y-13887962D01*
X11275124Y-13887962D02*
X11284648Y-13868914D01*
X11284648Y-13868914D02*
X11303696Y-13859390D01*
X11303696Y-13859390D02*
X11332267Y-13859390D01*
X11332267Y-13859390D02*
X11351315Y-13868914D01*
X11427505Y-14068914D02*
X11437029Y-14059390D01*
X11437029Y-14059390D02*
X11456077Y-14030819D01*
X11456077Y-14030819D02*
X11465600Y-14011771D01*
X11465600Y-14011771D02*
X11475124Y-13983200D01*
X11475124Y-13983200D02*
X11484648Y-13935581D01*
X11484648Y-13935581D02*
X11484648Y-13897486D01*
X11484648Y-13897486D02*
X11475124Y-13849867D01*
X11475124Y-13849867D02*
X11465600Y-13821295D01*
X11465600Y-13821295D02*
X11456077Y-13802248D01*
X11456077Y-13802248D02*
X11437029Y-13773676D01*
X11437029Y-13773676D02*
X11427505Y-13764152D01*
X6565600Y-14064200D02*
X6565600Y-14264200D01*
X6465600Y-14164200D02*
X6665600Y-14164200D01*
X6903695Y-14075771D02*
X6913219Y-14066248D01*
X6913219Y-14066248D02*
X6932267Y-14056724D01*
X6932267Y-14056724D02*
X6979886Y-14056724D01*
X6979886Y-14056724D02*
X6998933Y-14066248D01*
X6998933Y-14066248D02*
X7008457Y-14075771D01*
X7008457Y-14075771D02*
X7017981Y-14094819D01*
X7017981Y-14094819D02*
X7017981Y-14113867D01*
X7017981Y-14113867D02*
X7008457Y-14142438D01*
X7008457Y-14142438D02*
X6894171Y-14256724D01*
X6894171Y-14256724D02*
X7017981Y-14256724D01*
X7103695Y-14237676D02*
X7113219Y-14247200D01*
X7113219Y-14247200D02*
X7103695Y-14256724D01*
X7103695Y-14256724D02*
X7094171Y-14247200D01*
X7094171Y-14247200D02*
X7103695Y-14237676D01*
X7103695Y-14237676D02*
X7103695Y-14256724D01*
X7189409Y-14075771D02*
X7198933Y-14066248D01*
X7198933Y-14066248D02*
X7217981Y-14056724D01*
X7217981Y-14056724D02*
X7265600Y-14056724D01*
X7265600Y-14056724D02*
X7284648Y-14066248D01*
X7284648Y-14066248D02*
X7294171Y-14075771D01*
X7294171Y-14075771D02*
X7303695Y-14094819D01*
X7303695Y-14094819D02*
X7303695Y-14113867D01*
X7303695Y-14113867D02*
X7294171Y-14142438D01*
X7294171Y-14142438D02*
X7179886Y-14256724D01*
X7179886Y-14256724D02*
X7303695Y-14256724D01*
X7427505Y-14056724D02*
X7446552Y-14056724D01*
X7446552Y-14056724D02*
X7465600Y-14066248D01*
X7465600Y-14066248D02*
X7475124Y-14075771D01*
X7475124Y-14075771D02*
X7484648Y-14094819D01*
X7484648Y-14094819D02*
X7494171Y-14132914D01*
X7494171Y-14132914D02*
X7494171Y-14180533D01*
X7494171Y-14180533D02*
X7484648Y-14218628D01*
X7484648Y-14218628D02*
X7475124Y-14237676D01*
X7475124Y-14237676D02*
X7465600Y-14247200D01*
X7465600Y-14247200D02*
X7446552Y-14256724D01*
X7446552Y-14256724D02*
X7427505Y-14256724D01*
X7427505Y-14256724D02*
X7408457Y-14247200D01*
X7408457Y-14247200D02*
X7398933Y-14237676D01*
X7398933Y-14237676D02*
X7389409Y-14218628D01*
X7389409Y-14218628D02*
X7379886Y-14180533D01*
X7379886Y-14180533D02*
X7379886Y-14132914D01*
X7379886Y-14132914D02*
X7389409Y-14094819D01*
X7389409Y-14094819D02*
X7398933Y-14075771D01*
X7398933Y-14075771D02*
X7408457Y-14066248D01*
X7408457Y-14066248D02*
X7427505Y-14056724D01*
X7617981Y-14056724D02*
X7637029Y-14056724D01*
X7637029Y-14056724D02*
X7656076Y-14066248D01*
X7656076Y-14066248D02*
X7665600Y-14075771D01*
X7665600Y-14075771D02*
X7675124Y-14094819D01*
X7675124Y-14094819D02*
X7684648Y-14132914D01*
X7684648Y-14132914D02*
X7684648Y-14180533D01*
X7684648Y-14180533D02*
X7675124Y-14218628D01*
X7675124Y-14218628D02*
X7665600Y-14237676D01*
X7665600Y-14237676D02*
X7656076Y-14247200D01*
X7656076Y-14247200D02*
X7637029Y-14256724D01*
X7637029Y-14256724D02*
X7617981Y-14256724D01*
X7617981Y-14256724D02*
X7598933Y-14247200D01*
X7598933Y-14247200D02*
X7589409Y-14237676D01*
X7589409Y-14237676D02*
X7579886Y-14218628D01*
X7579886Y-14218628D02*
X7570362Y-14180533D01*
X7570362Y-14180533D02*
X7570362Y-14132914D01*
X7570362Y-14132914D02*
X7579886Y-14094819D01*
X7579886Y-14094819D02*
X7589409Y-14075771D01*
X7589409Y-14075771D02*
X7598933Y-14066248D01*
X7598933Y-14066248D02*
X7617981Y-14056724D01*
X7770362Y-14256724D02*
X7770362Y-14123390D01*
X7770362Y-14142438D02*
X7779886Y-14132914D01*
X7779886Y-14132914D02*
X7798933Y-14123390D01*
X7798933Y-14123390D02*
X7827505Y-14123390D01*
X7827505Y-14123390D02*
X7846552Y-14132914D01*
X7846552Y-14132914D02*
X7856076Y-14151962D01*
X7856076Y-14151962D02*
X7856076Y-14256724D01*
X7856076Y-14151962D02*
X7865600Y-14132914D01*
X7865600Y-14132914D02*
X7884648Y-14123390D01*
X7884648Y-14123390D02*
X7913219Y-14123390D01*
X7913219Y-14123390D02*
X7932267Y-14132914D01*
X7932267Y-14132914D02*
X7941790Y-14151962D01*
X7941790Y-14151962D02*
X7941790Y-14256724D01*
X8037029Y-14256724D02*
X8037029Y-14123390D01*
X8037029Y-14142438D02*
X8046552Y-14132914D01*
X8046552Y-14132914D02*
X8065600Y-14123390D01*
X8065600Y-14123390D02*
X8094171Y-14123390D01*
X8094171Y-14123390D02*
X8113219Y-14132914D01*
X8113219Y-14132914D02*
X8122743Y-14151962D01*
X8122743Y-14151962D02*
X8122743Y-14256724D01*
X8122743Y-14151962D02*
X8132267Y-14132914D01*
X8132267Y-14132914D02*
X8151314Y-14123390D01*
X8151314Y-14123390D02*
X8179886Y-14123390D01*
X8179886Y-14123390D02*
X8198933Y-14132914D01*
X8198933Y-14132914D02*
X8208457Y-14151962D01*
X8208457Y-14151962D02*
X8208457Y-14256724D01*
X8598933Y-14047200D02*
X8427505Y-14304343D01*
X8856076Y-14056724D02*
X8875124Y-14056724D01*
X8875124Y-14056724D02*
X8894172Y-14066248D01*
X8894172Y-14066248D02*
X8903695Y-14075771D01*
X8903695Y-14075771D02*
X8913219Y-14094819D01*
X8913219Y-14094819D02*
X8922743Y-14132914D01*
X8922743Y-14132914D02*
X8922743Y-14180533D01*
X8922743Y-14180533D02*
X8913219Y-14218628D01*
X8913219Y-14218628D02*
X8903695Y-14237676D01*
X8903695Y-14237676D02*
X8894172Y-14247200D01*
X8894172Y-14247200D02*
X8875124Y-14256724D01*
X8875124Y-14256724D02*
X8856076Y-14256724D01*
X8856076Y-14256724D02*
X8837029Y-14247200D01*
X8837029Y-14247200D02*
X8827505Y-14237676D01*
X8827505Y-14237676D02*
X8817981Y-14218628D01*
X8817981Y-14218628D02*
X8808457Y-14180533D01*
X8808457Y-14180533D02*
X8808457Y-14132914D01*
X8808457Y-14132914D02*
X8817981Y-14094819D01*
X8817981Y-14094819D02*
X8827505Y-14075771D01*
X8827505Y-14075771D02*
X8837029Y-14066248D01*
X8837029Y-14066248D02*
X8856076Y-14056724D01*
X9008457Y-14237676D02*
X9017981Y-14247200D01*
X9017981Y-14247200D02*
X9008457Y-14256724D01*
X9008457Y-14256724D02*
X8998934Y-14247200D01*
X8998934Y-14247200D02*
X9008457Y-14237676D01*
X9008457Y-14237676D02*
X9008457Y-14256724D01*
X9141791Y-14056724D02*
X9160838Y-14056724D01*
X9160838Y-14056724D02*
X9179886Y-14066248D01*
X9179886Y-14066248D02*
X9189410Y-14075771D01*
X9189410Y-14075771D02*
X9198934Y-14094819D01*
X9198934Y-14094819D02*
X9208457Y-14132914D01*
X9208457Y-14132914D02*
X9208457Y-14180533D01*
X9208457Y-14180533D02*
X9198934Y-14218628D01*
X9198934Y-14218628D02*
X9189410Y-14237676D01*
X9189410Y-14237676D02*
X9179886Y-14247200D01*
X9179886Y-14247200D02*
X9160838Y-14256724D01*
X9160838Y-14256724D02*
X9141791Y-14256724D01*
X9141791Y-14256724D02*
X9122743Y-14247200D01*
X9122743Y-14247200D02*
X9113219Y-14237676D01*
X9113219Y-14237676D02*
X9103695Y-14218628D01*
X9103695Y-14218628D02*
X9094172Y-14180533D01*
X9094172Y-14180533D02*
X9094172Y-14132914D01*
X9094172Y-14132914D02*
X9103695Y-14094819D01*
X9103695Y-14094819D02*
X9113219Y-14075771D01*
X9113219Y-14075771D02*
X9122743Y-14066248D01*
X9122743Y-14066248D02*
X9141791Y-14056724D01*
X9322743Y-14142438D02*
X9303695Y-14132914D01*
X9303695Y-14132914D02*
X9294172Y-14123390D01*
X9294172Y-14123390D02*
X9284648Y-14104343D01*
X9284648Y-14104343D02*
X9284648Y-14094819D01*
X9284648Y-14094819D02*
X9294172Y-14075771D01*
X9294172Y-14075771D02*
X9303695Y-14066248D01*
X9303695Y-14066248D02*
X9322743Y-14056724D01*
X9322743Y-14056724D02*
X9360838Y-14056724D01*
X9360838Y-14056724D02*
X9379886Y-14066248D01*
X9379886Y-14066248D02*
X9389410Y-14075771D01*
X9389410Y-14075771D02*
X9398934Y-14094819D01*
X9398934Y-14094819D02*
X9398934Y-14104343D01*
X9398934Y-14104343D02*
X9389410Y-14123390D01*
X9389410Y-14123390D02*
X9379886Y-14132914D01*
X9379886Y-14132914D02*
X9360838Y-14142438D01*
X9360838Y-14142438D02*
X9322743Y-14142438D01*
X9322743Y-14142438D02*
X9303695Y-14151962D01*
X9303695Y-14151962D02*
X9294172Y-14161486D01*
X9294172Y-14161486D02*
X9284648Y-14180533D01*
X9284648Y-14180533D02*
X9284648Y-14218628D01*
X9284648Y-14218628D02*
X9294172Y-14237676D01*
X9294172Y-14237676D02*
X9303695Y-14247200D01*
X9303695Y-14247200D02*
X9322743Y-14256724D01*
X9322743Y-14256724D02*
X9360838Y-14256724D01*
X9360838Y-14256724D02*
X9379886Y-14247200D01*
X9379886Y-14247200D02*
X9389410Y-14237676D01*
X9389410Y-14237676D02*
X9398934Y-14218628D01*
X9398934Y-14218628D02*
X9398934Y-14180533D01*
X9398934Y-14180533D02*
X9389410Y-14161486D01*
X9389410Y-14161486D02*
X9379886Y-14151962D01*
X9379886Y-14151962D02*
X9360838Y-14142438D01*
X9570362Y-14056724D02*
X9532267Y-14056724D01*
X9532267Y-14056724D02*
X9513219Y-14066248D01*
X9513219Y-14066248D02*
X9503695Y-14075771D01*
X9503695Y-14075771D02*
X9484648Y-14104343D01*
X9484648Y-14104343D02*
X9475124Y-14142438D01*
X9475124Y-14142438D02*
X9475124Y-14218628D01*
X9475124Y-14218628D02*
X9484648Y-14237676D01*
X9484648Y-14237676D02*
X9494172Y-14247200D01*
X9494172Y-14247200D02*
X9513219Y-14256724D01*
X9513219Y-14256724D02*
X9551315Y-14256724D01*
X9551315Y-14256724D02*
X9570362Y-14247200D01*
X9570362Y-14247200D02*
X9579886Y-14237676D01*
X9579886Y-14237676D02*
X9589410Y-14218628D01*
X9589410Y-14218628D02*
X9589410Y-14171009D01*
X9589410Y-14171009D02*
X9579886Y-14151962D01*
X9579886Y-14151962D02*
X9570362Y-14142438D01*
X9570362Y-14142438D02*
X9551315Y-14132914D01*
X9551315Y-14132914D02*
X9513219Y-14132914D01*
X9513219Y-14132914D02*
X9494172Y-14142438D01*
X9494172Y-14142438D02*
X9484648Y-14151962D01*
X9484648Y-14151962D02*
X9475124Y-14171009D01*
X9760838Y-14056724D02*
X9722743Y-14056724D01*
X9722743Y-14056724D02*
X9703695Y-14066248D01*
X9703695Y-14066248D02*
X9694172Y-14075771D01*
X9694172Y-14075771D02*
X9675124Y-14104343D01*
X9675124Y-14104343D02*
X9665600Y-14142438D01*
X9665600Y-14142438D02*
X9665600Y-14218628D01*
X9665600Y-14218628D02*
X9675124Y-14237676D01*
X9675124Y-14237676D02*
X9684648Y-14247200D01*
X9684648Y-14247200D02*
X9703695Y-14256724D01*
X9703695Y-14256724D02*
X9741791Y-14256724D01*
X9741791Y-14256724D02*
X9760838Y-14247200D01*
X9760838Y-14247200D02*
X9770362Y-14237676D01*
X9770362Y-14237676D02*
X9779886Y-14218628D01*
X9779886Y-14218628D02*
X9779886Y-14171009D01*
X9779886Y-14171009D02*
X9770362Y-14151962D01*
X9770362Y-14151962D02*
X9760838Y-14142438D01*
X9760838Y-14142438D02*
X9741791Y-14132914D01*
X9741791Y-14132914D02*
X9703695Y-14132914D01*
X9703695Y-14132914D02*
X9684648Y-14142438D01*
X9684648Y-14142438D02*
X9675124Y-14151962D01*
X9675124Y-14151962D02*
X9665600Y-14171009D01*
X9856076Y-14056724D02*
X9856076Y-14094819D01*
X9932267Y-14056724D02*
X9932267Y-14094819D01*
X10227505Y-14332914D02*
X10217981Y-14323390D01*
X10217981Y-14323390D02*
X10198934Y-14294819D01*
X10198934Y-14294819D02*
X10189410Y-14275771D01*
X10189410Y-14275771D02*
X10179886Y-14247200D01*
X10179886Y-14247200D02*
X10170362Y-14199581D01*
X10170362Y-14199581D02*
X10170362Y-14161486D01*
X10170362Y-14161486D02*
X10179886Y-14113867D01*
X10179886Y-14113867D02*
X10189410Y-14085295D01*
X10189410Y-14085295D02*
X10198934Y-14066248D01*
X10198934Y-14066248D02*
X10217981Y-14037676D01*
X10217981Y-14037676D02*
X10227505Y-14028152D01*
X10294172Y-14075771D02*
X10303696Y-14066248D01*
X10303696Y-14066248D02*
X10322743Y-14056724D01*
X10322743Y-14056724D02*
X10370362Y-14056724D01*
X10370362Y-14056724D02*
X10389410Y-14066248D01*
X10389410Y-14066248D02*
X10398934Y-14075771D01*
X10398934Y-14075771D02*
X10408457Y-14094819D01*
X10408457Y-14094819D02*
X10408457Y-14113867D01*
X10408457Y-14113867D02*
X10398934Y-14142438D01*
X10398934Y-14142438D02*
X10284648Y-14256724D01*
X10284648Y-14256724D02*
X10408457Y-14256724D01*
X10646553Y-14256724D02*
X10646553Y-14056724D01*
X10732267Y-14256724D02*
X10732267Y-14151962D01*
X10732267Y-14151962D02*
X10722743Y-14132914D01*
X10722743Y-14132914D02*
X10703696Y-14123390D01*
X10703696Y-14123390D02*
X10675124Y-14123390D01*
X10675124Y-14123390D02*
X10656077Y-14132914D01*
X10656077Y-14132914D02*
X10646553Y-14142438D01*
X10856077Y-14256724D02*
X10837029Y-14247200D01*
X10837029Y-14247200D02*
X10827505Y-14237676D01*
X10827505Y-14237676D02*
X10817981Y-14218628D01*
X10817981Y-14218628D02*
X10817981Y-14161486D01*
X10817981Y-14161486D02*
X10827505Y-14142438D01*
X10827505Y-14142438D02*
X10837029Y-14132914D01*
X10837029Y-14132914D02*
X10856077Y-14123390D01*
X10856077Y-14123390D02*
X10884648Y-14123390D01*
X10884648Y-14123390D02*
X10903696Y-14132914D01*
X10903696Y-14132914D02*
X10913219Y-14142438D01*
X10913219Y-14142438D02*
X10922743Y-14161486D01*
X10922743Y-14161486D02*
X10922743Y-14218628D01*
X10922743Y-14218628D02*
X10913219Y-14237676D01*
X10913219Y-14237676D02*
X10903696Y-14247200D01*
X10903696Y-14247200D02*
X10884648Y-14256724D01*
X10884648Y-14256724D02*
X10856077Y-14256724D01*
X11037029Y-14256724D02*
X11017981Y-14247200D01*
X11017981Y-14247200D02*
X11008458Y-14228152D01*
X11008458Y-14228152D02*
X11008458Y-14056724D01*
X11189410Y-14247200D02*
X11170362Y-14256724D01*
X11170362Y-14256724D02*
X11132267Y-14256724D01*
X11132267Y-14256724D02*
X11113219Y-14247200D01*
X11113219Y-14247200D02*
X11103696Y-14228152D01*
X11103696Y-14228152D02*
X11103696Y-14151962D01*
X11103696Y-14151962D02*
X11113219Y-14132914D01*
X11113219Y-14132914D02*
X11132267Y-14123390D01*
X11132267Y-14123390D02*
X11170362Y-14123390D01*
X11170362Y-14123390D02*
X11189410Y-14132914D01*
X11189410Y-14132914D02*
X11198934Y-14151962D01*
X11198934Y-14151962D02*
X11198934Y-14171009D01*
X11198934Y-14171009D02*
X11103696Y-14190057D01*
X11275124Y-14247200D02*
X11294172Y-14256724D01*
X11294172Y-14256724D02*
X11332267Y-14256724D01*
X11332267Y-14256724D02*
X11351315Y-14247200D01*
X11351315Y-14247200D02*
X11360838Y-14228152D01*
X11360838Y-14228152D02*
X11360838Y-14218628D01*
X11360838Y-14218628D02*
X11351315Y-14199581D01*
X11351315Y-14199581D02*
X11332267Y-14190057D01*
X11332267Y-14190057D02*
X11303696Y-14190057D01*
X11303696Y-14190057D02*
X11284648Y-14180533D01*
X11284648Y-14180533D02*
X11275124Y-14161486D01*
X11275124Y-14161486D02*
X11275124Y-14151962D01*
X11275124Y-14151962D02*
X11284648Y-14132914D01*
X11284648Y-14132914D02*
X11303696Y-14123390D01*
X11303696Y-14123390D02*
X11332267Y-14123390D01*
X11332267Y-14123390D02*
X11351315Y-14132914D01*
X11427505Y-14332914D02*
X11437029Y-14323390D01*
X11437029Y-14323390D02*
X11456077Y-14294819D01*
X11456077Y-14294819D02*
X11465600Y-14275771D01*
X11465600Y-14275771D02*
X11475124Y-14247200D01*
X11475124Y-14247200D02*
X11484648Y-14199581D01*
X11484648Y-14199581D02*
X11484648Y-14161486D01*
X11484648Y-14161486D02*
X11475124Y-14113867D01*
X11475124Y-14113867D02*
X11465600Y-14085295D01*
X11465600Y-14085295D02*
X11456077Y-14066248D01*
X11456077Y-14066248D02*
X11437029Y-14037676D01*
X11437029Y-14037676D02*
X11427505Y-14028152D01*
M02*
