%TF.GenerationSoftware,KiCad,Pcbnew,7.0.1*%
%TF.CreationDate,2023-11-27T02:12:03-06:00*%
%TF.ProjectId,RoundScanner,526f756e-6453-4636-916e-6e65722e6b69,1.0*%
%TF.SameCoordinates,Original*%
%TF.FileFunction,Drillmap*%
%TF.FilePolarity,Positive*%
%FSLAX45Y45*%
G04 Gerber Fmt 4.5, Leading zero omitted, Abs format (unit mm)*
G04 Created by KiCad (PCBNEW 7.0.1) date 2023-11-27 02:12:03*
%MOMM*%
%LPD*%
G01*
G04 APERTURE LIST*
%ADD10C,0.200000*%
G04 APERTURE END LIST*
D10*
X6913219Y-13308724D02*
X6913219Y-13108724D01*
X6913219Y-13108724D02*
X6960838Y-13108724D01*
X6960838Y-13108724D02*
X6989409Y-13118248D01*
X6989409Y-13118248D02*
X7008457Y-13137295D01*
X7008457Y-13137295D02*
X7017981Y-13156343D01*
X7017981Y-13156343D02*
X7027505Y-13194438D01*
X7027505Y-13194438D02*
X7027505Y-13223009D01*
X7027505Y-13223009D02*
X7017981Y-13261105D01*
X7017981Y-13261105D02*
X7008457Y-13280152D01*
X7008457Y-13280152D02*
X6989409Y-13299200D01*
X6989409Y-13299200D02*
X6960838Y-13308724D01*
X6960838Y-13308724D02*
X6913219Y-13308724D01*
X7113219Y-13308724D02*
X7113219Y-13175390D01*
X7113219Y-13213486D02*
X7122743Y-13194438D01*
X7122743Y-13194438D02*
X7132267Y-13184914D01*
X7132267Y-13184914D02*
X7151314Y-13175390D01*
X7151314Y-13175390D02*
X7170362Y-13175390D01*
X7237028Y-13308724D02*
X7237028Y-13175390D01*
X7237028Y-13108724D02*
X7227505Y-13118248D01*
X7227505Y-13118248D02*
X7237028Y-13127771D01*
X7237028Y-13127771D02*
X7246552Y-13118248D01*
X7246552Y-13118248D02*
X7237028Y-13108724D01*
X7237028Y-13108724D02*
X7237028Y-13127771D01*
X7360838Y-13308724D02*
X7341790Y-13299200D01*
X7341790Y-13299200D02*
X7332267Y-13280152D01*
X7332267Y-13280152D02*
X7332267Y-13108724D01*
X7465600Y-13308724D02*
X7446552Y-13299200D01*
X7446552Y-13299200D02*
X7437028Y-13280152D01*
X7437028Y-13280152D02*
X7437028Y-13108724D01*
X7694171Y-13308724D02*
X7694171Y-13108724D01*
X7694171Y-13108724D02*
X7760838Y-13251581D01*
X7760838Y-13251581D02*
X7827505Y-13108724D01*
X7827505Y-13108724D02*
X7827505Y-13308724D01*
X8008457Y-13308724D02*
X8008457Y-13203962D01*
X8008457Y-13203962D02*
X7998933Y-13184914D01*
X7998933Y-13184914D02*
X7979886Y-13175390D01*
X7979886Y-13175390D02*
X7941790Y-13175390D01*
X7941790Y-13175390D02*
X7922743Y-13184914D01*
X8008457Y-13299200D02*
X7989409Y-13308724D01*
X7989409Y-13308724D02*
X7941790Y-13308724D01*
X7941790Y-13308724D02*
X7922743Y-13299200D01*
X7922743Y-13299200D02*
X7913219Y-13280152D01*
X7913219Y-13280152D02*
X7913219Y-13261105D01*
X7913219Y-13261105D02*
X7922743Y-13242057D01*
X7922743Y-13242057D02*
X7941790Y-13232533D01*
X7941790Y-13232533D02*
X7989409Y-13232533D01*
X7989409Y-13232533D02*
X8008457Y-13223009D01*
X8103695Y-13175390D02*
X8103695Y-13375390D01*
X8103695Y-13184914D02*
X8122743Y-13175390D01*
X8122743Y-13175390D02*
X8160838Y-13175390D01*
X8160838Y-13175390D02*
X8179886Y-13184914D01*
X8179886Y-13184914D02*
X8189409Y-13194438D01*
X8189409Y-13194438D02*
X8198933Y-13213486D01*
X8198933Y-13213486D02*
X8198933Y-13270628D01*
X8198933Y-13270628D02*
X8189409Y-13289676D01*
X8189409Y-13289676D02*
X8179886Y-13299200D01*
X8179886Y-13299200D02*
X8160838Y-13308724D01*
X8160838Y-13308724D02*
X8122743Y-13308724D01*
X8122743Y-13308724D02*
X8103695Y-13299200D01*
X8284648Y-13289676D02*
X8294171Y-13299200D01*
X8294171Y-13299200D02*
X8284648Y-13308724D01*
X8284648Y-13308724D02*
X8275124Y-13299200D01*
X8275124Y-13299200D02*
X8284648Y-13289676D01*
X8284648Y-13289676D02*
X8284648Y-13308724D01*
X8284648Y-13184914D02*
X8294171Y-13194438D01*
X8294171Y-13194438D02*
X8284648Y-13203962D01*
X8284648Y-13203962D02*
X8275124Y-13194438D01*
X8275124Y-13194438D02*
X8284648Y-13184914D01*
X8284648Y-13184914D02*
X8284648Y-13203962D01*
M02*
