M48
; DRILL file {KiCad 7.0.1} date Mon Nov 27 02:12:00 2023
; FORMAT={-:-/ absolute / inch / decimal}
; #@! TF.CreationDate,2023-11-27T02:12:00-06:00
; #@! TF.GenerationSoftware,Kicad,Pcbnew,7.0.1
; #@! TF.FileFunction,Plated,1,4,PTH
FMAT,2
INCH
; #@! TA.AperFunction,Plated,PTH,ViaDrill
T1C0.0157
; #@! TA.AperFunction,Plated,PTH,ComponentDrill
T2C0.0394
; #@! TA.AperFunction,Plated,PTH,ComponentDrill
T3C0.0866
%
G90
G05
T1
X2.7138Y-4.1326
X2.7355Y-4.5263
X2.7807Y-4.1366
X2.85Y-4.1405
X2.8566Y-4.3374
X2.8615Y-4.4082
X2.8693Y-3.8413
X2.8851Y-4.2901
X2.9323Y-3.8098
X2.9402Y-4.2954
X2.9796Y-4.4397
X3.0032Y-4.1326
X3.0744Y-4.5043
X3.1056Y-4.361
X3.1134Y-4.6602
X3.1398Y-4.9712
X3.1528Y-4.361
X3.1607Y-4.1484
X3.1865Y-4.8199
X3.1922Y-4.0775
X3.2315Y-4.6287
X3.2374Y-4.5421
X3.2674Y-3.9232
X3.2788Y-4.3216
X3.2788Y-4.8098
X3.2859Y-4.1791
X3.2945Y-3.6523
X3.32Y-3.495
X3.3339Y-4.4633
X3.345Y-4.58
X3.3654Y-4.2114
X3.3654Y-4.2901
X3.38Y-3.655
X3.3847Y-5.0421
X3.4284Y-3.6523
X3.4363Y-4.0145
X3.452Y-3.4791
X3.4606Y-4.5256
X3.4678Y-3.8256
X3.4914Y-3.8964
X3.4993Y-4.7704
X3.5157Y-4.9437
X3.5386Y-3.4948
X3.5701Y-3.8413
X3.5985Y-3.9419
X3.6Y-4.9122
X3.6174Y-4.5578
X3.6489Y-3.9437
X3.6646Y-3.8492
X3.6804Y-3.55
X3.704Y-4.5972
X3.7455Y-4.892
X3.7512Y-4.9655
X3.7512Y-5.0381
X3.775Y-3.505
X3.8544Y-3.8744
X3.8693Y-4.9673
X3.875Y-4.64
X3.8851Y-4.365
X3.9067Y-3.5047
X3.9101Y-4.5749
X3.9638Y-3.6759
X3.9874Y-4.5263
X3.9953Y-4.5815
X4.03Y-4.33
X4.0349Y-4.3889
X4.065Y-3.825
X4.0824Y-4.3753
X4.1213Y-4.4319
X4.1681Y-4.3641
X4.2Y-4.165
X4.21Y-4.54
X4.21Y-4.64
X4.215Y-4.225
X4.235Y-4.145
X4.2571Y-4.3165
X4.2582Y-4.2557
X4.315Y-4.395
X4.335Y-3.985
X4.345Y-4.065
T2
X2.8575Y-4.6754
X2.9282Y-4.7461
X2.9989Y-4.8168
X3.0697Y-4.8875
X4.0691Y-3.6543
X4.1265Y-3.7362
X4.1838Y-3.8181
X4.2412Y-3.9
T3
X2.9638Y-3.6838
X4.0662Y-4.7862
T0
M30
