%TF.GenerationSoftware,KiCad,Pcbnew,7.0.1*%
%TF.CreationDate,2023-11-27T02:11:57-06:00*%
%TF.ProjectId,RoundScanner,526f756e-6453-4636-916e-6e65722e6b69,1.0*%
%TF.SameCoordinates,Original*%
%TF.FileFunction,Copper,L3,Inr*%
%TF.FilePolarity,Positive*%
%FSLAX46Y46*%
G04 Gerber Fmt 4.6, Leading zero omitted, Abs format (unit mm)*
G04 Created by KiCad (PCBNEW 7.0.1) date 2023-11-27 02:11:57*
%MOMM*%
%LPD*%
G01*
G04 APERTURE LIST*
G04 Aperture macros list*
%AMHorizOval*
0 Thick line with rounded ends*
0 $1 width*
0 $2 $3 position (X,Y) of the first rounded end (center of the circle)*
0 $4 $5 position (X,Y) of the second rounded end (center of the circle)*
0 Add line between two ends*
20,1,$1,$2,$3,$4,$5,0*
0 Add two circle primitives to create the rounded ends*
1,1,$1,$2,$3*
1,1,$1,$4,$5*%
%AMRotRect*
0 Rectangle, with rotation*
0 The origin of the aperture is its center*
0 $1 length*
0 $2 width*
0 $3 Rotation angle, in degrees counterclockwise*
0 Add horizontal line*
21,1,$1,$2,0,0,$3*%
G04 Aperture macros list end*
%TA.AperFunction,ComponentPad*%
%ADD10RotRect,1.700000X1.700000X225.000000*%
%TD*%
%TA.AperFunction,ComponentPad*%
%ADD11HorizOval,1.700000X0.000000X0.000000X0.000000X0.000000X0*%
%TD*%
%TA.AperFunction,ComponentPad*%
%ADD12RotRect,1.700000X1.700000X35.000000*%
%TD*%
%TA.AperFunction,ComponentPad*%
%ADD13HorizOval,1.700000X0.000000X0.000000X0.000000X0.000000X0*%
%TD*%
%TA.AperFunction,ComponentPad*%
%ADD14C,3.500000*%
%TD*%
%TA.AperFunction,ViaPad*%
%ADD15C,0.800000*%
%TD*%
G04 APERTURE END LIST*
D10*
%TO.N,GND*%
%TO.C,J2*%
X72581202Y-118754786D03*
D11*
%TO.N,+3.3V*%
X74377253Y-120550837D03*
%TO.N,SDA*%
X76173304Y-122346888D03*
%TO.N,SCL*%
X77969356Y-124142940D03*
D12*
%TO.N,GND*%
X107726327Y-99059969D03*
D13*
%TO.N,/LED/LED_RESET*%
X106269443Y-96979323D03*
%TO.N,/MCU + IO/AS7341_INT*%
X104812559Y-94898677D03*
%TO.N,/ADC/DRDY_INT*%
X103355674Y-92818030D03*
D14*
%TO.N,GND*%
X75281000Y-93569000D03*
X103281000Y-121569000D03*
%TD*%
D15*
%TO.N,SDA*%
X74681000Y-109103635D03*
X102362000Y-109982000D03*
X78881000Y-110769000D03*
%TO.N,SCL*%
X75681000Y-112769000D03*
X102487287Y-111476921D03*
X80937250Y-122425250D03*
X73281000Y-108969000D03*
X91440000Y-124769000D03*
%TO.N,+1V8*%
X80081000Y-110769000D03*
X82231000Y-115369000D03*
%TO.N,/MCU + IO/AS7341_INT*%
X80281000Y-105369000D03*
%TO.N,/ADC/DRDY_INT*%
X72390000Y-105169000D03*
%TO.N,/ADC/AIN2+*%
X72881000Y-97569000D03*
X98425000Y-117856000D03*
%TO.N,/ADC/AIN2-*%
X87899533Y-114950467D03*
X74481000Y-96769000D03*
%TO.N,GND*%
X88881000Y-121169000D03*
X99231000Y-89019000D03*
X101281000Y-114969000D03*
X84963000Y-116332000D03*
X87681000Y-88369000D03*
X110109000Y-101219000D03*
X85852000Y-92837000D03*
X108131000Y-109639000D03*
X76281000Y-104969000D03*
X101481000Y-116369000D03*
X99316188Y-116202812D03*
X95885000Y-89027000D03*
X83281000Y-109769000D03*
X85481000Y-106969000D03*
X83281000Y-122169000D03*
X78089007Y-114408549D03*
X88081000Y-97169000D03*
X106934000Y-115316000D03*
X106934000Y-117856000D03*
X110363000Y-103251000D03*
X68931000Y-104969000D03*
X92681000Y-100169000D03*
X97901000Y-98409000D03*
X84328000Y-88773000D03*
X85481000Y-108969000D03*
X100681000Y-93369000D03*
X70631000Y-105069000D03*
X93081000Y-97769000D03*
X83461000Y-106149000D03*
X72681000Y-111969000D03*
X72556500Y-110169000D03*
X95281000Y-127969000D03*
X79081000Y-118369000D03*
X79751000Y-126269000D03*
X85971000Y-128069000D03*
X104681000Y-112569000D03*
%TO.N,Net-(C2-Pad2)*%
X87081000Y-92769000D03*
X103251000Y-97155000D03*
%TO.N,Net-(D2-A)*%
X95135000Y-124257513D03*
%TO.N,Net-(U5-~{OUT0})*%
X103692257Y-111133368D03*
X108157333Y-108095500D03*
%TO.N,Net-(U5-~{OUT1})*%
X107061000Y-107315000D03*
X98681000Y-110871000D03*
%TO.N,Net-(U5-~{OUT2})*%
X106680000Y-105791000D03*
X82991000Y-99649000D03*
%TO.N,Net-(U5-~{OUT3})*%
X107569000Y-105283000D03*
X87281000Y-101969000D03*
%TO.N,/LED/LED_RESET*%
X109601000Y-111633000D03*
%TO.N,+3.3V*%
X91881000Y-115769000D03*
X90681000Y-97569000D03*
X81081000Y-103569000D03*
X95281000Y-126122497D03*
X94081000Y-116769000D03*
X89298263Y-125569000D03*
X84681000Y-113369000D03*
X105871000Y-110849000D03*
X69481000Y-114969000D03*
X83681000Y-92769000D03*
X89881000Y-88769000D03*
X91402051Y-100123252D03*
X82081000Y-117569000D03*
%TO.N,VDDA*%
X88681000Y-98969000D03*
X93481000Y-90169000D03*
X98281000Y-126169000D03*
%TD*%
%TA.AperFunction,Conductor*%
%TO.N,+3.3V*%
G36*
X83662438Y-87553995D02*
G01*
X83708446Y-87599160D01*
X83726089Y-87661171D01*
X83710749Y-87723792D01*
X83666442Y-87770627D01*
X83601439Y-87810875D01*
X83437018Y-87960765D01*
X83302942Y-88138310D01*
X83203770Y-88337472D01*
X83142886Y-88551459D01*
X83142885Y-88551464D01*
X83122357Y-88773000D01*
X83142885Y-88994536D01*
X83142885Y-88994539D01*
X83142886Y-88994540D01*
X83203770Y-89208527D01*
X83264817Y-89331124D01*
X83302942Y-89407689D01*
X83437019Y-89585236D01*
X83601438Y-89735124D01*
X83601440Y-89735125D01*
X83601441Y-89735126D01*
X83790594Y-89852245D01*
X83790598Y-89852246D01*
X83790599Y-89852247D01*
X83998060Y-89932618D01*
X84216757Y-89973500D01*
X84439241Y-89973500D01*
X84439243Y-89973500D01*
X84657940Y-89932618D01*
X84865401Y-89852247D01*
X84865402Y-89852245D01*
X84865405Y-89852245D01*
X84959981Y-89793685D01*
X85054562Y-89735124D01*
X85218981Y-89585236D01*
X85353058Y-89407689D01*
X85452229Y-89208528D01*
X85513115Y-88994536D01*
X85533643Y-88773000D01*
X85513115Y-88551464D01*
X85452229Y-88337472D01*
X85353058Y-88138311D01*
X85218981Y-87960764D01*
X85054562Y-87810876D01*
X85025795Y-87793064D01*
X84989558Y-87770627D01*
X84945251Y-87723792D01*
X84929911Y-87661171D01*
X84947554Y-87599160D01*
X84993562Y-87553995D01*
X85055889Y-87537500D01*
X86551525Y-87537500D01*
X86617857Y-87556373D01*
X86664317Y-87607340D01*
X86676987Y-87675130D01*
X86658597Y-87722591D01*
X86661146Y-87723860D01*
X86556770Y-87933472D01*
X86498489Y-88138311D01*
X86495885Y-88147464D01*
X86475357Y-88369000D01*
X86495885Y-88590536D01*
X86495885Y-88590539D01*
X86495886Y-88590540D01*
X86556770Y-88804527D01*
X86638420Y-88968500D01*
X86655942Y-89003689D01*
X86790019Y-89181236D01*
X86954438Y-89331124D01*
X86954440Y-89331125D01*
X86954441Y-89331126D01*
X87143594Y-89448245D01*
X87143598Y-89448246D01*
X87143599Y-89448247D01*
X87351060Y-89528618D01*
X87569757Y-89569500D01*
X87792241Y-89569500D01*
X87792243Y-89569500D01*
X88010940Y-89528618D01*
X88218401Y-89448247D01*
X88218402Y-89448245D01*
X88218405Y-89448245D01*
X88366150Y-89356765D01*
X88407562Y-89331124D01*
X88571981Y-89181236D01*
X88706058Y-89003689D01*
X88805229Y-88804528D01*
X88866115Y-88590536D01*
X88886643Y-88369000D01*
X88866115Y-88147464D01*
X88805229Y-87933472D01*
X88706058Y-87734311D01*
X88700854Y-87723860D01*
X88703402Y-87722591D01*
X88685013Y-87675130D01*
X88697683Y-87607340D01*
X88744143Y-87556373D01*
X88810475Y-87537500D01*
X99506030Y-87537500D01*
X99566091Y-87552736D01*
X99821085Y-87691006D01*
X99866999Y-87733613D01*
X99886723Y-87793064D01*
X99885157Y-87801568D01*
X99889370Y-87797333D01*
X99951032Y-87779992D01*
X100013253Y-87795209D01*
X100317457Y-87960163D01*
X100322025Y-87962765D01*
X101120923Y-88440402D01*
X101125398Y-88443206D01*
X101790151Y-88879522D01*
X101903552Y-88953953D01*
X101907902Y-88956942D01*
X102600763Y-89454528D01*
X102663881Y-89499857D01*
X102668111Y-89503030D01*
X103400713Y-90077252D01*
X103404777Y-90080578D01*
X103767761Y-90390540D01*
X104112592Y-90685001D01*
X104116537Y-90688516D01*
X104514925Y-91058723D01*
X104798369Y-91322118D01*
X104802167Y-91325799D01*
X104886745Y-91411284D01*
X105207323Y-91735299D01*
X105456801Y-91987451D01*
X105460440Y-91991287D01*
X106086735Y-92679835D01*
X106090187Y-92683795D01*
X106346521Y-92990540D01*
X106687041Y-93398029D01*
X106690347Y-93402158D01*
X107256697Y-94140807D01*
X107259826Y-94145071D01*
X107268509Y-94157438D01*
X107536437Y-94539037D01*
X107794664Y-94906818D01*
X107797611Y-94911208D01*
X108271524Y-95650306D01*
X108300011Y-95694732D01*
X108302763Y-95699228D01*
X108569272Y-96155981D01*
X108771853Y-96503173D01*
X108774422Y-96507796D01*
X109209347Y-97330694D01*
X109211720Y-97335421D01*
X109611731Y-98175857D01*
X109613903Y-98180679D01*
X109978289Y-99037158D01*
X109980257Y-99042068D01*
X110151461Y-99496538D01*
X110258709Y-99781234D01*
X110283892Y-99848082D01*
X110291037Y-99907896D01*
X110269597Y-99964191D01*
X110224474Y-100004100D01*
X110165981Y-100018500D01*
X109997757Y-100018500D01*
X109851958Y-100045754D01*
X109779059Y-100059382D01*
X109571594Y-100139754D01*
X109382441Y-100256873D01*
X109218018Y-100406765D01*
X109083942Y-100584310D01*
X108984770Y-100783472D01*
X108923886Y-100997459D01*
X108923885Y-100997464D01*
X108903357Y-101219000D01*
X108923885Y-101440536D01*
X108923885Y-101440539D01*
X108923886Y-101440540D01*
X108984770Y-101654527D01*
X109031045Y-101747459D01*
X109083942Y-101853689D01*
X109218019Y-102031236D01*
X109382438Y-102181124D01*
X109462232Y-102230530D01*
X109503026Y-102271324D01*
X109521362Y-102326027D01*
X109513393Y-102383169D01*
X109480790Y-102430767D01*
X109472020Y-102438762D01*
X109337942Y-102616310D01*
X109238770Y-102815472D01*
X109177886Y-103029459D01*
X109177885Y-103029464D01*
X109157357Y-103251000D01*
X109177885Y-103472536D01*
X109177885Y-103472539D01*
X109177886Y-103472540D01*
X109238770Y-103686527D01*
X109279588Y-103768500D01*
X109337942Y-103885689D01*
X109472019Y-104063236D01*
X109636438Y-104213124D01*
X109636440Y-104213125D01*
X109636441Y-104213126D01*
X109825594Y-104330245D01*
X109825598Y-104330246D01*
X109825599Y-104330247D01*
X110033060Y-104410618D01*
X110251757Y-104451500D01*
X110474241Y-104451500D01*
X110474243Y-104451500D01*
X110692940Y-104410618D01*
X110900401Y-104330247D01*
X110900402Y-104330245D01*
X110900405Y-104330245D01*
X110994981Y-104271685D01*
X111089562Y-104213124D01*
X111150145Y-104157894D01*
X111210084Y-104127505D01*
X111277121Y-104132250D01*
X111332184Y-104170780D01*
X111359607Y-104232136D01*
X111393719Y-104457279D01*
X111394402Y-104462523D01*
X111495095Y-105387857D01*
X111495556Y-105393126D01*
X111557323Y-106321829D01*
X111557563Y-106327113D01*
X111580301Y-107257579D01*
X111580320Y-107262868D01*
X111563988Y-108193516D01*
X111563784Y-108198801D01*
X111508410Y-109127929D01*
X111507984Y-109133201D01*
X111413668Y-110059158D01*
X111413022Y-110064407D01*
X111279927Y-110985613D01*
X111279061Y-110990831D01*
X111107423Y-111905630D01*
X111106339Y-111910807D01*
X110896455Y-112817624D01*
X110895154Y-112822750D01*
X110647414Y-113719909D01*
X110645900Y-113724977D01*
X110360708Y-114611000D01*
X110358982Y-114616000D01*
X110036871Y-115489239D01*
X110034937Y-115494161D01*
X109676454Y-116353131D01*
X109674315Y-116357968D01*
X109280107Y-117201120D01*
X109277767Y-117205864D01*
X108848508Y-118031755D01*
X108845971Y-118036395D01*
X108382443Y-118843522D01*
X108379713Y-118848053D01*
X107882703Y-119635042D01*
X107879785Y-119639453D01*
X107350215Y-120404847D01*
X107347115Y-120409133D01*
X106785864Y-121151663D01*
X106782587Y-121155814D01*
X106190682Y-121874118D01*
X106187247Y-121878113D01*
X106094738Y-121981236D01*
X106021364Y-122063027D01*
X105967186Y-122098499D01*
X105902545Y-122102377D01*
X105844515Y-122073637D01*
X105808424Y-122019870D01*
X105803805Y-121955277D01*
X105810254Y-121921469D01*
X105816392Y-121889294D01*
X105836543Y-121569000D01*
X105834126Y-121530590D01*
X105816392Y-121248707D01*
X105808412Y-121206876D01*
X105756256Y-120933462D01*
X105657084Y-120628242D01*
X105520439Y-120337858D01*
X105348478Y-120066890D01*
X105143911Y-119819610D01*
X104909964Y-119599920D01*
X104909963Y-119599919D01*
X104650331Y-119411285D01*
X104369096Y-119256675D01*
X104098958Y-119149720D01*
X104070706Y-119138534D01*
X104070703Y-119138533D01*
X104070700Y-119138532D01*
X103759861Y-119058722D01*
X103441467Y-119018500D01*
X103441464Y-119018500D01*
X103120536Y-119018500D01*
X103120533Y-119018500D01*
X102802138Y-119058722D01*
X102491299Y-119138532D01*
X102192903Y-119256675D01*
X101911668Y-119411285D01*
X101652036Y-119599919D01*
X101418088Y-119819610D01*
X101213520Y-120066892D01*
X101041561Y-120337857D01*
X100904916Y-120628240D01*
X100805743Y-120933462D01*
X100745607Y-121248707D01*
X100725456Y-121568999D01*
X100745607Y-121889292D01*
X100805743Y-122204537D01*
X100904916Y-122509759D01*
X101033990Y-122784052D01*
X101041561Y-122800142D01*
X101213522Y-123071110D01*
X101295161Y-123169795D01*
X101418088Y-123318389D01*
X101652036Y-123538080D01*
X101911668Y-123726714D01*
X102084966Y-123821985D01*
X102192903Y-123881324D01*
X102491294Y-123999466D01*
X102633476Y-124035972D01*
X102802138Y-124079277D01*
X103120533Y-124119500D01*
X103120536Y-124119500D01*
X103441464Y-124119500D01*
X103441467Y-124119500D01*
X103575193Y-124102605D01*
X103633112Y-124095289D01*
X103696231Y-124103521D01*
X103747271Y-124141556D01*
X103773207Y-124199686D01*
X103767419Y-124263076D01*
X103731384Y-124315548D01*
X103523235Y-124495785D01*
X103519165Y-124499162D01*
X102790582Y-125078374D01*
X102786373Y-125081578D01*
X102034120Y-125629706D01*
X102029781Y-125632730D01*
X101255201Y-126148796D01*
X101250739Y-126151636D01*
X100455168Y-126634749D01*
X100450590Y-126637399D01*
X99635429Y-127086707D01*
X99630745Y-127089162D01*
X99167731Y-127319588D01*
X99109629Y-127332770D01*
X99051967Y-127317784D01*
X99007635Y-127277981D01*
X98986547Y-127222260D01*
X98993416Y-127163079D01*
X99026705Y-127113672D01*
X99171981Y-126981236D01*
X99306058Y-126803689D01*
X99405229Y-126604528D01*
X99466115Y-126390536D01*
X99486643Y-126169000D01*
X99466115Y-125947464D01*
X99405229Y-125733472D01*
X99306058Y-125534311D01*
X99171981Y-125356764D01*
X99007562Y-125206876D01*
X99007559Y-125206874D01*
X99007558Y-125206873D01*
X98818405Y-125089754D01*
X98610940Y-125009382D01*
X98392243Y-124968500D01*
X98169757Y-124968500D01*
X98051876Y-124990536D01*
X97951059Y-125009382D01*
X97743594Y-125089754D01*
X97554441Y-125206873D01*
X97444747Y-125306873D01*
X97411965Y-125336758D01*
X97390018Y-125356765D01*
X97255942Y-125534310D01*
X97156770Y-125733472D01*
X97101247Y-125928617D01*
X97095885Y-125947464D01*
X97075357Y-126169000D01*
X97095885Y-126390536D01*
X97095885Y-126390539D01*
X97095886Y-126390540D01*
X97156770Y-126604527D01*
X97189900Y-126671060D01*
X97255942Y-126803689D01*
X97390019Y-126981236D01*
X97554438Y-127131124D01*
X97554440Y-127131125D01*
X97554441Y-127131126D01*
X97743594Y-127248245D01*
X97743598Y-127248246D01*
X97743599Y-127248247D01*
X97951060Y-127328618D01*
X98169757Y-127369500D01*
X98392241Y-127369500D01*
X98392243Y-127369500D01*
X98558674Y-127338388D01*
X98619016Y-127341857D01*
X98670802Y-127373029D01*
X98702111Y-127424731D01*
X98705741Y-127485065D01*
X98680854Y-127540148D01*
X98633179Y-127577303D01*
X97942732Y-127885468D01*
X97937859Y-127887521D01*
X97072748Y-128230871D01*
X97067791Y-128232719D01*
X96615572Y-128390570D01*
X96547767Y-128394838D01*
X96487602Y-128363278D01*
X96452571Y-128305066D01*
X96452857Y-128237129D01*
X96466115Y-128190536D01*
X96486643Y-127969000D01*
X96466115Y-127747464D01*
X96405229Y-127533472D01*
X96306058Y-127334311D01*
X96171981Y-127156764D01*
X96007562Y-127006876D01*
X96007559Y-127006874D01*
X96007558Y-127006873D01*
X95818405Y-126889754D01*
X95610940Y-126809382D01*
X95580485Y-126803689D01*
X95392243Y-126768500D01*
X95169757Y-126768500D01*
X95023959Y-126795754D01*
X94951059Y-126809382D01*
X94743594Y-126889754D01*
X94554441Y-127006873D01*
X94472871Y-127081234D01*
X94418143Y-127131126D01*
X94390018Y-127156765D01*
X94255942Y-127334310D01*
X94156770Y-127533472D01*
X94095886Y-127747459D01*
X94095885Y-127747464D01*
X94075357Y-127969000D01*
X94095885Y-128190536D01*
X94095885Y-128190539D01*
X94095886Y-128190540D01*
X94156770Y-128404527D01*
X94255942Y-128603689D01*
X94390020Y-128781237D01*
X94441864Y-128828499D01*
X94477574Y-128885105D01*
X94479257Y-128952012D01*
X94446440Y-129010343D01*
X94388381Y-129043638D01*
X94386644Y-129044085D01*
X94381495Y-129045296D01*
X93471138Y-129239235D01*
X93465944Y-129240228D01*
X92548266Y-129395789D01*
X92543033Y-129396563D01*
X91619643Y-129513472D01*
X91614383Y-129514026D01*
X90686901Y-129592080D01*
X90681623Y-129592413D01*
X89751672Y-129631476D01*
X89746384Y-129631587D01*
X88815616Y-129631587D01*
X88810328Y-129631476D01*
X87880376Y-129592413D01*
X87875098Y-129592080D01*
X86947616Y-129514026D01*
X86942356Y-129513472D01*
X86398894Y-129444665D01*
X86337951Y-129419575D01*
X86298011Y-129367151D01*
X86290002Y-129301734D01*
X86316115Y-129241222D01*
X86369200Y-129202173D01*
X86508401Y-129148247D01*
X86508402Y-129148245D01*
X86508405Y-129148245D01*
X86676629Y-129044085D01*
X86697562Y-129031124D01*
X86861981Y-128881236D01*
X86996058Y-128703689D01*
X87095229Y-128504528D01*
X87156115Y-128290536D01*
X87176643Y-128069000D01*
X87156115Y-127847464D01*
X87095229Y-127633472D01*
X86996058Y-127434311D01*
X86861981Y-127256764D01*
X86697562Y-127106876D01*
X86697559Y-127106874D01*
X86697558Y-127106873D01*
X86508405Y-126989754D01*
X86300940Y-126909382D01*
X86270485Y-126903689D01*
X86082243Y-126868500D01*
X85859757Y-126868500D01*
X85713958Y-126895754D01*
X85641059Y-126909382D01*
X85433594Y-126989754D01*
X85244441Y-127106873D01*
X85189712Y-127156765D01*
X85108143Y-127231126D01*
X85080018Y-127256765D01*
X84945942Y-127434310D01*
X84846770Y-127633472D01*
X84814337Y-127747464D01*
X84785885Y-127847464D01*
X84765357Y-128069000D01*
X84785885Y-128290536D01*
X84785885Y-128290539D01*
X84785886Y-128290540D01*
X84846770Y-128504527D01*
X84911350Y-128634220D01*
X84945942Y-128703689D01*
X85080019Y-128881236D01*
X85243031Y-129029841D01*
X85277846Y-129083616D01*
X85281719Y-129147560D01*
X85253649Y-129205144D01*
X85200892Y-129241483D01*
X85137085Y-129247183D01*
X85096054Y-129240227D01*
X85090861Y-129239235D01*
X84180504Y-129045296D01*
X84175355Y-129044085D01*
X83273976Y-128812121D01*
X83268883Y-128810696D01*
X82378012Y-128541102D01*
X82372982Y-128539464D01*
X81494200Y-128232716D01*
X81489244Y-128230868D01*
X80624140Y-127887521D01*
X80619267Y-127885468D01*
X80097383Y-127652537D01*
X80050807Y-127616760D01*
X80025508Y-127563758D01*
X80026982Y-127505046D01*
X80054909Y-127453380D01*
X80103216Y-127419987D01*
X80288401Y-127348247D01*
X80288402Y-127348245D01*
X80288405Y-127348245D01*
X80436150Y-127256765D01*
X80477562Y-127231124D01*
X80641981Y-127081236D01*
X80776058Y-126903689D01*
X80875229Y-126704528D01*
X80936115Y-126490536D01*
X80956643Y-126269000D01*
X80936115Y-126047464D01*
X80875229Y-125833472D01*
X80776058Y-125634311D01*
X80641981Y-125456764D01*
X80477562Y-125306876D01*
X80477559Y-125306874D01*
X80477558Y-125306873D01*
X80288405Y-125189754D01*
X80080940Y-125109382D01*
X80080939Y-125109381D01*
X79862243Y-125068500D01*
X79639757Y-125068500D01*
X79577634Y-125080113D01*
X79520109Y-125077479D01*
X79469763Y-125049525D01*
X79437113Y-125002090D01*
X79428979Y-124945082D01*
X79442420Y-124904436D01*
X79440715Y-124903730D01*
X79496522Y-124769000D01*
X90234357Y-124769000D01*
X90254885Y-124990536D01*
X90254885Y-124990539D01*
X90254886Y-124990540D01*
X90315770Y-125204527D01*
X90370097Y-125313629D01*
X90414942Y-125403689D01*
X90549019Y-125581236D01*
X90713438Y-125731124D01*
X90713440Y-125731125D01*
X90713441Y-125731126D01*
X90902594Y-125848245D01*
X90902598Y-125848246D01*
X90902599Y-125848247D01*
X91110060Y-125928618D01*
X91328757Y-125969500D01*
X91551241Y-125969500D01*
X91551243Y-125969500D01*
X91769940Y-125928618D01*
X91977401Y-125848247D01*
X91977402Y-125848245D01*
X91977405Y-125848245D01*
X92124685Y-125757053D01*
X92166562Y-125731124D01*
X92330981Y-125581236D01*
X92465058Y-125403689D01*
X92564229Y-125204528D01*
X92625115Y-124990536D01*
X92645643Y-124769000D01*
X92625115Y-124547464D01*
X92564229Y-124333472D01*
X92526406Y-124257513D01*
X93929357Y-124257513D01*
X93949885Y-124479049D01*
X93949885Y-124479052D01*
X93949886Y-124479053D01*
X94010770Y-124693040D01*
X94048594Y-124769000D01*
X94109942Y-124892202D01*
X94244019Y-125069749D01*
X94408438Y-125219637D01*
X94408440Y-125219638D01*
X94408441Y-125219639D01*
X94597594Y-125336758D01*
X94597598Y-125336759D01*
X94597599Y-125336760D01*
X94805060Y-125417131D01*
X95023757Y-125458013D01*
X95246241Y-125458013D01*
X95246243Y-125458013D01*
X95464940Y-125417131D01*
X95672401Y-125336760D01*
X95672402Y-125336758D01*
X95672405Y-125336758D01*
X95766981Y-125278198D01*
X95861562Y-125219637D01*
X96025981Y-125069749D01*
X96160058Y-124892202D01*
X96259229Y-124693041D01*
X96320115Y-124479049D01*
X96340643Y-124257513D01*
X96320115Y-124035977D01*
X96259229Y-123821985D01*
X96160058Y-123622824D01*
X96025981Y-123445277D01*
X95861562Y-123295389D01*
X95861559Y-123295387D01*
X95861558Y-123295386D01*
X95672405Y-123178267D01*
X95464940Y-123097895D01*
X95464939Y-123097894D01*
X95246243Y-123057013D01*
X95023757Y-123057013D01*
X94948346Y-123071110D01*
X94805059Y-123097895D01*
X94597594Y-123178267D01*
X94408441Y-123295386D01*
X94244018Y-123445278D01*
X94109942Y-123622823D01*
X94010770Y-123821985D01*
X93959532Y-124002070D01*
X93949885Y-124035977D01*
X93929357Y-124257513D01*
X92526406Y-124257513D01*
X92465058Y-124134311D01*
X92330981Y-123956764D01*
X92166562Y-123806876D01*
X92166559Y-123806874D01*
X92166558Y-123806873D01*
X91977405Y-123689754D01*
X91769940Y-123609382D01*
X91769939Y-123609381D01*
X91551243Y-123568500D01*
X91328757Y-123568500D01*
X91182958Y-123595754D01*
X91110059Y-123609382D01*
X90902594Y-123689754D01*
X90713441Y-123806873D01*
X90549018Y-123956765D01*
X90414942Y-124134310D01*
X90315770Y-124333472D01*
X90268628Y-124499162D01*
X90254885Y-124547464D01*
X90234357Y-124769000D01*
X79496522Y-124769000D01*
X79527985Y-124693041D01*
X79543929Y-124654550D01*
X79604577Y-124401934D01*
X79624960Y-124142940D01*
X79604577Y-123883946D01*
X79543929Y-123631330D01*
X79444510Y-123391312D01*
X79308768Y-123169800D01*
X79308764Y-123169795D01*
X79140045Y-122972250D01*
X78942500Y-122803531D01*
X78942498Y-122803529D01*
X78942496Y-122803528D01*
X78720984Y-122667786D01*
X78720982Y-122667785D01*
X78480967Y-122568367D01*
X78228350Y-122507719D01*
X77969348Y-122487335D01*
X77963975Y-122487758D01*
X77910481Y-122480356D01*
X77864998Y-122451238D01*
X77848363Y-122425250D01*
X79731607Y-122425250D01*
X79752135Y-122646786D01*
X79752135Y-122646789D01*
X79752136Y-122646790D01*
X79813020Y-122860777D01*
X79868528Y-122972250D01*
X79912192Y-123059939D01*
X80046269Y-123237486D01*
X80210688Y-123387374D01*
X80210690Y-123387375D01*
X80210691Y-123387376D01*
X80399844Y-123504495D01*
X80399848Y-123504496D01*
X80399849Y-123504497D01*
X80607310Y-123584868D01*
X80826007Y-123625750D01*
X81048491Y-123625750D01*
X81048493Y-123625750D01*
X81267190Y-123584868D01*
X81474651Y-123504497D01*
X81474652Y-123504495D01*
X81474655Y-123504495D01*
X81657450Y-123391313D01*
X81663812Y-123387374D01*
X81828231Y-123237486D01*
X81962308Y-123059939D01*
X82061479Y-122860778D01*
X82065177Y-122853352D01*
X82106760Y-122805565D01*
X82166341Y-122784052D01*
X82228861Y-122794251D01*
X82278516Y-122833582D01*
X82390019Y-122981236D01*
X82554438Y-123131124D01*
X82554440Y-123131125D01*
X82554441Y-123131126D01*
X82743594Y-123248245D01*
X82743598Y-123248246D01*
X82743599Y-123248247D01*
X82951060Y-123328618D01*
X83169757Y-123369500D01*
X83392241Y-123369500D01*
X83392243Y-123369500D01*
X83610940Y-123328618D01*
X83818401Y-123248247D01*
X83818402Y-123248245D01*
X83818405Y-123248245D01*
X83945106Y-123169795D01*
X84007562Y-123131124D01*
X84171981Y-122981236D01*
X84306058Y-122803689D01*
X84405229Y-122604528D01*
X84466115Y-122390536D01*
X84486643Y-122169000D01*
X84466115Y-121947464D01*
X84405229Y-121733472D01*
X84306058Y-121534311D01*
X84171981Y-121356764D01*
X84007562Y-121206876D01*
X84007559Y-121206874D01*
X84007558Y-121206873D01*
X83946391Y-121169000D01*
X87675357Y-121169000D01*
X87695885Y-121390536D01*
X87695885Y-121390539D01*
X87695886Y-121390540D01*
X87756770Y-121604527D01*
X87855941Y-121803688D01*
X87879795Y-121835276D01*
X87990019Y-121981236D01*
X88154438Y-122131124D01*
X88154440Y-122131125D01*
X88154441Y-122131126D01*
X88343594Y-122248245D01*
X88343598Y-122248246D01*
X88343599Y-122248247D01*
X88551060Y-122328618D01*
X88769757Y-122369500D01*
X88992241Y-122369500D01*
X88992243Y-122369500D01*
X89210940Y-122328618D01*
X89418401Y-122248247D01*
X89418402Y-122248245D01*
X89418405Y-122248245D01*
X89546390Y-122169000D01*
X89607562Y-122131124D01*
X89771981Y-121981236D01*
X89887355Y-121828454D01*
X89906059Y-121803688D01*
X89969771Y-121675736D01*
X90005229Y-121604528D01*
X90066115Y-121390536D01*
X90086643Y-121169000D01*
X90066115Y-120947464D01*
X90005229Y-120733472D01*
X89906058Y-120534311D01*
X89771981Y-120356764D01*
X89607562Y-120206876D01*
X89607559Y-120206874D01*
X89607558Y-120206873D01*
X89418405Y-120089754D01*
X89210940Y-120009382D01*
X89196876Y-120006753D01*
X88992243Y-119968500D01*
X88769757Y-119968500D01*
X88623958Y-119995754D01*
X88551059Y-120009382D01*
X88343594Y-120089754D01*
X88154441Y-120206873D01*
X87990018Y-120356765D01*
X87855942Y-120534310D01*
X87756770Y-120733472D01*
X87695886Y-120947459D01*
X87695885Y-120947464D01*
X87675357Y-121169000D01*
X83946391Y-121169000D01*
X83818405Y-121089754D01*
X83610940Y-121009382D01*
X83524872Y-120993293D01*
X83392243Y-120968500D01*
X83169757Y-120968500D01*
X83037128Y-120993293D01*
X82951059Y-121009382D01*
X82743594Y-121089754D01*
X82554441Y-121206873D01*
X82390018Y-121356765D01*
X82255942Y-121534310D01*
X82153072Y-121740898D01*
X82111489Y-121788684D01*
X82051907Y-121810197D01*
X81989388Y-121799998D01*
X81939732Y-121760666D01*
X81875596Y-121675736D01*
X81828231Y-121613014D01*
X81663812Y-121463126D01*
X81663809Y-121463124D01*
X81663808Y-121463123D01*
X81474655Y-121346004D01*
X81267190Y-121265632D01*
X81267189Y-121265631D01*
X81048493Y-121224750D01*
X80826007Y-121224750D01*
X80697855Y-121248706D01*
X80607309Y-121265632D01*
X80399844Y-121346004D01*
X80210691Y-121463123D01*
X80046268Y-121613015D01*
X79912192Y-121790560D01*
X79813020Y-121989722D01*
X79752136Y-122203709D01*
X79752135Y-122203714D01*
X79731607Y-122425250D01*
X77848363Y-122425250D01*
X77835884Y-122405754D01*
X77828486Y-122352259D01*
X77828908Y-122346893D01*
X77827470Y-122328617D01*
X77808525Y-122087894D01*
X77747877Y-121835278D01*
X77648458Y-121595260D01*
X77512716Y-121373748D01*
X77498211Y-121356765D01*
X77343993Y-121176198D01*
X77146448Y-121007479D01*
X77146446Y-121007477D01*
X77146444Y-121007476D01*
X76924932Y-120871734D01*
X76924930Y-120871733D01*
X76684915Y-120772315D01*
X76432298Y-120711667D01*
X76173304Y-120691284D01*
X75914308Y-120711667D01*
X75892136Y-120716990D01*
X75833181Y-120716959D01*
X75780694Y-120690112D01*
X75746165Y-120642327D01*
X75737153Y-120584065D01*
X75739906Y-120550836D01*
X75721321Y-120326553D01*
X75666072Y-120108380D01*
X75575670Y-119902283D01*
X75500330Y-119786969D01*
X75500329Y-119786969D01*
X74377254Y-120910047D01*
X74377251Y-120910048D01*
X73611563Y-121675736D01*
X73631950Y-121691604D01*
X73829881Y-121798719D01*
X74042744Y-121871794D01*
X74264723Y-121908837D01*
X74421240Y-121908837D01*
X74476227Y-121921469D01*
X74520190Y-121956831D01*
X74544312Y-122007833D01*
X74543759Y-122064250D01*
X74538083Y-122087892D01*
X74517700Y-122346888D01*
X74538083Y-122605882D01*
X74598731Y-122858499D01*
X74645849Y-122972251D01*
X74698150Y-123098516D01*
X74833892Y-123320028D01*
X74833893Y-123320030D01*
X74833895Y-123320032D01*
X75002614Y-123517577D01*
X75125842Y-123622823D01*
X75200164Y-123686300D01*
X75421676Y-123822042D01*
X75661694Y-123921461D01*
X75914310Y-123982109D01*
X76173304Y-124002492D01*
X76173306Y-124002491D01*
X76173309Y-124002492D01*
X76178675Y-124002070D01*
X76232170Y-124009468D01*
X76277654Y-124038582D01*
X76306772Y-124084065D01*
X76314174Y-124137559D01*
X76313751Y-124142932D01*
X76334135Y-124401934D01*
X76394783Y-124654551D01*
X76442190Y-124769000D01*
X76494202Y-124894568D01*
X76629944Y-125116080D01*
X76629945Y-125116082D01*
X76629947Y-125116084D01*
X76798666Y-125313629D01*
X76984883Y-125472673D01*
X76996216Y-125482352D01*
X77217728Y-125618094D01*
X77457746Y-125717513D01*
X77710362Y-125778161D01*
X77969356Y-125798544D01*
X78228350Y-125778161D01*
X78228353Y-125778160D01*
X78228355Y-125778160D01*
X78463280Y-125721759D01*
X78528155Y-125723370D01*
X78583623Y-125757053D01*
X78614972Y-125813873D01*
X78613885Y-125878758D01*
X78572049Y-126025799D01*
X78565885Y-126047464D01*
X78545357Y-126269000D01*
X78565885Y-126490536D01*
X78565885Y-126490539D01*
X78565886Y-126490540D01*
X78617248Y-126671060D01*
X78619715Y-126729727D01*
X78595326Y-126783142D01*
X78549378Y-126819703D01*
X78491850Y-126831471D01*
X78435236Y-126815889D01*
X78233195Y-126704527D01*
X78111405Y-126637397D01*
X78106853Y-126634763D01*
X77311257Y-126151634D01*
X77306798Y-126148796D01*
X76532218Y-125632730D01*
X76527879Y-125629706D01*
X75775626Y-125081578D01*
X75771418Y-125078374D01*
X75042834Y-124499162D01*
X75038776Y-124495795D01*
X74335109Y-123886487D01*
X74331191Y-123882948D01*
X74329467Y-123881324D01*
X73889702Y-123466987D01*
X73653743Y-123244672D01*
X73649971Y-123240965D01*
X73090627Y-122667786D01*
X72999914Y-122574828D01*
X72996305Y-122570972D01*
X72921655Y-122487758D01*
X72374749Y-121878110D01*
X72371333Y-121874136D01*
X71779408Y-121155809D01*
X71776135Y-121151663D01*
X71667152Y-121007479D01*
X71214871Y-120409115D01*
X71211797Y-120404866D01*
X70682200Y-119639432D01*
X70679309Y-119635062D01*
X70182268Y-118848023D01*
X70180434Y-118844980D01*
X70578620Y-118844980D01*
X70586079Y-118877660D01*
X70618760Y-119020847D01*
X70670306Y-119127883D01*
X70697029Y-119183373D01*
X70697030Y-119183374D01*
X70781295Y-119289040D01*
X72046947Y-120554692D01*
X72046950Y-120554694D01*
X72152615Y-120638959D01*
X72258836Y-120690112D01*
X72315140Y-120717227D01*
X72386314Y-120733472D01*
X72491008Y-120757368D01*
X72671395Y-120757368D01*
X72671396Y-120757368D01*
X72847263Y-120717227D01*
X72860955Y-120710632D01*
X72914877Y-120698157D01*
X72968947Y-120709994D01*
X73012727Y-120743862D01*
X73037769Y-120793224D01*
X73088433Y-120993293D01*
X73178833Y-121199385D01*
X73254175Y-121314703D01*
X73254176Y-121314703D01*
X74377253Y-120191627D01*
X74377252Y-120191627D01*
X75142942Y-119425937D01*
X75142941Y-119425936D01*
X75122555Y-119410069D01*
X74924624Y-119302954D01*
X74711761Y-119229879D01*
X74628621Y-119216005D01*
X74575238Y-119193616D01*
X74537501Y-119149720D01*
X74523374Y-119093583D01*
X74535838Y-119037054D01*
X74543643Y-119020846D01*
X74544178Y-119018500D01*
X74583784Y-118844980D01*
X74583784Y-118664592D01*
X74543643Y-118488725D01*
X74485987Y-118369000D01*
X77875357Y-118369000D01*
X77895885Y-118590536D01*
X77895885Y-118590539D01*
X77895886Y-118590540D01*
X77956770Y-118804527D01*
X77978444Y-118848053D01*
X78055942Y-119003689D01*
X78190019Y-119181236D01*
X78354438Y-119331124D01*
X78354440Y-119331125D01*
X78354441Y-119331126D01*
X78543594Y-119448245D01*
X78543598Y-119448246D01*
X78543599Y-119448247D01*
X78751060Y-119528618D01*
X78969757Y-119569500D01*
X79192241Y-119569500D01*
X79192243Y-119569500D01*
X79410940Y-119528618D01*
X79618401Y-119448247D01*
X79618402Y-119448245D01*
X79618405Y-119448245D01*
X79712981Y-119389685D01*
X79807562Y-119331124D01*
X79971981Y-119181236D01*
X80106058Y-119003689D01*
X80205229Y-118804528D01*
X80266115Y-118590536D01*
X80286643Y-118369000D01*
X80266115Y-118147464D01*
X80205229Y-117933472D01*
X80166652Y-117856000D01*
X97219357Y-117856000D01*
X97239885Y-118077536D01*
X97239885Y-118077539D01*
X97239886Y-118077540D01*
X97300770Y-118291527D01*
X97352317Y-118395046D01*
X97399942Y-118490689D01*
X97534019Y-118668236D01*
X97698438Y-118818124D01*
X97698440Y-118818125D01*
X97698441Y-118818126D01*
X97887594Y-118935245D01*
X97887598Y-118935246D01*
X97887599Y-118935247D01*
X98095060Y-119015618D01*
X98313757Y-119056500D01*
X98536241Y-119056500D01*
X98536243Y-119056500D01*
X98754940Y-119015618D01*
X98962401Y-118935247D01*
X98962402Y-118935245D01*
X98962405Y-118935245D01*
X99056981Y-118876685D01*
X99151562Y-118818124D01*
X99315981Y-118668236D01*
X99450058Y-118490689D01*
X99549229Y-118291528D01*
X99610115Y-118077536D01*
X99630643Y-117856000D01*
X105728357Y-117856000D01*
X105748885Y-118077536D01*
X105748885Y-118077539D01*
X105748886Y-118077540D01*
X105809770Y-118291527D01*
X105861317Y-118395046D01*
X105908942Y-118490689D01*
X106043019Y-118668236D01*
X106207438Y-118818124D01*
X106207440Y-118818125D01*
X106207441Y-118818126D01*
X106396594Y-118935245D01*
X106396598Y-118935246D01*
X106396599Y-118935247D01*
X106604060Y-119015618D01*
X106822757Y-119056500D01*
X107045241Y-119056500D01*
X107045243Y-119056500D01*
X107263940Y-119015618D01*
X107471401Y-118935247D01*
X107471402Y-118935245D01*
X107471405Y-118935245D01*
X107565981Y-118876685D01*
X107660562Y-118818124D01*
X107824981Y-118668236D01*
X107959058Y-118490689D01*
X108058229Y-118291528D01*
X108119115Y-118077536D01*
X108139643Y-117856000D01*
X108119115Y-117634464D01*
X108058229Y-117420472D01*
X107959058Y-117221311D01*
X107824981Y-117043764D01*
X107660562Y-116893876D01*
X107660559Y-116893874D01*
X107660558Y-116893873D01*
X107471402Y-116776753D01*
X107282290Y-116703490D01*
X107233139Y-116669149D01*
X107205425Y-116615978D01*
X107205426Y-116556019D01*
X107233140Y-116502848D01*
X107282285Y-116468510D01*
X107471401Y-116395247D01*
X107471402Y-116395245D01*
X107471405Y-116395245D01*
X107574964Y-116331124D01*
X107660562Y-116278124D01*
X107824981Y-116128236D01*
X107959058Y-115950689D01*
X108058229Y-115751528D01*
X108119115Y-115537536D01*
X108139643Y-115316000D01*
X108119115Y-115094464D01*
X108058229Y-114880472D01*
X107959058Y-114681311D01*
X107824981Y-114503764D01*
X107660562Y-114353876D01*
X107660559Y-114353874D01*
X107660558Y-114353873D01*
X107471405Y-114236754D01*
X107263940Y-114156382D01*
X107263939Y-114156381D01*
X107045243Y-114115500D01*
X106822757Y-114115500D01*
X106701153Y-114138232D01*
X106604059Y-114156382D01*
X106396594Y-114236754D01*
X106207441Y-114353873D01*
X106043018Y-114503765D01*
X105908942Y-114681310D01*
X105809770Y-114880472D01*
X105748886Y-115094459D01*
X105748885Y-115094464D01*
X105728357Y-115316000D01*
X105748885Y-115537536D01*
X105748885Y-115537539D01*
X105748886Y-115537540D01*
X105809770Y-115751527D01*
X105881945Y-115896472D01*
X105908942Y-115950689D01*
X106043019Y-116128236D01*
X106207438Y-116278124D01*
X106207440Y-116278125D01*
X106207441Y-116278126D01*
X106396594Y-116395245D01*
X106396598Y-116395246D01*
X106396599Y-116395247D01*
X106585712Y-116468510D01*
X106634859Y-116502848D01*
X106662573Y-116556019D01*
X106662574Y-116615978D01*
X106634860Y-116669149D01*
X106585709Y-116703490D01*
X106396597Y-116776752D01*
X106207441Y-116893873D01*
X106043018Y-117043765D01*
X105908942Y-117221310D01*
X105809770Y-117420472D01*
X105748886Y-117634459D01*
X105748885Y-117634464D01*
X105728357Y-117856000D01*
X99630643Y-117856000D01*
X99610115Y-117634464D01*
X99575407Y-117512481D01*
X99573515Y-117451045D01*
X99600913Y-117396023D01*
X99651076Y-117360512D01*
X99853589Y-117282059D01*
X99853590Y-117282057D01*
X99853593Y-117282057D01*
X99970967Y-117209382D01*
X100042750Y-117164936D01*
X100207169Y-117015048D01*
X100237863Y-116974402D01*
X100287516Y-116935071D01*
X100350036Y-116924871D01*
X100409618Y-116946384D01*
X100451202Y-116994170D01*
X100455942Y-117003689D01*
X100590019Y-117181236D01*
X100754438Y-117331124D01*
X100754440Y-117331125D01*
X100754441Y-117331126D01*
X100943594Y-117448245D01*
X100943598Y-117448246D01*
X100943599Y-117448247D01*
X101151060Y-117528618D01*
X101369757Y-117569500D01*
X101592241Y-117569500D01*
X101592243Y-117569500D01*
X101810940Y-117528618D01*
X102018401Y-117448247D01*
X102018402Y-117448245D01*
X102018405Y-117448245D01*
X102122256Y-117383943D01*
X102207562Y-117331124D01*
X102371981Y-117181236D01*
X102506058Y-117003689D01*
X102605229Y-116804528D01*
X102666115Y-116590536D01*
X102686643Y-116369000D01*
X102666115Y-116147464D01*
X102605229Y-115933472D01*
X102506058Y-115734311D01*
X102393348Y-115585058D01*
X102368436Y-115520754D01*
X102381109Y-115452965D01*
X102405229Y-115404528D01*
X102466115Y-115190536D01*
X102486643Y-114969000D01*
X102466115Y-114747464D01*
X102405229Y-114533472D01*
X102306058Y-114334311D01*
X102171981Y-114156764D01*
X102007562Y-114006876D01*
X102007559Y-114006874D01*
X102007558Y-114006873D01*
X101818405Y-113889754D01*
X101610940Y-113809382D01*
X101610939Y-113809381D01*
X101392243Y-113768500D01*
X101169757Y-113768500D01*
X101050202Y-113790849D01*
X100951059Y-113809382D01*
X100743594Y-113889754D01*
X100554441Y-114006873D01*
X100390018Y-114156765D01*
X100255942Y-114334310D01*
X100156770Y-114533472D01*
X100099627Y-114734311D01*
X100095885Y-114747464D01*
X100086933Y-114844076D01*
X100075357Y-114969000D01*
X100080702Y-115026680D01*
X100068030Y-115094469D01*
X100021569Y-115145433D01*
X99955239Y-115164306D01*
X99888909Y-115145434D01*
X99853589Y-115123565D01*
X99646128Y-115043194D01*
X99427431Y-115002312D01*
X99204945Y-115002312D01*
X99074589Y-115026680D01*
X98986247Y-115043194D01*
X98778782Y-115123566D01*
X98589629Y-115240685D01*
X98425206Y-115390577D01*
X98291130Y-115568122D01*
X98191958Y-115767284D01*
X98131074Y-115981271D01*
X98131073Y-115981276D01*
X98110545Y-116202812D01*
X98131073Y-116424348D01*
X98131073Y-116424351D01*
X98131074Y-116424352D01*
X98165779Y-116546328D01*
X98167672Y-116607765D01*
X98140274Y-116662787D01*
X98090106Y-116698300D01*
X97887597Y-116776752D01*
X97698441Y-116893873D01*
X97534018Y-117043765D01*
X97399942Y-117221310D01*
X97300770Y-117420472D01*
X97239886Y-117634459D01*
X97239885Y-117634464D01*
X97219357Y-117856000D01*
X80166652Y-117856000D01*
X80106058Y-117734311D01*
X79971981Y-117556764D01*
X79807562Y-117406876D01*
X79807559Y-117406874D01*
X79807558Y-117406873D01*
X79618405Y-117289754D01*
X79410940Y-117209382D01*
X79192243Y-117168500D01*
X78969757Y-117168500D01*
X78823958Y-117195754D01*
X78751059Y-117209382D01*
X78543594Y-117289754D01*
X78354441Y-117406873D01*
X78190018Y-117556765D01*
X78055942Y-117734310D01*
X77956770Y-117933472D01*
X77895886Y-118147459D01*
X77895885Y-118147464D01*
X77875357Y-118369000D01*
X74485987Y-118369000D01*
X74465375Y-118326199D01*
X74381110Y-118220534D01*
X74381108Y-118220531D01*
X73115456Y-116954879D01*
X73009790Y-116870614D01*
X73009789Y-116870613D01*
X72941031Y-116837501D01*
X72847263Y-116792344D01*
X72704076Y-116759663D01*
X72671396Y-116752204D01*
X72491008Y-116752204D01*
X72463448Y-116758494D01*
X72315140Y-116792344D01*
X72152613Y-116870614D01*
X72046947Y-116954879D01*
X70781295Y-118220531D01*
X70697030Y-118326197D01*
X70618760Y-118488724D01*
X70595523Y-118590536D01*
X70578620Y-118664592D01*
X70578620Y-118844980D01*
X70180434Y-118844980D01*
X70179574Y-118843552D01*
X69716013Y-118036368D01*
X69713505Y-118031782D01*
X69284229Y-117205858D01*
X69281892Y-117201120D01*
X68887680Y-116357959D01*
X68885545Y-116353131D01*
X68876361Y-116331126D01*
X68527058Y-115494151D01*
X68525138Y-115489264D01*
X68203000Y-114615952D01*
X68201302Y-114611032D01*
X68136127Y-114408549D01*
X76883364Y-114408549D01*
X76903892Y-114630085D01*
X76903892Y-114630088D01*
X76903893Y-114630089D01*
X76964777Y-114844076D01*
X77043570Y-115002312D01*
X77063949Y-115043238D01*
X77198026Y-115220785D01*
X77362445Y-115370673D01*
X77362447Y-115370674D01*
X77362448Y-115370675D01*
X77551601Y-115487794D01*
X77551605Y-115487795D01*
X77551606Y-115487796D01*
X77759067Y-115568167D01*
X77977764Y-115609049D01*
X78200248Y-115609049D01*
X78200250Y-115609049D01*
X78418947Y-115568167D01*
X78626408Y-115487796D01*
X78626409Y-115487794D01*
X78626412Y-115487794D01*
X78760894Y-115404526D01*
X78815569Y-115370673D01*
X78817404Y-115369000D01*
X81025357Y-115369000D01*
X81045885Y-115590536D01*
X81045885Y-115590539D01*
X81045886Y-115590540D01*
X81106770Y-115804527D01*
X81152554Y-115896472D01*
X81205942Y-116003689D01*
X81340019Y-116181236D01*
X81504438Y-116331124D01*
X81504440Y-116331125D01*
X81504441Y-116331126D01*
X81693594Y-116448245D01*
X81693598Y-116448246D01*
X81693599Y-116448247D01*
X81901060Y-116528618D01*
X82119757Y-116569500D01*
X82342241Y-116569500D01*
X82342243Y-116569500D01*
X82560940Y-116528618D01*
X82768401Y-116448247D01*
X82768402Y-116448245D01*
X82768405Y-116448245D01*
X82914207Y-116357968D01*
X82956147Y-116332000D01*
X83757357Y-116332000D01*
X83777885Y-116553536D01*
X83777885Y-116553539D01*
X83777886Y-116553540D01*
X83838770Y-116767527D01*
X83890102Y-116870614D01*
X83937942Y-116966689D01*
X84072019Y-117144236D01*
X84236438Y-117294124D01*
X84236440Y-117294125D01*
X84236441Y-117294126D01*
X84425594Y-117411245D01*
X84425598Y-117411246D01*
X84425599Y-117411247D01*
X84633060Y-117491618D01*
X84851757Y-117532500D01*
X85074241Y-117532500D01*
X85074243Y-117532500D01*
X85292940Y-117491618D01*
X85500401Y-117411247D01*
X85500402Y-117411245D01*
X85500405Y-117411245D01*
X85629801Y-117331126D01*
X85689562Y-117294124D01*
X85853981Y-117144236D01*
X85988058Y-116966689D01*
X86087229Y-116767528D01*
X86148115Y-116553536D01*
X86168643Y-116332000D01*
X86148115Y-116110464D01*
X86087229Y-115896472D01*
X85988058Y-115697311D01*
X85853981Y-115519764D01*
X85689562Y-115369876D01*
X85689559Y-115369874D01*
X85689558Y-115369873D01*
X85500405Y-115252754D01*
X85292940Y-115172382D01*
X85290913Y-115172003D01*
X85074243Y-115131500D01*
X84851757Y-115131500D01*
X84705958Y-115158754D01*
X84633059Y-115172382D01*
X84425594Y-115252754D01*
X84236441Y-115369873D01*
X84072018Y-115519765D01*
X83937942Y-115697310D01*
X83838770Y-115896472D01*
X83777886Y-116110459D01*
X83777885Y-116110464D01*
X83757357Y-116332000D01*
X82956147Y-116332000D01*
X82957562Y-116331124D01*
X83121981Y-116181236D01*
X83256058Y-116003689D01*
X83355229Y-115804528D01*
X83416115Y-115590536D01*
X83436643Y-115369000D01*
X83416115Y-115147464D01*
X83360064Y-114950467D01*
X86693890Y-114950467D01*
X86714418Y-115172003D01*
X86714418Y-115172006D01*
X86714419Y-115172007D01*
X86775303Y-115385994D01*
X86866015Y-115568166D01*
X86874475Y-115585156D01*
X87008552Y-115762703D01*
X87172971Y-115912591D01*
X87172973Y-115912592D01*
X87172974Y-115912593D01*
X87362127Y-116029712D01*
X87362131Y-116029713D01*
X87362132Y-116029714D01*
X87569593Y-116110085D01*
X87788290Y-116150967D01*
X88010774Y-116150967D01*
X88010776Y-116150967D01*
X88229473Y-116110085D01*
X88436934Y-116029714D01*
X88436935Y-116029712D01*
X88436938Y-116029712D01*
X88564564Y-115950689D01*
X88626095Y-115912591D01*
X88790514Y-115762703D01*
X88924591Y-115585156D01*
X89023762Y-115385995D01*
X89084648Y-115172003D01*
X89105176Y-114950467D01*
X89084648Y-114728931D01*
X89023762Y-114514939D01*
X88924591Y-114315778D01*
X88790514Y-114138231D01*
X88626095Y-113988343D01*
X88626092Y-113988341D01*
X88626091Y-113988340D01*
X88436938Y-113871221D01*
X88229473Y-113790849D01*
X88010776Y-113749967D01*
X87788290Y-113749967D01*
X87660475Y-113773860D01*
X87569592Y-113790849D01*
X87362127Y-113871221D01*
X87172974Y-113988340D01*
X87008551Y-114138232D01*
X86874475Y-114315777D01*
X86775303Y-114514939D01*
X86727967Y-114681310D01*
X86714418Y-114728931D01*
X86693890Y-114950467D01*
X83360064Y-114950467D01*
X83355229Y-114933472D01*
X83256058Y-114734311D01*
X83121981Y-114556764D01*
X82957562Y-114406876D01*
X82957559Y-114406874D01*
X82957558Y-114406873D01*
X82768405Y-114289754D01*
X82560940Y-114209382D01*
X82560939Y-114209381D01*
X82342243Y-114168500D01*
X82119757Y-114168500D01*
X81973959Y-114195754D01*
X81901059Y-114209382D01*
X81693594Y-114289754D01*
X81504441Y-114406873D01*
X81340018Y-114556765D01*
X81205942Y-114734310D01*
X81106770Y-114933472D01*
X81045886Y-115147459D01*
X81045885Y-115147464D01*
X81025357Y-115369000D01*
X78817404Y-115369000D01*
X78979988Y-115220785D01*
X79114065Y-115043238D01*
X79213236Y-114844077D01*
X79274122Y-114630085D01*
X79294650Y-114408549D01*
X79274122Y-114187013D01*
X79213236Y-113973021D01*
X79114065Y-113773860D01*
X78979988Y-113596313D01*
X78815569Y-113446425D01*
X78815566Y-113446423D01*
X78815565Y-113446422D01*
X78626412Y-113329303D01*
X78418947Y-113248931D01*
X78200250Y-113208049D01*
X77977764Y-113208049D01*
X77831965Y-113235303D01*
X77759066Y-113248931D01*
X77551601Y-113329303D01*
X77362448Y-113446422D01*
X77198025Y-113596314D01*
X77063949Y-113773859D01*
X76964777Y-113973021D01*
X76912498Y-114156765D01*
X76903892Y-114187013D01*
X76883364Y-114408549D01*
X68136127Y-114408549D01*
X67916090Y-113724948D01*
X67914594Y-113719940D01*
X67666844Y-112822749D01*
X67665544Y-112817624D01*
X67455660Y-111910807D01*
X67454576Y-111905630D01*
X67347383Y-111334310D01*
X67282934Y-110990810D01*
X67282072Y-110985613D01*
X67281682Y-110982915D01*
X67164088Y-110169000D01*
X71350857Y-110169000D01*
X71371385Y-110390536D01*
X71371385Y-110390539D01*
X71371386Y-110390540D01*
X71432270Y-110604527D01*
X71531441Y-110803686D01*
X71531442Y-110803689D01*
X71665519Y-110981236D01*
X71699541Y-111012251D01*
X71732877Y-111042641D01*
X71766828Y-111093879D01*
X71772500Y-111155083D01*
X71748542Y-111211687D01*
X71655941Y-111334311D01*
X71556770Y-111533472D01*
X71495886Y-111747459D01*
X71495885Y-111747464D01*
X71475357Y-111969000D01*
X71495885Y-112190536D01*
X71495885Y-112190539D01*
X71495886Y-112190540D01*
X71556770Y-112404527D01*
X71627945Y-112547464D01*
X71655942Y-112603689D01*
X71790019Y-112781236D01*
X71954438Y-112931124D01*
X71954440Y-112931125D01*
X71954441Y-112931126D01*
X72143594Y-113048245D01*
X72143598Y-113048246D01*
X72143599Y-113048247D01*
X72351060Y-113128618D01*
X72569757Y-113169500D01*
X72792241Y-113169500D01*
X72792243Y-113169500D01*
X73010940Y-113128618D01*
X73218401Y-113048247D01*
X73218402Y-113048245D01*
X73218405Y-113048245D01*
X73312981Y-112989685D01*
X73407562Y-112931124D01*
X73571981Y-112781236D01*
X73581221Y-112769000D01*
X74475357Y-112769000D01*
X74495885Y-112990536D01*
X74495885Y-112990539D01*
X74495886Y-112990540D01*
X74556770Y-113204527D01*
X74558524Y-113208049D01*
X74655942Y-113403689D01*
X74790019Y-113581236D01*
X74954438Y-113731124D01*
X74954440Y-113731125D01*
X74954441Y-113731126D01*
X75143594Y-113848245D01*
X75143598Y-113848246D01*
X75143599Y-113848247D01*
X75351060Y-113928618D01*
X75569757Y-113969500D01*
X75792241Y-113969500D01*
X75792243Y-113969500D01*
X76010940Y-113928618D01*
X76218401Y-113848247D01*
X76218402Y-113848245D01*
X76218405Y-113848245D01*
X76312981Y-113789685D01*
X76407562Y-113731124D01*
X76571981Y-113581236D01*
X76706058Y-113403689D01*
X76805229Y-113204528D01*
X76866115Y-112990536D01*
X76886643Y-112769000D01*
X76866115Y-112547464D01*
X76805229Y-112333472D01*
X76706058Y-112134311D01*
X76571981Y-111956764D01*
X76407562Y-111806876D01*
X76407559Y-111806874D01*
X76407558Y-111806873D01*
X76218405Y-111689754D01*
X76010940Y-111609382D01*
X75997518Y-111606873D01*
X75792243Y-111568500D01*
X75569757Y-111568500D01*
X75423959Y-111595754D01*
X75351059Y-111609382D01*
X75143594Y-111689754D01*
X74954441Y-111806873D01*
X74790018Y-111956765D01*
X74655942Y-112134310D01*
X74556770Y-112333472D01*
X74524971Y-112445236D01*
X74495885Y-112547464D01*
X74475357Y-112769000D01*
X73581221Y-112769000D01*
X73706058Y-112603689D01*
X73805229Y-112404528D01*
X73866115Y-112190536D01*
X73886643Y-111969000D01*
X73866115Y-111747464D01*
X73805229Y-111533472D01*
X73706058Y-111334311D01*
X73571981Y-111156764D01*
X73504619Y-111095355D01*
X73470669Y-111044120D01*
X73464998Y-110982915D01*
X73488954Y-110926316D01*
X73581558Y-110803689D01*
X73598831Y-110769000D01*
X77675357Y-110769000D01*
X77695885Y-110990536D01*
X77695885Y-110990539D01*
X77695886Y-110990540D01*
X77756770Y-111204527D01*
X77831650Y-111354904D01*
X77855942Y-111403689D01*
X77990019Y-111581236D01*
X78154438Y-111731124D01*
X78154440Y-111731125D01*
X78154441Y-111731126D01*
X78343594Y-111848245D01*
X78343598Y-111848246D01*
X78343599Y-111848247D01*
X78551060Y-111928618D01*
X78769757Y-111969500D01*
X78992241Y-111969500D01*
X78992243Y-111969500D01*
X79210940Y-111928618D01*
X79418401Y-111848247D01*
X79418401Y-111848246D01*
X79429289Y-111844029D01*
X79430115Y-111846163D01*
X79481000Y-111831685D01*
X79531884Y-111846163D01*
X79532711Y-111844029D01*
X79543599Y-111848247D01*
X79751060Y-111928618D01*
X79969757Y-111969500D01*
X80192241Y-111969500D01*
X80192243Y-111969500D01*
X80410940Y-111928618D01*
X80618401Y-111848247D01*
X80618402Y-111848245D01*
X80618405Y-111848245D01*
X80766150Y-111756765D01*
X80807562Y-111731124D01*
X80971981Y-111581236D01*
X81106058Y-111403689D01*
X81205229Y-111204528D01*
X81266115Y-110990536D01*
X81286643Y-110769000D01*
X81266115Y-110547464D01*
X81205229Y-110333472D01*
X81106058Y-110134311D01*
X80971981Y-109956764D01*
X80807562Y-109806876D01*
X80807559Y-109806874D01*
X80807558Y-109806873D01*
X80746391Y-109769000D01*
X82075357Y-109769000D01*
X82095885Y-109990536D01*
X82095885Y-109990539D01*
X82095886Y-109990540D01*
X82156770Y-110204527D01*
X82247408Y-110386550D01*
X82255942Y-110403689D01*
X82390019Y-110581236D01*
X82554438Y-110731124D01*
X82554440Y-110731125D01*
X82554441Y-110731126D01*
X82743594Y-110848245D01*
X82743598Y-110848246D01*
X82743599Y-110848247D01*
X82951060Y-110928618D01*
X83169757Y-110969500D01*
X83392241Y-110969500D01*
X83392243Y-110969500D01*
X83610940Y-110928618D01*
X83759669Y-110871000D01*
X97475357Y-110871000D01*
X97495885Y-111092536D01*
X97495885Y-111092539D01*
X97495886Y-111092540D01*
X97556770Y-111306527D01*
X97609021Y-111411459D01*
X97655942Y-111505689D01*
X97790019Y-111683236D01*
X97954438Y-111833124D01*
X97954440Y-111833125D01*
X97954441Y-111833126D01*
X98143594Y-111950245D01*
X98143598Y-111950246D01*
X98143599Y-111950247D01*
X98351060Y-112030618D01*
X98569757Y-112071500D01*
X98792241Y-112071500D01*
X98792243Y-112071500D01*
X99010940Y-112030618D01*
X99218401Y-111950247D01*
X99218402Y-111950245D01*
X99218405Y-111950245D01*
X99312981Y-111891685D01*
X99407562Y-111833124D01*
X99571981Y-111683236D01*
X99706058Y-111505689D01*
X99805229Y-111306528D01*
X99866115Y-111092536D01*
X99886643Y-110871000D01*
X99866115Y-110649464D01*
X99805229Y-110435472D01*
X99706058Y-110236311D01*
X99571981Y-110058764D01*
X99487775Y-109982000D01*
X101156357Y-109982000D01*
X101176885Y-110203536D01*
X101176885Y-110203539D01*
X101176886Y-110203540D01*
X101237770Y-110417527D01*
X101336942Y-110616689D01*
X101433108Y-110744034D01*
X101458020Y-110808340D01*
X101445349Y-110876129D01*
X101363056Y-111041394D01*
X101302173Y-111255380D01*
X101302172Y-111255385D01*
X101281644Y-111476921D01*
X101302172Y-111698457D01*
X101302172Y-111698460D01*
X101302173Y-111698461D01*
X101363057Y-111912448D01*
X101442256Y-112071500D01*
X101462229Y-112111610D01*
X101596306Y-112289157D01*
X101760725Y-112439045D01*
X101760727Y-112439046D01*
X101760728Y-112439047D01*
X101949881Y-112556166D01*
X101949885Y-112556167D01*
X101949886Y-112556168D01*
X102157347Y-112636539D01*
X102376044Y-112677421D01*
X102598528Y-112677421D01*
X102598530Y-112677421D01*
X102817227Y-112636539D01*
X103024688Y-112556168D01*
X103024689Y-112556166D01*
X103024692Y-112556166D01*
X103130720Y-112490516D01*
X103213849Y-112439045D01*
X103272283Y-112385774D01*
X103324928Y-112357085D01*
X103384878Y-112355976D01*
X103438552Y-112382702D01*
X103473796Y-112431210D01*
X103482629Y-112490516D01*
X103476546Y-112556166D01*
X103475357Y-112569000D01*
X103495885Y-112790536D01*
X103495885Y-112790539D01*
X103495886Y-112790540D01*
X103556770Y-113004527D01*
X103618560Y-113128617D01*
X103655942Y-113203689D01*
X103790019Y-113381236D01*
X103954438Y-113531124D01*
X103954440Y-113531125D01*
X103954441Y-113531126D01*
X104143594Y-113648245D01*
X104143598Y-113648246D01*
X104143599Y-113648247D01*
X104351060Y-113728618D01*
X104569757Y-113769500D01*
X104792241Y-113769500D01*
X104792243Y-113769500D01*
X105010940Y-113728618D01*
X105218401Y-113648247D01*
X105218402Y-113648245D01*
X105218405Y-113648245D01*
X105326631Y-113581234D01*
X105407562Y-113531124D01*
X105571981Y-113381236D01*
X105706058Y-113203689D01*
X105805229Y-113004528D01*
X105866115Y-112790536D01*
X105886643Y-112569000D01*
X105866115Y-112347464D01*
X105805229Y-112133472D01*
X105706058Y-111934311D01*
X105571981Y-111756764D01*
X105407562Y-111606876D01*
X105407559Y-111606874D01*
X105407558Y-111606873D01*
X105218405Y-111489754D01*
X105114670Y-111449567D01*
X105010940Y-111409382D01*
X105010937Y-111409381D01*
X105010936Y-111409381D01*
X104987588Y-111405016D01*
X104931749Y-111379324D01*
X104894709Y-111330273D01*
X104885282Y-111269535D01*
X104886594Y-111255385D01*
X104897900Y-111133368D01*
X104877372Y-110911832D01*
X104816486Y-110697840D01*
X104717315Y-110498679D01*
X104583238Y-110321132D01*
X104418819Y-110171244D01*
X104418816Y-110171242D01*
X104418815Y-110171241D01*
X104229662Y-110054122D01*
X104022197Y-109973750D01*
X103803500Y-109932868D01*
X103677954Y-109932868D01*
X103618344Y-109917875D01*
X103572920Y-109876466D01*
X103552492Y-109818496D01*
X103547115Y-109760464D01*
X103492497Y-109568500D01*
X103486229Y-109546471D01*
X103436846Y-109447299D01*
X103387058Y-109347311D01*
X103252981Y-109169764D01*
X103088562Y-109019876D01*
X103088559Y-109019874D01*
X103088558Y-109019873D01*
X102899405Y-108902754D01*
X102691940Y-108822382D01*
X102691939Y-108822381D01*
X102473243Y-108781500D01*
X102250757Y-108781500D01*
X102115025Y-108806873D01*
X102032059Y-108822382D01*
X101824594Y-108902754D01*
X101635441Y-109019873D01*
X101471018Y-109169765D01*
X101336942Y-109347310D01*
X101237770Y-109546472D01*
X101183184Y-109738324D01*
X101176885Y-109760464D01*
X101156357Y-109982000D01*
X99487775Y-109982000D01*
X99407562Y-109908876D01*
X99407559Y-109908874D01*
X99407558Y-109908873D01*
X99218405Y-109791754D01*
X99010940Y-109711382D01*
X98917800Y-109693971D01*
X98792243Y-109670500D01*
X98569757Y-109670500D01*
X98444200Y-109693971D01*
X98351059Y-109711382D01*
X98143594Y-109791754D01*
X97954441Y-109908873D01*
X97790018Y-110058765D01*
X97655942Y-110236310D01*
X97556770Y-110435472D01*
X97508670Y-110604528D01*
X97495885Y-110649464D01*
X97481163Y-110808340D01*
X97477466Y-110848245D01*
X97475357Y-110871000D01*
X83759669Y-110871000D01*
X83818401Y-110848247D01*
X83818402Y-110848245D01*
X83818405Y-110848245D01*
X83946390Y-110769000D01*
X84007562Y-110731124D01*
X84171981Y-110581236D01*
X84306058Y-110403689D01*
X84405229Y-110204528D01*
X84466115Y-109990536D01*
X84470302Y-109945343D01*
X84495213Y-109881041D01*
X84550247Y-109839481D01*
X84618916Y-109833117D01*
X84680649Y-109863856D01*
X84754438Y-109931124D01*
X84754440Y-109931125D01*
X84754441Y-109931126D01*
X84943594Y-110048245D01*
X84943598Y-110048246D01*
X84943599Y-110048247D01*
X85151060Y-110128618D01*
X85369757Y-110169500D01*
X85592241Y-110169500D01*
X85592243Y-110169500D01*
X85810940Y-110128618D01*
X86018401Y-110048247D01*
X86018402Y-110048245D01*
X86018405Y-110048245D01*
X86166150Y-109956765D01*
X86207562Y-109931124D01*
X86371981Y-109781236D01*
X86506058Y-109603689D01*
X86605229Y-109404528D01*
X86666115Y-109190536D01*
X86686643Y-108969000D01*
X86666115Y-108747464D01*
X86605229Y-108533472D01*
X86506058Y-108334311D01*
X86371981Y-108156764D01*
X86268155Y-108062114D01*
X86231851Y-108003482D01*
X86231851Y-107934518D01*
X86268156Y-107875885D01*
X86341106Y-107809382D01*
X86371981Y-107781236D01*
X86506058Y-107603689D01*
X86605229Y-107404528D01*
X86666115Y-107190536D01*
X86686643Y-106969000D01*
X86666115Y-106747464D01*
X86605229Y-106533472D01*
X86506058Y-106334311D01*
X86371981Y-106156764D01*
X86207562Y-106006876D01*
X86207559Y-106006874D01*
X86207558Y-106006873D01*
X86018405Y-105889754D01*
X85810940Y-105809382D01*
X85712606Y-105791000D01*
X105474357Y-105791000D01*
X105494885Y-106012536D01*
X105494885Y-106012539D01*
X105494886Y-106012540D01*
X105555770Y-106226527D01*
X105606606Y-106328618D01*
X105654942Y-106425689D01*
X105789019Y-106603236D01*
X105914929Y-106718018D01*
X105946077Y-106762020D01*
X105955983Y-106815012D01*
X105942834Y-106867294D01*
X105936771Y-106879469D01*
X105875886Y-107093459D01*
X105875885Y-107093464D01*
X105855357Y-107315000D01*
X105875885Y-107536536D01*
X105875885Y-107536539D01*
X105875886Y-107536540D01*
X105936770Y-107750527D01*
X105952062Y-107781237D01*
X106035942Y-107949689D01*
X106170019Y-108127236D01*
X106334438Y-108277124D01*
X106334440Y-108277125D01*
X106334441Y-108277126D01*
X106523594Y-108394245D01*
X106523598Y-108394246D01*
X106523599Y-108394247D01*
X106731060Y-108474618D01*
X106949757Y-108515500D01*
X106949759Y-108515500D01*
X106961234Y-108517645D01*
X106960913Y-108519357D01*
X107013686Y-108534373D01*
X107060146Y-108585337D01*
X107132273Y-108730187D01*
X107165270Y-108773882D01*
X107187803Y-108822858D01*
X107187803Y-108876768D01*
X107165271Y-108925744D01*
X107105943Y-109004308D01*
X107006770Y-109203472D01*
X106945886Y-109417459D01*
X106945885Y-109417464D01*
X106925357Y-109639000D01*
X106945885Y-109860536D01*
X106945885Y-109860539D01*
X106945886Y-109860540D01*
X107006770Y-110074527D01*
X107060725Y-110182882D01*
X107105942Y-110273689D01*
X107240019Y-110451236D01*
X107404438Y-110601124D01*
X107404440Y-110601125D01*
X107404441Y-110601126D01*
X107593594Y-110718245D01*
X107593598Y-110718246D01*
X107593599Y-110718247D01*
X107801060Y-110798618D01*
X108019757Y-110839500D01*
X108242243Y-110839500D01*
X108242246Y-110839500D01*
X108370850Y-110815458D01*
X108450727Y-110800527D01*
X108510591Y-110803848D01*
X108562144Y-110834463D01*
X108593710Y-110885438D01*
X108598142Y-110945232D01*
X108580031Y-110987305D01*
X108581146Y-110987860D01*
X108476770Y-111197472D01*
X108416477Y-111409382D01*
X108415885Y-111411464D01*
X108395357Y-111633000D01*
X108415885Y-111854536D01*
X108415885Y-111854539D01*
X108415886Y-111854540D01*
X108476770Y-112068527D01*
X108509527Y-112134311D01*
X108575942Y-112267689D01*
X108710019Y-112445236D01*
X108874438Y-112595124D01*
X108874440Y-112595125D01*
X108874441Y-112595126D01*
X109063594Y-112712245D01*
X109063598Y-112712246D01*
X109063599Y-112712247D01*
X109271060Y-112792618D01*
X109489757Y-112833500D01*
X109712241Y-112833500D01*
X109712243Y-112833500D01*
X109930940Y-112792618D01*
X110138401Y-112712247D01*
X110138402Y-112712245D01*
X110138405Y-112712245D01*
X110260676Y-112636538D01*
X110327562Y-112595124D01*
X110491981Y-112445236D01*
X110626058Y-112267689D01*
X110725229Y-112068528D01*
X110786115Y-111854536D01*
X110806643Y-111633000D01*
X110786115Y-111411464D01*
X110725229Y-111197472D01*
X110626058Y-110998311D01*
X110491981Y-110820764D01*
X110327562Y-110670876D01*
X110327559Y-110670874D01*
X110327558Y-110670873D01*
X110138405Y-110553754D01*
X109930940Y-110473382D01*
X109920728Y-110471473D01*
X109712243Y-110432500D01*
X109489757Y-110432500D01*
X109281272Y-110471472D01*
X109221403Y-110468150D01*
X109169849Y-110437531D01*
X109138285Y-110386550D01*
X109133860Y-110326752D01*
X109151970Y-110284695D01*
X109150854Y-110284140D01*
X109208187Y-110169000D01*
X109255229Y-110074528D01*
X109316115Y-109860536D01*
X109336643Y-109639000D01*
X109316115Y-109417464D01*
X109255229Y-109203472D01*
X109156058Y-109004311D01*
X109123062Y-108960617D01*
X109100529Y-108911640D01*
X109100529Y-108857729D01*
X109123062Y-108808753D01*
X109182391Y-108730189D01*
X109281562Y-108531028D01*
X109342448Y-108317036D01*
X109362976Y-108095500D01*
X109342448Y-107873964D01*
X109281562Y-107659972D01*
X109182391Y-107460811D01*
X109048314Y-107283264D01*
X108883895Y-107133376D01*
X108883892Y-107133374D01*
X108883891Y-107133373D01*
X108694738Y-107016254D01*
X108487273Y-106935882D01*
X108487272Y-106935881D01*
X108268576Y-106895000D01*
X108268574Y-106895000D01*
X108257099Y-106892855D01*
X108257419Y-106891142D01*
X108204647Y-106876127D01*
X108158187Y-106825163D01*
X108086059Y-106680312D01*
X108005386Y-106573484D01*
X107982081Y-106520704D01*
X107984746Y-106463070D01*
X108012821Y-106412666D01*
X108060420Y-106380060D01*
X108084994Y-106370540D01*
X108106401Y-106362247D01*
X108106402Y-106362245D01*
X108106405Y-106362245D01*
X108256193Y-106269500D01*
X108295562Y-106245124D01*
X108459981Y-106095236D01*
X108594058Y-105917689D01*
X108594057Y-105917689D01*
X108594059Y-105917688D01*
X108693229Y-105718527D01*
X108754115Y-105504536D01*
X108774643Y-105283000D01*
X108754115Y-105061464D01*
X108693229Y-104847472D01*
X108594058Y-104648311D01*
X108459981Y-104470764D01*
X108295562Y-104320876D01*
X108295559Y-104320874D01*
X108295558Y-104320873D01*
X108106405Y-104203754D01*
X107898940Y-104123382D01*
X107882517Y-104120312D01*
X107680243Y-104082500D01*
X107457757Y-104082500D01*
X107324721Y-104107369D01*
X107239059Y-104123382D01*
X107031594Y-104203754D01*
X106842441Y-104320873D01*
X106678018Y-104470765D01*
X106620112Y-104547445D01*
X106585893Y-104578640D01*
X106542715Y-104595367D01*
X106350064Y-104631380D01*
X106142594Y-104711754D01*
X105953441Y-104828873D01*
X105789018Y-104978765D01*
X105654942Y-105156310D01*
X105555770Y-105355472D01*
X105510577Y-105514311D01*
X105494885Y-105569464D01*
X105474357Y-105791000D01*
X85712606Y-105791000D01*
X85592243Y-105768500D01*
X85369757Y-105768500D01*
X85249394Y-105791000D01*
X85151059Y-105809382D01*
X84943598Y-105889753D01*
X84823409Y-105964171D01*
X84768704Y-105982506D01*
X84711562Y-105974534D01*
X84663964Y-105941928D01*
X84635889Y-105891524D01*
X84635385Y-105889754D01*
X84586668Y-105718528D01*
X84585229Y-105713471D01*
X84530981Y-105604528D01*
X84486058Y-105514311D01*
X84351981Y-105336764D01*
X84187562Y-105186876D01*
X84187559Y-105186874D01*
X84187558Y-105186873D01*
X83998405Y-105069754D01*
X83790940Y-104989382D01*
X83572243Y-104948500D01*
X83349757Y-104948500D01*
X83240093Y-104969000D01*
X83131059Y-104989382D01*
X82923594Y-105069754D01*
X82734441Y-105186873D01*
X82570018Y-105336765D01*
X82435942Y-105514310D01*
X82336770Y-105713472D01*
X82278666Y-105917689D01*
X82275885Y-105927464D01*
X82255357Y-106149000D01*
X82275885Y-106370536D01*
X82275885Y-106370539D01*
X82275886Y-106370540D01*
X82336770Y-106584527D01*
X82417901Y-106747459D01*
X82435942Y-106783689D01*
X82570019Y-106961236D01*
X82734438Y-107111124D01*
X82734440Y-107111125D01*
X82734441Y-107111126D01*
X82923594Y-107228245D01*
X82923598Y-107228246D01*
X82923599Y-107228247D01*
X83131060Y-107308618D01*
X83349757Y-107349500D01*
X83572241Y-107349500D01*
X83572243Y-107349500D01*
X83790940Y-107308618D01*
X83998401Y-107228247D01*
X84118589Y-107153829D01*
X84173294Y-107135495D01*
X84230436Y-107143465D01*
X84278035Y-107176071D01*
X84306110Y-107226475D01*
X84356771Y-107404529D01*
X84423278Y-107538091D01*
X84455942Y-107603689D01*
X84590019Y-107781236D01*
X84691731Y-107873959D01*
X84693844Y-107875885D01*
X84730148Y-107934519D01*
X84730148Y-108003481D01*
X84693844Y-108062114D01*
X84657222Y-108095500D01*
X84590018Y-108156765D01*
X84455942Y-108334310D01*
X84356770Y-108533472D01*
X84295884Y-108747464D01*
X84291697Y-108792654D01*
X84266785Y-108856959D01*
X84211751Y-108898519D01*
X84143082Y-108904882D01*
X84081349Y-108874142D01*
X84062500Y-108856959D01*
X84007562Y-108806876D01*
X84007559Y-108806874D01*
X84007558Y-108806873D01*
X83818405Y-108689754D01*
X83610940Y-108609382D01*
X83610939Y-108609381D01*
X83392243Y-108568500D01*
X83169757Y-108568500D01*
X83023958Y-108595754D01*
X82951059Y-108609382D01*
X82743594Y-108689754D01*
X82554441Y-108806873D01*
X82390018Y-108956765D01*
X82255942Y-109134310D01*
X82156770Y-109333472D01*
X82096167Y-109546472D01*
X82095885Y-109547464D01*
X82075357Y-109769000D01*
X80746391Y-109769000D01*
X80618405Y-109689754D01*
X80410940Y-109609382D01*
X80380485Y-109603689D01*
X80192243Y-109568500D01*
X79969757Y-109568500D01*
X79823958Y-109595754D01*
X79751059Y-109609382D01*
X79705820Y-109626908D01*
X79543599Y-109689753D01*
X79543597Y-109689753D01*
X79532712Y-109693971D01*
X79531885Y-109691837D01*
X79481000Y-109706315D01*
X79430114Y-109691837D01*
X79429288Y-109693971D01*
X79418402Y-109689753D01*
X79418401Y-109689753D01*
X79210940Y-109609382D01*
X78992243Y-109568500D01*
X78769757Y-109568500D01*
X78623958Y-109595754D01*
X78551059Y-109609382D01*
X78343594Y-109689754D01*
X78154441Y-109806873D01*
X78073083Y-109881041D01*
X78018143Y-109931126D01*
X77990018Y-109956765D01*
X77855942Y-110134310D01*
X77756770Y-110333472D01*
X77695886Y-110547459D01*
X77695885Y-110547464D01*
X77675357Y-110769000D01*
X73598831Y-110769000D01*
X73680729Y-110604528D01*
X73741615Y-110390536D01*
X73762143Y-110169000D01*
X73762142Y-110168996D01*
X73762848Y-110161386D01*
X73784361Y-110101805D01*
X73832148Y-110060221D01*
X73894130Y-110047146D01*
X73954640Y-110065884D01*
X74012655Y-110101805D01*
X74143595Y-110182880D01*
X74143599Y-110182882D01*
X74351060Y-110263253D01*
X74569757Y-110304135D01*
X74792241Y-110304135D01*
X74792243Y-110304135D01*
X75010940Y-110263253D01*
X75218401Y-110182882D01*
X75218402Y-110182880D01*
X75218405Y-110182880D01*
X75349345Y-110101805D01*
X75407562Y-110065759D01*
X75571981Y-109915871D01*
X75706058Y-109738324D01*
X75805229Y-109539163D01*
X75866115Y-109325171D01*
X75886643Y-109103635D01*
X75866115Y-108882099D01*
X75805229Y-108668107D01*
X75706058Y-108468946D01*
X75571981Y-108291399D01*
X75407562Y-108141511D01*
X75407559Y-108141509D01*
X75407558Y-108141508D01*
X75218405Y-108024389D01*
X75010940Y-107944017D01*
X75010939Y-107944016D01*
X74792243Y-107903135D01*
X74569757Y-107903135D01*
X74423959Y-107930389D01*
X74351059Y-107944017D01*
X74134359Y-108027967D01*
X74065690Y-108034330D01*
X74018763Y-108010963D01*
X74017489Y-108013022D01*
X73818405Y-107889754D01*
X73610940Y-107809382D01*
X73392243Y-107768500D01*
X73169757Y-107768500D01*
X73023958Y-107795754D01*
X72951059Y-107809382D01*
X72743594Y-107889754D01*
X72554441Y-108006873D01*
X72390018Y-108156765D01*
X72255942Y-108334310D01*
X72156770Y-108533472D01*
X72095884Y-108747465D01*
X72075356Y-108968997D01*
X72075688Y-108972577D01*
X72074372Y-108979611D01*
X72074279Y-108980625D01*
X72074185Y-108980616D01*
X72063015Y-109040364D01*
X72016556Y-109091326D01*
X71829939Y-109206875D01*
X71829937Y-109206876D01*
X71829938Y-109206876D01*
X71675889Y-109347311D01*
X71665518Y-109356765D01*
X71531442Y-109534310D01*
X71432270Y-109733472D01*
X71374601Y-109936161D01*
X71371385Y-109947464D01*
X71350857Y-110169000D01*
X67164088Y-110169000D01*
X67148974Y-110064389D01*
X67148331Y-110059158D01*
X67147220Y-110048247D01*
X67054013Y-109133181D01*
X67053589Y-109127929D01*
X66998213Y-108198770D01*
X66998012Y-108193547D01*
X66981679Y-107262864D01*
X66981698Y-107257579D01*
X66984487Y-107143465D01*
X67004436Y-106327099D01*
X67004676Y-106321829D01*
X67066444Y-105393106D01*
X67066904Y-105387857D01*
X67068956Y-105369000D01*
X67112483Y-104969000D01*
X67725357Y-104969000D01*
X67745885Y-105190536D01*
X67745885Y-105190539D01*
X67745886Y-105190540D01*
X67806770Y-105404527D01*
X67856569Y-105504536D01*
X67905942Y-105603689D01*
X68040019Y-105781236D01*
X68204438Y-105931124D01*
X68204440Y-105931125D01*
X68204441Y-105931126D01*
X68393594Y-106048245D01*
X68393598Y-106048246D01*
X68393599Y-106048247D01*
X68601060Y-106128618D01*
X68819757Y-106169500D01*
X69042241Y-106169500D01*
X69042243Y-106169500D01*
X69260940Y-106128618D01*
X69468401Y-106048247D01*
X69468402Y-106048245D01*
X69468405Y-106048245D01*
X69658358Y-105930632D01*
X69709204Y-105912714D01*
X69762885Y-105917688D01*
X69809573Y-105944644D01*
X69904437Y-106031124D01*
X70093594Y-106148245D01*
X70093598Y-106148246D01*
X70093599Y-106148247D01*
X70301060Y-106228618D01*
X70519757Y-106269500D01*
X70742241Y-106269500D01*
X70742243Y-106269500D01*
X70960940Y-106228618D01*
X71168401Y-106148247D01*
X71168402Y-106148245D01*
X71168405Y-106148245D01*
X71357558Y-106031127D01*
X71357559Y-106031125D01*
X71357562Y-106031124D01*
X71370764Y-106019088D01*
X71424916Y-105990007D01*
X71486383Y-105990006D01*
X71540537Y-106019086D01*
X71663437Y-106131124D01*
X71852594Y-106248245D01*
X71852598Y-106248246D01*
X71852599Y-106248247D01*
X72060060Y-106328618D01*
X72278757Y-106369500D01*
X72501241Y-106369500D01*
X72501243Y-106369500D01*
X72719940Y-106328618D01*
X72927401Y-106248247D01*
X72927402Y-106248245D01*
X72927405Y-106248245D01*
X73075150Y-106156765D01*
X73116562Y-106131124D01*
X73280981Y-105981236D01*
X73415058Y-105803689D01*
X73514229Y-105604528D01*
X73575115Y-105390536D01*
X73595643Y-105169000D01*
X73577111Y-104969000D01*
X75075357Y-104969000D01*
X75095885Y-105190536D01*
X75095885Y-105190539D01*
X75095886Y-105190540D01*
X75156770Y-105404527D01*
X75206569Y-105504536D01*
X75255942Y-105603689D01*
X75390019Y-105781236D01*
X75554438Y-105931124D01*
X75554440Y-105931125D01*
X75554441Y-105931126D01*
X75743594Y-106048245D01*
X75743598Y-106048246D01*
X75743599Y-106048247D01*
X75951060Y-106128618D01*
X76169757Y-106169500D01*
X76392241Y-106169500D01*
X76392243Y-106169500D01*
X76610940Y-106128618D01*
X76818401Y-106048247D01*
X76818402Y-106048245D01*
X76818405Y-106048245D01*
X76985726Y-105944644D01*
X77007562Y-105931124D01*
X77171981Y-105781236D01*
X77306058Y-105603689D01*
X77405229Y-105404528D01*
X77415338Y-105369000D01*
X79075357Y-105369000D01*
X79095885Y-105590536D01*
X79095885Y-105590539D01*
X79095886Y-105590540D01*
X79156770Y-105804527D01*
X79213118Y-105917688D01*
X79255942Y-106003689D01*
X79390019Y-106181236D01*
X79554438Y-106331124D01*
X79554440Y-106331125D01*
X79554441Y-106331126D01*
X79743594Y-106448245D01*
X79743598Y-106448246D01*
X79743599Y-106448247D01*
X79951060Y-106528618D01*
X80169757Y-106569500D01*
X80392241Y-106569500D01*
X80392243Y-106569500D01*
X80610940Y-106528618D01*
X80818401Y-106448247D01*
X80818402Y-106448245D01*
X80818405Y-106448245D01*
X80928527Y-106380060D01*
X81007562Y-106331124D01*
X81171981Y-106181236D01*
X81306058Y-106003689D01*
X81405229Y-105804528D01*
X81466115Y-105590536D01*
X81486643Y-105369000D01*
X81466115Y-105147464D01*
X81405229Y-104933472D01*
X81306058Y-104734311D01*
X81171981Y-104556764D01*
X81007562Y-104406876D01*
X81007559Y-104406874D01*
X81007558Y-104406873D01*
X80818405Y-104289754D01*
X80610940Y-104209382D01*
X80580828Y-104203753D01*
X80392243Y-104168500D01*
X80169757Y-104168500D01*
X80023958Y-104195754D01*
X79951059Y-104209382D01*
X79743594Y-104289754D01*
X79554441Y-104406873D01*
X79496266Y-104459907D01*
X79400242Y-104547445D01*
X79390018Y-104556765D01*
X79255942Y-104734310D01*
X79156770Y-104933472D01*
X79117995Y-105069754D01*
X79095885Y-105147464D01*
X79075357Y-105369000D01*
X77415338Y-105369000D01*
X77466115Y-105190536D01*
X77486643Y-104969000D01*
X77466115Y-104747464D01*
X77405229Y-104533472D01*
X77306058Y-104334311D01*
X77171981Y-104156764D01*
X77007562Y-104006876D01*
X77007559Y-104006874D01*
X77007558Y-104006873D01*
X76818405Y-103889754D01*
X76610940Y-103809382D01*
X76610939Y-103809381D01*
X76392243Y-103768500D01*
X76169757Y-103768500D01*
X76023959Y-103795754D01*
X75951059Y-103809382D01*
X75743594Y-103889754D01*
X75554441Y-104006873D01*
X75390018Y-104156765D01*
X75255942Y-104334310D01*
X75156770Y-104533472D01*
X75099627Y-104734311D01*
X75095885Y-104747464D01*
X75075357Y-104969000D01*
X73577111Y-104969000D01*
X73575115Y-104947464D01*
X73514229Y-104733472D01*
X73415058Y-104534311D01*
X73280981Y-104356764D01*
X73116562Y-104206876D01*
X73116559Y-104206874D01*
X73116558Y-104206873D01*
X72927405Y-104089754D01*
X72719940Y-104009382D01*
X72706518Y-104006873D01*
X72501243Y-103968500D01*
X72278757Y-103968500D01*
X72132958Y-103995754D01*
X72060059Y-104009382D01*
X71852594Y-104089754D01*
X71663440Y-104206873D01*
X71650232Y-104218915D01*
X71596079Y-104247994D01*
X71534613Y-104247993D01*
X71480462Y-104218914D01*
X71357562Y-104106876D01*
X71357559Y-104106874D01*
X71357558Y-104106873D01*
X71168405Y-103989754D01*
X70960940Y-103909382D01*
X70742243Y-103868500D01*
X70519757Y-103868500D01*
X70373958Y-103895754D01*
X70301059Y-103909382D01*
X70093598Y-103989753D01*
X69903641Y-104107369D01*
X69852795Y-104125286D01*
X69799113Y-104120312D01*
X69752427Y-104093357D01*
X69657562Y-104006876D01*
X69657559Y-104006874D01*
X69657558Y-104006873D01*
X69468405Y-103889754D01*
X69260940Y-103809382D01*
X69260939Y-103809381D01*
X69042243Y-103768500D01*
X68819757Y-103768500D01*
X68673959Y-103795754D01*
X68601059Y-103809382D01*
X68393594Y-103889754D01*
X68204441Y-104006873D01*
X68040018Y-104156765D01*
X67905942Y-104334310D01*
X67806770Y-104533472D01*
X67749627Y-104734311D01*
X67745885Y-104747464D01*
X67725357Y-104969000D01*
X67112483Y-104969000D01*
X67167601Y-104462483D01*
X67168275Y-104457311D01*
X67307718Y-103536983D01*
X67308605Y-103531860D01*
X67486549Y-102618191D01*
X67487666Y-102613040D01*
X67489899Y-102603689D01*
X67641409Y-101969000D01*
X86075357Y-101969000D01*
X86095885Y-102190536D01*
X86095885Y-102190539D01*
X86095886Y-102190540D01*
X86156770Y-102404527D01*
X86255942Y-102603689D01*
X86390019Y-102781236D01*
X86554438Y-102931124D01*
X86554440Y-102931125D01*
X86554441Y-102931126D01*
X86743594Y-103048245D01*
X86743598Y-103048246D01*
X86743599Y-103048247D01*
X86951060Y-103128618D01*
X87169757Y-103169500D01*
X87392241Y-103169500D01*
X87392243Y-103169500D01*
X87610940Y-103128618D01*
X87818401Y-103048247D01*
X87818402Y-103048245D01*
X87818405Y-103048245D01*
X87912981Y-102989685D01*
X88007562Y-102931124D01*
X88171981Y-102781236D01*
X88306058Y-102603689D01*
X88405229Y-102404528D01*
X88466115Y-102190536D01*
X88486643Y-101969000D01*
X88466115Y-101747464D01*
X88405229Y-101533472D01*
X88306058Y-101334311D01*
X88171981Y-101156764D01*
X88007562Y-101006876D01*
X88007559Y-101006874D01*
X88007558Y-101006873D01*
X87818405Y-100889754D01*
X87610940Y-100809382D01*
X87571798Y-100802065D01*
X87392243Y-100768500D01*
X87169757Y-100768500D01*
X87023958Y-100795754D01*
X86951059Y-100809382D01*
X86743594Y-100889754D01*
X86554441Y-101006873D01*
X86431123Y-101119291D01*
X86418143Y-101131126D01*
X86390018Y-101156765D01*
X86255942Y-101334310D01*
X86156770Y-101533472D01*
X86095886Y-101747459D01*
X86095885Y-101747464D01*
X86075357Y-101969000D01*
X67641409Y-101969000D01*
X67703779Y-101707724D01*
X67705112Y-101702618D01*
X67718749Y-101654527D01*
X67959048Y-100807096D01*
X67960582Y-100802092D01*
X68251882Y-99918006D01*
X68253602Y-99913133D01*
X68353104Y-99649000D01*
X81785357Y-99649000D01*
X81805885Y-99870536D01*
X81805885Y-99870539D01*
X81805886Y-99870540D01*
X81866770Y-100084527D01*
X81888725Y-100128618D01*
X81965942Y-100283689D01*
X82100019Y-100461236D01*
X82264438Y-100611124D01*
X82264440Y-100611125D01*
X82264441Y-100611126D01*
X82453594Y-100728245D01*
X82453598Y-100728246D01*
X82453599Y-100728247D01*
X82661060Y-100808618D01*
X82879757Y-100849500D01*
X83102241Y-100849500D01*
X83102243Y-100849500D01*
X83320940Y-100808618D01*
X83528401Y-100728247D01*
X83528402Y-100728245D01*
X83528405Y-100728245D01*
X83622981Y-100669685D01*
X83717562Y-100611124D01*
X83881981Y-100461236D01*
X84016058Y-100283689D01*
X84115229Y-100084528D01*
X84176115Y-99870536D01*
X84196643Y-99649000D01*
X84176115Y-99427464D01*
X84115229Y-99213472D01*
X84016058Y-99014311D01*
X83881981Y-98836764D01*
X83717562Y-98686876D01*
X83717559Y-98686874D01*
X83717558Y-98686873D01*
X83528405Y-98569754D01*
X83320940Y-98489382D01*
X83320939Y-98489381D01*
X83102243Y-98448500D01*
X82879757Y-98448500D01*
X82733959Y-98475754D01*
X82661059Y-98489382D01*
X82453594Y-98569754D01*
X82264441Y-98686873D01*
X82100018Y-98836765D01*
X81965942Y-99014310D01*
X81866770Y-99213472D01*
X81805886Y-99427459D01*
X81805885Y-99427464D01*
X81785357Y-99649000D01*
X68353104Y-99649000D01*
X68581748Y-99042052D01*
X68583710Y-99037158D01*
X68948107Y-98180654D01*
X68950256Y-98175881D01*
X69350285Y-97335408D01*
X69352652Y-97330694D01*
X69353149Y-97329754D01*
X69787593Y-96507765D01*
X69790129Y-96503203D01*
X70259257Y-95699193D01*
X70261957Y-95694781D01*
X70764410Y-94911175D01*
X70767311Y-94906853D01*
X71302196Y-94145039D01*
X71305279Y-94140837D01*
X71871668Y-93402137D01*
X71874941Y-93398049D01*
X72471835Y-92683767D01*
X72475240Y-92679862D01*
X72750854Y-92376852D01*
X72811177Y-92340003D01*
X72881852Y-92341437D01*
X72940633Y-92380705D01*
X72969017Y-92445446D01*
X72958070Y-92515284D01*
X72938551Y-92556764D01*
X72910932Y-92615459D01*
X72904914Y-92628247D01*
X72805743Y-92933462D01*
X72745607Y-93248707D01*
X72725456Y-93569000D01*
X72745607Y-93889292D01*
X72805743Y-94204537D01*
X72904916Y-94509759D01*
X73041561Y-94800142D01*
X73213520Y-95071107D01*
X73418088Y-95318389D01*
X73652036Y-95538080D01*
X73748014Y-95607812D01*
X73784591Y-95649455D01*
X73799759Y-95702766D01*
X73790584Y-95757427D01*
X73758839Y-95802863D01*
X73663183Y-95890066D01*
X73592503Y-95954500D01*
X73590018Y-95956765D01*
X73455942Y-96134310D01*
X73352184Y-96342682D01*
X73318386Y-96384682D01*
X73270127Y-96408712D01*
X73216242Y-96410373D01*
X73078808Y-96384682D01*
X72992243Y-96368500D01*
X72769757Y-96368500D01*
X72623958Y-96395754D01*
X72551059Y-96409382D01*
X72343594Y-96489754D01*
X72154441Y-96606873D01*
X71990018Y-96756765D01*
X71855942Y-96934310D01*
X71756770Y-97133472D01*
X71695886Y-97347459D01*
X71695885Y-97347464D01*
X71675357Y-97569000D01*
X71695885Y-97790536D01*
X71695885Y-97790539D01*
X71695886Y-97790540D01*
X71756770Y-98004527D01*
X71757940Y-98006876D01*
X71855942Y-98203689D01*
X71990019Y-98381236D01*
X72154438Y-98531124D01*
X72154440Y-98531125D01*
X72154441Y-98531126D01*
X72343594Y-98648245D01*
X72343598Y-98648246D01*
X72343599Y-98648247D01*
X72551060Y-98728618D01*
X72769757Y-98769500D01*
X72992241Y-98769500D01*
X72992243Y-98769500D01*
X73210940Y-98728618D01*
X73418401Y-98648247D01*
X73418402Y-98648245D01*
X73418405Y-98648245D01*
X73545172Y-98569754D01*
X73607562Y-98531124D01*
X73771981Y-98381236D01*
X73906058Y-98203689D01*
X74005229Y-98004528D01*
X74005230Y-98004523D01*
X74009814Y-97995318D01*
X74043613Y-97953317D01*
X74091872Y-97929287D01*
X74145758Y-97927626D01*
X74151055Y-97928616D01*
X74151060Y-97928618D01*
X74369757Y-97969500D01*
X74592241Y-97969500D01*
X74592243Y-97969500D01*
X74810940Y-97928618D01*
X75018401Y-97848247D01*
X75018402Y-97848245D01*
X75018405Y-97848245D01*
X75146390Y-97769000D01*
X75207562Y-97731124D01*
X75371981Y-97581236D01*
X75506058Y-97403689D01*
X75605229Y-97204528D01*
X75615338Y-97169000D01*
X86875357Y-97169000D01*
X86895885Y-97390536D01*
X86895885Y-97390539D01*
X86895886Y-97390540D01*
X86956770Y-97604527D01*
X87019809Y-97731124D01*
X87055942Y-97803689D01*
X87190019Y-97981236D01*
X87354438Y-98131124D01*
X87354440Y-98131125D01*
X87354441Y-98131126D01*
X87543595Y-98248245D01*
X87543597Y-98248245D01*
X87543599Y-98248247D01*
X87544813Y-98248717D01*
X87546888Y-98250284D01*
X87553526Y-98254394D01*
X87553145Y-98255008D01*
X87599849Y-98290276D01*
X87624763Y-98354583D01*
X87612091Y-98422373D01*
X87556771Y-98533469D01*
X87495886Y-98747459D01*
X87495885Y-98747464D01*
X87475357Y-98969000D01*
X87495885Y-99190536D01*
X87495885Y-99190539D01*
X87495886Y-99190540D01*
X87556770Y-99404527D01*
X87638478Y-99568617D01*
X87655942Y-99603689D01*
X87790019Y-99781236D01*
X87954438Y-99931124D01*
X87954440Y-99931125D01*
X87954441Y-99931126D01*
X88143594Y-100048245D01*
X88143598Y-100048246D01*
X88143599Y-100048247D01*
X88351060Y-100128618D01*
X88569757Y-100169500D01*
X88792241Y-100169500D01*
X88792243Y-100169500D01*
X88794918Y-100169000D01*
X91475357Y-100169000D01*
X91495885Y-100390536D01*
X91495885Y-100390539D01*
X91495886Y-100390540D01*
X91556770Y-100604527D01*
X91560055Y-100611124D01*
X91655942Y-100803689D01*
X91790019Y-100981236D01*
X91954438Y-101131124D01*
X91954440Y-101131125D01*
X91954441Y-101131126D01*
X92143594Y-101248245D01*
X92143598Y-101248246D01*
X92143599Y-101248247D01*
X92351060Y-101328618D01*
X92569757Y-101369500D01*
X92792241Y-101369500D01*
X92792243Y-101369500D01*
X93010940Y-101328618D01*
X93218401Y-101248247D01*
X93218402Y-101248245D01*
X93218405Y-101248245D01*
X93366150Y-101156765D01*
X93407562Y-101131124D01*
X93571981Y-100981236D01*
X93706058Y-100803689D01*
X93805229Y-100604528D01*
X93866115Y-100390536D01*
X93886643Y-100169000D01*
X93866115Y-99947464D01*
X93805229Y-99733472D01*
X93706058Y-99534311D01*
X93571981Y-99356764D01*
X93407562Y-99206876D01*
X93393506Y-99198173D01*
X93339684Y-99164847D01*
X93297680Y-99122058D01*
X93280208Y-99064700D01*
X93291227Y-99005761D01*
X93328240Y-98958589D01*
X93382860Y-98933867D01*
X93410940Y-98928618D01*
X93618401Y-98848247D01*
X93618402Y-98848245D01*
X93618405Y-98848245D01*
X93745582Y-98769500D01*
X93807562Y-98731124D01*
X93971981Y-98581236D01*
X94102047Y-98409000D01*
X96695357Y-98409000D01*
X96715885Y-98630536D01*
X96715885Y-98630539D01*
X96715886Y-98630540D01*
X96776770Y-98844527D01*
X96838502Y-98968500D01*
X96875942Y-99043689D01*
X97010019Y-99221236D01*
X97174438Y-99371124D01*
X97174440Y-99371125D01*
X97174441Y-99371126D01*
X97363594Y-99488245D01*
X97363598Y-99488246D01*
X97363599Y-99488247D01*
X97571060Y-99568618D01*
X97789757Y-99609500D01*
X98012241Y-99609500D01*
X98012243Y-99609500D01*
X98230940Y-99568618D01*
X98438401Y-99488247D01*
X98438402Y-99488245D01*
X98438405Y-99488245D01*
X98573614Y-99404527D01*
X98627562Y-99371124D01*
X98791981Y-99221236D01*
X98926058Y-99043689D01*
X99025229Y-98844528D01*
X99086115Y-98630536D01*
X99106643Y-98409000D01*
X99086115Y-98187464D01*
X99025229Y-97973472D01*
X98926058Y-97774311D01*
X98791981Y-97596764D01*
X98627562Y-97446876D01*
X98627559Y-97446874D01*
X98627558Y-97446873D01*
X98438405Y-97329754D01*
X98230940Y-97249382D01*
X98171748Y-97238317D01*
X98012243Y-97208500D01*
X97789757Y-97208500D01*
X97643958Y-97235754D01*
X97571059Y-97249382D01*
X97363594Y-97329754D01*
X97174441Y-97446873D01*
X97010018Y-97596765D01*
X96875942Y-97774310D01*
X96776770Y-97973472D01*
X96717815Y-98180679D01*
X96715885Y-98187464D01*
X96695357Y-98409000D01*
X94102047Y-98409000D01*
X94106058Y-98403689D01*
X94205229Y-98204528D01*
X94266115Y-97990536D01*
X94286643Y-97769000D01*
X94266115Y-97547464D01*
X94205229Y-97333472D01*
X94106058Y-97134311D01*
X93971981Y-96956764D01*
X93807562Y-96806876D01*
X93807559Y-96806874D01*
X93807558Y-96806873D01*
X93618405Y-96689754D01*
X93410940Y-96609382D01*
X93397518Y-96606873D01*
X93192243Y-96568500D01*
X92969757Y-96568500D01*
X92823959Y-96595754D01*
X92751059Y-96609382D01*
X92543594Y-96689754D01*
X92354441Y-96806873D01*
X92190018Y-96956765D01*
X92055942Y-97134310D01*
X91956770Y-97333472D01*
X91911969Y-97490933D01*
X91895885Y-97547464D01*
X91875357Y-97769000D01*
X91895885Y-97990536D01*
X91895885Y-97990539D01*
X91895886Y-97990540D01*
X91956770Y-98204527D01*
X92044761Y-98381234D01*
X92055942Y-98403689D01*
X92190019Y-98581236D01*
X92354438Y-98731124D01*
X92380820Y-98747459D01*
X92422315Y-98773152D01*
X92464319Y-98815940D01*
X92481790Y-98873297D01*
X92470773Y-98932236D01*
X92433761Y-98979409D01*
X92379137Y-99004133D01*
X92351064Y-99009380D01*
X92143594Y-99089754D01*
X91954441Y-99206873D01*
X91790018Y-99356765D01*
X91655942Y-99534310D01*
X91556770Y-99733472D01*
X91495886Y-99947459D01*
X91495885Y-99947464D01*
X91475357Y-100169000D01*
X88794918Y-100169000D01*
X89010940Y-100128618D01*
X89218401Y-100048247D01*
X89218402Y-100048245D01*
X89218405Y-100048245D01*
X89312981Y-99989685D01*
X89407562Y-99931124D01*
X89571981Y-99781236D01*
X89706058Y-99603689D01*
X89805229Y-99404528D01*
X89866115Y-99190536D01*
X89886643Y-98969000D01*
X89866115Y-98747464D01*
X89805229Y-98533472D01*
X89706058Y-98334311D01*
X89571981Y-98156764D01*
X89407562Y-98006876D01*
X89407559Y-98006874D01*
X89407558Y-98006873D01*
X89218402Y-97889752D01*
X89217182Y-97889280D01*
X89215102Y-97887709D01*
X89208475Y-97883606D01*
X89208855Y-97882991D01*
X89162148Y-97847720D01*
X89137236Y-97783414D01*
X89149909Y-97715625D01*
X89205229Y-97604527D01*
X89266115Y-97390536D01*
X89286643Y-97169000D01*
X89266115Y-96947464D01*
X89205229Y-96733472D01*
X89106058Y-96534311D01*
X88971981Y-96356764D01*
X88807562Y-96206876D01*
X88807559Y-96206874D01*
X88807558Y-96206873D01*
X88618405Y-96089754D01*
X88410940Y-96009382D01*
X88357900Y-95999467D01*
X88192243Y-95968500D01*
X87969757Y-95968500D01*
X87828643Y-95994879D01*
X87751059Y-96009382D01*
X87543594Y-96089754D01*
X87354441Y-96206873D01*
X87190018Y-96356765D01*
X87055942Y-96534310D01*
X86956770Y-96733472D01*
X86899627Y-96934311D01*
X86895885Y-96947464D01*
X86875357Y-97169000D01*
X75615338Y-97169000D01*
X75666115Y-96990536D01*
X75686643Y-96769000D01*
X75666115Y-96547464D01*
X75605229Y-96333472D01*
X75574428Y-96271617D01*
X75561233Y-96213592D01*
X75576138Y-96155981D01*
X75615821Y-96111635D01*
X75671423Y-96090449D01*
X75759861Y-96079277D01*
X76070706Y-95999466D01*
X76369097Y-95881324D01*
X76650328Y-95726716D01*
X76663107Y-95717432D01*
X76701795Y-95689322D01*
X76909964Y-95538080D01*
X77143911Y-95318390D01*
X77348478Y-95071110D01*
X77520439Y-94800142D01*
X77657084Y-94509758D01*
X77756256Y-94204538D01*
X77816392Y-93889294D01*
X77836543Y-93569000D01*
X77816392Y-93248706D01*
X77756256Y-92933462D01*
X77724914Y-92837000D01*
X84646357Y-92837000D01*
X84666885Y-93058536D01*
X84666885Y-93058539D01*
X84666886Y-93058540D01*
X84727770Y-93272527D01*
X84802958Y-93423523D01*
X84826942Y-93471689D01*
X84961019Y-93649236D01*
X85125438Y-93799124D01*
X85125440Y-93799125D01*
X85125441Y-93799126D01*
X85314594Y-93916245D01*
X85314598Y-93916246D01*
X85314599Y-93916247D01*
X85522060Y-93996618D01*
X85740757Y-94037500D01*
X85963241Y-94037500D01*
X85963243Y-94037500D01*
X86181940Y-93996618D01*
X86389401Y-93916247D01*
X86462960Y-93870700D01*
X86517665Y-93852366D01*
X86574806Y-93860336D01*
X86751060Y-93928618D01*
X86969757Y-93969500D01*
X87192241Y-93969500D01*
X87192243Y-93969500D01*
X87410940Y-93928618D01*
X87618401Y-93848247D01*
X87618402Y-93848245D01*
X87618405Y-93848245D01*
X87712981Y-93789685D01*
X87807562Y-93731124D01*
X87971981Y-93581236D01*
X88106058Y-93403689D01*
X88123331Y-93369000D01*
X99475357Y-93369000D01*
X99495885Y-93590536D01*
X99495885Y-93590539D01*
X99495886Y-93590540D01*
X99556770Y-93804527D01*
X99618560Y-93928616D01*
X99655942Y-94003689D01*
X99790019Y-94181236D01*
X99954438Y-94331124D01*
X99954440Y-94331125D01*
X99954441Y-94331126D01*
X100143594Y-94448245D01*
X100143598Y-94448246D01*
X100143599Y-94448247D01*
X100351060Y-94528618D01*
X100569757Y-94569500D01*
X100792241Y-94569500D01*
X100792243Y-94569500D01*
X101010940Y-94528618D01*
X101218401Y-94448247D01*
X101218402Y-94448245D01*
X101218405Y-94448245D01*
X101317214Y-94387065D01*
X101407562Y-94331124D01*
X101571981Y-94181236D01*
X101706058Y-94003689D01*
X101802253Y-93810502D01*
X101842283Y-93763799D01*
X101899656Y-93741611D01*
X101960695Y-93749229D01*
X102010854Y-93784838D01*
X102184984Y-93988719D01*
X102382529Y-94157438D01*
X102382534Y-94157442D01*
X102604046Y-94293184D01*
X102844064Y-94392603D01*
X103092743Y-94452306D01*
X103150060Y-94483426D01*
X103184139Y-94539037D01*
X103185847Y-94604236D01*
X103177338Y-94639679D01*
X103156955Y-94898677D01*
X103177338Y-95157671D01*
X103237986Y-95410288D01*
X103337405Y-95650306D01*
X103406259Y-95762666D01*
X103424802Y-95826026D01*
X103408760Y-95890066D01*
X103362539Y-95937205D01*
X103298826Y-95954500D01*
X103139757Y-95954500D01*
X102993958Y-95981754D01*
X102921059Y-95995382D01*
X102713594Y-96075754D01*
X102524441Y-96192873D01*
X102360018Y-96342765D01*
X102225942Y-96520310D01*
X102126770Y-96719472D01*
X102101902Y-96806876D01*
X102065885Y-96933464D01*
X102045357Y-97155000D01*
X102065885Y-97376536D01*
X102065885Y-97376539D01*
X102065886Y-97376540D01*
X102126770Y-97590527D01*
X102133742Y-97604528D01*
X102225942Y-97789689D01*
X102360019Y-97967236D01*
X102524438Y-98117124D01*
X102524440Y-98117125D01*
X102524441Y-98117126D01*
X102713594Y-98234245D01*
X102713598Y-98234246D01*
X102713599Y-98234247D01*
X102921060Y-98314618D01*
X103139757Y-98355500D01*
X103362241Y-98355500D01*
X103362243Y-98355500D01*
X103580940Y-98314618D01*
X103788401Y-98234247D01*
X103788402Y-98234245D01*
X103788405Y-98234245D01*
X103913541Y-98156764D01*
X103977562Y-98117124D01*
X104141981Y-97967236D01*
X104276058Y-97789689D01*
X104375229Y-97590528D01*
X104430040Y-97397887D01*
X104463711Y-97341725D01*
X104521022Y-97310044D01*
X104586493Y-97311405D01*
X104642439Y-97345440D01*
X104673747Y-97402955D01*
X104694868Y-97490929D01*
X104787941Y-97715625D01*
X104794289Y-97730951D01*
X104930031Y-97952463D01*
X104930032Y-97952465D01*
X104930034Y-97952467D01*
X105098753Y-98150012D01*
X105296298Y-98318731D01*
X105296303Y-98318735D01*
X105517815Y-98454477D01*
X105687009Y-98524559D01*
X105732914Y-98557202D01*
X105760008Y-98606589D01*
X105762875Y-98662846D01*
X105738506Y-98801050D01*
X105747498Y-98981211D01*
X105796356Y-99154862D01*
X105860991Y-99273553D01*
X106879579Y-100728247D01*
X106887641Y-100739760D01*
X106977068Y-100841094D01*
X107123534Y-100946395D01*
X107289758Y-101016465D01*
X107467406Y-101047789D01*
X107467407Y-101047788D01*
X107467408Y-101047789D01*
X107539472Y-101044192D01*
X107647572Y-101038797D01*
X107821219Y-100989940D01*
X107939912Y-100925304D01*
X109406118Y-99898655D01*
X109507452Y-99809228D01*
X109612753Y-99662762D01*
X109682823Y-99496538D01*
X109714147Y-99318890D01*
X109705155Y-99138724D01*
X109656298Y-98965077D01*
X109591662Y-98846384D01*
X108565013Y-97380178D01*
X108475586Y-97278844D01*
X108329120Y-97173543D01*
X108162896Y-97103473D01*
X108162894Y-97103472D01*
X108027685Y-97079631D01*
X107976994Y-97058547D01*
X107940081Y-97017909D01*
X107923953Y-96965432D01*
X107904664Y-96720329D01*
X107844016Y-96467713D01*
X107744597Y-96227695D01*
X107608855Y-96006183D01*
X107599630Y-95995382D01*
X107440132Y-95808633D01*
X107242587Y-95639914D01*
X107242585Y-95639912D01*
X107242583Y-95639911D01*
X107021071Y-95504169D01*
X107021069Y-95504168D01*
X106781054Y-95404750D01*
X106706963Y-95386962D01*
X106532373Y-95345046D01*
X106475056Y-95313926D01*
X106440977Y-95258314D01*
X106439271Y-95193113D01*
X106439642Y-95191564D01*
X106447780Y-95157671D01*
X106468163Y-94898677D01*
X106447780Y-94639683D01*
X106387132Y-94387067D01*
X106287713Y-94147049D01*
X106151971Y-93925537D01*
X106089477Y-93852366D01*
X105983248Y-93727987D01*
X105785703Y-93559268D01*
X105785701Y-93559266D01*
X105785699Y-93559265D01*
X105564187Y-93423523D01*
X105516304Y-93403689D01*
X105324170Y-93324104D01*
X105267086Y-93310399D01*
X105075487Y-93264400D01*
X105018171Y-93233280D01*
X104984092Y-93177668D01*
X104982386Y-93112467D01*
X104990894Y-93077027D01*
X104990895Y-93077024D01*
X105011278Y-92818030D01*
X104990895Y-92559036D01*
X104930247Y-92306420D01*
X104830828Y-92066402D01*
X104695086Y-91844890D01*
X104662619Y-91806876D01*
X104526363Y-91647340D01*
X104328818Y-91478621D01*
X104328816Y-91478619D01*
X104328814Y-91478618D01*
X104107302Y-91342876D01*
X104107300Y-91342875D01*
X103867285Y-91243457D01*
X103614668Y-91182809D01*
X103355674Y-91162426D01*
X103096679Y-91182809D01*
X102844062Y-91243457D01*
X102604047Y-91342875D01*
X102382529Y-91478621D01*
X102184984Y-91647340D01*
X102016265Y-91844885D01*
X101880519Y-92066403D01*
X101781101Y-92306418D01*
X101744030Y-92460832D01*
X101713341Y-92517692D01*
X101658504Y-92551865D01*
X101593940Y-92554364D01*
X101536625Y-92524533D01*
X101529121Y-92517692D01*
X101407562Y-92406876D01*
X101407559Y-92406874D01*
X101407558Y-92406873D01*
X101218405Y-92289754D01*
X101010940Y-92209382D01*
X100973114Y-92202311D01*
X100792243Y-92168500D01*
X100569757Y-92168500D01*
X100423959Y-92195754D01*
X100351059Y-92209382D01*
X100143594Y-92289754D01*
X99954441Y-92406873D01*
X99790018Y-92556765D01*
X99655942Y-92734310D01*
X99556770Y-92933472D01*
X99495886Y-93147459D01*
X99495885Y-93147464D01*
X99475357Y-93369000D01*
X88123331Y-93369000D01*
X88205229Y-93204528D01*
X88266115Y-92990536D01*
X88286643Y-92769000D01*
X88266115Y-92547464D01*
X88205229Y-92333472D01*
X88106058Y-92134311D01*
X87971981Y-91956764D01*
X87807562Y-91806876D01*
X87807559Y-91806874D01*
X87807558Y-91806873D01*
X87618405Y-91689754D01*
X87410940Y-91609382D01*
X87360318Y-91599919D01*
X87192243Y-91568500D01*
X86969757Y-91568500D01*
X86823959Y-91595754D01*
X86751059Y-91609382D01*
X86543597Y-91689753D01*
X86470036Y-91735299D01*
X86415333Y-91753633D01*
X86358192Y-91745662D01*
X86181940Y-91677382D01*
X85963243Y-91636500D01*
X85740757Y-91636500D01*
X85594959Y-91663754D01*
X85522059Y-91677382D01*
X85314594Y-91757754D01*
X85125441Y-91874873D01*
X84961018Y-92024765D01*
X84826942Y-92202310D01*
X84727770Y-92401472D01*
X84683586Y-92556765D01*
X84666885Y-92615464D01*
X84646357Y-92837000D01*
X77724914Y-92837000D01*
X77657084Y-92628242D01*
X77520439Y-92337858D01*
X77348478Y-92066890D01*
X77143911Y-91819610D01*
X76909964Y-91599920D01*
X76909963Y-91599919D01*
X76650331Y-91411285D01*
X76369096Y-91256675D01*
X76182531Y-91182809D01*
X76070706Y-91138534D01*
X76070703Y-91138533D01*
X76070700Y-91138532D01*
X75759861Y-91058722D01*
X75441467Y-91018500D01*
X75441464Y-91018500D01*
X75120536Y-91018500D01*
X75120533Y-91018500D01*
X74802138Y-91058722D01*
X74491296Y-91138532D01*
X74190639Y-91257571D01*
X74122073Y-91264451D01*
X74060142Y-91234232D01*
X74023370Y-91175952D01*
X74022757Y-91107044D01*
X74058482Y-91048122D01*
X74445485Y-90688494D01*
X74449378Y-90685026D01*
X75053674Y-90169000D01*
X92275357Y-90169000D01*
X92295885Y-90390536D01*
X92295885Y-90390539D01*
X92295886Y-90390540D01*
X92356770Y-90604527D01*
X92398594Y-90688519D01*
X92455942Y-90803689D01*
X92590019Y-90981236D01*
X92754438Y-91131124D01*
X92754440Y-91131125D01*
X92754441Y-91131126D01*
X92943594Y-91248245D01*
X92943598Y-91248246D01*
X92943599Y-91248247D01*
X93151060Y-91328618D01*
X93369757Y-91369500D01*
X93592241Y-91369500D01*
X93592243Y-91369500D01*
X93810940Y-91328618D01*
X94018401Y-91248247D01*
X94018402Y-91248245D01*
X94018405Y-91248245D01*
X94195594Y-91138534D01*
X94207562Y-91131124D01*
X94371981Y-90981236D01*
X94506058Y-90803689D01*
X94605229Y-90604528D01*
X94666115Y-90390536D01*
X94686643Y-90169000D01*
X94666115Y-89947464D01*
X94605229Y-89733472D01*
X94506058Y-89534311D01*
X94371981Y-89356764D01*
X94207562Y-89206876D01*
X94207559Y-89206874D01*
X94207558Y-89206873D01*
X94018405Y-89089754D01*
X93856418Y-89027000D01*
X94679357Y-89027000D01*
X94699885Y-89248536D01*
X94699885Y-89248539D01*
X94699886Y-89248540D01*
X94760770Y-89462527D01*
X94793680Y-89528618D01*
X94859942Y-89661689D01*
X94994019Y-89839236D01*
X95158438Y-89989124D01*
X95158440Y-89989125D01*
X95158441Y-89989126D01*
X95347594Y-90106245D01*
X95347598Y-90106246D01*
X95347599Y-90106247D01*
X95555060Y-90186618D01*
X95773757Y-90227500D01*
X95996241Y-90227500D01*
X95996243Y-90227500D01*
X96214940Y-90186618D01*
X96422401Y-90106247D01*
X96422402Y-90106245D01*
X96422405Y-90106245D01*
X96523247Y-90043806D01*
X96611562Y-89989124D01*
X96775981Y-89839236D01*
X96910058Y-89661689D01*
X97009229Y-89462528D01*
X97070115Y-89248536D01*
X97090643Y-89027000D01*
X97089902Y-89019000D01*
X98025357Y-89019000D01*
X98045885Y-89240536D01*
X98045885Y-89240539D01*
X98045886Y-89240540D01*
X98106770Y-89454527D01*
X98171855Y-89585234D01*
X98205942Y-89653689D01*
X98340019Y-89831236D01*
X98504438Y-89981124D01*
X98504440Y-89981125D01*
X98504441Y-89981126D01*
X98693594Y-90098245D01*
X98693598Y-90098246D01*
X98693599Y-90098247D01*
X98901060Y-90178618D01*
X99119757Y-90219500D01*
X99342241Y-90219500D01*
X99342243Y-90219500D01*
X99560940Y-90178618D01*
X99768401Y-90098247D01*
X99768402Y-90098245D01*
X99768405Y-90098245D01*
X99944641Y-89989124D01*
X99957562Y-89981124D01*
X100121981Y-89831236D01*
X100256058Y-89653689D01*
X100355229Y-89454528D01*
X100416115Y-89240536D01*
X100436643Y-89019000D01*
X100416115Y-88797464D01*
X100355229Y-88583472D01*
X100256058Y-88384311D01*
X100121981Y-88206764D01*
X99957562Y-88056876D01*
X99957559Y-88056874D01*
X99957558Y-88056873D01*
X99886862Y-88013100D01*
X99842761Y-87966644D01*
X99827691Y-87906465D01*
X99777706Y-87926661D01*
X99715508Y-87919262D01*
X99560940Y-87859382D01*
X99474642Y-87843250D01*
X99342243Y-87818500D01*
X99119757Y-87818500D01*
X98987358Y-87843250D01*
X98901059Y-87859382D01*
X98693594Y-87939754D01*
X98504441Y-88056873D01*
X98340018Y-88206765D01*
X98205942Y-88384310D01*
X98106770Y-88583472D01*
X98045886Y-88797459D01*
X98045885Y-88797464D01*
X98031384Y-88953953D01*
X98027624Y-88994540D01*
X98025357Y-89019000D01*
X97089902Y-89019000D01*
X97070115Y-88805464D01*
X97009229Y-88591472D01*
X96910058Y-88392311D01*
X96775981Y-88214764D01*
X96611562Y-88064876D01*
X96611559Y-88064874D01*
X96611558Y-88064873D01*
X96422405Y-87947754D01*
X96214940Y-87867382D01*
X96172144Y-87859382D01*
X95996243Y-87826500D01*
X95773757Y-87826500D01*
X95627958Y-87853754D01*
X95555059Y-87867382D01*
X95347594Y-87947754D01*
X95158441Y-88064873D01*
X95158437Y-88064876D01*
X95158438Y-88064876D01*
X95002794Y-88206765D01*
X94994018Y-88214765D01*
X94859942Y-88392310D01*
X94760770Y-88591472D01*
X94700151Y-88804528D01*
X94699885Y-88805464D01*
X94679357Y-89027000D01*
X93856418Y-89027000D01*
X93810940Y-89009382D01*
X93780485Y-89003689D01*
X93592243Y-88968500D01*
X93369757Y-88968500D01*
X93230478Y-88994536D01*
X93151059Y-89009382D01*
X92943594Y-89089754D01*
X92754441Y-89206873D01*
X92754437Y-89206876D01*
X92754438Y-89206876D01*
X92618143Y-89331126D01*
X92590018Y-89356765D01*
X92455942Y-89534310D01*
X92356770Y-89733472D01*
X92300109Y-89932617D01*
X92295885Y-89947464D01*
X92275357Y-90169000D01*
X75053674Y-90169000D01*
X75157245Y-90080558D01*
X75161262Y-90077270D01*
X75893910Y-89503013D01*
X75898094Y-89499874D01*
X76654119Y-88956926D01*
X76658416Y-88953973D01*
X77436623Y-88443192D01*
X77441047Y-88440420D01*
X78239994Y-87962753D01*
X78244521Y-87960174D01*
X78995909Y-87552735D01*
X79055970Y-87537500D01*
X83600111Y-87537500D01*
X83662438Y-87553995D01*
G37*
%TD.AperFunction*%
%TD*%
M02*
