%TF.GenerationSoftware,KiCad,Pcbnew,7.0.1*%
%TF.CreationDate,2023-11-27T02:11:57-06:00*%
%TF.ProjectId,RoundScanner,526f756e-6453-4636-916e-6e65722e6b69,1.0*%
%TF.SameCoordinates,Original*%
%TF.FileFunction,Copper,L1,Top*%
%TF.FilePolarity,Positive*%
%FSLAX46Y46*%
G04 Gerber Fmt 4.6, Leading zero omitted, Abs format (unit mm)*
G04 Created by KiCad (PCBNEW 7.0.1) date 2023-11-27 02:11:57*
%MOMM*%
%LPD*%
G01*
G04 APERTURE LIST*
G04 Aperture macros list*
%AMRoundRect*
0 Rectangle with rounded corners*
0 $1 Rounding radius*
0 $2 $3 $4 $5 $6 $7 $8 $9 X,Y pos of 4 corners*
0 Add a 4 corners polygon primitive as box body*
4,1,4,$2,$3,$4,$5,$6,$7,$8,$9,$2,$3,0*
0 Add four circle primitives for the rounded corners*
1,1,$1+$1,$2,$3*
1,1,$1+$1,$4,$5*
1,1,$1+$1,$6,$7*
1,1,$1+$1,$8,$9*
0 Add four rect primitives between the rounded corners*
20,1,$1+$1,$2,$3,$4,$5,0*
20,1,$1+$1,$4,$5,$6,$7,0*
20,1,$1+$1,$6,$7,$8,$9,0*
20,1,$1+$1,$8,$9,$2,$3,0*%
%AMHorizOval*
0 Thick line with rounded ends*
0 $1 width*
0 $2 $3 position (X,Y) of the first rounded end (center of the circle)*
0 $4 $5 position (X,Y) of the second rounded end (center of the circle)*
0 Add line between two ends*
20,1,$1,$2,$3,$4,$5,0*
0 Add two circle primitives to create the rounded ends*
1,1,$1,$2,$3*
1,1,$1,$4,$5*%
%AMRotRect*
0 Rectangle, with rotation*
0 The origin of the aperture is its center*
0 $1 length*
0 $2 width*
0 $3 Rotation angle, in degrees counterclockwise*
0 Add horizontal line*
21,1,$1,$2,0,0,$3*%
G04 Aperture macros list end*
%TA.AperFunction,SMDPad,CuDef*%
%ADD10RoundRect,0.250001X0.462499X0.624999X-0.462499X0.624999X-0.462499X-0.624999X0.462499X-0.624999X0*%
%TD*%
%TA.AperFunction,SMDPad,CuDef*%
%ADD11RoundRect,0.237500X-0.237500X0.300000X-0.237500X-0.300000X0.237500X-0.300000X0.237500X0.300000X0*%
%TD*%
%TA.AperFunction,SMDPad,CuDef*%
%ADD12RoundRect,0.237500X-0.237500X0.250000X-0.237500X-0.250000X0.237500X-0.250000X0.237500X0.250000X0*%
%TD*%
%TA.AperFunction,SMDPad,CuDef*%
%ADD13RoundRect,0.237500X0.237500X-0.300000X0.237500X0.300000X-0.237500X0.300000X-0.237500X-0.300000X0*%
%TD*%
%TA.AperFunction,SMDPad,CuDef*%
%ADD14RoundRect,0.237500X0.300000X0.237500X-0.300000X0.237500X-0.300000X-0.237500X0.300000X-0.237500X0*%
%TD*%
%TA.AperFunction,SMDPad,CuDef*%
%ADD15R,1.510292X0.412132*%
%TD*%
%TA.AperFunction,SMDPad,CuDef*%
%ADD16RoundRect,0.206066X0.549080X0.000000X-0.549080X0.000000X-0.549080X0.000000X0.549080X0.000000X0*%
%TD*%
%TA.AperFunction,SMDPad,CuDef*%
%ADD17RoundRect,0.237500X0.237500X-0.250000X0.237500X0.250000X-0.237500X0.250000X-0.237500X-0.250000X0*%
%TD*%
%TA.AperFunction,SMDPad,CuDef*%
%ADD18RoundRect,0.237500X0.250000X0.237500X-0.250000X0.237500X-0.250000X-0.237500X0.250000X-0.237500X0*%
%TD*%
%TA.AperFunction,SMDPad,CuDef*%
%ADD19C,1.500000*%
%TD*%
%TA.AperFunction,SMDPad,CuDef*%
%ADD20RoundRect,0.237500X-0.300000X-0.237500X0.300000X-0.237500X0.300000X0.237500X-0.300000X0.237500X0*%
%TD*%
%TA.AperFunction,SMDPad,CuDef*%
%ADD21R,0.750000X2.350000*%
%TD*%
%TA.AperFunction,SMDPad,CuDef*%
%ADD22R,0.650000X1.600000*%
%TD*%
%TA.AperFunction,SMDPad,CuDef*%
%ADD23R,0.750000X1.600000*%
%TD*%
%TA.AperFunction,SMDPad,CuDef*%
%ADD24R,2.100000X2.100000*%
%TD*%
%TA.AperFunction,SMDPad,CuDef*%
%ADD25R,1.000000X2.100000*%
%TD*%
%TA.AperFunction,SMDPad,CuDef*%
%ADD26R,0.543390X1.874066*%
%TD*%
%TA.AperFunction,SMDPad,CuDef*%
%ADD27RoundRect,0.271695X0.000000X0.665338X0.000000X-0.665338X0.000000X-0.665338X0.000000X0.665338X0*%
%TD*%
%TA.AperFunction,SMDPad,CuDef*%
%ADD28RoundRect,0.042000X-0.943000X-0.258000X0.943000X-0.258000X0.943000X0.258000X-0.943000X0.258000X0*%
%TD*%
%TA.AperFunction,ComponentPad*%
%ADD29RotRect,1.700000X1.700000X225.000000*%
%TD*%
%TA.AperFunction,ComponentPad*%
%ADD30HorizOval,1.700000X0.000000X0.000000X0.000000X0.000000X0*%
%TD*%
%TA.AperFunction,ComponentPad*%
%ADD31RotRect,1.700000X1.700000X35.000000*%
%TD*%
%TA.AperFunction,ComponentPad*%
%ADD32HorizOval,1.700000X0.000000X0.000000X0.000000X0.000000X0*%
%TD*%
%TA.AperFunction,ComponentPad*%
%ADD33C,3.500000*%
%TD*%
%TA.AperFunction,SMDPad,CuDef*%
%ADD34RoundRect,0.150000X0.150000X-0.587500X0.150000X0.587500X-0.150000X0.587500X-0.150000X-0.587500X0*%
%TD*%
%TA.AperFunction,SMDPad,CuDef*%
%ADD35RoundRect,0.200000X0.200000X0.250000X-0.200000X0.250000X-0.200000X-0.250000X0.200000X-0.250000X0*%
%TD*%
%TA.AperFunction,SMDPad,CuDef*%
%ADD36RoundRect,0.042000X0.943000X0.258000X-0.943000X0.258000X-0.943000X-0.258000X0.943000X-0.258000X0*%
%TD*%
%TA.AperFunction,SMDPad,CuDef*%
%ADD37RoundRect,0.237500X-0.250000X-0.237500X0.250000X-0.237500X0.250000X0.237500X-0.250000X0.237500X0*%
%TD*%
%TA.AperFunction,SMDPad,CuDef*%
%ADD38R,1.475000X0.450000*%
%TD*%
%TA.AperFunction,SMDPad,CuDef*%
%ADD39R,0.590000X0.690000*%
%TD*%
%TA.AperFunction,SMDPad,CuDef*%
%ADD40RoundRect,0.250001X-0.462499X-0.624999X0.462499X-0.624999X0.462499X0.624999X-0.462499X0.624999X0*%
%TD*%
%TA.AperFunction,ViaPad*%
%ADD41C,0.800000*%
%TD*%
%TA.AperFunction,Conductor*%
%ADD42C,0.250000*%
%TD*%
%TA.AperFunction,Conductor*%
%ADD43C,0.500000*%
%TD*%
G04 APERTURE END LIST*
D10*
%TO.P,D8,1,K*%
%TO.N,Net-(D8-K)*%
X95568500Y-101727000D03*
%TO.P,D8,2,A*%
%TO.N,+3.3V*%
X92593500Y-101727000D03*
%TD*%
D11*
%TO.P,C7,1*%
%TO.N,GND*%
X86614000Y-94006500D03*
%TO.P,C7,2*%
%TO.N,Net-(U2-AVDD{slash}LDO)*%
X86614000Y-95731500D03*
%TD*%
D12*
%TO.P,R27,1*%
%TO.N,Net-(U5-~{OUT2})*%
X80881000Y-100056500D03*
%TO.P,R27,2*%
%TO.N,Net-(D6-K)*%
X80881000Y-101881500D03*
%TD*%
D13*
%TO.P,C13,1*%
%TO.N,+3.3V*%
X68681000Y-110831500D03*
%TO.P,C13,2*%
%TO.N,GND*%
X68681000Y-109106500D03*
%TD*%
D12*
%TO.P,R1,1*%
%TO.N,/InGaS Sensor/Anode*%
X101784000Y-95456500D03*
%TO.P,R1,2*%
%TO.N,Net-(C2-Pad2)*%
X101784000Y-97281500D03*
%TD*%
D11*
%TO.P,C3,1*%
%TO.N,/InGaS Sensor/Cathode*%
X90681000Y-92906500D03*
%TO.P,C3,2*%
%TO.N,Net-(C3-Pad2)*%
X90681000Y-94631500D03*
%TD*%
D14*
%TO.P,C5,1*%
%TO.N,/ADC/AIN-*%
X77943500Y-100569000D03*
%TO.P,C5,2*%
%TO.N,/ADC/AIN+*%
X76218500Y-100569000D03*
%TD*%
D15*
%TO.P,Q1,1,S2*%
%TO.N,/MCU + IO/SCL_2v*%
X79181919Y-113619000D03*
D16*
%TO.P,Q1,2,G2*%
%TO.N,+1V8*%
X79181919Y-112969000D03*
%TO.P,Q1,3,D1*%
%TO.N,SDA*%
X79181919Y-112319000D03*
%TO.P,Q1,4,S1*%
%TO.N,/MCU + IO/SDA_2v*%
X77380081Y-112319000D03*
%TO.P,Q1,5,G1*%
%TO.N,+1V8*%
X77380081Y-112969000D03*
%TO.P,Q1,6,D2*%
%TO.N,SCL*%
X77380081Y-113619000D03*
%TD*%
D17*
%TO.P,R16,1*%
%TO.N,+3.3V*%
X93896999Y-126122497D03*
%TO.P,R16,2*%
%TO.N,Net-(D2-A)*%
X93896999Y-124297497D03*
%TD*%
D18*
%TO.P,R4,1*%
%TO.N,Net-(C3-Pad2)*%
X86891500Y-89916000D03*
%TO.P,R4,2*%
%TO.N,/ADC/AIN+*%
X85066500Y-89916000D03*
%TD*%
%TO.P,R13,1*%
%TO.N,Net-(C12-Pad2)*%
X88593500Y-116369000D03*
%TO.P,R13,2*%
%TO.N,/ADC/AIN2-*%
X86768500Y-116369000D03*
%TD*%
D11*
%TO.P,C20,1*%
%TO.N,GND*%
X76681000Y-115306500D03*
%TO.P,C20,2*%
%TO.N,+1V8*%
X76681000Y-117031500D03*
%TD*%
D19*
%TO.P,TP1,1,1*%
%TO.N,+1V8*%
X78281000Y-120569000D03*
%TD*%
D17*
%TO.P,R7,1*%
%TO.N,+1V8*%
X80081000Y-117081500D03*
%TO.P,R7,2*%
%TO.N,/MCU + IO/SCL_2v*%
X80081000Y-115256500D03*
%TD*%
D20*
%TO.P,C24,1*%
%TO.N,GND*%
X88818500Y-96169000D03*
%TO.P,C24,2*%
%TO.N,+3.3V*%
X90543500Y-96169000D03*
%TD*%
D18*
%TO.P,R29,1*%
%TO.N,Net-(U5-~{OUT4})*%
X102193500Y-101569000D03*
%TO.P,R29,2*%
%TO.N,Net-(D8-K)*%
X100368500Y-101569000D03*
%TD*%
D20*
%TO.P,C27,1*%
%TO.N,GND*%
X74018500Y-110169000D03*
%TO.P,C27,2*%
%TO.N,+3.3V*%
X75743500Y-110169000D03*
%TD*%
D11*
%TO.P,C2,1*%
%TO.N,/InGaS Sensor/Anode*%
X100006000Y-95022500D03*
%TO.P,C2,2*%
%TO.N,Net-(C2-Pad2)*%
X100006000Y-96747500D03*
%TD*%
D14*
%TO.P,C14,1*%
%TO.N,GND*%
X77943500Y-118569000D03*
%TO.P,C14,2*%
%TO.N,+3.3V*%
X76218500Y-118569000D03*
%TD*%
D10*
%TO.P,D10,1,K*%
%TO.N,Net-(D10-K)*%
X96864500Y-106553000D03*
%TO.P,D10,2,A*%
%TO.N,+3.3V*%
X93889500Y-106553000D03*
%TD*%
%TO.P,D5,1,K*%
%TO.N,Net-(D5-K)*%
X95848500Y-111379000D03*
%TO.P,D5,2,A*%
%TO.N,+3.3V*%
X92873500Y-111379000D03*
%TD*%
D19*
%TO.P,TP3,1,1*%
%TO.N,+3.3V*%
X91881000Y-126969000D03*
%TD*%
D20*
%TO.P,C16,1*%
%TO.N,GND*%
X72018500Y-115969000D03*
%TO.P,C16,2*%
%TO.N,+3.3V*%
X73743500Y-115969000D03*
%TD*%
D21*
%TO.P,U3,1,Cathode*%
%TO.N,/InGaS Sensor/Cathode*%
X90681000Y-103794000D03*
D22*
%TO.P,U3,2,Anode*%
%TO.N,/InGaS Sensor/Anode*%
X89281000Y-103519000D03*
D23*
%TO.P,U3,3,Cathode*%
%TO.N,/InGaS Sensor/Cathode*%
X87881000Y-103519000D03*
%TO.P,U3,4,Cathode*%
X87881000Y-106419000D03*
D22*
%TO.P,U3,5,NC*%
X89281000Y-106419000D03*
D23*
%TO.P,U3,6,Cathode*%
X90681000Y-106419000D03*
%TD*%
D10*
%TO.P,D9,1,K*%
%TO.N,Net-(D9-K)*%
X96102500Y-104140000D03*
%TO.P,D9,2,A*%
%TO.N,+3.3V*%
X93127500Y-104140000D03*
%TD*%
D20*
%TO.P,C17,1*%
%TO.N,+3.3V*%
X69618500Y-113969000D03*
%TO.P,C17,2*%
%TO.N,GND*%
X71343500Y-113969000D03*
%TD*%
D24*
%TO.P,D3,1,CATHODE*%
%TO.N,Net-(D3-CATHODE)*%
X83271000Y-111569000D03*
D25*
%TO.P,D3,2,ANODE*%
%TO.N,+3.3V*%
X85441000Y-111569000D03*
%TD*%
D26*
%TO.P,U2,1,REFP*%
%TO.N,Net-(U2-AVDD{slash}LDO)*%
X77470000Y-102694433D03*
D27*
%TO.P,U2,2,VIN1N*%
%TO.N,/ADC/AIN-*%
X76200000Y-102694433D03*
%TO.P,U2,3,VIN1P*%
%TO.N,/ADC/AIN+*%
X74930000Y-102694433D03*
%TO.P,U2,4,VIN2N*%
%TO.N,/ADC/AIN2-*%
X73660000Y-102694433D03*
%TO.P,U2,5,VIN2P*%
%TO.N,/ADC/AIN2+*%
X72390000Y-102694433D03*
%TO.P,U2,6,VBG*%
%TO.N,Net-(U2-VBG)*%
X71120000Y-102694433D03*
%TO.P,U2,7,REFN*%
%TO.N,GND*%
X69850000Y-102694433D03*
%TO.P,U2,8,AVSS*%
X68580000Y-102694433D03*
%TO.P,U2,9,DVSS*%
X68580000Y-107326567D03*
%TO.P,U2,10,XIN*%
%TO.N,Net-(U2-XIN)*%
X69850000Y-107326567D03*
%TO.P,U2,11,XOUT*%
%TO.N,unconnected-(U2-XOUT-Pad11)*%
X71120000Y-107326567D03*
%TO.P,U2,12,DRDY*%
%TO.N,/ADC/DRDY_INT*%
X72390000Y-107326567D03*
%TO.P,U2,13,SCLK*%
%TO.N,SCL*%
X73660000Y-107326567D03*
%TO.P,U2,14,SDIO*%
%TO.N,SDA*%
X74930000Y-107326567D03*
%TO.P,U2,15,DVDD*%
%TO.N,+3.3V*%
X76200000Y-107326567D03*
%TO.P,U2,16,AVDD/LDO*%
%TO.N,Net-(U2-AVDD{slash}LDO)*%
X77470000Y-107326567D03*
%TD*%
D17*
%TO.P,R2,1*%
%TO.N,Net-(C3-Pad2)*%
X89081000Y-94681500D03*
%TO.P,R2,2*%
%TO.N,/InGaS Sensor/Cathode*%
X89081000Y-92856500D03*
%TD*%
D28*
%TO.P,U4,1*%
%TO.N,Net-(C12-Pad2)*%
X90736663Y-118745000D03*
%TO.P,U4,2,-*%
%TO.N,/InGaS Sensor/Anode_2*%
X90736663Y-120015000D03*
%TO.P,U4,3,+*%
%TO.N,VDDA*%
X90736663Y-121285000D03*
%TO.P,U4,4,V-*%
%TO.N,GND*%
X90736663Y-122555000D03*
%TO.P,U4,5,+*%
%TO.N,VDDA*%
X95676663Y-122555000D03*
%TO.P,U4,6,-*%
%TO.N,/InGaS Sensor/Cathode_2*%
X95676663Y-121285000D03*
%TO.P,U4,7*%
%TO.N,Net-(C21-Pad2)*%
X95676663Y-120015000D03*
%TO.P,U4,8,V+*%
%TO.N,+3.3V*%
X95676663Y-118745000D03*
%TD*%
D10*
%TO.P,D4,1,K*%
%TO.N,Net-(D4-K)*%
X95768500Y-113969000D03*
%TO.P,D4,2,A*%
%TO.N,+3.3V*%
X92793500Y-113969000D03*
%TD*%
D17*
%TO.P,R12,1*%
%TO.N,SDA*%
X81081000Y-120681500D03*
%TO.P,R12,2*%
%TO.N,+3.3V*%
X81081000Y-118856500D03*
%TD*%
D29*
%TO.P,J2,1,Pin_1*%
%TO.N,GND*%
X72581202Y-118754786D03*
D30*
%TO.P,J2,2,Pin_2*%
%TO.N,+3.3V*%
X74377253Y-120550837D03*
%TO.P,J2,3,Pin_3*%
%TO.N,SDA*%
X76173304Y-122346888D03*
%TO.P,J2,4,Pin_4*%
%TO.N,SCL*%
X77969356Y-124142940D03*
D31*
%TO.P,J2,5,Pin_5*%
%TO.N,GND*%
X107726327Y-99059969D03*
D32*
%TO.P,J2,6,Pin_6*%
%TO.N,/LED/LED_RESET*%
X106269443Y-96979323D03*
%TO.P,J2,7,Pin_7*%
%TO.N,/MCU + IO/AS7341_INT*%
X104812559Y-94898677D03*
%TO.P,J2,8,Pin_8*%
%TO.N,/ADC/DRDY_INT*%
X103355674Y-92818030D03*
D33*
%TO.P,J2,MP*%
%TO.N,GND*%
X75281000Y-93569000D03*
X103281000Y-121569000D03*
%TD*%
D34*
%TO.P,U10,1,GND*%
%TO.N,GND*%
X73131000Y-114106500D03*
%TO.P,U10,2,VO*%
%TO.N,+1V8*%
X75031000Y-114106500D03*
%TO.P,U10,3,VI*%
%TO.N,+3.3V*%
X74081000Y-112231500D03*
%TD*%
D14*
%TO.P,C11,1*%
%TO.N,GND*%
X99543500Y-122569000D03*
%TO.P,C11,2*%
%TO.N,VDDA*%
X97818500Y-122569000D03*
%TD*%
D11*
%TO.P,C6,1*%
%TO.N,GND*%
X84963000Y-94006500D03*
%TO.P,C6,2*%
%TO.N,Net-(U2-AVDD{slash}LDO)*%
X84963000Y-95731500D03*
%TD*%
D34*
%TO.P,U9,1,GND*%
%TO.N,GND*%
X90193500Y-90906500D03*
%TO.P,U9,2,VO*%
%TO.N,VDDA*%
X92093500Y-90906500D03*
%TO.P,U9,3,VI*%
%TO.N,+3.3V*%
X91143500Y-89031500D03*
%TD*%
D17*
%TO.P,R14,1*%
%TO.N,Net-(C21-Pad2)*%
X100831000Y-119331500D03*
%TO.P,R14,2*%
%TO.N,/ADC/AIN2+*%
X100831000Y-117506500D03*
%TD*%
%TO.P,R5,1*%
%TO.N,Net-(U2-AVDD{slash}LDO)*%
X83481000Y-95769000D03*
%TO.P,R5,2*%
%TO.N,+3.3V*%
X83481000Y-93944000D03*
%TD*%
D18*
%TO.P,R28,1*%
%TO.N,Net-(U5-~{OUT3})*%
X87081000Y-100769000D03*
%TO.P,R28,2*%
%TO.N,Net-(D7-K)*%
X85256000Y-100769000D03*
%TD*%
D17*
%TO.P,R8,1*%
%TO.N,+1V8*%
X78881000Y-109281500D03*
%TO.P,R8,2*%
%TO.N,/MCU + IO/SDA_2v*%
X78881000Y-107456500D03*
%TD*%
D11*
%TO.P,C10,1*%
%TO.N,GND*%
X71081000Y-98906500D03*
%TO.P,C10,2*%
%TO.N,Net-(U2-VBG)*%
X71081000Y-100631500D03*
%TD*%
D35*
%TO.P,X1,1,Tri-State*%
%TO.N,Net-(X1-Tri-State)*%
X71606000Y-110894000D03*
%TO.P,X1,2,GND*%
%TO.N,GND*%
X71606000Y-109044000D03*
%TO.P,X1,3,OUT*%
%TO.N,Net-(U2-XIN)*%
X70156000Y-109044000D03*
%TO.P,X1,4,VDD*%
%TO.N,+3.3V*%
X70156000Y-110894000D03*
%TD*%
D18*
%TO.P,R26,1*%
%TO.N,Net-(U5-~{OUT1})*%
X99993500Y-112169000D03*
%TO.P,R26,2*%
%TO.N,Net-(D5-K)*%
X98168500Y-112169000D03*
%TD*%
%TO.P,R18,1*%
%TO.N,Net-(X1-Tri-State)*%
X71193500Y-112369000D03*
%TO.P,R18,2*%
%TO.N,+3.3V*%
X69368500Y-112369000D03*
%TD*%
D14*
%TO.P,C15,1*%
%TO.N,GND*%
X99543500Y-124169000D03*
%TO.P,C15,2*%
%TO.N,VDDA*%
X97818500Y-124169000D03*
%TD*%
%TO.P,C8,1*%
%TO.N,GND*%
X97143500Y-116769000D03*
%TO.P,C8,2*%
%TO.N,+3.3V*%
X95418500Y-116769000D03*
%TD*%
D36*
%TO.P,U1,1*%
%TO.N,Net-(C2-Pad2)*%
X97650000Y-96647000D03*
%TO.P,U1,2,-*%
%TO.N,/InGaS Sensor/Anode*%
X97650000Y-95377000D03*
%TO.P,U1,3,+*%
%TO.N,VDDA*%
X97650000Y-94107000D03*
%TO.P,U1,4,V-*%
%TO.N,GND*%
X97650000Y-92837000D03*
%TO.P,U1,5,+*%
%TO.N,VDDA*%
X92710000Y-92837000D03*
%TO.P,U1,6,-*%
%TO.N,/InGaS Sensor/Cathode*%
X92710000Y-94107000D03*
%TO.P,U1,7*%
%TO.N,Net-(C3-Pad2)*%
X92710000Y-95377000D03*
%TO.P,U1,8,V+*%
%TO.N,+3.3V*%
X92710000Y-96647000D03*
%TD*%
D12*
%TO.P,R11,1*%
%TO.N,+3.3V*%
X82681000Y-118856500D03*
%TO.P,R11,2*%
%TO.N,SCL*%
X82681000Y-120681500D03*
%TD*%
D20*
%TO.P,C22,1*%
%TO.N,/ADC/AIN2+*%
X72818500Y-100569000D03*
%TO.P,C22,2*%
%TO.N,/ADC/AIN2-*%
X74543500Y-100569000D03*
%TD*%
D37*
%TO.P,R6,1*%
%TO.N,Net-(U2-AVDD{slash}LDO)*%
X84768500Y-97369000D03*
%TO.P,R6,2*%
%TO.N,VDDA*%
X86593500Y-97369000D03*
%TD*%
D17*
%TO.P,R19,1*%
%TO.N,+1V8*%
X80481000Y-109081500D03*
%TO.P,R19,2*%
%TO.N,/MCU + IO/AS7341_INT*%
X80481000Y-107256500D03*
%TD*%
D10*
%TO.P,D11,1,K*%
%TO.N,Net-(D11-K)*%
X96864500Y-108966000D03*
%TO.P,D11,2,A*%
%TO.N,+3.3V*%
X93889500Y-108966000D03*
%TD*%
D14*
%TO.P,C23,1*%
%TO.N,/ADC/AIN2-*%
X74543500Y-98969000D03*
%TO.P,C23,2*%
%TO.N,/ADC/AIN2+*%
X72818500Y-98969000D03*
%TD*%
D12*
%TO.P,R10,1*%
%TO.N,Net-(C21-Pad2)*%
X99302663Y-119256500D03*
%TO.P,R10,2*%
%TO.N,/InGaS Sensor/Cathode_2*%
X99302663Y-121081500D03*
%TD*%
D14*
%TO.P,C1,1*%
%TO.N,GND*%
X95661500Y-91186000D03*
%TO.P,C1,2*%
%TO.N,VDDA*%
X93936500Y-91186000D03*
%TD*%
D38*
%TO.P,U5,1,A0*%
%TO.N,GND*%
X109872000Y-109971000D03*
%TO.P,U5,2,A1*%
X109872000Y-109321000D03*
%TO.P,U5,3,A2*%
X109872000Y-108671000D03*
%TO.P,U5,4,~{OUT0}*%
%TO.N,Net-(U5-~{OUT0})*%
X109872000Y-108021000D03*
%TO.P,U5,5,~{OUT1}*%
%TO.N,Net-(U5-~{OUT1})*%
X109872000Y-107371000D03*
%TO.P,U5,6,~{OUT2}*%
%TO.N,Net-(U5-~{OUT2})*%
X109872000Y-106721000D03*
%TO.P,U5,7,~{OUT3}*%
%TO.N,Net-(U5-~{OUT3})*%
X109872000Y-106071000D03*
%TO.P,U5,8,GND*%
%TO.N,GND*%
X109872000Y-105421000D03*
%TO.P,U5,9,~{OUT4}*%
%TO.N,Net-(U5-~{OUT4})*%
X103996000Y-105421000D03*
%TO.P,U5,10,~{OUT5}*%
%TO.N,Net-(U5-~{OUT5})*%
X103996000Y-106071000D03*
%TO.P,U5,11,~{OUT6}*%
%TO.N,Net-(U5-~{OUT6})*%
X103996000Y-106721000D03*
%TO.P,U5,12,~{OUT7}*%
%TO.N,Net-(U5-~{OUT7})*%
X103996000Y-107371000D03*
%TO.P,U5,13,~{RESET}*%
%TO.N,/LED/LED_RESET*%
X103996000Y-108021000D03*
%TO.P,U5,14,SCL*%
%TO.N,SCL*%
X103996000Y-108671000D03*
%TO.P,U5,15,SDA*%
%TO.N,SDA*%
X103996000Y-109321000D03*
%TO.P,U5,16,VCC*%
%TO.N,+3.3V*%
X103996000Y-109971000D03*
%TD*%
D20*
%TO.P,C18,1*%
%TO.N,+3.3V*%
X106218500Y-113569000D03*
%TO.P,C18,2*%
%TO.N,GND*%
X107943500Y-113569000D03*
%TD*%
D18*
%TO.P,R25,1*%
%TO.N,Net-(U5-~{OUT0})*%
X99993500Y-113969000D03*
%TO.P,R25,2*%
%TO.N,Net-(D4-K)*%
X98168500Y-113969000D03*
%TD*%
D20*
%TO.P,C4,1*%
%TO.N,/ADC/AIN+*%
X76218500Y-98969000D03*
%TO.P,C4,2*%
%TO.N,/ADC/AIN-*%
X77943500Y-98969000D03*
%TD*%
D10*
%TO.P,D7,1,K*%
%TO.N,Net-(D7-K)*%
X85768500Y-102769000D03*
%TO.P,D7,2,A*%
%TO.N,+3.3V*%
X82793500Y-102769000D03*
%TD*%
D12*
%TO.P,R32,1*%
%TO.N,Net-(U5-~{OUT7})*%
X100281000Y-108256500D03*
%TO.P,R32,2*%
%TO.N,Net-(D11-K)*%
X100281000Y-110081500D03*
%TD*%
D39*
%TO.P,U6,1,VDD*%
%TO.N,+1V8*%
X81881000Y-108549000D03*
%TO.P,U6,2,SCL*%
%TO.N,/MCU + IO/SCL_2v*%
X82681000Y-108549000D03*
%TO.P,U6,3,GND*%
%TO.N,GND*%
X83481000Y-108549000D03*
%TO.P,U6,4,LDR*%
%TO.N,Net-(D3-CATHODE)*%
X84281000Y-108549000D03*
%TO.P,U6,5,PGND*%
%TO.N,GND*%
X84281000Y-107269000D03*
%TO.P,U6,6,GPIO*%
%TO.N,unconnected-(U6-GPIO-Pad6)*%
X83481000Y-107269000D03*
%TO.P,U6,7,INT*%
%TO.N,/MCU + IO/AS7341_INT*%
X82681000Y-107269000D03*
%TO.P,U6,8,SDA*%
%TO.N,/MCU + IO/SDA_2v*%
X81881000Y-107269000D03*
%TD*%
D13*
%TO.P,C21,1*%
%TO.N,/InGaS Sensor/Cathode_2*%
X97778663Y-121031500D03*
%TO.P,C21,2*%
%TO.N,Net-(C21-Pad2)*%
X97778663Y-119306500D03*
%TD*%
D18*
%TO.P,R3,1*%
%TO.N,Net-(C2-Pad2)*%
X86891500Y-91567000D03*
%TO.P,R3,2*%
%TO.N,/ADC/AIN-*%
X85066500Y-91567000D03*
%TD*%
%TO.P,R24,1*%
%TO.N,/LED/LED_RESET*%
X107973500Y-111887000D03*
%TO.P,R24,2*%
%TO.N,+3.3V*%
X106148500Y-111887000D03*
%TD*%
D13*
%TO.P,C12,1*%
%TO.N,/InGaS Sensor/Anode_2*%
X88381000Y-119831500D03*
%TO.P,C12,2*%
%TO.N,Net-(C12-Pad2)*%
X88381000Y-118106500D03*
%TD*%
D18*
%TO.P,R30,1*%
%TO.N,Net-(U5-~{OUT5})*%
X102193500Y-103169000D03*
%TO.P,R30,2*%
%TO.N,Net-(D9-K)*%
X100368500Y-103169000D03*
%TD*%
D11*
%TO.P,C19,1*%
%TO.N,GND*%
X78281000Y-115306500D03*
%TO.P,C19,2*%
%TO.N,+1V8*%
X78281000Y-117031500D03*
%TD*%
D17*
%TO.P,R31,1*%
%TO.N,Net-(U5-~{OUT6})*%
X100281000Y-106681500D03*
%TO.P,R31,2*%
%TO.N,Net-(D10-K)*%
X100281000Y-104856500D03*
%TD*%
D40*
%TO.P,D6,1,K*%
%TO.N,Net-(D6-K)*%
X81951500Y-105169000D03*
%TO.P,D6,2,A*%
%TO.N,+3.3V*%
X84926500Y-105169000D03*
%TD*%
D17*
%TO.P,R9,1*%
%TO.N,/InGaS Sensor/Anode_2*%
X86811000Y-119861500D03*
%TO.P,R9,2*%
%TO.N,Net-(C12-Pad2)*%
X86811000Y-118036500D03*
%TD*%
D21*
%TO.P,U8,1,Case*%
%TO.N,/InGaS Sensor/Cathode_2*%
X87881000Y-111394000D03*
D22*
%TO.P,U8,2,Anode*%
%TO.N,/InGaS Sensor/Anode_2*%
X89281000Y-111669000D03*
D23*
%TO.P,U8,3,Case*%
%TO.N,/InGaS Sensor/Cathode_2*%
X90681000Y-111669000D03*
%TO.P,U8,4,Case*%
X90681000Y-108769000D03*
D22*
%TO.P,U8,5,Cathode*%
X89281000Y-108769000D03*
D23*
%TO.P,U8,6,Case*%
X87881000Y-108769000D03*
%TD*%
D41*
%TO.N,SDA*%
X74681000Y-109103635D03*
X102362000Y-109982000D03*
X78881000Y-110769000D03*
%TO.N,SCL*%
X75681000Y-112769000D03*
X102487287Y-111476921D03*
X80937250Y-122425250D03*
X73281000Y-108969000D03*
X91440000Y-124769000D03*
%TO.N,+1V8*%
X80081000Y-110769000D03*
X82231000Y-115369000D03*
%TO.N,/MCU + IO/AS7341_INT*%
X80281000Y-105369000D03*
%TO.N,/ADC/DRDY_INT*%
X72390000Y-105169000D03*
%TO.N,/ADC/AIN2+*%
X72881000Y-97569000D03*
X98425000Y-117856000D03*
%TO.N,/ADC/AIN2-*%
X87899533Y-114950467D03*
X74481000Y-96769000D03*
%TO.N,GND*%
X88881000Y-121169000D03*
X99231000Y-89019000D03*
X101281000Y-114969000D03*
X84963000Y-116332000D03*
X87681000Y-88369000D03*
X110109000Y-101219000D03*
X85852000Y-92837000D03*
X108131000Y-109639000D03*
X76281000Y-104969000D03*
X101481000Y-116369000D03*
X99316188Y-116202812D03*
X95885000Y-89027000D03*
X83281000Y-109769000D03*
X85481000Y-106969000D03*
X83281000Y-122169000D03*
X78089007Y-114408549D03*
X88081000Y-97169000D03*
X106934000Y-115316000D03*
X106934000Y-117856000D03*
X110363000Y-103251000D03*
X68931000Y-104969000D03*
X92681000Y-100169000D03*
X97901000Y-98409000D03*
X84328000Y-88773000D03*
X85481000Y-108969000D03*
X100681000Y-93369000D03*
X70631000Y-105069000D03*
X93081000Y-97769000D03*
X83461000Y-106149000D03*
X72681000Y-111969000D03*
X72556500Y-110169000D03*
X95281000Y-127969000D03*
X79081000Y-118369000D03*
X79751000Y-126269000D03*
X85971000Y-128069000D03*
X104681000Y-112569000D03*
%TO.N,Net-(C2-Pad2)*%
X87081000Y-92769000D03*
X103251000Y-97155000D03*
%TO.N,Net-(D2-A)*%
X95135000Y-124257513D03*
%TO.N,Net-(U5-~{OUT0})*%
X103692257Y-111133368D03*
X108157333Y-108095500D03*
%TO.N,Net-(U5-~{OUT1})*%
X107061000Y-107315000D03*
X98681000Y-110871000D03*
%TO.N,Net-(U5-~{OUT2})*%
X106680000Y-105791000D03*
X82991000Y-99649000D03*
%TO.N,Net-(U5-~{OUT3})*%
X107569000Y-105283000D03*
X87281000Y-101969000D03*
%TO.N,/LED/LED_RESET*%
X109601000Y-111633000D03*
%TO.N,+3.3V*%
X91881000Y-115769000D03*
X90681000Y-97569000D03*
X81081000Y-103569000D03*
X95281000Y-126122497D03*
X94081000Y-116769000D03*
X89298263Y-125569000D03*
X84681000Y-113369000D03*
X105871000Y-110849000D03*
X69481000Y-114969000D03*
X83681000Y-92769000D03*
X89881000Y-88769000D03*
X91402051Y-100123252D03*
X82081000Y-117569000D03*
%TO.N,VDDA*%
X88681000Y-98969000D03*
X93481000Y-90169000D03*
X98281000Y-126169000D03*
%TD*%
D42*
%TO.N,/InGaS Sensor/Anode*%
X97650000Y-95377000D02*
X99651500Y-95377000D01*
X94459480Y-99393002D02*
X96012000Y-97840482D01*
X100006000Y-95022500D02*
X101350000Y-95022500D01*
X96012000Y-97840482D02*
X96012000Y-96565663D01*
X90522480Y-99393002D02*
X94459480Y-99393002D01*
X99651500Y-95377000D02*
X100006000Y-95022500D01*
X101350000Y-95022500D02*
X101784000Y-95456500D01*
X89281000Y-103519000D02*
X89281000Y-100634482D01*
X96012000Y-96565663D02*
X97200663Y-95377000D01*
X89281000Y-100634482D02*
X90522480Y-99393002D01*
%TO.N,/InGaS Sensor/Cathode*%
X92710000Y-94107000D02*
X91881500Y-94107000D01*
X91881500Y-94107000D02*
X90681000Y-92906500D01*
X94234000Y-95181663D02*
X93159337Y-94107000D01*
X93588499Y-98943501D02*
X94234000Y-98298000D01*
X87881000Y-106419000D02*
X88481000Y-106419000D01*
X90034593Y-98943501D02*
X93588499Y-98943501D01*
X89081000Y-92856500D02*
X89131000Y-92906500D01*
X88265000Y-103135000D02*
X88265000Y-100713094D01*
X87881000Y-103519000D02*
X88265000Y-103135000D01*
X90281000Y-106369000D02*
X90681000Y-106769000D01*
X88531000Y-106369000D02*
X90281000Y-106369000D01*
X87881000Y-103519000D02*
X87881000Y-106419000D01*
X88481000Y-106419000D02*
X88531000Y-106369000D01*
X90681000Y-106419000D02*
X90681000Y-103794000D01*
X94234000Y-98298000D02*
X94234000Y-95181663D01*
X88265000Y-100713094D02*
X90034593Y-98943501D01*
X89131000Y-92906500D02*
X90681000Y-92906500D01*
%TO.N,Net-(C3-Pad2)*%
X87881000Y-90369000D02*
X87428000Y-89916000D01*
X91426500Y-95377000D02*
X90681000Y-94631500D01*
X89131000Y-94631500D02*
X90681000Y-94631500D01*
X89081000Y-94569000D02*
X87881000Y-93369000D01*
X87428000Y-89916000D02*
X86891500Y-89916000D01*
X89081000Y-94681500D02*
X89081000Y-94569000D01*
X87881000Y-93369000D02*
X87881000Y-90369000D01*
X92710000Y-95377000D02*
X91426500Y-95377000D01*
X89081000Y-94681500D02*
X89131000Y-94631500D01*
%TO.N,/ADC/AIN+*%
X76218500Y-100569000D02*
X76218500Y-97231500D01*
X76218500Y-101167417D02*
X76218500Y-100569000D01*
X74930000Y-102455917D02*
X76218500Y-101167417D01*
X76218500Y-97231500D02*
X83507500Y-89942500D01*
X83507500Y-89942500D02*
X85040000Y-89942500D01*
%TO.N,/ADC/AIN-*%
X77943500Y-97036000D02*
X83312000Y-91667500D01*
X85066500Y-91567000D02*
X83412500Y-91567000D01*
X77943500Y-100365204D02*
X77943500Y-97036000D01*
X76200000Y-102108704D02*
X77943500Y-100365204D01*
%TO.N,SDA*%
X79181919Y-112319000D02*
X79181919Y-111069919D01*
X81081000Y-120681500D02*
X79328525Y-122433975D01*
X103023000Y-109321000D02*
X102362000Y-109982000D01*
X74930000Y-107326567D02*
X74930000Y-108854635D01*
X79181919Y-111069919D02*
X78881000Y-110769000D01*
X79328525Y-122433975D02*
X76202075Y-122433975D01*
X74930000Y-108854635D02*
X74681000Y-109103635D01*
X103996000Y-109321000D02*
X103023000Y-109321000D01*
%TO.N,SCL*%
X102521400Y-108671000D02*
X101637499Y-109554901D01*
X77380081Y-113619000D02*
X76531000Y-113619000D01*
X73660000Y-107326567D02*
X73660000Y-108590000D01*
X73660000Y-108590000D02*
X73281000Y-108969000D01*
X77969356Y-124142940D02*
X79219560Y-124142940D01*
X80937250Y-122425250D02*
X82681000Y-120681500D01*
X101637499Y-109554901D02*
X101637499Y-110627133D01*
X89851000Y-123180000D02*
X81692000Y-123180000D01*
X79219560Y-124142940D02*
X80937250Y-122425250D01*
X91440000Y-124769000D02*
X89851000Y-123180000D01*
X81692000Y-123180000D02*
X80937250Y-122425250D01*
X101637499Y-110627133D02*
X102487287Y-111476921D01*
X76531000Y-113619000D02*
X75681000Y-112769000D01*
X103996000Y-108671000D02*
X102521400Y-108671000D01*
%TO.N,+1V8*%
X81544195Y-108495501D02*
X80081000Y-109958696D01*
D43*
X80031000Y-117031500D02*
X80081000Y-117081500D01*
D42*
X80081000Y-110481500D02*
X80081000Y-110769000D01*
D43*
X80518500Y-117081500D02*
X82231000Y-115369000D01*
X80081000Y-117081500D02*
X80518500Y-117081500D01*
X75031000Y-114106500D02*
X75031000Y-115381500D01*
D42*
X80481000Y-112569000D02*
X80481000Y-111169000D01*
X79181919Y-112969000D02*
X80081000Y-112969000D01*
D43*
X75031000Y-115381500D02*
X76681000Y-117031500D01*
D42*
X80081000Y-112969000D02*
X80481000Y-112569000D01*
X80081000Y-109958696D02*
X80081000Y-110769000D01*
X81698499Y-108495501D02*
X81544195Y-108495501D01*
X77380081Y-112969000D02*
X79181919Y-112969000D01*
X80481000Y-109081500D02*
X80081000Y-109481500D01*
D43*
X80081000Y-117081500D02*
X80081000Y-118769000D01*
D42*
X78881000Y-109281500D02*
X80081000Y-110481500D01*
X80081000Y-109481500D02*
X80081000Y-110769000D01*
D43*
X76681000Y-117031500D02*
X78281000Y-117031500D01*
X80081000Y-118769000D02*
X78281000Y-120569000D01*
X78281000Y-117031500D02*
X80031000Y-117031500D01*
D42*
X80481000Y-111169000D02*
X80081000Y-110769000D01*
%TO.N,/MCU + IO/AS7341_INT*%
X80481000Y-106999000D02*
X80481000Y-107256500D01*
X80281000Y-107056500D02*
X80281000Y-105369000D01*
X80481000Y-107256500D02*
X80281000Y-107056500D01*
X82231000Y-106509000D02*
X80971000Y-106509000D01*
X82681000Y-106959000D02*
X82231000Y-106509000D01*
X80971000Y-106509000D02*
X80481000Y-106999000D01*
X82681000Y-107269000D02*
X82681000Y-106959000D01*
%TO.N,/ADC/DRDY_INT*%
X72390000Y-107326567D02*
X72390000Y-105169000D01*
%TO.N,/ADC/AIN2+*%
X72818500Y-98969000D02*
X72881000Y-98906500D01*
X72818500Y-100569000D02*
X72818500Y-98969000D01*
X100468000Y-117856000D02*
X98425000Y-117856000D01*
X72390000Y-100997500D02*
X72818500Y-100569000D01*
X72881000Y-98906500D02*
X72881000Y-97569000D01*
X100831000Y-117506500D02*
X100817500Y-117506500D01*
X72390000Y-102694433D02*
X72390000Y-100997500D01*
X100817500Y-117506500D02*
X100468000Y-117856000D01*
%TO.N,/ADC/AIN2-*%
X86768500Y-116081500D02*
X87899533Y-114950467D01*
X73660000Y-101827500D02*
X74649500Y-100838000D01*
X73660000Y-102694433D02*
X73660000Y-101827500D01*
X74649500Y-100838000D02*
X74649500Y-96937500D01*
X74649500Y-96937500D02*
X74481000Y-96769000D01*
%TO.N,/MCU + IO/SCL_2v*%
X80946499Y-111303501D02*
X80946499Y-113173001D01*
X82444022Y-109805978D02*
X80946499Y-111303501D01*
X82444022Y-109300978D02*
X82444022Y-109805978D01*
X80500500Y-113619000D02*
X80946499Y-113173001D01*
X79181919Y-113619000D02*
X80500500Y-113619000D01*
X82681000Y-108549000D02*
X82681000Y-109064000D01*
X79181919Y-114357419D02*
X80081000Y-115256500D01*
X82681000Y-109064000D02*
X82444022Y-109300978D01*
X79181919Y-113619000D02*
X79181919Y-114357419D01*
%TO.N,/MCU + IO/SDA_2v*%
X81881000Y-107269000D02*
X81081000Y-108069000D01*
X81081000Y-108069000D02*
X79493500Y-108069000D01*
X78881000Y-107456500D02*
X78081000Y-108256500D01*
X79493500Y-108069000D02*
X78881000Y-107456500D01*
X78081000Y-111618081D02*
X77380081Y-112319000D01*
X78081000Y-108256500D02*
X78081000Y-111618081D01*
%TO.N,GND*%
X74018500Y-110169000D02*
X74018500Y-110631500D01*
X74018500Y-110631500D02*
X72681000Y-111969000D01*
X83331000Y-108619000D02*
X83331000Y-108809000D01*
X84281000Y-106969000D02*
X83461000Y-106149000D01*
X86614000Y-94006500D02*
X84963000Y-94006500D01*
X68580000Y-102694433D02*
X69850000Y-102694433D01*
X109872000Y-109321000D02*
X108449000Y-109321000D01*
X84927474Y-116367526D02*
X84963000Y-116332000D01*
X83481000Y-108549000D02*
X83481000Y-109569000D01*
D43*
X88818500Y-96431500D02*
X88081000Y-97169000D01*
D42*
X78281000Y-115306500D02*
X78281000Y-114600542D01*
X109872000Y-108671000D02*
X109872000Y-109321000D01*
X84281000Y-107269000D02*
X84281000Y-106969000D01*
X83481000Y-109569000D02*
X83281000Y-109769000D01*
X109872000Y-109321000D02*
X109872000Y-109971000D01*
X108449000Y-109321000D02*
X108131000Y-109639000D01*
X72556500Y-109994500D02*
X72556500Y-110169000D01*
D43*
X68580000Y-107326567D02*
X68580000Y-109005500D01*
D42*
X71606000Y-109044000D02*
X72556500Y-109994500D01*
X86614000Y-93599000D02*
X85852000Y-92837000D01*
D43*
X68580000Y-109005500D02*
X68681000Y-109106500D01*
X88818500Y-96169000D02*
X88818500Y-96431500D01*
D42*
X78281000Y-114600542D02*
X78089007Y-114408549D01*
%TO.N,Net-(X1-Tri-State)*%
X71606000Y-111956500D02*
X71193500Y-112369000D01*
X71606000Y-110894000D02*
X71606000Y-111956500D01*
%TO.N,Net-(D6-K)*%
X80081786Y-103969786D02*
X80081786Y-102994188D01*
X80881000Y-102194974D02*
X80881000Y-101881500D01*
X81281000Y-105169000D02*
X80081786Y-103969786D01*
X81951500Y-105169000D02*
X81281000Y-105169000D01*
X80081786Y-102994188D02*
X80881000Y-102194974D01*
D43*
%TO.N,Net-(D7-K)*%
X85256000Y-102256500D02*
X85256000Y-100769000D01*
X85768500Y-102769000D02*
X85256000Y-102256500D01*
D42*
%TO.N,Net-(D8-K)*%
X100210500Y-101727000D02*
X95568500Y-101727000D01*
%TO.N,Net-(D9-K)*%
X99204500Y-103169000D02*
X98106500Y-104267000D01*
X98106500Y-104267000D02*
X96102500Y-104267000D01*
X100368500Y-103169000D02*
X99204500Y-103169000D01*
%TO.N,Net-(D10-K)*%
X98584500Y-106553000D02*
X96864500Y-106553000D01*
X100281000Y-104856500D02*
X98584500Y-106553000D01*
%TO.N,Net-(D11-K)*%
X98782500Y-108839000D02*
X96864500Y-108839000D01*
X100025000Y-110081500D02*
X98782500Y-108839000D01*
%TO.N,Net-(C2-Pad2)*%
X101910500Y-97155000D02*
X103251000Y-97155000D01*
X100006000Y-96747500D02*
X101250000Y-96747500D01*
X86891500Y-91567000D02*
X87081000Y-91756500D01*
X101250000Y-96747500D02*
X101784000Y-97281500D01*
X97650000Y-96647000D02*
X99905500Y-96647000D01*
X87081000Y-91756500D02*
X87081000Y-92769000D01*
%TO.N,Net-(U2-VBG)*%
X71081000Y-101180000D02*
X71081000Y-100631500D01*
X71120000Y-101219000D02*
X71081000Y-101180000D01*
X71120000Y-102694433D02*
X71120000Y-101219000D01*
%TO.N,/InGaS Sensor/Anode_2*%
X89881000Y-117189000D02*
X90261000Y-117569000D01*
X92181000Y-118319000D02*
X92181000Y-119269000D01*
X91431000Y-117569000D02*
X92181000Y-118319000D01*
X89281000Y-111669000D02*
X89281000Y-112969000D01*
X89281000Y-112969000D02*
X89881000Y-113569000D01*
X90261000Y-117569000D02*
X91431000Y-117569000D01*
X92181000Y-119269000D02*
X91435000Y-120015000D01*
X89881000Y-113569000D02*
X89881000Y-117189000D01*
X90736663Y-120015000D02*
X90373163Y-119651500D01*
X90373163Y-119651500D02*
X87021000Y-119651500D01*
%TO.N,Net-(C12-Pad2)*%
X89226000Y-118771500D02*
X90710163Y-118771500D01*
X88381000Y-117926500D02*
X89226000Y-118771500D01*
X88381000Y-117926500D02*
X86921000Y-117926500D01*
X88593500Y-116369000D02*
X88593500Y-117894000D01*
%TO.N,/InGaS Sensor/Cathode_2*%
X89068500Y-110206500D02*
X87881000Y-111394000D01*
X92630511Y-118688185D02*
X95227326Y-121285000D01*
X92630511Y-118132807D02*
X92630511Y-118688185D01*
X89393500Y-110206500D02*
X89068500Y-110206500D01*
X89068500Y-110206500D02*
X88974750Y-110300250D01*
X91617194Y-117119490D02*
X92630511Y-118132807D01*
X90681000Y-111669000D02*
X90681000Y-116723296D01*
X89593500Y-110206500D02*
X89393500Y-110206500D01*
X90681000Y-111294000D02*
X89593500Y-110206500D01*
X98005663Y-121258500D02*
X99252663Y-121258500D01*
X90681000Y-109194000D02*
X89668500Y-110206500D01*
X95676663Y-121285000D02*
X97752163Y-121285000D01*
X89668500Y-110206500D02*
X89393500Y-110206500D01*
X89393500Y-110206500D02*
X89281000Y-110094000D01*
X88974750Y-110300250D02*
X87881000Y-109206500D01*
X89281000Y-110094000D02*
X89281000Y-108769000D01*
X91077193Y-117119489D02*
X91617194Y-117119490D01*
X90681000Y-116723296D02*
X91077193Y-117119489D01*
%TO.N,Net-(C21-Pad2)*%
X100831000Y-119331500D02*
X99611663Y-119331500D01*
X99252663Y-119306500D02*
X97778663Y-119306500D01*
X97070163Y-120015000D02*
X97778663Y-119306500D01*
X95676663Y-120015000D02*
X97070163Y-120015000D01*
X99611663Y-119331500D02*
X99536663Y-119256500D01*
%TO.N,Net-(D2-A)*%
X93896999Y-124297497D02*
X95095016Y-124297497D01*
X95095016Y-124297497D02*
X95135000Y-124257513D01*
%TO.N,Net-(D3-CATHODE)*%
X84281000Y-110559000D02*
X83271000Y-111569000D01*
X84281000Y-108549000D02*
X84281000Y-110559000D01*
%TO.N,Net-(D4-K)*%
X95768500Y-113969000D02*
X98168500Y-113969000D01*
%TO.N,Net-(D5-K)*%
X97543530Y-112169000D02*
X96753530Y-111379000D01*
X98168500Y-112169000D02*
X97543530Y-112169000D01*
X96753530Y-111379000D02*
X95848500Y-111379000D01*
%TO.N,Net-(U5-~{OUT0})*%
X108231833Y-108021000D02*
X108157333Y-108095500D01*
X101331000Y-113969000D02*
X103692257Y-111607743D01*
X99993500Y-113969000D02*
X101331000Y-113969000D01*
X103692257Y-111607743D02*
X103692257Y-111133368D01*
X109872000Y-108021000D02*
X108231833Y-108021000D01*
%TO.N,Net-(U5-~{OUT1})*%
X107117000Y-107371000D02*
X107061000Y-107315000D01*
X98695500Y-110871000D02*
X98681000Y-110871000D01*
X109872000Y-107371000D02*
X107117000Y-107371000D01*
X99993500Y-112169000D02*
X98695500Y-110871000D01*
%TO.N,Net-(U5-~{OUT2})*%
X80881000Y-100056500D02*
X81288500Y-99649000D01*
X107610000Y-106721000D02*
X106680000Y-105791000D01*
X109872000Y-106721000D02*
X107610000Y-106721000D01*
X81288500Y-99649000D02*
X82991000Y-99649000D01*
%TO.N,Net-(U5-~{OUT3})*%
X87023500Y-101711500D02*
X87281000Y-101969000D01*
X109872000Y-106071000D02*
X108357000Y-106071000D01*
X108357000Y-106071000D02*
X107569000Y-105283000D01*
X87023500Y-100889000D02*
X87023500Y-101711500D01*
%TO.N,Net-(U5-~{OUT4})*%
X103996000Y-105421000D02*
X103996000Y-103371500D01*
X103996000Y-103371500D02*
X102193500Y-101569000D01*
%TO.N,Net-(U5-~{OUT5})*%
X103996000Y-106071000D02*
X103008500Y-106071000D01*
X103008500Y-106071000D02*
X102193500Y-105256000D01*
X102193500Y-105256000D02*
X102193500Y-103169000D01*
%TO.N,Net-(U5-~{OUT6})*%
X103996000Y-106721000D02*
X100320500Y-106721000D01*
%TO.N,Net-(U5-~{OUT7})*%
X103996000Y-107371000D02*
X101166500Y-107371000D01*
X101166500Y-107371000D02*
X100281000Y-108256500D01*
%TO.N,Net-(U2-XIN)*%
X70156000Y-109044000D02*
X69850000Y-108738000D01*
X69850000Y-108738000D02*
X69850000Y-107326567D01*
%TO.N,/LED/LED_RESET*%
X103996000Y-108021000D02*
X104983500Y-108021000D01*
X104983500Y-108021000D02*
X107973500Y-111011000D01*
X107973500Y-111887000D02*
X109347000Y-111887000D01*
X107973500Y-111011000D02*
X107973500Y-111887000D01*
X109347000Y-111887000D02*
X109601000Y-111633000D01*
D43*
%TO.N,+3.3V*%
X106148500Y-113499000D02*
X106218500Y-113569000D01*
X73743500Y-115969000D02*
X76218500Y-118444000D01*
X91143500Y-89031500D02*
X90881000Y-88769000D01*
D42*
X92727503Y-126122497D02*
X93896999Y-126122497D01*
D43*
X76218500Y-118444000D02*
X76218500Y-118569000D01*
X91021500Y-96647000D02*
X90543500Y-96169000D01*
X68681000Y-110831500D02*
X70093500Y-110831500D01*
X92873500Y-102007000D02*
X91402051Y-100535551D01*
X106148500Y-111126500D02*
X105871000Y-110849000D01*
X92793500Y-114856500D02*
X91881000Y-115769000D01*
X83481000Y-93944000D02*
X83256000Y-93719000D01*
X92873500Y-104267000D02*
X92873500Y-102007000D01*
X76200000Y-109912500D02*
X76200000Y-107326567D01*
X69281000Y-112369000D02*
X68681000Y-111769000D01*
X95418500Y-116769000D02*
X94081000Y-116769000D01*
X73743500Y-115969000D02*
X74081000Y-115631500D01*
X92793500Y-113969000D02*
X92793500Y-114856500D01*
X90543500Y-97431500D02*
X90681000Y-97569000D01*
X81081000Y-118856500D02*
X82516448Y-118856500D01*
X81993500Y-103569000D02*
X81081000Y-103569000D01*
X93889500Y-105029000D02*
X93889500Y-106553000D01*
X74081000Y-112031500D02*
X75743500Y-110369000D01*
X90543500Y-96169000D02*
X90543500Y-97431500D01*
X85281000Y-112769000D02*
X84681000Y-113369000D01*
X106148500Y-111887000D02*
X106148500Y-111126500D01*
X82793500Y-102769000D02*
X81993500Y-103569000D01*
X83256000Y-93719000D02*
X83256000Y-93194000D01*
X93896999Y-126122497D02*
X95281000Y-126122497D01*
X82793500Y-103036000D02*
X84926500Y-105169000D01*
X93127500Y-104267000D02*
X93889500Y-105029000D01*
X74081000Y-112231500D02*
X74081000Y-112031500D01*
X83256000Y-93194000D02*
X83681000Y-92769000D01*
X105912000Y-111887000D02*
X104020511Y-109995511D01*
X69481000Y-114569500D02*
X69481000Y-114969000D01*
X82793500Y-102769000D02*
X82793500Y-103036000D01*
X74081000Y-115631500D02*
X74081000Y-112231500D01*
X90881000Y-88769000D02*
X89881000Y-88769000D01*
X68681000Y-111769000D02*
X68681000Y-110831500D01*
D42*
X91881000Y-126969000D02*
X92727503Y-126122497D01*
D43*
X91402051Y-100535551D02*
X91402051Y-100123252D01*
X95676663Y-118745000D02*
X95676663Y-117027163D01*
X69481000Y-112856500D02*
X69481000Y-114569500D01*
X93889500Y-108839000D02*
X93889500Y-110363000D01*
X82081000Y-117569000D02*
X82681000Y-118169000D01*
X82681000Y-118169000D02*
X82681000Y-118856500D01*
X92881000Y-111386500D02*
X92881000Y-113881500D01*
X74377253Y-120550837D02*
X76218500Y-118709590D01*
X106148500Y-111887000D02*
X106148500Y-113499000D01*
X75743500Y-110369000D02*
X76200000Y-109912500D01*
X95676663Y-117027163D02*
X95418500Y-116769000D01*
X92710000Y-96647000D02*
X91021500Y-96647000D01*
X76218500Y-118709590D02*
X76218500Y-118569000D01*
X85281000Y-110845000D02*
X85281000Y-112769000D01*
X69368500Y-112369000D02*
X69281000Y-112369000D01*
X93889500Y-110363000D02*
X92873500Y-111379000D01*
X70093500Y-110831500D02*
X70156000Y-110894000D01*
%TO.N,VDDA*%
X93499808Y-121285000D02*
X90736663Y-121285000D01*
X92093500Y-90906500D02*
X92817125Y-90906500D01*
X97818500Y-125706500D02*
X98281000Y-126169000D01*
X92817125Y-90906500D02*
X92929125Y-91018500D01*
X95676663Y-122555000D02*
X97804500Y-122555000D01*
X86593500Y-97369000D02*
X88193500Y-98969000D01*
X97650000Y-94107000D02*
X96857500Y-94107000D01*
X93481000Y-90730500D02*
X93936500Y-91186000D01*
X94769808Y-122555000D02*
X93499808Y-121285000D01*
X88193500Y-98969000D02*
X88681000Y-98969000D01*
X92710000Y-92837000D02*
X93936500Y-91610500D01*
X93632875Y-91018500D02*
X93700938Y-90950438D01*
X97818500Y-122569000D02*
X97818500Y-125706500D01*
X93481000Y-90169000D02*
X93481000Y-90730500D01*
X92929125Y-91018500D02*
X93632875Y-91018500D01*
X95676663Y-122555000D02*
X94769808Y-122555000D01*
X93936500Y-91610500D02*
X93936500Y-91186000D01*
X96857500Y-94107000D02*
X93936500Y-91186000D01*
X93700938Y-90950438D02*
X93936500Y-91186000D01*
%TO.N,Net-(U2-AVDD{slash}LDO)*%
X79681000Y-98969000D02*
X79681000Y-100969000D01*
X84963000Y-95731500D02*
X83518500Y-95731500D01*
X83481000Y-95769000D02*
X81481000Y-97769000D01*
X84963000Y-95731500D02*
X86614000Y-95731500D01*
X79681000Y-100969000D02*
X77955567Y-102694433D01*
X80881000Y-97769000D02*
X79681000Y-98969000D01*
X84963000Y-97174500D02*
X84768500Y-97369000D01*
X81481000Y-97769000D02*
X80881000Y-97769000D01*
X83518500Y-95731500D02*
X83481000Y-95769000D01*
X85106000Y-95769000D02*
X83481000Y-95769000D01*
X77470000Y-102694433D02*
X77470000Y-107326567D01*
X77955567Y-102694433D02*
X77470000Y-102694433D01*
X84963000Y-95731500D02*
X84963000Y-97174500D01*
%TD*%
%TA.AperFunction,Conductor*%
%TO.N,GND*%
G36*
X79351732Y-117595153D02*
G01*
X79396078Y-117631865D01*
X79459500Y-117715500D01*
X79480634Y-117731526D01*
X79517347Y-117775873D01*
X79530500Y-117831923D01*
X79530500Y-118488785D01*
X79520909Y-118537003D01*
X79493595Y-118577881D01*
X78961140Y-119110334D01*
X78901877Y-119143656D01*
X78833928Y-119141334D01*
X78777077Y-119104045D01*
X78747877Y-119042646D01*
X78754830Y-118975013D01*
X78770627Y-118934954D01*
X78781000Y-118848579D01*
X78781000Y-118719000D01*
X78093500Y-118719000D01*
X78093500Y-119349290D01*
X78118451Y-119392100D01*
X78119239Y-119456321D01*
X78088270Y-119512588D01*
X78033591Y-119546280D01*
X77877048Y-119593767D01*
X77694550Y-119691314D01*
X77534589Y-119822589D01*
X77403314Y-119982550D01*
X77305769Y-120165043D01*
X77305768Y-120165045D01*
X77305768Y-120165046D01*
X77265764Y-120296925D01*
X77245699Y-120363070D01*
X77225416Y-120569000D01*
X77245699Y-120774929D01*
X77245699Y-120774931D01*
X77245700Y-120774934D01*
X77304334Y-120968226D01*
X77305769Y-120972956D01*
X77403314Y-121155449D01*
X77534589Y-121315410D01*
X77667927Y-121424836D01*
X77694550Y-121446685D01*
X77877046Y-121544232D01*
X78075066Y-121604300D01*
X78281000Y-121624583D01*
X78486934Y-121604300D01*
X78684954Y-121544232D01*
X78867450Y-121446685D01*
X79027410Y-121315410D01*
X79158685Y-121155450D01*
X79256232Y-120972954D01*
X79316300Y-120774934D01*
X79336583Y-120569000D01*
X79317582Y-120376085D01*
X79324340Y-120321289D01*
X79353876Y-120274647D01*
X80218677Y-119409845D01*
X80280732Y-119375877D01*
X80351313Y-119380705D01*
X80408167Y-119422808D01*
X80459497Y-119490497D01*
X80459498Y-119490498D01*
X80459500Y-119490500D01*
X80577342Y-119579862D01*
X80714923Y-119634117D01*
X80796376Y-119643898D01*
X80852836Y-119665240D01*
X80892893Y-119710394D01*
X80907352Y-119768998D01*
X80892894Y-119827602D01*
X80852838Y-119872757D01*
X80796377Y-119894100D01*
X80714923Y-119903882D01*
X80577344Y-119958137D01*
X80577343Y-119958137D01*
X80577342Y-119958138D01*
X80459500Y-120047500D01*
X80370138Y-120165342D01*
X80370137Y-120165343D01*
X80370137Y-120165344D01*
X80315882Y-120302924D01*
X80305500Y-120389380D01*
X80305500Y-120803062D01*
X80295909Y-120851280D01*
X80268595Y-120892157D01*
X79189182Y-121971570D01*
X79148305Y-121998884D01*
X79100087Y-122008475D01*
X77368050Y-122008475D01*
X77301719Y-121989602D01*
X77255259Y-121938638D01*
X77250709Y-121929500D01*
X77250709Y-121929499D01*
X77155670Y-121738633D01*
X77027176Y-121568481D01*
X76869606Y-121424836D01*
X76869605Y-121424835D01*
X76688325Y-121312590D01*
X76489502Y-121235567D01*
X76279914Y-121196388D01*
X76066694Y-121196388D01*
X75926968Y-121222507D01*
X75857105Y-121235567D01*
X75658282Y-121312590D01*
X75476998Y-121424837D01*
X75461049Y-121439377D01*
X75406896Y-121468456D01*
X75345430Y-121468455D01*
X75291278Y-121439375D01*
X75257327Y-121388136D01*
X75251656Y-121326932D01*
X75275615Y-121270330D01*
X75359619Y-121159092D01*
X75454658Y-120968226D01*
X75513009Y-120763147D01*
X75532682Y-120550837D01*
X75513009Y-120338527D01*
X75501170Y-120296921D01*
X75500407Y-120230770D01*
X75533263Y-120173350D01*
X76325212Y-119381401D01*
X76366086Y-119354091D01*
X76414304Y-119344500D01*
X76560620Y-119344500D01*
X76606966Y-119338934D01*
X76647077Y-119334117D01*
X76784658Y-119279862D01*
X76902500Y-119190500D01*
X76980916Y-119087091D01*
X77025263Y-119050379D01*
X77081312Y-119037226D01*
X77137362Y-119050379D01*
X77181710Y-119087092D01*
X77259856Y-119190143D01*
X77377587Y-119279421D01*
X77515043Y-119333627D01*
X77601421Y-119344000D01*
X77793500Y-119344000D01*
X77793500Y-118545000D01*
X77810381Y-118482000D01*
X77856500Y-118435881D01*
X77919500Y-118419000D01*
X78781000Y-118419000D01*
X78781000Y-118289421D01*
X78770627Y-118203043D01*
X78716421Y-118065587D01*
X78680327Y-118017990D01*
X78656940Y-117965382D01*
X78659397Y-117907861D01*
X78687184Y-117857438D01*
X78734496Y-117824643D01*
X78784658Y-117804862D01*
X78902500Y-117715500D01*
X78965921Y-117631865D01*
X79010268Y-117595153D01*
X79066318Y-117582000D01*
X79295682Y-117582000D01*
X79351732Y-117595153D01*
G37*
%TD.AperFunction*%
%TA.AperFunction,Conductor*%
G36*
X75796436Y-113505605D02*
G01*
X75846595Y-113536343D01*
X76182472Y-113872220D01*
X76277780Y-113967528D01*
X76299159Y-113978421D01*
X76316012Y-113988749D01*
X76335420Y-114002850D01*
X76358232Y-114010262D01*
X76376501Y-114017829D01*
X76397874Y-114028719D01*
X76421564Y-114032471D01*
X76440795Y-114037087D01*
X76463607Y-114044500D01*
X76497512Y-114044500D01*
X76512171Y-114044500D01*
X76551961Y-114050948D01*
X76582803Y-114067081D01*
X76585732Y-114068173D01*
X76585733Y-114068174D01*
X76722215Y-114119079D01*
X76782551Y-114125566D01*
X77977610Y-114125566D01*
X77977611Y-114125566D01*
X78037947Y-114119079D01*
X78158371Y-114074163D01*
X78206103Y-114066274D01*
X78253293Y-114076956D01*
X78254007Y-114077271D01*
X78254008Y-114077272D01*
X78356782Y-114122651D01*
X78381908Y-114125566D01*
X78630419Y-114125566D01*
X78693419Y-114142447D01*
X78739538Y-114188566D01*
X78756419Y-114251566D01*
X78756419Y-114350482D01*
X78736942Y-114417778D01*
X78684534Y-114464269D01*
X78615396Y-114475583D01*
X78560579Y-114469000D01*
X78431000Y-114469000D01*
X78431000Y-115330500D01*
X78414119Y-115393500D01*
X78368000Y-115439619D01*
X78305000Y-115456500D01*
X76657000Y-115456500D01*
X76594000Y-115439619D01*
X76547881Y-115393500D01*
X76531000Y-115330500D01*
X76531000Y-114469000D01*
X76831000Y-114469000D01*
X76831000Y-115156500D01*
X78131000Y-115156500D01*
X78131000Y-114469000D01*
X78001421Y-114469000D01*
X77915043Y-114479372D01*
X77777587Y-114533578D01*
X77659856Y-114622856D01*
X77581397Y-114726321D01*
X77537050Y-114763034D01*
X77481000Y-114776187D01*
X77424950Y-114763034D01*
X77380603Y-114726321D01*
X77302143Y-114622856D01*
X77184412Y-114533578D01*
X77046956Y-114479372D01*
X76960579Y-114469000D01*
X76831000Y-114469000D01*
X76531000Y-114469000D01*
X76401421Y-114469000D01*
X76315043Y-114479372D01*
X76177587Y-114533578D01*
X76059856Y-114622856D01*
X75970578Y-114740587D01*
X75916372Y-114878043D01*
X75906000Y-114964421D01*
X75906000Y-115173785D01*
X75892267Y-115230988D01*
X75854061Y-115275721D01*
X75799711Y-115298234D01*
X75741064Y-115293618D01*
X75690905Y-115262880D01*
X75618405Y-115190380D01*
X75591091Y-115149503D01*
X75581500Y-115101285D01*
X75581500Y-114934843D01*
X75588571Y-114893228D01*
X75626498Y-114784837D01*
X75628646Y-114778699D01*
X75631500Y-114748266D01*
X75631500Y-113625438D01*
X75645233Y-113568235D01*
X75683439Y-113523502D01*
X75737789Y-113500989D01*
X75796436Y-113505605D01*
G37*
%TD.AperFunction*%
%TA.AperFunction,Conductor*%
G36*
X83568000Y-108415881D02*
G01*
X83614119Y-108462000D01*
X83631000Y-108525000D01*
X83631000Y-109193999D01*
X83729500Y-109193999D01*
X83792500Y-109210880D01*
X83838619Y-109256999D01*
X83855500Y-109319999D01*
X83855500Y-110092500D01*
X83838619Y-110155500D01*
X83792500Y-110201619D01*
X83729500Y-110218500D01*
X82917543Y-110218500D01*
X82851708Y-110199933D01*
X82805276Y-110149703D01*
X82791931Y-110082614D01*
X82815607Y-110018439D01*
X82827870Y-110001560D01*
X82827869Y-110001560D01*
X82827871Y-110001559D01*
X82835284Y-109978739D01*
X82842844Y-109960488D01*
X82853741Y-109939104D01*
X82857494Y-109915400D01*
X82862106Y-109896191D01*
X82869522Y-109873371D01*
X82869522Y-109738585D01*
X82869522Y-109529416D01*
X82879113Y-109481198D01*
X82906424Y-109440323D01*
X83005554Y-109341194D01*
X83005553Y-109341194D01*
X83029528Y-109317220D01*
X83029530Y-109317216D01*
X83034587Y-109312159D01*
X83037192Y-109302178D01*
X83037731Y-109301119D01*
X83040416Y-109295848D01*
X83050741Y-109278997D01*
X83064850Y-109259580D01*
X83064851Y-109259576D01*
X83074764Y-109245934D01*
X83119497Y-109207732D01*
X83176697Y-109194000D01*
X83331000Y-109194000D01*
X83331000Y-108525000D01*
X83347881Y-108462000D01*
X83394000Y-108415881D01*
X83457000Y-108399000D01*
X83505000Y-108399000D01*
X83568000Y-108415881D01*
G37*
%TD.AperFunction*%
%TA.AperFunction,Conductor*%
G36*
X87553936Y-93663105D02*
G01*
X87604095Y-93693843D01*
X88268595Y-94358343D01*
X88295909Y-94399220D01*
X88305500Y-94447438D01*
X88305500Y-94973620D01*
X88315882Y-95060075D01*
X88370138Y-95197658D01*
X88394993Y-95230434D01*
X88418380Y-95283042D01*
X88415924Y-95340562D01*
X88388137Y-95390984D01*
X88340820Y-95423783D01*
X88252588Y-95458577D01*
X88134856Y-95547856D01*
X88045578Y-95665587D01*
X87991372Y-95803043D01*
X87981000Y-95889421D01*
X87981000Y-96019000D01*
X88842500Y-96019000D01*
X88905500Y-96035881D01*
X88951619Y-96082000D01*
X88968500Y-96145000D01*
X88968500Y-96944000D01*
X89160579Y-96944000D01*
X89246956Y-96933627D01*
X89384412Y-96879421D01*
X89502140Y-96790145D01*
X89580288Y-96687092D01*
X89624636Y-96650379D01*
X89680686Y-96637226D01*
X89736736Y-96650379D01*
X89781083Y-96687092D01*
X89859229Y-96790143D01*
X89859500Y-96790500D01*
X89943134Y-96853921D01*
X89979847Y-96898268D01*
X89993000Y-96954318D01*
X89993000Y-97416056D01*
X89992081Y-97431243D01*
X89986770Y-97474989D01*
X89975355Y-97569000D01*
X89977611Y-97587578D01*
X89995859Y-97737871D01*
X90056181Y-97896929D01*
X90085993Y-97940119D01*
X90152817Y-98036929D01*
X90280148Y-98149734D01*
X90430775Y-98228790D01*
X90595944Y-98269500D01*
X90595946Y-98269500D01*
X90596603Y-98269662D01*
X90650002Y-98297689D01*
X90680999Y-98342596D01*
X90711998Y-98297689D01*
X90765397Y-98269662D01*
X90766054Y-98269500D01*
X90766056Y-98269500D01*
X90931225Y-98228790D01*
X91081852Y-98149734D01*
X91209183Y-98036929D01*
X91305818Y-97896930D01*
X91366140Y-97737872D01*
X91386645Y-97569000D01*
X91366140Y-97400128D01*
X91355034Y-97370843D01*
X91354024Y-97368179D01*
X91346755Y-97308312D01*
X91368140Y-97251923D01*
X91413281Y-97211932D01*
X91471836Y-97197500D01*
X91555909Y-97197500D01*
X91609158Y-97209304D01*
X91676987Y-97240934D01*
X91726863Y-97247500D01*
X93682500Y-97247499D01*
X93745500Y-97264380D01*
X93791619Y-97310499D01*
X93808500Y-97373499D01*
X93808500Y-98069562D01*
X93798909Y-98117780D01*
X93771595Y-98158657D01*
X93449156Y-98481096D01*
X93408279Y-98508410D01*
X93360061Y-98518001D01*
X90795551Y-98518001D01*
X90736996Y-98503568D01*
X90691855Y-98463577D01*
X90681000Y-98434954D01*
X90670145Y-98463577D01*
X90625004Y-98503568D01*
X90566449Y-98518001D01*
X89967199Y-98518001D01*
X89944385Y-98525413D01*
X89925166Y-98530027D01*
X89901469Y-98533780D01*
X89880091Y-98544673D01*
X89861829Y-98552237D01*
X89839013Y-98559650D01*
X89819597Y-98573756D01*
X89802748Y-98584080D01*
X89781375Y-98594970D01*
X89697869Y-98678473D01*
X89697865Y-98678480D01*
X89561705Y-98814639D01*
X89508274Y-98846390D01*
X89446164Y-98848736D01*
X89390490Y-98821106D01*
X89354798Y-98770222D01*
X89349594Y-98756500D01*
X89305818Y-98641070D01*
X89209183Y-98501071D01*
X89081852Y-98388266D01*
X88931225Y-98309210D01*
X88766056Y-98268500D01*
X88595944Y-98268500D01*
X88430775Y-98309210D01*
X88430772Y-98309211D01*
X88415921Y-98312872D01*
X88415784Y-98312317D01*
X88384178Y-98321128D01*
X88331892Y-98313170D01*
X88287478Y-98284453D01*
X87418405Y-97415380D01*
X87391091Y-97374503D01*
X87381500Y-97326285D01*
X87381500Y-97089380D01*
X87372748Y-97016507D01*
X87371117Y-97002923D01*
X87316862Y-96865342D01*
X87227500Y-96747500D01*
X87144987Y-96684928D01*
X87108276Y-96640583D01*
X87095123Y-96584533D01*
X87108276Y-96528483D01*
X87144988Y-96484136D01*
X87235500Y-96415500D01*
X87308678Y-96319000D01*
X87981000Y-96319000D01*
X87981000Y-96448579D01*
X87991372Y-96534956D01*
X88045578Y-96672412D01*
X88134856Y-96790143D01*
X88252587Y-96879421D01*
X88390043Y-96933627D01*
X88476421Y-96944000D01*
X88668500Y-96944000D01*
X88668500Y-96319000D01*
X87981000Y-96319000D01*
X87308678Y-96319000D01*
X87324862Y-96297658D01*
X87379117Y-96160077D01*
X87386860Y-96095603D01*
X87389500Y-96073620D01*
X87389500Y-95389380D01*
X87379117Y-95302924D01*
X87379117Y-95302923D01*
X87324862Y-95165342D01*
X87235500Y-95047500D01*
X87197028Y-95018326D01*
X87132092Y-94969083D01*
X87095379Y-94924736D01*
X87082226Y-94868686D01*
X87095379Y-94812636D01*
X87132092Y-94768288D01*
X87235145Y-94690140D01*
X87324421Y-94572412D01*
X87378627Y-94434956D01*
X87389000Y-94348579D01*
X87389000Y-94156500D01*
X86590000Y-94156500D01*
X86527000Y-94139619D01*
X86480881Y-94093500D01*
X86464000Y-94030500D01*
X86464000Y-93982500D01*
X86480881Y-93919500D01*
X86527000Y-93873381D01*
X86590000Y-93856500D01*
X87389000Y-93856500D01*
X87389000Y-93782938D01*
X87402733Y-93725735D01*
X87440939Y-93681002D01*
X87495289Y-93658489D01*
X87553936Y-93663105D01*
G37*
%TD.AperFunction*%
%TA.AperFunction,Conductor*%
G36*
X86037604Y-91755105D02*
G01*
X86082759Y-91795162D01*
X86104101Y-91851624D01*
X86113882Y-91933075D01*
X86120804Y-91950627D01*
X86168138Y-92070658D01*
X86257500Y-92188500D01*
X86375342Y-92277862D01*
X86383823Y-92281206D01*
X86435892Y-92319589D01*
X86462054Y-92378753D01*
X86455411Y-92443100D01*
X86395860Y-92600126D01*
X86375355Y-92768999D01*
X86395860Y-92937873D01*
X86419913Y-93001297D01*
X86427580Y-93057421D01*
X86409886Y-93111232D01*
X86370408Y-93151854D01*
X86317124Y-93171077D01*
X86248043Y-93179372D01*
X86110587Y-93233578D01*
X85992856Y-93322856D01*
X85893113Y-93454388D01*
X85892485Y-93453911D01*
X85871308Y-93483913D01*
X85818332Y-93511362D01*
X85758668Y-93511362D01*
X85705692Y-93483913D01*
X85684514Y-93453911D01*
X85683887Y-93454388D01*
X85584143Y-93322856D01*
X85466412Y-93233578D01*
X85328956Y-93179372D01*
X85242579Y-93169000D01*
X85113000Y-93169000D01*
X85113000Y-94030500D01*
X85096119Y-94093500D01*
X85050000Y-94139619D01*
X84987000Y-94156500D01*
X84939000Y-94156500D01*
X84876000Y-94139619D01*
X84829881Y-94093500D01*
X84813000Y-94030500D01*
X84813000Y-93169000D01*
X84683421Y-93169000D01*
X84597045Y-93179372D01*
X84482916Y-93224378D01*
X84425850Y-93232695D01*
X84371055Y-93214715D01*
X84330010Y-93174205D01*
X84311314Y-93119652D01*
X84318880Y-93062487D01*
X84366140Y-92937872D01*
X84386645Y-92769000D01*
X84366140Y-92600128D01*
X84324040Y-92489118D01*
X84305819Y-92441072D01*
X84305818Y-92441070D01*
X84247455Y-92356517D01*
X84225250Y-92289907D01*
X84242143Y-92221752D01*
X84292890Y-92173222D01*
X84361730Y-92159388D01*
X84427286Y-92184545D01*
X84432497Y-92188497D01*
X84432500Y-92188500D01*
X84550342Y-92277862D01*
X84687923Y-92332117D01*
X84716742Y-92335577D01*
X84774380Y-92342500D01*
X84774382Y-92342500D01*
X85358618Y-92342500D01*
X85358620Y-92342500D01*
X85401847Y-92337308D01*
X85445077Y-92332117D01*
X85582658Y-92277862D01*
X85700500Y-92188500D01*
X85789862Y-92070658D01*
X85844117Y-91933077D01*
X85853898Y-91851624D01*
X85875241Y-91795162D01*
X85920396Y-91755105D01*
X85979000Y-91740647D01*
X86037604Y-91755105D01*
G37*
%TD.AperFunction*%
%TA.AperFunction,Conductor*%
G36*
X99566090Y-87552735D02*
G01*
X100317457Y-87960163D01*
X100322025Y-87962765D01*
X101120923Y-88440402D01*
X101125398Y-88443206D01*
X101879051Y-88937872D01*
X101903552Y-88953953D01*
X101907902Y-88956942D01*
X102564921Y-89428788D01*
X102663881Y-89499857D01*
X102668111Y-89503030D01*
X103400713Y-90077252D01*
X103404777Y-90080578D01*
X104109478Y-90682342D01*
X104112592Y-90685001D01*
X104116537Y-90688516D01*
X104620985Y-91157281D01*
X104798369Y-91322118D01*
X104802167Y-91325799D01*
X104940464Y-91465579D01*
X105430630Y-91961000D01*
X105456801Y-91987451D01*
X105460440Y-91991287D01*
X106086735Y-92679835D01*
X106090187Y-92683795D01*
X106311157Y-92948221D01*
X106687041Y-93398029D01*
X106690347Y-93402158D01*
X107256697Y-94140807D01*
X107259826Y-94145071D01*
X107781802Y-94888500D01*
X107794664Y-94906818D01*
X107797611Y-94911208D01*
X108295450Y-95687620D01*
X108300011Y-95694732D01*
X108302763Y-95699228D01*
X108588841Y-96189519D01*
X108771853Y-96503173D01*
X108774422Y-96507796D01*
X109209347Y-97330694D01*
X109211720Y-97335421D01*
X109611731Y-98175857D01*
X109613903Y-98180679D01*
X109978289Y-99037158D01*
X109980257Y-99042068D01*
X110146648Y-99483760D01*
X110291921Y-99869397D01*
X110308376Y-99913076D01*
X110310131Y-99918049D01*
X110412829Y-100229733D01*
X110601408Y-100802065D01*
X110602958Y-100807122D01*
X110856887Y-101702618D01*
X110858222Y-101707736D01*
X111074333Y-102613040D01*
X111075453Y-102618209D01*
X111253386Y-103531815D01*
X111254288Y-103537027D01*
X111393719Y-104457275D01*
X111394402Y-104462519D01*
X111495095Y-105387857D01*
X111495556Y-105393126D01*
X111557323Y-106321829D01*
X111557563Y-106327113D01*
X111580301Y-107257579D01*
X111580320Y-107262868D01*
X111563988Y-108193516D01*
X111563784Y-108198801D01*
X111508410Y-109127929D01*
X111507984Y-109133201D01*
X111413668Y-110059158D01*
X111413022Y-110064407D01*
X111279927Y-110985613D01*
X111279061Y-110990831D01*
X111107423Y-111905630D01*
X111106339Y-111910807D01*
X110896455Y-112817624D01*
X110895154Y-112822750D01*
X110647414Y-113719909D01*
X110645900Y-113724977D01*
X110360708Y-114611000D01*
X110358983Y-114615995D01*
X110304746Y-114763034D01*
X110036871Y-115489239D01*
X110034937Y-115494161D01*
X109676454Y-116353131D01*
X109674315Y-116357968D01*
X109280107Y-117201120D01*
X109277767Y-117205864D01*
X108848508Y-118031755D01*
X108845971Y-118036395D01*
X108382443Y-118843522D01*
X108379713Y-118848053D01*
X107882703Y-119635042D01*
X107879785Y-119639453D01*
X107350215Y-120404847D01*
X107347115Y-120409133D01*
X106785864Y-121151663D01*
X106782587Y-121155814D01*
X106190682Y-121874118D01*
X106187234Y-121878128D01*
X105565694Y-122570972D01*
X105562080Y-122574834D01*
X104912028Y-123240965D01*
X104908256Y-123244672D01*
X104230808Y-123882948D01*
X104226883Y-123886494D01*
X103523236Y-124495785D01*
X103519165Y-124499162D01*
X102790581Y-125078374D01*
X102786373Y-125081578D01*
X102034120Y-125629706D01*
X102029781Y-125632730D01*
X101255201Y-126148796D01*
X101250739Y-126151636D01*
X100455168Y-126634749D01*
X100450590Y-126637399D01*
X99635429Y-127086707D01*
X99630745Y-127089162D01*
X98797478Y-127503849D01*
X98792694Y-127506106D01*
X97942732Y-127885468D01*
X97937859Y-127887521D01*
X97072755Y-128230868D01*
X97067799Y-128232716D01*
X96189017Y-128539464D01*
X96183987Y-128541102D01*
X95293116Y-128810696D01*
X95288023Y-128812121D01*
X94386644Y-129044085D01*
X94381495Y-129045296D01*
X93471138Y-129239235D01*
X93465944Y-129240228D01*
X92548266Y-129395789D01*
X92543033Y-129396563D01*
X91619643Y-129513472D01*
X91614383Y-129514026D01*
X90686901Y-129592080D01*
X90681623Y-129592413D01*
X89751672Y-129631476D01*
X89746384Y-129631587D01*
X88815616Y-129631587D01*
X88810328Y-129631476D01*
X87880376Y-129592413D01*
X87875098Y-129592080D01*
X86947616Y-129514026D01*
X86942356Y-129513472D01*
X86018966Y-129396563D01*
X86013733Y-129395789D01*
X85096055Y-129240228D01*
X85090861Y-129239235D01*
X84180504Y-129045296D01*
X84175355Y-129044085D01*
X83273976Y-128812121D01*
X83268883Y-128810696D01*
X82378012Y-128541102D01*
X82372982Y-128539464D01*
X81494200Y-128232716D01*
X81489244Y-128230868D01*
X80624140Y-127887521D01*
X80619267Y-127885468D01*
X79769305Y-127506106D01*
X79764521Y-127503849D01*
X78931254Y-127089162D01*
X78926570Y-127086707D01*
X78713017Y-126968999D01*
X90825416Y-126968999D01*
X90845699Y-127174929D01*
X90845699Y-127174931D01*
X90845700Y-127174934D01*
X90905768Y-127372954D01*
X90905769Y-127372956D01*
X91003314Y-127555449D01*
X91134589Y-127715410D01*
X91294550Y-127846685D01*
X91477046Y-127944232D01*
X91675066Y-128004300D01*
X91881000Y-128024583D01*
X92086934Y-128004300D01*
X92284954Y-127944232D01*
X92467450Y-127846685D01*
X92627410Y-127715410D01*
X92758685Y-127555450D01*
X92856232Y-127372954D01*
X92916300Y-127174934D01*
X92936583Y-126969000D01*
X92916300Y-126763066D01*
X92900375Y-126710571D01*
X92896806Y-126652456D01*
X92919747Y-126598939D01*
X92964300Y-126561451D01*
X93020951Y-126547997D01*
X93064631Y-126547997D01*
X93113511Y-126557865D01*
X93154735Y-126585922D01*
X93181846Y-126627774D01*
X93186135Y-126638652D01*
X93186136Y-126638654D01*
X93186137Y-126638655D01*
X93275499Y-126756497D01*
X93393341Y-126845859D01*
X93530922Y-126900114D01*
X93559741Y-126903574D01*
X93617379Y-126910497D01*
X93617381Y-126910497D01*
X94176617Y-126910497D01*
X94176619Y-126910497D01*
X94219846Y-126905305D01*
X94263076Y-126900114D01*
X94400657Y-126845859D01*
X94518499Y-126756497D01*
X94526977Y-126745316D01*
X94544005Y-126722863D01*
X94588353Y-126686150D01*
X94644402Y-126672997D01*
X94798236Y-126672997D01*
X94842917Y-126681185D01*
X94874352Y-126700188D01*
X94880145Y-126703228D01*
X94880148Y-126703231D01*
X95030775Y-126782287D01*
X95195944Y-126822997D01*
X95366054Y-126822997D01*
X95366056Y-126822997D01*
X95531225Y-126782287D01*
X95681852Y-126703231D01*
X95809183Y-126590426D01*
X95905818Y-126450427D01*
X95966140Y-126291369D01*
X95986645Y-126122497D01*
X95966140Y-125953625D01*
X95905818Y-125794567D01*
X95809183Y-125654568D01*
X95681852Y-125541763D01*
X95531225Y-125462707D01*
X95366056Y-125421997D01*
X95195944Y-125421997D01*
X95030775Y-125462707D01*
X94973343Y-125492850D01*
X94874352Y-125544805D01*
X94842917Y-125563809D01*
X94798236Y-125571997D01*
X94644402Y-125571997D01*
X94588353Y-125558844D01*
X94544005Y-125522131D01*
X94518501Y-125488499D01*
X94518499Y-125488498D01*
X94518499Y-125488497D01*
X94400657Y-125399135D01*
X94275385Y-125349734D01*
X94263074Y-125344879D01*
X94181623Y-125335098D01*
X94125161Y-125313756D01*
X94085104Y-125268601D01*
X94070646Y-125209997D01*
X94085104Y-125151393D01*
X94125161Y-125106238D01*
X94181623Y-125084896D01*
X94216356Y-125080724D01*
X94263076Y-125075114D01*
X94400657Y-125020859D01*
X94518499Y-124931497D01*
X94566002Y-124868853D01*
X94611190Y-124831727D01*
X94668275Y-124819002D01*
X94724955Y-124833421D01*
X94734145Y-124838244D01*
X94734148Y-124838247D01*
X94884775Y-124917303D01*
X95049944Y-124958013D01*
X95220054Y-124958013D01*
X95220056Y-124958013D01*
X95385225Y-124917303D01*
X95535852Y-124838247D01*
X95663183Y-124725442D01*
X95759818Y-124585443D01*
X95820140Y-124426385D01*
X95840645Y-124257513D01*
X95820140Y-124088641D01*
X95759818Y-123929583D01*
X95663183Y-123789584D01*
X95535852Y-123676779D01*
X95385225Y-123597723D01*
X95220056Y-123557013D01*
X95049944Y-123557013D01*
X94899864Y-123594004D01*
X94884775Y-123597723D01*
X94734146Y-123676779D01*
X94712964Y-123695545D01*
X94651471Y-123725285D01*
X94583495Y-123718566D01*
X94529015Y-123677365D01*
X94518499Y-123663497D01*
X94400657Y-123574135D01*
X94285006Y-123528528D01*
X94263074Y-123519879D01*
X94176619Y-123509497D01*
X94176617Y-123509497D01*
X93617381Y-123509497D01*
X93617379Y-123509497D01*
X93530923Y-123519879D01*
X93393343Y-123574134D01*
X93393342Y-123574134D01*
X93393341Y-123574135D01*
X93275499Y-123663497D01*
X93186137Y-123781339D01*
X93186136Y-123781340D01*
X93186136Y-123781341D01*
X93131881Y-123918921D01*
X93121499Y-124005377D01*
X93121499Y-124589617D01*
X93131881Y-124676072D01*
X93133810Y-124680963D01*
X93186137Y-124813655D01*
X93275499Y-124931497D01*
X93393341Y-125020859D01*
X93530922Y-125075114D01*
X93554281Y-125077919D01*
X93612374Y-125084896D01*
X93668836Y-125106238D01*
X93708893Y-125151393D01*
X93723351Y-125209997D01*
X93708893Y-125268601D01*
X93668836Y-125313756D01*
X93612374Y-125335098D01*
X93530923Y-125344879D01*
X93393343Y-125399134D01*
X93393342Y-125399134D01*
X93393341Y-125399135D01*
X93296366Y-125472673D01*
X93275499Y-125488497D01*
X93186135Y-125606341D01*
X93181846Y-125617220D01*
X93154735Y-125659072D01*
X93113511Y-125687129D01*
X93064631Y-125696997D01*
X92660109Y-125696997D01*
X92637295Y-125704409D01*
X92618076Y-125709023D01*
X92594379Y-125712776D01*
X92573001Y-125723669D01*
X92554740Y-125731233D01*
X92531922Y-125738647D01*
X92512510Y-125752751D01*
X92495655Y-125763079D01*
X92474284Y-125773968D01*
X92390775Y-125857474D01*
X92314976Y-125933273D01*
X92256497Y-125966402D01*
X92189307Y-125964753D01*
X92086933Y-125933699D01*
X91881000Y-125913416D01*
X91675070Y-125933699D01*
X91675067Y-125933699D01*
X91675066Y-125933700D01*
X91477046Y-125993768D01*
X91477043Y-125993769D01*
X91294550Y-126091314D01*
X91134589Y-126222589D01*
X91003314Y-126382550D01*
X90905769Y-126565043D01*
X90905768Y-126565045D01*
X90905768Y-126565046D01*
X90849745Y-126749733D01*
X90845699Y-126763070D01*
X90825416Y-126968999D01*
X78713017Y-126968999D01*
X78111409Y-126637399D01*
X78106831Y-126634749D01*
X77311260Y-126151636D01*
X77306798Y-126148796D01*
X77220521Y-126091314D01*
X76613867Y-125687129D01*
X76532218Y-125632730D01*
X76527879Y-125629706D01*
X76444564Y-125568999D01*
X88592618Y-125568999D01*
X88613122Y-125737871D01*
X88673444Y-125896929D01*
X88684825Y-125913417D01*
X88770080Y-126036929D01*
X88897411Y-126149734D01*
X89048038Y-126228790D01*
X89213207Y-126269500D01*
X89383317Y-126269500D01*
X89383319Y-126269500D01*
X89548488Y-126228790D01*
X89699115Y-126149734D01*
X89826446Y-126036929D01*
X89923081Y-125896930D01*
X89983403Y-125737872D01*
X90003908Y-125569000D01*
X89983403Y-125400128D01*
X89923081Y-125241070D01*
X89826446Y-125101071D01*
X89699115Y-124988266D01*
X89548488Y-124909210D01*
X89383319Y-124868500D01*
X89213207Y-124868500D01*
X89048038Y-124909210D01*
X88897411Y-124988266D01*
X88787660Y-125085497D01*
X88770079Y-125101072D01*
X88673444Y-125241070D01*
X88613122Y-125400128D01*
X88592618Y-125568999D01*
X76444564Y-125568999D01*
X75775626Y-125081578D01*
X75771418Y-125078374D01*
X75042834Y-124499162D01*
X75038776Y-124495795D01*
X74335109Y-123886487D01*
X74331191Y-123882948D01*
X74164135Y-123725552D01*
X73679143Y-123268603D01*
X73653743Y-123244672D01*
X73649971Y-123240965D01*
X73352435Y-122936069D01*
X72999914Y-122574828D01*
X72996305Y-122570972D01*
X72894059Y-122456996D01*
X72374749Y-121878110D01*
X72371333Y-121874136D01*
X71779408Y-121155809D01*
X71776135Y-121151663D01*
X71651569Y-120986863D01*
X71214871Y-120409115D01*
X71211797Y-120404866D01*
X70682200Y-119639432D01*
X70679309Y-119635062D01*
X70182268Y-118848023D01*
X70179574Y-118843552D01*
X70160803Y-118810867D01*
X71079120Y-118810867D01*
X71119636Y-118915451D01*
X71135312Y-118935242D01*
X71661962Y-119461892D01*
X72369070Y-118754786D01*
X72369070Y-118754785D01*
X71661964Y-118047679D01*
X71661963Y-118047679D01*
X71135315Y-118574327D01*
X71119636Y-118594121D01*
X71079120Y-118698705D01*
X71079120Y-118810867D01*
X70160803Y-118810867D01*
X69716013Y-118036368D01*
X69713505Y-118031782D01*
X69611512Y-117835548D01*
X71874095Y-117835548D01*
X72581201Y-118542654D01*
X72581202Y-118542654D01*
X73288308Y-117835547D01*
X73288308Y-117835546D01*
X72761664Y-117308902D01*
X72741866Y-117293220D01*
X72637283Y-117252704D01*
X72525121Y-117252704D01*
X72420536Y-117293220D01*
X72400740Y-117308900D01*
X71874095Y-117835546D01*
X71874095Y-117835548D01*
X69611512Y-117835548D01*
X69284229Y-117205858D01*
X69281892Y-117201120D01*
X69279597Y-117196211D01*
X68887680Y-116357959D01*
X68885545Y-116353131D01*
X68884127Y-116349734D01*
X68787832Y-116119000D01*
X71181000Y-116119000D01*
X71181000Y-116248579D01*
X71191372Y-116334956D01*
X71245578Y-116472412D01*
X71334856Y-116590143D01*
X71452587Y-116679421D01*
X71590043Y-116733627D01*
X71676421Y-116744000D01*
X71868500Y-116744000D01*
X71868500Y-116119000D01*
X71181000Y-116119000D01*
X68787832Y-116119000D01*
X68662630Y-115819000D01*
X71181000Y-115819000D01*
X71868500Y-115819000D01*
X71868500Y-115194000D01*
X71676421Y-115194000D01*
X71590043Y-115204372D01*
X71452587Y-115258578D01*
X71334856Y-115347856D01*
X71245578Y-115465587D01*
X71191372Y-115603043D01*
X71181000Y-115689421D01*
X71181000Y-115819000D01*
X68662630Y-115819000D01*
X68527058Y-115494151D01*
X68525138Y-115489264D01*
X68203000Y-114615952D01*
X68201302Y-114611032D01*
X67916090Y-113724948D01*
X67914594Y-113719940D01*
X67666844Y-112822749D01*
X67665544Y-112817624D01*
X67662368Y-112803904D01*
X67631991Y-112672655D01*
X67455660Y-111910807D01*
X67454576Y-111905630D01*
X67390215Y-111562599D01*
X67317233Y-111173620D01*
X67905500Y-111173620D01*
X67915882Y-111260075D01*
X67918022Y-111265502D01*
X67970138Y-111397658D01*
X68059500Y-111515500D01*
X68080634Y-111531526D01*
X68117347Y-111575873D01*
X68130500Y-111631923D01*
X68130500Y-111757439D01*
X68130426Y-111761740D01*
X68128654Y-111813662D01*
X68128238Y-111825827D01*
X68137941Y-111865646D01*
X68140349Y-111878319D01*
X68145929Y-111918918D01*
X68153010Y-111935219D01*
X68159858Y-111955581D01*
X68164067Y-111972853D01*
X68184154Y-112008580D01*
X68189890Y-112020128D01*
X68191526Y-112023893D01*
X68206220Y-112057720D01*
X68217432Y-112071501D01*
X68229520Y-112089263D01*
X68238231Y-112104756D01*
X68238233Y-112104758D01*
X68238234Y-112104759D01*
X68253311Y-112119836D01*
X68267211Y-112133735D01*
X68275858Y-112143316D01*
X68301722Y-112175108D01*
X68316239Y-112185355D01*
X68332673Y-112199198D01*
X68449636Y-112316161D01*
X68543595Y-112410119D01*
X68570909Y-112450997D01*
X68580500Y-112499215D01*
X68580500Y-112648620D01*
X68590882Y-112735075D01*
X68604489Y-112769579D01*
X68645138Y-112872658D01*
X68734500Y-112990500D01*
X68786998Y-113030310D01*
X68856046Y-113082671D01*
X68892575Y-113106334D01*
X68920632Y-113147558D01*
X68930500Y-113196439D01*
X68930500Y-113310403D01*
X68923928Y-113350564D01*
X68904898Y-113386536D01*
X68845138Y-113465342D01*
X68790882Y-113602924D01*
X68780500Y-113689380D01*
X68780500Y-114248620D01*
X68790882Y-114335075D01*
X68845138Y-114472658D01*
X68856674Y-114487871D01*
X68878924Y-114535136D01*
X68880091Y-114587363D01*
X68859974Y-114635575D01*
X68856182Y-114641068D01*
X68795859Y-114800128D01*
X68776875Y-114956481D01*
X68775355Y-114969000D01*
X68777077Y-114983184D01*
X68795859Y-115137871D01*
X68856181Y-115296929D01*
X68856182Y-115296930D01*
X68952817Y-115436929D01*
X69080148Y-115549734D01*
X69230775Y-115628790D01*
X69395944Y-115669500D01*
X69566054Y-115669500D01*
X69566056Y-115669500D01*
X69731225Y-115628790D01*
X69881852Y-115549734D01*
X70009183Y-115436929D01*
X70105818Y-115296930D01*
X70166140Y-115137872D01*
X70186645Y-114969000D01*
X70166140Y-114800128D01*
X70166139Y-114800127D01*
X70164296Y-114784941D01*
X70165146Y-114784837D01*
X70160357Y-114752814D01*
X70175139Y-114701355D01*
X70209949Y-114660682D01*
X70302500Y-114590500D01*
X70380916Y-114487091D01*
X70425263Y-114450379D01*
X70481312Y-114437226D01*
X70537362Y-114450379D01*
X70581710Y-114487092D01*
X70659856Y-114590143D01*
X70777587Y-114679421D01*
X70915043Y-114733627D01*
X71001421Y-114744000D01*
X71193500Y-114744000D01*
X71193500Y-114119000D01*
X71493500Y-114119000D01*
X71493500Y-114744000D01*
X71685579Y-114744000D01*
X71771956Y-114733627D01*
X71909412Y-114679421D01*
X72027143Y-114590143D01*
X72116421Y-114472412D01*
X72170627Y-114334956D01*
X72181000Y-114248579D01*
X72181000Y-114119000D01*
X71493500Y-114119000D01*
X71193500Y-114119000D01*
X71193500Y-113956500D01*
X72531000Y-113956500D01*
X72981000Y-113956500D01*
X72981000Y-113069001D01*
X72926799Y-113069001D01*
X72896396Y-113071851D01*
X72768352Y-113116655D01*
X72659207Y-113197207D01*
X72578653Y-113306355D01*
X72533851Y-113434391D01*
X72531000Y-113464800D01*
X72531000Y-113956500D01*
X71193500Y-113956500D01*
X71193500Y-113945000D01*
X71210381Y-113882000D01*
X71256500Y-113835881D01*
X71319500Y-113819000D01*
X72181000Y-113819000D01*
X72181000Y-113689421D01*
X72170627Y-113603043D01*
X72116421Y-113465587D01*
X72027143Y-113347856D01*
X71909412Y-113258578D01*
X71831418Y-113227821D01*
X71778558Y-113188442D01*
X71752815Y-113127761D01*
X71761234Y-113062386D01*
X71801509Y-113010209D01*
X71827500Y-112990500D01*
X71916862Y-112872658D01*
X71971117Y-112735077D01*
X71978613Y-112672655D01*
X71981500Y-112648620D01*
X71981500Y-112197733D01*
X71987665Y-112158804D01*
X71991367Y-112147408D01*
X71997261Y-112129266D01*
X72004822Y-112111010D01*
X72015719Y-112089626D01*
X72019472Y-112065922D01*
X72024084Y-112046713D01*
X72031500Y-112023893D01*
X72031500Y-111889107D01*
X72031500Y-111663467D01*
X72044827Y-111607068D01*
X72081990Y-111562599D01*
X72102159Y-111547500D01*
X72163546Y-111501546D01*
X72249796Y-111386331D01*
X72300091Y-111251483D01*
X72306500Y-111191873D01*
X72306499Y-110596128D01*
X72305724Y-110588921D01*
X72300091Y-110536518D01*
X72299553Y-110535075D01*
X72249796Y-110401669D01*
X72223239Y-110366194D01*
X72163546Y-110286453D01*
X72048331Y-110200204D01*
X72018857Y-110189211D01*
X71913483Y-110149909D01*
X71853872Y-110143500D01*
X71358125Y-110143500D01*
X71298518Y-110149908D01*
X71163668Y-110200204D01*
X71048454Y-110286452D01*
X70981868Y-110375401D01*
X70937399Y-110412564D01*
X70881000Y-110425891D01*
X70824601Y-110412564D01*
X70780132Y-110375401D01*
X70713545Y-110286452D01*
X70598331Y-110200204D01*
X70568857Y-110189211D01*
X70463483Y-110149909D01*
X70403872Y-110143500D01*
X69908125Y-110143500D01*
X69848518Y-110149908D01*
X69713669Y-110200203D01*
X69639312Y-110255868D01*
X69603593Y-110274552D01*
X69563802Y-110281000D01*
X69466318Y-110281000D01*
X69410268Y-110267847D01*
X69365921Y-110231134D01*
X69302500Y-110147500D01*
X69302496Y-110147497D01*
X69199092Y-110069083D01*
X69162379Y-110024736D01*
X69149226Y-109968686D01*
X69162379Y-109912636D01*
X69199092Y-109868288D01*
X69302145Y-109790140D01*
X69401887Y-109658612D01*
X69405192Y-109661118D01*
X69424928Y-109634645D01*
X69485849Y-109608944D01*
X69551396Y-109617631D01*
X69582840Y-109642173D01*
X69583951Y-109640690D01*
X69683884Y-109715499D01*
X69713669Y-109737796D01*
X69848517Y-109788091D01*
X69908127Y-109794500D01*
X70403872Y-109794499D01*
X70403874Y-109794499D01*
X70433677Y-109791295D01*
X70463483Y-109788091D01*
X70598331Y-109737796D01*
X70693390Y-109666635D01*
X70713545Y-109651547D01*
X70717838Y-109645812D01*
X70780445Y-109562180D01*
X70824911Y-109525019D01*
X70881310Y-109511691D01*
X70937710Y-109525018D01*
X70982179Y-109562181D01*
X71048810Y-109651189D01*
X71163911Y-109737353D01*
X71298624Y-109787597D01*
X71358172Y-109794000D01*
X71456000Y-109794000D01*
X71456000Y-109194000D01*
X71756000Y-109194000D01*
X71756000Y-109794000D01*
X71853828Y-109794000D01*
X71913375Y-109787597D01*
X72048088Y-109737353D01*
X72163189Y-109651189D01*
X72249353Y-109536088D01*
X72299597Y-109401375D01*
X72306000Y-109341828D01*
X72306000Y-109194000D01*
X71756000Y-109194000D01*
X71456000Y-109194000D01*
X71456000Y-109020000D01*
X71472881Y-108957000D01*
X71519000Y-108910881D01*
X71582000Y-108894000D01*
X72306000Y-108894000D01*
X72306000Y-108746170D01*
X72301420Y-108703568D01*
X72313363Y-108635045D01*
X72359844Y-108583299D01*
X72419445Y-108566182D01*
X72419313Y-108565178D01*
X72426017Y-108564295D01*
X72426698Y-108564100D01*
X72427501Y-108564100D01*
X72489909Y-108555884D01*
X72553692Y-108564036D01*
X72605147Y-108602601D01*
X72630872Y-108661533D01*
X72624168Y-108725485D01*
X72595859Y-108800130D01*
X72575355Y-108968999D01*
X72595859Y-109137871D01*
X72656181Y-109296929D01*
X72673152Y-109321515D01*
X72752817Y-109436929D01*
X72880148Y-109549734D01*
X73030775Y-109628790D01*
X73099844Y-109645813D01*
X73160933Y-109681258D01*
X73193353Y-109744008D01*
X73189466Y-109786473D01*
X73193307Y-109786935D01*
X73181000Y-109889421D01*
X73181000Y-110019000D01*
X74042500Y-110019000D01*
X74105500Y-110035881D01*
X74151619Y-110082000D01*
X74168500Y-110145000D01*
X74168500Y-110193000D01*
X74151619Y-110256000D01*
X74105500Y-110302119D01*
X74042500Y-110319000D01*
X73181000Y-110319000D01*
X73181000Y-110448579D01*
X73191372Y-110534956D01*
X73245578Y-110672412D01*
X73334856Y-110790143D01*
X73452587Y-110879421D01*
X73590043Y-110933627D01*
X73676421Y-110944000D01*
X73844178Y-110944000D01*
X73905470Y-110959912D01*
X73951281Y-111003630D01*
X73970040Y-111064112D01*
X73957010Y-111126080D01*
X73915480Y-111173884D01*
X73855942Y-111195449D01*
X73853851Y-111195646D01*
X73846297Y-111196354D01*
X73718117Y-111241206D01*
X73608849Y-111321849D01*
X73528206Y-111431117D01*
X73483354Y-111559298D01*
X73482412Y-111569341D01*
X73480500Y-111589734D01*
X73480500Y-112873266D01*
X73482333Y-112892814D01*
X73484791Y-112919024D01*
X73484648Y-112919037D01*
X73488695Y-112965706D01*
X73463621Y-113022815D01*
X73414228Y-113060902D01*
X73352620Y-113070632D01*
X73335208Y-113069000D01*
X73281000Y-113069000D01*
X73281000Y-114130500D01*
X73264119Y-114193500D01*
X73218000Y-114239619D01*
X73155000Y-114256500D01*
X72531001Y-114256500D01*
X72531001Y-114748201D01*
X72533851Y-114778603D01*
X72578655Y-114906647D01*
X72659208Y-115015792D01*
X72676529Y-115028576D01*
X72714901Y-115074610D01*
X72720165Y-115098759D01*
X72785244Y-115102256D01*
X72896392Y-115141148D01*
X72926797Y-115143999D01*
X72960135Y-115143999D01*
X73026520Y-115162904D01*
X73072984Y-115213948D01*
X73085583Y-115281813D01*
X73060536Y-115346132D01*
X72981084Y-115450906D01*
X72936736Y-115487620D01*
X72880686Y-115500773D01*
X72824637Y-115487620D01*
X72780289Y-115450907D01*
X72702142Y-115347856D01*
X72667495Y-115321582D01*
X72625534Y-115265112D01*
X72624557Y-115251785D01*
X72614864Y-115255266D01*
X72555483Y-115247170D01*
X72446956Y-115204372D01*
X72360579Y-115194000D01*
X72168500Y-115194000D01*
X72168500Y-116744000D01*
X72360579Y-116744000D01*
X72446956Y-116733627D01*
X72584412Y-116679421D01*
X72702140Y-116590145D01*
X72780288Y-116487092D01*
X72824636Y-116450379D01*
X72880686Y-116437226D01*
X72936736Y-116450379D01*
X72981083Y-116487092D01*
X73023212Y-116542647D01*
X73059500Y-116590500D01*
X73177342Y-116679862D01*
X73314923Y-116734117D01*
X73343742Y-116737578D01*
X73401380Y-116744500D01*
X73401382Y-116744500D01*
X73688285Y-116744500D01*
X73736503Y-116754091D01*
X73777380Y-116781405D01*
X75343595Y-118347620D01*
X75370909Y-118388497D01*
X75380500Y-118436715D01*
X75380500Y-118716875D01*
X75370909Y-118765093D01*
X75343595Y-118805971D01*
X74754396Y-119395167D01*
X74702572Y-119426432D01*
X74642149Y-119429926D01*
X74483863Y-119400337D01*
X74270643Y-119400337D01*
X74137772Y-119425175D01*
X74061054Y-119439516D01*
X73862233Y-119516539D01*
X73692101Y-119621880D01*
X73634495Y-119640450D01*
X73574877Y-119630016D01*
X73527001Y-119592986D01*
X73501916Y-119537904D01*
X73505410Y-119477480D01*
X73536676Y-119425656D01*
X74027089Y-118935243D01*
X74042767Y-118915450D01*
X74083284Y-118810867D01*
X74083284Y-118698705D01*
X74042767Y-118594120D01*
X74027091Y-118574329D01*
X73500440Y-118047679D01*
X72581202Y-118966918D01*
X72581201Y-118966919D01*
X71874095Y-119674024D01*
X71874095Y-119674025D01*
X72400739Y-120200669D01*
X72420537Y-120216351D01*
X72525121Y-120256868D01*
X72637283Y-120256868D01*
X72741867Y-120216351D01*
X72761658Y-120200675D01*
X73268357Y-119693976D01*
X73322039Y-119662150D01*
X73384409Y-119659988D01*
X73440165Y-119688020D01*
X73475632Y-119739369D01*
X73482107Y-119801439D01*
X73458003Y-119859003D01*
X73394888Y-119942579D01*
X73299847Y-120133449D01*
X73241497Y-120338524D01*
X73221824Y-120550837D01*
X73241497Y-120763149D01*
X73299847Y-120968224D01*
X73394888Y-121159094D01*
X73424011Y-121197658D01*
X73523381Y-121329244D01*
X73652207Y-121446685D01*
X73680951Y-121472889D01*
X73862231Y-121585134D01*
X73862234Y-121585135D01*
X74061055Y-121662158D01*
X74270643Y-121701337D01*
X74483861Y-121701337D01*
X74483863Y-121701337D01*
X74693451Y-121662158D01*
X74892272Y-121585135D01*
X74892274Y-121585134D01*
X75073554Y-121472890D01*
X75089503Y-121458350D01*
X75143655Y-121429269D01*
X75205122Y-121429268D01*
X75259275Y-121458347D01*
X75293228Y-121509585D01*
X75298900Y-121570790D01*
X75274941Y-121627395D01*
X75190939Y-121738630D01*
X75095898Y-121929500D01*
X75037548Y-122134575D01*
X75017875Y-122346887D01*
X75037548Y-122559200D01*
X75095898Y-122764275D01*
X75190939Y-122955145D01*
X75252925Y-123037226D01*
X75319432Y-123125295D01*
X75460526Y-123253920D01*
X75477002Y-123268940D01*
X75658282Y-123381185D01*
X75658285Y-123381186D01*
X75857106Y-123458209D01*
X76066694Y-123497388D01*
X76279912Y-123497388D01*
X76279914Y-123497388D01*
X76489502Y-123458209D01*
X76688323Y-123381186D01*
X76715219Y-123364533D01*
X76781403Y-123323553D01*
X76869606Y-123268940D01*
X76885560Y-123254395D01*
X76939713Y-123225315D01*
X77001180Y-123225314D01*
X77055333Y-123254393D01*
X77089285Y-123305632D01*
X77094957Y-123366836D01*
X77070998Y-123423441D01*
X76986991Y-123534682D01*
X76891950Y-123725552D01*
X76833600Y-123930627D01*
X76813927Y-124142939D01*
X76833600Y-124355252D01*
X76891950Y-124560327D01*
X76986991Y-124751197D01*
X77016402Y-124790143D01*
X77115484Y-124921347D01*
X77224643Y-125020859D01*
X77273054Y-125064992D01*
X77454334Y-125177237D01*
X77454337Y-125177238D01*
X77653158Y-125254261D01*
X77862746Y-125293440D01*
X78075964Y-125293440D01*
X78075966Y-125293440D01*
X78285554Y-125254261D01*
X78484375Y-125177238D01*
X78665658Y-125064992D01*
X78823228Y-124921347D01*
X78951722Y-124751195D01*
X79007947Y-124638277D01*
X79054407Y-124587313D01*
X79120738Y-124568440D01*
X79286952Y-124568440D01*
X79286953Y-124568440D01*
X79309773Y-124561024D01*
X79328982Y-124556412D01*
X79352686Y-124552659D01*
X79374055Y-124541769D01*
X79392323Y-124534202D01*
X79415141Y-124526789D01*
X79434545Y-124512690D01*
X79451409Y-124502356D01*
X79457678Y-124499162D01*
X79472780Y-124491468D01*
X79568088Y-124396160D01*
X79627613Y-124336635D01*
X79627616Y-124336631D01*
X80801592Y-123162654D01*
X80842469Y-123135341D01*
X80890687Y-123125750D01*
X80983812Y-123125750D01*
X81032030Y-123135341D01*
X81072906Y-123162654D01*
X81343472Y-123433220D01*
X81438780Y-123528528D01*
X81450858Y-123534682D01*
X81460149Y-123539416D01*
X81477004Y-123549745D01*
X81496417Y-123563849D01*
X81496418Y-123563849D01*
X81496419Y-123563850D01*
X81519230Y-123571261D01*
X81537501Y-123578829D01*
X81558872Y-123589718D01*
X81558874Y-123589719D01*
X81582563Y-123593470D01*
X81601789Y-123598085D01*
X81624607Y-123605500D01*
X81658512Y-123605500D01*
X81759393Y-123605500D01*
X89622562Y-123605500D01*
X89670780Y-123615091D01*
X89711657Y-123642405D01*
X90702223Y-124632971D01*
X90732235Y-124680963D01*
X90738209Y-124737250D01*
X90736517Y-124751195D01*
X90734355Y-124769001D01*
X90754859Y-124937871D01*
X90815181Y-125096929D01*
X90815182Y-125096930D01*
X90911817Y-125236929D01*
X91039148Y-125349734D01*
X91189775Y-125428790D01*
X91354944Y-125469500D01*
X91525054Y-125469500D01*
X91525056Y-125469500D01*
X91690225Y-125428790D01*
X91840852Y-125349734D01*
X91968183Y-125236929D01*
X92064818Y-125096930D01*
X92125140Y-124937872D01*
X92145645Y-124769000D01*
X92125140Y-124600128D01*
X92064818Y-124441070D01*
X91968183Y-124301071D01*
X91840852Y-124188266D01*
X91690225Y-124109210D01*
X91525056Y-124068500D01*
X91393438Y-124068500D01*
X91345220Y-124058909D01*
X91304343Y-124031595D01*
X90596301Y-123323553D01*
X90563689Y-123267069D01*
X90563689Y-123201847D01*
X90586663Y-123162056D01*
X90586663Y-122705000D01*
X90886663Y-122705000D01*
X90886663Y-123155000D01*
X91719740Y-123155000D01*
X91769544Y-123148443D01*
X91878854Y-123097470D01*
X91964133Y-123012191D01*
X92015106Y-122902881D01*
X92021663Y-122853077D01*
X92021663Y-122705000D01*
X90886663Y-122705000D01*
X90586663Y-122705000D01*
X89451662Y-122705000D01*
X89439067Y-122717595D01*
X89398190Y-122744909D01*
X89349972Y-122754500D01*
X81920438Y-122754500D01*
X81872220Y-122744909D01*
X81831343Y-122717595D01*
X81675026Y-122561278D01*
X81645013Y-122513283D01*
X81639040Y-122456994D01*
X81642895Y-122425250D01*
X81639040Y-122393504D01*
X81645013Y-122337216D01*
X81675024Y-122289222D01*
X82457843Y-121506404D01*
X82498721Y-121479091D01*
X82546939Y-121469500D01*
X82960620Y-121469500D01*
X83003847Y-121464308D01*
X83047077Y-121459117D01*
X83184658Y-121404862D01*
X83302500Y-121315500D01*
X83391862Y-121197658D01*
X83446117Y-121060077D01*
X83451308Y-121016847D01*
X83456500Y-120973620D01*
X83456500Y-120389380D01*
X83446117Y-120302924D01*
X83446117Y-120302923D01*
X83391862Y-120165342D01*
X83302500Y-120047500D01*
X83184658Y-119958138D01*
X83120793Y-119932953D01*
X83047075Y-119903882D01*
X82965624Y-119894101D01*
X82909162Y-119872759D01*
X82869105Y-119827604D01*
X82854647Y-119769000D01*
X82869105Y-119710396D01*
X82909162Y-119665241D01*
X82965624Y-119643899D01*
X83002644Y-119639453D01*
X83047077Y-119634117D01*
X83184658Y-119579862D01*
X83302500Y-119490500D01*
X83391862Y-119372658D01*
X83446117Y-119235077D01*
X83456500Y-119148618D01*
X83456500Y-118564382D01*
X83455553Y-118556500D01*
X83446117Y-118477924D01*
X83438949Y-118459747D01*
X83391862Y-118340342D01*
X83302500Y-118222500D01*
X83302498Y-118222498D01*
X83302497Y-118222497D01*
X83283845Y-118208353D01*
X83246189Y-118162066D01*
X83239250Y-118128663D01*
X83237863Y-118129002D01*
X83233666Y-118111781D01*
X83224057Y-118072353D01*
X83221652Y-118059698D01*
X83216070Y-118019080D01*
X83208988Y-118002778D01*
X83202139Y-117982408D01*
X83197934Y-117965150D01*
X83193738Y-117957688D01*
X83177836Y-117929405D01*
X83172114Y-117917885D01*
X83155780Y-117880280D01*
X83144558Y-117866488D01*
X83132475Y-117848734D01*
X83123765Y-117833241D01*
X83094793Y-117804269D01*
X83086149Y-117794691D01*
X83060279Y-117762892D01*
X83045752Y-117752638D01*
X83029319Y-117738795D01*
X82807317Y-117516793D01*
X82783127Y-117482856D01*
X82771332Y-117442891D01*
X82766140Y-117400128D01*
X82705818Y-117241070D01*
X82609183Y-117101071D01*
X82481852Y-116988266D01*
X82331225Y-116909210D01*
X82166056Y-116868500D01*
X81995944Y-116868500D01*
X81883687Y-116896168D01*
X81830770Y-116909211D01*
X81803100Y-116923734D01*
X81733901Y-116937715D01*
X81668043Y-116912282D01*
X81626203Y-116855419D01*
X81621516Y-116784977D01*
X81655448Y-116723075D01*
X82281891Y-116096633D01*
X82340825Y-116063394D01*
X82481225Y-116028790D01*
X82631852Y-115949734D01*
X82759183Y-115836929D01*
X82855818Y-115696930D01*
X82916140Y-115537872D01*
X82936645Y-115369000D01*
X82916140Y-115200128D01*
X82855818Y-115041070D01*
X82759183Y-114901071D01*
X82631852Y-114788266D01*
X82481225Y-114709210D01*
X82316056Y-114668500D01*
X82145944Y-114668500D01*
X81980775Y-114709210D01*
X81848559Y-114778603D01*
X81830148Y-114788266D01*
X81702816Y-114901072D01*
X81606181Y-115041070D01*
X81545859Y-115200128D01*
X81540668Y-115242885D01*
X81528872Y-115282855D01*
X81504682Y-115316791D01*
X81053305Y-115768168D01*
X80994041Y-115801491D01*
X80926091Y-115799169D01*
X80869240Y-115761878D01*
X80840041Y-115700477D01*
X80845099Y-115651295D01*
X80844183Y-115651185D01*
X80856500Y-115548620D01*
X80856500Y-114964380D01*
X80846117Y-114877924D01*
X80846117Y-114877923D01*
X80791862Y-114740342D01*
X80702500Y-114622500D01*
X80584658Y-114533138D01*
X80456348Y-114482539D01*
X80447075Y-114478882D01*
X80360620Y-114468500D01*
X80360618Y-114468500D01*
X79946938Y-114468500D01*
X79898720Y-114458909D01*
X79857843Y-114431595D01*
X79766908Y-114340660D01*
X79736170Y-114290501D01*
X79731554Y-114231854D01*
X79754067Y-114177504D01*
X79798800Y-114139298D01*
X79856003Y-114125565D01*
X79981931Y-114125565D01*
X79998680Y-114123622D01*
X80007056Y-114122651D01*
X80109830Y-114077272D01*
X80109830Y-114077271D01*
X80115883Y-114074599D01*
X80146575Y-114054091D01*
X80194793Y-114044500D01*
X80567892Y-114044500D01*
X80567893Y-114044500D01*
X80590713Y-114037084D01*
X80609922Y-114032472D01*
X80633626Y-114028719D01*
X80654995Y-114017829D01*
X80673263Y-114010262D01*
X80696081Y-114002849D01*
X80715487Y-113988749D01*
X80732349Y-113978416D01*
X80753720Y-113967528D01*
X80849028Y-113872220D01*
X80866744Y-113854504D01*
X80866747Y-113854499D01*
X81271053Y-113450195D01*
X81271052Y-113450195D01*
X81295027Y-113426221D01*
X81295028Y-113426218D01*
X81300084Y-113421163D01*
X81302687Y-113411186D01*
X81305914Y-113404851D01*
X81316243Y-113387993D01*
X81330348Y-113368582D01*
X81337761Y-113345764D01*
X81345329Y-113327496D01*
X81354039Y-113310403D01*
X81356218Y-113306127D01*
X81359971Y-113282423D01*
X81364583Y-113263214D01*
X81371999Y-113240394D01*
X81371999Y-113105608D01*
X81371999Y-111531940D01*
X81381590Y-111483722D01*
X81408903Y-111442845D01*
X81551187Y-111300561D01*
X81705405Y-111146342D01*
X81755564Y-111115605D01*
X81814211Y-111110989D01*
X81868561Y-111133502D01*
X81906767Y-111178235D01*
X81920500Y-111235438D01*
X81920500Y-112663865D01*
X81923414Y-112688990D01*
X81968794Y-112791766D01*
X82048233Y-112871205D01*
X82048234Y-112871205D01*
X82048235Y-112871206D01*
X82151009Y-112916585D01*
X82176135Y-112919500D01*
X83919745Y-112919499D01*
X83978300Y-112933931D01*
X84023441Y-112973922D01*
X84044826Y-113030310D01*
X84037557Y-113090178D01*
X83995860Y-113200126D01*
X83975355Y-113368999D01*
X83995859Y-113537871D01*
X84056181Y-113696929D01*
X84086489Y-113740837D01*
X84152817Y-113836929D01*
X84280148Y-113949734D01*
X84430775Y-114028790D01*
X84595944Y-114069500D01*
X84766054Y-114069500D01*
X84766056Y-114069500D01*
X84931225Y-114028790D01*
X85081852Y-113949734D01*
X85209183Y-113836929D01*
X85305818Y-113696930D01*
X85366140Y-113537872D01*
X85371332Y-113495107D01*
X85383126Y-113455142D01*
X85407314Y-113421208D01*
X85662097Y-113166425D01*
X85665130Y-113163493D01*
X85712044Y-113119680D01*
X85733337Y-113084662D01*
X85740591Y-113074003D01*
X85765361Y-113041342D01*
X85771880Y-113024809D01*
X85781442Y-113005559D01*
X85796969Y-112980028D01*
X85842871Y-112935669D01*
X85904623Y-112919499D01*
X85985866Y-112919499D01*
X86002615Y-112917556D01*
X86010991Y-112916585D01*
X86113765Y-112871206D01*
X86193206Y-112791765D01*
X86238585Y-112688991D01*
X86241500Y-112663865D01*
X86241499Y-110474136D01*
X86238585Y-110449009D01*
X86193206Y-110346235D01*
X86193205Y-110346234D01*
X86193205Y-110346233D01*
X86113766Y-110266794D01*
X86010992Y-110221415D01*
X86005965Y-110220832D01*
X85985865Y-110218500D01*
X85985861Y-110218500D01*
X84896134Y-110218500D01*
X84852071Y-110223611D01*
X84851801Y-110221287D01*
X84822317Y-110226270D01*
X84763709Y-110206246D01*
X84721722Y-110160717D01*
X84706500Y-110100682D01*
X84706500Y-109240662D01*
X84716091Y-109192444D01*
X84743405Y-109151567D01*
X84828205Y-109066766D01*
X84828206Y-109066765D01*
X84873585Y-108963991D01*
X84876500Y-108938865D01*
X84876499Y-108159136D01*
X84874412Y-108141144D01*
X84873585Y-108134009D01*
X84844730Y-108068658D01*
X84828206Y-108031235D01*
X84828205Y-108031234D01*
X84828205Y-108031233D01*
X84794714Y-107997742D01*
X84762102Y-107941258D01*
X84762102Y-107876036D01*
X84794714Y-107819552D01*
X84827786Y-107786479D01*
X84873089Y-107683876D01*
X84876000Y-107658790D01*
X84876000Y-107419000D01*
X84257000Y-107419000D01*
X84194000Y-107402119D01*
X84147881Y-107356000D01*
X84131000Y-107293000D01*
X84131000Y-106624001D01*
X83941208Y-106624001D01*
X83897190Y-106629106D01*
X83896965Y-106627173D01*
X83881589Y-106630410D01*
X83865120Y-106626935D01*
X83864926Y-106628612D01*
X83845992Y-106626415D01*
X83845991Y-106626415D01*
X83825175Y-106624000D01*
X84431000Y-106624000D01*
X84431000Y-107119000D01*
X84875999Y-107119000D01*
X84875999Y-106879206D01*
X84873090Y-106854123D01*
X84827787Y-106751521D01*
X84748479Y-106672213D01*
X84645876Y-106626910D01*
X84620790Y-106624000D01*
X84431000Y-106624000D01*
X83825175Y-106624000D01*
X83820865Y-106623500D01*
X83820861Y-106623500D01*
X83141134Y-106623500D01*
X83097072Y-106628611D01*
X83096860Y-106626791D01*
X83080973Y-106630137D01*
X83065134Y-106626794D01*
X83064924Y-106628612D01*
X83045992Y-106626415D01*
X83045991Y-106626415D01*
X83020865Y-106623500D01*
X83020861Y-106623500D01*
X82999438Y-106623500D01*
X82951220Y-106613909D01*
X82910343Y-106586595D01*
X82740615Y-106416867D01*
X82706645Y-106354810D01*
X82711473Y-106284228D01*
X82753575Y-106227376D01*
X82806922Y-106186922D01*
X82898361Y-106066342D01*
X82953876Y-105925564D01*
X82964500Y-105837099D01*
X82964499Y-104500902D01*
X82962357Y-104483067D01*
X82953876Y-104412436D01*
X82892008Y-104255547D01*
X82894573Y-104254535D01*
X82881820Y-104224238D01*
X82888204Y-104162117D01*
X82923632Y-104110691D01*
X82979402Y-104082593D01*
X83041814Y-104084724D01*
X83095537Y-104116562D01*
X83876595Y-104897620D01*
X83903909Y-104938497D01*
X83913500Y-104986715D01*
X83913500Y-105837100D01*
X83924123Y-105925563D01*
X83979638Y-106066341D01*
X84071077Y-106186922D01*
X84191658Y-106278361D01*
X84332435Y-106333876D01*
X84346417Y-106335555D01*
X84420901Y-106344500D01*
X85432098Y-106344499D01*
X85432100Y-106344499D01*
X85491075Y-106337417D01*
X85520564Y-106333876D01*
X85661342Y-106278361D01*
X85781922Y-106186922D01*
X85873361Y-106066342D01*
X85928876Y-105925564D01*
X85939500Y-105837099D01*
X85939499Y-104500902D01*
X85937357Y-104483067D01*
X85928876Y-104412436D01*
X85873361Y-104271658D01*
X85854647Y-104246980D01*
X85781922Y-104151078D01*
X85781921Y-104151077D01*
X85778551Y-104146633D01*
X85753503Y-104082314D01*
X85766101Y-104014449D01*
X85812564Y-103963405D01*
X85878946Y-103944499D01*
X86274098Y-103944499D01*
X86274101Y-103944499D01*
X86340447Y-103936531D01*
X86362564Y-103933876D01*
X86503342Y-103878361D01*
X86623922Y-103786922D01*
X86715361Y-103666342D01*
X86770876Y-103525564D01*
X86781500Y-103437099D01*
X86781499Y-102706387D01*
X86797751Y-102644490D01*
X86842315Y-102598559D01*
X86903694Y-102580445D01*
X86966051Y-102594820D01*
X87030775Y-102628790D01*
X87109656Y-102648232D01*
X87159188Y-102672970D01*
X87193335Y-102716555D01*
X87205500Y-102770570D01*
X87205500Y-104363865D01*
X87208414Y-104388990D01*
X87253794Y-104491766D01*
X87333232Y-104571204D01*
X87333233Y-104571204D01*
X87333235Y-104571206D01*
X87379102Y-104591458D01*
X87380395Y-104592029D01*
X87419957Y-104619580D01*
X87446277Y-104659973D01*
X87455500Y-104707293D01*
X87455500Y-105230708D01*
X87446277Y-105278029D01*
X87419956Y-105318421D01*
X87380393Y-105345972D01*
X87333233Y-105366794D01*
X87253794Y-105446233D01*
X87208415Y-105549007D01*
X87205500Y-105574138D01*
X87205500Y-107263865D01*
X87208414Y-107288990D01*
X87253794Y-107391766D01*
X87333232Y-107471204D01*
X87333233Y-107471204D01*
X87333235Y-107471206D01*
X87345377Y-107476567D01*
X87350289Y-107478736D01*
X87396331Y-107513506D01*
X87422047Y-107565152D01*
X87422047Y-107622848D01*
X87396331Y-107674494D01*
X87350289Y-107709264D01*
X87333232Y-107716795D01*
X87253794Y-107796233D01*
X87208415Y-107899007D01*
X87205500Y-107924138D01*
X87205500Y-109613865D01*
X87208414Y-109638990D01*
X87253794Y-109741766D01*
X87316933Y-109804905D01*
X87349545Y-109861389D01*
X87349545Y-109926611D01*
X87316933Y-109983095D01*
X87253794Y-110046233D01*
X87208415Y-110149007D01*
X87205500Y-110174137D01*
X87205500Y-112613865D01*
X87208414Y-112638990D01*
X87253794Y-112741766D01*
X87333233Y-112821205D01*
X87333234Y-112821205D01*
X87333235Y-112821206D01*
X87436009Y-112866585D01*
X87461135Y-112869500D01*
X88300864Y-112869499D01*
X88300865Y-112869499D01*
X88313427Y-112868041D01*
X88325991Y-112866585D01*
X88428765Y-112821206D01*
X88508206Y-112741765D01*
X88524448Y-112704979D01*
X88561478Y-112657105D01*
X88616559Y-112632019D01*
X88676984Y-112635513D01*
X88728807Y-112666779D01*
X88785617Y-112723589D01*
X88819956Y-112747501D01*
X88846276Y-112787894D01*
X88855500Y-112835215D01*
X88855500Y-113036394D01*
X88862912Y-113059206D01*
X88867528Y-113078431D01*
X88871281Y-113102127D01*
X88882170Y-113123497D01*
X88889737Y-113141763D01*
X88897151Y-113164581D01*
X88911249Y-113183985D01*
X88921580Y-113200843D01*
X88931580Y-113220471D01*
X88932472Y-113222220D01*
X88956446Y-113246194D01*
X89205367Y-113495115D01*
X89418595Y-113708342D01*
X89445909Y-113749220D01*
X89455500Y-113797438D01*
X89455500Y-115673480D01*
X89440162Y-115733728D01*
X89397883Y-115779309D01*
X89338956Y-115799125D01*
X89277727Y-115788352D01*
X89229102Y-115749613D01*
X89227500Y-115747500D01*
X89109658Y-115658138D01*
X89035232Y-115628788D01*
X88972075Y-115603882D01*
X88885620Y-115593500D01*
X88885618Y-115593500D01*
X88546923Y-115593500D01*
X88481738Y-115575328D01*
X88435355Y-115526055D01*
X88421153Y-115459892D01*
X88443225Y-115395926D01*
X88524351Y-115278397D01*
X88584673Y-115119339D01*
X88605178Y-114950467D01*
X88584673Y-114781595D01*
X88524351Y-114622537D01*
X88427716Y-114482538D01*
X88300385Y-114369733D01*
X88149758Y-114290677D01*
X87984589Y-114249967D01*
X87814477Y-114249967D01*
X87649308Y-114290677D01*
X87516732Y-114360259D01*
X87498681Y-114369733D01*
X87371349Y-114482539D01*
X87274714Y-114622537D01*
X87214392Y-114781595D01*
X87195785Y-114934843D01*
X87193888Y-114950467D01*
X87196138Y-114969000D01*
X87197743Y-114982214D01*
X87191768Y-115038502D01*
X87161757Y-115086495D01*
X86691654Y-115556597D01*
X86650780Y-115583909D01*
X86602562Y-115593500D01*
X86476380Y-115593500D01*
X86389924Y-115603882D01*
X86252344Y-115658137D01*
X86252343Y-115658137D01*
X86252342Y-115658138D01*
X86134500Y-115747500D01*
X86045138Y-115865342D01*
X86045137Y-115865343D01*
X86045137Y-115865344D01*
X85990882Y-116002924D01*
X85980500Y-116089380D01*
X85980500Y-116648620D01*
X85990882Y-116735075D01*
X86005034Y-116770962D01*
X86045138Y-116872658D01*
X86134500Y-116990500D01*
X86252342Y-117079862D01*
X86278410Y-117090142D01*
X86282437Y-117091730D01*
X86335296Y-117131108D01*
X86361039Y-117191788D01*
X86352622Y-117257163D01*
X86312347Y-117309342D01*
X86189502Y-117402498D01*
X86189501Y-117402499D01*
X86189500Y-117402500D01*
X86100138Y-117520342D01*
X86100137Y-117520343D01*
X86100137Y-117520344D01*
X86045882Y-117657924D01*
X86035500Y-117744380D01*
X86035500Y-118328620D01*
X86045882Y-118415075D01*
X86047430Y-118419000D01*
X86100138Y-118552658D01*
X86189500Y-118670500D01*
X86307342Y-118759862D01*
X86444923Y-118814117D01*
X86526376Y-118823898D01*
X86582836Y-118845240D01*
X86622893Y-118890394D01*
X86637352Y-118948998D01*
X86622894Y-119007602D01*
X86582838Y-119052757D01*
X86526377Y-119074100D01*
X86444923Y-119083882D01*
X86307344Y-119138137D01*
X86307343Y-119138137D01*
X86307342Y-119138138D01*
X86189500Y-119227500D01*
X86100138Y-119345342D01*
X86100137Y-119345343D01*
X86100137Y-119345344D01*
X86045882Y-119482924D01*
X86035500Y-119569380D01*
X86035500Y-120153620D01*
X86045882Y-120240075D01*
X86053770Y-120260077D01*
X86100138Y-120377658D01*
X86189500Y-120495500D01*
X86307342Y-120584862D01*
X86444923Y-120639117D01*
X86473742Y-120642577D01*
X86531380Y-120649500D01*
X86531382Y-120649500D01*
X87090618Y-120649500D01*
X87090620Y-120649500D01*
X87133847Y-120644308D01*
X87177077Y-120639117D01*
X87314658Y-120584862D01*
X87432500Y-120495500D01*
X87488020Y-120422284D01*
X87532366Y-120385573D01*
X87588415Y-120372420D01*
X87644465Y-120385573D01*
X87688813Y-120422286D01*
X87759497Y-120515497D01*
X87759498Y-120515498D01*
X87759500Y-120515500D01*
X87877342Y-120604862D01*
X88014923Y-120659117D01*
X88043742Y-120662577D01*
X88101380Y-120669500D01*
X88101382Y-120669500D01*
X88660618Y-120669500D01*
X88660620Y-120669500D01*
X88703847Y-120664308D01*
X88747077Y-120659117D01*
X88884658Y-120604862D01*
X89002500Y-120515500D01*
X89091862Y-120397658D01*
X89146117Y-120260077D01*
X89150245Y-120225706D01*
X89154776Y-120187976D01*
X89176118Y-120131515D01*
X89221273Y-120091458D01*
X89279877Y-120077000D01*
X89325164Y-120077000D01*
X89388164Y-120093881D01*
X89434283Y-120140000D01*
X89451164Y-120203000D01*
X89451164Y-120313139D01*
X89457728Y-120363010D01*
X89457728Y-120363011D01*
X89457729Y-120363013D01*
X89505446Y-120465342D01*
X89508776Y-120472483D01*
X89597198Y-120560905D01*
X89629810Y-120617389D01*
X89629810Y-120682611D01*
X89597198Y-120739095D01*
X89508776Y-120827516D01*
X89457728Y-120936988D01*
X89451163Y-120986861D01*
X89451163Y-121583138D01*
X89457728Y-121633010D01*
X89457728Y-121633011D01*
X89457729Y-121633013D01*
X89500507Y-121724750D01*
X89508776Y-121742483D01*
X89597552Y-121831259D01*
X89630164Y-121887743D01*
X89630164Y-121952965D01*
X89597552Y-122009449D01*
X89509192Y-122097808D01*
X89458219Y-122207118D01*
X89451663Y-122256923D01*
X89451663Y-122405000D01*
X92021663Y-122405000D01*
X92021663Y-122256923D01*
X92015106Y-122207118D01*
X91964133Y-122097808D01*
X91916920Y-122050595D01*
X91886182Y-122000436D01*
X91881566Y-121941789D01*
X91904079Y-121887439D01*
X91948812Y-121849233D01*
X92006015Y-121835500D01*
X93219593Y-121835500D01*
X93267811Y-121845091D01*
X93308688Y-121872405D01*
X94372353Y-122936069D01*
X94375343Y-122939162D01*
X94419128Y-122986044D01*
X94419129Y-122986044D01*
X94422078Y-122989202D01*
X94438017Y-123001724D01*
X94534179Y-123097886D01*
X94534180Y-123097886D01*
X94534182Y-123097888D01*
X94643650Y-123148934D01*
X94693526Y-123155500D01*
X96659799Y-123155499D01*
X96659801Y-123155499D01*
X96693050Y-123151122D01*
X96709676Y-123148934D01*
X96760374Y-123125293D01*
X96777505Y-123117305D01*
X96830754Y-123105500D01*
X97007460Y-123105500D01*
X97063510Y-123118653D01*
X97107856Y-123155364D01*
X97134500Y-123190500D01*
X97218134Y-123253921D01*
X97254847Y-123298268D01*
X97268000Y-123354318D01*
X97268000Y-123383682D01*
X97254847Y-123439732D01*
X97218134Y-123484078D01*
X97200583Y-123497388D01*
X97134501Y-123547498D01*
X97102485Y-123589718D01*
X97045138Y-123665342D01*
X97045137Y-123665343D01*
X97045137Y-123665344D01*
X96990882Y-123802924D01*
X96980500Y-123889380D01*
X96980500Y-124448620D01*
X96990882Y-124535075D01*
X96990883Y-124535077D01*
X97045138Y-124672658D01*
X97134500Y-124790500D01*
X97218134Y-124853921D01*
X97254847Y-124898268D01*
X97268000Y-124954318D01*
X97268000Y-125694939D01*
X97267927Y-125699240D01*
X97265738Y-125763327D01*
X97275441Y-125803146D01*
X97277849Y-125815819D01*
X97283429Y-125856418D01*
X97290510Y-125872719D01*
X97297358Y-125893081D01*
X97301567Y-125910353D01*
X97321654Y-125946080D01*
X97327390Y-125957628D01*
X97343089Y-125993768D01*
X97343720Y-125995220D01*
X97354935Y-126009005D01*
X97367019Y-126026760D01*
X97372737Y-126036929D01*
X97375735Y-126042260D01*
X97404709Y-126071234D01*
X97413353Y-126080811D01*
X97439222Y-126112608D01*
X97453232Y-126122497D01*
X97453742Y-126122857D01*
X97470175Y-126136700D01*
X97554681Y-126221206D01*
X97578871Y-126255141D01*
X97590667Y-126295111D01*
X97595859Y-126337871D01*
X97656181Y-126496929D01*
X97656182Y-126496930D01*
X97752817Y-126636929D01*
X97880148Y-126749734D01*
X98030775Y-126828790D01*
X98195944Y-126869500D01*
X98366054Y-126869500D01*
X98366056Y-126869500D01*
X98531225Y-126828790D01*
X98681852Y-126749734D01*
X98809183Y-126636929D01*
X98905818Y-126496930D01*
X98966140Y-126337872D01*
X98986645Y-126169000D01*
X98966140Y-126000128D01*
X98905818Y-125841070D01*
X98809183Y-125701071D01*
X98681852Y-125588266D01*
X98531225Y-125509210D01*
X98464843Y-125492848D01*
X98415312Y-125468111D01*
X98381165Y-125424526D01*
X98369000Y-125370511D01*
X98369000Y-124954318D01*
X98382153Y-124898268D01*
X98418865Y-124853921D01*
X98502500Y-124790500D01*
X98580916Y-124687091D01*
X98625263Y-124650379D01*
X98681312Y-124637226D01*
X98737362Y-124650379D01*
X98781710Y-124687092D01*
X98859856Y-124790143D01*
X98977587Y-124879421D01*
X99115043Y-124933627D01*
X99201421Y-124944000D01*
X99393500Y-124944000D01*
X99393500Y-124319000D01*
X99693500Y-124319000D01*
X99693500Y-124944000D01*
X99885579Y-124944000D01*
X99971956Y-124933627D01*
X100109412Y-124879421D01*
X100227143Y-124790143D01*
X100316421Y-124672412D01*
X100370627Y-124534956D01*
X100381000Y-124448579D01*
X100381000Y-124319000D01*
X99693500Y-124319000D01*
X99393500Y-124319000D01*
X99393500Y-122719000D01*
X99693500Y-122719000D01*
X99693500Y-124019000D01*
X100381000Y-124019000D01*
X100381000Y-123889421D01*
X100370627Y-123803043D01*
X100316421Y-123665587D01*
X100227143Y-123547857D01*
X100123678Y-123469397D01*
X100086965Y-123425050D01*
X100073812Y-123369000D01*
X100086965Y-123312950D01*
X100123678Y-123268603D01*
X100227143Y-123190142D01*
X100316421Y-123072412D01*
X100370627Y-122934956D01*
X100381000Y-122848579D01*
X100381000Y-122719000D01*
X99693500Y-122719000D01*
X99393500Y-122719000D01*
X99393500Y-122545000D01*
X99410381Y-122482000D01*
X99456500Y-122435881D01*
X99519500Y-122419000D01*
X100381000Y-122419000D01*
X100381000Y-122289421D01*
X100370627Y-122203043D01*
X100316421Y-122065587D01*
X100227143Y-121947856D01*
X100109411Y-121858577D01*
X100037856Y-121830360D01*
X99990539Y-121797562D01*
X99962751Y-121747139D01*
X99960295Y-121689619D01*
X99983679Y-121637015D01*
X100013525Y-121597658D01*
X100067780Y-121460077D01*
X100078163Y-121373618D01*
X100078163Y-120789382D01*
X100075012Y-120763147D01*
X100067780Y-120702924D01*
X100067780Y-120702923D01*
X100013525Y-120565342D01*
X99924163Y-120447500D01*
X99806321Y-120358138D01*
X99692209Y-120313138D01*
X99668738Y-120303882D01*
X99587287Y-120294101D01*
X99530825Y-120272759D01*
X99490768Y-120227604D01*
X99476310Y-120169000D01*
X99490768Y-120110396D01*
X99530825Y-120065241D01*
X99587287Y-120043899D01*
X99622020Y-120039727D01*
X99668740Y-120034117D01*
X99806321Y-119979862D01*
X99924163Y-119890500D01*
X99937998Y-119872255D01*
X99982343Y-119835544D01*
X100038393Y-119822390D01*
X100094443Y-119835543D01*
X100138789Y-119872254D01*
X100209500Y-119965500D01*
X100327342Y-120054862D01*
X100464923Y-120109117D01*
X100493742Y-120112578D01*
X100551380Y-120119500D01*
X100551382Y-120119500D01*
X101110618Y-120119500D01*
X101110620Y-120119500D01*
X101153847Y-120114308D01*
X101197077Y-120109117D01*
X101334658Y-120054862D01*
X101452500Y-119965500D01*
X101541862Y-119847658D01*
X101596117Y-119710077D01*
X101603992Y-119644500D01*
X101606500Y-119623620D01*
X101606500Y-119039380D01*
X101596117Y-118952924D01*
X101592795Y-118944500D01*
X101541862Y-118815342D01*
X101452500Y-118697500D01*
X101334658Y-118608138D01*
X101257932Y-118577881D01*
X101197075Y-118553882D01*
X101115624Y-118544101D01*
X101059162Y-118522759D01*
X101019105Y-118477604D01*
X101004647Y-118419000D01*
X101019105Y-118360396D01*
X101059162Y-118315241D01*
X101115624Y-118293899D01*
X101153235Y-118289382D01*
X101197077Y-118284117D01*
X101334658Y-118229862D01*
X101452500Y-118140500D01*
X101541862Y-118022658D01*
X101596117Y-117885077D01*
X101603666Y-117822218D01*
X101606500Y-117798620D01*
X101606500Y-117214380D01*
X101598108Y-117144500D01*
X101596117Y-117127923D01*
X101541862Y-116990342D01*
X101452500Y-116872500D01*
X101334658Y-116783138D01*
X101212779Y-116735075D01*
X101197075Y-116728882D01*
X101110620Y-116718500D01*
X101110618Y-116718500D01*
X100551382Y-116718500D01*
X100551380Y-116718500D01*
X100464924Y-116728882D01*
X100327344Y-116783137D01*
X100327343Y-116783137D01*
X100327342Y-116783138D01*
X100209500Y-116872500D01*
X100120138Y-116990342D01*
X100120137Y-116990343D01*
X100120137Y-116990344D01*
X100065882Y-117127924D01*
X100055500Y-117214380D01*
X100055500Y-117304500D01*
X100038619Y-117367500D01*
X99992500Y-117413619D01*
X99929500Y-117430500D01*
X99048599Y-117430500D01*
X98990019Y-117416055D01*
X98966950Y-117395603D01*
X98964635Y-117398217D01*
X98953183Y-117388072D01*
X98953183Y-117388071D01*
X98825852Y-117275266D01*
X98675225Y-117196210D01*
X98510056Y-117155500D01*
X98339944Y-117155500D01*
X98174775Y-117196210D01*
X98161276Y-117203295D01*
X98095154Y-117217498D01*
X98031213Y-117195468D01*
X97987874Y-117143549D01*
X97977622Y-117076701D01*
X97981000Y-117048576D01*
X97981000Y-116919000D01*
X97293500Y-116919000D01*
X97293500Y-117544000D01*
X97485579Y-117544000D01*
X97571955Y-117533627D01*
X97572758Y-117533311D01*
X97629821Y-117524992D01*
X97684614Y-117542967D01*
X97725660Y-117583471D01*
X97744362Y-117638021D01*
X97739905Y-117671722D01*
X97741704Y-117671941D01*
X97721839Y-117835546D01*
X97719355Y-117856000D01*
X97720630Y-117866497D01*
X97739859Y-118024871D01*
X97800181Y-118183929D01*
X97860230Y-118270924D01*
X97882304Y-118334892D01*
X97868102Y-118401055D01*
X97821719Y-118450328D01*
X97756534Y-118468500D01*
X97499043Y-118468500D01*
X97412587Y-118478882D01*
X97275004Y-118533138D01*
X97164295Y-118617091D01*
X97099976Y-118642138D01*
X97032112Y-118629540D01*
X96981068Y-118583077D01*
X96962162Y-118516693D01*
X96962162Y-118446861D01*
X96955597Y-118396989D01*
X96955597Y-118396988D01*
X96955597Y-118396987D01*
X96904551Y-118287519D01*
X96904549Y-118287517D01*
X96904549Y-118287516D01*
X96819146Y-118202113D01*
X96709674Y-118151065D01*
X96659802Y-118144500D01*
X96659800Y-118144500D01*
X96353163Y-118144500D01*
X96290163Y-118127619D01*
X96244044Y-118081500D01*
X96227163Y-118018500D01*
X96227163Y-117457973D01*
X96242501Y-117397725D01*
X96284780Y-117352144D01*
X96343707Y-117332328D01*
X96404936Y-117343101D01*
X96453561Y-117381840D01*
X96459857Y-117390143D01*
X96577587Y-117479421D01*
X96715043Y-117533627D01*
X96801421Y-117544000D01*
X96993500Y-117544000D01*
X96993500Y-115994000D01*
X97293500Y-115994000D01*
X97293500Y-116619000D01*
X97981000Y-116619000D01*
X97981000Y-116489421D01*
X97970627Y-116403043D01*
X97916421Y-116265587D01*
X97827143Y-116147856D01*
X97709412Y-116058578D01*
X97571956Y-116004372D01*
X97485579Y-115994000D01*
X97293500Y-115994000D01*
X96993500Y-115994000D01*
X96801421Y-115994000D01*
X96715043Y-116004372D01*
X96577587Y-116058578D01*
X96459858Y-116147855D01*
X96381710Y-116250908D01*
X96337362Y-116287620D01*
X96281312Y-116300773D01*
X96225263Y-116287620D01*
X96180916Y-116250907D01*
X96137383Y-116193500D01*
X96102500Y-116147500D01*
X95984658Y-116058138D01*
X95909438Y-116028475D01*
X95847075Y-116003882D01*
X95760620Y-115993500D01*
X95760618Y-115993500D01*
X95076382Y-115993500D01*
X95076380Y-115993500D01*
X94989924Y-116003882D01*
X94852344Y-116058137D01*
X94852343Y-116058137D01*
X94852342Y-116058138D01*
X94734500Y-116147500D01*
X94718473Y-116168634D01*
X94674127Y-116205347D01*
X94618077Y-116218500D01*
X94563764Y-116218500D01*
X94519083Y-116210312D01*
X94487647Y-116191308D01*
X94481853Y-116188267D01*
X94481852Y-116188266D01*
X94331225Y-116109210D01*
X94166056Y-116068500D01*
X93995944Y-116068500D01*
X93830775Y-116109210D01*
X93680148Y-116188266D01*
X93553154Y-116300773D01*
X93552816Y-116301072D01*
X93456181Y-116441070D01*
X93395859Y-116600128D01*
X93375355Y-116768999D01*
X93395859Y-116937871D01*
X93456181Y-117096929D01*
X93482513Y-117135077D01*
X93552817Y-117236929D01*
X93680148Y-117349734D01*
X93830775Y-117428790D01*
X93995944Y-117469500D01*
X94166054Y-117469500D01*
X94166056Y-117469500D01*
X94331225Y-117428790D01*
X94481852Y-117349734D01*
X94481856Y-117349730D01*
X94487647Y-117346691D01*
X94519083Y-117327688D01*
X94563764Y-117319500D01*
X94618077Y-117319500D01*
X94674127Y-117332653D01*
X94718473Y-117369365D01*
X94734500Y-117390500D01*
X94852342Y-117479862D01*
X94964938Y-117524264D01*
X94989923Y-117534117D01*
X95015186Y-117537151D01*
X95071648Y-117558493D01*
X95111705Y-117603648D01*
X95126163Y-117662252D01*
X95126163Y-118018501D01*
X95109282Y-118081501D01*
X95063163Y-118127620D01*
X95000163Y-118144501D01*
X94693524Y-118144501D01*
X94643652Y-118151065D01*
X94534179Y-118202113D01*
X94448776Y-118287516D01*
X94397728Y-118396988D01*
X94391163Y-118446861D01*
X94391163Y-119043138D01*
X94397728Y-119093010D01*
X94397728Y-119093011D01*
X94397729Y-119093013D01*
X94423137Y-119147500D01*
X94448776Y-119202483D01*
X94537198Y-119290905D01*
X94569810Y-119347389D01*
X94569810Y-119412611D01*
X94537198Y-119469095D01*
X94448775Y-119557517D01*
X94414413Y-119631206D01*
X94376922Y-119677918D01*
X94322098Y-119702041D01*
X94262330Y-119698123D01*
X94211124Y-119667050D01*
X93092916Y-118548842D01*
X93065602Y-118507965D01*
X93056011Y-118459747D01*
X93056011Y-118065414D01*
X93048597Y-118042597D01*
X93043981Y-118023368D01*
X93042523Y-118014160D01*
X93040230Y-117999681D01*
X93031429Y-117982408D01*
X93029340Y-117978308D01*
X93021772Y-117960037D01*
X93014360Y-117937224D01*
X93000256Y-117917811D01*
X92989927Y-117900956D01*
X92981835Y-117885075D01*
X92979039Y-117879587D01*
X92883731Y-117784279D01*
X91894388Y-116794936D01*
X91870415Y-116770962D01*
X91849031Y-116760066D01*
X91832185Y-116749743D01*
X91812775Y-116735641D01*
X91812773Y-116735640D01*
X91789960Y-116728228D01*
X91771695Y-116720662D01*
X91767452Y-116718500D01*
X91750321Y-116709771D01*
X91750319Y-116709770D01*
X91746387Y-116707767D01*
X91717985Y-116681923D01*
X91669032Y-116693990D01*
X91650683Y-116693990D01*
X91305631Y-116693989D01*
X91257413Y-116684398D01*
X91216536Y-116657084D01*
X91143405Y-116583953D01*
X91116091Y-116543076D01*
X91106500Y-116494858D01*
X91106500Y-116284425D01*
X91122380Y-116223191D01*
X91166017Y-116177392D01*
X91226413Y-116158572D01*
X91288342Y-116171475D01*
X91336196Y-116212849D01*
X91352815Y-116236927D01*
X91352817Y-116236929D01*
X91480148Y-116349734D01*
X91630775Y-116428790D01*
X91699188Y-116445652D01*
X91752585Y-116473678D01*
X91758261Y-116481901D01*
X91803590Y-116469500D01*
X91966054Y-116469500D01*
X91966056Y-116469500D01*
X92131225Y-116428790D01*
X92281852Y-116349734D01*
X92409183Y-116236929D01*
X92505818Y-116096930D01*
X92566140Y-115937872D01*
X92571332Y-115895107D01*
X92583126Y-115855143D01*
X92607314Y-115821209D01*
X93174612Y-115253911D01*
X93177645Y-115250979D01*
X93224544Y-115207180D01*
X93227965Y-115201553D01*
X93267420Y-115161074D01*
X93320602Y-115141917D01*
X93362518Y-115136883D01*
X93387564Y-115133876D01*
X93528342Y-115078361D01*
X93648922Y-114986922D01*
X93740361Y-114866342D01*
X93795876Y-114725564D01*
X93806500Y-114637099D01*
X93806499Y-113300902D01*
X93805120Y-113289421D01*
X93795876Y-113212436D01*
X93740361Y-113071658D01*
X93648922Y-112951077D01*
X93528342Y-112859639D01*
X93511276Y-112852909D01*
X93469424Y-112825798D01*
X93441367Y-112784574D01*
X93431500Y-112735694D01*
X93431500Y-112643853D01*
X93441368Y-112594973D01*
X93469425Y-112553749D01*
X93511277Y-112526638D01*
X93608342Y-112488361D01*
X93728922Y-112396922D01*
X93820361Y-112276342D01*
X93875876Y-112135564D01*
X93886500Y-112047099D01*
X93886499Y-111196713D01*
X93896090Y-111148496D01*
X93923401Y-111107622D01*
X94270612Y-110760411D01*
X94273645Y-110757479D01*
X94320544Y-110713680D01*
X94341843Y-110678653D01*
X94349086Y-110668010D01*
X94373861Y-110635342D01*
X94380382Y-110618804D01*
X94389941Y-110599561D01*
X94392029Y-110596127D01*
X94399172Y-110584382D01*
X94410232Y-110544905D01*
X94414334Y-110532705D01*
X94429376Y-110494564D01*
X94431194Y-110476874D01*
X94435202Y-110455786D01*
X94440000Y-110438665D01*
X94440000Y-110397680D01*
X94440661Y-110384795D01*
X94441044Y-110381071D01*
X94444852Y-110344028D01*
X94441832Y-110326511D01*
X94440000Y-110305104D01*
X94440000Y-110233811D01*
X94449868Y-110184931D01*
X94477925Y-110143707D01*
X94519777Y-110116596D01*
X94580880Y-110092500D01*
X94624342Y-110075361D01*
X94744922Y-109983922D01*
X94836361Y-109863342D01*
X94891876Y-109722564D01*
X94902500Y-109634099D01*
X94902499Y-108297902D01*
X94901970Y-108293500D01*
X94891876Y-108209436D01*
X94836361Y-108068658D01*
X94744922Y-107948078D01*
X94744921Y-107948077D01*
X94628637Y-107859896D01*
X94591925Y-107815550D01*
X94578772Y-107759500D01*
X94591925Y-107703450D01*
X94628638Y-107659103D01*
X94638995Y-107651249D01*
X94744922Y-107570922D01*
X94836361Y-107450342D01*
X94891876Y-107309564D01*
X94902500Y-107221099D01*
X94902499Y-105884902D01*
X94896738Y-105836929D01*
X94891876Y-105796436D01*
X94836361Y-105655658D01*
X94744922Y-105535077D01*
X94624341Y-105443638D01*
X94519777Y-105402404D01*
X94477925Y-105375293D01*
X94449868Y-105334069D01*
X94440000Y-105285189D01*
X94440000Y-105040579D01*
X94440073Y-105036277D01*
X94440371Y-105027561D01*
X94442263Y-104972174D01*
X94432558Y-104932356D01*
X94430149Y-104919677D01*
X94424570Y-104879080D01*
X94424370Y-104878619D01*
X94417489Y-104862778D01*
X94410641Y-104842414D01*
X94406434Y-104825150D01*
X94406433Y-104825148D01*
X94386337Y-104789408D01*
X94380617Y-104777891D01*
X94364280Y-104740280D01*
X94353066Y-104726496D01*
X94340976Y-104708732D01*
X94332266Y-104693241D01*
X94303280Y-104664255D01*
X94294644Y-104654685D01*
X94268778Y-104622891D01*
X94254252Y-104612637D01*
X94237820Y-104598795D01*
X94177404Y-104538379D01*
X94150090Y-104497502D01*
X94140499Y-104449284D01*
X94140499Y-103471899D01*
X94129876Y-103383436D01*
X94074361Y-103242658D01*
X93982922Y-103122077D01*
X93862341Y-103030638D01*
X93721564Y-102975123D01*
X93633101Y-102964500D01*
X93633099Y-102964500D01*
X93550000Y-102964500D01*
X93487000Y-102947619D01*
X93440881Y-102901500D01*
X93424000Y-102838500D01*
X93424000Y-102820158D01*
X93430572Y-102779996D01*
X93449603Y-102744024D01*
X93452260Y-102740519D01*
X93540361Y-102624342D01*
X93595876Y-102483564D01*
X93606500Y-102395100D01*
X94555500Y-102395100D01*
X94566123Y-102483563D01*
X94621638Y-102624341D01*
X94713077Y-102744922D01*
X94833658Y-102836361D01*
X94974435Y-102891876D01*
X94988417Y-102893555D01*
X95062901Y-102902500D01*
X95161953Y-102902499D01*
X95222194Y-102917834D01*
X95267774Y-102960106D01*
X95287594Y-103019027D01*
X95276831Y-103080253D01*
X95255652Y-103106846D01*
X95257542Y-103108279D01*
X95155638Y-103242658D01*
X95100123Y-103383435D01*
X95089500Y-103471898D01*
X95089500Y-104808100D01*
X95100123Y-104896563D01*
X95155638Y-105037341D01*
X95247077Y-105157922D01*
X95367658Y-105249361D01*
X95508435Y-105304876D01*
X95522417Y-105306555D01*
X95596901Y-105315500D01*
X95923954Y-105315499D01*
X95984198Y-105330835D01*
X96029778Y-105373111D01*
X96049596Y-105432035D01*
X96038828Y-105493262D01*
X96017653Y-105519846D01*
X96019542Y-105521279D01*
X95917638Y-105655658D01*
X95862123Y-105796435D01*
X95851500Y-105884898D01*
X95851500Y-107221100D01*
X95862123Y-107309563D01*
X95917638Y-107450341D01*
X96009078Y-107570922D01*
X96125361Y-107659103D01*
X96162074Y-107703450D01*
X96175227Y-107759500D01*
X96162074Y-107815550D01*
X96125361Y-107859897D01*
X96009078Y-107948077D01*
X95917638Y-108068658D01*
X95862123Y-108209435D01*
X95851500Y-108297898D01*
X95851500Y-109634100D01*
X95862123Y-109722563D01*
X95917638Y-109863341D01*
X96019542Y-109997721D01*
X96017653Y-109999153D01*
X96038823Y-110025724D01*
X96049597Y-110086954D01*
X96029781Y-110145882D01*
X95984201Y-110188162D01*
X95923952Y-110203500D01*
X95342899Y-110203500D01*
X95254436Y-110214123D01*
X95113658Y-110269638D01*
X94993077Y-110361077D01*
X94901638Y-110481658D01*
X94846123Y-110622435D01*
X94835500Y-110710898D01*
X94835500Y-112047100D01*
X94846123Y-112135563D01*
X94901638Y-112276341D01*
X94993077Y-112396922D01*
X95113657Y-112488360D01*
X95113658Y-112488361D01*
X95254436Y-112543876D01*
X95256261Y-112544095D01*
X95312721Y-112565435D01*
X95352780Y-112610589D01*
X95367240Y-112669193D01*
X95352783Y-112727798D01*
X95312726Y-112772954D01*
X95256264Y-112794297D01*
X95174436Y-112804123D01*
X95033658Y-112859638D01*
X94913077Y-112951077D01*
X94821638Y-113071658D01*
X94766123Y-113212435D01*
X94755500Y-113300898D01*
X94755500Y-114637100D01*
X94766123Y-114725563D01*
X94821638Y-114866341D01*
X94913077Y-114986922D01*
X95033658Y-115078361D01*
X95174435Y-115133876D01*
X95188417Y-115135555D01*
X95262901Y-115144500D01*
X96274098Y-115144499D01*
X96274100Y-115144499D01*
X96333075Y-115137416D01*
X96362564Y-115133876D01*
X96503342Y-115078361D01*
X96623922Y-114986922D01*
X96715361Y-114866342D01*
X96770876Y-114725564D01*
X96773783Y-114701355D01*
X96781500Y-114637101D01*
X96781500Y-114520500D01*
X96798381Y-114457500D01*
X96844500Y-114411381D01*
X96907500Y-114394500D01*
X97328561Y-114394500D01*
X97377442Y-114404368D01*
X97418666Y-114432425D01*
X97442328Y-114468953D01*
X97481611Y-114520755D01*
X97534500Y-114590500D01*
X97652342Y-114679862D01*
X97789923Y-114734117D01*
X97818742Y-114737578D01*
X97876380Y-114744500D01*
X97876382Y-114744500D01*
X98460618Y-114744500D01*
X98460620Y-114744500D01*
X98503847Y-114739308D01*
X98547077Y-114734117D01*
X98684658Y-114679862D01*
X98802500Y-114590500D01*
X98891862Y-114472658D01*
X98946117Y-114335077D01*
X98952801Y-114279421D01*
X98955899Y-114253624D01*
X98977241Y-114197162D01*
X99022396Y-114157105D01*
X99081000Y-114142647D01*
X99139604Y-114157105D01*
X99184759Y-114197162D01*
X99206101Y-114253624D01*
X99215882Y-114335075D01*
X99233092Y-114378717D01*
X99270138Y-114472658D01*
X99359500Y-114590500D01*
X99477342Y-114679862D01*
X99614923Y-114734117D01*
X99643742Y-114737578D01*
X99701380Y-114744500D01*
X99701382Y-114744500D01*
X100285618Y-114744500D01*
X100285620Y-114744500D01*
X100328847Y-114739308D01*
X100372077Y-114734117D01*
X100509658Y-114679862D01*
X100627500Y-114590500D01*
X100716862Y-114472658D01*
X100716862Y-114472656D01*
X100719671Y-114468953D01*
X100743334Y-114432425D01*
X100784558Y-114404368D01*
X100833439Y-114394500D01*
X101398392Y-114394500D01*
X101398393Y-114394500D01*
X101421213Y-114387084D01*
X101440422Y-114382472D01*
X101464126Y-114378719D01*
X101485495Y-114367829D01*
X101503763Y-114360262D01*
X101526581Y-114352849D01*
X101545985Y-114338750D01*
X101562849Y-114328416D01*
X101584220Y-114317528D01*
X101679528Y-114222220D01*
X101697246Y-114204502D01*
X101697247Y-114204499D01*
X104016811Y-111884937D01*
X104016810Y-111884937D01*
X104040785Y-111860963D01*
X104040786Y-111860960D01*
X104045844Y-111855903D01*
X104048448Y-111845922D01*
X104051675Y-111839588D01*
X104061998Y-111822742D01*
X104076107Y-111803324D01*
X104083521Y-111780501D01*
X104091086Y-111762239D01*
X104101976Y-111740869D01*
X104101976Y-111740866D01*
X104104404Y-111736102D01*
X104115243Y-111704376D01*
X104142177Y-111670630D01*
X104220440Y-111601297D01*
X104317075Y-111461298D01*
X104355398Y-111360246D01*
X104391090Y-111309363D01*
X104446764Y-111281733D01*
X104508874Y-111284079D01*
X104562305Y-111315830D01*
X105323595Y-112077119D01*
X105350909Y-112117997D01*
X105359103Y-112159193D01*
X105359601Y-112159134D01*
X105360377Y-112165597D01*
X105360500Y-112166215D01*
X105360500Y-112166620D01*
X105370882Y-112253075D01*
X105380059Y-112276345D01*
X105425138Y-112390658D01*
X105514500Y-112508500D01*
X105514502Y-112508502D01*
X105548134Y-112534006D01*
X105584847Y-112578354D01*
X105598000Y-112634403D01*
X105598000Y-112836764D01*
X105584847Y-112892814D01*
X105548135Y-112937159D01*
X105534500Y-112947500D01*
X105445138Y-113065342D01*
X105445137Y-113065343D01*
X105445137Y-113065344D01*
X105390882Y-113202924D01*
X105380500Y-113289380D01*
X105380500Y-113848620D01*
X105390882Y-113935075D01*
X105412050Y-113988752D01*
X105445138Y-114072658D01*
X105534500Y-114190500D01*
X105652342Y-114279862D01*
X105789923Y-114334117D01*
X105818742Y-114337577D01*
X105876380Y-114344500D01*
X105876382Y-114344500D01*
X106560618Y-114344500D01*
X106560620Y-114344500D01*
X106608481Y-114338752D01*
X106647077Y-114334117D01*
X106784658Y-114279862D01*
X106902500Y-114190500D01*
X106980916Y-114087091D01*
X107025263Y-114050379D01*
X107081312Y-114037226D01*
X107137362Y-114050379D01*
X107181710Y-114087092D01*
X107259856Y-114190143D01*
X107377587Y-114279421D01*
X107515043Y-114333627D01*
X107601421Y-114344000D01*
X107793500Y-114344000D01*
X107793500Y-113719000D01*
X108093500Y-113719000D01*
X108093500Y-114344000D01*
X108285579Y-114344000D01*
X108371956Y-114333627D01*
X108509412Y-114279421D01*
X108627143Y-114190143D01*
X108716421Y-114072412D01*
X108770627Y-113934956D01*
X108781000Y-113848579D01*
X108781000Y-113719000D01*
X108093500Y-113719000D01*
X107793500Y-113719000D01*
X107793500Y-113545000D01*
X107810381Y-113482000D01*
X107856500Y-113435881D01*
X107919500Y-113419000D01*
X108781000Y-113419000D01*
X108781000Y-113289421D01*
X108770627Y-113203043D01*
X108716421Y-113065587D01*
X108627143Y-112947856D01*
X108509411Y-112858577D01*
X108466207Y-112841540D01*
X108417462Y-112807133D01*
X108390013Y-112754157D01*
X108390013Y-112694492D01*
X108417462Y-112641517D01*
X108466207Y-112607110D01*
X108469948Y-112605634D01*
X108489658Y-112597862D01*
X108607500Y-112508500D01*
X108696862Y-112390658D01*
X108696862Y-112390656D01*
X108699671Y-112386953D01*
X108723334Y-112350425D01*
X108764558Y-112322368D01*
X108813439Y-112312500D01*
X109415444Y-112312500D01*
X109445596Y-112316160D01*
X109515944Y-112333500D01*
X109686054Y-112333500D01*
X109686056Y-112333500D01*
X109851225Y-112292790D01*
X110001852Y-112213734D01*
X110129183Y-112100929D01*
X110225818Y-111960930D01*
X110286140Y-111801872D01*
X110306645Y-111633000D01*
X110286140Y-111464128D01*
X110225818Y-111305070D01*
X110129183Y-111165071D01*
X110001852Y-111052266D01*
X109851225Y-110973210D01*
X109686056Y-110932500D01*
X109515944Y-110932500D01*
X109350775Y-110973210D01*
X109200148Y-111052266D01*
X109180500Y-111069673D01*
X109072816Y-111165072D01*
X108976181Y-111305071D01*
X108947697Y-111380179D01*
X108920757Y-111422783D01*
X108879273Y-111451417D01*
X108829885Y-111461500D01*
X108813439Y-111461500D01*
X108764558Y-111451632D01*
X108723334Y-111423575D01*
X108699671Y-111387046D01*
X108650231Y-111321850D01*
X108607500Y-111265500D01*
X108489658Y-111176138D01*
X108489657Y-111176137D01*
X108489655Y-111176136D01*
X108478777Y-111171847D01*
X108436925Y-111144736D01*
X108408868Y-111103512D01*
X108399000Y-111054632D01*
X108399000Y-110943607D01*
X108392190Y-110922650D01*
X108391587Y-110920795D01*
X108386971Y-110901564D01*
X108383219Y-110877874D01*
X108372329Y-110856501D01*
X108364762Y-110838232D01*
X108364615Y-110837781D01*
X108357350Y-110815420D01*
X108343248Y-110796011D01*
X108332921Y-110779159D01*
X108322028Y-110757780D01*
X108226720Y-110662472D01*
X108226719Y-110662471D01*
X107685248Y-110121000D01*
X108834501Y-110121000D01*
X108834501Y-110240794D01*
X108837409Y-110265876D01*
X108882712Y-110368478D01*
X108962020Y-110447786D01*
X109064623Y-110493089D01*
X109089710Y-110496000D01*
X109722000Y-110496000D01*
X109722000Y-110121000D01*
X110022000Y-110121000D01*
X110022000Y-110495999D01*
X110654294Y-110495999D01*
X110679376Y-110493090D01*
X110781978Y-110447787D01*
X110861286Y-110368479D01*
X110906589Y-110265876D01*
X110909500Y-110240790D01*
X110909500Y-110121000D01*
X110022000Y-110121000D01*
X109722000Y-110121000D01*
X108834501Y-110121000D01*
X107685248Y-110121000D01*
X107385248Y-109821000D01*
X108834500Y-109821000D01*
X109722000Y-109821000D01*
X109722000Y-109471000D01*
X110022000Y-109471000D01*
X110022000Y-109821000D01*
X110909499Y-109821000D01*
X110909499Y-109701208D01*
X110904779Y-109660510D01*
X110904780Y-109631471D01*
X110909500Y-109590794D01*
X110909500Y-109471000D01*
X110022000Y-109471000D01*
X109722000Y-109471000D01*
X108834501Y-109471000D01*
X108834501Y-109590795D01*
X108839220Y-109631488D01*
X108839220Y-109660521D01*
X108834500Y-109701209D01*
X108834500Y-109821000D01*
X107385248Y-109821000D01*
X106735248Y-109171000D01*
X108834500Y-109171000D01*
X109722000Y-109171000D01*
X109722000Y-108821000D01*
X110022000Y-108821000D01*
X110022000Y-109171000D01*
X110909499Y-109171000D01*
X110909499Y-109051209D01*
X110904779Y-109010514D01*
X110904780Y-108981475D01*
X110909500Y-108940796D01*
X110909500Y-108821000D01*
X110022000Y-108821000D01*
X109722000Y-108821000D01*
X108834501Y-108821000D01*
X108834501Y-108940795D01*
X108839220Y-108981488D01*
X108839220Y-109010521D01*
X108834500Y-109051209D01*
X108834500Y-109171000D01*
X106735248Y-109171000D01*
X105260694Y-107696446D01*
X105236720Y-107672472D01*
X105236719Y-107672471D01*
X105215343Y-107661580D01*
X105198485Y-107651249D01*
X105179081Y-107637151D01*
X105156263Y-107629737D01*
X105137998Y-107622171D01*
X105116626Y-107611281D01*
X105116625Y-107611280D01*
X105102794Y-107604233D01*
X105052566Y-107557801D01*
X105033999Y-107491969D01*
X105033999Y-107101136D01*
X105031085Y-107076009D01*
X105031084Y-107076007D01*
X105029287Y-107060511D01*
X105029288Y-107031470D01*
X105031083Y-107015994D01*
X105031085Y-107015991D01*
X105034000Y-106990865D01*
X105033999Y-106451136D01*
X105031085Y-106426009D01*
X105029288Y-106410512D01*
X105029288Y-106381477D01*
X105031083Y-106365993D01*
X105031085Y-106365991D01*
X105034000Y-106340865D01*
X105033999Y-105801136D01*
X105032823Y-105790999D01*
X105974355Y-105790999D01*
X105994859Y-105959871D01*
X106055181Y-106118929D01*
X106084812Y-106161856D01*
X106151817Y-106258929D01*
X106279148Y-106371734D01*
X106429775Y-106450790D01*
X106594944Y-106491500D01*
X106594946Y-106491500D01*
X106611499Y-106491500D01*
X106675376Y-106508892D01*
X106721619Y-106556266D01*
X106737462Y-106620545D01*
X106718532Y-106683983D01*
X106670056Y-106729065D01*
X106660564Y-106734047D01*
X106660146Y-106734267D01*
X106532816Y-106847072D01*
X106436181Y-106987070D01*
X106375859Y-107146128D01*
X106355355Y-107315000D01*
X106375859Y-107483871D01*
X106436181Y-107642929D01*
X106472814Y-107696000D01*
X106532817Y-107782929D01*
X106660148Y-107895734D01*
X106810775Y-107974790D01*
X106975944Y-108015500D01*
X107146054Y-108015500D01*
X107146056Y-108015500D01*
X107295287Y-107978718D01*
X107365337Y-107981541D01*
X107423037Y-108021369D01*
X107450518Y-108085869D01*
X107472192Y-108264371D01*
X107532514Y-108423429D01*
X107574339Y-108484022D01*
X107629150Y-108563429D01*
X107756481Y-108676234D01*
X107907108Y-108755290D01*
X108072277Y-108796000D01*
X108242387Y-108796000D01*
X108242389Y-108796000D01*
X108407558Y-108755290D01*
X108558185Y-108676234D01*
X108685516Y-108563429D01*
X108685517Y-108563427D01*
X108696968Y-108553283D01*
X108698696Y-108555233D01*
X108717908Y-108537406D01*
X108770063Y-108520705D01*
X108782309Y-108522284D01*
X108782309Y-108521000D01*
X108986779Y-108521000D01*
X109037673Y-108531736D01*
X109064509Y-108543585D01*
X109089635Y-108546500D01*
X110654364Y-108546499D01*
X110654365Y-108546499D01*
X110660645Y-108545770D01*
X110679491Y-108543585D01*
X110706327Y-108531735D01*
X110757220Y-108521000D01*
X110909499Y-108521000D01*
X110909499Y-108401210D01*
X110905033Y-108362706D01*
X110905034Y-108333667D01*
X110907084Y-108315992D01*
X110907085Y-108315991D01*
X110910000Y-108290865D01*
X110909999Y-107751136D01*
X110908747Y-107740344D01*
X110905288Y-107710512D01*
X110905288Y-107681477D01*
X110907083Y-107665993D01*
X110907085Y-107665991D01*
X110910000Y-107640865D01*
X110909999Y-107101136D01*
X110907085Y-107076009D01*
X110907084Y-107076007D01*
X110905287Y-107060511D01*
X110905288Y-107031470D01*
X110907083Y-107015994D01*
X110907085Y-107015991D01*
X110910000Y-106990865D01*
X110909999Y-106451136D01*
X110907085Y-106426009D01*
X110905288Y-106410512D01*
X110905288Y-106381477D01*
X110907083Y-106365993D01*
X110907085Y-106365991D01*
X110910000Y-106340865D01*
X110909999Y-105801136D01*
X110907085Y-105776009D01*
X110907084Y-105776008D01*
X110905033Y-105758318D01*
X110905034Y-105729278D01*
X110909500Y-105690793D01*
X110909500Y-105571000D01*
X110757221Y-105571000D01*
X110706327Y-105560264D01*
X110679492Y-105548415D01*
X110674465Y-105547831D01*
X110654365Y-105545500D01*
X110654361Y-105545500D01*
X109089634Y-105545500D01*
X109064511Y-105548414D01*
X109064508Y-105548415D01*
X109064509Y-105548415D01*
X109037672Y-105560264D01*
X108986780Y-105571000D01*
X108834500Y-105571000D01*
X108797596Y-105607904D01*
X108794906Y-105605214D01*
X108771501Y-105628619D01*
X108708501Y-105645500D01*
X108585438Y-105645500D01*
X108537220Y-105635909D01*
X108496343Y-105608595D01*
X108306776Y-105419028D01*
X108276763Y-105371034D01*
X108270790Y-105314745D01*
X108274645Y-105283000D01*
X108273188Y-105271000D01*
X108834500Y-105271000D01*
X109722000Y-105271000D01*
X109722000Y-104896001D01*
X109089706Y-104896001D01*
X109064623Y-104898909D01*
X108962021Y-104944212D01*
X108882713Y-105023520D01*
X108837410Y-105126123D01*
X108834500Y-105151210D01*
X108834500Y-105271000D01*
X108273188Y-105271000D01*
X108254140Y-105114128D01*
X108193818Y-104955070D01*
X108153045Y-104896000D01*
X110022000Y-104896000D01*
X110022000Y-105271000D01*
X110909499Y-105271000D01*
X110909499Y-105151206D01*
X110906590Y-105126123D01*
X110861287Y-105023521D01*
X110781979Y-104944213D01*
X110679376Y-104898910D01*
X110654290Y-104896000D01*
X110022000Y-104896000D01*
X108153045Y-104896000D01*
X108097183Y-104815071D01*
X107969852Y-104702266D01*
X107819225Y-104623210D01*
X107654056Y-104582500D01*
X107483944Y-104582500D01*
X107318775Y-104623210D01*
X107185344Y-104693241D01*
X107168148Y-104702266D01*
X107040816Y-104815072D01*
X106944182Y-104955069D01*
X106921481Y-105014927D01*
X106887223Y-105064558D01*
X106833824Y-105092584D01*
X106773517Y-105092585D01*
X106765057Y-105090500D01*
X106765056Y-105090500D01*
X106594944Y-105090500D01*
X106429775Y-105131210D01*
X106279148Y-105210266D01*
X106153688Y-105321414D01*
X106151816Y-105323072D01*
X106055181Y-105463070D01*
X105994859Y-105622128D01*
X105974355Y-105790999D01*
X105032823Y-105790999D01*
X105029288Y-105760512D01*
X105029288Y-105731477D01*
X105031083Y-105715993D01*
X105031085Y-105715991D01*
X105034000Y-105690865D01*
X105033999Y-105151136D01*
X105031085Y-105126009D01*
X104985706Y-105023235D01*
X104985705Y-105023234D01*
X104985705Y-105023233D01*
X104906266Y-104943794D01*
X104803492Y-104898415D01*
X104796638Y-104897620D01*
X104778365Y-104895500D01*
X104778362Y-104895500D01*
X104547500Y-104895500D01*
X104484500Y-104878619D01*
X104438381Y-104832500D01*
X104421500Y-104769500D01*
X104421500Y-103304108D01*
X104414087Y-103281295D01*
X104409470Y-103262062D01*
X104406397Y-103242658D01*
X104405719Y-103238374D01*
X104394828Y-103217000D01*
X104387260Y-103198729D01*
X104379849Y-103175919D01*
X104365750Y-103156514D01*
X104355417Y-103139652D01*
X104344528Y-103118280D01*
X104299956Y-103073708D01*
X104249220Y-103022972D01*
X103018405Y-101792157D01*
X102991091Y-101751280D01*
X102981500Y-101703062D01*
X102981500Y-101289380D01*
X102973052Y-101219039D01*
X102971117Y-101202923D01*
X102916862Y-101065342D01*
X102827500Y-100947500D01*
X102709658Y-100858138D01*
X102573875Y-100804592D01*
X102572075Y-100803882D01*
X102485620Y-100793500D01*
X102485618Y-100793500D01*
X101901382Y-100793500D01*
X101901380Y-100793500D01*
X101814924Y-100803882D01*
X101677344Y-100858137D01*
X101677343Y-100858137D01*
X101677342Y-100858138D01*
X101559500Y-100947500D01*
X101470138Y-101065342D01*
X101470137Y-101065343D01*
X101470137Y-101065344D01*
X101415882Y-101202924D01*
X101406101Y-101284375D01*
X101384759Y-101340837D01*
X101339604Y-101380894D01*
X101281000Y-101395352D01*
X101222396Y-101380894D01*
X101177241Y-101340837D01*
X101155899Y-101284375D01*
X101146117Y-101202924D01*
X101146117Y-101202923D01*
X101091862Y-101065342D01*
X101002500Y-100947500D01*
X100884658Y-100858138D01*
X100748875Y-100804592D01*
X100747075Y-100803882D01*
X100660620Y-100793500D01*
X100660618Y-100793500D01*
X100076382Y-100793500D01*
X100076380Y-100793500D01*
X99989924Y-100803882D01*
X99852344Y-100858137D01*
X99852343Y-100858137D01*
X99852342Y-100858138D01*
X99734500Y-100947500D01*
X99645138Y-101065342D01*
X99645137Y-101065343D01*
X99645137Y-101065344D01*
X99584931Y-101218016D01*
X99582362Y-101217002D01*
X99571033Y-101246980D01*
X99525878Y-101287040D01*
X99467271Y-101301500D01*
X96707499Y-101301500D01*
X96644499Y-101284619D01*
X96598380Y-101238500D01*
X96581499Y-101175500D01*
X96581499Y-101058899D01*
X96570876Y-100970436D01*
X96515361Y-100829658D01*
X96423922Y-100709077D01*
X96303341Y-100617638D01*
X96162564Y-100562123D01*
X96074101Y-100551500D01*
X95062899Y-100551500D01*
X94974436Y-100562123D01*
X94833658Y-100617638D01*
X94713077Y-100709077D01*
X94621638Y-100829658D01*
X94566123Y-100970435D01*
X94555500Y-101058898D01*
X94555500Y-102395100D01*
X93606500Y-102395100D01*
X93606500Y-102395099D01*
X93606499Y-101058902D01*
X93605865Y-101053624D01*
X93595876Y-100970436D01*
X93540361Y-100829658D01*
X93448922Y-100709077D01*
X93328341Y-100617638D01*
X93187564Y-100562123D01*
X93099101Y-100551500D01*
X93099099Y-100551500D01*
X92248715Y-100551500D01*
X92200497Y-100541909D01*
X92159620Y-100514595D01*
X92103538Y-100458513D01*
X92076715Y-100418805D01*
X92066659Y-100371954D01*
X92074821Y-100324739D01*
X92087191Y-100292124D01*
X92107696Y-100123252D01*
X92087836Y-99959689D01*
X92099082Y-99890487D01*
X92141636Y-99842453D01*
X106870339Y-99842453D01*
X107297536Y-100452553D01*
X107314305Y-100471430D01*
X107410264Y-100529493D01*
X107520721Y-100548969D01*
X107630751Y-100527229D01*
X107652968Y-100515225D01*
X108263065Y-100088029D01*
X108263066Y-100088028D01*
X107689491Y-99268878D01*
X107689490Y-99268877D01*
X106870339Y-99842453D01*
X92141636Y-99842453D01*
X92145574Y-99838008D01*
X92212917Y-99818502D01*
X94526872Y-99818502D01*
X94526873Y-99818502D01*
X94549693Y-99811086D01*
X94568902Y-99806474D01*
X94592606Y-99802721D01*
X94613975Y-99791831D01*
X94632243Y-99784264D01*
X94655061Y-99776851D01*
X94674465Y-99762752D01*
X94691329Y-99752418D01*
X94712700Y-99741530D01*
X94808008Y-99646222D01*
X94867531Y-99586699D01*
X94867533Y-99586695D01*
X96336554Y-98117676D01*
X96365110Y-98089120D01*
X96365114Y-98089116D01*
X96365585Y-98088644D01*
X96368188Y-98078667D01*
X96371415Y-98072332D01*
X96381744Y-98055474D01*
X96395849Y-98036063D01*
X96403262Y-98013245D01*
X96410830Y-97994977D01*
X96421717Y-97973611D01*
X96421719Y-97973608D01*
X96425472Y-97949904D01*
X96430084Y-97930695D01*
X96437500Y-97907875D01*
X96437500Y-97773089D01*
X96437500Y-97355018D01*
X96453033Y-97294413D01*
X96495801Y-97248750D01*
X96555260Y-97229288D01*
X96616751Y-97240824D01*
X96616987Y-97240934D01*
X96666863Y-97247500D01*
X98633136Y-97247499D01*
X98633138Y-97247499D01*
X98653086Y-97244872D01*
X98683013Y-97240934D01*
X98792481Y-97189888D01*
X98827369Y-97155000D01*
X98872965Y-97109405D01*
X98913842Y-97082091D01*
X98962060Y-97072500D01*
X99116670Y-97072500D01*
X99175273Y-97086958D01*
X99220427Y-97127013D01*
X99233484Y-97161554D01*
X99234931Y-97160984D01*
X99247018Y-97191635D01*
X99295138Y-97313658D01*
X99384500Y-97431500D01*
X99502342Y-97520862D01*
X99639923Y-97575117D01*
X99668742Y-97578578D01*
X99726380Y-97585500D01*
X99726382Y-97585500D01*
X100285618Y-97585500D01*
X100285620Y-97585500D01*
X100328847Y-97580308D01*
X100372077Y-97575117D01*
X100509658Y-97520862D01*
X100627500Y-97431500D01*
X100716862Y-97313658D01*
X100740870Y-97252776D01*
X100767982Y-97210924D01*
X100809206Y-97182867D01*
X100858086Y-97173000D01*
X100882500Y-97173000D01*
X100945500Y-97189881D01*
X100991619Y-97236000D01*
X101008500Y-97299000D01*
X101008500Y-97573620D01*
X101018882Y-97660075D01*
X101029089Y-97685957D01*
X101073138Y-97797658D01*
X101162500Y-97915500D01*
X101280342Y-98004862D01*
X101417923Y-98059117D01*
X101446742Y-98062577D01*
X101504380Y-98069500D01*
X101504382Y-98069500D01*
X102063618Y-98069500D01*
X102063620Y-98069500D01*
X102107285Y-98064256D01*
X102150077Y-98059117D01*
X102287658Y-98004862D01*
X102405500Y-97915500D01*
X102494862Y-97797658D01*
X102538911Y-97685956D01*
X102573505Y-97637049D01*
X102626776Y-97609646D01*
X102686681Y-97609941D01*
X102739677Y-97637866D01*
X102850148Y-97735734D01*
X103000775Y-97814790D01*
X103165944Y-97855500D01*
X103336054Y-97855500D01*
X103336056Y-97855500D01*
X103501225Y-97814790D01*
X103651852Y-97735734D01*
X103779183Y-97622929D01*
X103875818Y-97482930D01*
X103936140Y-97323872D01*
X103956645Y-97155000D01*
X103936140Y-96986128D01*
X103875818Y-96827070D01*
X103779183Y-96687071D01*
X103651852Y-96574266D01*
X103501225Y-96495210D01*
X103336056Y-96454500D01*
X103165944Y-96454500D01*
X103000775Y-96495210D01*
X102850148Y-96574266D01*
X102775292Y-96640583D01*
X102711365Y-96697217D01*
X102709049Y-96694603D01*
X102685981Y-96715055D01*
X102627401Y-96729500D01*
X102530265Y-96729500D01*
X102474215Y-96716347D01*
X102429869Y-96679635D01*
X102405500Y-96647500D01*
X102287658Y-96558138D01*
X102212458Y-96528483D01*
X102150075Y-96503882D01*
X102068624Y-96494101D01*
X102012162Y-96472759D01*
X101972105Y-96427604D01*
X101957647Y-96369000D01*
X101972105Y-96310396D01*
X102012162Y-96265241D01*
X102068624Y-96243899D01*
X102103357Y-96239727D01*
X102150077Y-96234117D01*
X102287658Y-96179862D01*
X102405500Y-96090500D01*
X102494862Y-95972658D01*
X102549117Y-95835077D01*
X102555179Y-95784602D01*
X102559500Y-95748620D01*
X102559500Y-95164380D01*
X102549117Y-95077924D01*
X102542079Y-95060077D01*
X102494862Y-94940342D01*
X102405500Y-94822500D01*
X102287658Y-94733138D01*
X102222642Y-94707499D01*
X102150075Y-94678882D01*
X102063620Y-94668500D01*
X102063618Y-94668500D01*
X101627604Y-94668500D01*
X101588667Y-94662333D01*
X101553546Y-94644438D01*
X101545581Y-94638651D01*
X101545579Y-94638650D01*
X101522763Y-94631237D01*
X101504497Y-94623670D01*
X101483127Y-94612781D01*
X101459431Y-94609028D01*
X101440206Y-94604412D01*
X101417394Y-94597000D01*
X101417393Y-94597000D01*
X101383488Y-94597000D01*
X100858086Y-94597000D01*
X100809206Y-94587133D01*
X100767982Y-94559076D01*
X100740871Y-94517224D01*
X100734724Y-94501637D01*
X100716862Y-94456342D01*
X100627500Y-94338500D01*
X100509658Y-94249138D01*
X100392465Y-94202923D01*
X100372075Y-94194882D01*
X100285620Y-94184500D01*
X100285618Y-94184500D01*
X99726382Y-94184500D01*
X99726380Y-94184500D01*
X99639924Y-94194882D01*
X99502344Y-94249137D01*
X99502343Y-94249137D01*
X99502342Y-94249138D01*
X99384500Y-94338500D01*
X99295138Y-94456342D01*
X99295137Y-94456343D01*
X99295137Y-94456344D01*
X99240882Y-94593924D01*
X99230500Y-94680380D01*
X99230500Y-94825500D01*
X99213619Y-94888500D01*
X99167500Y-94934619D01*
X99104500Y-94951500D01*
X98962060Y-94951500D01*
X98913842Y-94941909D01*
X98872965Y-94914595D01*
X98789465Y-94831095D01*
X98756853Y-94774611D01*
X98756853Y-94709389D01*
X98789465Y-94652905D01*
X98877886Y-94564483D01*
X98877888Y-94564481D01*
X98928934Y-94455013D01*
X98935500Y-94405137D01*
X98935499Y-93808864D01*
X98934843Y-93803883D01*
X98928934Y-93758989D01*
X98928934Y-93758987D01*
X98877888Y-93649519D01*
X98877886Y-93649517D01*
X98877886Y-93649516D01*
X98789111Y-93560741D01*
X98756499Y-93504257D01*
X98756499Y-93439035D01*
X98789111Y-93382551D01*
X98877470Y-93294191D01*
X98928443Y-93184881D01*
X98935000Y-93135077D01*
X98935000Y-92987000D01*
X97626000Y-92987000D01*
X97563000Y-92970119D01*
X97516881Y-92924000D01*
X97500000Y-92861000D01*
X97500000Y-92818030D01*
X102200245Y-92818030D01*
X102219918Y-93030342D01*
X102278268Y-93235417D01*
X102373309Y-93426287D01*
X102416827Y-93483913D01*
X102501802Y-93596437D01*
X102626808Y-93710396D01*
X102659372Y-93740082D01*
X102840652Y-93852327D01*
X102871762Y-93864379D01*
X103039476Y-93929351D01*
X103249064Y-93968530D01*
X103462282Y-93968530D01*
X103462284Y-93968530D01*
X103671872Y-93929351D01*
X103870693Y-93852328D01*
X103905103Y-93831021D01*
X103963676Y-93812387D01*
X104024096Y-93823681D01*
X104071984Y-93862215D01*
X104095944Y-93918819D01*
X104090273Y-93980023D01*
X104056322Y-94031262D01*
X103958686Y-94120270D01*
X103830194Y-94290419D01*
X103735153Y-94481289D01*
X103676803Y-94686364D01*
X103657130Y-94898677D01*
X103676803Y-95110989D01*
X103735153Y-95316064D01*
X103830194Y-95506934D01*
X103880841Y-95574000D01*
X103958687Y-95677084D01*
X104096261Y-95802500D01*
X104116257Y-95820729D01*
X104297537Y-95932974D01*
X104318384Y-95941050D01*
X104496361Y-96009998D01*
X104705949Y-96049177D01*
X104919167Y-96049177D01*
X104919169Y-96049177D01*
X105128757Y-96009998D01*
X105327578Y-95932975D01*
X105361983Y-95911671D01*
X105420554Y-95893038D01*
X105480974Y-95904331D01*
X105528862Y-95942865D01*
X105552822Y-95999469D01*
X105547151Y-96060674D01*
X105513200Y-96111913D01*
X105415570Y-96200916D01*
X105287078Y-96371065D01*
X105192037Y-96561935D01*
X105133687Y-96767010D01*
X105114014Y-96979323D01*
X105133687Y-97191635D01*
X105192037Y-97396710D01*
X105287078Y-97587580D01*
X105313773Y-97622929D01*
X105415571Y-97757730D01*
X105541637Y-97872655D01*
X105573141Y-97901375D01*
X105754421Y-98013620D01*
X105754424Y-98013621D01*
X105953245Y-98090644D01*
X106162833Y-98129823D01*
X106376051Y-98129823D01*
X106376053Y-98129823D01*
X106585641Y-98090644D01*
X106780562Y-98015131D01*
X106840382Y-98007439D01*
X106896926Y-98028431D01*
X106937235Y-98073299D01*
X106952072Y-98131761D01*
X106938037Y-98190421D01*
X106898346Y-98235837D01*
X106333742Y-98631178D01*
X106314865Y-98647947D01*
X106256802Y-98743906D01*
X106237326Y-98854363D01*
X106259066Y-98964393D01*
X106271070Y-98986610D01*
X106698265Y-99596707D01*
X106698266Y-99596708D01*
X107412202Y-99096805D01*
X107935235Y-99096805D01*
X108508811Y-99915955D01*
X108508812Y-99915956D01*
X109118911Y-99488759D01*
X109137788Y-99471990D01*
X109195851Y-99376031D01*
X109215327Y-99265574D01*
X109193587Y-99155544D01*
X109181583Y-99133327D01*
X108754387Y-98523229D01*
X108754386Y-98523228D01*
X107935236Y-99096804D01*
X107935235Y-99096805D01*
X107412202Y-99096805D01*
X107763163Y-98851060D01*
X108582313Y-98277483D01*
X108155117Y-97667384D01*
X108138348Y-97648507D01*
X108042389Y-97590444D01*
X107931932Y-97570968D01*
X107821902Y-97592708D01*
X107799685Y-97604712D01*
X107213248Y-98015340D01*
X107154641Y-98037384D01*
X107092659Y-98028494D01*
X107042610Y-97990867D01*
X107016854Y-97933794D01*
X107021751Y-97871370D01*
X107056092Y-97819012D01*
X107123315Y-97757730D01*
X107251809Y-97587578D01*
X107346848Y-97396712D01*
X107405199Y-97191633D01*
X107424872Y-96979323D01*
X107405199Y-96767013D01*
X107346848Y-96561934D01*
X107251809Y-96371068D01*
X107251064Y-96370082D01*
X107196372Y-96297658D01*
X107123315Y-96200916D01*
X106965745Y-96057271D01*
X106965744Y-96057270D01*
X106784464Y-95945025D01*
X106585641Y-95868002D01*
X106545509Y-95860500D01*
X106376053Y-95828823D01*
X106162833Y-95828823D01*
X106048921Y-95850117D01*
X105953244Y-95868002D01*
X105754423Y-95945025D01*
X105720018Y-95966328D01*
X105661444Y-95984961D01*
X105601025Y-95973667D01*
X105553138Y-95935132D01*
X105529179Y-95878528D01*
X105534850Y-95817324D01*
X105568802Y-95766085D01*
X105587962Y-95748618D01*
X105666431Y-95677084D01*
X105794925Y-95506932D01*
X105889964Y-95316066D01*
X105948315Y-95110987D01*
X105967988Y-94898677D01*
X105948315Y-94686367D01*
X105889964Y-94481288D01*
X105794925Y-94290422D01*
X105794020Y-94289224D01*
X105728848Y-94202923D01*
X105666431Y-94120270D01*
X105508861Y-93976625D01*
X105508860Y-93976624D01*
X105327580Y-93864379D01*
X105128757Y-93787356D01*
X105105123Y-93782938D01*
X104919169Y-93748177D01*
X104705949Y-93748177D01*
X104566223Y-93774296D01*
X104496360Y-93787356D01*
X104297536Y-93864380D01*
X104263126Y-93885686D01*
X104204553Y-93904319D01*
X104144133Y-93893024D01*
X104096247Y-93854490D01*
X104072288Y-93797885D01*
X104077960Y-93736681D01*
X104111909Y-93685444D01*
X104209546Y-93596437D01*
X104338040Y-93426285D01*
X104433079Y-93235419D01*
X104491430Y-93030340D01*
X104511103Y-92818030D01*
X104491430Y-92605720D01*
X104433079Y-92400641D01*
X104338040Y-92209775D01*
X104330352Y-92199595D01*
X104262096Y-92109210D01*
X104209546Y-92039623D01*
X104051976Y-91895978D01*
X104051975Y-91895977D01*
X103870695Y-91783732D01*
X103671872Y-91706709D01*
X103671524Y-91706644D01*
X103462284Y-91667530D01*
X103249064Y-91667530D01*
X103109338Y-91693649D01*
X103039475Y-91706709D01*
X102840652Y-91783732D01*
X102659372Y-91895977D01*
X102501801Y-92039624D01*
X102373309Y-92209772D01*
X102278268Y-92400642D01*
X102219918Y-92605717D01*
X102200245Y-92818030D01*
X97500000Y-92818030D01*
X97500000Y-92237000D01*
X97800000Y-92237000D01*
X97800000Y-92687000D01*
X98935000Y-92687000D01*
X98935000Y-92538923D01*
X98928443Y-92489118D01*
X98877470Y-92379808D01*
X98792191Y-92294529D01*
X98682881Y-92243556D01*
X98633077Y-92237000D01*
X97800000Y-92237000D01*
X97500000Y-92237000D01*
X96666923Y-92237000D01*
X96617118Y-92243556D01*
X96507808Y-92294529D01*
X96422529Y-92379808D01*
X96371556Y-92489118D01*
X96363922Y-92547112D01*
X96361400Y-92546779D01*
X96351267Y-92588988D01*
X96313061Y-92633721D01*
X96258711Y-92656234D01*
X96200064Y-92651618D01*
X96149905Y-92620880D01*
X95705120Y-92176095D01*
X95674382Y-92125936D01*
X95669766Y-92067289D01*
X95692279Y-92012939D01*
X95737012Y-91974733D01*
X95794215Y-91961000D01*
X96003579Y-91961000D01*
X96089956Y-91950627D01*
X96227412Y-91896421D01*
X96345143Y-91807143D01*
X96434421Y-91689412D01*
X96488627Y-91551956D01*
X96499000Y-91465579D01*
X96499000Y-91336000D01*
X95637500Y-91336000D01*
X95574500Y-91319119D01*
X95528381Y-91273000D01*
X95511500Y-91210000D01*
X95511500Y-90411000D01*
X95811500Y-90411000D01*
X95811500Y-91036000D01*
X96499000Y-91036000D01*
X96499000Y-90906421D01*
X96488627Y-90820043D01*
X96434421Y-90682587D01*
X96345143Y-90564856D01*
X96227412Y-90475578D01*
X96089956Y-90421372D01*
X96003579Y-90411000D01*
X95811500Y-90411000D01*
X95511500Y-90411000D01*
X95319421Y-90411000D01*
X95233043Y-90421372D01*
X95095587Y-90475578D01*
X94977858Y-90564855D01*
X94899710Y-90667908D01*
X94855362Y-90704620D01*
X94799312Y-90717773D01*
X94743263Y-90704620D01*
X94698916Y-90667907D01*
X94666932Y-90625730D01*
X94620500Y-90564500D01*
X94502658Y-90475138D01*
X94438793Y-90449953D01*
X94365075Y-90420882D01*
X94284329Y-90411185D01*
X94223747Y-90386880D01*
X94183457Y-90335522D01*
X94174272Y-90270896D01*
X94186645Y-90169000D01*
X94166140Y-90000128D01*
X94105818Y-89841070D01*
X94009183Y-89701071D01*
X93881852Y-89588266D01*
X93731225Y-89509210D01*
X93566056Y-89468500D01*
X93395944Y-89468500D01*
X93230775Y-89509210D01*
X93080148Y-89588266D01*
X92984203Y-89673266D01*
X92952816Y-89701072D01*
X92856181Y-89841070D01*
X92800492Y-89987914D01*
X92761169Y-90041801D01*
X92699845Y-90068059D01*
X92633710Y-90059328D01*
X92581301Y-90018056D01*
X92565649Y-89996848D01*
X92456382Y-89916206D01*
X92328201Y-89871354D01*
X92314923Y-89870109D01*
X92297766Y-89868500D01*
X91889234Y-89868500D01*
X91889229Y-89868500D01*
X91872062Y-89870109D01*
X91810452Y-89860378D01*
X91761059Y-89822289D01*
X91735986Y-89765177D01*
X91739987Y-89719050D01*
X91739709Y-89719024D01*
X91741392Y-89701071D01*
X91744000Y-89673266D01*
X91744000Y-88389734D01*
X91741146Y-88359301D01*
X91696293Y-88231118D01*
X91696293Y-88231117D01*
X91615650Y-88121849D01*
X91506382Y-88041206D01*
X91378201Y-87996354D01*
X91366025Y-87995212D01*
X91347766Y-87993500D01*
X90939234Y-87993500D01*
X90924017Y-87994926D01*
X90908798Y-87996354D01*
X90780617Y-88041206D01*
X90671349Y-88121849D01*
X90637790Y-88167321D01*
X90593194Y-88204980D01*
X90536411Y-88218500D01*
X90363764Y-88218500D01*
X90319083Y-88210312D01*
X90287647Y-88191308D01*
X90281853Y-88188267D01*
X90281852Y-88188266D01*
X90131225Y-88109210D01*
X89966056Y-88068500D01*
X89795944Y-88068500D01*
X89630775Y-88109210D01*
X89520055Y-88167321D01*
X89480148Y-88188266D01*
X89352816Y-88301072D01*
X89256181Y-88441070D01*
X89195859Y-88600128D01*
X89175355Y-88769000D01*
X89195859Y-88937871D01*
X89256181Y-89096929D01*
X89256182Y-89096930D01*
X89352817Y-89236929D01*
X89480148Y-89349734D01*
X89630775Y-89428790D01*
X89795944Y-89469500D01*
X89966054Y-89469500D01*
X89966056Y-89469500D01*
X90131225Y-89428790D01*
X90281852Y-89349734D01*
X90281856Y-89349730D01*
X90287647Y-89346691D01*
X90319083Y-89327688D01*
X90363764Y-89319500D01*
X90417000Y-89319500D01*
X90480000Y-89336381D01*
X90526119Y-89382500D01*
X90543000Y-89445500D01*
X90543000Y-89673266D01*
X90545608Y-89701071D01*
X90547291Y-89719024D01*
X90547148Y-89719037D01*
X90551195Y-89765706D01*
X90526121Y-89822815D01*
X90476728Y-89860902D01*
X90415120Y-89870632D01*
X90397708Y-89869000D01*
X90343500Y-89869000D01*
X90343500Y-90756500D01*
X90793499Y-90756500D01*
X90793499Y-90264799D01*
X90789212Y-90219070D01*
X90789451Y-90219047D01*
X90785439Y-90172762D01*
X90810516Y-90115651D01*
X90859912Y-90077566D01*
X90921522Y-90067839D01*
X90926150Y-90068273D01*
X90939232Y-90069500D01*
X90939234Y-90069500D01*
X91347762Y-90069500D01*
X91347766Y-90069500D01*
X91364932Y-90067890D01*
X91426540Y-90077619D01*
X91475935Y-90115704D01*
X91501012Y-90172813D01*
X91497012Y-90218949D01*
X91497291Y-90218976D01*
X91493000Y-90264737D01*
X91493000Y-91548263D01*
X91495854Y-91578701D01*
X91540706Y-91706882D01*
X91621349Y-91816150D01*
X91730617Y-91896793D01*
X91834306Y-91933075D01*
X91858801Y-91941646D01*
X91889234Y-91944500D01*
X92297763Y-91944500D01*
X92297766Y-91944500D01*
X92328199Y-91941646D01*
X92456382Y-91896793D01*
X92565650Y-91816150D01*
X92646293Y-91706882D01*
X92660063Y-91667530D01*
X92668850Y-91642419D01*
X92698394Y-91595229D01*
X92745392Y-91565378D01*
X92800665Y-91558695D01*
X92815237Y-91560193D01*
X92836342Y-91564204D01*
X92853460Y-91569000D01*
X92894445Y-91569000D01*
X92907293Y-91569657D01*
X92908072Y-91569737D01*
X92973029Y-91595985D01*
X93013926Y-91652873D01*
X93018115Y-91722811D01*
X92984300Y-91784173D01*
X92568878Y-92199595D01*
X92528001Y-92226909D01*
X92479783Y-92236500D01*
X91726861Y-92236500D01*
X91676989Y-92243065D01*
X91567517Y-92294113D01*
X91549858Y-92311772D01*
X91487801Y-92345740D01*
X91417220Y-92340912D01*
X91360367Y-92298809D01*
X91318467Y-92243556D01*
X91302500Y-92222500D01*
X91184658Y-92133138D01*
X91062193Y-92084844D01*
X91047075Y-92078882D01*
X90960620Y-92068500D01*
X90960618Y-92068500D01*
X90705795Y-92068500D01*
X90645259Y-92053005D01*
X90599612Y-92010332D01*
X90580080Y-91950976D01*
X90591468Y-91889535D01*
X90630973Y-91841121D01*
X90665292Y-91815792D01*
X90745846Y-91706644D01*
X90790648Y-91578608D01*
X90793500Y-91548200D01*
X90793500Y-91056500D01*
X89593501Y-91056500D01*
X89593501Y-91548201D01*
X89596351Y-91578603D01*
X89641155Y-91706647D01*
X89721707Y-91815792D01*
X89830855Y-91896346D01*
X89958891Y-91941148D01*
X89989298Y-91943999D01*
X90052072Y-91943999D01*
X90112321Y-91959336D01*
X90157902Y-92001614D01*
X90177719Y-92060541D01*
X90166947Y-92121770D01*
X90128209Y-92170396D01*
X90059498Y-92222501D01*
X89981396Y-92325494D01*
X89937048Y-92362207D01*
X89880998Y-92375360D01*
X89824949Y-92362207D01*
X89780602Y-92325494D01*
X89713117Y-92236501D01*
X89702501Y-92222501D01*
X89702500Y-92222500D01*
X89584658Y-92133138D01*
X89462193Y-92084844D01*
X89447075Y-92078882D01*
X89360620Y-92068500D01*
X89360618Y-92068500D01*
X88801382Y-92068500D01*
X88801380Y-92068500D01*
X88714924Y-92078882D01*
X88577341Y-92133138D01*
X88542726Y-92159388D01*
X88509552Y-92184545D01*
X88508634Y-92185241D01*
X88444315Y-92210289D01*
X88376450Y-92197691D01*
X88325406Y-92151228D01*
X88306500Y-92084844D01*
X88306500Y-90756500D01*
X89593500Y-90756500D01*
X90043500Y-90756500D01*
X90043500Y-89869001D01*
X89989299Y-89869001D01*
X89958896Y-89871851D01*
X89830852Y-89916655D01*
X89721707Y-89997207D01*
X89641153Y-90106355D01*
X89596351Y-90234391D01*
X89593500Y-90264800D01*
X89593500Y-90756500D01*
X88306500Y-90756500D01*
X88306500Y-90301607D01*
X88299086Y-90278790D01*
X88294470Y-90259561D01*
X88290719Y-90235874D01*
X88289963Y-90234391D01*
X88279829Y-90214501D01*
X88272261Y-90196230D01*
X88264849Y-90173417D01*
X88250745Y-90154004D01*
X88240416Y-90137149D01*
X88229527Y-90115779D01*
X87691178Y-89577430D01*
X87663058Y-89534559D01*
X87637402Y-89469500D01*
X87614862Y-89412342D01*
X87525500Y-89294500D01*
X87407658Y-89205138D01*
X87343793Y-89179952D01*
X87270075Y-89150882D01*
X87183620Y-89140500D01*
X87183618Y-89140500D01*
X86599382Y-89140500D01*
X86599380Y-89140500D01*
X86512924Y-89150882D01*
X86375344Y-89205137D01*
X86375343Y-89205137D01*
X86375342Y-89205138D01*
X86257500Y-89294500D01*
X86168138Y-89412342D01*
X86168137Y-89412343D01*
X86168137Y-89412344D01*
X86113882Y-89549924D01*
X86104101Y-89631375D01*
X86082759Y-89687837D01*
X86037604Y-89727894D01*
X85979000Y-89742352D01*
X85920396Y-89727894D01*
X85875241Y-89687837D01*
X85853899Y-89631375D01*
X85844117Y-89549924D01*
X85834057Y-89524413D01*
X85789862Y-89412342D01*
X85700500Y-89294500D01*
X85582658Y-89205138D01*
X85518793Y-89179952D01*
X85445075Y-89150882D01*
X85358620Y-89140500D01*
X85358618Y-89140500D01*
X84774382Y-89140500D01*
X84774380Y-89140500D01*
X84687924Y-89150882D01*
X84550344Y-89205137D01*
X84550343Y-89205137D01*
X84550342Y-89205138D01*
X84432500Y-89294500D01*
X84392923Y-89346691D01*
X84343136Y-89412345D01*
X84333326Y-89437223D01*
X84306215Y-89479075D01*
X84264991Y-89507132D01*
X84216111Y-89517000D01*
X83440106Y-89517000D01*
X83417288Y-89524413D01*
X83398071Y-89529026D01*
X83374376Y-89532779D01*
X83353003Y-89543670D01*
X83334736Y-89551236D01*
X83311919Y-89558649D01*
X83292506Y-89572753D01*
X83275658Y-89583078D01*
X83254280Y-89593971D01*
X83212584Y-89635665D01*
X83212581Y-89635670D01*
X75905749Y-96942500D01*
X75905747Y-96942504D01*
X75869973Y-96978277D01*
X75859083Y-96999651D01*
X75848754Y-97016507D01*
X75834650Y-97035919D01*
X75827236Y-97058737D01*
X75819672Y-97076998D01*
X75808779Y-97098376D01*
X75805026Y-97122073D01*
X75800412Y-97141292D01*
X75793000Y-97164106D01*
X75793000Y-98116914D01*
X75783133Y-98165794D01*
X75755076Y-98207018D01*
X75713224Y-98234129D01*
X75652344Y-98258137D01*
X75652343Y-98258137D01*
X75652342Y-98258138D01*
X75581235Y-98312060D01*
X75534497Y-98347502D01*
X75481397Y-98417526D01*
X75437050Y-98454239D01*
X75381000Y-98467392D01*
X75324950Y-98454239D01*
X75280603Y-98417526D01*
X75227500Y-98347500D01*
X75124866Y-98269670D01*
X75088153Y-98225323D01*
X75075000Y-98169273D01*
X75075000Y-97180841D01*
X75080705Y-97143356D01*
X75097304Y-97109265D01*
X75105818Y-97096930D01*
X75116728Y-97068163D01*
X75166140Y-96937872D01*
X75186645Y-96769000D01*
X75166140Y-96600128D01*
X75105818Y-96441070D01*
X75009183Y-96301071D01*
X74881852Y-96188266D01*
X74731225Y-96109210D01*
X74566056Y-96068500D01*
X74395944Y-96068500D01*
X74230775Y-96109210D01*
X74080148Y-96188266D01*
X73956670Y-96297658D01*
X73952816Y-96301072D01*
X73856181Y-96441070D01*
X73795859Y-96600128D01*
X73775355Y-96769000D01*
X73795859Y-96937871D01*
X73856181Y-97096929D01*
X73857180Y-97098376D01*
X73952817Y-97236929D01*
X74080148Y-97349734D01*
X74156556Y-97389836D01*
X74205829Y-97436219D01*
X74224000Y-97501403D01*
X74224000Y-98079010D01*
X74209542Y-98137615D01*
X74169484Y-98182769D01*
X74129932Y-98197718D01*
X74130016Y-98197931D01*
X73977344Y-98258137D01*
X73977343Y-98258137D01*
X73977342Y-98258138D01*
X73859500Y-98347500D01*
X73859499Y-98347501D01*
X73859498Y-98347502D01*
X73781397Y-98450494D01*
X73737050Y-98487207D01*
X73681000Y-98500360D01*
X73624950Y-98487207D01*
X73580603Y-98450494D01*
X73504404Y-98350011D01*
X73502500Y-98347500D01*
X73502499Y-98347499D01*
X73385753Y-98258967D01*
X73350127Y-98216758D01*
X73335978Y-98163366D01*
X73346024Y-98109054D01*
X73378331Y-98064261D01*
X73409183Y-98036929D01*
X73505818Y-97896930D01*
X73566140Y-97737872D01*
X73586645Y-97569000D01*
X73566140Y-97400128D01*
X73505818Y-97241070D01*
X73409183Y-97101071D01*
X73281852Y-96988266D01*
X73131225Y-96909210D01*
X72966056Y-96868500D01*
X72795944Y-96868500D01*
X72630775Y-96909210D01*
X72480148Y-96988266D01*
X72366014Y-97089380D01*
X72352816Y-97101072D01*
X72256181Y-97241070D01*
X72195859Y-97400128D01*
X72175355Y-97569000D01*
X72195859Y-97737871D01*
X72256181Y-97896929D01*
X72361204Y-98049080D01*
X72382011Y-98101288D01*
X72378047Y-98157349D01*
X72350101Y-98206111D01*
X72303734Y-98237870D01*
X72252345Y-98258136D01*
X72252342Y-98258137D01*
X72252342Y-98258138D01*
X72206776Y-98292692D01*
X72134497Y-98347502D01*
X72045991Y-98464216D01*
X71993812Y-98504491D01*
X71928437Y-98512908D01*
X71867757Y-98487165D01*
X71828379Y-98434305D01*
X71791422Y-98340588D01*
X71702143Y-98222856D01*
X71584412Y-98133578D01*
X71446956Y-98079372D01*
X71360579Y-98069000D01*
X71231000Y-98069000D01*
X71231000Y-98930500D01*
X71214119Y-98993500D01*
X71168000Y-99039619D01*
X71105000Y-99056500D01*
X70306000Y-99056500D01*
X70306000Y-99248579D01*
X70316372Y-99334956D01*
X70370578Y-99472412D01*
X70459856Y-99590143D01*
X70562907Y-99668289D01*
X70599620Y-99712636D01*
X70612773Y-99768686D01*
X70599620Y-99824735D01*
X70562907Y-99869083D01*
X70459502Y-99947497D01*
X70459499Y-99947500D01*
X70459500Y-99947500D01*
X70370138Y-100065342D01*
X70370137Y-100065343D01*
X70370137Y-100065344D01*
X70315882Y-100202924D01*
X70305500Y-100289380D01*
X70305500Y-100973620D01*
X70315882Y-101060075D01*
X70320648Y-101072160D01*
X70370138Y-101197658D01*
X70459500Y-101315500D01*
X70577342Y-101404862D01*
X70577343Y-101404862D01*
X70577344Y-101404863D01*
X70614723Y-101419603D01*
X70656575Y-101446714D01*
X70684632Y-101487938D01*
X70694500Y-101536818D01*
X70694500Y-101600913D01*
X70687813Y-101641414D01*
X70668463Y-101677617D01*
X70620189Y-101740528D01*
X70601138Y-101786522D01*
X70566559Y-101834114D01*
X70514143Y-101860822D01*
X70455315Y-101860822D01*
X70402899Y-101834114D01*
X70368320Y-101786521D01*
X70349373Y-101740780D01*
X70257737Y-101621357D01*
X70138315Y-101529722D01*
X70000000Y-101472429D01*
X70000000Y-103916436D01*
X70138315Y-103859143D01*
X70257737Y-103767508D01*
X70349373Y-103648085D01*
X70368320Y-103602345D01*
X70402899Y-103554752D01*
X70455315Y-103528044D01*
X70514143Y-103528044D01*
X70566559Y-103554752D01*
X70601137Y-103602343D01*
X70613175Y-103631405D01*
X70620190Y-103648339D01*
X70711905Y-103767865D01*
X70831432Y-103859581D01*
X70831433Y-103859581D01*
X70831434Y-103859582D01*
X70970627Y-103917238D01*
X71082499Y-103931966D01*
X71157501Y-103931966D01*
X71269373Y-103917238D01*
X71408566Y-103859582D01*
X71528094Y-103767865D01*
X71583266Y-103695964D01*
X71619810Y-103648339D01*
X71626825Y-103631405D01*
X71638591Y-103602997D01*
X71673169Y-103555405D01*
X71725586Y-103528697D01*
X71784414Y-103528697D01*
X71836831Y-103555405D01*
X71871409Y-103602998D01*
X71890189Y-103648339D01*
X71981905Y-103767865D01*
X72101432Y-103859581D01*
X72101433Y-103859581D01*
X72101434Y-103859582D01*
X72240627Y-103917238D01*
X72352499Y-103931966D01*
X72427501Y-103931966D01*
X72539373Y-103917238D01*
X72678566Y-103859582D01*
X72798094Y-103767865D01*
X72853266Y-103695964D01*
X72889810Y-103648339D01*
X72896825Y-103631405D01*
X72908591Y-103602997D01*
X72943169Y-103555405D01*
X72995586Y-103528697D01*
X73054414Y-103528697D01*
X73106831Y-103555405D01*
X73141409Y-103602998D01*
X73160189Y-103648339D01*
X73251905Y-103767865D01*
X73371432Y-103859581D01*
X73371433Y-103859581D01*
X73371434Y-103859582D01*
X73510627Y-103917238D01*
X73622499Y-103931966D01*
X73697501Y-103931966D01*
X73809373Y-103917238D01*
X73948566Y-103859582D01*
X74068094Y-103767865D01*
X74123266Y-103695964D01*
X74159810Y-103648339D01*
X74166825Y-103631405D01*
X74178591Y-103602997D01*
X74213169Y-103555405D01*
X74265586Y-103528697D01*
X74324414Y-103528697D01*
X74376831Y-103555405D01*
X74411409Y-103602998D01*
X74430189Y-103648339D01*
X74521905Y-103767865D01*
X74641432Y-103859581D01*
X74641433Y-103859581D01*
X74641434Y-103859582D01*
X74780627Y-103917238D01*
X74892499Y-103931966D01*
X74967501Y-103931966D01*
X75079373Y-103917238D01*
X75218566Y-103859582D01*
X75338094Y-103767865D01*
X75393266Y-103695964D01*
X75429810Y-103648339D01*
X75436825Y-103631405D01*
X75448591Y-103602997D01*
X75483169Y-103555405D01*
X75535586Y-103528697D01*
X75594414Y-103528697D01*
X75646831Y-103555405D01*
X75681409Y-103602998D01*
X75700189Y-103648339D01*
X75791905Y-103767865D01*
X75911432Y-103859581D01*
X75911433Y-103859581D01*
X75911434Y-103859582D01*
X76050627Y-103917238D01*
X76162499Y-103931966D01*
X76237501Y-103931966D01*
X76349373Y-103917238D01*
X76488566Y-103859582D01*
X76608094Y-103767865D01*
X76665919Y-103692504D01*
X76683069Y-103670156D01*
X76734141Y-103630732D01*
X76798032Y-103621756D01*
X76857990Y-103645583D01*
X76898294Y-103695964D01*
X76908763Y-103719673D01*
X76919500Y-103770569D01*
X76919500Y-106287783D01*
X76904231Y-106347905D01*
X76862125Y-106393455D01*
X76803386Y-106413395D01*
X76742251Y-106402890D01*
X76693538Y-106364487D01*
X76608094Y-106253134D01*
X76488567Y-106161418D01*
X76349372Y-106103761D01*
X76237501Y-106089034D01*
X76162499Y-106089034D01*
X76050627Y-106103761D01*
X75911432Y-106161418D01*
X75791905Y-106253134D01*
X75700189Y-106372661D01*
X75681409Y-106418001D01*
X75646830Y-106465594D01*
X75594414Y-106492302D01*
X75535586Y-106492302D01*
X75483170Y-106465594D01*
X75448591Y-106418001D01*
X75429915Y-106372914D01*
X75429811Y-106372663D01*
X75429810Y-106372662D01*
X75429810Y-106372661D01*
X75338094Y-106253134D01*
X75218567Y-106161418D01*
X75079372Y-106103761D01*
X74967501Y-106089034D01*
X74892499Y-106089034D01*
X74780627Y-106103761D01*
X74641432Y-106161418D01*
X74521905Y-106253134D01*
X74430189Y-106372661D01*
X74411409Y-106418001D01*
X74376830Y-106465594D01*
X74324414Y-106492302D01*
X74265586Y-106492302D01*
X74213170Y-106465594D01*
X74178591Y-106418001D01*
X74159915Y-106372914D01*
X74159811Y-106372663D01*
X74159810Y-106372662D01*
X74159810Y-106372661D01*
X74068094Y-106253134D01*
X73948567Y-106161418D01*
X73809372Y-106103761D01*
X73697501Y-106089034D01*
X73622499Y-106089034D01*
X73510627Y-106103761D01*
X73371432Y-106161418D01*
X73251905Y-106253134D01*
X73160189Y-106372661D01*
X73141409Y-106418001D01*
X73106830Y-106465594D01*
X73054414Y-106492302D01*
X72995586Y-106492302D01*
X72943170Y-106465594D01*
X72908591Y-106418001D01*
X72889811Y-106372663D01*
X72841537Y-106309751D01*
X72822187Y-106273548D01*
X72815500Y-106233047D01*
X72815500Y-105784606D01*
X72826601Y-105732894D01*
X72857947Y-105690294D01*
X72897042Y-105655658D01*
X72918183Y-105636929D01*
X73014818Y-105496930D01*
X73075140Y-105337872D01*
X73095645Y-105169000D01*
X73075140Y-105000128D01*
X73014818Y-104841070D01*
X72918183Y-104701071D01*
X72790852Y-104588266D01*
X72640225Y-104509210D01*
X72475056Y-104468500D01*
X72304944Y-104468500D01*
X72139775Y-104509210D01*
X71989148Y-104588266D01*
X71870657Y-104693240D01*
X71861816Y-104701072D01*
X71765181Y-104841070D01*
X71704859Y-105000128D01*
X71684355Y-105168999D01*
X71704859Y-105337871D01*
X71765181Y-105496929D01*
X71773665Y-105509220D01*
X71842259Y-105608595D01*
X71861818Y-105636930D01*
X71922053Y-105690294D01*
X71953399Y-105732894D01*
X71964500Y-105784606D01*
X71964500Y-106233047D01*
X71957813Y-106273548D01*
X71938463Y-106309751D01*
X71890188Y-106372663D01*
X71871409Y-106418001D01*
X71836830Y-106465594D01*
X71784414Y-106492302D01*
X71725586Y-106492302D01*
X71673170Y-106465594D01*
X71638591Y-106418001D01*
X71619915Y-106372914D01*
X71619811Y-106372663D01*
X71619810Y-106372662D01*
X71619810Y-106372661D01*
X71528094Y-106253134D01*
X71408567Y-106161418D01*
X71269372Y-106103761D01*
X71157501Y-106089034D01*
X71082499Y-106089034D01*
X70970627Y-106103761D01*
X70831432Y-106161418D01*
X70711905Y-106253134D01*
X70620189Y-106372661D01*
X70601409Y-106418001D01*
X70566830Y-106465594D01*
X70514414Y-106492302D01*
X70455586Y-106492302D01*
X70403170Y-106465594D01*
X70368591Y-106418001D01*
X70349915Y-106372914D01*
X70349811Y-106372663D01*
X70349810Y-106372662D01*
X70349810Y-106372661D01*
X70258094Y-106253134D01*
X70138567Y-106161418D01*
X69999372Y-106103761D01*
X69887501Y-106089034D01*
X69812499Y-106089034D01*
X69700627Y-106103761D01*
X69561432Y-106161418D01*
X69441905Y-106253134D01*
X69350190Y-106372660D01*
X69331138Y-106418656D01*
X69296559Y-106466248D01*
X69244143Y-106492956D01*
X69185315Y-106492956D01*
X69132899Y-106466248D01*
X69098320Y-106418655D01*
X69079373Y-106372914D01*
X68987737Y-106253491D01*
X68868315Y-106161856D01*
X68730000Y-106104563D01*
X68730000Y-108229001D01*
X68739149Y-108238150D01*
X68768000Y-108245881D01*
X68814119Y-108292000D01*
X68831000Y-108355000D01*
X68831000Y-109130500D01*
X68814119Y-109193500D01*
X68768000Y-109239619D01*
X68705000Y-109256500D01*
X67906000Y-109256500D01*
X67906000Y-109448579D01*
X67916372Y-109534956D01*
X67970578Y-109672412D01*
X68059856Y-109790143D01*
X68162907Y-109868289D01*
X68199620Y-109912636D01*
X68212773Y-109968686D01*
X68199620Y-110024735D01*
X68162907Y-110069083D01*
X68059502Y-110147497D01*
X68051328Y-110158276D01*
X67970138Y-110265342D01*
X67970137Y-110265343D01*
X67970137Y-110265344D01*
X67915882Y-110402924D01*
X67905500Y-110489380D01*
X67905500Y-111173620D01*
X67317233Y-111173620D01*
X67282934Y-110990810D01*
X67282072Y-110985613D01*
X67281936Y-110984674D01*
X67148974Y-110064389D01*
X67148331Y-110059158D01*
X67148327Y-110059117D01*
X67054013Y-109133181D01*
X67053589Y-109127929D01*
X67043372Y-108956500D01*
X67906000Y-108956500D01*
X68531000Y-108956500D01*
X68531000Y-108603599D01*
X68521850Y-108594449D01*
X68493000Y-108586719D01*
X68446881Y-108540600D01*
X68430000Y-108477600D01*
X68430000Y-107476567D01*
X68008306Y-107476567D01*
X68008306Y-108029376D01*
X68023019Y-108141144D01*
X68083844Y-108287986D01*
X68092403Y-108352295D01*
X68067832Y-108412339D01*
X67970578Y-108540587D01*
X67916372Y-108678043D01*
X67906000Y-108764421D01*
X67906000Y-108956500D01*
X67043372Y-108956500D01*
X66998213Y-108198770D01*
X66998012Y-108193547D01*
X66981679Y-107262864D01*
X66981698Y-107257579D01*
X66983678Y-107176567D01*
X68008305Y-107176567D01*
X68430000Y-107176567D01*
X68430000Y-106104563D01*
X68291684Y-106161856D01*
X68172262Y-106253491D01*
X68080627Y-106372913D01*
X68023019Y-106511988D01*
X68008305Y-106623759D01*
X68008305Y-107176567D01*
X66983678Y-107176567D01*
X67004436Y-106327099D01*
X67004676Y-106321829D01*
X67066444Y-105393106D01*
X67066904Y-105387857D01*
X67167601Y-104462483D01*
X67168275Y-104457311D01*
X67307718Y-103536983D01*
X67308605Y-103531860D01*
X67442487Y-102844433D01*
X68008306Y-102844433D01*
X68008306Y-103397242D01*
X68023019Y-103509011D01*
X68080626Y-103648085D01*
X68172262Y-103767508D01*
X68291684Y-103859143D01*
X68430000Y-103916436D01*
X68730000Y-103916436D01*
X68868315Y-103859143D01*
X68987737Y-103767508D01*
X69079373Y-103648085D01*
X69098591Y-103601691D01*
X69133170Y-103554098D01*
X69185586Y-103527390D01*
X69244414Y-103527390D01*
X69296830Y-103554098D01*
X69331409Y-103601691D01*
X69350626Y-103648085D01*
X69442262Y-103767508D01*
X69561684Y-103859143D01*
X69700000Y-103916436D01*
X69700000Y-101472429D01*
X69561684Y-101529722D01*
X69442262Y-101621357D01*
X69350626Y-101740780D01*
X69331407Y-101787177D01*
X69296828Y-101834769D01*
X69244411Y-101861475D01*
X69185583Y-101861474D01*
X69133168Y-101834766D01*
X69098590Y-101787173D01*
X69079374Y-101740781D01*
X68987737Y-101621357D01*
X68868315Y-101529722D01*
X68730000Y-101472429D01*
X68730000Y-103916436D01*
X68430000Y-103916436D01*
X68430000Y-102844433D01*
X68008306Y-102844433D01*
X67442487Y-102844433D01*
X67486549Y-102618191D01*
X67487666Y-102613040D01*
X67489619Y-102604862D01*
X67504044Y-102544433D01*
X68008305Y-102544433D01*
X68430000Y-102544433D01*
X68430000Y-101472429D01*
X68291684Y-101529722D01*
X68172262Y-101621357D01*
X68080627Y-101740779D01*
X68023019Y-101879854D01*
X68008305Y-101991625D01*
X68008305Y-102544433D01*
X67504044Y-102544433D01*
X67703779Y-101707724D01*
X67705112Y-101702618D01*
X67709425Y-101687409D01*
X67959048Y-100807096D01*
X67960582Y-100802092D01*
X68251882Y-99918006D01*
X68253602Y-99913133D01*
X68581748Y-99042052D01*
X68583710Y-99037158D01*
X68592664Y-99016113D01*
X68703115Y-98756500D01*
X70306000Y-98756500D01*
X70931000Y-98756500D01*
X70931000Y-98069000D01*
X70801421Y-98069000D01*
X70715043Y-98079372D01*
X70577587Y-98133578D01*
X70459856Y-98222856D01*
X70370578Y-98340587D01*
X70316372Y-98478043D01*
X70306000Y-98564421D01*
X70306000Y-98756500D01*
X68703115Y-98756500D01*
X68948107Y-98180654D01*
X68950256Y-98175881D01*
X69350285Y-97335408D01*
X69352652Y-97330694D01*
X69787593Y-96507765D01*
X69790129Y-96503203D01*
X70259257Y-95699193D01*
X70261957Y-95694781D01*
X70764410Y-94911175D01*
X70767311Y-94906853D01*
X71302196Y-94145039D01*
X71305279Y-94140837D01*
X71871668Y-93402137D01*
X71874941Y-93398049D01*
X72471835Y-92683767D01*
X72475240Y-92679862D01*
X73101582Y-91991261D01*
X73105173Y-91987477D01*
X73759855Y-91325776D01*
X73763606Y-91322140D01*
X74445485Y-90688494D01*
X74449378Y-90685026D01*
X75157245Y-90080558D01*
X75161262Y-90077270D01*
X75893910Y-89503013D01*
X75898094Y-89499874D01*
X76654119Y-88956926D01*
X76658416Y-88953973D01*
X77436623Y-88443192D01*
X77441047Y-88440420D01*
X78239994Y-87962753D01*
X78244521Y-87960174D01*
X78995909Y-87552735D01*
X79055970Y-87537500D01*
X99506030Y-87537500D01*
X99566090Y-87552735D01*
G37*
%TD.AperFunction*%
%TD*%
M02*
