M48
; DRILL file {KiCad 7.0.1} date Fri Nov 10 16:14:53 2023
; FORMAT={-:-/ absolute / inch / decimal}
; #@! TF.CreationDate,2023-11-10T16:14:53-06:00
; #@! TF.GenerationSoftware,Kicad,Pcbnew,7.0.1
; #@! TF.FileFunction,Plated,1,4,PTH
FMAT,2
INCH
; #@! TA.AperFunction,Plated,PTH,ViaDrill
T1C0.0157
; #@! TA.AperFunction,Plated,PTH,ComponentDrill
T2C0.0394
; #@! TA.AperFunction,Plated,PTH,ComponentDrill
T3C0.0866
%
G90
G05
T1
X2.7827Y-4.6287
X2.85Y-4.1405
X2.8851Y-4.3137
X2.8965Y-4.4744
X2.9008Y-4.5815
X2.9559Y-4.5815
X2.9652Y-4.3531
X2.9678Y-4.2941
X2.975Y-3.645
X3.0Y-4.15
X3.0111Y-4.5185
X3.055Y-3.57
X3.0871Y-4.2352
X3.0915Y-4.5876
X3.0977Y-4.0381
X3.105Y-3.56
X3.1314Y-4.38
X3.137Y-4.1484
X3.1398Y-4.9712
X3.1528Y-3.8019
X3.1552Y-4.3297
X3.1922Y-4.0775
X3.2126Y-4.3346
X3.2374Y-4.5421
X3.2674Y-3.9232
X3.275Y-4.585
X3.2788Y-3.7389
X3.2859Y-4.1791
X3.3Y-4.8427
X3.32Y-3.495
X3.3225Y-3.9224
X3.345Y-4.58
X3.3575Y-4.3295
X3.3654Y-4.2114
X3.3654Y-4.2901
X3.3717Y-4.8448
X3.3733Y-3.8807
X3.38Y-3.655
X3.3847Y-5.0421
X3.452Y-3.4791
X3.4606Y-4.5256
X3.4665Y-3.6148
X3.5307Y-3.8413
X3.5465Y-4.9043
X3.5659Y-3.8115
X3.5826Y-3.6476
X3.5985Y-3.9419
X3.6Y-4.9122
X3.6174Y-4.5578
X3.6804Y-3.55
X3.69Y-4.605
X3.7455Y-4.892
X3.7512Y-4.9655
X3.7512Y-5.0381
X3.775Y-3.505
X3.8544Y-3.8744
X3.8693Y-4.9673
X3.875Y-4.64
X3.8851Y-4.365
X3.9067Y-3.5047
X3.9101Y-4.5749
X3.9638Y-3.6759
X4.03Y-4.33
X4.0349Y-4.3889
X4.0504Y-4.857
X4.065Y-3.825
X4.0824Y-4.3753
X4.1134Y-4.8019
X4.1681Y-4.3641
X4.1685Y-4.7389
X4.2Y-4.165
X4.21Y-4.54
X4.21Y-4.64
X4.215Y-4.225
X4.219Y-4.085
X4.235Y-4.145
X4.24Y-3.865
X4.2571Y-4.3165
X4.2582Y-4.2557
X4.285Y-3.92
X4.315Y-4.395
T2
X3.0699Y-4.7885
X3.1406Y-4.8592
X3.2113Y-4.9299
X3.282Y-5.0006
X3.9958Y-3.5819
X4.0665Y-3.6526
X4.1372Y-3.7233
X4.2079Y-3.7941
T3
X2.84Y-3.8408
X4.08Y-4.5558
T0
M30
