%TF.GenerationSoftware,KiCad,Pcbnew,(6.0.0)*%
%TF.CreationDate,2023-06-19T18:06:32-05:00*%
%TF.ProjectId,RoundScanner,526f756e-6453-4636-916e-6e65722e6b69,1.0*%
%TF.SameCoordinates,Original*%
%TF.FileFunction,Copper,L2,Inr*%
%TF.FilePolarity,Positive*%
%FSLAX46Y46*%
G04 Gerber Fmt 4.6, Leading zero omitted, Abs format (unit mm)*
G04 Created by KiCad (PCBNEW (6.0.0)) date 2023-06-19 18:06:32*
%MOMM*%
%LPD*%
G01*
G04 APERTURE LIST*
G04 Aperture macros list*
%AMHorizOval*
0 Thick line with rounded ends*
0 $1 width*
0 $2 $3 position (X,Y) of the first rounded end (center of the circle)*
0 $4 $5 position (X,Y) of the second rounded end (center of the circle)*
0 Add line between two ends*
20,1,$1,$2,$3,$4,$5,0*
0 Add two circle primitives to create the rounded ends*
1,1,$1,$2,$3*
1,1,$1,$4,$5*%
%AMRotRect*
0 Rectangle, with rotation*
0 The origin of the aperture is its center*
0 $1 length*
0 $2 width*
0 $3 Rotation angle, in degrees counterclockwise*
0 Add horizontal line*
21,1,$1,$2,0,0,$3*%
G04 Aperture macros list end*
%TA.AperFunction,ComponentPad*%
%ADD10C,3.500000*%
%TD*%
%TA.AperFunction,ComponentPad*%
%ADD11RotRect,1.700000X1.700000X45.000000*%
%TD*%
%TA.AperFunction,ComponentPad*%
%ADD12HorizOval,1.700000X0.000000X0.000000X0.000000X0.000000X0*%
%TD*%
%TA.AperFunction,ComponentPad*%
%ADD13RotRect,1.700000X1.700000X225.000000*%
%TD*%
%TA.AperFunction,ComponentPad*%
%ADD14HorizOval,1.700000X0.000000X0.000000X0.000000X0.000000X0*%
%TD*%
%TA.AperFunction,ViaPad*%
%ADD15C,0.800000*%
%TD*%
%TA.AperFunction,Conductor*%
%ADD16C,0.250000*%
%TD*%
G04 APERTURE END LIST*
D10*
%TO.N,GND*%
%TO.C,H2*%
X72136000Y-97556000D03*
%TD*%
%TO.N,GND*%
%TO.C,H1*%
X103632000Y-115717000D03*
%TD*%
D11*
%TO.N,GND*%
%TO.C,J4*%
X106831000Y-96319000D03*
D12*
%TO.N,LED RESET*%
X105034949Y-94522949D03*
%TO.N,AS7341_INT*%
X103238898Y-92726898D03*
%TO.N,DRDY_INT*%
X101442846Y-90930846D03*
%TD*%
D13*
%TO.N,GND*%
%TO.C,J1*%
X77975672Y-121628317D03*
D14*
%TO.N,+3V3*%
X79771723Y-123424368D03*
%TO.N,SDA*%
X81567774Y-125220419D03*
%TO.N,SCL*%
X83363826Y-127016471D03*
%TD*%
D15*
%TO.N,+3V3*%
X90574204Y-96811500D03*
X78411285Y-107574192D03*
X81941000Y-102869000D03*
X89408000Y-125476000D03*
X76200000Y-105410000D03*
X106531000Y-104319000D03*
X74676000Y-118745000D03*
X93726000Y-116967000D03*
X70871000Y-113929000D03*
X84963000Y-97155000D03*
X85001000Y-113509000D03*
X105871000Y-110849000D03*
X91059000Y-92710000D03*
X91402051Y-100123252D03*
X91331250Y-112159250D03*
X83185000Y-116459000D03*
%TO.N,Net-(C2-Pad2)*%
X88048500Y-91816701D03*
X103251000Y-97155000D03*
%TO.N,/ADC/AIN+*%
X80645000Y-96012000D03*
X78867000Y-90424000D03*
%TO.N,SDA*%
X75381000Y-109069000D03*
X102362000Y-109982000D03*
X90321000Y-123919000D03*
X83819942Y-123004567D03*
X79536989Y-111252000D03*
%TO.N,LED RESET*%
X109601000Y-111633000D03*
%TO.N,Net-(R25-Pad1)*%
X103692257Y-111133368D03*
X108157333Y-108095500D03*
%TO.N,Net-(R26-Pad1)*%
X107061000Y-107315000D03*
X99441000Y-110871000D03*
%TO.N,Net-(R27-Pad1)*%
X106680000Y-105791000D03*
X82991000Y-99649000D03*
%TO.N,Net-(R28-Pad1)*%
X107569000Y-105283000D03*
X84391000Y-99629000D03*
%TO.N,DRDY_INT*%
X72390000Y-105410000D03*
%TO.N,SCL*%
X102487287Y-111476921D03*
X85641000Y-123059000D03*
X75315299Y-112644701D03*
X91440000Y-123825000D03*
%TO.N,Net-(D2-Pad2)*%
X95135000Y-124257513D03*
%TO.N,+1V8*%
X80141999Y-109974704D03*
X82231000Y-115369000D03*
%TO.N,/ADC/AIN2+*%
X75565000Y-92583000D03*
X98425000Y-117856000D03*
%TO.N,/ADC/AIN2-*%
X87080500Y-112919448D03*
X77597000Y-90678000D03*
%TO.N,GND*%
X105029000Y-119380000D03*
X99231000Y-89019000D03*
X102235000Y-117983000D03*
X84963000Y-116332000D03*
X89916000Y-89027000D03*
X107696000Y-98171000D03*
X85852000Y-92837000D03*
X108131000Y-109639000D03*
X99314000Y-116205000D03*
X95885000Y-89027000D03*
X101981000Y-122809000D03*
X81601000Y-110099000D03*
X106934000Y-115316000D03*
X106934000Y-117856000D03*
X108839000Y-99568000D03*
X97901000Y-98409000D03*
X84328000Y-88773000D03*
X100330000Y-93091000D03*
X73571000Y-113649000D03*
X83461000Y-106149000D03*
X72301000Y-109149000D03*
X100203000Y-123952000D03*
X79751000Y-126269000D03*
X79551000Y-116279000D03*
X85971000Y-128069000D03*
%TO.N,AS7341_INT*%
X80291000Y-105329000D03*
%TD*%
D16*
%TO.N,Net-(C2-Pad2)*%
X102997000Y-97409000D02*
X103251000Y-97155000D01*
X88048500Y-91816701D02*
X93640799Y-97409000D01*
X93640799Y-97409000D02*
X102997000Y-97409000D01*
%TO.N,/ADC/AIN+*%
X78867000Y-94234000D02*
X80645000Y-96012000D01*
X78867000Y-90424000D02*
X78867000Y-94234000D01*
%TO.N,/ADC/AIN2+*%
X75565000Y-92583000D02*
X75565000Y-94453000D01*
X86281000Y-105169000D02*
X86281000Y-114629000D01*
X86281000Y-114629000D02*
X89508000Y-117856000D01*
X89508000Y-117856000D02*
X98425000Y-117856000D01*
X75565000Y-94453000D02*
X86281000Y-105169000D01*
%TO.N,/ADC/AIN2-*%
X77597000Y-95477245D02*
X87030500Y-104910745D01*
X87030500Y-104910745D02*
X87030500Y-112869448D01*
X87030500Y-112869448D02*
X87080500Y-112919448D01*
X77597000Y-90678000D02*
X77597000Y-95477245D01*
%TD*%
%TA.AperFunction,Conductor*%
%TO.N,GND*%
G36*
X99414170Y-88150256D02*
G01*
X100033342Y-88486269D01*
X100037979Y-88488916D01*
X100292106Y-88641199D01*
X100827205Y-88961851D01*
X100831754Y-88964710D01*
X101051244Y-89109301D01*
X101097127Y-89163479D01*
X101106436Y-89233863D01*
X101076214Y-89298106D01*
X101011343Y-89337041D01*
X100931236Y-89356273D01*
X100926665Y-89358166D01*
X100926663Y-89358167D01*
X100695792Y-89453797D01*
X100695788Y-89453799D01*
X100691218Y-89455692D01*
X100469706Y-89591434D01*
X100272157Y-89760157D01*
X100103434Y-89957706D01*
X99967692Y-90179218D01*
X99965799Y-90183788D01*
X99965797Y-90183792D01*
X99949914Y-90222138D01*
X99868273Y-90419236D01*
X99867118Y-90424048D01*
X99808780Y-90667039D01*
X99808779Y-90667045D01*
X99807625Y-90671852D01*
X99787242Y-90930846D01*
X99807625Y-91189840D01*
X99808779Y-91194647D01*
X99808780Y-91194653D01*
X99830600Y-91285537D01*
X99868273Y-91442456D01*
X99870166Y-91447027D01*
X99870167Y-91447029D01*
X99957425Y-91657687D01*
X99967692Y-91682474D01*
X100103434Y-91903986D01*
X100272157Y-92101535D01*
X100469706Y-92270258D01*
X100691218Y-92406000D01*
X100695788Y-92407893D01*
X100695792Y-92407895D01*
X100926663Y-92503525D01*
X100931236Y-92505419D01*
X101019570Y-92526626D01*
X101179039Y-92564912D01*
X101179045Y-92564913D01*
X101183852Y-92566067D01*
X101442846Y-92586450D01*
X101447776Y-92586062D01*
X101447784Y-92586062D01*
X101448216Y-92586028D01*
X101448378Y-92586062D01*
X101452732Y-92586062D01*
X101452732Y-92586977D01*
X101517696Y-92600622D01*
X101568257Y-92650463D01*
X101582734Y-92717012D01*
X101583682Y-92717012D01*
X101583682Y-92721372D01*
X101583716Y-92721528D01*
X101583682Y-92721960D01*
X101583682Y-92721968D01*
X101583294Y-92726898D01*
X101603677Y-92985892D01*
X101604830Y-92990695D01*
X101604832Y-92990705D01*
X101621081Y-93058384D01*
X101664325Y-93238508D01*
X101666218Y-93243079D01*
X101666219Y-93243081D01*
X101730110Y-93397326D01*
X101763744Y-93478526D01*
X101899486Y-93700038D01*
X102068209Y-93897587D01*
X102265758Y-94066310D01*
X102487270Y-94202052D01*
X102491840Y-94203945D01*
X102491844Y-94203947D01*
X102722715Y-94299577D01*
X102727288Y-94301471D01*
X102815622Y-94322678D01*
X102975091Y-94360964D01*
X102975097Y-94360965D01*
X102979904Y-94362119D01*
X103238898Y-94382502D01*
X103243828Y-94382114D01*
X103243835Y-94382114D01*
X103244267Y-94382080D01*
X103244429Y-94382114D01*
X103248783Y-94382114D01*
X103248783Y-94383029D01*
X103313747Y-94396674D01*
X103364308Y-94446515D01*
X103378785Y-94513064D01*
X103379733Y-94513064D01*
X103379733Y-94517424D01*
X103379767Y-94517580D01*
X103379733Y-94518012D01*
X103379733Y-94518019D01*
X103379345Y-94522949D01*
X103399728Y-94781943D01*
X103400882Y-94786750D01*
X103400883Y-94786756D01*
X103413000Y-94837226D01*
X103460376Y-95034559D01*
X103462269Y-95039130D01*
X103462270Y-95039132D01*
X103531086Y-95205267D01*
X103559795Y-95274577D01*
X103695537Y-95496089D01*
X103864260Y-95693638D01*
X104061809Y-95862361D01*
X104283321Y-95998103D01*
X104287891Y-95999996D01*
X104287895Y-95999998D01*
X104508139Y-96091226D01*
X104523339Y-96097522D01*
X104611673Y-96118729D01*
X104771142Y-96157015D01*
X104771148Y-96157016D01*
X104775955Y-96158170D01*
X105034949Y-96178553D01*
X105039879Y-96178165D01*
X105039880Y-96178165D01*
X105093033Y-96173982D01*
X105162513Y-96188578D01*
X105213072Y-96238421D01*
X105228918Y-96299594D01*
X105228918Y-96372435D01*
X105231983Y-96391787D01*
X105265008Y-96493426D01*
X105273903Y-96510884D01*
X105320903Y-96575574D01*
X105327320Y-96583087D01*
X105792883Y-97048650D01*
X105806827Y-97056264D01*
X105808660Y-97056133D01*
X105815275Y-97051882D01*
X106741905Y-96125252D01*
X106804217Y-96091226D01*
X106875032Y-96096291D01*
X106920095Y-96125252D01*
X107843492Y-97048649D01*
X107857436Y-97056263D01*
X107859269Y-97056132D01*
X107865884Y-97051881D01*
X108084188Y-96833577D01*
X108146500Y-96799551D01*
X108217315Y-96804616D01*
X108274151Y-96847163D01*
X108282681Y-96860158D01*
X108311201Y-96910070D01*
X108346103Y-96971153D01*
X108348669Y-96975875D01*
X108770661Y-97793481D01*
X108773022Y-97798305D01*
X108837737Y-97938002D01*
X109159766Y-98633154D01*
X109161921Y-98638077D01*
X109512732Y-99488694D01*
X109514672Y-99493701D01*
X109767680Y-100190024D01*
X109828881Y-100358462D01*
X109830604Y-100363539D01*
X110089302Y-101182792D01*
X110107668Y-101240953D01*
X110109173Y-101246101D01*
X110295732Y-101938433D01*
X110348559Y-102134479D01*
X110349843Y-102139679D01*
X110514146Y-102872488D01*
X110551149Y-103037527D01*
X110552210Y-103042784D01*
X110572646Y-103156439D01*
X110715040Y-103948351D01*
X110715878Y-103953658D01*
X110839948Y-104865342D01*
X110840559Y-104870681D01*
X110885054Y-105349772D01*
X110920502Y-105731452D01*
X110925644Y-105786823D01*
X110926026Y-105792176D01*
X110966694Y-106605556D01*
X110971972Y-106711128D01*
X110972125Y-106716482D01*
X110973770Y-106941646D01*
X110978846Y-107636583D01*
X110978770Y-107641956D01*
X110946255Y-108561448D01*
X110945951Y-108566813D01*
X110874258Y-109484118D01*
X110873725Y-109489465D01*
X110867278Y-109542640D01*
X110764834Y-110387620D01*
X110762987Y-110402851D01*
X110762229Y-110408156D01*
X110718523Y-110673417D01*
X110705421Y-110752933D01*
X110674610Y-110816895D01*
X110614109Y-110854046D01*
X110543128Y-110852591D01*
X110495568Y-110824973D01*
X110339189Y-110680418D01*
X110339186Y-110680416D01*
X110334949Y-110676499D01*
X110148350Y-110558764D01*
X109943421Y-110477006D01*
X109937761Y-110475880D01*
X109937757Y-110475879D01*
X109732691Y-110435089D01*
X109732688Y-110435089D01*
X109727024Y-110433962D01*
X109721249Y-110433886D01*
X109721245Y-110433886D01*
X109610504Y-110432437D01*
X109506406Y-110431074D01*
X109500709Y-110432053D01*
X109500708Y-110432053D01*
X109294654Y-110467459D01*
X109294653Y-110467459D01*
X109288957Y-110468438D01*
X109081957Y-110544804D01*
X109076996Y-110547756D01*
X109076995Y-110547756D01*
X108900865Y-110652543D01*
X108892341Y-110657614D01*
X108726457Y-110803090D01*
X108589863Y-110976360D01*
X108487131Y-111171620D01*
X108421703Y-111382333D01*
X108395770Y-111601440D01*
X108410200Y-111821604D01*
X108411621Y-111827200D01*
X108411622Y-111827205D01*
X108442913Y-111950410D01*
X108464511Y-112035452D01*
X108466928Y-112040694D01*
X108466928Y-112040695D01*
X108468525Y-112044160D01*
X108556883Y-112235821D01*
X108684222Y-112416002D01*
X108842264Y-112569961D01*
X108847060Y-112573166D01*
X108847063Y-112573168D01*
X108958154Y-112647396D01*
X109025717Y-112692540D01*
X109031020Y-112694818D01*
X109031023Y-112694820D01*
X109223129Y-112777355D01*
X109228436Y-112779635D01*
X109308088Y-112797658D01*
X109437995Y-112827054D01*
X109438001Y-112827055D01*
X109443632Y-112828329D01*
X109449403Y-112828556D01*
X109449405Y-112828556D01*
X109517211Y-112831220D01*
X109664098Y-112836991D01*
X109773275Y-112821161D01*
X109876738Y-112806160D01*
X109876743Y-112806159D01*
X109882452Y-112805331D01*
X109887916Y-112803476D01*
X109887921Y-112803475D01*
X110091379Y-112734410D01*
X110092120Y-112736592D01*
X110152562Y-112728503D01*
X110216852Y-112758625D01*
X110254652Y-112818722D01*
X110255541Y-112884040D01*
X110200867Y-113099418D01*
X110195898Y-113118991D01*
X110194470Y-113124152D01*
X110082717Y-113496936D01*
X109930257Y-114005505D01*
X109928605Y-114010618D01*
X109627055Y-114879901D01*
X109625186Y-114884939D01*
X109460433Y-115301585D01*
X109321764Y-115652267D01*
X109286851Y-115740558D01*
X109284773Y-115745503D01*
X108922433Y-116558609D01*
X108910248Y-116585952D01*
X108907958Y-116590808D01*
X108813971Y-116779624D01*
X108497967Y-117414466D01*
X108495471Y-117419225D01*
X108050702Y-118224708D01*
X108048005Y-118229355D01*
X107997087Y-118312936D01*
X107569297Y-119015142D01*
X107566434Y-119019622D01*
X107346775Y-119347821D01*
X107054670Y-119784262D01*
X107051587Y-119788663D01*
X106507692Y-120530779D01*
X106504435Y-120535031D01*
X106213301Y-120898667D01*
X105929369Y-121253307D01*
X105925922Y-121257429D01*
X105320766Y-121950518D01*
X105317146Y-121954489D01*
X104683008Y-122621125D01*
X104679222Y-122624939D01*
X104017225Y-123263940D01*
X104013280Y-123267589D01*
X103678437Y-123564288D01*
X103377422Y-123831013D01*
X103324632Y-123877789D01*
X103320539Y-123881263D01*
X102778588Y-124321693D01*
X102606495Y-124461549D01*
X102602256Y-124464846D01*
X101864137Y-125014145D01*
X101859783Y-125017243D01*
X101521245Y-125247421D01*
X101098885Y-125534590D01*
X101094378Y-125537516D01*
X100869043Y-125677059D01*
X100393704Y-125971422D01*
X100312130Y-126021938D01*
X100307507Y-126024666D01*
X100266779Y-126047545D01*
X99505314Y-126475294D01*
X99500574Y-126477825D01*
X98679908Y-126893834D01*
X98675064Y-126896161D01*
X97837402Y-127276801D01*
X97832464Y-127278919D01*
X96979334Y-127623497D01*
X96974309Y-127625403D01*
X96107267Y-127933290D01*
X96102166Y-127934980D01*
X95222784Y-128205617D01*
X95217619Y-128207087D01*
X94327457Y-128439994D01*
X94322273Y-128441233D01*
X93908663Y-128530800D01*
X93423007Y-128635968D01*
X93417732Y-128636993D01*
X93009027Y-128707405D01*
X92510974Y-128793209D01*
X92505705Y-128794002D01*
X91593110Y-128911413D01*
X91587791Y-128911983D01*
X90952181Y-128966334D01*
X90671020Y-128990376D01*
X90665658Y-128990719D01*
X89746427Y-129029950D01*
X89741054Y-129030065D01*
X88820946Y-129030065D01*
X88815573Y-129029950D01*
X87896342Y-128990719D01*
X87890980Y-128990376D01*
X87609819Y-128966334D01*
X86974209Y-128911983D01*
X86968890Y-128911413D01*
X86056295Y-128794002D01*
X86051026Y-128793209D01*
X85552973Y-128707405D01*
X85144268Y-128636993D01*
X85138993Y-128635968D01*
X84486097Y-128494584D01*
X84423753Y-128460617D01*
X84389669Y-128398337D01*
X84394667Y-128327517D01*
X84430934Y-128275627D01*
X84530754Y-128190373D01*
X84530759Y-128190368D01*
X84534515Y-128187160D01*
X84703238Y-127989611D01*
X84838980Y-127768099D01*
X84891335Y-127641705D01*
X84936505Y-127532654D01*
X84936506Y-127532652D01*
X84938399Y-127528081D01*
X84967822Y-127405526D01*
X84997892Y-127280278D01*
X84997893Y-127280272D01*
X84999047Y-127275465D01*
X85019430Y-127016471D01*
X84999047Y-126757477D01*
X84997893Y-126752670D01*
X84997892Y-126752664D01*
X84956263Y-126579268D01*
X84938399Y-126504861D01*
X84936505Y-126500288D01*
X84840875Y-126269417D01*
X84840873Y-126269413D01*
X84838980Y-126264843D01*
X84703238Y-126043331D01*
X84534515Y-125845782D01*
X84336966Y-125677059D01*
X84115454Y-125541317D01*
X84110884Y-125539424D01*
X84110880Y-125539422D01*
X83881573Y-125444440D01*
X88202770Y-125444440D01*
X88217200Y-125664604D01*
X88218621Y-125670200D01*
X88218622Y-125670205D01*
X88262399Y-125842574D01*
X88271511Y-125878452D01*
X88273928Y-125883694D01*
X88273928Y-125883695D01*
X88314371Y-125971422D01*
X88363883Y-126078821D01*
X88491222Y-126259002D01*
X88649264Y-126412961D01*
X88654060Y-126416166D01*
X88654063Y-126416168D01*
X88738261Y-126472427D01*
X88832717Y-126535540D01*
X88838020Y-126537818D01*
X88838023Y-126537820D01*
X89030129Y-126620355D01*
X89035436Y-126622635D01*
X89115088Y-126640658D01*
X89244995Y-126670054D01*
X89245001Y-126670055D01*
X89250632Y-126671329D01*
X89256403Y-126671556D01*
X89256405Y-126671556D01*
X89324211Y-126674220D01*
X89471098Y-126679991D01*
X89580275Y-126664161D01*
X89683738Y-126649160D01*
X89683743Y-126649159D01*
X89689452Y-126648331D01*
X89694916Y-126646476D01*
X89694921Y-126646475D01*
X89892907Y-126579268D01*
X89892912Y-126579266D01*
X89898379Y-126577410D01*
X90090884Y-126469602D01*
X90260518Y-126328518D01*
X90401602Y-126158884D01*
X90477504Y-126023351D01*
X90506586Y-125971422D01*
X90506587Y-125971420D01*
X90509410Y-125966379D01*
X90511266Y-125960912D01*
X90511268Y-125960907D01*
X90578475Y-125762921D01*
X90578476Y-125762916D01*
X90580331Y-125757452D01*
X90581159Y-125751743D01*
X90581160Y-125751738D01*
X90611458Y-125542772D01*
X90611991Y-125539098D01*
X90613643Y-125476000D01*
X90598743Y-125313843D01*
X90593983Y-125262042D01*
X90593982Y-125262038D01*
X90593454Y-125256289D01*
X90584238Y-125223611D01*
X90584999Y-125152618D01*
X90624021Y-125093307D01*
X90665006Y-125070097D01*
X90805914Y-125022265D01*
X90805913Y-125022265D01*
X90811379Y-125020410D01*
X90917610Y-124960918D01*
X90986818Y-124945085D01*
X91028913Y-124955085D01*
X91062125Y-124969354D01*
X91062132Y-124969356D01*
X91067436Y-124971635D01*
X91147088Y-124989658D01*
X91276995Y-125019054D01*
X91277001Y-125019055D01*
X91282632Y-125020329D01*
X91288403Y-125020556D01*
X91288405Y-125020556D01*
X91356211Y-125023220D01*
X91503098Y-125028991D01*
X91612275Y-125013161D01*
X91715738Y-124998160D01*
X91715743Y-124998159D01*
X91721452Y-124997331D01*
X91726916Y-124995476D01*
X91726921Y-124995475D01*
X91924907Y-124928268D01*
X91924912Y-124928266D01*
X91930379Y-124926410D01*
X92122884Y-124818602D01*
X92185696Y-124766362D01*
X92288086Y-124681204D01*
X92292518Y-124677518D01*
X92321827Y-124642278D01*
X92429908Y-124512326D01*
X92429910Y-124512323D01*
X92433602Y-124507884D01*
X92501970Y-124385805D01*
X92538586Y-124320422D01*
X92538587Y-124320420D01*
X92541410Y-124315379D01*
X92543266Y-124309912D01*
X92543268Y-124309907D01*
X92571766Y-124225953D01*
X93929770Y-124225953D01*
X93944200Y-124446117D01*
X93945621Y-124451713D01*
X93945622Y-124451718D01*
X93976489Y-124573254D01*
X93998511Y-124659965D01*
X94000928Y-124665207D01*
X94000928Y-124665208D01*
X94074349Y-124824470D01*
X94090883Y-124860334D01*
X94218222Y-125040515D01*
X94376264Y-125194474D01*
X94381060Y-125197679D01*
X94381063Y-125197681D01*
X94465261Y-125253940D01*
X94559717Y-125317053D01*
X94565020Y-125319331D01*
X94565023Y-125319333D01*
X94708236Y-125380862D01*
X94762436Y-125404148D01*
X94842088Y-125422171D01*
X94971995Y-125451567D01*
X94972001Y-125451568D01*
X94977632Y-125452842D01*
X94983403Y-125453069D01*
X94983405Y-125453069D01*
X95051211Y-125455733D01*
X95198098Y-125461504D01*
X95320255Y-125443792D01*
X95410738Y-125430673D01*
X95410743Y-125430672D01*
X95416452Y-125429844D01*
X95421916Y-125427989D01*
X95421921Y-125427988D01*
X95619907Y-125360781D01*
X95619912Y-125360779D01*
X95625379Y-125358923D01*
X95817884Y-125251115D01*
X95841986Y-125231070D01*
X95983086Y-125113717D01*
X95987518Y-125110031D01*
X96054919Y-125028991D01*
X96124908Y-124944839D01*
X96124910Y-124944836D01*
X96128602Y-124940397D01*
X96196386Y-124819360D01*
X96233586Y-124752935D01*
X96233587Y-124752933D01*
X96236410Y-124747892D01*
X96238266Y-124742425D01*
X96238268Y-124742420D01*
X96305475Y-124544434D01*
X96305476Y-124544429D01*
X96307331Y-124538965D01*
X96308159Y-124533256D01*
X96308160Y-124533251D01*
X96338458Y-124324285D01*
X96338991Y-124320611D01*
X96340643Y-124257513D01*
X96320454Y-124037802D01*
X96309277Y-123998169D01*
X96277139Y-123884218D01*
X96260565Y-123825449D01*
X96162980Y-123627566D01*
X96131053Y-123584810D01*
X96034420Y-123455404D01*
X96034420Y-123455403D01*
X96030967Y-123450780D01*
X95868949Y-123301012D01*
X95682350Y-123183277D01*
X95477421Y-123101519D01*
X95471761Y-123100393D01*
X95471757Y-123100392D01*
X95266691Y-123059602D01*
X95266688Y-123059602D01*
X95261024Y-123058475D01*
X95255249Y-123058399D01*
X95255245Y-123058399D01*
X95144504Y-123056950D01*
X95040406Y-123055587D01*
X95034709Y-123056566D01*
X95034708Y-123056566D01*
X94828654Y-123091972D01*
X94828653Y-123091972D01*
X94822957Y-123092951D01*
X94615957Y-123169317D01*
X94610996Y-123172269D01*
X94610995Y-123172269D01*
X94456911Y-123263940D01*
X94426341Y-123282127D01*
X94260457Y-123427603D01*
X94123863Y-123600873D01*
X94021131Y-123796133D01*
X93990989Y-123893206D01*
X93960335Y-123991930D01*
X93955703Y-124006846D01*
X93929770Y-124225953D01*
X92571766Y-124225953D01*
X92610475Y-124111921D01*
X92610476Y-124111916D01*
X92612331Y-124106452D01*
X92613159Y-124100743D01*
X92613160Y-124100738D01*
X92643458Y-123891772D01*
X92643991Y-123888098D01*
X92645643Y-123825000D01*
X92625454Y-123605289D01*
X92619679Y-123584810D01*
X92585364Y-123463138D01*
X92565565Y-123392936D01*
X92467980Y-123195053D01*
X92462262Y-123187395D01*
X92339420Y-123022891D01*
X92339420Y-123022890D01*
X92335967Y-123018267D01*
X92173949Y-122868499D01*
X91987350Y-122750764D01*
X91782421Y-122669006D01*
X91776761Y-122667880D01*
X91776757Y-122667879D01*
X91571691Y-122627089D01*
X91571688Y-122627089D01*
X91566024Y-122625962D01*
X91560249Y-122625886D01*
X91560245Y-122625886D01*
X91449504Y-122624437D01*
X91345406Y-122623074D01*
X91339709Y-122624053D01*
X91339708Y-122624053D01*
X91133654Y-122659459D01*
X91133653Y-122659459D01*
X91127957Y-122660438D01*
X90920957Y-122736804D01*
X90916000Y-122739753D01*
X90915998Y-122739754D01*
X90844616Y-122782222D01*
X90775846Y-122799861D01*
X90733504Y-122790966D01*
X90668785Y-122765146D01*
X90663421Y-122763006D01*
X90657761Y-122761880D01*
X90657757Y-122761879D01*
X90452691Y-122721089D01*
X90452688Y-122721089D01*
X90447024Y-122719962D01*
X90441249Y-122719886D01*
X90441245Y-122719886D01*
X90330504Y-122718437D01*
X90226406Y-122717074D01*
X90220709Y-122718053D01*
X90220708Y-122718053D01*
X90014654Y-122753459D01*
X90014653Y-122753459D01*
X90008957Y-122754438D01*
X89801957Y-122830804D01*
X89796996Y-122833756D01*
X89796995Y-122833756D01*
X89671892Y-122908185D01*
X89612341Y-122943614D01*
X89446457Y-123089090D01*
X89309863Y-123262360D01*
X89207131Y-123457620D01*
X89141703Y-123668333D01*
X89115770Y-123887440D01*
X89130200Y-124107604D01*
X89141597Y-124152477D01*
X89146673Y-124172465D01*
X89144055Y-124243414D01*
X89103495Y-124301684D01*
X89068161Y-124321692D01*
X88888957Y-124387804D01*
X88883996Y-124390756D01*
X88883995Y-124390756D01*
X88759924Y-124464571D01*
X88699341Y-124500614D01*
X88533457Y-124646090D01*
X88396863Y-124819360D01*
X88294131Y-125014620D01*
X88228703Y-125225333D01*
X88202770Y-125444440D01*
X83881573Y-125444440D01*
X83880009Y-125443792D01*
X83880007Y-125443791D01*
X83875436Y-125441898D01*
X83787102Y-125420691D01*
X83627633Y-125382405D01*
X83627627Y-125382404D01*
X83622820Y-125381250D01*
X83363826Y-125360867D01*
X83358896Y-125361255D01*
X83358888Y-125361255D01*
X83358456Y-125361289D01*
X83358294Y-125361255D01*
X83353940Y-125361255D01*
X83353940Y-125360340D01*
X83288976Y-125346695D01*
X83238415Y-125296854D01*
X83223938Y-125230305D01*
X83222990Y-125230305D01*
X83222990Y-125225945D01*
X83222956Y-125225789D01*
X83222990Y-125225357D01*
X83222990Y-125225349D01*
X83223378Y-125220419D01*
X83202995Y-124961425D01*
X83201841Y-124956618D01*
X83201840Y-124956612D01*
X83155544Y-124763780D01*
X83142347Y-124708809D01*
X83096558Y-124598265D01*
X83044823Y-124473365D01*
X83044821Y-124473361D01*
X83042928Y-124468791D01*
X82907186Y-124247279D01*
X82738463Y-124049730D01*
X82540914Y-123881007D01*
X82319402Y-123745265D01*
X82314832Y-123743372D01*
X82314828Y-123743370D01*
X82083957Y-123647740D01*
X82083955Y-123647739D01*
X82079384Y-123645846D01*
X81983970Y-123622939D01*
X81831581Y-123586353D01*
X81831575Y-123586352D01*
X81826768Y-123585198D01*
X81567774Y-123564815D01*
X81562844Y-123565203D01*
X81562837Y-123565203D01*
X81562405Y-123565237D01*
X81562243Y-123565203D01*
X81557889Y-123565203D01*
X81557889Y-123564288D01*
X81492925Y-123550643D01*
X81442364Y-123500802D01*
X81427887Y-123434253D01*
X81426939Y-123434253D01*
X81426939Y-123429893D01*
X81426905Y-123429737D01*
X81426939Y-123429305D01*
X81426939Y-123429298D01*
X81427327Y-123424368D01*
X81406944Y-123165374D01*
X81405790Y-123160567D01*
X81405789Y-123160561D01*
X81362145Y-122978773D01*
X81360761Y-122973007D01*
X82614712Y-122973007D01*
X82615090Y-122978773D01*
X82628634Y-123185414D01*
X82629142Y-123193171D01*
X82630563Y-123198767D01*
X82630564Y-123198772D01*
X82678560Y-123387753D01*
X82683453Y-123407019D01*
X82685870Y-123412261D01*
X82685870Y-123412262D01*
X82709324Y-123463138D01*
X82775825Y-123607388D01*
X82903164Y-123787569D01*
X83061206Y-123941528D01*
X83066002Y-123944733D01*
X83066005Y-123944735D01*
X83205291Y-124037802D01*
X83244659Y-124064107D01*
X83249962Y-124066385D01*
X83249965Y-124066387D01*
X83371355Y-124118540D01*
X83447378Y-124151202D01*
X83496283Y-124162268D01*
X83656937Y-124198621D01*
X83656943Y-124198622D01*
X83662574Y-124199896D01*
X83668345Y-124200123D01*
X83668347Y-124200123D01*
X83736153Y-124202787D01*
X83883040Y-124208558D01*
X83992217Y-124192728D01*
X84095680Y-124177727D01*
X84095685Y-124177726D01*
X84101394Y-124176898D01*
X84106858Y-124175043D01*
X84106863Y-124175042D01*
X84304849Y-124107835D01*
X84304854Y-124107833D01*
X84310321Y-124105977D01*
X84317716Y-124101836D01*
X84390817Y-124060897D01*
X84502826Y-123998169D01*
X84621508Y-123899461D01*
X84686674Y-123871280D01*
X84756729Y-123882804D01*
X84790001Y-123906082D01*
X84878125Y-123991930D01*
X84878132Y-123991935D01*
X84882264Y-123995961D01*
X84887060Y-123999166D01*
X84887063Y-123999168D01*
X84971261Y-124055427D01*
X85065717Y-124118540D01*
X85071020Y-124120818D01*
X85071023Y-124120820D01*
X85252110Y-124198621D01*
X85268436Y-124205635D01*
X85348088Y-124223658D01*
X85477995Y-124253054D01*
X85478001Y-124253055D01*
X85483632Y-124254329D01*
X85489403Y-124254556D01*
X85489405Y-124254556D01*
X85557211Y-124257220D01*
X85704098Y-124262991D01*
X85813275Y-124247161D01*
X85916738Y-124232160D01*
X85916743Y-124232159D01*
X85922452Y-124231331D01*
X85927916Y-124229476D01*
X85927921Y-124229475D01*
X86125907Y-124162268D01*
X86125912Y-124162266D01*
X86131379Y-124160410D01*
X86145545Y-124152477D01*
X86309072Y-124060897D01*
X86323884Y-124052602D01*
X86331195Y-124046522D01*
X86489086Y-123915204D01*
X86493518Y-123911518D01*
X86584894Y-123801651D01*
X86630908Y-123746326D01*
X86630910Y-123746323D01*
X86634602Y-123741884D01*
X86721704Y-123586353D01*
X86739586Y-123554422D01*
X86739587Y-123554420D01*
X86742410Y-123549379D01*
X86744266Y-123543912D01*
X86744268Y-123543907D01*
X86811475Y-123345921D01*
X86811476Y-123345916D01*
X86813331Y-123340452D01*
X86814159Y-123334743D01*
X86814160Y-123334738D01*
X86836431Y-123181137D01*
X86844991Y-123122098D01*
X86846643Y-123059000D01*
X86826454Y-122839289D01*
X86766565Y-122626936D01*
X86681994Y-122455442D01*
X86671535Y-122434234D01*
X86668980Y-122429053D01*
X86536967Y-122252267D01*
X86374949Y-122102499D01*
X86188350Y-121984764D01*
X85983421Y-121903006D01*
X85977761Y-121901880D01*
X85977757Y-121901879D01*
X85772691Y-121861089D01*
X85772688Y-121861089D01*
X85767024Y-121859962D01*
X85761249Y-121859886D01*
X85761245Y-121859886D01*
X85650504Y-121858437D01*
X85546406Y-121857074D01*
X85540709Y-121858053D01*
X85540708Y-121858053D01*
X85334654Y-121893459D01*
X85334653Y-121893459D01*
X85328957Y-121894438D01*
X85121957Y-121970804D01*
X85116996Y-121973756D01*
X85116995Y-121973756D01*
X84992092Y-122048066D01*
X84932341Y-122083614D01*
X84914321Y-122099417D01*
X84843166Y-122161818D01*
X84778762Y-122191695D01*
X84708429Y-122182009D01*
X84674560Y-122159611D01*
X84558131Y-122051985D01*
X84558128Y-122051983D01*
X84553891Y-122048066D01*
X84367292Y-121930331D01*
X84162363Y-121848573D01*
X84156703Y-121847447D01*
X84156699Y-121847446D01*
X83951633Y-121806656D01*
X83951630Y-121806656D01*
X83945966Y-121805529D01*
X83940191Y-121805453D01*
X83940187Y-121805453D01*
X83829446Y-121804004D01*
X83725348Y-121802641D01*
X83719651Y-121803620D01*
X83719650Y-121803620D01*
X83513596Y-121839026D01*
X83513595Y-121839026D01*
X83507899Y-121840005D01*
X83300899Y-121916371D01*
X83295938Y-121919323D01*
X83295937Y-121919323D01*
X83209406Y-121970804D01*
X83111283Y-122029181D01*
X82945399Y-122174657D01*
X82808805Y-122347927D01*
X82706073Y-122543187D01*
X82640645Y-122753900D01*
X82614712Y-122973007D01*
X81360761Y-122973007D01*
X81346296Y-122912758D01*
X81329587Y-122872418D01*
X81248772Y-122677314D01*
X81248770Y-122677310D01*
X81246877Y-122672740D01*
X81111135Y-122451228D01*
X80942412Y-122253679D01*
X80744863Y-122084956D01*
X80523351Y-121949214D01*
X80518781Y-121947321D01*
X80518777Y-121947319D01*
X80287906Y-121851689D01*
X80287904Y-121851688D01*
X80283333Y-121849795D01*
X80160066Y-121820201D01*
X80035530Y-121790302D01*
X80035524Y-121790301D01*
X80030717Y-121789147D01*
X79771723Y-121768764D01*
X79766793Y-121769152D01*
X79766792Y-121769152D01*
X79713639Y-121773335D01*
X79644159Y-121758739D01*
X79593600Y-121708896D01*
X79577754Y-121647723D01*
X79577754Y-121574882D01*
X79574689Y-121555530D01*
X79541664Y-121453891D01*
X79532769Y-121436433D01*
X79485769Y-121371743D01*
X79479352Y-121364230D01*
X79013789Y-120898667D01*
X78999845Y-120891053D01*
X78998012Y-120891184D01*
X78991397Y-120895435D01*
X77246023Y-122640809D01*
X77238409Y-122654753D01*
X77238540Y-122656586D01*
X77242791Y-122663201D01*
X77711582Y-123131992D01*
X77719099Y-123138413D01*
X77783789Y-123185414D01*
X77801246Y-123194309D01*
X77902885Y-123227334D01*
X77922237Y-123230399D01*
X77995078Y-123230399D01*
X78063199Y-123250401D01*
X78109692Y-123304057D01*
X78120690Y-123366284D01*
X78118593Y-123392936D01*
X78116119Y-123424368D01*
X78136502Y-123683362D01*
X78137656Y-123688169D01*
X78137657Y-123688175D01*
X78160388Y-123782854D01*
X78197150Y-123935978D01*
X78199043Y-123940549D01*
X78199044Y-123940551D01*
X78290883Y-124162268D01*
X78296569Y-124175996D01*
X78432311Y-124397508D01*
X78601034Y-124595057D01*
X78798583Y-124763780D01*
X79020095Y-124899522D01*
X79024665Y-124901415D01*
X79024669Y-124901417D01*
X79251745Y-124995475D01*
X79260113Y-124998941D01*
X79337791Y-125017590D01*
X79507916Y-125058434D01*
X79507922Y-125058435D01*
X79512729Y-125059589D01*
X79771723Y-125079972D01*
X79776653Y-125079584D01*
X79776660Y-125079584D01*
X79777092Y-125079550D01*
X79777254Y-125079584D01*
X79781608Y-125079584D01*
X79781608Y-125080499D01*
X79846572Y-125094144D01*
X79897133Y-125143985D01*
X79911610Y-125210534D01*
X79912558Y-125210534D01*
X79912558Y-125214894D01*
X79912592Y-125215050D01*
X79912558Y-125215482D01*
X79912558Y-125215489D01*
X79912170Y-125220419D01*
X79932553Y-125479413D01*
X79933707Y-125484220D01*
X79933708Y-125484226D01*
X79971994Y-125643695D01*
X79993201Y-125732029D01*
X79995094Y-125736600D01*
X79995095Y-125736602D01*
X80088006Y-125960907D01*
X80092620Y-125972047D01*
X80228362Y-126193559D01*
X80397085Y-126391108D01*
X80594634Y-126559831D01*
X80816146Y-126695573D01*
X80820716Y-126697466D01*
X80820720Y-126697468D01*
X81051591Y-126793098D01*
X81056164Y-126794992D01*
X81144498Y-126816199D01*
X81303967Y-126854485D01*
X81303973Y-126854486D01*
X81308780Y-126855640D01*
X81567774Y-126876023D01*
X81572704Y-126875635D01*
X81572712Y-126875635D01*
X81573144Y-126875601D01*
X81573306Y-126875635D01*
X81577660Y-126875635D01*
X81577660Y-126876550D01*
X81642624Y-126890195D01*
X81693185Y-126940036D01*
X81707662Y-127006585D01*
X81708610Y-127006585D01*
X81708610Y-127010945D01*
X81708644Y-127011101D01*
X81708610Y-127011533D01*
X81708610Y-127011541D01*
X81708222Y-127016471D01*
X81728605Y-127275465D01*
X81729759Y-127280272D01*
X81729760Y-127280278D01*
X81779350Y-127486833D01*
X81775803Y-127557741D01*
X81734483Y-127615475D01*
X81668510Y-127641705D01*
X81614666Y-127634982D01*
X81587689Y-127625402D01*
X81582666Y-127623497D01*
X80729536Y-127278919D01*
X80724598Y-127276801D01*
X79886936Y-126896161D01*
X79882092Y-126893834D01*
X79061426Y-126477825D01*
X79056686Y-126475294D01*
X78295221Y-126047545D01*
X78254493Y-126024666D01*
X78249870Y-126021938D01*
X78168297Y-125971422D01*
X77692957Y-125677059D01*
X77467622Y-125537516D01*
X77463115Y-125534590D01*
X77040755Y-125247421D01*
X76702217Y-125017243D01*
X76697863Y-125014145D01*
X75959744Y-124464846D01*
X75955505Y-124461549D01*
X75783412Y-124321693D01*
X75241461Y-123881263D01*
X75237368Y-123877789D01*
X75184579Y-123831013D01*
X74883563Y-123564288D01*
X74548720Y-123267589D01*
X74544775Y-123263940D01*
X73882778Y-122624939D01*
X73878992Y-122621125D01*
X73244854Y-121954489D01*
X73241234Y-121950518D01*
X73006567Y-121681752D01*
X76373590Y-121681752D01*
X76376655Y-121701104D01*
X76409680Y-121802743D01*
X76418575Y-121820201D01*
X76465575Y-121884891D01*
X76471992Y-121892404D01*
X76937555Y-122357967D01*
X76951499Y-122365581D01*
X76953332Y-122365450D01*
X76959947Y-122361199D01*
X77680017Y-121641129D01*
X77687631Y-121627185D01*
X77687500Y-121625352D01*
X77683249Y-121618737D01*
X76963180Y-120898668D01*
X76949236Y-120891054D01*
X76947403Y-120891185D01*
X76940788Y-120895436D01*
X76471997Y-121364227D01*
X76465576Y-121371744D01*
X76418575Y-121436434D01*
X76409680Y-121453891D01*
X76376655Y-121555530D01*
X76373590Y-121574882D01*
X76373590Y-121681752D01*
X73006567Y-121681752D01*
X72636078Y-121257429D01*
X72632631Y-121253307D01*
X72348699Y-120898667D01*
X72112898Y-120604144D01*
X77238408Y-120604144D01*
X77238539Y-120605977D01*
X77242790Y-120612592D01*
X77962860Y-121332662D01*
X77976804Y-121340276D01*
X77978637Y-121340145D01*
X77985252Y-121335894D01*
X78705321Y-120615825D01*
X78712935Y-120601881D01*
X78712804Y-120600048D01*
X78708553Y-120593433D01*
X78239762Y-120124642D01*
X78232245Y-120118221D01*
X78167555Y-120071220D01*
X78150098Y-120062325D01*
X78048459Y-120029300D01*
X78029107Y-120026235D01*
X77922237Y-120026235D01*
X77902885Y-120029300D01*
X77801246Y-120062325D01*
X77783788Y-120071220D01*
X77719098Y-120118220D01*
X77711585Y-120124637D01*
X77246022Y-120590200D01*
X77238408Y-120604144D01*
X72112898Y-120604144D01*
X72057565Y-120535031D01*
X72054308Y-120530779D01*
X71510413Y-119788663D01*
X71507330Y-119784262D01*
X71215225Y-119347821D01*
X70995566Y-119019622D01*
X70992703Y-119015142D01*
X70808904Y-118713440D01*
X73470770Y-118713440D01*
X73485200Y-118933604D01*
X73486621Y-118939200D01*
X73486622Y-118939205D01*
X73538090Y-119141857D01*
X73539511Y-119147452D01*
X73541928Y-119152694D01*
X73541928Y-119152695D01*
X73580046Y-119235379D01*
X73631883Y-119347821D01*
X73759222Y-119528002D01*
X73917264Y-119681961D01*
X73922060Y-119685166D01*
X73922063Y-119685168D01*
X74006261Y-119741427D01*
X74100717Y-119804540D01*
X74106020Y-119806818D01*
X74106023Y-119806820D01*
X74298129Y-119889355D01*
X74303436Y-119891635D01*
X74383088Y-119909658D01*
X74512995Y-119939054D01*
X74513001Y-119939055D01*
X74518632Y-119940329D01*
X74524403Y-119940556D01*
X74524405Y-119940556D01*
X74592211Y-119943220D01*
X74739098Y-119948991D01*
X74848275Y-119933161D01*
X74951738Y-119918160D01*
X74951743Y-119918159D01*
X74957452Y-119917331D01*
X74962916Y-119915476D01*
X74962921Y-119915475D01*
X75160907Y-119848268D01*
X75160912Y-119848266D01*
X75166379Y-119846410D01*
X75358884Y-119738602D01*
X75528518Y-119597518D01*
X75669602Y-119427884D01*
X75777410Y-119235379D01*
X75779266Y-119229912D01*
X75779268Y-119229907D01*
X75846475Y-119031921D01*
X75846476Y-119031916D01*
X75848331Y-119026452D01*
X75849159Y-119020743D01*
X75849160Y-119020738D01*
X75868346Y-118888413D01*
X75879991Y-118808098D01*
X75881643Y-118745000D01*
X75861454Y-118525289D01*
X75848313Y-118478692D01*
X75810997Y-118346379D01*
X75801565Y-118312936D01*
X75703980Y-118115053D01*
X75571967Y-117938267D01*
X75409949Y-117788499D01*
X75223350Y-117670764D01*
X75018421Y-117589006D01*
X75012761Y-117587880D01*
X75012757Y-117587879D01*
X74807691Y-117547089D01*
X74807688Y-117547089D01*
X74802024Y-117545962D01*
X74796249Y-117545886D01*
X74796245Y-117545886D01*
X74685504Y-117544437D01*
X74581406Y-117543074D01*
X74575709Y-117544053D01*
X74575708Y-117544053D01*
X74369654Y-117579459D01*
X74369653Y-117579459D01*
X74363957Y-117580438D01*
X74156957Y-117656804D01*
X74151996Y-117659756D01*
X74151995Y-117659756D01*
X73993213Y-117754222D01*
X73967341Y-117769614D01*
X73801457Y-117915090D01*
X73664863Y-118088360D01*
X73562131Y-118283620D01*
X73496703Y-118494333D01*
X73470770Y-118713440D01*
X70808904Y-118713440D01*
X70564913Y-118312936D01*
X70513995Y-118229355D01*
X70511298Y-118224708D01*
X70066529Y-117419225D01*
X70064033Y-117414466D01*
X69748029Y-116779624D01*
X69654042Y-116590808D01*
X69651752Y-116585952D01*
X69639567Y-116558609D01*
X69277227Y-115745503D01*
X69275149Y-115740558D01*
X69240237Y-115652267D01*
X69115745Y-115337440D01*
X81025770Y-115337440D01*
X81040200Y-115557604D01*
X81041621Y-115563200D01*
X81041622Y-115563205D01*
X81087923Y-115745512D01*
X81094511Y-115771452D01*
X81096928Y-115776694D01*
X81096928Y-115776695D01*
X81121066Y-115829053D01*
X81186883Y-115971821D01*
X81314222Y-116152002D01*
X81472264Y-116305961D01*
X81477060Y-116309166D01*
X81477063Y-116309168D01*
X81623226Y-116406830D01*
X81655717Y-116428540D01*
X81661020Y-116430818D01*
X81661023Y-116430820D01*
X81835125Y-116505620D01*
X81858436Y-116515635D01*
X81895696Y-116524066D01*
X81957722Y-116558609D01*
X81991227Y-116621202D01*
X81993617Y-116638710D01*
X81994200Y-116647604D01*
X81995621Y-116653200D01*
X81995622Y-116653205D01*
X82029055Y-116784845D01*
X82048511Y-116861452D01*
X82050928Y-116866694D01*
X82050928Y-116866695D01*
X82089046Y-116949379D01*
X82140883Y-117061821D01*
X82268222Y-117242002D01*
X82426264Y-117395961D01*
X82431060Y-117399166D01*
X82431063Y-117399168D01*
X82515261Y-117455427D01*
X82609717Y-117518540D01*
X82615020Y-117520818D01*
X82615023Y-117520820D01*
X82753788Y-117580438D01*
X82812436Y-117605635D01*
X82892088Y-117623658D01*
X83021995Y-117653054D01*
X83022001Y-117653055D01*
X83027632Y-117654329D01*
X83033403Y-117654556D01*
X83033405Y-117654556D01*
X83101211Y-117657220D01*
X83248098Y-117662991D01*
X83357275Y-117647161D01*
X83460738Y-117632160D01*
X83460743Y-117632159D01*
X83466452Y-117631331D01*
X83471916Y-117629476D01*
X83471921Y-117629475D01*
X83669907Y-117562268D01*
X83669912Y-117562266D01*
X83675379Y-117560410D01*
X83699166Y-117547089D01*
X83755875Y-117515330D01*
X83867884Y-117452602D01*
X83908016Y-117419225D01*
X84033086Y-117315204D01*
X84037518Y-117311518D01*
X84178602Y-117141884D01*
X84286410Y-116949379D01*
X84288266Y-116943912D01*
X84288268Y-116943907D01*
X84355475Y-116745921D01*
X84355476Y-116745916D01*
X84357331Y-116740452D01*
X84358159Y-116734743D01*
X84358160Y-116734738D01*
X84379379Y-116588391D01*
X84388991Y-116522098D01*
X84390643Y-116459000D01*
X84370454Y-116239289D01*
X84310565Y-116026936D01*
X84212980Y-115829053D01*
X84192375Y-115801459D01*
X84084420Y-115656891D01*
X84084420Y-115656890D01*
X84080967Y-115652267D01*
X83918949Y-115502499D01*
X83732350Y-115384764D01*
X83527421Y-115303006D01*
X83521654Y-115301859D01*
X83521058Y-115301740D01*
X83520761Y-115301585D01*
X83516215Y-115300238D01*
X83516479Y-115299345D01*
X83458148Y-115268834D01*
X83423016Y-115207139D01*
X83420167Y-115189692D01*
X83416983Y-115155046D01*
X83416454Y-115149289D01*
X83356565Y-114936936D01*
X83258980Y-114739053D01*
X83239519Y-114712991D01*
X83130420Y-114566891D01*
X83130420Y-114566890D01*
X83126967Y-114562267D01*
X82996792Y-114441934D01*
X82969189Y-114416418D01*
X82969186Y-114416416D01*
X82964949Y-114412499D01*
X82778350Y-114294764D01*
X82573421Y-114213006D01*
X82567761Y-114211880D01*
X82567757Y-114211879D01*
X82362691Y-114171089D01*
X82362688Y-114171089D01*
X82357024Y-114169962D01*
X82351249Y-114169886D01*
X82351245Y-114169886D01*
X82240504Y-114168437D01*
X82136406Y-114167074D01*
X82130709Y-114168053D01*
X82130708Y-114168053D01*
X81924654Y-114203459D01*
X81924653Y-114203459D01*
X81918957Y-114204438D01*
X81711957Y-114280804D01*
X81706996Y-114283756D01*
X81706995Y-114283756D01*
X81626826Y-114331452D01*
X81522341Y-114393614D01*
X81356457Y-114539090D01*
X81219863Y-114712360D01*
X81117131Y-114907620D01*
X81051703Y-115118333D01*
X81025770Y-115337440D01*
X69115745Y-115337440D01*
X69101567Y-115301585D01*
X68936814Y-114884939D01*
X68934945Y-114879901D01*
X68633395Y-114010618D01*
X68631743Y-114005505D01*
X68599347Y-113897440D01*
X69665770Y-113897440D01*
X69680200Y-114117604D01*
X69681621Y-114123200D01*
X69681622Y-114123205D01*
X69721140Y-114278806D01*
X69734511Y-114331452D01*
X69736928Y-114336694D01*
X69736928Y-114336695D01*
X69773681Y-114416418D01*
X69826883Y-114531821D01*
X69954222Y-114712002D01*
X70112264Y-114865961D01*
X70117060Y-114869166D01*
X70117063Y-114869168D01*
X70201261Y-114925427D01*
X70295717Y-114988540D01*
X70301020Y-114990818D01*
X70301023Y-114990820D01*
X70487105Y-115070767D01*
X70498436Y-115075635D01*
X70578088Y-115093658D01*
X70707995Y-115123054D01*
X70708001Y-115123055D01*
X70713632Y-115124329D01*
X70719403Y-115124556D01*
X70719405Y-115124556D01*
X70787211Y-115127220D01*
X70934098Y-115132991D01*
X71043275Y-115117161D01*
X71146738Y-115102160D01*
X71146743Y-115102159D01*
X71152452Y-115101331D01*
X71157916Y-115099476D01*
X71157921Y-115099475D01*
X71355907Y-115032268D01*
X71355912Y-115032266D01*
X71361379Y-115030410D01*
X71402274Y-115007508D01*
X71494028Y-114956123D01*
X71553884Y-114922602D01*
X71565264Y-114913138D01*
X71719086Y-114785204D01*
X71723518Y-114781518D01*
X71762684Y-114734426D01*
X71860908Y-114616326D01*
X71860910Y-114616323D01*
X71864602Y-114611884D01*
X71955727Y-114449168D01*
X71969586Y-114424422D01*
X71969587Y-114424420D01*
X71972410Y-114419379D01*
X71974266Y-114413912D01*
X71974268Y-114413907D01*
X72041475Y-114215921D01*
X72041476Y-114215916D01*
X72043331Y-114210452D01*
X72044159Y-114204743D01*
X72044160Y-114204738D01*
X72063346Y-114072413D01*
X72074991Y-113992098D01*
X72076643Y-113929000D01*
X72056454Y-113709289D01*
X71996565Y-113496936D01*
X71913050Y-113327585D01*
X71901535Y-113304234D01*
X71898980Y-113299053D01*
X71870311Y-113260660D01*
X71770420Y-113126891D01*
X71770420Y-113126890D01*
X71766967Y-113122267D01*
X71669586Y-113032249D01*
X71609189Y-112976418D01*
X71609186Y-112976416D01*
X71604949Y-112972499D01*
X71418350Y-112854764D01*
X71213421Y-112773006D01*
X71207761Y-112771880D01*
X71207757Y-112771879D01*
X71002691Y-112731089D01*
X71002688Y-112731089D01*
X70997024Y-112729962D01*
X70991249Y-112729886D01*
X70991245Y-112729886D01*
X70880504Y-112728437D01*
X70776406Y-112727074D01*
X70770709Y-112728053D01*
X70770708Y-112728053D01*
X70564654Y-112763459D01*
X70564653Y-112763459D01*
X70558957Y-112764438D01*
X70351957Y-112840804D01*
X70346996Y-112843756D01*
X70346995Y-112843756D01*
X70208499Y-112926153D01*
X70162341Y-112953614D01*
X69996457Y-113099090D01*
X69859863Y-113272360D01*
X69757131Y-113467620D01*
X69691703Y-113678333D01*
X69665770Y-113897440D01*
X68599347Y-113897440D01*
X68479283Y-113496936D01*
X68367530Y-113124152D01*
X68366102Y-113118991D01*
X68361134Y-113099418D01*
X68237690Y-112613141D01*
X74110069Y-112613141D01*
X74124499Y-112833305D01*
X74125920Y-112838901D01*
X74125921Y-112838906D01*
X74159067Y-112969417D01*
X74178810Y-113047153D01*
X74181227Y-113052395D01*
X74181227Y-113052396D01*
X74219345Y-113135080D01*
X74271182Y-113247522D01*
X74398521Y-113427703D01*
X74556563Y-113581662D01*
X74561359Y-113584867D01*
X74561362Y-113584869D01*
X74645560Y-113641128D01*
X74740016Y-113704241D01*
X74745319Y-113706519D01*
X74745322Y-113706521D01*
X74937428Y-113789056D01*
X74942735Y-113791336D01*
X75022387Y-113809359D01*
X75152294Y-113838755D01*
X75152300Y-113838756D01*
X75157931Y-113840030D01*
X75163702Y-113840257D01*
X75163704Y-113840257D01*
X75231510Y-113842921D01*
X75378397Y-113848692D01*
X75487574Y-113832862D01*
X75591037Y-113817861D01*
X75591042Y-113817860D01*
X75596751Y-113817032D01*
X75602215Y-113815177D01*
X75602220Y-113815176D01*
X75800206Y-113747969D01*
X75800211Y-113747967D01*
X75805678Y-113746111D01*
X75998183Y-113638303D01*
X76036093Y-113606774D01*
X76163385Y-113500905D01*
X76167817Y-113497219D01*
X76229555Y-113422988D01*
X76305207Y-113332027D01*
X76305209Y-113332024D01*
X76308901Y-113327585D01*
X76416709Y-113135080D01*
X76418565Y-113129613D01*
X76418567Y-113129608D01*
X76485774Y-112931622D01*
X76485775Y-112931617D01*
X76487630Y-112926153D01*
X76488458Y-112920444D01*
X76488459Y-112920439D01*
X76510737Y-112766787D01*
X76519290Y-112707799D01*
X76520942Y-112644701D01*
X76500753Y-112424990D01*
X76496889Y-112411287D01*
X76457041Y-112269998D01*
X76440864Y-112212637D01*
X76343279Y-112014754D01*
X76265668Y-111910820D01*
X76214719Y-111842592D01*
X76214719Y-111842591D01*
X76211266Y-111837968D01*
X76113314Y-111747422D01*
X76053488Y-111692119D01*
X76053485Y-111692117D01*
X76049248Y-111688200D01*
X75862649Y-111570465D01*
X75657720Y-111488707D01*
X75652060Y-111487581D01*
X75652056Y-111487580D01*
X75446990Y-111446790D01*
X75446987Y-111446790D01*
X75441323Y-111445663D01*
X75435548Y-111445587D01*
X75435544Y-111445587D01*
X75324803Y-111444138D01*
X75220705Y-111442775D01*
X75215008Y-111443754D01*
X75215007Y-111443754D01*
X75008953Y-111479160D01*
X75008952Y-111479160D01*
X75003256Y-111480139D01*
X74796256Y-111556505D01*
X74791295Y-111559457D01*
X74791294Y-111559457D01*
X74711036Y-111607206D01*
X74606640Y-111669315D01*
X74440756Y-111814791D01*
X74304162Y-111988061D01*
X74201430Y-112183321D01*
X74136002Y-112394034D01*
X74110069Y-112613141D01*
X68237690Y-112613141D01*
X68197586Y-112455162D01*
X68139717Y-112227199D01*
X68138506Y-112221964D01*
X68015254Y-111632002D01*
X67950348Y-111321318D01*
X67949362Y-111316043D01*
X67943208Y-111278695D01*
X67933609Y-111220440D01*
X78331759Y-111220440D01*
X78346189Y-111440604D01*
X78347610Y-111446200D01*
X78347611Y-111446205D01*
X78397457Y-111642472D01*
X78400500Y-111654452D01*
X78402917Y-111659694D01*
X78402917Y-111659695D01*
X78441035Y-111742379D01*
X78492872Y-111854821D01*
X78620211Y-112035002D01*
X78778253Y-112188961D01*
X78783049Y-112192166D01*
X78783052Y-112192168D01*
X78867250Y-112248427D01*
X78961706Y-112311540D01*
X78967009Y-112313818D01*
X78967012Y-112313820D01*
X79069437Y-112357825D01*
X79164425Y-112398635D01*
X79220339Y-112411287D01*
X79373984Y-112446054D01*
X79373990Y-112446055D01*
X79379621Y-112447329D01*
X79385392Y-112447556D01*
X79385394Y-112447556D01*
X79453200Y-112450220D01*
X79600087Y-112455991D01*
X79709264Y-112440161D01*
X79812727Y-112425160D01*
X79812732Y-112425159D01*
X79818441Y-112424331D01*
X79823905Y-112422476D01*
X79823910Y-112422475D01*
X80021896Y-112355268D01*
X80021901Y-112355266D01*
X80027368Y-112353410D01*
X80056435Y-112337132D01*
X80149748Y-112284874D01*
X80219873Y-112245602D01*
X80230654Y-112236636D01*
X80385075Y-112108204D01*
X80389507Y-112104518D01*
X80458693Y-112021331D01*
X80526897Y-111939326D01*
X80526899Y-111939323D01*
X80530591Y-111934884D01*
X80638399Y-111742379D01*
X80640255Y-111736912D01*
X80640257Y-111736907D01*
X80707464Y-111538921D01*
X80707465Y-111538916D01*
X80709320Y-111533452D01*
X80710148Y-111527743D01*
X80710149Y-111527738D01*
X80729335Y-111395413D01*
X80740980Y-111315098D01*
X80742632Y-111252000D01*
X80740794Y-111231991D01*
X80733987Y-111157921D01*
X80729352Y-111107481D01*
X80743036Y-111037816D01*
X80793258Y-110986017D01*
X80819842Y-110971130D01*
X80819849Y-110971125D01*
X80824883Y-110968306D01*
X80994517Y-110827222D01*
X81058223Y-110750624D01*
X81131907Y-110662030D01*
X81131909Y-110662027D01*
X81135601Y-110657588D01*
X81234399Y-110481171D01*
X81240585Y-110470126D01*
X81240586Y-110470124D01*
X81243409Y-110465083D01*
X81245265Y-110459616D01*
X81245267Y-110459611D01*
X81312474Y-110261625D01*
X81312475Y-110261620D01*
X81314330Y-110256156D01*
X81315158Y-110250447D01*
X81315159Y-110250442D01*
X81341482Y-110068891D01*
X81345990Y-110037802D01*
X81347642Y-109974704D01*
X81327453Y-109754993D01*
X81325154Y-109746839D01*
X81271191Y-109555500D01*
X81267564Y-109542640D01*
X81169979Y-109344757D01*
X81129879Y-109291056D01*
X81041419Y-109172595D01*
X81041419Y-109172594D01*
X81037966Y-109167971D01*
X80902996Y-109043206D01*
X80880188Y-109022122D01*
X80880185Y-109022120D01*
X80875948Y-109018203D01*
X80689349Y-108900468D01*
X80484420Y-108818710D01*
X80478760Y-108817584D01*
X80478756Y-108817583D01*
X80273690Y-108776793D01*
X80273687Y-108776793D01*
X80268023Y-108775666D01*
X80262248Y-108775590D01*
X80262244Y-108775590D01*
X80151503Y-108774141D01*
X80047405Y-108772778D01*
X80041708Y-108773757D01*
X80041707Y-108773757D01*
X79835653Y-108809163D01*
X79835652Y-108809163D01*
X79829956Y-108810142D01*
X79622956Y-108886508D01*
X79617995Y-108889460D01*
X79617994Y-108889460D01*
X79610693Y-108893804D01*
X79433340Y-108999318D01*
X79267456Y-109144794D01*
X79130862Y-109318064D01*
X79028130Y-109513324D01*
X78962702Y-109724037D01*
X78936769Y-109943144D01*
X78937147Y-109948911D01*
X78948685Y-110124959D01*
X78933181Y-110194242D01*
X78887378Y-110241484D01*
X78833295Y-110273660D01*
X78828330Y-110276614D01*
X78662446Y-110422090D01*
X78525852Y-110595360D01*
X78423120Y-110790620D01*
X78357692Y-111001333D01*
X78331759Y-111220440D01*
X67933609Y-111220440D01*
X67799771Y-110408156D01*
X67799013Y-110402851D01*
X67797167Y-110387620D01*
X67694722Y-109542640D01*
X67688275Y-109489465D01*
X67687742Y-109484118D01*
X67652831Y-109037440D01*
X74175770Y-109037440D01*
X74190200Y-109257604D01*
X74191621Y-109263200D01*
X74191622Y-109263205D01*
X74215503Y-109357234D01*
X74244511Y-109471452D01*
X74246928Y-109476694D01*
X74246928Y-109476695D01*
X74283258Y-109555500D01*
X74336883Y-109671821D01*
X74464222Y-109852002D01*
X74622264Y-110005961D01*
X74627060Y-110009166D01*
X74627063Y-110009168D01*
X74773226Y-110106830D01*
X74805717Y-110128540D01*
X74811020Y-110130818D01*
X74811023Y-110130820D01*
X75003129Y-110213355D01*
X75008436Y-110215635D01*
X75088088Y-110233658D01*
X75217995Y-110263054D01*
X75218001Y-110263055D01*
X75223632Y-110264329D01*
X75229403Y-110264556D01*
X75229405Y-110264556D01*
X75297211Y-110267220D01*
X75444098Y-110272991D01*
X75553275Y-110257161D01*
X75656738Y-110242160D01*
X75656743Y-110242159D01*
X75662452Y-110241331D01*
X75667916Y-110239476D01*
X75667921Y-110239475D01*
X75865907Y-110172268D01*
X75865912Y-110172266D01*
X75871379Y-110170410D01*
X75881331Y-110164837D01*
X76052654Y-110068891D01*
X76063884Y-110062602D01*
X76070630Y-110056992D01*
X76229086Y-109925204D01*
X76233518Y-109921518D01*
X76334713Y-109799845D01*
X76370908Y-109756326D01*
X76370910Y-109756323D01*
X76374602Y-109751884D01*
X76482410Y-109559379D01*
X76484266Y-109553912D01*
X76484268Y-109553907D01*
X76551475Y-109355921D01*
X76551476Y-109355916D01*
X76553331Y-109350452D01*
X76554159Y-109344743D01*
X76554160Y-109344738D01*
X76579119Y-109172595D01*
X76584991Y-109132098D01*
X76586643Y-109069000D01*
X76566454Y-108849289D01*
X76558434Y-108820850D01*
X76508134Y-108642500D01*
X76506565Y-108636936D01*
X76408980Y-108439053D01*
X76402516Y-108430396D01*
X76280420Y-108266891D01*
X76280420Y-108266890D01*
X76276967Y-108262267D01*
X76114949Y-108112499D01*
X75928350Y-107994764D01*
X75723421Y-107913006D01*
X75717761Y-107911880D01*
X75717757Y-107911879D01*
X75512691Y-107871089D01*
X75512688Y-107871089D01*
X75507024Y-107869962D01*
X75501249Y-107869886D01*
X75501245Y-107869886D01*
X75390504Y-107868437D01*
X75286406Y-107867074D01*
X75280709Y-107868053D01*
X75280708Y-107868053D01*
X75074654Y-107903459D01*
X75074653Y-107903459D01*
X75068957Y-107904438D01*
X74861957Y-107980804D01*
X74672341Y-108093614D01*
X74506457Y-108239090D01*
X74369863Y-108412360D01*
X74267131Y-108607620D01*
X74201703Y-108818333D01*
X74175770Y-109037440D01*
X67652831Y-109037440D01*
X67616049Y-108566813D01*
X67615745Y-108561448D01*
X67583230Y-107641956D01*
X67583154Y-107636583D01*
X67583840Y-107542632D01*
X77206055Y-107542632D01*
X77220485Y-107762796D01*
X77221906Y-107768392D01*
X77221907Y-107768397D01*
X77258634Y-107913006D01*
X77274796Y-107976644D01*
X77277213Y-107981886D01*
X77277213Y-107981887D01*
X77328720Y-108093614D01*
X77367168Y-108177013D01*
X77494507Y-108357194D01*
X77652549Y-108511153D01*
X77657345Y-108514358D01*
X77657348Y-108514360D01*
X77803511Y-108612022D01*
X77836002Y-108633732D01*
X77841305Y-108636010D01*
X77841308Y-108636012D01*
X78033414Y-108718547D01*
X78038721Y-108720827D01*
X78118373Y-108738850D01*
X78248280Y-108768246D01*
X78248286Y-108768247D01*
X78253917Y-108769521D01*
X78259688Y-108769748D01*
X78259690Y-108769748D01*
X78327496Y-108772412D01*
X78474383Y-108778183D01*
X78583560Y-108762353D01*
X78687023Y-108747352D01*
X78687028Y-108747351D01*
X78692737Y-108746523D01*
X78698201Y-108744668D01*
X78698206Y-108744667D01*
X78896192Y-108677460D01*
X78896197Y-108677458D01*
X78901664Y-108675602D01*
X79094169Y-108567794D01*
X79101800Y-108561448D01*
X79248962Y-108439053D01*
X79263803Y-108426710D01*
X79404887Y-108257076D01*
X79493973Y-108098002D01*
X79509871Y-108069614D01*
X79509872Y-108069612D01*
X79512695Y-108064571D01*
X79514551Y-108059104D01*
X79514553Y-108059099D01*
X79581760Y-107861113D01*
X79581761Y-107861108D01*
X79583616Y-107855644D01*
X79584444Y-107849935D01*
X79584445Y-107849930D01*
X79614743Y-107640964D01*
X79615276Y-107637290D01*
X79616928Y-107574192D01*
X79596739Y-107354481D01*
X79536850Y-107142128D01*
X79439265Y-106944245D01*
X79403452Y-106896285D01*
X79310705Y-106772083D01*
X79310705Y-106772082D01*
X79307252Y-106767459D01*
X79145234Y-106617691D01*
X78958635Y-106499956D01*
X78753706Y-106418198D01*
X78748046Y-106417072D01*
X78748042Y-106417071D01*
X78542976Y-106376281D01*
X78542973Y-106376281D01*
X78537309Y-106375154D01*
X78531534Y-106375078D01*
X78531530Y-106375078D01*
X78420789Y-106373629D01*
X78316691Y-106372266D01*
X78310994Y-106373245D01*
X78310993Y-106373245D01*
X78104939Y-106408651D01*
X78104938Y-106408651D01*
X78099242Y-106409630D01*
X77892242Y-106485996D01*
X77887281Y-106488948D01*
X77887280Y-106488948D01*
X77733438Y-106580475D01*
X77702626Y-106598806D01*
X77536742Y-106744282D01*
X77400148Y-106917552D01*
X77297416Y-107112812D01*
X77231988Y-107323525D01*
X77206055Y-107542632D01*
X67583840Y-107542632D01*
X67588230Y-106941646D01*
X67589875Y-106716482D01*
X67590028Y-106711128D01*
X67595307Y-106605556D01*
X67635974Y-105792176D01*
X67636356Y-105786823D01*
X67641499Y-105731452D01*
X67674284Y-105378440D01*
X71184770Y-105378440D01*
X71199200Y-105598604D01*
X71200621Y-105604200D01*
X71200622Y-105604205D01*
X71241512Y-105765206D01*
X71253511Y-105812452D01*
X71255928Y-105817694D01*
X71255928Y-105817695D01*
X71294046Y-105900379D01*
X71345883Y-106012821D01*
X71473222Y-106193002D01*
X71631264Y-106346961D01*
X71636060Y-106350166D01*
X71636063Y-106350168D01*
X71720261Y-106406427D01*
X71814717Y-106469540D01*
X71820020Y-106471818D01*
X71820023Y-106471820D01*
X71962403Y-106532991D01*
X72017436Y-106556635D01*
X72073350Y-106569287D01*
X72226995Y-106604054D01*
X72227001Y-106604055D01*
X72232632Y-106605329D01*
X72238403Y-106605556D01*
X72238405Y-106605556D01*
X72306211Y-106608220D01*
X72453098Y-106613991D01*
X72578200Y-106595852D01*
X72665738Y-106583160D01*
X72665743Y-106583159D01*
X72671452Y-106582331D01*
X72676916Y-106580476D01*
X72676921Y-106580475D01*
X72874907Y-106513268D01*
X72874912Y-106513266D01*
X72880379Y-106511410D01*
X72885992Y-106508267D01*
X73030057Y-106427586D01*
X73072884Y-106403602D01*
X73084645Y-106393821D01*
X73238086Y-106266204D01*
X73242518Y-106262518D01*
X73306820Y-106185204D01*
X73379908Y-106097326D01*
X73379910Y-106097323D01*
X73383602Y-106092884D01*
X73491410Y-105900379D01*
X73493266Y-105894912D01*
X73493268Y-105894907D01*
X73560475Y-105696921D01*
X73560476Y-105696916D01*
X73562331Y-105691452D01*
X73563159Y-105685743D01*
X73563160Y-105685738D01*
X73582499Y-105552354D01*
X73593991Y-105473098D01*
X73595643Y-105410000D01*
X73592743Y-105378440D01*
X74994770Y-105378440D01*
X75009200Y-105598604D01*
X75010621Y-105604200D01*
X75010622Y-105604205D01*
X75051512Y-105765206D01*
X75063511Y-105812452D01*
X75065928Y-105817694D01*
X75065928Y-105817695D01*
X75104046Y-105900379D01*
X75155883Y-106012821D01*
X75283222Y-106193002D01*
X75441264Y-106346961D01*
X75446060Y-106350166D01*
X75446063Y-106350168D01*
X75530261Y-106406427D01*
X75624717Y-106469540D01*
X75630020Y-106471818D01*
X75630023Y-106471820D01*
X75772403Y-106532991D01*
X75827436Y-106556635D01*
X75883350Y-106569287D01*
X76036995Y-106604054D01*
X76037001Y-106604055D01*
X76042632Y-106605329D01*
X76048403Y-106605556D01*
X76048405Y-106605556D01*
X76116211Y-106608220D01*
X76263098Y-106613991D01*
X76388200Y-106595852D01*
X76475738Y-106583160D01*
X76475743Y-106583159D01*
X76481452Y-106582331D01*
X76486916Y-106580476D01*
X76486921Y-106580475D01*
X76684907Y-106513268D01*
X76684912Y-106513266D01*
X76690379Y-106511410D01*
X76695992Y-106508267D01*
X76840057Y-106427586D01*
X76882884Y-106403602D01*
X76894645Y-106393821D01*
X77048086Y-106266204D01*
X77052518Y-106262518D01*
X77116820Y-106185204D01*
X77189908Y-106097326D01*
X77189910Y-106097323D01*
X77193602Y-106092884D01*
X77301410Y-105900379D01*
X77303266Y-105894912D01*
X77303268Y-105894907D01*
X77370475Y-105696921D01*
X77370476Y-105696916D01*
X77372331Y-105691452D01*
X77373159Y-105685743D01*
X77373160Y-105685738D01*
X77392499Y-105552354D01*
X77403991Y-105473098D01*
X77405643Y-105410000D01*
X77395300Y-105297440D01*
X79085770Y-105297440D01*
X79100200Y-105517604D01*
X79101621Y-105523200D01*
X79101622Y-105523205D01*
X79142901Y-105685738D01*
X79154511Y-105731452D01*
X79156928Y-105736694D01*
X79156928Y-105736695D01*
X79194270Y-105817695D01*
X79246883Y-105931821D01*
X79374222Y-106112002D01*
X79532264Y-106265961D01*
X79537060Y-106269166D01*
X79537063Y-106269168D01*
X79653489Y-106346961D01*
X79715717Y-106388540D01*
X79721020Y-106390818D01*
X79721023Y-106390820D01*
X79909556Y-106471820D01*
X79918436Y-106475635D01*
X79977271Y-106488948D01*
X80127995Y-106523054D01*
X80128001Y-106523055D01*
X80133632Y-106524329D01*
X80139403Y-106524556D01*
X80139405Y-106524556D01*
X80207211Y-106527220D01*
X80354098Y-106532991D01*
X80463275Y-106517161D01*
X80566738Y-106502160D01*
X80566743Y-106502159D01*
X80572452Y-106501331D01*
X80577916Y-106499476D01*
X80577921Y-106499475D01*
X80775907Y-106432268D01*
X80775912Y-106432266D01*
X80781379Y-106430410D01*
X80805198Y-106417071D01*
X80885067Y-106372342D01*
X80973884Y-106322602D01*
X81143518Y-106181518D01*
X81217235Y-106092884D01*
X81280908Y-106016326D01*
X81280910Y-106016323D01*
X81284602Y-106011884D01*
X81392410Y-105819379D01*
X81394266Y-105813912D01*
X81394268Y-105813907D01*
X81461475Y-105615921D01*
X81461476Y-105615916D01*
X81463331Y-105610452D01*
X81464159Y-105604743D01*
X81464160Y-105604738D01*
X81494458Y-105395772D01*
X81494991Y-105392098D01*
X81496643Y-105329000D01*
X81476454Y-105109289D01*
X81465105Y-105069046D01*
X81418134Y-104902500D01*
X81416565Y-104896936D01*
X81318980Y-104699053D01*
X81283058Y-104650947D01*
X81190420Y-104526891D01*
X81190420Y-104526890D01*
X81186967Y-104522267D01*
X81024949Y-104372499D01*
X80838350Y-104254764D01*
X80633421Y-104173006D01*
X80627761Y-104171880D01*
X80627757Y-104171879D01*
X80422691Y-104131089D01*
X80422688Y-104131089D01*
X80417024Y-104129962D01*
X80411249Y-104129886D01*
X80411245Y-104129886D01*
X80300504Y-104128437D01*
X80196406Y-104127074D01*
X80190709Y-104128053D01*
X80190708Y-104128053D01*
X79984654Y-104163459D01*
X79984653Y-104163459D01*
X79978957Y-104164438D01*
X79771957Y-104240804D01*
X79766996Y-104243756D01*
X79766995Y-104243756D01*
X79635809Y-104321804D01*
X79582341Y-104353614D01*
X79416457Y-104499090D01*
X79279863Y-104672360D01*
X79177131Y-104867620D01*
X79111703Y-105078333D01*
X79085770Y-105297440D01*
X77395300Y-105297440D01*
X77385454Y-105190289D01*
X77325565Y-104977936D01*
X77227980Y-104780053D01*
X77214148Y-104761529D01*
X77099420Y-104607891D01*
X77099420Y-104607890D01*
X77095967Y-104603267D01*
X76979145Y-104495278D01*
X76938189Y-104457418D01*
X76938186Y-104457416D01*
X76933949Y-104453499D01*
X76747350Y-104335764D01*
X76542421Y-104254006D01*
X76536761Y-104252880D01*
X76536757Y-104252879D01*
X76331691Y-104212089D01*
X76331688Y-104212089D01*
X76326024Y-104210962D01*
X76320249Y-104210886D01*
X76320245Y-104210886D01*
X76209504Y-104209437D01*
X76105406Y-104208074D01*
X76099709Y-104209053D01*
X76099708Y-104209053D01*
X75893654Y-104244459D01*
X75893653Y-104244459D01*
X75887957Y-104245438D01*
X75680957Y-104321804D01*
X75675996Y-104324756D01*
X75675995Y-104324756D01*
X75595747Y-104372499D01*
X75491341Y-104434614D01*
X75325457Y-104580090D01*
X75188863Y-104753360D01*
X75086131Y-104948620D01*
X75020703Y-105159333D01*
X74994770Y-105378440D01*
X73592743Y-105378440D01*
X73575454Y-105190289D01*
X73515565Y-104977936D01*
X73417980Y-104780053D01*
X73404148Y-104761529D01*
X73289420Y-104607891D01*
X73289420Y-104607890D01*
X73285967Y-104603267D01*
X73169145Y-104495278D01*
X73128189Y-104457418D01*
X73128186Y-104457416D01*
X73123949Y-104453499D01*
X72937350Y-104335764D01*
X72732421Y-104254006D01*
X72726761Y-104252880D01*
X72726757Y-104252879D01*
X72521691Y-104212089D01*
X72521688Y-104212089D01*
X72516024Y-104210962D01*
X72510249Y-104210886D01*
X72510245Y-104210886D01*
X72399504Y-104209437D01*
X72295406Y-104208074D01*
X72289709Y-104209053D01*
X72289708Y-104209053D01*
X72083654Y-104244459D01*
X72083653Y-104244459D01*
X72077957Y-104245438D01*
X71870957Y-104321804D01*
X71865996Y-104324756D01*
X71865995Y-104324756D01*
X71785747Y-104372499D01*
X71681341Y-104434614D01*
X71515457Y-104580090D01*
X71378863Y-104753360D01*
X71276131Y-104948620D01*
X71210703Y-105159333D01*
X71184770Y-105378440D01*
X67674284Y-105378440D01*
X67676946Y-105349772D01*
X67721441Y-104870681D01*
X67722052Y-104865342D01*
X67846122Y-103953658D01*
X67846960Y-103948351D01*
X67989354Y-103156439D01*
X68009790Y-103042784D01*
X68010851Y-103037527D01*
X68047855Y-102872488D01*
X68212157Y-102139679D01*
X68213441Y-102134479D01*
X68266269Y-101938433D01*
X68452827Y-101246101D01*
X68454332Y-101240953D01*
X68472698Y-101182792D01*
X68731396Y-100363539D01*
X68733119Y-100358462D01*
X68794321Y-100190024D01*
X69047328Y-99493701D01*
X69049268Y-99488694D01*
X69400079Y-98638077D01*
X69402234Y-98633154D01*
X69724263Y-97938002D01*
X69788978Y-97798305D01*
X69791339Y-97793481D01*
X70213331Y-96975875D01*
X70215897Y-96971153D01*
X70488868Y-96493426D01*
X70672382Y-96172258D01*
X70675142Y-96167659D01*
X70680871Y-96158558D01*
X71165244Y-95389003D01*
X71168202Y-95384517D01*
X71533996Y-94854879D01*
X71691092Y-94627419D01*
X71694239Y-94623064D01*
X72248917Y-93888973D01*
X72252247Y-93884756D01*
X72837719Y-93174987D01*
X72841226Y-93170916D01*
X73456448Y-92486733D01*
X73460093Y-92482848D01*
X74103968Y-91825480D01*
X74107775Y-91821756D01*
X74133720Y-91797435D01*
X74779051Y-91192480D01*
X74783049Y-91188890D01*
X75480515Y-90588834D01*
X75484662Y-90585417D01*
X75701162Y-90414663D01*
X76207113Y-90015618D01*
X76211371Y-90012405D01*
X76387640Y-89885186D01*
X76454583Y-89861538D01*
X76523683Y-89877837D01*
X76573003Y-89928907D01*
X76586882Y-89998534D01*
X76572887Y-90046023D01*
X76483131Y-90216620D01*
X76417703Y-90427333D01*
X76391770Y-90646440D01*
X76392148Y-90652206D01*
X76404543Y-90841315D01*
X76406200Y-90866604D01*
X76407621Y-90872200D01*
X76407622Y-90872205D01*
X76454586Y-91057122D01*
X76460511Y-91080452D01*
X76462928Y-91085694D01*
X76462928Y-91085695D01*
X76499398Y-91164804D01*
X76552883Y-91280821D01*
X76556216Y-91285537D01*
X76648397Y-91415971D01*
X76671500Y-91488691D01*
X76671500Y-91682821D01*
X76651498Y-91750942D01*
X76597842Y-91797435D01*
X76527568Y-91807539D01*
X76459971Y-91775346D01*
X76303189Y-91630418D01*
X76303186Y-91630416D01*
X76298949Y-91626499D01*
X76112350Y-91508764D01*
X75907421Y-91427006D01*
X75901761Y-91425880D01*
X75901757Y-91425879D01*
X75696691Y-91385089D01*
X75696688Y-91385089D01*
X75691024Y-91383962D01*
X75685249Y-91383886D01*
X75685245Y-91383886D01*
X75574504Y-91382437D01*
X75470406Y-91381074D01*
X75464709Y-91382053D01*
X75464708Y-91382053D01*
X75258654Y-91417459D01*
X75258653Y-91417459D01*
X75252957Y-91418438D01*
X75045957Y-91494804D01*
X75040996Y-91497756D01*
X75040995Y-91497756D01*
X74883551Y-91591426D01*
X74856341Y-91607614D01*
X74690457Y-91753090D01*
X74553863Y-91926360D01*
X74451131Y-92121620D01*
X74385703Y-92332333D01*
X74359770Y-92551440D01*
X74374200Y-92771604D01*
X74375621Y-92777200D01*
X74375622Y-92777205D01*
X74401562Y-92879342D01*
X74428511Y-92985452D01*
X74520883Y-93185821D01*
X74524216Y-93190537D01*
X74616397Y-93320971D01*
X74639500Y-93393691D01*
X74639500Y-94370242D01*
X74637949Y-94389951D01*
X74635677Y-94404297D01*
X74636022Y-94410884D01*
X74636022Y-94410889D01*
X74639327Y-94473942D01*
X74639500Y-94480536D01*
X74639500Y-94501504D01*
X74639844Y-94504776D01*
X74639844Y-94504778D01*
X74641692Y-94522364D01*
X74642209Y-94528938D01*
X74645859Y-94598578D01*
X74649618Y-94612607D01*
X74653221Y-94632049D01*
X74654738Y-94646482D01*
X74656778Y-94652760D01*
X74656778Y-94652761D01*
X74676285Y-94712797D01*
X74678157Y-94719115D01*
X74696212Y-94786497D01*
X74699208Y-94792377D01*
X74702805Y-94799437D01*
X74710370Y-94817700D01*
X74714856Y-94831508D01*
X74718156Y-94837224D01*
X74718157Y-94837226D01*
X74749734Y-94891919D01*
X74752882Y-94897717D01*
X74784535Y-94959840D01*
X74788690Y-94964972D01*
X74788692Y-94964974D01*
X74793674Y-94971127D01*
X74804867Y-94987412D01*
X74812130Y-94999992D01*
X74816550Y-95004901D01*
X74816553Y-95004905D01*
X74858796Y-95051821D01*
X74863080Y-95056836D01*
X74876275Y-95073130D01*
X74891090Y-95087945D01*
X74895631Y-95092729D01*
X74942308Y-95144569D01*
X74954059Y-95153107D01*
X74969091Y-95165946D01*
X81408972Y-101605827D01*
X81442998Y-101668139D01*
X81437933Y-101738954D01*
X81395386Y-101795790D01*
X81384300Y-101803207D01*
X81237306Y-101890660D01*
X81232341Y-101893614D01*
X81066457Y-102039090D01*
X80929863Y-102212360D01*
X80827131Y-102407620D01*
X80761703Y-102618333D01*
X80735770Y-102837440D01*
X80750200Y-103057604D01*
X80751621Y-103063200D01*
X80751622Y-103063205D01*
X80803090Y-103265857D01*
X80804511Y-103271452D01*
X80806928Y-103276694D01*
X80806928Y-103276695D01*
X80846993Y-103363601D01*
X80896883Y-103471821D01*
X81024222Y-103652002D01*
X81182264Y-103805961D01*
X81187060Y-103809166D01*
X81187063Y-103809168D01*
X81271261Y-103865427D01*
X81365717Y-103928540D01*
X81371020Y-103930818D01*
X81371023Y-103930820D01*
X81562892Y-104013253D01*
X81568436Y-104015635D01*
X81648088Y-104033658D01*
X81777995Y-104063054D01*
X81778001Y-104063055D01*
X81783632Y-104064329D01*
X81789403Y-104064556D01*
X81789405Y-104064556D01*
X81857211Y-104067220D01*
X82004098Y-104072991D01*
X82113275Y-104057161D01*
X82216738Y-104042160D01*
X82216743Y-104042159D01*
X82222452Y-104041331D01*
X82227916Y-104039476D01*
X82227921Y-104039475D01*
X82425907Y-103972268D01*
X82425912Y-103972266D01*
X82431379Y-103970410D01*
X82623884Y-103862602D01*
X82629875Y-103857620D01*
X82789086Y-103725204D01*
X82793518Y-103721518D01*
X82934602Y-103551884D01*
X83004200Y-103427608D01*
X83054934Y-103377949D01*
X83124466Y-103363601D01*
X83190717Y-103389123D01*
X83203227Y-103400082D01*
X85318595Y-105515449D01*
X85352620Y-105577761D01*
X85355500Y-105604544D01*
X85355500Y-112201877D01*
X85335498Y-112269998D01*
X85281842Y-112316491D01*
X85204919Y-112325456D01*
X85132691Y-112311089D01*
X85132688Y-112311089D01*
X85127024Y-112309962D01*
X85121249Y-112309886D01*
X85121245Y-112309886D01*
X85010504Y-112308437D01*
X84906406Y-112307074D01*
X84900709Y-112308053D01*
X84900708Y-112308053D01*
X84694654Y-112343459D01*
X84694653Y-112343459D01*
X84688957Y-112344438D01*
X84481957Y-112420804D01*
X84476996Y-112423756D01*
X84476995Y-112423756D01*
X84424207Y-112455162D01*
X84292341Y-112533614D01*
X84126457Y-112679090D01*
X83989863Y-112852360D01*
X83887131Y-113047620D01*
X83841311Y-113195186D01*
X83823596Y-113252238D01*
X83821703Y-113258333D01*
X83795770Y-113477440D01*
X83810200Y-113697604D01*
X83811621Y-113703200D01*
X83811622Y-113703205D01*
X83848361Y-113847863D01*
X83864511Y-113911452D01*
X83956883Y-114111821D01*
X84084222Y-114292002D01*
X84242264Y-114445961D01*
X84247060Y-114449166D01*
X84247063Y-114449168D01*
X84362913Y-114526576D01*
X84425717Y-114568540D01*
X84431020Y-114570818D01*
X84431023Y-114570820D01*
X84623129Y-114653355D01*
X84628436Y-114655635D01*
X84708088Y-114673658D01*
X84837995Y-114703054D01*
X84838001Y-114703055D01*
X84843632Y-114704329D01*
X84849403Y-114704556D01*
X84849405Y-114704556D01*
X84917211Y-114707220D01*
X85064098Y-114712991D01*
X85185893Y-114695332D01*
X85224030Y-114689802D01*
X85294316Y-114699822D01*
X85348027Y-114746251D01*
X85363812Y-114781871D01*
X85365613Y-114788589D01*
X85369221Y-114808049D01*
X85370738Y-114822482D01*
X85372778Y-114828760D01*
X85372778Y-114828761D01*
X85392285Y-114888797D01*
X85394157Y-114895115D01*
X85412212Y-114962497D01*
X85415208Y-114968377D01*
X85418805Y-114975437D01*
X85426370Y-114993700D01*
X85430856Y-115007508D01*
X85434156Y-115013224D01*
X85434157Y-115013226D01*
X85465734Y-115067919D01*
X85468882Y-115073717D01*
X85500535Y-115135840D01*
X85504690Y-115140972D01*
X85504692Y-115140974D01*
X85509674Y-115147127D01*
X85520867Y-115163412D01*
X85528130Y-115175992D01*
X85532550Y-115180901D01*
X85532553Y-115180905D01*
X85574796Y-115227821D01*
X85579080Y-115232836D01*
X85592275Y-115249130D01*
X85607090Y-115263945D01*
X85611631Y-115268729D01*
X85641479Y-115301878D01*
X85658308Y-115320569D01*
X85670064Y-115329110D01*
X85685092Y-115341947D01*
X88795054Y-118451909D01*
X88807893Y-118466941D01*
X88816431Y-118478692D01*
X88821333Y-118483105D01*
X88821334Y-118483107D01*
X88868271Y-118525369D01*
X88873055Y-118529910D01*
X88887870Y-118544725D01*
X88890434Y-118546801D01*
X88904164Y-118557920D01*
X88909179Y-118562204D01*
X88956095Y-118604447D01*
X88956099Y-118604450D01*
X88961008Y-118608870D01*
X88973588Y-118616133D01*
X88989873Y-118627326D01*
X88996026Y-118632308D01*
X89001160Y-118636465D01*
X89007044Y-118639463D01*
X89063283Y-118668118D01*
X89069081Y-118671266D01*
X89123774Y-118702843D01*
X89123776Y-118702844D01*
X89129492Y-118706144D01*
X89143299Y-118710630D01*
X89161563Y-118718195D01*
X89168623Y-118721792D01*
X89174503Y-118724788D01*
X89241885Y-118742843D01*
X89248196Y-118744713D01*
X89314518Y-118766262D01*
X89328951Y-118767779D01*
X89348393Y-118771382D01*
X89362422Y-118775141D01*
X89369014Y-118775486D01*
X89369017Y-118775487D01*
X89432062Y-118778791D01*
X89438636Y-118779308D01*
X89456222Y-118781156D01*
X89456224Y-118781156D01*
X89459496Y-118781500D01*
X89480464Y-118781500D01*
X89487058Y-118781673D01*
X89550111Y-118784978D01*
X89550116Y-118784978D01*
X89556703Y-118785323D01*
X89571049Y-118783051D01*
X89590758Y-118781500D01*
X97610890Y-118781500D01*
X97680892Y-118802735D01*
X97849717Y-118915540D01*
X97855020Y-118917818D01*
X97855023Y-118917820D01*
X98047129Y-119000355D01*
X98052436Y-119002635D01*
X98107572Y-119015111D01*
X98261995Y-119050054D01*
X98262001Y-119050055D01*
X98267632Y-119051329D01*
X98273403Y-119051556D01*
X98273405Y-119051556D01*
X98341211Y-119054220D01*
X98488098Y-119059991D01*
X98597275Y-119044161D01*
X98700738Y-119029160D01*
X98700743Y-119029159D01*
X98706452Y-119028331D01*
X98711916Y-119026476D01*
X98711921Y-119026475D01*
X98909907Y-118959268D01*
X98909912Y-118959266D01*
X98915379Y-118957410D01*
X98947887Y-118939205D01*
X98995875Y-118912330D01*
X99107884Y-118849602D01*
X99153370Y-118811772D01*
X99273086Y-118712204D01*
X99277518Y-118708518D01*
X99308500Y-118671266D01*
X99414908Y-118543326D01*
X99414910Y-118543323D01*
X99418602Y-118538884D01*
X99526410Y-118346379D01*
X99528266Y-118340912D01*
X99528268Y-118340907D01*
X99595475Y-118142921D01*
X99595476Y-118142916D01*
X99597331Y-118137452D01*
X99598159Y-118131743D01*
X99598160Y-118131738D01*
X99625541Y-117942891D01*
X99628991Y-117919098D01*
X99630643Y-117856000D01*
X99610454Y-117636289D01*
X99602169Y-117606910D01*
X99559446Y-117455427D01*
X99550565Y-117423936D01*
X99452980Y-117226053D01*
X99386361Y-117136839D01*
X99324420Y-117053891D01*
X99324420Y-117053890D01*
X99320967Y-117049267D01*
X99158949Y-116899499D01*
X98972350Y-116781764D01*
X98767421Y-116700006D01*
X98761761Y-116698880D01*
X98761757Y-116698879D01*
X98556691Y-116658089D01*
X98556688Y-116658089D01*
X98551024Y-116656962D01*
X98545249Y-116656886D01*
X98545245Y-116656886D01*
X98434504Y-116655437D01*
X98330406Y-116654074D01*
X98324709Y-116655053D01*
X98324708Y-116655053D01*
X98118654Y-116690459D01*
X98118653Y-116690459D01*
X98112957Y-116691438D01*
X97905957Y-116767804D01*
X97900996Y-116770756D01*
X97900995Y-116770756D01*
X97721309Y-116877658D01*
X97721306Y-116877660D01*
X97716341Y-116880614D01*
X97711997Y-116884424D01*
X97711991Y-116884428D01*
X97695110Y-116899232D01*
X97630706Y-116929109D01*
X97612033Y-116930500D01*
X95043241Y-116930500D01*
X94975120Y-116910498D01*
X94928627Y-116856842D01*
X94917770Y-116816029D01*
X94913156Y-116765806D01*
X94911454Y-116747289D01*
X94895427Y-116690459D01*
X94858241Y-116558609D01*
X94851565Y-116534936D01*
X94753980Y-116337053D01*
X94730763Y-116305961D01*
X94625420Y-116164891D01*
X94625420Y-116164890D01*
X94621967Y-116160267D01*
X94483750Y-116032500D01*
X94464189Y-116014418D01*
X94464186Y-116014416D01*
X94459949Y-116010499D01*
X94273350Y-115892764D01*
X94068421Y-115811006D01*
X94062761Y-115809880D01*
X94062757Y-115809879D01*
X93857691Y-115769089D01*
X93857688Y-115769089D01*
X93852024Y-115767962D01*
X93846249Y-115767886D01*
X93846245Y-115767886D01*
X93735504Y-115766437D01*
X93631406Y-115765074D01*
X93625709Y-115766053D01*
X93625708Y-115766053D01*
X93419654Y-115801459D01*
X93419653Y-115801459D01*
X93413957Y-115802438D01*
X93206957Y-115878804D01*
X93017341Y-115991614D01*
X92851457Y-116137090D01*
X92714863Y-116310360D01*
X92612131Y-116505620D01*
X92546703Y-116716333D01*
X92546024Y-116722070D01*
X92534515Y-116819310D01*
X92506645Y-116884607D01*
X92447896Y-116924471D01*
X92409388Y-116930500D01*
X89943545Y-116930500D01*
X89875424Y-116910498D01*
X89854450Y-116893595D01*
X87269529Y-114308674D01*
X87235503Y-114246362D01*
X87240568Y-114175547D01*
X87283115Y-114118711D01*
X87340544Y-114094883D01*
X87342879Y-114094544D01*
X87356238Y-114092608D01*
X87356243Y-114092607D01*
X87361952Y-114091779D01*
X87367416Y-114089924D01*
X87367421Y-114089923D01*
X87565407Y-114022716D01*
X87565412Y-114022714D01*
X87570879Y-114020858D01*
X87593682Y-114008088D01*
X87756875Y-113916695D01*
X87763384Y-113913050D01*
X87789049Y-113891705D01*
X87928586Y-113775652D01*
X87933018Y-113771966D01*
X87990206Y-113703205D01*
X88070408Y-113606774D01*
X88070410Y-113606771D01*
X88074102Y-113602332D01*
X88149544Y-113467620D01*
X88179086Y-113414870D01*
X88179087Y-113414868D01*
X88181910Y-113409827D01*
X88183766Y-113404360D01*
X88183768Y-113404355D01*
X88250975Y-113206369D01*
X88250976Y-113206364D01*
X88252831Y-113200900D01*
X88253659Y-113195191D01*
X88253660Y-113195186D01*
X88275935Y-113041558D01*
X88284491Y-112982546D01*
X88286143Y-112919448D01*
X88265954Y-112699737D01*
X88257843Y-112670975D01*
X88220549Y-112538741D01*
X88206065Y-112487384D01*
X88108480Y-112289501D01*
X88077809Y-112248427D01*
X88055565Y-112218639D01*
X87987650Y-112127690D01*
X90126020Y-112127690D01*
X90126398Y-112133456D01*
X90139535Y-112333886D01*
X90140450Y-112347854D01*
X90141871Y-112353450D01*
X90141872Y-112353455D01*
X90188595Y-112537424D01*
X90194761Y-112561702D01*
X90197178Y-112566944D01*
X90197178Y-112566945D01*
X90233024Y-112644701D01*
X90287133Y-112762071D01*
X90414472Y-112942252D01*
X90572514Y-113096211D01*
X90577310Y-113099416D01*
X90577313Y-113099418D01*
X90661511Y-113155677D01*
X90755967Y-113218790D01*
X90761270Y-113221068D01*
X90761273Y-113221070D01*
X90880654Y-113272360D01*
X90958686Y-113305885D01*
X91032290Y-113322540D01*
X91168245Y-113353304D01*
X91168251Y-113353305D01*
X91173882Y-113354579D01*
X91179653Y-113354806D01*
X91179655Y-113354806D01*
X91247461Y-113357470D01*
X91394348Y-113363241D01*
X91503525Y-113347411D01*
X91606988Y-113332410D01*
X91606993Y-113332409D01*
X91612702Y-113331581D01*
X91618166Y-113329726D01*
X91618171Y-113329725D01*
X91816157Y-113262518D01*
X91816162Y-113262516D01*
X91821629Y-113260660D01*
X91835636Y-113252816D01*
X91902125Y-113215580D01*
X92014134Y-113152852D01*
X92035503Y-113135080D01*
X92179336Y-113015454D01*
X92183768Y-113011768D01*
X92228966Y-112957424D01*
X92321158Y-112846576D01*
X92321160Y-112846573D01*
X92324852Y-112842134D01*
X92410426Y-112689330D01*
X92429836Y-112654672D01*
X92429837Y-112654670D01*
X92432660Y-112649629D01*
X92434516Y-112644162D01*
X92434518Y-112644157D01*
X92501725Y-112446171D01*
X92501726Y-112446166D01*
X92503581Y-112440702D01*
X92504409Y-112434993D01*
X92504410Y-112434988D01*
X92529793Y-112259923D01*
X92535241Y-112222348D01*
X92536893Y-112159250D01*
X92516704Y-111939539D01*
X92513969Y-111929839D01*
X92478460Y-111803934D01*
X92456815Y-111727186D01*
X92359230Y-111529303D01*
X92330514Y-111490847D01*
X92230670Y-111357141D01*
X92230670Y-111357140D01*
X92227217Y-111352517D01*
X92090575Y-111226206D01*
X92069439Y-111206668D01*
X92069436Y-111206666D01*
X92065199Y-111202749D01*
X91878600Y-111085014D01*
X91673671Y-111003256D01*
X91668011Y-111002130D01*
X91668007Y-111002129D01*
X91462941Y-110961339D01*
X91462938Y-110961339D01*
X91457274Y-110960212D01*
X91451499Y-110960136D01*
X91451495Y-110960136D01*
X91340754Y-110958687D01*
X91236656Y-110957324D01*
X91230959Y-110958303D01*
X91230958Y-110958303D01*
X91024904Y-110993709D01*
X91024903Y-110993709D01*
X91019207Y-110994688D01*
X90812207Y-111071054D01*
X90807246Y-111074006D01*
X90807245Y-111074006D01*
X90675390Y-111152452D01*
X90622591Y-111183864D01*
X90456707Y-111329340D01*
X90320113Y-111502610D01*
X90217381Y-111697870D01*
X90151953Y-111908583D01*
X90126020Y-112127690D01*
X87987650Y-112127690D01*
X87981042Y-112118841D01*
X87956310Y-112052293D01*
X87956000Y-112043453D01*
X87956000Y-110839440D01*
X98235770Y-110839440D01*
X98250200Y-111059604D01*
X98251621Y-111065200D01*
X98251622Y-111065205D01*
X98303090Y-111267857D01*
X98304511Y-111273452D01*
X98306928Y-111278694D01*
X98306928Y-111278695D01*
X98382606Y-111442851D01*
X98396883Y-111473821D01*
X98524222Y-111654002D01*
X98682264Y-111807961D01*
X98687060Y-111811166D01*
X98687063Y-111811168D01*
X98771261Y-111867427D01*
X98865717Y-111930540D01*
X98871020Y-111932818D01*
X98871023Y-111932820D01*
X99061730Y-112014754D01*
X99068436Y-112017635D01*
X99124350Y-112030287D01*
X99277995Y-112065054D01*
X99278001Y-112065055D01*
X99283632Y-112066329D01*
X99289403Y-112066556D01*
X99289405Y-112066556D01*
X99357211Y-112069220D01*
X99504098Y-112074991D01*
X99613275Y-112059161D01*
X99716738Y-112044160D01*
X99716743Y-112044159D01*
X99722452Y-112043331D01*
X99727916Y-112041476D01*
X99727921Y-112041475D01*
X99925907Y-111974268D01*
X99925912Y-111974266D01*
X99931379Y-111972410D01*
X99975706Y-111947586D01*
X100051159Y-111905330D01*
X100123884Y-111864602D01*
X100135645Y-111854821D01*
X100289086Y-111727204D01*
X100293518Y-111723518D01*
X100337092Y-111671126D01*
X100430908Y-111558326D01*
X100430910Y-111558323D01*
X100434602Y-111553884D01*
X100542410Y-111361379D01*
X100544266Y-111355912D01*
X100544268Y-111355907D01*
X100611475Y-111157921D01*
X100611476Y-111157916D01*
X100613331Y-111152452D01*
X100614159Y-111146743D01*
X100614160Y-111146738D01*
X100633924Y-111010425D01*
X100644991Y-110934098D01*
X100646643Y-110871000D01*
X100626454Y-110651289D01*
X100620250Y-110629289D01*
X100568134Y-110444500D01*
X100566565Y-110438936D01*
X100468980Y-110241053D01*
X100450952Y-110216910D01*
X100340420Y-110068891D01*
X100340420Y-110068890D01*
X100336967Y-110064267D01*
X100213830Y-109950440D01*
X101156770Y-109950440D01*
X101171200Y-110170604D01*
X101172621Y-110176200D01*
X101172622Y-110176205D01*
X101197203Y-110272991D01*
X101225511Y-110384452D01*
X101227928Y-110389694D01*
X101227928Y-110389695D01*
X101265152Y-110470439D01*
X101317883Y-110584821D01*
X101382675Y-110676499D01*
X101435061Y-110750624D01*
X101458042Y-110817798D01*
X101443672Y-110882010D01*
X101373418Y-111015541D01*
X101307990Y-111226254D01*
X101282057Y-111445361D01*
X101296487Y-111665525D01*
X101297908Y-111671121D01*
X101297909Y-111671126D01*
X101345760Y-111859537D01*
X101350798Y-111879373D01*
X101443170Y-112079742D01*
X101570509Y-112259923D01*
X101728551Y-112413882D01*
X101733347Y-112417087D01*
X101733350Y-112417089D01*
X101817548Y-112473348D01*
X101912004Y-112536461D01*
X101917307Y-112538739D01*
X101917310Y-112538741D01*
X102030996Y-112587584D01*
X102114723Y-112623556D01*
X102191841Y-112641006D01*
X102324282Y-112670975D01*
X102324288Y-112670976D01*
X102329919Y-112672250D01*
X102335690Y-112672477D01*
X102335692Y-112672477D01*
X102403498Y-112675141D01*
X102550385Y-112680912D01*
X102659562Y-112665082D01*
X102763025Y-112650081D01*
X102763030Y-112650080D01*
X102768739Y-112649252D01*
X102774203Y-112647397D01*
X102774208Y-112647396D01*
X102972194Y-112580189D01*
X102972199Y-112580187D01*
X102977666Y-112578331D01*
X102986886Y-112573168D01*
X103130128Y-112492948D01*
X103170171Y-112470523D01*
X103188641Y-112455162D01*
X103314379Y-112350586D01*
X103334458Y-112333886D01*
X103399622Y-112305705D01*
X103442833Y-112307867D01*
X103534889Y-112328697D01*
X103540660Y-112328924D01*
X103540662Y-112328924D01*
X103608468Y-112331588D01*
X103755355Y-112337359D01*
X103864532Y-112321529D01*
X103967995Y-112306528D01*
X103968000Y-112306527D01*
X103973709Y-112305699D01*
X103979173Y-112303844D01*
X103979178Y-112303843D01*
X104177164Y-112236636D01*
X104177169Y-112236634D01*
X104182636Y-112234778D01*
X104190140Y-112230576D01*
X104317501Y-112159250D01*
X104375141Y-112126970D01*
X104402137Y-112104518D01*
X104533053Y-111995635D01*
X104544775Y-111985886D01*
X104609068Y-111908583D01*
X104682165Y-111820694D01*
X104682167Y-111820691D01*
X104685859Y-111816252D01*
X104767116Y-111671157D01*
X104817850Y-111621498D01*
X104887382Y-111607150D01*
X104953633Y-111632672D01*
X104964967Y-111642469D01*
X105112264Y-111785961D01*
X105117060Y-111789166D01*
X105117063Y-111789168D01*
X105224430Y-111860908D01*
X105295717Y-111908540D01*
X105301020Y-111910818D01*
X105301023Y-111910820D01*
X105480807Y-111988061D01*
X105498436Y-111995635D01*
X105578088Y-112013658D01*
X105707995Y-112043054D01*
X105708001Y-112043055D01*
X105713632Y-112044329D01*
X105719403Y-112044556D01*
X105719405Y-112044556D01*
X105787211Y-112047220D01*
X105934098Y-112052991D01*
X106055062Y-112035452D01*
X106146738Y-112022160D01*
X106146743Y-112022159D01*
X106152452Y-112021331D01*
X106157916Y-112019476D01*
X106157921Y-112019475D01*
X106355907Y-111952268D01*
X106355912Y-111952266D01*
X106361379Y-111950410D01*
X106396860Y-111930540D01*
X106445918Y-111903066D01*
X106553884Y-111842602D01*
X106564165Y-111834052D01*
X106719086Y-111705204D01*
X106723518Y-111701518D01*
X106806753Y-111601440D01*
X106860908Y-111536326D01*
X106860910Y-111536323D01*
X106864602Y-111531884D01*
X106957265Y-111366422D01*
X106969586Y-111344422D01*
X106969587Y-111344420D01*
X106972410Y-111339379D01*
X106974266Y-111333912D01*
X106974268Y-111333907D01*
X107041475Y-111135921D01*
X107041476Y-111135916D01*
X107043331Y-111130452D01*
X107044159Y-111124743D01*
X107044160Y-111124738D01*
X107068026Y-110960136D01*
X107074991Y-110912098D01*
X107076643Y-110849000D01*
X107056454Y-110629289D01*
X106996565Y-110416936D01*
X106898980Y-110219053D01*
X106892089Y-110209824D01*
X106770420Y-110046891D01*
X106770420Y-110046890D01*
X106766967Y-110042267D01*
X106651421Y-109935457D01*
X106609189Y-109896418D01*
X106609186Y-109896416D01*
X106604949Y-109892499D01*
X106418350Y-109774764D01*
X106213421Y-109693006D01*
X106207761Y-109691880D01*
X106207757Y-109691879D01*
X106002691Y-109651089D01*
X106002688Y-109651089D01*
X105997024Y-109649962D01*
X105991249Y-109649886D01*
X105991245Y-109649886D01*
X105880504Y-109648437D01*
X105776406Y-109647074D01*
X105770709Y-109648053D01*
X105770708Y-109648053D01*
X105564654Y-109683459D01*
X105564653Y-109683459D01*
X105558957Y-109684438D01*
X105351957Y-109760804D01*
X105346996Y-109763756D01*
X105346995Y-109763756D01*
X105191899Y-109856029D01*
X105162341Y-109873614D01*
X104996457Y-110019090D01*
X104859863Y-110192360D01*
X104833662Y-110242160D01*
X104799001Y-110308038D01*
X104749581Y-110359011D01*
X104680449Y-110375173D01*
X104613553Y-110351394D01*
X104593856Y-110333680D01*
X104591681Y-110331264D01*
X104588224Y-110326635D01*
X104490637Y-110236426D01*
X104430446Y-110180786D01*
X104430443Y-110180784D01*
X104426206Y-110176867D01*
X104239607Y-110059132D01*
X104034678Y-109977374D01*
X104029018Y-109976248D01*
X104029014Y-109976247D01*
X103823948Y-109935457D01*
X103823945Y-109935457D01*
X103818281Y-109934330D01*
X103812506Y-109934254D01*
X103812502Y-109934254D01*
X103744022Y-109933358D01*
X103676395Y-109932473D01*
X103608543Y-109911581D01*
X103562756Y-109857322D01*
X103552574Y-109818012D01*
X103547983Y-109768046D01*
X103547454Y-109762289D01*
X103545397Y-109754993D01*
X103515753Y-109649886D01*
X103487565Y-109549936D01*
X103389980Y-109352053D01*
X103350561Y-109299264D01*
X103261420Y-109179891D01*
X103261420Y-109179890D01*
X103257967Y-109175267D01*
X103139011Y-109065305D01*
X103100189Y-109029418D01*
X103100186Y-109029416D01*
X103095949Y-109025499D01*
X102909350Y-108907764D01*
X102704421Y-108826006D01*
X102698761Y-108824880D01*
X102698757Y-108824879D01*
X102493691Y-108784089D01*
X102493688Y-108784089D01*
X102488024Y-108782962D01*
X102482249Y-108782886D01*
X102482245Y-108782886D01*
X102371504Y-108781437D01*
X102267406Y-108780074D01*
X102261709Y-108781053D01*
X102261708Y-108781053D01*
X102055654Y-108816459D01*
X102055653Y-108816459D01*
X102049957Y-108817438D01*
X101842957Y-108893804D01*
X101837996Y-108896756D01*
X101837995Y-108896756D01*
X101670570Y-108996364D01*
X101653341Y-109006614D01*
X101487457Y-109152090D01*
X101350863Y-109325360D01*
X101248131Y-109520620D01*
X101208562Y-109648053D01*
X101186682Y-109718520D01*
X101182703Y-109731333D01*
X101156770Y-109950440D01*
X100213830Y-109950440D01*
X100199733Y-109937409D01*
X100179189Y-109918418D01*
X100179186Y-109918416D01*
X100174949Y-109914499D01*
X99988350Y-109796764D01*
X99810517Y-109725816D01*
X99788785Y-109717146D01*
X99783421Y-109715006D01*
X99777761Y-109713880D01*
X99777757Y-109713879D01*
X99572691Y-109673089D01*
X99572688Y-109673089D01*
X99567024Y-109671962D01*
X99561249Y-109671886D01*
X99561245Y-109671886D01*
X99450504Y-109670437D01*
X99346406Y-109669074D01*
X99340709Y-109670053D01*
X99340708Y-109670053D01*
X99134654Y-109705459D01*
X99134653Y-109705459D01*
X99128957Y-109706438D01*
X98921957Y-109782804D01*
X98916996Y-109785756D01*
X98916995Y-109785756D01*
X98762916Y-109877424D01*
X98732341Y-109895614D01*
X98566457Y-110041090D01*
X98429863Y-110214360D01*
X98327131Y-110409620D01*
X98261703Y-110620333D01*
X98235770Y-110839440D01*
X87956000Y-110839440D01*
X87956000Y-104993504D01*
X87957551Y-104973793D01*
X87958791Y-104965965D01*
X87959823Y-104959449D01*
X87959256Y-104948620D01*
X87956173Y-104889804D01*
X87956000Y-104883210D01*
X87956000Y-104862241D01*
X87953808Y-104841384D01*
X87953291Y-104834809D01*
X87949987Y-104771762D01*
X87949986Y-104771758D01*
X87949641Y-104765168D01*
X87945882Y-104751139D01*
X87942279Y-104731697D01*
X87941452Y-104723828D01*
X87940762Y-104717263D01*
X87919209Y-104650929D01*
X87917340Y-104644620D01*
X87900997Y-104583624D01*
X87900995Y-104583619D01*
X87899288Y-104577248D01*
X87892695Y-104564308D01*
X87885130Y-104546044D01*
X87880644Y-104532237D01*
X87864129Y-104503632D01*
X87845766Y-104471826D01*
X87842618Y-104466028D01*
X87813963Y-104409789D01*
X87810965Y-104403905D01*
X87806808Y-104398771D01*
X87801826Y-104392618D01*
X87790631Y-104376330D01*
X87788419Y-104372499D01*
X87783370Y-104363753D01*
X87778950Y-104358844D01*
X87778947Y-104358840D01*
X87736704Y-104311924D01*
X87732420Y-104306909D01*
X87721301Y-104293179D01*
X87719225Y-104290615D01*
X87716050Y-104287440D01*
X105325770Y-104287440D01*
X105340200Y-104507604D01*
X105341621Y-104513200D01*
X105341622Y-104513205D01*
X105380891Y-104667824D01*
X105394511Y-104721452D01*
X105396928Y-104726694D01*
X105396928Y-104726695D01*
X105421527Y-104780053D01*
X105486883Y-104921821D01*
X105597495Y-105078333D01*
X105610741Y-105097076D01*
X105633722Y-105164250D01*
X105619352Y-105228464D01*
X105566131Y-105329620D01*
X105540022Y-105413704D01*
X105507761Y-105517604D01*
X105500703Y-105540333D01*
X105474770Y-105759440D01*
X105489200Y-105979604D01*
X105490621Y-105985200D01*
X105490622Y-105985205D01*
X105540480Y-106181518D01*
X105543511Y-106193452D01*
X105635883Y-106393821D01*
X105763222Y-106574002D01*
X105767356Y-106578029D01*
X105767361Y-106578035D01*
X105916023Y-106722857D01*
X105950861Y-106784718D01*
X105945199Y-106853020D01*
X105947131Y-106853620D01*
X105917383Y-106949426D01*
X105881703Y-107064333D01*
X105855770Y-107283440D01*
X105870200Y-107503604D01*
X105871621Y-107509200D01*
X105871622Y-107509205D01*
X105912206Y-107669000D01*
X105924511Y-107717452D01*
X105926928Y-107722694D01*
X105926928Y-107722695D01*
X105994820Y-107869962D01*
X106016883Y-107917821D01*
X106144222Y-108098002D01*
X106302264Y-108251961D01*
X106307060Y-108255166D01*
X106307063Y-108255168D01*
X106324608Y-108266891D01*
X106485717Y-108374540D01*
X106491020Y-108376818D01*
X106491023Y-108376820D01*
X106615725Y-108430396D01*
X106688436Y-108461635D01*
X106903632Y-108510329D01*
X106909401Y-108510556D01*
X106909404Y-108510556D01*
X106951663Y-108512216D01*
X107018946Y-108534877D01*
X107061143Y-108585367D01*
X107113216Y-108698321D01*
X107240555Y-108878502D01*
X107398597Y-109032461D01*
X107403393Y-109035666D01*
X107403396Y-109035668D01*
X107487594Y-109091927D01*
X107582050Y-109155040D01*
X107587353Y-109157318D01*
X107587356Y-109157320D01*
X107779462Y-109239855D01*
X107784769Y-109242135D01*
X107827646Y-109251837D01*
X107994328Y-109289554D01*
X107994334Y-109289555D01*
X107999965Y-109290829D01*
X108005736Y-109291056D01*
X108005738Y-109291056D01*
X108073544Y-109293720D01*
X108220431Y-109299491D01*
X108329608Y-109283661D01*
X108433071Y-109268660D01*
X108433076Y-109268659D01*
X108438785Y-109267831D01*
X108444249Y-109265976D01*
X108444254Y-109265975D01*
X108642240Y-109198768D01*
X108642245Y-109198766D01*
X108647712Y-109196910D01*
X108686359Y-109175267D01*
X108740772Y-109144794D01*
X108840217Y-109089102D01*
X108859934Y-109072704D01*
X109005419Y-108951704D01*
X109009851Y-108948018D01*
X109056602Y-108891806D01*
X109147241Y-108782826D01*
X109147243Y-108782823D01*
X109150935Y-108778384D01*
X109243477Y-108613138D01*
X109255919Y-108590922D01*
X109255920Y-108590920D01*
X109258743Y-108585879D01*
X109260599Y-108580412D01*
X109260601Y-108580407D01*
X109327808Y-108382421D01*
X109327809Y-108382416D01*
X109329664Y-108376952D01*
X109330492Y-108371243D01*
X109330493Y-108371238D01*
X109360791Y-108162272D01*
X109361324Y-108158598D01*
X109362976Y-108095500D01*
X109342787Y-107875789D01*
X109282898Y-107663436D01*
X109185313Y-107465553D01*
X109053300Y-107288767D01*
X108891282Y-107138999D01*
X108704683Y-107021264D01*
X108499754Y-106939506D01*
X108494094Y-106938380D01*
X108494090Y-106938379D01*
X108289025Y-106897589D01*
X108289020Y-106897589D01*
X108283357Y-106896462D01*
X108277580Y-106896386D01*
X108277577Y-106896386D01*
X108269853Y-106896285D01*
X108202001Y-106875392D01*
X108158499Y-106826024D01*
X108091535Y-106690234D01*
X108088980Y-106685053D01*
X108007138Y-106575454D01*
X107982406Y-106508905D01*
X107997580Y-106439548D01*
X108047842Y-106389406D01*
X108054831Y-106385954D01*
X108059379Y-106384410D01*
X108064422Y-106381586D01*
X108064426Y-106381584D01*
X108176341Y-106318908D01*
X108251884Y-106276602D01*
X108260823Y-106269168D01*
X108417086Y-106139204D01*
X108421518Y-106135518D01*
X108456977Y-106092884D01*
X108558908Y-105970326D01*
X108558910Y-105970323D01*
X108562602Y-105965884D01*
X108648528Y-105812452D01*
X108667586Y-105778422D01*
X108667587Y-105778420D01*
X108670410Y-105773379D01*
X108672266Y-105767912D01*
X108672268Y-105767907D01*
X108739475Y-105569921D01*
X108739476Y-105569916D01*
X108741331Y-105564452D01*
X108742159Y-105558743D01*
X108742160Y-105558738D01*
X108761346Y-105426413D01*
X108772991Y-105346098D01*
X108774643Y-105283000D01*
X108754454Y-105063289D01*
X108731952Y-104983500D01*
X108703667Y-104883210D01*
X108694565Y-104850936D01*
X108596980Y-104653053D01*
X108593058Y-104647800D01*
X108468420Y-104480891D01*
X108468420Y-104480890D01*
X108464967Y-104476267D01*
X108356856Y-104376330D01*
X108307189Y-104330418D01*
X108307186Y-104330416D01*
X108302949Y-104326499D01*
X108116350Y-104208764D01*
X107911421Y-104127006D01*
X107788875Y-104102630D01*
X107725967Y-104069724D01*
X107692191Y-104013258D01*
X107656565Y-103886936D01*
X107558980Y-103689053D01*
X107426967Y-103512267D01*
X107264949Y-103362499D01*
X107078350Y-103244764D01*
X106873421Y-103163006D01*
X106867761Y-103161880D01*
X106867757Y-103161879D01*
X106662691Y-103121089D01*
X106662688Y-103121089D01*
X106657024Y-103119962D01*
X106651249Y-103119886D01*
X106651245Y-103119886D01*
X106540504Y-103118437D01*
X106436406Y-103117074D01*
X106430709Y-103118053D01*
X106430708Y-103118053D01*
X106224654Y-103153459D01*
X106224653Y-103153459D01*
X106218957Y-103154438D01*
X106011957Y-103230804D01*
X105822341Y-103343614D01*
X105656457Y-103489090D01*
X105519863Y-103662360D01*
X105417131Y-103857620D01*
X105351703Y-104068333D01*
X105325770Y-104287440D01*
X87716050Y-104287440D01*
X87704410Y-104275800D01*
X87699869Y-104271016D01*
X87657607Y-104224079D01*
X87657605Y-104224078D01*
X87653192Y-104219176D01*
X87641441Y-104210638D01*
X87626409Y-104197799D01*
X84463703Y-101035093D01*
X84429677Y-100972781D01*
X84434742Y-100901966D01*
X84477289Y-100845130D01*
X84534717Y-100821302D01*
X84591457Y-100813075D01*
X84672452Y-100801331D01*
X84677916Y-100799476D01*
X84677921Y-100799475D01*
X84875907Y-100732268D01*
X84875912Y-100732266D01*
X84881379Y-100730410D01*
X84889124Y-100726073D01*
X84957812Y-100687606D01*
X85073884Y-100622602D01*
X85084671Y-100613631D01*
X85239086Y-100485204D01*
X85243518Y-100481518D01*
X85269402Y-100450397D01*
X85380908Y-100316326D01*
X85380910Y-100316323D01*
X85384602Y-100311884D01*
X85492410Y-100119379D01*
X85494266Y-100113912D01*
X85494268Y-100113907D01*
X85501809Y-100091692D01*
X90196821Y-100091692D01*
X90211251Y-100311856D01*
X90212672Y-100317452D01*
X90212673Y-100317457D01*
X90253214Y-100477086D01*
X90265562Y-100525704D01*
X90267979Y-100530946D01*
X90267979Y-100530947D01*
X90306097Y-100613631D01*
X90357934Y-100726073D01*
X90485273Y-100906254D01*
X90643315Y-101060213D01*
X90648111Y-101063418D01*
X90648114Y-101063420D01*
X90732312Y-101119679D01*
X90826768Y-101182792D01*
X90832071Y-101185070D01*
X90832074Y-101185072D01*
X90974147Y-101246111D01*
X91029487Y-101269887D01*
X91109139Y-101287910D01*
X91239046Y-101317306D01*
X91239052Y-101317307D01*
X91244683Y-101318581D01*
X91250454Y-101318808D01*
X91250456Y-101318808D01*
X91318262Y-101321472D01*
X91465149Y-101327243D01*
X91574326Y-101311413D01*
X91677789Y-101296412D01*
X91677794Y-101296411D01*
X91683503Y-101295583D01*
X91688967Y-101293728D01*
X91688972Y-101293727D01*
X91886958Y-101226520D01*
X91886963Y-101226518D01*
X91892430Y-101224662D01*
X92084935Y-101116854D01*
X92254569Y-100975770D01*
X92379865Y-100825119D01*
X92391959Y-100810578D01*
X92391961Y-100810575D01*
X92395653Y-100806136D01*
X92503461Y-100613631D01*
X92505317Y-100608164D01*
X92505319Y-100608159D01*
X92572526Y-100410173D01*
X92572527Y-100410168D01*
X92574382Y-100404704D01*
X92575210Y-100398995D01*
X92575211Y-100398990D01*
X92605509Y-100190024D01*
X92606042Y-100186350D01*
X92607694Y-100123252D01*
X92587505Y-99903541D01*
X92527616Y-99691188D01*
X92430031Y-99493305D01*
X92298018Y-99316519D01*
X92136000Y-99166751D01*
X91949401Y-99049016D01*
X91744472Y-98967258D01*
X91738812Y-98966132D01*
X91738808Y-98966131D01*
X91533742Y-98925341D01*
X91533739Y-98925341D01*
X91528075Y-98924214D01*
X91522300Y-98924138D01*
X91522296Y-98924138D01*
X91411555Y-98922689D01*
X91307457Y-98921326D01*
X91301760Y-98922305D01*
X91301759Y-98922305D01*
X91095705Y-98957711D01*
X91095704Y-98957711D01*
X91090008Y-98958690D01*
X90883008Y-99035056D01*
X90693392Y-99147866D01*
X90527508Y-99293342D01*
X90390914Y-99466612D01*
X90288182Y-99661872D01*
X90222754Y-99872585D01*
X90196821Y-100091692D01*
X85501809Y-100091692D01*
X85561475Y-99915921D01*
X85561476Y-99915916D01*
X85563331Y-99910452D01*
X85564159Y-99904743D01*
X85564160Y-99904738D01*
X85594458Y-99695772D01*
X85594991Y-99692098D01*
X85596643Y-99629000D01*
X85576454Y-99409289D01*
X85550291Y-99316519D01*
X85518134Y-99202500D01*
X85516565Y-99196936D01*
X85418980Y-98999053D01*
X85396836Y-98969398D01*
X85290420Y-98826891D01*
X85290420Y-98826890D01*
X85286967Y-98822267D01*
X85165341Y-98709837D01*
X85129189Y-98676418D01*
X85129186Y-98676416D01*
X85124949Y-98672499D01*
X84991292Y-98588168D01*
X84944354Y-98534901D01*
X84933665Y-98464714D01*
X84962620Y-98399889D01*
X85022024Y-98361010D01*
X85040444Y-98356911D01*
X85119887Y-98345392D01*
X85238738Y-98328160D01*
X85238743Y-98328159D01*
X85244452Y-98327331D01*
X85249916Y-98325476D01*
X85249921Y-98325475D01*
X85447907Y-98258268D01*
X85447912Y-98258266D01*
X85453379Y-98256410D01*
X85645884Y-98148602D01*
X85686041Y-98115204D01*
X85800577Y-98019944D01*
X85815518Y-98007518D01*
X85896552Y-97910086D01*
X85952908Y-97842326D01*
X85952910Y-97842323D01*
X85956602Y-97837884D01*
X86021606Y-97721812D01*
X86061586Y-97650422D01*
X86061587Y-97650420D01*
X86064410Y-97645379D01*
X86066266Y-97639912D01*
X86066268Y-97639907D01*
X86133475Y-97441921D01*
X86133476Y-97441916D01*
X86135331Y-97436452D01*
X86136159Y-97430743D01*
X86136160Y-97430738D01*
X86166458Y-97221772D01*
X86166991Y-97218098D01*
X86168643Y-97155000D01*
X86148454Y-96935289D01*
X86088565Y-96722936D01*
X85990980Y-96525053D01*
X85980400Y-96510884D01*
X85862420Y-96352891D01*
X85862420Y-96352890D01*
X85858967Y-96348267D01*
X85761586Y-96258249D01*
X85701189Y-96202418D01*
X85701186Y-96202416D01*
X85696949Y-96198499D01*
X85510350Y-96080764D01*
X85305421Y-95999006D01*
X85299761Y-95997880D01*
X85299757Y-95997879D01*
X85094691Y-95957089D01*
X85094688Y-95957089D01*
X85089024Y-95955962D01*
X85083249Y-95955886D01*
X85083245Y-95955886D01*
X84972504Y-95954437D01*
X84868406Y-95953074D01*
X84862709Y-95954053D01*
X84862708Y-95954053D01*
X84656654Y-95989459D01*
X84656653Y-95989459D01*
X84650957Y-95990438D01*
X84443957Y-96066804D01*
X84438996Y-96069756D01*
X84438995Y-96069756D01*
X84263808Y-96173982D01*
X84254341Y-96179614D01*
X84088457Y-96325090D01*
X83951863Y-96498360D01*
X83849131Y-96693620D01*
X83783703Y-96904333D01*
X83757770Y-97123440D01*
X83772200Y-97343604D01*
X83773621Y-97349200D01*
X83773622Y-97349205D01*
X83811622Y-97498826D01*
X83826511Y-97557452D01*
X83828928Y-97562694D01*
X83828928Y-97562695D01*
X83867046Y-97645379D01*
X83918883Y-97757821D01*
X84046222Y-97938002D01*
X84204264Y-98091961D01*
X84209060Y-98095166D01*
X84209063Y-98095168D01*
X84361250Y-98196856D01*
X84406778Y-98251333D01*
X84415626Y-98321776D01*
X84384984Y-98385820D01*
X84324583Y-98423132D01*
X84301648Y-98427143D01*
X84296406Y-98427074D01*
X84290709Y-98428053D01*
X84290708Y-98428053D01*
X84084654Y-98463459D01*
X84084653Y-98463459D01*
X84078957Y-98464438D01*
X83871957Y-98540804D01*
X83738907Y-98619960D01*
X83670139Y-98637600D01*
X83607250Y-98618236D01*
X83543238Y-98577847D01*
X83543229Y-98577842D01*
X83538350Y-98574764D01*
X83333421Y-98493006D01*
X83327761Y-98491880D01*
X83327757Y-98491879D01*
X83122691Y-98451089D01*
X83122688Y-98451089D01*
X83117024Y-98449962D01*
X83111249Y-98449886D01*
X83111245Y-98449886D01*
X83000504Y-98448437D01*
X82896406Y-98447074D01*
X82890709Y-98448053D01*
X82890708Y-98448053D01*
X82684654Y-98483459D01*
X82684653Y-98483459D01*
X82678957Y-98484438D01*
X82471957Y-98560804D01*
X82466996Y-98563756D01*
X82466995Y-98563756D01*
X82287309Y-98670658D01*
X82287306Y-98670660D01*
X82282341Y-98673614D01*
X82277999Y-98677422D01*
X82277992Y-98677427D01*
X82275099Y-98679964D01*
X82273443Y-98680732D01*
X82273322Y-98680820D01*
X82273305Y-98680796D01*
X82210693Y-98709837D01*
X82140360Y-98700147D01*
X82102932Y-98674322D01*
X80830367Y-97401757D01*
X80796341Y-97339445D01*
X80801406Y-97268630D01*
X80843953Y-97211794D01*
X80901382Y-97187966D01*
X80920738Y-97185160D01*
X80920743Y-97185159D01*
X80926452Y-97184331D01*
X80931916Y-97182476D01*
X80931921Y-97182475D01*
X81129907Y-97115268D01*
X81129912Y-97115266D01*
X81135379Y-97113410D01*
X81171910Y-97092952D01*
X81211812Y-97070606D01*
X81327884Y-97005602D01*
X81334837Y-96999820D01*
X81493086Y-96868204D01*
X81497518Y-96864518D01*
X81610644Y-96728500D01*
X81634908Y-96699326D01*
X81634910Y-96699323D01*
X81638602Y-96694884D01*
X81716764Y-96555316D01*
X81743586Y-96507422D01*
X81743587Y-96507420D01*
X81746410Y-96502379D01*
X81748266Y-96496912D01*
X81748268Y-96496907D01*
X81815475Y-96298921D01*
X81815476Y-96298916D01*
X81817331Y-96293452D01*
X81818159Y-96287743D01*
X81818160Y-96287738D01*
X81845572Y-96098677D01*
X81848991Y-96075098D01*
X81850643Y-96012000D01*
X81830454Y-95792289D01*
X81810999Y-95723304D01*
X81772134Y-95585500D01*
X81770565Y-95579936D01*
X81672980Y-95382053D01*
X81592724Y-95274577D01*
X81544420Y-95209891D01*
X81544420Y-95209890D01*
X81540967Y-95205267D01*
X81398022Y-95073130D01*
X81383189Y-95059418D01*
X81383186Y-95059416D01*
X81378949Y-95055499D01*
X81192350Y-94937764D01*
X80987421Y-94856006D01*
X80981761Y-94854880D01*
X80981757Y-94854879D01*
X80788279Y-94816394D01*
X80723765Y-94781910D01*
X79829405Y-93887550D01*
X79795379Y-93825238D01*
X79792500Y-93798455D01*
X79792500Y-91785141D01*
X86843270Y-91785141D01*
X86857700Y-92005305D01*
X86859121Y-92010901D01*
X86859122Y-92010906D01*
X86888642Y-92127138D01*
X86912011Y-92219153D01*
X86914428Y-92224395D01*
X86914428Y-92224396D01*
X86941676Y-92283500D01*
X87004383Y-92419522D01*
X87131722Y-92599703D01*
X87289764Y-92753662D01*
X87294560Y-92756867D01*
X87294563Y-92756869D01*
X87438693Y-92853173D01*
X87473217Y-92876241D01*
X87478520Y-92878519D01*
X87478523Y-92878521D01*
X87670629Y-92961056D01*
X87675936Y-92963336D01*
X87891132Y-93012030D01*
X87896905Y-93012257D01*
X87898607Y-93012481D01*
X87963533Y-93041206D01*
X87971252Y-93048308D01*
X90352694Y-95429750D01*
X90386720Y-95492062D01*
X90381655Y-95562877D01*
X90339108Y-95619713D01*
X90284938Y-95643024D01*
X90262161Y-95646938D01*
X90055161Y-95723304D01*
X89865545Y-95836114D01*
X89699661Y-95981590D01*
X89563067Y-96154860D01*
X89460335Y-96350120D01*
X89394907Y-96560833D01*
X89368974Y-96779940D01*
X89383404Y-97000104D01*
X89384825Y-97005700D01*
X89384826Y-97005705D01*
X89422743Y-97155000D01*
X89437715Y-97213952D01*
X89440132Y-97219194D01*
X89440132Y-97219195D01*
X89478250Y-97301879D01*
X89530087Y-97414321D01*
X89657426Y-97594502D01*
X89815468Y-97748461D01*
X89820264Y-97751666D01*
X89820267Y-97751668D01*
X89904465Y-97807927D01*
X89998921Y-97871040D01*
X90004224Y-97873318D01*
X90004227Y-97873320D01*
X90154779Y-97938002D01*
X90201640Y-97958135D01*
X90281292Y-97976158D01*
X90411199Y-98005554D01*
X90411205Y-98005555D01*
X90416836Y-98006829D01*
X90422607Y-98007056D01*
X90422609Y-98007056D01*
X90490415Y-98009720D01*
X90637302Y-98015491D01*
X90746479Y-97999661D01*
X90849942Y-97984660D01*
X90849947Y-97984659D01*
X90855656Y-97983831D01*
X90861120Y-97981976D01*
X90861125Y-97981975D01*
X91059111Y-97914768D01*
X91059116Y-97914766D01*
X91064583Y-97912910D01*
X91257088Y-97805102D01*
X91265259Y-97798307D01*
X91422290Y-97667704D01*
X91426722Y-97664018D01*
X91567806Y-97494384D01*
X91675614Y-97301879D01*
X91677470Y-97296412D01*
X91677472Y-97296407D01*
X91744677Y-97098426D01*
X91744677Y-97098424D01*
X91746535Y-97092952D01*
X91746593Y-97092555D01*
X91781077Y-97032501D01*
X91844105Y-96999820D01*
X91914796Y-97006403D01*
X91957336Y-97034392D01*
X92927853Y-98004909D01*
X92940692Y-98019941D01*
X92949230Y-98031692D01*
X92954132Y-98036105D01*
X92954133Y-98036107D01*
X93001070Y-98078369D01*
X93005854Y-98082910D01*
X93020669Y-98097725D01*
X93023233Y-98099801D01*
X93036963Y-98110920D01*
X93041978Y-98115204D01*
X93088894Y-98157447D01*
X93088898Y-98157450D01*
X93093807Y-98161870D01*
X93106387Y-98169133D01*
X93122672Y-98180326D01*
X93128825Y-98185308D01*
X93133959Y-98189465D01*
X93139843Y-98192463D01*
X93196082Y-98221118D01*
X93201880Y-98224266D01*
X93256573Y-98255843D01*
X93256575Y-98255844D01*
X93262291Y-98259144D01*
X93276098Y-98263630D01*
X93294362Y-98271195D01*
X93301422Y-98274792D01*
X93307302Y-98277788D01*
X93374684Y-98295843D01*
X93380995Y-98297713D01*
X93447317Y-98319262D01*
X93461750Y-98320779D01*
X93481192Y-98324382D01*
X93495221Y-98328141D01*
X93501813Y-98328486D01*
X93501816Y-98328487D01*
X93564861Y-98331791D01*
X93571435Y-98332308D01*
X93589021Y-98334156D01*
X93589023Y-98334156D01*
X93592295Y-98334500D01*
X93613263Y-98334500D01*
X93619857Y-98334673D01*
X93682910Y-98337978D01*
X93682915Y-98337978D01*
X93689502Y-98338323D01*
X93703848Y-98336051D01*
X93723557Y-98334500D01*
X102914242Y-98334500D01*
X102933951Y-98336051D01*
X102948297Y-98338323D01*
X102954885Y-98337978D01*
X102954890Y-98337978D01*
X103005817Y-98335309D01*
X103040217Y-98338243D01*
X103086268Y-98348663D01*
X103093632Y-98350329D01*
X103099403Y-98350556D01*
X103099405Y-98350556D01*
X103167211Y-98353220D01*
X103314098Y-98358991D01*
X103423275Y-98343161D01*
X103526738Y-98328160D01*
X103526743Y-98328159D01*
X103532452Y-98327331D01*
X103537916Y-98325476D01*
X103537921Y-98325475D01*
X103735907Y-98258268D01*
X103735912Y-98258266D01*
X103741379Y-98256410D01*
X103933884Y-98148602D01*
X103974041Y-98115204D01*
X104088577Y-98019944D01*
X104103518Y-98007518D01*
X104184552Y-97910086D01*
X104240908Y-97842326D01*
X104240910Y-97842323D01*
X104244602Y-97837884D01*
X104309606Y-97721812D01*
X104349586Y-97650422D01*
X104349587Y-97650420D01*
X104352410Y-97645379D01*
X104354266Y-97639912D01*
X104354268Y-97639907D01*
X104421475Y-97441921D01*
X104421476Y-97441916D01*
X104423331Y-97436452D01*
X104424159Y-97430743D01*
X104424160Y-97430738D01*
X104436528Y-97345436D01*
X106093737Y-97345436D01*
X106093868Y-97347269D01*
X106098119Y-97353884D01*
X106566910Y-97822675D01*
X106574427Y-97829096D01*
X106639117Y-97876097D01*
X106656574Y-97884992D01*
X106758213Y-97918017D01*
X106777565Y-97921082D01*
X106884435Y-97921082D01*
X106903787Y-97918017D01*
X107005426Y-97884992D01*
X107022884Y-97876097D01*
X107087574Y-97829097D01*
X107095087Y-97822680D01*
X107560650Y-97357117D01*
X107568264Y-97343173D01*
X107568133Y-97341340D01*
X107563882Y-97334725D01*
X106843812Y-96614655D01*
X106829868Y-96607041D01*
X106828035Y-96607172D01*
X106821420Y-96611423D01*
X106101351Y-97331492D01*
X106093737Y-97345436D01*
X104436528Y-97345436D01*
X104454458Y-97221772D01*
X104454991Y-97218098D01*
X104456643Y-97155000D01*
X104436454Y-96935289D01*
X104376565Y-96722936D01*
X104278980Y-96525053D01*
X104268400Y-96510884D01*
X104150420Y-96352891D01*
X104150420Y-96352890D01*
X104146967Y-96348267D01*
X104049586Y-96258249D01*
X103989189Y-96202418D01*
X103989186Y-96202416D01*
X103984949Y-96198499D01*
X103798350Y-96080764D01*
X103593421Y-95999006D01*
X103587761Y-95997880D01*
X103587757Y-95997879D01*
X103382691Y-95957089D01*
X103382688Y-95957089D01*
X103377024Y-95955962D01*
X103371249Y-95955886D01*
X103371245Y-95955886D01*
X103260504Y-95954437D01*
X103156406Y-95953074D01*
X103150709Y-95954053D01*
X103150708Y-95954053D01*
X102944654Y-95989459D01*
X102944653Y-95989459D01*
X102938957Y-95990438D01*
X102731957Y-96066804D01*
X102726996Y-96069756D01*
X102726995Y-96069756D01*
X102551808Y-96173982D01*
X102542341Y-96179614D01*
X102376457Y-96325090D01*
X102372878Y-96329630D01*
X102372877Y-96329631D01*
X102289414Y-96435505D01*
X102231534Y-96476619D01*
X102190464Y-96483500D01*
X94076344Y-96483500D01*
X94008223Y-96463498D01*
X93987249Y-96446595D01*
X91540595Y-93999941D01*
X91506569Y-93937629D01*
X91511634Y-93866814D01*
X91554181Y-93809978D01*
X91568110Y-93800920D01*
X91741884Y-93703602D01*
X91911518Y-93562518D01*
X92052602Y-93392884D01*
X92160410Y-93200379D01*
X92162266Y-93194912D01*
X92162268Y-93194907D01*
X92229475Y-92996921D01*
X92229476Y-92996916D01*
X92231331Y-92991452D01*
X92232159Y-92985743D01*
X92232160Y-92985738D01*
X92258607Y-92803332D01*
X92262991Y-92773098D01*
X92264643Y-92710000D01*
X92244454Y-92490289D01*
X92184565Y-92277936D01*
X92097574Y-92101535D01*
X92089535Y-92085234D01*
X92086980Y-92080053D01*
X91972212Y-91926360D01*
X91958420Y-91907891D01*
X91958420Y-91907890D01*
X91954967Y-91903267D01*
X91820975Y-91779406D01*
X91797189Y-91757418D01*
X91797186Y-91757416D01*
X91792949Y-91753499D01*
X91606350Y-91635764D01*
X91401421Y-91554006D01*
X91395761Y-91552880D01*
X91395757Y-91552879D01*
X91190691Y-91512089D01*
X91190688Y-91512089D01*
X91185024Y-91510962D01*
X91179249Y-91510886D01*
X91179245Y-91510886D01*
X91068504Y-91509437D01*
X90964406Y-91508074D01*
X90958709Y-91509053D01*
X90958708Y-91509053D01*
X90752654Y-91544459D01*
X90752653Y-91544459D01*
X90746957Y-91545438D01*
X90539957Y-91621804D01*
X90534996Y-91624756D01*
X90534995Y-91624756D01*
X90403404Y-91703045D01*
X90350341Y-91734614D01*
X90184457Y-91880090D01*
X90047863Y-92053360D01*
X90045174Y-92058471D01*
X90045172Y-92058474D01*
X89971047Y-92199362D01*
X89921628Y-92250335D01*
X89852495Y-92266498D01*
X89785599Y-92242719D01*
X89770444Y-92229790D01*
X89275907Y-91735253D01*
X89241881Y-91672941D01*
X89239531Y-91657687D01*
X89234483Y-91602746D01*
X89234483Y-91602745D01*
X89233954Y-91596990D01*
X89221832Y-91554006D01*
X89175634Y-91390201D01*
X89174065Y-91384637D01*
X89076480Y-91186754D01*
X89051833Y-91153747D01*
X88947920Y-91014592D01*
X88947920Y-91014591D01*
X88944467Y-91009968D01*
X88841146Y-90914459D01*
X88786689Y-90864119D01*
X88786686Y-90864117D01*
X88782449Y-90860200D01*
X88595850Y-90742465D01*
X88390921Y-90660707D01*
X88385261Y-90659581D01*
X88385257Y-90659580D01*
X88180191Y-90618790D01*
X88180188Y-90618790D01*
X88174524Y-90617663D01*
X88168749Y-90617587D01*
X88168745Y-90617587D01*
X88058004Y-90616138D01*
X87953906Y-90614775D01*
X87948209Y-90615754D01*
X87948208Y-90615754D01*
X87742154Y-90651160D01*
X87742153Y-90651160D01*
X87736457Y-90652139D01*
X87529457Y-90728505D01*
X87524496Y-90731457D01*
X87524495Y-90731457D01*
X87444489Y-90779056D01*
X87339841Y-90841315D01*
X87173957Y-90986791D01*
X87037363Y-91160061D01*
X86934631Y-91355321D01*
X86869203Y-91566034D01*
X86843270Y-91785141D01*
X79792500Y-91785141D01*
X79792500Y-91234317D01*
X79812502Y-91166196D01*
X79821626Y-91153747D01*
X79856908Y-91111326D01*
X79856910Y-91111323D01*
X79860602Y-91106884D01*
X79968410Y-90914379D01*
X79970266Y-90908912D01*
X79970268Y-90908907D01*
X80037475Y-90710921D01*
X80037476Y-90710916D01*
X80039331Y-90705452D01*
X80040159Y-90699743D01*
X80040160Y-90699738D01*
X80070458Y-90490772D01*
X80070991Y-90487098D01*
X80072643Y-90424000D01*
X80052454Y-90204289D01*
X79992565Y-89991936D01*
X79894980Y-89794053D01*
X79762967Y-89617267D01*
X79658695Y-89520879D01*
X79605189Y-89471418D01*
X79605186Y-89471416D01*
X79600949Y-89467499D01*
X79414350Y-89349764D01*
X79209421Y-89268006D01*
X79203761Y-89266880D01*
X79203757Y-89266879D01*
X78998691Y-89226089D01*
X78998688Y-89226089D01*
X78993024Y-89224962D01*
X78987249Y-89224886D01*
X78987245Y-89224886D01*
X78876504Y-89223437D01*
X78772406Y-89222074D01*
X78766709Y-89223053D01*
X78766708Y-89223053D01*
X78560654Y-89258459D01*
X78560653Y-89258459D01*
X78554957Y-89259438D01*
X78347957Y-89335804D01*
X78158341Y-89448614D01*
X78107320Y-89493358D01*
X78090420Y-89508179D01*
X78026016Y-89538056D01*
X77960652Y-89530476D01*
X77955248Y-89528320D01*
X77944786Y-89524146D01*
X77944782Y-89524145D01*
X77939421Y-89522006D01*
X77933761Y-89520880D01*
X77933757Y-89520879D01*
X77728691Y-89480089D01*
X77728688Y-89480089D01*
X77723024Y-89478962D01*
X77717249Y-89478886D01*
X77717245Y-89478886D01*
X77606504Y-89477437D01*
X77502406Y-89476074D01*
X77496709Y-89477053D01*
X77496708Y-89477053D01*
X77354229Y-89501535D01*
X77283705Y-89493358D01*
X77228797Y-89448351D01*
X77206938Y-89380803D01*
X77225069Y-89312160D01*
X77263576Y-89272134D01*
X77269843Y-89268006D01*
X77730246Y-88964710D01*
X77734795Y-88961851D01*
X78269894Y-88641199D01*
X78524021Y-88488916D01*
X78528658Y-88486269D01*
X79147830Y-88150256D01*
X79207929Y-88135000D01*
X99354071Y-88135000D01*
X99414170Y-88150256D01*
G37*
%TD.AperFunction*%
%TD*%
M02*
