%TF.GenerationSoftware,KiCad,Pcbnew,7.0.1*%
%TF.CreationDate,2023-11-27T02:11:57-06:00*%
%TF.ProjectId,RoundScanner,526f756e-6453-4636-916e-6e65722e6b69,1.0*%
%TF.SameCoordinates,Original*%
%TF.FileFunction,Legend,Bot*%
%TF.FilePolarity,Positive*%
%FSLAX46Y46*%
G04 Gerber Fmt 4.6, Leading zero omitted, Abs format (unit mm)*
G04 Created by KiCad (PCBNEW 7.0.1) date 2023-11-27 02:11:57*
%MOMM*%
%LPD*%
G01*
G04 APERTURE LIST*
%ADD10C,0.150000*%
%ADD11C,0.100000*%
%ADD12C,0.200000*%
%ADD13C,0.125000*%
%ADD14C,0.120000*%
%ADD15C,0.010000*%
G04 APERTURE END LIST*
D10*
X96837500Y-115570000D02*
X81724500Y-115570000D01*
X97471476Y-117127619D02*
X97471476Y-116127619D01*
X97471476Y-116603809D02*
X96900048Y-116603809D01*
X96900048Y-117127619D02*
X96900048Y-116127619D01*
X95995286Y-117127619D02*
X95995286Y-116603809D01*
X95995286Y-116603809D02*
X96042905Y-116508571D01*
X96042905Y-116508571D02*
X96138143Y-116460952D01*
X96138143Y-116460952D02*
X96328619Y-116460952D01*
X96328619Y-116460952D02*
X96423857Y-116508571D01*
X95995286Y-117080000D02*
X96090524Y-117127619D01*
X96090524Y-117127619D02*
X96328619Y-117127619D01*
X96328619Y-117127619D02*
X96423857Y-117080000D01*
X96423857Y-117080000D02*
X96471476Y-116984761D01*
X96471476Y-116984761D02*
X96471476Y-116889523D01*
X96471476Y-116889523D02*
X96423857Y-116794285D01*
X96423857Y-116794285D02*
X96328619Y-116746666D01*
X96328619Y-116746666D02*
X96090524Y-116746666D01*
X96090524Y-116746666D02*
X95995286Y-116699047D01*
X95519095Y-116460952D02*
X95519095Y-117127619D01*
X95519095Y-116556190D02*
X95471476Y-116508571D01*
X95471476Y-116508571D02*
X95376238Y-116460952D01*
X95376238Y-116460952D02*
X95233381Y-116460952D01*
X95233381Y-116460952D02*
X95138143Y-116508571D01*
X95138143Y-116508571D02*
X95090524Y-116603809D01*
X95090524Y-116603809D02*
X95090524Y-117127619D01*
X94185762Y-117127619D02*
X94185762Y-116127619D01*
X94185762Y-117080000D02*
X94281000Y-117127619D01*
X94281000Y-117127619D02*
X94471476Y-117127619D01*
X94471476Y-117127619D02*
X94566714Y-117080000D01*
X94566714Y-117080000D02*
X94614333Y-117032380D01*
X94614333Y-117032380D02*
X94661952Y-116937142D01*
X94661952Y-116937142D02*
X94661952Y-116651428D01*
X94661952Y-116651428D02*
X94614333Y-116556190D01*
X94614333Y-116556190D02*
X94566714Y-116508571D01*
X94566714Y-116508571D02*
X94471476Y-116460952D01*
X94471476Y-116460952D02*
X94281000Y-116460952D01*
X94281000Y-116460952D02*
X94185762Y-116508571D01*
X93709571Y-117127619D02*
X93709571Y-116127619D01*
X93281000Y-117127619D02*
X93281000Y-116603809D01*
X93281000Y-116603809D02*
X93328619Y-116508571D01*
X93328619Y-116508571D02*
X93423857Y-116460952D01*
X93423857Y-116460952D02*
X93566714Y-116460952D01*
X93566714Y-116460952D02*
X93661952Y-116508571D01*
X93661952Y-116508571D02*
X93709571Y-116556190D01*
X92423857Y-117080000D02*
X92519095Y-117127619D01*
X92519095Y-117127619D02*
X92709571Y-117127619D01*
X92709571Y-117127619D02*
X92804809Y-117080000D01*
X92804809Y-117080000D02*
X92852428Y-116984761D01*
X92852428Y-116984761D02*
X92852428Y-116603809D01*
X92852428Y-116603809D02*
X92804809Y-116508571D01*
X92804809Y-116508571D02*
X92709571Y-116460952D01*
X92709571Y-116460952D02*
X92519095Y-116460952D01*
X92519095Y-116460952D02*
X92423857Y-116508571D01*
X92423857Y-116508571D02*
X92376238Y-116603809D01*
X92376238Y-116603809D02*
X92376238Y-116699047D01*
X92376238Y-116699047D02*
X92852428Y-116794285D01*
X91804809Y-117127619D02*
X91900047Y-117080000D01*
X91900047Y-117080000D02*
X91947666Y-116984761D01*
X91947666Y-116984761D02*
X91947666Y-116127619D01*
X90995285Y-117127619D02*
X90995285Y-116127619D01*
X90995285Y-117080000D02*
X91090523Y-117127619D01*
X91090523Y-117127619D02*
X91280999Y-117127619D01*
X91280999Y-117127619D02*
X91376237Y-117080000D01*
X91376237Y-117080000D02*
X91423856Y-117032380D01*
X91423856Y-117032380D02*
X91471475Y-116937142D01*
X91471475Y-116937142D02*
X91471475Y-116651428D01*
X91471475Y-116651428D02*
X91423856Y-116556190D01*
X91423856Y-116556190D02*
X91376237Y-116508571D01*
X91376237Y-116508571D02*
X91280999Y-116460952D01*
X91280999Y-116460952D02*
X91090523Y-116460952D01*
X91090523Y-116460952D02*
X90995285Y-116508571D01*
X90566713Y-117080000D02*
X90423856Y-117127619D01*
X90423856Y-117127619D02*
X90185761Y-117127619D01*
X90185761Y-117127619D02*
X90090523Y-117080000D01*
X90090523Y-117080000D02*
X90042904Y-117032380D01*
X90042904Y-117032380D02*
X89995285Y-116937142D01*
X89995285Y-116937142D02*
X89995285Y-116841904D01*
X89995285Y-116841904D02*
X90042904Y-116746666D01*
X90042904Y-116746666D02*
X90090523Y-116699047D01*
X90090523Y-116699047D02*
X90185761Y-116651428D01*
X90185761Y-116651428D02*
X90376237Y-116603809D01*
X90376237Y-116603809D02*
X90471475Y-116556190D01*
X90471475Y-116556190D02*
X90519094Y-116508571D01*
X90519094Y-116508571D02*
X90566713Y-116413333D01*
X90566713Y-116413333D02*
X90566713Y-116318095D01*
X90566713Y-116318095D02*
X90519094Y-116222857D01*
X90519094Y-116222857D02*
X90471475Y-116175238D01*
X90471475Y-116175238D02*
X90376237Y-116127619D01*
X90376237Y-116127619D02*
X90138142Y-116127619D01*
X90138142Y-116127619D02*
X89995285Y-116175238D01*
X89138142Y-117080000D02*
X89233380Y-117127619D01*
X89233380Y-117127619D02*
X89423856Y-117127619D01*
X89423856Y-117127619D02*
X89519094Y-117080000D01*
X89519094Y-117080000D02*
X89566713Y-117032380D01*
X89566713Y-117032380D02*
X89614332Y-116937142D01*
X89614332Y-116937142D02*
X89614332Y-116651428D01*
X89614332Y-116651428D02*
X89566713Y-116556190D01*
X89566713Y-116556190D02*
X89519094Y-116508571D01*
X89519094Y-116508571D02*
X89423856Y-116460952D01*
X89423856Y-116460952D02*
X89233380Y-116460952D01*
X89233380Y-116460952D02*
X89138142Y-116508571D01*
X88280999Y-117127619D02*
X88280999Y-116603809D01*
X88280999Y-116603809D02*
X88328618Y-116508571D01*
X88328618Y-116508571D02*
X88423856Y-116460952D01*
X88423856Y-116460952D02*
X88614332Y-116460952D01*
X88614332Y-116460952D02*
X88709570Y-116508571D01*
X88280999Y-117080000D02*
X88376237Y-117127619D01*
X88376237Y-117127619D02*
X88614332Y-117127619D01*
X88614332Y-117127619D02*
X88709570Y-117080000D01*
X88709570Y-117080000D02*
X88757189Y-116984761D01*
X88757189Y-116984761D02*
X88757189Y-116889523D01*
X88757189Y-116889523D02*
X88709570Y-116794285D01*
X88709570Y-116794285D02*
X88614332Y-116746666D01*
X88614332Y-116746666D02*
X88376237Y-116746666D01*
X88376237Y-116746666D02*
X88280999Y-116699047D01*
X87804808Y-116460952D02*
X87804808Y-117127619D01*
X87804808Y-116556190D02*
X87757189Y-116508571D01*
X87757189Y-116508571D02*
X87661951Y-116460952D01*
X87661951Y-116460952D02*
X87519094Y-116460952D01*
X87519094Y-116460952D02*
X87423856Y-116508571D01*
X87423856Y-116508571D02*
X87376237Y-116603809D01*
X87376237Y-116603809D02*
X87376237Y-117127619D01*
X86900046Y-116460952D02*
X86900046Y-117127619D01*
X86900046Y-116556190D02*
X86852427Y-116508571D01*
X86852427Y-116508571D02*
X86757189Y-116460952D01*
X86757189Y-116460952D02*
X86614332Y-116460952D01*
X86614332Y-116460952D02*
X86519094Y-116508571D01*
X86519094Y-116508571D02*
X86471475Y-116603809D01*
X86471475Y-116603809D02*
X86471475Y-117127619D01*
X85614332Y-117080000D02*
X85709570Y-117127619D01*
X85709570Y-117127619D02*
X85900046Y-117127619D01*
X85900046Y-117127619D02*
X85995284Y-117080000D01*
X85995284Y-117080000D02*
X86042903Y-116984761D01*
X86042903Y-116984761D02*
X86042903Y-116603809D01*
X86042903Y-116603809D02*
X85995284Y-116508571D01*
X85995284Y-116508571D02*
X85900046Y-116460952D01*
X85900046Y-116460952D02*
X85709570Y-116460952D01*
X85709570Y-116460952D02*
X85614332Y-116508571D01*
X85614332Y-116508571D02*
X85566713Y-116603809D01*
X85566713Y-116603809D02*
X85566713Y-116699047D01*
X85566713Y-116699047D02*
X86042903Y-116794285D01*
X85138141Y-117127619D02*
X85138141Y-116460952D01*
X85138141Y-116651428D02*
X85090522Y-116556190D01*
X85090522Y-116556190D02*
X85042903Y-116508571D01*
X85042903Y-116508571D02*
X84947665Y-116460952D01*
X84947665Y-116460952D02*
X84852427Y-116460952D01*
X83852426Y-116460952D02*
X83614331Y-117127619D01*
X83614331Y-117127619D02*
X83376236Y-116460952D01*
X82471474Y-117127619D02*
X83042902Y-117127619D01*
X82757188Y-117127619D02*
X82757188Y-116127619D01*
X82757188Y-116127619D02*
X82852426Y-116270476D01*
X82852426Y-116270476D02*
X82947664Y-116365714D01*
X82947664Y-116365714D02*
X83042902Y-116413333D01*
X82042902Y-117032380D02*
X81995283Y-117080000D01*
X81995283Y-117080000D02*
X82042902Y-117127619D01*
X82042902Y-117127619D02*
X82090521Y-117080000D01*
X82090521Y-117080000D02*
X82042902Y-117032380D01*
X82042902Y-117032380D02*
X82042902Y-117127619D01*
X81042903Y-117127619D02*
X81614331Y-117127619D01*
X81328617Y-117127619D02*
X81328617Y-116127619D01*
X81328617Y-116127619D02*
X81423855Y-116270476D01*
X81423855Y-116270476D02*
X81519093Y-116365714D01*
X81519093Y-116365714D02*
X81614331Y-116413333D01*
X94138142Y-117842857D02*
X94090523Y-117795238D01*
X94090523Y-117795238D02*
X93995285Y-117747619D01*
X93995285Y-117747619D02*
X93757190Y-117747619D01*
X93757190Y-117747619D02*
X93661952Y-117795238D01*
X93661952Y-117795238D02*
X93614333Y-117842857D01*
X93614333Y-117842857D02*
X93566714Y-117938095D01*
X93566714Y-117938095D02*
X93566714Y-118033333D01*
X93566714Y-118033333D02*
X93614333Y-118176190D01*
X93614333Y-118176190D02*
X94185761Y-118747619D01*
X94185761Y-118747619D02*
X93566714Y-118747619D01*
X92947666Y-117747619D02*
X92852428Y-117747619D01*
X92852428Y-117747619D02*
X92757190Y-117795238D01*
X92757190Y-117795238D02*
X92709571Y-117842857D01*
X92709571Y-117842857D02*
X92661952Y-117938095D01*
X92661952Y-117938095D02*
X92614333Y-118128571D01*
X92614333Y-118128571D02*
X92614333Y-118366666D01*
X92614333Y-118366666D02*
X92661952Y-118557142D01*
X92661952Y-118557142D02*
X92709571Y-118652380D01*
X92709571Y-118652380D02*
X92757190Y-118700000D01*
X92757190Y-118700000D02*
X92852428Y-118747619D01*
X92852428Y-118747619D02*
X92947666Y-118747619D01*
X92947666Y-118747619D02*
X93042904Y-118700000D01*
X93042904Y-118700000D02*
X93090523Y-118652380D01*
X93090523Y-118652380D02*
X93138142Y-118557142D01*
X93138142Y-118557142D02*
X93185761Y-118366666D01*
X93185761Y-118366666D02*
X93185761Y-118128571D01*
X93185761Y-118128571D02*
X93138142Y-117938095D01*
X93138142Y-117938095D02*
X93090523Y-117842857D01*
X93090523Y-117842857D02*
X93042904Y-117795238D01*
X93042904Y-117795238D02*
X92947666Y-117747619D01*
X92233380Y-117842857D02*
X92185761Y-117795238D01*
X92185761Y-117795238D02*
X92090523Y-117747619D01*
X92090523Y-117747619D02*
X91852428Y-117747619D01*
X91852428Y-117747619D02*
X91757190Y-117795238D01*
X91757190Y-117795238D02*
X91709571Y-117842857D01*
X91709571Y-117842857D02*
X91661952Y-117938095D01*
X91661952Y-117938095D02*
X91661952Y-118033333D01*
X91661952Y-118033333D02*
X91709571Y-118176190D01*
X91709571Y-118176190D02*
X92280999Y-118747619D01*
X92280999Y-118747619D02*
X91661952Y-118747619D01*
X91328618Y-117747619D02*
X90709571Y-117747619D01*
X90709571Y-117747619D02*
X91042904Y-118128571D01*
X91042904Y-118128571D02*
X90900047Y-118128571D01*
X90900047Y-118128571D02*
X90804809Y-118176190D01*
X90804809Y-118176190D02*
X90757190Y-118223809D01*
X90757190Y-118223809D02*
X90709571Y-118319047D01*
X90709571Y-118319047D02*
X90709571Y-118557142D01*
X90709571Y-118557142D02*
X90757190Y-118652380D01*
X90757190Y-118652380D02*
X90804809Y-118700000D01*
X90804809Y-118700000D02*
X90900047Y-118747619D01*
X90900047Y-118747619D02*
X91185761Y-118747619D01*
X91185761Y-118747619D02*
X91280999Y-118700000D01*
X91280999Y-118700000D02*
X91328618Y-118652380D01*
X90280999Y-118366666D02*
X89519095Y-118366666D01*
X88519095Y-118747619D02*
X89090523Y-118747619D01*
X88804809Y-118747619D02*
X88804809Y-117747619D01*
X88804809Y-117747619D02*
X88900047Y-117890476D01*
X88900047Y-117890476D02*
X88995285Y-117985714D01*
X88995285Y-117985714D02*
X89090523Y-118033333D01*
X87566714Y-118747619D02*
X88138142Y-118747619D01*
X87852428Y-118747619D02*
X87852428Y-117747619D01*
X87852428Y-117747619D02*
X87947666Y-117890476D01*
X87947666Y-117890476D02*
X88042904Y-117985714D01*
X88042904Y-117985714D02*
X88138142Y-118033333D01*
X87138142Y-118366666D02*
X86376238Y-118366666D01*
X85376238Y-118747619D02*
X85947666Y-118747619D01*
X85661952Y-118747619D02*
X85661952Y-117747619D01*
X85661952Y-117747619D02*
X85757190Y-117890476D01*
X85757190Y-117890476D02*
X85852428Y-117985714D01*
X85852428Y-117985714D02*
X85947666Y-118033333D01*
X84757190Y-117747619D02*
X84661952Y-117747619D01*
X84661952Y-117747619D02*
X84566714Y-117795238D01*
X84566714Y-117795238D02*
X84519095Y-117842857D01*
X84519095Y-117842857D02*
X84471476Y-117938095D01*
X84471476Y-117938095D02*
X84423857Y-118128571D01*
X84423857Y-118128571D02*
X84423857Y-118366666D01*
X84423857Y-118366666D02*
X84471476Y-118557142D01*
X84471476Y-118557142D02*
X84519095Y-118652380D01*
X84519095Y-118652380D02*
X84566714Y-118700000D01*
X84566714Y-118700000D02*
X84661952Y-118747619D01*
X84661952Y-118747619D02*
X84757190Y-118747619D01*
X84757190Y-118747619D02*
X84852428Y-118700000D01*
X84852428Y-118700000D02*
X84900047Y-118652380D01*
X84900047Y-118652380D02*
X84947666Y-118557142D01*
X84947666Y-118557142D02*
X84995285Y-118366666D01*
X84995285Y-118366666D02*
X84995285Y-118128571D01*
X84995285Y-118128571D02*
X84947666Y-117938095D01*
X84947666Y-117938095D02*
X84900047Y-117842857D01*
X84900047Y-117842857D02*
X84852428Y-117795238D01*
X84852428Y-117795238D02*
X84757190Y-117747619D01*
D11*
X105180865Y-98346255D02*
X105349223Y-98177897D01*
X105349223Y-98177897D02*
X104995670Y-97824343D01*
X104877819Y-98278912D02*
X104759968Y-98396763D01*
X104894655Y-98632465D02*
X105063013Y-98464107D01*
X105063013Y-98464107D02*
X104709460Y-98110553D01*
X104709460Y-98110553D02*
X104541101Y-98278912D01*
X104743132Y-98783988D02*
X104389578Y-98430435D01*
X104389578Y-98430435D02*
X104305399Y-98514614D01*
X104305399Y-98514614D02*
X104271727Y-98581958D01*
X104271727Y-98581958D02*
X104271727Y-98649301D01*
X104271727Y-98649301D02*
X104288563Y-98699809D01*
X104288563Y-98699809D02*
X104339071Y-98783988D01*
X104339071Y-98783988D02*
X104389578Y-98834496D01*
X104389578Y-98834496D02*
X104473758Y-98885004D01*
X104473758Y-98885004D02*
X104524265Y-98901839D01*
X104524265Y-98901839D02*
X104591609Y-98901839D01*
X104591609Y-98901839D02*
X104658952Y-98868168D01*
X104658952Y-98868168D02*
X104743132Y-98783988D01*
X104389578Y-99137542D02*
X104153876Y-98901839D01*
X104221220Y-98969183D02*
X104170712Y-98952347D01*
X104170712Y-98952347D02*
X104137040Y-98952347D01*
X104137040Y-98952347D02*
X104086533Y-98969183D01*
X104086533Y-98969183D02*
X104052861Y-99002855D01*
X104019189Y-99474259D02*
X104069697Y-99457423D01*
X104069697Y-99457423D02*
X104137040Y-99390080D01*
X104137040Y-99390080D02*
X104153876Y-99339572D01*
X104153876Y-99339572D02*
X104137040Y-99289065D01*
X104137040Y-99289065D02*
X104002353Y-99154378D01*
X104002353Y-99154378D02*
X103951845Y-99137542D01*
X103951845Y-99137542D02*
X103901338Y-99154378D01*
X103901338Y-99154378D02*
X103833994Y-99221721D01*
X103833994Y-99221721D02*
X103817158Y-99272229D01*
X103817158Y-99272229D02*
X103833994Y-99322736D01*
X103833994Y-99322736D02*
X103867666Y-99356408D01*
X103867666Y-99356408D02*
X104069697Y-99221721D01*
X103867666Y-99625782D02*
X103850831Y-99676290D01*
X103850831Y-99676290D02*
X103783487Y-99743633D01*
X103783487Y-99743633D02*
X103732979Y-99760469D01*
X103732979Y-99760469D02*
X103682472Y-99743633D01*
X103682472Y-99743633D02*
X103665636Y-99726797D01*
X103665636Y-99726797D02*
X103648800Y-99676290D01*
X103648800Y-99676290D02*
X103665636Y-99625782D01*
X103665636Y-99625782D02*
X103716143Y-99575274D01*
X103716143Y-99575274D02*
X103732979Y-99524767D01*
X103732979Y-99524767D02*
X103716143Y-99474259D01*
X103716143Y-99474259D02*
X103699308Y-99457423D01*
X103699308Y-99457423D02*
X103648800Y-99440587D01*
X103648800Y-99440587D02*
X103598292Y-99457423D01*
X103598292Y-99457423D02*
X103547785Y-99507931D01*
X103547785Y-99507931D02*
X103530949Y-99558438D01*
X103429934Y-100063515D02*
X103480441Y-100046679D01*
X103480441Y-100046679D02*
X103547785Y-99979335D01*
X103547785Y-99979335D02*
X103564621Y-99928828D01*
X103564621Y-99928828D02*
X103547785Y-99878320D01*
X103547785Y-99878320D02*
X103413098Y-99743633D01*
X103413098Y-99743633D02*
X103362590Y-99726797D01*
X103362590Y-99726797D02*
X103312082Y-99743633D01*
X103312082Y-99743633D02*
X103244739Y-99810977D01*
X103244739Y-99810977D02*
X103227903Y-99861484D01*
X103227903Y-99861484D02*
X103244739Y-99911992D01*
X103244739Y-99911992D02*
X103278411Y-99945664D01*
X103278411Y-99945664D02*
X103480441Y-99810977D01*
X103093216Y-99962499D02*
X102958529Y-100097186D01*
X102924858Y-99895156D02*
X103227903Y-100198201D01*
X103227903Y-100198201D02*
X103244739Y-100248709D01*
X103244739Y-100248709D02*
X103227903Y-100299217D01*
X103227903Y-100299217D02*
X103194232Y-100332888D01*
D10*
X79658395Y-119515502D02*
X79591052Y-119650189D01*
X79591052Y-119650189D02*
X79422693Y-119818548D01*
X79422693Y-119818548D02*
X79321678Y-119852220D01*
X79321678Y-119852220D02*
X79254334Y-119852220D01*
X79254334Y-119852220D02*
X79153319Y-119818548D01*
X79153319Y-119818548D02*
X79085976Y-119751205D01*
X79085976Y-119751205D02*
X79052304Y-119650189D01*
X79052304Y-119650189D02*
X79052304Y-119582846D01*
X79052304Y-119582846D02*
X79085976Y-119481831D01*
X79085976Y-119481831D02*
X79186991Y-119313472D01*
X79186991Y-119313472D02*
X79220663Y-119212457D01*
X79220663Y-119212457D02*
X79220663Y-119145113D01*
X79220663Y-119145113D02*
X79186991Y-119044098D01*
X79186991Y-119044098D02*
X79119647Y-118976754D01*
X79119647Y-118976754D02*
X79018632Y-118943083D01*
X79018632Y-118943083D02*
X78951288Y-118943083D01*
X78951288Y-118943083D02*
X78850273Y-118976754D01*
X78850273Y-118976754D02*
X78681914Y-119145113D01*
X78681914Y-119145113D02*
X78614571Y-119279800D01*
X78984960Y-120256281D02*
X78277853Y-119549174D01*
X78277853Y-119549174D02*
X78109495Y-119717533D01*
X78109495Y-119717533D02*
X78042151Y-119852220D01*
X78042151Y-119852220D02*
X78042151Y-119986907D01*
X78042151Y-119986907D02*
X78075823Y-120087922D01*
X78075823Y-120087922D02*
X78176838Y-120256281D01*
X78176838Y-120256281D02*
X78277853Y-120357296D01*
X78277853Y-120357296D02*
X78446212Y-120458311D01*
X78446212Y-120458311D02*
X78547227Y-120491983D01*
X78547227Y-120491983D02*
X78681914Y-120491983D01*
X78681914Y-120491983D02*
X78816601Y-120424640D01*
X78816601Y-120424640D02*
X78984960Y-120256281D01*
X78109495Y-120727685D02*
X77772777Y-121064403D01*
X78378869Y-120862372D02*
X77436060Y-120390968D01*
X77436060Y-120390968D02*
X77907464Y-121333777D01*
D11*
X106087785Y-100067900D02*
X106104621Y-100017392D01*
X106104621Y-100017392D02*
X106155129Y-99966885D01*
X106155129Y-99966885D02*
X106222472Y-99933213D01*
X106222472Y-99933213D02*
X106289816Y-99933213D01*
X106289816Y-99933213D02*
X106340323Y-99950049D01*
X106340323Y-99950049D02*
X106424503Y-100000556D01*
X106424503Y-100000556D02*
X106475010Y-100051064D01*
X106475010Y-100051064D02*
X106525518Y-100135243D01*
X106525518Y-100135243D02*
X106542354Y-100185751D01*
X106542354Y-100185751D02*
X106542354Y-100253094D01*
X106542354Y-100253094D02*
X106508682Y-100320438D01*
X106508682Y-100320438D02*
X106475010Y-100354110D01*
X106475010Y-100354110D02*
X106407667Y-100387781D01*
X106407667Y-100387781D02*
X106373995Y-100387781D01*
X106373995Y-100387781D02*
X106256144Y-100269930D01*
X106256144Y-100269930D02*
X106323488Y-100202587D01*
X106020442Y-100337274D02*
X106256144Y-100572976D01*
X106054113Y-100370946D02*
X106020442Y-100370946D01*
X106020442Y-100370946D02*
X105969934Y-100387781D01*
X105969934Y-100387781D02*
X105919426Y-100438289D01*
X105919426Y-100438289D02*
X105902591Y-100488797D01*
X105902591Y-100488797D02*
X105919426Y-100539304D01*
X105919426Y-100539304D02*
X106104621Y-100724499D01*
X105784739Y-101044381D02*
X105431186Y-100690827D01*
X105767904Y-101027545D02*
X105818411Y-101010709D01*
X105818411Y-101010709D02*
X105885755Y-100943365D01*
X105885755Y-100943365D02*
X105902591Y-100892858D01*
X105902591Y-100892858D02*
X105902591Y-100859186D01*
X105902591Y-100859186D02*
X105885755Y-100808678D01*
X105885755Y-100808678D02*
X105784739Y-100707663D01*
X105784739Y-100707663D02*
X105734232Y-100690827D01*
X105734232Y-100690827D02*
X105700560Y-100690827D01*
X105700560Y-100690827D02*
X105650052Y-100707663D01*
X105650052Y-100707663D02*
X105582709Y-100775007D01*
X105582709Y-100775007D02*
X105565873Y-100825514D01*
D10*
X81301724Y-121312174D02*
X81234380Y-121446861D01*
X81234380Y-121446861D02*
X81066021Y-121615220D01*
X81066021Y-121615220D02*
X80965006Y-121648892D01*
X80965006Y-121648892D02*
X80897663Y-121648892D01*
X80897663Y-121648892D02*
X80796647Y-121615220D01*
X80796647Y-121615220D02*
X80729304Y-121547876D01*
X80729304Y-121547876D02*
X80695632Y-121446861D01*
X80695632Y-121446861D02*
X80695632Y-121379518D01*
X80695632Y-121379518D02*
X80729304Y-121278502D01*
X80729304Y-121278502D02*
X80830319Y-121110144D01*
X80830319Y-121110144D02*
X80863991Y-121009128D01*
X80863991Y-121009128D02*
X80863991Y-120941785D01*
X80863991Y-120941785D02*
X80830319Y-120840770D01*
X80830319Y-120840770D02*
X80762976Y-120773426D01*
X80762976Y-120773426D02*
X80661960Y-120739754D01*
X80661960Y-120739754D02*
X80594617Y-120739754D01*
X80594617Y-120739754D02*
X80493602Y-120773426D01*
X80493602Y-120773426D02*
X80325243Y-120941785D01*
X80325243Y-120941785D02*
X80257899Y-121076472D01*
X80156884Y-122389670D02*
X80224227Y-122389670D01*
X80224227Y-122389670D02*
X80358914Y-122322327D01*
X80358914Y-122322327D02*
X80426258Y-122254983D01*
X80426258Y-122254983D02*
X80493601Y-122120296D01*
X80493601Y-122120296D02*
X80493601Y-121985609D01*
X80493601Y-121985609D02*
X80459930Y-121884594D01*
X80459930Y-121884594D02*
X80358914Y-121716235D01*
X80358914Y-121716235D02*
X80257899Y-121615220D01*
X80257899Y-121615220D02*
X80089540Y-121514205D01*
X80089540Y-121514205D02*
X79988525Y-121480533D01*
X79988525Y-121480533D02*
X79853838Y-121480533D01*
X79853838Y-121480533D02*
X79719151Y-121547876D01*
X79719151Y-121547876D02*
X79651808Y-121615220D01*
X79651808Y-121615220D02*
X79584464Y-121749907D01*
X79584464Y-121749907D02*
X79584464Y-121817250D01*
X79584464Y-123096777D02*
X79921182Y-122760059D01*
X79921182Y-122760059D02*
X79214075Y-122052953D01*
D11*
X103321608Y-95939481D02*
X103153249Y-96107840D01*
X103456295Y-96006825D02*
X102984891Y-95771123D01*
X102984891Y-95771123D02*
X103220593Y-96242527D01*
X103102742Y-96326706D02*
X103069070Y-96394050D01*
X103069070Y-96394050D02*
X102984891Y-96478229D01*
X102984891Y-96478229D02*
X102934383Y-96495065D01*
X102934383Y-96495065D02*
X102900712Y-96495065D01*
X102900712Y-96495065D02*
X102850204Y-96478229D01*
X102850204Y-96478229D02*
X102816532Y-96444557D01*
X102816532Y-96444557D02*
X102799696Y-96394050D01*
X102799696Y-96394050D02*
X102799696Y-96360378D01*
X102799696Y-96360378D02*
X102816532Y-96309870D01*
X102816532Y-96309870D02*
X102867040Y-96225691D01*
X102867040Y-96225691D02*
X102883876Y-96175183D01*
X102883876Y-96175183D02*
X102883876Y-96141512D01*
X102883876Y-96141512D02*
X102867040Y-96091004D01*
X102867040Y-96091004D02*
X102833368Y-96057332D01*
X102833368Y-96057332D02*
X102782861Y-96040496D01*
X102782861Y-96040496D02*
X102749189Y-96040496D01*
X102749189Y-96040496D02*
X102698681Y-96057332D01*
X102698681Y-96057332D02*
X102614502Y-96141512D01*
X102614502Y-96141512D02*
X102580830Y-96208855D01*
X102496651Y-96966469D02*
X102143098Y-96612915D01*
X102092590Y-96899125D02*
X102328293Y-97134827D01*
X102126262Y-96932797D02*
X102092590Y-96932797D01*
X102092590Y-96932797D02*
X102042083Y-96949633D01*
X102042083Y-96949633D02*
X101991575Y-97000140D01*
X101991575Y-97000140D02*
X101974739Y-97050648D01*
X101974739Y-97050648D02*
X101991575Y-97101156D01*
X101991575Y-97101156D02*
X102176770Y-97286350D01*
X101823216Y-97168499D02*
X101688529Y-97303186D01*
X101654858Y-97101156D02*
X101957903Y-97404201D01*
X101957903Y-97404201D02*
X101974739Y-97454709D01*
X101974739Y-97454709D02*
X101957903Y-97505217D01*
X101957903Y-97505217D02*
X101924232Y-97538888D01*
D12*
X99257190Y-123031619D02*
X99257190Y-122031619D01*
X99257190Y-122031619D02*
X98876238Y-122031619D01*
X98876238Y-122031619D02*
X98781000Y-122079238D01*
X98781000Y-122079238D02*
X98733381Y-122126857D01*
X98733381Y-122126857D02*
X98685762Y-122222095D01*
X98685762Y-122222095D02*
X98685762Y-122364952D01*
X98685762Y-122364952D02*
X98733381Y-122460190D01*
X98733381Y-122460190D02*
X98781000Y-122507809D01*
X98781000Y-122507809D02*
X98876238Y-122555428D01*
X98876238Y-122555428D02*
X99257190Y-122555428D01*
X98114333Y-123031619D02*
X98209571Y-122984000D01*
X98209571Y-122984000D02*
X98257190Y-122936380D01*
X98257190Y-122936380D02*
X98304809Y-122841142D01*
X98304809Y-122841142D02*
X98304809Y-122555428D01*
X98304809Y-122555428D02*
X98257190Y-122460190D01*
X98257190Y-122460190D02*
X98209571Y-122412571D01*
X98209571Y-122412571D02*
X98114333Y-122364952D01*
X98114333Y-122364952D02*
X97971476Y-122364952D01*
X97971476Y-122364952D02*
X97876238Y-122412571D01*
X97876238Y-122412571D02*
X97828619Y-122460190D01*
X97828619Y-122460190D02*
X97781000Y-122555428D01*
X97781000Y-122555428D02*
X97781000Y-122841142D01*
X97781000Y-122841142D02*
X97828619Y-122936380D01*
X97828619Y-122936380D02*
X97876238Y-122984000D01*
X97876238Y-122984000D02*
X97971476Y-123031619D01*
X97971476Y-123031619D02*
X98114333Y-123031619D01*
X97447666Y-122364952D02*
X97257190Y-123031619D01*
X97257190Y-123031619D02*
X97066714Y-122555428D01*
X97066714Y-122555428D02*
X96876238Y-123031619D01*
X96876238Y-123031619D02*
X96685762Y-122364952D01*
X95923857Y-122984000D02*
X96019095Y-123031619D01*
X96019095Y-123031619D02*
X96209571Y-123031619D01*
X96209571Y-123031619D02*
X96304809Y-122984000D01*
X96304809Y-122984000D02*
X96352428Y-122888761D01*
X96352428Y-122888761D02*
X96352428Y-122507809D01*
X96352428Y-122507809D02*
X96304809Y-122412571D01*
X96304809Y-122412571D02*
X96209571Y-122364952D01*
X96209571Y-122364952D02*
X96019095Y-122364952D01*
X96019095Y-122364952D02*
X95923857Y-122412571D01*
X95923857Y-122412571D02*
X95876238Y-122507809D01*
X95876238Y-122507809D02*
X95876238Y-122603047D01*
X95876238Y-122603047D02*
X96352428Y-122698285D01*
X95447666Y-123031619D02*
X95447666Y-122364952D01*
X95447666Y-122555428D02*
X95400047Y-122460190D01*
X95400047Y-122460190D02*
X95352428Y-122412571D01*
X95352428Y-122412571D02*
X95257190Y-122364952D01*
X95257190Y-122364952D02*
X95161952Y-122364952D01*
D10*
X74804571Y-115723800D02*
X74838243Y-115622785D01*
X74838243Y-115622785D02*
X74939258Y-115521770D01*
X74939258Y-115521770D02*
X75073945Y-115454426D01*
X75073945Y-115454426D02*
X75208632Y-115454426D01*
X75208632Y-115454426D02*
X75309647Y-115488098D01*
X75309647Y-115488098D02*
X75478006Y-115589113D01*
X75478006Y-115589113D02*
X75579021Y-115690128D01*
X75579021Y-115690128D02*
X75680037Y-115858487D01*
X75680037Y-115858487D02*
X75713708Y-115959502D01*
X75713708Y-115959502D02*
X75713708Y-116094189D01*
X75713708Y-116094189D02*
X75646365Y-116228876D01*
X75646365Y-116228876D02*
X75579021Y-116296220D01*
X75579021Y-116296220D02*
X75444334Y-116363563D01*
X75444334Y-116363563D02*
X75376991Y-116363563D01*
X75376991Y-116363563D02*
X75141288Y-116127861D01*
X75141288Y-116127861D02*
X75275976Y-115993174D01*
X74669884Y-116262548D02*
X75141288Y-116733953D01*
X74737227Y-116329892D02*
X74669884Y-116329892D01*
X74669884Y-116329892D02*
X74568869Y-116363563D01*
X74568869Y-116363563D02*
X74467853Y-116464579D01*
X74467853Y-116464579D02*
X74434182Y-116565594D01*
X74434182Y-116565594D02*
X74467853Y-116666609D01*
X74467853Y-116666609D02*
X74838243Y-117036998D01*
X74198479Y-117676762D02*
X73491373Y-116969655D01*
X74164808Y-117643090D02*
X74265823Y-117609418D01*
X74265823Y-117609418D02*
X74400510Y-117474731D01*
X74400510Y-117474731D02*
X74434182Y-117373716D01*
X74434182Y-117373716D02*
X74434182Y-117306372D01*
X74434182Y-117306372D02*
X74400510Y-117205357D01*
X74400510Y-117205357D02*
X74198479Y-117003327D01*
X74198479Y-117003327D02*
X74097464Y-116969655D01*
X74097464Y-116969655D02*
X74030121Y-116969655D01*
X74030121Y-116969655D02*
X73929105Y-117003327D01*
X73929105Y-117003327D02*
X73794418Y-117138014D01*
X73794418Y-117138014D02*
X73760747Y-117239029D01*
D11*
X102662086Y-90451034D02*
X102308533Y-90097480D01*
X102308533Y-90097480D02*
X102224354Y-90181660D01*
X102224354Y-90181660D02*
X102190682Y-90249003D01*
X102190682Y-90249003D02*
X102190682Y-90316347D01*
X102190682Y-90316347D02*
X102207518Y-90366854D01*
X102207518Y-90366854D02*
X102258025Y-90451034D01*
X102258025Y-90451034D02*
X102308533Y-90501541D01*
X102308533Y-90501541D02*
X102392712Y-90552049D01*
X102392712Y-90552049D02*
X102443220Y-90568885D01*
X102443220Y-90568885D02*
X102510563Y-90568885D01*
X102510563Y-90568885D02*
X102577907Y-90535213D01*
X102577907Y-90535213D02*
X102662086Y-90451034D01*
X102106502Y-91006618D02*
X102055995Y-90720408D01*
X102308533Y-90804587D02*
X101954980Y-90451034D01*
X101954980Y-90451034D02*
X101820292Y-90585721D01*
X101820292Y-90585721D02*
X101803457Y-90636228D01*
X101803457Y-90636228D02*
X101803457Y-90669900D01*
X101803457Y-90669900D02*
X101820292Y-90720408D01*
X101820292Y-90720408D02*
X101870800Y-90770915D01*
X101870800Y-90770915D02*
X101921308Y-90787751D01*
X101921308Y-90787751D02*
X101954980Y-90787751D01*
X101954980Y-90787751D02*
X102005487Y-90770915D01*
X102005487Y-90770915D02*
X102140174Y-90636228D01*
X101954980Y-91158141D02*
X101601426Y-90804587D01*
X101601426Y-90804587D02*
X101517247Y-90888767D01*
X101517247Y-90888767D02*
X101483575Y-90956110D01*
X101483575Y-90956110D02*
X101483575Y-91023454D01*
X101483575Y-91023454D02*
X101500411Y-91073961D01*
X101500411Y-91073961D02*
X101550918Y-91158141D01*
X101550918Y-91158141D02*
X101601426Y-91208648D01*
X101601426Y-91208648D02*
X101685605Y-91259156D01*
X101685605Y-91259156D02*
X101736113Y-91275992D01*
X101736113Y-91275992D02*
X101803457Y-91275992D01*
X101803457Y-91275992D02*
X101870800Y-91242320D01*
X101870800Y-91242320D02*
X101954980Y-91158141D01*
X101365724Y-91410679D02*
X101534083Y-91579037D01*
X101298380Y-91107633D02*
X101365724Y-91410679D01*
X101365724Y-91410679D02*
X101062678Y-91343335D01*
D10*
X77222334Y-116667694D02*
X76784601Y-117105426D01*
X76784601Y-117105426D02*
X77289678Y-117139098D01*
X77289678Y-117139098D02*
X77188662Y-117240113D01*
X77188662Y-117240113D02*
X77154991Y-117341129D01*
X77154991Y-117341129D02*
X77154991Y-117408472D01*
X77154991Y-117408472D02*
X77188662Y-117509487D01*
X77188662Y-117509487D02*
X77357021Y-117677846D01*
X77357021Y-117677846D02*
X77458036Y-117711518D01*
X77458036Y-117711518D02*
X77525380Y-117711518D01*
X77525380Y-117711518D02*
X77626395Y-117677846D01*
X77626395Y-117677846D02*
X77828426Y-117475816D01*
X77828426Y-117475816D02*
X77862097Y-117374800D01*
X77862097Y-117374800D02*
X77862097Y-117307457D01*
X77121319Y-118048235D02*
X77121319Y-118115579D01*
X77121319Y-118115579D02*
X77188662Y-118115579D01*
X77188662Y-118115579D02*
X77188662Y-118048235D01*
X77188662Y-118048235D02*
X77121319Y-118048235D01*
X77121319Y-118048235D02*
X77188662Y-118115579D01*
X76212182Y-117677846D02*
X75774449Y-118115579D01*
X75774449Y-118115579D02*
X76279525Y-118149250D01*
X76279525Y-118149250D02*
X76178510Y-118250266D01*
X76178510Y-118250266D02*
X76144838Y-118351281D01*
X76144838Y-118351281D02*
X76144838Y-118418624D01*
X76144838Y-118418624D02*
X76178510Y-118519640D01*
X76178510Y-118519640D02*
X76346869Y-118687998D01*
X76346869Y-118687998D02*
X76447884Y-118721670D01*
X76447884Y-118721670D02*
X76515228Y-118721670D01*
X76515228Y-118721670D02*
X76616243Y-118687998D01*
X76616243Y-118687998D02*
X76818273Y-118485968D01*
X76818273Y-118485968D02*
X76851945Y-118384953D01*
X76851945Y-118384953D02*
X76851945Y-118317609D01*
X75774449Y-118586983D02*
X76077495Y-119226746D01*
X76077495Y-119226746D02*
X75437731Y-118923701D01*
D13*
%TO.C,D2*%
X100450047Y-124600309D02*
X100450047Y-124100309D01*
X100450047Y-124100309D02*
X100330999Y-124100309D01*
X100330999Y-124100309D02*
X100259571Y-124124119D01*
X100259571Y-124124119D02*
X100211952Y-124171738D01*
X100211952Y-124171738D02*
X100188142Y-124219357D01*
X100188142Y-124219357D02*
X100164333Y-124314595D01*
X100164333Y-124314595D02*
X100164333Y-124386023D01*
X100164333Y-124386023D02*
X100188142Y-124481261D01*
X100188142Y-124481261D02*
X100211952Y-124528880D01*
X100211952Y-124528880D02*
X100259571Y-124576500D01*
X100259571Y-124576500D02*
X100330999Y-124600309D01*
X100330999Y-124600309D02*
X100450047Y-124600309D01*
X99973856Y-124147928D02*
X99950047Y-124124119D01*
X99950047Y-124124119D02*
X99902428Y-124100309D01*
X99902428Y-124100309D02*
X99783380Y-124100309D01*
X99783380Y-124100309D02*
X99735761Y-124124119D01*
X99735761Y-124124119D02*
X99711952Y-124147928D01*
X99711952Y-124147928D02*
X99688142Y-124195547D01*
X99688142Y-124195547D02*
X99688142Y-124243166D01*
X99688142Y-124243166D02*
X99711952Y-124314595D01*
X99711952Y-124314595D02*
X99997666Y-124600309D01*
X99997666Y-124600309D02*
X99688142Y-124600309D01*
%TO.C,J3*%
X94247666Y-124900309D02*
X94247666Y-125257452D01*
X94247666Y-125257452D02*
X94271475Y-125328880D01*
X94271475Y-125328880D02*
X94319094Y-125376500D01*
X94319094Y-125376500D02*
X94390523Y-125400309D01*
X94390523Y-125400309D02*
X94438142Y-125400309D01*
X94057190Y-124900309D02*
X93747666Y-124900309D01*
X93747666Y-124900309D02*
X93914333Y-125090785D01*
X93914333Y-125090785D02*
X93842904Y-125090785D01*
X93842904Y-125090785D02*
X93795285Y-125114595D01*
X93795285Y-125114595D02*
X93771476Y-125138404D01*
X93771476Y-125138404D02*
X93747666Y-125186023D01*
X93747666Y-125186023D02*
X93747666Y-125305071D01*
X93747666Y-125305071D02*
X93771476Y-125352690D01*
X93771476Y-125352690D02*
X93795285Y-125376500D01*
X93795285Y-125376500D02*
X93842904Y-125400309D01*
X93842904Y-125400309D02*
X93985761Y-125400309D01*
X93985761Y-125400309D02*
X94033380Y-125376500D01*
X94033380Y-125376500D02*
X94057190Y-125352690D01*
D14*
%TO.C,J2*%
X70700298Y-118754786D02*
X71640750Y-119695238D01*
X71640750Y-117814334D02*
X70700298Y-118754786D01*
X72538776Y-120593264D02*
X77969356Y-126023844D01*
X74419680Y-118712360D02*
X72538776Y-120593264D01*
X74419680Y-118712360D02*
X79850260Y-124142940D01*
X79850260Y-124142940D02*
X77969356Y-126023844D01*
X101503345Y-92491415D02*
X103682289Y-90965702D01*
X105908412Y-98782502D02*
X101503345Y-92491415D01*
X105908412Y-98782502D02*
X108087356Y-97256789D01*
X108087356Y-97256789D02*
X103682289Y-90965702D01*
X108489183Y-100149442D02*
X109578655Y-99386585D01*
X109578655Y-99386585D02*
X108815799Y-98297113D01*
%TO.C,kibuzzard-6346913B*%
G36*
X99941393Y-100703063D02*
G01*
X99850906Y-100712588D01*
X99754068Y-100715763D01*
X99623893Y-100704650D01*
X99511181Y-100663375D01*
X99430218Y-100577650D01*
X99398468Y-100436363D01*
X99488956Y-100231575D01*
X99731843Y-100169663D01*
X99941393Y-100169663D01*
X99941393Y-100703063D01*
G37*
G36*
X99855668Y-99385437D02*
G01*
X99941393Y-99394962D01*
X99941393Y-99845812D01*
X99788993Y-99845812D01*
X99563568Y-99780725D01*
X99487368Y-99601337D01*
X99509593Y-99488625D01*
X99569918Y-99421950D01*
X99658818Y-99390200D01*
X99763593Y-99382262D01*
X99855668Y-99385437D01*
G37*
G36*
X96610818Y-100390325D02*
G01*
X96710831Y-100417313D01*
X96779093Y-100471288D01*
X96804493Y-100563363D01*
X96728293Y-100707825D01*
X96531443Y-100750688D01*
X96407618Y-100749100D01*
X96302843Y-100741163D01*
X96302843Y-100398263D01*
X96394918Y-100387150D01*
X96493343Y-100382388D01*
X96610818Y-100390325D01*
G37*
G36*
X93521543Y-99870419D02*
G01*
X93604093Y-99953763D01*
X93651718Y-100089494D01*
X93667593Y-100274438D01*
X93648940Y-100456206D01*
X93592981Y-100601463D01*
X93495746Y-100696713D01*
X93353268Y-100728463D01*
X93264368Y-100725288D01*
X93178643Y-100715763D01*
X93178643Y-99902962D01*
X93280243Y-99860100D01*
X93400893Y-99842637D01*
X93521543Y-99870419D01*
G37*
G36*
X98252690Y-99870022D02*
G01*
X98349131Y-99961700D01*
X98407471Y-100103384D01*
X98426918Y-100283963D01*
X98409059Y-100464938D01*
X98355481Y-100607813D01*
X98262215Y-100700681D01*
X98125293Y-100731638D01*
X97991546Y-100700681D01*
X97895106Y-100607813D01*
X97836765Y-100464938D01*
X97817318Y-100283963D01*
X97835178Y-100103384D01*
X97888756Y-99961700D01*
X97982021Y-99870022D01*
X98118943Y-99839462D01*
X98252690Y-99870022D01*
G37*
G36*
X88727690Y-99870022D02*
G01*
X88824131Y-99961700D01*
X88882471Y-100103384D01*
X88901918Y-100283963D01*
X88884059Y-100464938D01*
X88830481Y-100607813D01*
X88737215Y-100700681D01*
X88600293Y-100731638D01*
X88466546Y-100700681D01*
X88370106Y-100607813D01*
X88311765Y-100464938D01*
X88292318Y-100283963D01*
X88310178Y-100103384D01*
X88363756Y-99961700D01*
X88457021Y-99870022D01*
X88593943Y-99839462D01*
X88727690Y-99870022D01*
G37*
G36*
X100331918Y-98314007D02*
G01*
X100844548Y-98314007D01*
X101825544Y-98314007D01*
X100844548Y-101583993D01*
X100331918Y-101583993D01*
X86723868Y-101583993D01*
X77463452Y-101583993D01*
X76482456Y-101583993D01*
X76723875Y-100779263D01*
X86723868Y-100779263D01*
X86809593Y-100991988D01*
X87006443Y-101065013D01*
X87114393Y-101045963D01*
X87204881Y-100990400D01*
X87268381Y-100901500D01*
X87292193Y-100779263D01*
X87268381Y-100660200D01*
X87204881Y-100572888D01*
X87114393Y-100518913D01*
X87006443Y-100499863D01*
X86809593Y-100572888D01*
X86723868Y-100779263D01*
X76723875Y-100779263D01*
X76873418Y-100280788D01*
X87892268Y-100280788D01*
X87904968Y-100450253D01*
X87943068Y-100603050D01*
X88004187Y-100737591D01*
X88085943Y-100852288D01*
X88187146Y-100945156D01*
X88306606Y-101014213D01*
X88442734Y-101057075D01*
X88593943Y-101071363D01*
X88745153Y-101057075D01*
X88830863Y-101030088D01*
X89536918Y-101030088D01*
X89851243Y-101030088D01*
X89942789Y-100812247D01*
X90039627Y-100594760D01*
X90141756Y-100377625D01*
X90249177Y-100160490D01*
X90361889Y-99943003D01*
X90479893Y-99725162D01*
X90479893Y-101030088D01*
X90832318Y-101030088D01*
X90832318Y-100985638D01*
X92788118Y-100985638D01*
X92907974Y-101017388D01*
X93051643Y-101042788D01*
X93205631Y-101059456D01*
X93356443Y-101065013D01*
X93570403Y-101042082D01*
X93746615Y-100973290D01*
X93885081Y-100858638D01*
X93984740Y-100704121D01*
X94044536Y-100515738D01*
X94064468Y-100293488D01*
X94047711Y-100067181D01*
X93997440Y-99875093D01*
X93913656Y-99717225D01*
X93797063Y-99599926D01*
X93739671Y-99572762D01*
X94283543Y-99572762D01*
X94353393Y-99934712D01*
X94443881Y-99915662D01*
X94550243Y-99898200D01*
X94655018Y-99887087D01*
X94740743Y-99883912D01*
X94902668Y-99891850D01*
X95064593Y-99922012D01*
X95064593Y-101030088D01*
X95458293Y-101030088D01*
X95458293Y-100995163D01*
X95928193Y-100995163D01*
X96182193Y-101039613D01*
X96360787Y-101058663D01*
X96560018Y-101065013D01*
X96818781Y-101039613D01*
X97017218Y-100955475D01*
X97144218Y-100803075D01*
X97188668Y-100572888D01*
X97137868Y-100353813D01*
X97068089Y-100280788D01*
X97417268Y-100280788D01*
X97429968Y-100450253D01*
X97468068Y-100603050D01*
X97529187Y-100737591D01*
X97610943Y-100852288D01*
X97712146Y-100945156D01*
X97831606Y-101014213D01*
X97967734Y-101057075D01*
X98118943Y-101071363D01*
X98270153Y-101057075D01*
X98406281Y-101014213D01*
X98526137Y-100945156D01*
X98628531Y-100852288D01*
X98711478Y-100737591D01*
X98772993Y-100603050D01*
X98811093Y-100450253D01*
X98812134Y-100436363D01*
X99014293Y-100436363D01*
X99029374Y-100599478D01*
X99074618Y-100733225D01*
X99238131Y-100923725D01*
X99350843Y-100984844D01*
X99482606Y-101025325D01*
X99629053Y-101047947D01*
X99785818Y-101055488D01*
X99918374Y-101051916D01*
X100055693Y-101041200D01*
X100194599Y-101023341D01*
X100331918Y-100998338D01*
X100331918Y-99090162D01*
X100087443Y-99056825D01*
X99823918Y-99042537D01*
X99622306Y-99054047D01*
X99461968Y-99088575D01*
X99242893Y-99209225D01*
X99134943Y-99375912D01*
X99106368Y-99560062D01*
X99123434Y-99691825D01*
X99174631Y-99807712D01*
X99357193Y-99979163D01*
X99189315Y-100064888D01*
X99085731Y-100176013D01*
X99032153Y-100303013D01*
X99014293Y-100436363D01*
X98812134Y-100436363D01*
X98823793Y-100280788D01*
X98810696Y-100113703D01*
X98771406Y-99961700D01*
X98708699Y-99827556D01*
X98625356Y-99714050D01*
X98522565Y-99622769D01*
X98401518Y-99555300D01*
X98265787Y-99513628D01*
X98118943Y-99499737D01*
X97970115Y-99513628D01*
X97834781Y-99555300D01*
X97714924Y-99622769D01*
X97612531Y-99714050D01*
X97529584Y-99827556D01*
X97468068Y-99961700D01*
X97429968Y-100113703D01*
X97417268Y-100280788D01*
X97068089Y-100280788D01*
X97001343Y-100210938D01*
X96804493Y-100133150D01*
X96572718Y-100109338D01*
X96429049Y-100115688D01*
X96302843Y-100134738D01*
X96302843Y-100087113D01*
X96372693Y-99901375D01*
X96467943Y-99845416D01*
X96613993Y-99826762D01*
X96828306Y-99842637D01*
X96994993Y-99880737D01*
X97048968Y-99566412D01*
X96842593Y-99520375D01*
X96706862Y-99504897D01*
X96566368Y-99499737D01*
X96397696Y-99510453D01*
X96259981Y-99542600D01*
X96064718Y-99663250D01*
X95959943Y-99853750D01*
X95928193Y-100106163D01*
X95928193Y-100995163D01*
X95458293Y-100995163D01*
X95458293Y-99636262D01*
X95300734Y-99584669D01*
X95139206Y-99544187D01*
X94961803Y-99517994D01*
X94756618Y-99509262D01*
X94666131Y-99512437D01*
X94540718Y-99523550D01*
X94405781Y-99542600D01*
X94283543Y-99572762D01*
X93739671Y-99572762D01*
X93648367Y-99529547D01*
X93467568Y-99506087D01*
X93311993Y-99523550D01*
X93178643Y-99572762D01*
X93178643Y-98893312D01*
X92788118Y-98826637D01*
X92788118Y-100985638D01*
X90832318Y-100985638D01*
X90832318Y-99064762D01*
X90517993Y-99064762D01*
X90429093Y-99210416D01*
X90340193Y-99367975D01*
X90252484Y-99531091D01*
X90167156Y-99693412D01*
X90086193Y-99852956D01*
X90011581Y-100007738D01*
X89945303Y-100150613D01*
X89889343Y-100274438D01*
X89889343Y-99064762D01*
X89536918Y-99064762D01*
X89536918Y-101030088D01*
X88830863Y-101030088D01*
X88881281Y-101014213D01*
X89001137Y-100945156D01*
X89103531Y-100852288D01*
X89186478Y-100737591D01*
X89247993Y-100603050D01*
X89286093Y-100450253D01*
X89298793Y-100280788D01*
X89285696Y-100113703D01*
X89246406Y-99961700D01*
X89183699Y-99827556D01*
X89100356Y-99714050D01*
X88997565Y-99622769D01*
X88876518Y-99555300D01*
X88740787Y-99513628D01*
X88593943Y-99499737D01*
X88445115Y-99513628D01*
X88309781Y-99555300D01*
X88189924Y-99622769D01*
X88087531Y-99714050D01*
X88004584Y-99827556D01*
X87943068Y-99961700D01*
X87904968Y-100113703D01*
X87892268Y-100280788D01*
X76873418Y-100280788D01*
X77463452Y-98314007D01*
X86723868Y-98314007D01*
X100331918Y-98314007D01*
G37*
%TO.C,kibuzzard-6398DD41*%
G36*
X91385231Y-120125133D02*
G01*
X91481275Y-120191212D01*
X91531546Y-120255859D01*
X91561708Y-120332324D01*
X91571763Y-120420606D01*
X91561620Y-120508889D01*
X91531193Y-120585353D01*
X91480481Y-120650000D01*
X91383842Y-120716080D01*
X91276488Y-120738106D01*
X91169331Y-120716675D01*
X91073288Y-120652381D01*
X91023017Y-120588705D01*
X90992854Y-120511976D01*
X90982800Y-120422194D01*
X90992942Y-120332235D01*
X91023369Y-120254977D01*
X91074081Y-120190419D01*
X91170720Y-120124934D01*
X91278075Y-120103106D01*
X91385231Y-120125133D01*
G37*
G36*
X91852750Y-119260276D02*
G01*
X92365380Y-119260276D01*
X92476701Y-119265745D01*
X92586949Y-119282099D01*
X92695063Y-119309180D01*
X92800003Y-119346728D01*
X92900757Y-119394381D01*
X92996355Y-119451680D01*
X93085876Y-119518074D01*
X93168458Y-119592922D01*
X93243307Y-119675504D01*
X93309700Y-119765026D01*
X93366999Y-119860623D01*
X93414652Y-119961377D01*
X93452200Y-120066317D01*
X93479282Y-120174431D01*
X93495635Y-120284680D01*
X93501104Y-120396000D01*
X93495635Y-120507320D01*
X93479282Y-120617569D01*
X93452200Y-120725683D01*
X93414652Y-120830623D01*
X93366999Y-120931377D01*
X93309700Y-121026974D01*
X93243307Y-121116496D01*
X93168458Y-121199078D01*
X93085876Y-121273926D01*
X92996355Y-121340320D01*
X92900757Y-121397619D01*
X92800003Y-121445272D01*
X92695063Y-121482820D01*
X92586949Y-121509901D01*
X92476701Y-121526255D01*
X92365380Y-121531724D01*
X91852750Y-121531724D01*
X87725250Y-121531724D01*
X87212620Y-121531724D01*
X87101299Y-121526255D01*
X86991051Y-121509901D01*
X86882937Y-121482820D01*
X86777997Y-121445272D01*
X86677243Y-121397619D01*
X86581645Y-121340320D01*
X86492124Y-121273926D01*
X86409542Y-121199078D01*
X86334693Y-121116496D01*
X86268300Y-121026974D01*
X86211001Y-120931377D01*
X86163890Y-120831769D01*
X87725250Y-120831769D01*
X87747078Y-120890109D01*
X87812562Y-120944481D01*
X87913369Y-120992106D01*
X88034812Y-121007981D01*
X88132003Y-120996163D01*
X88226724Y-120960709D01*
X88318975Y-120901619D01*
X88358530Y-120861931D01*
X88569800Y-120861931D01*
X88572181Y-120916700D01*
X88587262Y-120958769D01*
X88628141Y-120989725D01*
X88709500Y-121000044D01*
X88790066Y-120989328D01*
X88831737Y-120957181D01*
X88845231Y-120915906D01*
X88847544Y-120861931D01*
X88974612Y-120861931D01*
X88976994Y-120916700D01*
X88992075Y-120958769D01*
X89032953Y-120989725D01*
X89114312Y-121000044D01*
X89194878Y-120989328D01*
X89236550Y-120957181D01*
X89250044Y-120915906D01*
X89252425Y-120860344D01*
X89252425Y-120303131D01*
X89251390Y-120279319D01*
X89339737Y-120279319D01*
X89365137Y-120365837D01*
X89408000Y-120469819D01*
X89582625Y-120895269D01*
X89614375Y-120954800D01*
X89662000Y-120993694D01*
X89722325Y-121004806D01*
X89792969Y-120977025D01*
X89838213Y-120920669D01*
X89850913Y-120893681D01*
X89866964Y-120852053D01*
X89898185Y-120769503D01*
X89944575Y-120646031D01*
X89964220Y-120696236D01*
X89991406Y-120770650D01*
X90031094Y-120878600D01*
X90042206Y-120907175D01*
X90055700Y-120933369D01*
X90081100Y-120966706D01*
X90168413Y-121004806D01*
X90250963Y-120977025D01*
X90295413Y-120920669D01*
X90329611Y-120837325D01*
X90598625Y-120837325D01*
X90646250Y-120946069D01*
X90694272Y-120998456D01*
X90743088Y-121015919D01*
X90835163Y-120973056D01*
X90879613Y-120942894D01*
X90936763Y-120904794D01*
X91039244Y-120968294D01*
X91149840Y-121006394D01*
X91268550Y-121019094D01*
X91386769Y-121008180D01*
X91495364Y-120975438D01*
X91594335Y-120920867D01*
X91683681Y-120844469D01*
X91757649Y-120752989D01*
X91810483Y-120653175D01*
X91842183Y-120545027D01*
X91852750Y-120428544D01*
X91840844Y-120300948D01*
X91805125Y-120181687D01*
X91749563Y-120075920D01*
X91678125Y-119988806D01*
X91592797Y-119919353D01*
X91495563Y-119866569D01*
X91390788Y-119833231D01*
X91282838Y-119822119D01*
X91169232Y-119832735D01*
X91063366Y-119864584D01*
X90965238Y-119917666D01*
X90874850Y-119991981D01*
X90799146Y-120082568D01*
X90745072Y-120184466D01*
X90712627Y-120297674D01*
X90701813Y-120422194D01*
X90708339Y-120509859D01*
X90727918Y-120597172D01*
X90760550Y-120684131D01*
X90655775Y-120755569D01*
X90598625Y-120837325D01*
X90329611Y-120837325D01*
X90535125Y-120336469D01*
X90551000Y-120274556D01*
X90528378Y-120217803D01*
X90460513Y-120174544D01*
X90377963Y-120153906D01*
X90326369Y-120167400D01*
X90298588Y-120194387D01*
X90285888Y-120222169D01*
X90261369Y-120283552D01*
X90223799Y-120383035D01*
X90173175Y-120520619D01*
X90079513Y-120263444D01*
X90044588Y-120207881D01*
X89950925Y-120161844D01*
X89869169Y-120187244D01*
X89822338Y-120238044D01*
X89809638Y-120265031D01*
X89763953Y-120392031D01*
X89732732Y-120476698D01*
X89715975Y-120519031D01*
X89619137Y-120255506D01*
X89571512Y-120179306D01*
X89504837Y-120153906D01*
X89441337Y-120169781D01*
X89365137Y-120219391D01*
X89339737Y-120279319D01*
X89251390Y-120279319D01*
X89250044Y-120248362D01*
X89236550Y-120206294D01*
X89194481Y-120175337D01*
X89112725Y-120165019D01*
X89004775Y-120192006D01*
X88976200Y-120260269D01*
X88974612Y-120306306D01*
X88974612Y-120861931D01*
X88847544Y-120861931D01*
X88847612Y-120860344D01*
X88847612Y-120303131D01*
X88845231Y-120248362D01*
X88831737Y-120206294D01*
X88789669Y-120175337D01*
X88707912Y-120165019D01*
X88599962Y-120192006D01*
X88571387Y-120260269D01*
X88569800Y-120306306D01*
X88569800Y-120861931D01*
X88358530Y-120861931D01*
X88378109Y-120842286D01*
X88425337Y-120765888D01*
X88456294Y-120676591D01*
X88466612Y-120578563D01*
X88456294Y-120480931D01*
X88425337Y-120392825D01*
X88378109Y-120317617D01*
X88318975Y-120258681D01*
X88229193Y-120200473D01*
X88135531Y-120165548D01*
X88037987Y-120153906D01*
X87920512Y-120170575D01*
X87836375Y-120203119D01*
X87810975Y-120218994D01*
X87766525Y-120249156D01*
X87725250Y-120321387D01*
X87758587Y-120412669D01*
X87814547Y-120478153D01*
X87868125Y-120499981D01*
X87953850Y-120465056D01*
X88035606Y-120438069D01*
X88134825Y-120476169D01*
X88180862Y-120581738D01*
X88136412Y-120686513D01*
X88041956Y-120723819D01*
X87948294Y-120694450D01*
X87877650Y-120665081D01*
X87824866Y-120686116D01*
X87761762Y-120749219D01*
X87725250Y-120831769D01*
X86163890Y-120831769D01*
X86163348Y-120830623D01*
X86125800Y-120725683D01*
X86098718Y-120617569D01*
X86082365Y-120507320D01*
X86076896Y-120396000D01*
X86082365Y-120284680D01*
X86098718Y-120174431D01*
X86125800Y-120066317D01*
X86163348Y-119961377D01*
X86186415Y-119912606D01*
X88569800Y-119912606D01*
X88572181Y-119967375D01*
X88586469Y-120008650D01*
X88628537Y-120041194D01*
X88708706Y-120050719D01*
X88788875Y-120041194D01*
X88830944Y-120007856D01*
X88845231Y-119965787D01*
X88847543Y-119912606D01*
X88974612Y-119912606D01*
X88976994Y-119967375D01*
X88991281Y-120008650D01*
X89033350Y-120041194D01*
X89113519Y-120050719D01*
X89193687Y-120041194D01*
X89235756Y-120007856D01*
X89250044Y-119965787D01*
X89252425Y-119911019D01*
X89250044Y-119856250D01*
X89236550Y-119815769D01*
X89194481Y-119783622D01*
X89112725Y-119772906D01*
X89032556Y-119783622D01*
X88992075Y-119815769D01*
X88976994Y-119857837D01*
X88974612Y-119912606D01*
X88847543Y-119912606D01*
X88847612Y-119911019D01*
X88845231Y-119856250D01*
X88831737Y-119815769D01*
X88789669Y-119783622D01*
X88707912Y-119772906D01*
X88627744Y-119783622D01*
X88587262Y-119815769D01*
X88572181Y-119857837D01*
X88569800Y-119912606D01*
X86186415Y-119912606D01*
X86211001Y-119860623D01*
X86268300Y-119765026D01*
X86334693Y-119675504D01*
X86409542Y-119592922D01*
X86492124Y-119518074D01*
X86581645Y-119451680D01*
X86677243Y-119394381D01*
X86777997Y-119346728D01*
X86882937Y-119309180D01*
X86991051Y-119282099D01*
X87101299Y-119265745D01*
X87212620Y-119260276D01*
X87725250Y-119260276D01*
X91852750Y-119260276D01*
G37*
%TO.C,D2*%
X99316000Y-125329000D02*
X96456000Y-125329000D01*
X99316000Y-123409000D02*
X99316000Y-125329000D01*
X96456000Y-123409000D02*
X99316000Y-123409000D01*
%TO.C,J3*%
X86771000Y-124454000D02*
X86771000Y-126954000D01*
X86771000Y-126954000D02*
X87821000Y-126954000D01*
X87821000Y-126954000D02*
X87821000Y-127944000D01*
X87941000Y-122484000D02*
X91821000Y-122484000D01*
X92991000Y-124454000D02*
X92991000Y-126954000D01*
X92991000Y-126954000D02*
X91941000Y-126954000D01*
%TO.C,LOGO2*%
G36*
X100313938Y-97302788D02*
G01*
X100313825Y-97393995D01*
X100313393Y-97500117D01*
X100312671Y-97596844D01*
X100311694Y-97681743D01*
X100310498Y-97752384D01*
X100309117Y-97806335D01*
X100307587Y-97841164D01*
X100305943Y-97854440D01*
X100304559Y-97854644D01*
X100284719Y-97855283D01*
X100242106Y-97855908D01*
X100177638Y-97856517D01*
X100092237Y-97857107D01*
X99986824Y-97857677D01*
X99862320Y-97858225D01*
X99719644Y-97858749D01*
X99559718Y-97859246D01*
X99383463Y-97859715D01*
X99191800Y-97860154D01*
X98985648Y-97860560D01*
X98765930Y-97860932D01*
X98533565Y-97861268D01*
X98289475Y-97861566D01*
X98034580Y-97861823D01*
X97769801Y-97862038D01*
X97496058Y-97862209D01*
X97214273Y-97862333D01*
X96925366Y-97862410D01*
X96630259Y-97862435D01*
X92962569Y-97862435D01*
X92962569Y-96759130D01*
X100313938Y-96759130D01*
X100313938Y-97302788D01*
G37*
%TO.C,LOGO1*%
D15*
X85888842Y-111972381D02*
X85949889Y-111991439D01*
X86025069Y-112023115D01*
X86061469Y-112040138D01*
X86087740Y-112043215D01*
X86093549Y-112019620D01*
X86093555Y-112018952D01*
X86105856Y-111996426D01*
X86148281Y-111984879D01*
X86230510Y-111981628D01*
X86367471Y-111981628D01*
X86367471Y-113176922D01*
X86093549Y-113176922D01*
X86093549Y-112352779D01*
X86025454Y-112289670D01*
X86004180Y-112271735D01*
X85940811Y-112241091D01*
X85862776Y-112239863D01*
X85756520Y-112266903D01*
X85720701Y-112268615D01*
X85678683Y-112242383D01*
X85622757Y-112180035D01*
X85595628Y-112145547D01*
X85563543Y-112096852D01*
X85558599Y-112065855D01*
X85576563Y-112039707D01*
X85631710Y-112006641D01*
X85717363Y-111980472D01*
X85810292Y-111967496D01*
X85888842Y-111972381D01*
G36*
X85888842Y-111972381D02*
G01*
X85949889Y-111991439D01*
X86025069Y-112023115D01*
X86061469Y-112040138D01*
X86087740Y-112043215D01*
X86093549Y-112019620D01*
X86093555Y-112018952D01*
X86105856Y-111996426D01*
X86148281Y-111984879D01*
X86230510Y-111981628D01*
X86367471Y-111981628D01*
X86367471Y-113176922D01*
X86093549Y-113176922D01*
X86093549Y-112352779D01*
X86025454Y-112289670D01*
X86004180Y-112271735D01*
X85940811Y-112241091D01*
X85862776Y-112239863D01*
X85756520Y-112266903D01*
X85720701Y-112268615D01*
X85678683Y-112242383D01*
X85622757Y-112180035D01*
X85595628Y-112145547D01*
X85563543Y-112096852D01*
X85558599Y-112065855D01*
X85576563Y-112039707D01*
X85631710Y-112006641D01*
X85717363Y-111980472D01*
X85810292Y-111967496D01*
X85888842Y-111972381D01*
G37*
X86251525Y-113865675D02*
X86326760Y-113900886D01*
X86392373Y-113952497D01*
X86392373Y-113900886D01*
X86394008Y-113881290D01*
X86409221Y-113860513D01*
X86450362Y-113851337D01*
X86529334Y-113849275D01*
X86666295Y-113849275D01*
X86666295Y-115069471D01*
X86392373Y-115069471D01*
X86392373Y-114672211D01*
X86392340Y-114649405D01*
X86390003Y-114489089D01*
X86384268Y-114358500D01*
X86375544Y-114264314D01*
X86364241Y-114213208D01*
X86353862Y-114193915D01*
X86289968Y-114133406D01*
X86202937Y-114106622D01*
X86107904Y-114119117D01*
X86084594Y-114127586D01*
X86034937Y-114142555D01*
X86000999Y-114137907D01*
X85966850Y-114107479D01*
X85916559Y-114045111D01*
X85834992Y-113942123D01*
X85892323Y-113895699D01*
X85946823Y-113867755D01*
X86042554Y-113848883D01*
X86150456Y-113848265D01*
X86251525Y-113865675D01*
G36*
X86251525Y-113865675D02*
G01*
X86326760Y-113900886D01*
X86392373Y-113952497D01*
X86392373Y-113900886D01*
X86394008Y-113881290D01*
X86409221Y-113860513D01*
X86450362Y-113851337D01*
X86529334Y-113849275D01*
X86666295Y-113849275D01*
X86666295Y-115069471D01*
X86392373Y-115069471D01*
X86392373Y-114672211D01*
X86392340Y-114649405D01*
X86390003Y-114489089D01*
X86384268Y-114358500D01*
X86375544Y-114264314D01*
X86364241Y-114213208D01*
X86353862Y-114193915D01*
X86289968Y-114133406D01*
X86202937Y-114106622D01*
X86107904Y-114119117D01*
X86084594Y-114127586D01*
X86034937Y-114142555D01*
X86000999Y-114137907D01*
X85966850Y-114107479D01*
X85916559Y-114045111D01*
X85834992Y-113942123D01*
X85892323Y-113895699D01*
X85946823Y-113867755D01*
X86042554Y-113848883D01*
X86150456Y-113848265D01*
X86251525Y-113865675D01*
G37*
X91447471Y-115069471D02*
X91198451Y-115069471D01*
X91198451Y-114685111D01*
X91198176Y-114595706D01*
X91195344Y-114447629D01*
X91188176Y-114338003D01*
X91175116Y-114259252D01*
X91154608Y-114203798D01*
X91125098Y-114164061D01*
X91085031Y-114132465D01*
X91041290Y-114108921D01*
X90989496Y-114102246D01*
X90915831Y-114117090D01*
X90892159Y-114123271D01*
X90833069Y-114132572D01*
X90790818Y-114119245D01*
X90741848Y-114077996D01*
X90732555Y-114069026D01*
X90681179Y-114013534D01*
X90648047Y-113968415D01*
X90643502Y-113957545D01*
X90652508Y-113917409D01*
X90698174Y-113885320D01*
X90770246Y-113862799D01*
X90858471Y-113851367D01*
X90952594Y-113852544D01*
X91042362Y-113867850D01*
X91117520Y-113898806D01*
X91141343Y-113913260D01*
X91181449Y-113934417D01*
X91196296Y-113929572D01*
X91198451Y-113898712D01*
X91198957Y-113887633D01*
X91210970Y-113863091D01*
X91248236Y-113851921D01*
X91322961Y-113849275D01*
X91447471Y-113849275D01*
X91447471Y-115069471D01*
G36*
X91447471Y-115069471D02*
G01*
X91198451Y-115069471D01*
X91198451Y-114685111D01*
X91198176Y-114595706D01*
X91195344Y-114447629D01*
X91188176Y-114338003D01*
X91175116Y-114259252D01*
X91154608Y-114203798D01*
X91125098Y-114164061D01*
X91085031Y-114132465D01*
X91041290Y-114108921D01*
X90989496Y-114102246D01*
X90915831Y-114117090D01*
X90892159Y-114123271D01*
X90833069Y-114132572D01*
X90790818Y-114119245D01*
X90741848Y-114077996D01*
X90732555Y-114069026D01*
X90681179Y-114013534D01*
X90648047Y-113968415D01*
X90643502Y-113957545D01*
X90652508Y-113917409D01*
X90698174Y-113885320D01*
X90770246Y-113862799D01*
X90858471Y-113851367D01*
X90952594Y-113852544D01*
X91042362Y-113867850D01*
X91117520Y-113898806D01*
X91141343Y-113913260D01*
X91181449Y-113934417D01*
X91196296Y-113929572D01*
X91198451Y-113898712D01*
X91198957Y-113887633D01*
X91210970Y-113863091D01*
X91248236Y-113851921D01*
X91322961Y-113849275D01*
X91447471Y-113849275D01*
X91447471Y-115069471D01*
G37*
X86865510Y-112369245D02*
X86867611Y-112543624D01*
X86875833Y-112684460D01*
X86892491Y-112786825D01*
X86919891Y-112856458D01*
X86960343Y-112899093D01*
X87016152Y-112920468D01*
X87089628Y-112926318D01*
X87159783Y-112921097D01*
X87216443Y-112900659D01*
X87257626Y-112859254D01*
X87285640Y-112791147D01*
X87302793Y-112690600D01*
X87311392Y-112551879D01*
X87313746Y-112369245D01*
X87313746Y-111981628D01*
X87562765Y-111981628D01*
X87562765Y-112448928D01*
X87562338Y-112573659D01*
X87559018Y-112734955D01*
X87550687Y-112857965D01*
X87535326Y-112949729D01*
X87510919Y-113017291D01*
X87475447Y-113067691D01*
X87426892Y-113107971D01*
X87363235Y-113145174D01*
X87229562Y-113192270D01*
X87090055Y-113195342D01*
X86958524Y-113151971D01*
X86901135Y-113123857D01*
X86872664Y-113119654D01*
X86865510Y-113139520D01*
X86853632Y-113161826D01*
X86811116Y-113173576D01*
X86728549Y-113176922D01*
X86591589Y-113176922D01*
X86591589Y-111981628D01*
X86865510Y-111981628D01*
X86865510Y-112369245D01*
G36*
X86865510Y-112369245D02*
G01*
X86867611Y-112543624D01*
X86875833Y-112684460D01*
X86892491Y-112786825D01*
X86919891Y-112856458D01*
X86960343Y-112899093D01*
X87016152Y-112920468D01*
X87089628Y-112926318D01*
X87159783Y-112921097D01*
X87216443Y-112900659D01*
X87257626Y-112859254D01*
X87285640Y-112791147D01*
X87302793Y-112690600D01*
X87311392Y-112551879D01*
X87313746Y-112369245D01*
X87313746Y-111981628D01*
X87562765Y-111981628D01*
X87562765Y-112448928D01*
X87562338Y-112573659D01*
X87559018Y-112734955D01*
X87550687Y-112857965D01*
X87535326Y-112949729D01*
X87510919Y-113017291D01*
X87475447Y-113067691D01*
X87426892Y-113107971D01*
X87363235Y-113145174D01*
X87229562Y-113192270D01*
X87090055Y-113195342D01*
X86958524Y-113151971D01*
X86901135Y-113123857D01*
X86872664Y-113119654D01*
X86865510Y-113139520D01*
X86853632Y-113161826D01*
X86811116Y-113173576D01*
X86728549Y-113176922D01*
X86591589Y-113176922D01*
X86591589Y-111981628D01*
X86865510Y-111981628D01*
X86865510Y-112369245D01*
G37*
X91028906Y-111979271D02*
X91142422Y-112014937D01*
X91192473Y-112039177D01*
X91217646Y-112041681D01*
X91223353Y-112019620D01*
X91223359Y-112018952D01*
X91235660Y-111996426D01*
X91278084Y-111984879D01*
X91360314Y-111981628D01*
X91497275Y-111981628D01*
X91497275Y-113176922D01*
X91223353Y-113176922D01*
X91223353Y-112764907D01*
X91223166Y-112625779D01*
X91221885Y-112511493D01*
X91218458Y-112431519D01*
X91211832Y-112377708D01*
X91200954Y-112341912D01*
X91184771Y-112315982D01*
X91162230Y-112291770D01*
X91131527Y-112266017D01*
X91043239Y-112231416D01*
X90950565Y-112241571D01*
X90865671Y-112296298D01*
X90841406Y-112321768D01*
X90823987Y-112347545D01*
X90812304Y-112381848D01*
X90805212Y-112432933D01*
X90801564Y-112509056D01*
X90800215Y-112618471D01*
X90800020Y-112769435D01*
X90800020Y-113176922D01*
X90526098Y-113176922D01*
X90526645Y-112734912D01*
X90526682Y-112715223D01*
X90529058Y-112527209D01*
X90536353Y-112381159D01*
X90550445Y-112269971D01*
X90573207Y-112186544D01*
X90606514Y-112123775D01*
X90652241Y-112074561D01*
X90712264Y-112031802D01*
X90774240Y-112002199D01*
X90899055Y-111975305D01*
X91028906Y-111979271D01*
G36*
X91028906Y-111979271D02*
G01*
X91142422Y-112014937D01*
X91192473Y-112039177D01*
X91217646Y-112041681D01*
X91223353Y-112019620D01*
X91223359Y-112018952D01*
X91235660Y-111996426D01*
X91278084Y-111984879D01*
X91360314Y-111981628D01*
X91497275Y-111981628D01*
X91497275Y-113176922D01*
X91223353Y-113176922D01*
X91223353Y-112764907D01*
X91223166Y-112625779D01*
X91221885Y-112511493D01*
X91218458Y-112431519D01*
X91211832Y-112377708D01*
X91200954Y-112341912D01*
X91184771Y-112315982D01*
X91162230Y-112291770D01*
X91131527Y-112266017D01*
X91043239Y-112231416D01*
X90950565Y-112241571D01*
X90865671Y-112296298D01*
X90841406Y-112321768D01*
X90823987Y-112347545D01*
X90812304Y-112381848D01*
X90805212Y-112432933D01*
X90801564Y-112509056D01*
X90800215Y-112618471D01*
X90800020Y-112769435D01*
X90800020Y-113176922D01*
X90526098Y-113176922D01*
X90526645Y-112734912D01*
X90526682Y-112715223D01*
X90529058Y-112527209D01*
X90536353Y-112381159D01*
X90550445Y-112269971D01*
X90573207Y-112186544D01*
X90606514Y-112123775D01*
X90652241Y-112074561D01*
X90712264Y-112031802D01*
X90774240Y-112002199D01*
X90899055Y-111975305D01*
X91028906Y-111979271D01*
G37*
X85188341Y-111987329D02*
X85324218Y-112040267D01*
X85439135Y-112127655D01*
X85524013Y-112247680D01*
X85529745Y-112259918D01*
X85566135Y-112379281D01*
X85584316Y-112521864D01*
X85584173Y-112670318D01*
X85565590Y-112807297D01*
X85528452Y-112915451D01*
X85482599Y-112990831D01*
X85381669Y-113097620D01*
X85255469Y-113165500D01*
X85147497Y-113192950D01*
X84983088Y-113195947D01*
X84825764Y-113154549D01*
X84686251Y-113070546D01*
X84595954Y-112996116D01*
X84677284Y-112912205D01*
X84728665Y-112862496D01*
X84775141Y-112834820D01*
X84818235Y-112840914D01*
X84873353Y-112878098D01*
X84895331Y-112892655D01*
X84988178Y-112922449D01*
X85094895Y-112922431D01*
X85194808Y-112891723D01*
X85232429Y-112867064D01*
X85287613Y-112794245D01*
X85315278Y-112687290D01*
X85317058Y-112541517D01*
X85317053Y-112541435D01*
X85296470Y-112411014D01*
X85251128Y-112320587D01*
X85176518Y-112264652D01*
X85068128Y-112237704D01*
X84999871Y-112234079D01*
X84940231Y-112248921D01*
X84879065Y-112291918D01*
X84799912Y-112358520D01*
X84699672Y-112277965D01*
X84663050Y-112247105D01*
X84617307Y-112202889D01*
X84599432Y-112176832D01*
X84605762Y-112165089D01*
X84642221Y-112129036D01*
X84700301Y-112083185D01*
X84745744Y-112053348D01*
X84890024Y-111992056D01*
X85040583Y-111970654D01*
X85188341Y-111987329D01*
G36*
X85188341Y-111987329D02*
G01*
X85324218Y-112040267D01*
X85439135Y-112127655D01*
X85524013Y-112247680D01*
X85529745Y-112259918D01*
X85566135Y-112379281D01*
X85584316Y-112521864D01*
X85584173Y-112670318D01*
X85565590Y-112807297D01*
X85528452Y-112915451D01*
X85482599Y-112990831D01*
X85381669Y-113097620D01*
X85255469Y-113165500D01*
X85147497Y-113192950D01*
X84983088Y-113195947D01*
X84825764Y-113154549D01*
X84686251Y-113070546D01*
X84595954Y-112996116D01*
X84677284Y-112912205D01*
X84728665Y-112862496D01*
X84775141Y-112834820D01*
X84818235Y-112840914D01*
X84873353Y-112878098D01*
X84895331Y-112892655D01*
X84988178Y-112922449D01*
X85094895Y-112922431D01*
X85194808Y-112891723D01*
X85232429Y-112867064D01*
X85287613Y-112794245D01*
X85315278Y-112687290D01*
X85317058Y-112541517D01*
X85317053Y-112541435D01*
X85296470Y-112411014D01*
X85251128Y-112320587D01*
X85176518Y-112264652D01*
X85068128Y-112237704D01*
X84999871Y-112234079D01*
X84940231Y-112248921D01*
X84879065Y-112291918D01*
X84799912Y-112358520D01*
X84699672Y-112277965D01*
X84663050Y-112247105D01*
X84617307Y-112202889D01*
X84599432Y-112176832D01*
X84605762Y-112165089D01*
X84642221Y-112129036D01*
X84700301Y-112083185D01*
X84745744Y-112053348D01*
X84890024Y-111992056D01*
X85040583Y-111970654D01*
X85188341Y-111987329D01*
G37*
X88751067Y-112566145D02*
X88751953Y-112665173D01*
X88745005Y-112743982D01*
X88714299Y-112894438D01*
X88659376Y-113009246D01*
X88575780Y-113095966D01*
X88459058Y-113162155D01*
X88413739Y-113177908D01*
X88296373Y-113197562D01*
X88172866Y-113197027D01*
X88068651Y-113175439D01*
X88066603Y-113174655D01*
X87982618Y-113125251D01*
X87897770Y-113048770D01*
X87827366Y-112961311D01*
X87786714Y-112878969D01*
X87774663Y-112818779D01*
X87764346Y-112706084D01*
X87762617Y-112605632D01*
X88013502Y-112605632D01*
X88028500Y-112726119D01*
X88063735Y-112825123D01*
X88117117Y-112889815D01*
X88137350Y-112900922D01*
X88214506Y-112921111D01*
X88303749Y-112925265D01*
X88378828Y-112911235D01*
X88408132Y-112891116D01*
X88449264Y-112820760D01*
X88475146Y-112710645D01*
X88484138Y-112566145D01*
X88483994Y-112524549D01*
X88480870Y-112440264D01*
X88470482Y-112385281D01*
X88448688Y-112344655D01*
X88411347Y-112303437D01*
X88340293Y-112253481D01*
X88247791Y-112233057D01*
X88158418Y-112252509D01*
X88084210Y-112308771D01*
X88037201Y-112398775D01*
X88020828Y-112476494D01*
X88013502Y-112605632D01*
X87762617Y-112605632D01*
X87762137Y-112577738D01*
X87767672Y-112449993D01*
X87780588Y-112339101D01*
X87800522Y-112261315D01*
X87846953Y-112173245D01*
X87945498Y-112064959D01*
X88071453Y-111996364D01*
X88221074Y-111969213D01*
X88390615Y-111985259D01*
X88418825Y-111992094D01*
X88550201Y-112051040D01*
X88649198Y-112147814D01*
X88715820Y-112282423D01*
X88750070Y-112454874D01*
X88751067Y-112566145D01*
G36*
X88751067Y-112566145D02*
G01*
X88751953Y-112665173D01*
X88745005Y-112743982D01*
X88714299Y-112894438D01*
X88659376Y-113009246D01*
X88575780Y-113095966D01*
X88459058Y-113162155D01*
X88413739Y-113177908D01*
X88296373Y-113197562D01*
X88172866Y-113197027D01*
X88068651Y-113175439D01*
X88066603Y-113174655D01*
X87982618Y-113125251D01*
X87897770Y-113048770D01*
X87827366Y-112961311D01*
X87786714Y-112878969D01*
X87774663Y-112818779D01*
X87764346Y-112706084D01*
X87762617Y-112605632D01*
X88013502Y-112605632D01*
X88028500Y-112726119D01*
X88063735Y-112825123D01*
X88117117Y-112889815D01*
X88137350Y-112900922D01*
X88214506Y-112921111D01*
X88303749Y-112925265D01*
X88378828Y-112911235D01*
X88408132Y-112891116D01*
X88449264Y-112820760D01*
X88475146Y-112710645D01*
X88484138Y-112566145D01*
X88483994Y-112524549D01*
X88480870Y-112440264D01*
X88470482Y-112385281D01*
X88448688Y-112344655D01*
X88411347Y-112303437D01*
X88340293Y-112253481D01*
X88247791Y-112233057D01*
X88158418Y-112252509D01*
X88084210Y-112308771D01*
X88037201Y-112398775D01*
X88020828Y-112476494D01*
X88013502Y-112605632D01*
X87762617Y-112605632D01*
X87762137Y-112577738D01*
X87767672Y-112449993D01*
X87780588Y-112339101D01*
X87800522Y-112261315D01*
X87846953Y-112173245D01*
X87945498Y-112064959D01*
X88071453Y-111996364D01*
X88221074Y-111969213D01*
X88390615Y-111985259D01*
X88418825Y-111992094D01*
X88550201Y-112051040D01*
X88649198Y-112147814D01*
X88715820Y-112282423D01*
X88750070Y-112454874D01*
X88751067Y-112566145D01*
G37*
X88950270Y-114240297D02*
X88983936Y-114340741D01*
X89023761Y-114451935D01*
X89057017Y-114536172D01*
X89080954Y-114586587D01*
X89092824Y-114596318D01*
X89095688Y-114587856D01*
X89111191Y-114535953D01*
X89135883Y-114449265D01*
X89167023Y-114337497D01*
X89201870Y-114210353D01*
X89296674Y-113861726D01*
X89441426Y-113854163D01*
X89453645Y-113853557D01*
X89531703Y-113852755D01*
X89569212Y-113860768D01*
X89573989Y-113879065D01*
X89567955Y-113896934D01*
X89548103Y-113958095D01*
X89517023Y-114054960D01*
X89476930Y-114180602D01*
X89430037Y-114328091D01*
X89378561Y-114490500D01*
X89195321Y-115069471D01*
X88966105Y-115069471D01*
X88858101Y-114702167D01*
X88838158Y-114634720D01*
X88801300Y-114512101D01*
X88769805Y-114409930D01*
X88746510Y-114337336D01*
X88734250Y-114303446D01*
X88730757Y-114300918D01*
X88713758Y-114322778D01*
X88689489Y-114380586D01*
X88661982Y-114465309D01*
X88660528Y-114470285D01*
X88623700Y-114595322D01*
X88581562Y-114736896D01*
X88542950Y-114865316D01*
X88480339Y-115072044D01*
X88249411Y-115057020D01*
X88142470Y-114720843D01*
X88095519Y-114573128D01*
X88042926Y-114407458D01*
X87992565Y-114248638D01*
X87950878Y-114116971D01*
X87866227Y-113849275D01*
X88149429Y-113849275D01*
X88218072Y-114104520D01*
X88236321Y-114171963D01*
X88270833Y-114297697D01*
X88302793Y-114412083D01*
X88327089Y-114496726D01*
X88367463Y-114633686D01*
X88496224Y-114247706D01*
X88624986Y-113861726D01*
X88723472Y-113854332D01*
X88821959Y-113846939D01*
X88950270Y-114240297D01*
G36*
X88950270Y-114240297D02*
G01*
X88983936Y-114340741D01*
X89023761Y-114451935D01*
X89057017Y-114536172D01*
X89080954Y-114586587D01*
X89092824Y-114596318D01*
X89095688Y-114587856D01*
X89111191Y-114535953D01*
X89135883Y-114449265D01*
X89167023Y-114337497D01*
X89201870Y-114210353D01*
X89296674Y-113861726D01*
X89441426Y-113854163D01*
X89453645Y-113853557D01*
X89531703Y-113852755D01*
X89569212Y-113860768D01*
X89573989Y-113879065D01*
X89567955Y-113896934D01*
X89548103Y-113958095D01*
X89517023Y-114054960D01*
X89476930Y-114180602D01*
X89430037Y-114328091D01*
X89378561Y-114490500D01*
X89195321Y-115069471D01*
X88966105Y-115069471D01*
X88858101Y-114702167D01*
X88838158Y-114634720D01*
X88801300Y-114512101D01*
X88769805Y-114409930D01*
X88746510Y-114337336D01*
X88734250Y-114303446D01*
X88730757Y-114300918D01*
X88713758Y-114322778D01*
X88689489Y-114380586D01*
X88661982Y-114465309D01*
X88660528Y-114470285D01*
X88623700Y-114595322D01*
X88581562Y-114736896D01*
X88542950Y-114865316D01*
X88480339Y-115072044D01*
X88249411Y-115057020D01*
X88142470Y-114720843D01*
X88095519Y-114573128D01*
X88042926Y-114407458D01*
X87992565Y-114248638D01*
X87950878Y-114116971D01*
X87866227Y-113849275D01*
X88149429Y-113849275D01*
X88218072Y-114104520D01*
X88236321Y-114171963D01*
X88270833Y-114297697D01*
X88302793Y-114412083D01*
X88327089Y-114496726D01*
X88367463Y-114633686D01*
X88496224Y-114247706D01*
X88624986Y-113861726D01*
X88723472Y-113854332D01*
X88821959Y-113846939D01*
X88950270Y-114240297D01*
G37*
X94956156Y-112576944D02*
X94954818Y-112647666D01*
X94951603Y-112725653D01*
X94944305Y-112820754D01*
X94931873Y-112888160D01*
X94911343Y-112941570D01*
X94879751Y-112994685D01*
X94878406Y-112996699D01*
X94800616Y-113082755D01*
X94705438Y-113148391D01*
X94594760Y-113187339D01*
X94449163Y-113199985D01*
X94306463Y-113175119D01*
X94178909Y-113115198D01*
X94078753Y-113022681D01*
X94049999Y-112978967D01*
X93996301Y-112843073D01*
X93969670Y-112675408D01*
X93970125Y-112632997D01*
X94237763Y-112632997D01*
X94238267Y-112712314D01*
X94246677Y-112765267D01*
X94265838Y-112805956D01*
X94298598Y-112848479D01*
X94344058Y-112890676D01*
X94434980Y-112928333D01*
X94532608Y-112921338D01*
X94625914Y-112869002D01*
X94652234Y-112844006D01*
X94680336Y-112801214D01*
X94695920Y-112741068D01*
X94704753Y-112647348D01*
X94707186Y-112576944D01*
X94693856Y-112433168D01*
X94652947Y-112330231D01*
X94584281Y-112267567D01*
X94503789Y-112237560D01*
X94407794Y-112240086D01*
X94318811Y-112290746D01*
X94297538Y-112310031D01*
X94270693Y-112343774D01*
X94254766Y-112387920D01*
X94245929Y-112455601D01*
X94240355Y-112559950D01*
X94237763Y-112632997D01*
X93970125Y-112632997D01*
X93971724Y-112484126D01*
X93974345Y-112456996D01*
X94010918Y-112283229D01*
X94078581Y-112148334D01*
X94177478Y-112052163D01*
X94307753Y-111994568D01*
X94469550Y-111975402D01*
X94530679Y-111977201D01*
X94656039Y-111999211D01*
X94758546Y-112051746D01*
X94854115Y-112141686D01*
X94869400Y-112159737D01*
X94910624Y-112220530D01*
X94937717Y-112289367D01*
X94952740Y-112376600D01*
X94957754Y-112492582D01*
X94956156Y-112576944D01*
G36*
X94956156Y-112576944D02*
G01*
X94954818Y-112647666D01*
X94951603Y-112725653D01*
X94944305Y-112820754D01*
X94931873Y-112888160D01*
X94911343Y-112941570D01*
X94879751Y-112994685D01*
X94878406Y-112996699D01*
X94800616Y-113082755D01*
X94705438Y-113148391D01*
X94594760Y-113187339D01*
X94449163Y-113199985D01*
X94306463Y-113175119D01*
X94178909Y-113115198D01*
X94078753Y-113022681D01*
X94049999Y-112978967D01*
X93996301Y-112843073D01*
X93969670Y-112675408D01*
X93970125Y-112632997D01*
X94237763Y-112632997D01*
X94238267Y-112712314D01*
X94246677Y-112765267D01*
X94265838Y-112805956D01*
X94298598Y-112848479D01*
X94344058Y-112890676D01*
X94434980Y-112928333D01*
X94532608Y-112921338D01*
X94625914Y-112869002D01*
X94652234Y-112844006D01*
X94680336Y-112801214D01*
X94695920Y-112741068D01*
X94704753Y-112647348D01*
X94707186Y-112576944D01*
X94693856Y-112433168D01*
X94652947Y-112330231D01*
X94584281Y-112267567D01*
X94503789Y-112237560D01*
X94407794Y-112240086D01*
X94318811Y-112290746D01*
X94297538Y-112310031D01*
X94270693Y-112343774D01*
X94254766Y-112387920D01*
X94245929Y-112455601D01*
X94240355Y-112559950D01*
X94237763Y-112632997D01*
X93970125Y-112632997D01*
X93971724Y-112484126D01*
X93974345Y-112456996D01*
X94010918Y-112283229D01*
X94078581Y-112148334D01*
X94177478Y-112052163D01*
X94307753Y-111994568D01*
X94469550Y-111975402D01*
X94530679Y-111977201D01*
X94656039Y-111999211D01*
X94758546Y-112051746D01*
X94854115Y-112141686D01*
X94869400Y-112159737D01*
X94910624Y-112220530D01*
X94937717Y-112289367D01*
X94952740Y-112376600D01*
X94957754Y-112492582D01*
X94956156Y-112576944D01*
G37*
X90648725Y-114472052D02*
X90648979Y-114552570D01*
X90645822Y-114659032D01*
X90639474Y-114733192D01*
X90638386Y-114739989D01*
X90595660Y-114861555D01*
X90517634Y-114964619D01*
X90415274Y-115034444D01*
X90305354Y-115063346D01*
X90170151Y-115061103D01*
X90045776Y-115022351D01*
X90013379Y-115005998D01*
X89971720Y-114988475D01*
X89955867Y-114993927D01*
X89953353Y-115022351D01*
X89952199Y-115036525D01*
X89937292Y-115057488D01*
X89895889Y-115067140D01*
X89816393Y-115069471D01*
X89679432Y-115069471D01*
X89679432Y-114471607D01*
X89953353Y-114471607D01*
X89955316Y-114575181D01*
X89963283Y-114644138D01*
X89980292Y-114691379D01*
X90009383Y-114730968D01*
X90086196Y-114789831D01*
X90176086Y-114809564D01*
X90263254Y-114785162D01*
X90336669Y-114717090D01*
X90356075Y-114667278D01*
X90370410Y-114579070D01*
X90376711Y-114472052D01*
X90374726Y-114362284D01*
X90364199Y-114265827D01*
X90344876Y-114198743D01*
X90338703Y-114187742D01*
X90279193Y-114132453D01*
X90198546Y-114107959D01*
X90111933Y-114113656D01*
X90034522Y-114148940D01*
X89981486Y-114213208D01*
X89979294Y-114218613D01*
X89966143Y-114278921D01*
X89956866Y-114369039D01*
X89953353Y-114471607D01*
X89679432Y-114471607D01*
X89679432Y-113376137D01*
X89953353Y-113376137D01*
X89953353Y-113956601D01*
X90004090Y-113910685D01*
X90052942Y-113882146D01*
X90145402Y-113858290D01*
X90253485Y-113850603D01*
X90359036Y-113860040D01*
X90443900Y-113887557D01*
X90504641Y-113926699D01*
X90567207Y-113993379D01*
X90609315Y-114083053D01*
X90634627Y-114204355D01*
X90646806Y-114365918D01*
X90648596Y-114431225D01*
X90648725Y-114472052D01*
G36*
X90648725Y-114472052D02*
G01*
X90648979Y-114552570D01*
X90645822Y-114659032D01*
X90639474Y-114733192D01*
X90638386Y-114739989D01*
X90595660Y-114861555D01*
X90517634Y-114964619D01*
X90415274Y-115034444D01*
X90305354Y-115063346D01*
X90170151Y-115061103D01*
X90045776Y-115022351D01*
X90013379Y-115005998D01*
X89971720Y-114988475D01*
X89955867Y-114993927D01*
X89953353Y-115022351D01*
X89952199Y-115036525D01*
X89937292Y-115057488D01*
X89895889Y-115067140D01*
X89816393Y-115069471D01*
X89679432Y-115069471D01*
X89679432Y-114471607D01*
X89953353Y-114471607D01*
X89955316Y-114575181D01*
X89963283Y-114644138D01*
X89980292Y-114691379D01*
X90009383Y-114730968D01*
X90086196Y-114789831D01*
X90176086Y-114809564D01*
X90263254Y-114785162D01*
X90336669Y-114717090D01*
X90356075Y-114667278D01*
X90370410Y-114579070D01*
X90376711Y-114472052D01*
X90374726Y-114362284D01*
X90364199Y-114265827D01*
X90344876Y-114198743D01*
X90338703Y-114187742D01*
X90279193Y-114132453D01*
X90198546Y-114107959D01*
X90111933Y-114113656D01*
X90034522Y-114148940D01*
X89981486Y-114213208D01*
X89979294Y-114218613D01*
X89966143Y-114278921D01*
X89956866Y-114369039D01*
X89953353Y-114471607D01*
X89679432Y-114471607D01*
X89679432Y-113376137D01*
X89953353Y-113376137D01*
X89953353Y-113956601D01*
X90004090Y-113910685D01*
X90052942Y-113882146D01*
X90145402Y-113858290D01*
X90253485Y-113850603D01*
X90359036Y-113860040D01*
X90443900Y-113887557D01*
X90504641Y-113926699D01*
X90567207Y-113993379D01*
X90609315Y-114083053D01*
X90634627Y-114204355D01*
X90646806Y-114365918D01*
X90648596Y-114431225D01*
X90648725Y-114472052D01*
G37*
X84553607Y-112431035D02*
X84566566Y-112499032D01*
X84563360Y-112689632D01*
X84562943Y-112693380D01*
X84527139Y-112868271D01*
X84462449Y-113004247D01*
X84366859Y-113104296D01*
X84238353Y-113171405D01*
X84214764Y-113179079D01*
X84068551Y-113201696D01*
X83917334Y-113189084D01*
X83776750Y-113144017D01*
X83662437Y-113069269D01*
X83576812Y-112990157D01*
X83667827Y-112918191D01*
X83758842Y-112846224D01*
X83868528Y-112899514D01*
X83995445Y-112942695D01*
X84107488Y-112943987D01*
X84199157Y-112904314D01*
X84265123Y-112824683D01*
X84288771Y-112776968D01*
X84301972Y-112736189D01*
X84294334Y-112708641D01*
X84260063Y-112691731D01*
X84193368Y-112682864D01*
X84088454Y-112679445D01*
X83939530Y-112678882D01*
X83578451Y-112678882D01*
X83578451Y-112506190D01*
X83581149Y-112430376D01*
X83835385Y-112430376D01*
X83847595Y-112444321D01*
X83883748Y-112451578D01*
X83952463Y-112454332D01*
X84062362Y-112454765D01*
X84121294Y-112454073D01*
X84214290Y-112449500D01*
X84277373Y-112441491D01*
X84300608Y-112431035D01*
X84294663Y-112392456D01*
X84252762Y-112318634D01*
X84182938Y-112257990D01*
X84099699Y-112221362D01*
X84017554Y-112219589D01*
X83955721Y-112248960D01*
X83885656Y-112315800D01*
X83841106Y-112398735D01*
X83838496Y-112407562D01*
X83835385Y-112430376D01*
X83581149Y-112430376D01*
X83581702Y-112414853D01*
X83591246Y-112324484D01*
X83604881Y-112263396D01*
X83614820Y-112240074D01*
X83687166Y-112136202D01*
X83791700Y-112049569D01*
X83913949Y-111992845D01*
X83977713Y-111977355D01*
X84129645Y-111970304D01*
X84265022Y-112006174D01*
X84380122Y-112080974D01*
X84471227Y-112190711D01*
X84534615Y-112331395D01*
X84553607Y-112431035D01*
G36*
X84553607Y-112431035D02*
G01*
X84566566Y-112499032D01*
X84563360Y-112689632D01*
X84562943Y-112693380D01*
X84527139Y-112868271D01*
X84462449Y-113004247D01*
X84366859Y-113104296D01*
X84238353Y-113171405D01*
X84214764Y-113179079D01*
X84068551Y-113201696D01*
X83917334Y-113189084D01*
X83776750Y-113144017D01*
X83662437Y-113069269D01*
X83576812Y-112990157D01*
X83667827Y-112918191D01*
X83758842Y-112846224D01*
X83868528Y-112899514D01*
X83995445Y-112942695D01*
X84107488Y-112943987D01*
X84199157Y-112904314D01*
X84265123Y-112824683D01*
X84288771Y-112776968D01*
X84301972Y-112736189D01*
X84294334Y-112708641D01*
X84260063Y-112691731D01*
X84193368Y-112682864D01*
X84088454Y-112679445D01*
X83939530Y-112678882D01*
X83578451Y-112678882D01*
X83578451Y-112506190D01*
X83581149Y-112430376D01*
X83835385Y-112430376D01*
X83847595Y-112444321D01*
X83883748Y-112451578D01*
X83952463Y-112454332D01*
X84062362Y-112454765D01*
X84121294Y-112454073D01*
X84214290Y-112449500D01*
X84277373Y-112441491D01*
X84300608Y-112431035D01*
X84294663Y-112392456D01*
X84252762Y-112318634D01*
X84182938Y-112257990D01*
X84099699Y-112221362D01*
X84017554Y-112219589D01*
X83955721Y-112248960D01*
X83885656Y-112315800D01*
X83841106Y-112398735D01*
X83838496Y-112407562D01*
X83835385Y-112430376D01*
X83581149Y-112430376D01*
X83581702Y-112414853D01*
X83591246Y-112324484D01*
X83604881Y-112263396D01*
X83614820Y-112240074D01*
X83687166Y-112136202D01*
X83791700Y-112049569D01*
X83913949Y-111992845D01*
X83977713Y-111977355D01*
X84129645Y-111970304D01*
X84265022Y-112006174D01*
X84380122Y-112080974D01*
X84471227Y-112190711D01*
X84534615Y-112331395D01*
X84553607Y-112431035D01*
G37*
X89476810Y-111980820D02*
X89620629Y-112016866D01*
X89725691Y-112083677D01*
X89792594Y-112181702D01*
X89821940Y-112311387D01*
X89815999Y-112435544D01*
X89773114Y-112540266D01*
X89690876Y-112617693D01*
X89567635Y-112669337D01*
X89401744Y-112696710D01*
X89293952Y-112711057D01*
X89195566Y-112742099D01*
X89144771Y-112787053D01*
X89141704Y-112845838D01*
X89162146Y-112882493D01*
X89225454Y-112925935D01*
X89315449Y-112946483D01*
X89420913Y-112943673D01*
X89530626Y-112917042D01*
X89633368Y-112866128D01*
X89735804Y-112798339D01*
X89825902Y-112889508D01*
X89916000Y-112980676D01*
X89841295Y-113041655D01*
X89812246Y-113062842D01*
X89730517Y-113110978D01*
X89642079Y-113152457D01*
X89572087Y-113176262D01*
X89469602Y-113193504D01*
X89343255Y-113193732D01*
X89188318Y-113174748D01*
X89048745Y-113126630D01*
X88949950Y-113050195D01*
X88891701Y-112945254D01*
X88873762Y-112811617D01*
X88886747Y-112694054D01*
X88928431Y-112597803D01*
X89003477Y-112528873D01*
X89116635Y-112483030D01*
X89272654Y-112456042D01*
X89290574Y-112454088D01*
X89387714Y-112441630D01*
X89466514Y-112428592D01*
X89511344Y-112417499D01*
X89526304Y-112408567D01*
X89551596Y-112362509D01*
X89547488Y-112303553D01*
X89513688Y-112252373D01*
X89495939Y-112241210D01*
X89421981Y-112223326D01*
X89326451Y-112224529D01*
X89226836Y-112243561D01*
X89140621Y-112279168D01*
X89050031Y-112332618D01*
X88979763Y-112250505D01*
X88962712Y-112229644D01*
X88924298Y-112173761D01*
X88908483Y-112135887D01*
X88925090Y-112112664D01*
X88976469Y-112076412D01*
X89050657Y-112037402D01*
X89061110Y-112032633D01*
X89158941Y-111995229D01*
X89253241Y-111977345D01*
X89370262Y-111973754D01*
X89476810Y-111980820D01*
G36*
X89476810Y-111980820D02*
G01*
X89620629Y-112016866D01*
X89725691Y-112083677D01*
X89792594Y-112181702D01*
X89821940Y-112311387D01*
X89815999Y-112435544D01*
X89773114Y-112540266D01*
X89690876Y-112617693D01*
X89567635Y-112669337D01*
X89401744Y-112696710D01*
X89293952Y-112711057D01*
X89195566Y-112742099D01*
X89144771Y-112787053D01*
X89141704Y-112845838D01*
X89162146Y-112882493D01*
X89225454Y-112925935D01*
X89315449Y-112946483D01*
X89420913Y-112943673D01*
X89530626Y-112917042D01*
X89633368Y-112866128D01*
X89735804Y-112798339D01*
X89825902Y-112889508D01*
X89916000Y-112980676D01*
X89841295Y-113041655D01*
X89812246Y-113062842D01*
X89730517Y-113110978D01*
X89642079Y-113152457D01*
X89572087Y-113176262D01*
X89469602Y-113193504D01*
X89343255Y-113193732D01*
X89188318Y-113174748D01*
X89048745Y-113126630D01*
X88949950Y-113050195D01*
X88891701Y-112945254D01*
X88873762Y-112811617D01*
X88886747Y-112694054D01*
X88928431Y-112597803D01*
X89003477Y-112528873D01*
X89116635Y-112483030D01*
X89272654Y-112456042D01*
X89290574Y-112454088D01*
X89387714Y-112441630D01*
X89466514Y-112428592D01*
X89511344Y-112417499D01*
X89526304Y-112408567D01*
X89551596Y-112362509D01*
X89547488Y-112303553D01*
X89513688Y-112252373D01*
X89495939Y-112241210D01*
X89421981Y-112223326D01*
X89326451Y-112224529D01*
X89226836Y-112243561D01*
X89140621Y-112279168D01*
X89050031Y-112332618D01*
X88979763Y-112250505D01*
X88962712Y-112229644D01*
X88924298Y-112173761D01*
X88908483Y-112135887D01*
X88925090Y-112112664D01*
X88976469Y-112076412D01*
X89050657Y-112037402D01*
X89061110Y-112032633D01*
X89158941Y-111995229D01*
X89253241Y-111977345D01*
X89370262Y-111973754D01*
X89476810Y-111980820D01*
G37*
X85834286Y-114324033D02*
X85843740Y-114459373D01*
X85840502Y-114552330D01*
X85811010Y-114730105D01*
X85750329Y-114869892D01*
X85657922Y-114972689D01*
X85533255Y-115039496D01*
X85492976Y-115051300D01*
X85349153Y-115067786D01*
X85197289Y-115053873D01*
X85060118Y-115010935D01*
X85011794Y-114986565D01*
X84942507Y-114944819D01*
X84900517Y-114910468D01*
X84894317Y-114902620D01*
X84882719Y-114873917D01*
X84899430Y-114842714D01*
X84950321Y-114795459D01*
X84974880Y-114774887D01*
X85023260Y-114737242D01*
X85048627Y-114721855D01*
X85055894Y-114723440D01*
X85097544Y-114740574D01*
X85159726Y-114770647D01*
X85180000Y-114780540D01*
X85299600Y-114817275D01*
X85403506Y-114807805D01*
X85494621Y-114751971D01*
X85505222Y-114741654D01*
X85555909Y-114677031D01*
X85584870Y-114615010D01*
X85600909Y-114546530D01*
X84848451Y-114546530D01*
X84848590Y-114415794D01*
X84848670Y-114402792D01*
X84858829Y-114297903D01*
X85122373Y-114297903D01*
X85125485Y-114319657D01*
X85141462Y-114334649D01*
X85179543Y-114342970D01*
X85248960Y-114346549D01*
X85358942Y-114347314D01*
X85420086Y-114346521D01*
X85510338Y-114341888D01*
X85572416Y-114334038D01*
X85595510Y-114324033D01*
X85575814Y-114241677D01*
X85518151Y-114164811D01*
X85434984Y-114111484D01*
X85338911Y-114093038D01*
X85268178Y-114113832D01*
X85197471Y-114164664D01*
X85143722Y-114230892D01*
X85122373Y-114297903D01*
X84858829Y-114297903D01*
X84864248Y-114241950D01*
X84909592Y-114111106D01*
X84988712Y-113998313D01*
X85036979Y-113950600D01*
X85136663Y-113886731D01*
X85255693Y-113855784D01*
X85406043Y-113853607D01*
X85478668Y-113862139D01*
X85612727Y-113906440D01*
X85715365Y-113987069D01*
X85787480Y-114105271D01*
X85829972Y-114262291D01*
X85834286Y-114324033D01*
G36*
X85834286Y-114324033D02*
G01*
X85843740Y-114459373D01*
X85840502Y-114552330D01*
X85811010Y-114730105D01*
X85750329Y-114869892D01*
X85657922Y-114972689D01*
X85533255Y-115039496D01*
X85492976Y-115051300D01*
X85349153Y-115067786D01*
X85197289Y-115053873D01*
X85060118Y-115010935D01*
X85011794Y-114986565D01*
X84942507Y-114944819D01*
X84900517Y-114910468D01*
X84894317Y-114902620D01*
X84882719Y-114873917D01*
X84899430Y-114842714D01*
X84950321Y-114795459D01*
X84974880Y-114774887D01*
X85023260Y-114737242D01*
X85048627Y-114721855D01*
X85055894Y-114723440D01*
X85097544Y-114740574D01*
X85159726Y-114770647D01*
X85180000Y-114780540D01*
X85299600Y-114817275D01*
X85403506Y-114807805D01*
X85494621Y-114751971D01*
X85505222Y-114741654D01*
X85555909Y-114677031D01*
X85584870Y-114615010D01*
X85600909Y-114546530D01*
X84848451Y-114546530D01*
X84848590Y-114415794D01*
X84848670Y-114402792D01*
X84858829Y-114297903D01*
X85122373Y-114297903D01*
X85125485Y-114319657D01*
X85141462Y-114334649D01*
X85179543Y-114342970D01*
X85248960Y-114346549D01*
X85358942Y-114347314D01*
X85420086Y-114346521D01*
X85510338Y-114341888D01*
X85572416Y-114334038D01*
X85595510Y-114324033D01*
X85575814Y-114241677D01*
X85518151Y-114164811D01*
X85434984Y-114111484D01*
X85338911Y-114093038D01*
X85268178Y-114113832D01*
X85197471Y-114164664D01*
X85143722Y-114230892D01*
X85122373Y-114297903D01*
X84858829Y-114297903D01*
X84864248Y-114241950D01*
X84909592Y-114111106D01*
X84988712Y-113998313D01*
X85036979Y-113950600D01*
X85136663Y-113886731D01*
X85255693Y-113855784D01*
X85406043Y-113853607D01*
X85478668Y-113862139D01*
X85612727Y-113906440D01*
X85715365Y-113987069D01*
X85787480Y-114105271D01*
X85829972Y-114262291D01*
X85834286Y-114324033D01*
G37*
X92660503Y-112424611D02*
X92661573Y-112429685D01*
X92670286Y-112604108D01*
X92668109Y-112680224D01*
X92643559Y-112846570D01*
X92589460Y-112977728D01*
X92502982Y-113079101D01*
X92381295Y-113156096D01*
X92263249Y-113192039D01*
X92115161Y-113198915D01*
X91965748Y-113172468D01*
X91832472Y-113114037D01*
X91783083Y-113081532D01*
X91728668Y-113039868D01*
X91703840Y-113012452D01*
X91705247Y-113001140D01*
X91733039Y-112962597D01*
X91785272Y-112915901D01*
X91875791Y-112846858D01*
X91981858Y-112899831D01*
X92010540Y-112912943D01*
X92094971Y-112941441D01*
X92165737Y-112952804D01*
X92217919Y-112943441D01*
X92299806Y-112898351D01*
X92368637Y-112828355D01*
X92408007Y-112747363D01*
X92424047Y-112678882D01*
X91671589Y-112678882D01*
X91671728Y-112548147D01*
X91672867Y-112506713D01*
X91681182Y-112417805D01*
X91945510Y-112417805D01*
X91945995Y-112422899D01*
X91959687Y-112438760D01*
X91998378Y-112448505D01*
X92070317Y-112453413D01*
X92183757Y-112454765D01*
X92221042Y-112454749D01*
X92317873Y-112453854D01*
X92376083Y-112449988D01*
X92404306Y-112440968D01*
X92411173Y-112424611D01*
X92405317Y-112398735D01*
X92404423Y-112395802D01*
X92353973Y-112305759D01*
X92274442Y-112243766D01*
X92179603Y-112220686D01*
X92144547Y-112222532D01*
X92079481Y-112244611D01*
X92017061Y-112300766D01*
X92000247Y-112320621D01*
X91961137Y-112377326D01*
X91945510Y-112417805D01*
X91681182Y-112417805D01*
X91682251Y-112406376D01*
X91697988Y-112323349D01*
X91715236Y-112276868D01*
X91775879Y-112175769D01*
X91857094Y-112083951D01*
X91942981Y-112021037D01*
X91967796Y-112009354D01*
X92112290Y-111970600D01*
X92259842Y-111974686D01*
X92398567Y-112019882D01*
X92516579Y-112104461D01*
X92580410Y-112182461D01*
X92632601Y-112292343D01*
X92660503Y-112424611D01*
G36*
X92660503Y-112424611D02*
G01*
X92661573Y-112429685D01*
X92670286Y-112604108D01*
X92668109Y-112680224D01*
X92643559Y-112846570D01*
X92589460Y-112977728D01*
X92502982Y-113079101D01*
X92381295Y-113156096D01*
X92263249Y-113192039D01*
X92115161Y-113198915D01*
X91965748Y-113172468D01*
X91832472Y-113114037D01*
X91783083Y-113081532D01*
X91728668Y-113039868D01*
X91703840Y-113012452D01*
X91705247Y-113001140D01*
X91733039Y-112962597D01*
X91785272Y-112915901D01*
X91875791Y-112846858D01*
X91981858Y-112899831D01*
X92010540Y-112912943D01*
X92094971Y-112941441D01*
X92165737Y-112952804D01*
X92217919Y-112943441D01*
X92299806Y-112898351D01*
X92368637Y-112828355D01*
X92408007Y-112747363D01*
X92424047Y-112678882D01*
X91671589Y-112678882D01*
X91671728Y-112548147D01*
X91672867Y-112506713D01*
X91681182Y-112417805D01*
X91945510Y-112417805D01*
X91945995Y-112422899D01*
X91959687Y-112438760D01*
X91998378Y-112448505D01*
X92070317Y-112453413D01*
X92183757Y-112454765D01*
X92221042Y-112454749D01*
X92317873Y-112453854D01*
X92376083Y-112449988D01*
X92404306Y-112440968D01*
X92411173Y-112424611D01*
X92405317Y-112398735D01*
X92404423Y-112395802D01*
X92353973Y-112305759D01*
X92274442Y-112243766D01*
X92179603Y-112220686D01*
X92144547Y-112222532D01*
X92079481Y-112244611D01*
X92017061Y-112300766D01*
X92000247Y-112320621D01*
X91961137Y-112377326D01*
X91945510Y-112417805D01*
X91681182Y-112417805D01*
X91682251Y-112406376D01*
X91697988Y-112323349D01*
X91715236Y-112276868D01*
X91775879Y-112175769D01*
X91857094Y-112083951D01*
X91942981Y-112021037D01*
X91967796Y-112009354D01*
X92112290Y-111970600D01*
X92259842Y-111974686D01*
X92398567Y-112019882D01*
X92516579Y-112104461D01*
X92580410Y-112182461D01*
X92632601Y-112292343D01*
X92660503Y-112424611D01*
G37*
X87871465Y-114701122D02*
X87873760Y-114741738D01*
X87843719Y-114854789D01*
X87778432Y-114951505D01*
X87679398Y-115021077D01*
X87669679Y-115025305D01*
X87561320Y-115055767D01*
X87439223Y-115067642D01*
X87323138Y-115060382D01*
X87232814Y-115033441D01*
X87196734Y-115015865D01*
X87170256Y-115011674D01*
X87164334Y-115033594D01*
X87153116Y-115053866D01*
X87109713Y-115065938D01*
X87025469Y-115069471D01*
X86886604Y-115069471D01*
X86893995Y-114633686D01*
X87164334Y-114633686D01*
X87173713Y-114698829D01*
X87214138Y-114770647D01*
X87229059Y-114783848D01*
X87290218Y-114811620D01*
X87382226Y-114818766D01*
X87437435Y-114815974D01*
X87540741Y-114794952D01*
X87604771Y-114755782D01*
X87626367Y-114701122D01*
X87602369Y-114633628D01*
X87588367Y-114615964D01*
X87525827Y-114576345D01*
X87426847Y-114553722D01*
X87285731Y-114546530D01*
X87164334Y-114546530D01*
X87164334Y-114633686D01*
X86893995Y-114633686D01*
X86894734Y-114590108D01*
X86896943Y-114479258D01*
X86902761Y-114313305D01*
X86912567Y-114186409D01*
X86928299Y-114091654D01*
X86951894Y-114022120D01*
X86985291Y-113970890D01*
X87030427Y-113931046D01*
X87089239Y-113895669D01*
X87119580Y-113882163D01*
X87224541Y-113856669D01*
X87351134Y-113846129D01*
X87482017Y-113850350D01*
X87599845Y-113869140D01*
X87687275Y-113902305D01*
X87717687Y-113921562D01*
X87787705Y-113978636D01*
X87811403Y-114026427D01*
X87805648Y-114035662D01*
X87769782Y-114067919D01*
X87711881Y-114110950D01*
X87682279Y-114131091D01*
X87631868Y-114159629D01*
X87599110Y-114162354D01*
X87568695Y-114142657D01*
X87492892Y-114102766D01*
X87390895Y-114086361D01*
X87286661Y-114098920D01*
X87284689Y-114099489D01*
X87211171Y-114131431D01*
X87174781Y-114181428D01*
X87164715Y-114264116D01*
X87164334Y-114342780D01*
X87424230Y-114351273D01*
X87465636Y-114352670D01*
X87570027Y-114357528D01*
X87640010Y-114365161D01*
X87687313Y-114378425D01*
X87723668Y-114400181D01*
X87760804Y-114433285D01*
X87822120Y-114509855D01*
X87867059Y-114623157D01*
X87871465Y-114701122D01*
G36*
X87871465Y-114701122D02*
G01*
X87873760Y-114741738D01*
X87843719Y-114854789D01*
X87778432Y-114951505D01*
X87679398Y-115021077D01*
X87669679Y-115025305D01*
X87561320Y-115055767D01*
X87439223Y-115067642D01*
X87323138Y-115060382D01*
X87232814Y-115033441D01*
X87196734Y-115015865D01*
X87170256Y-115011674D01*
X87164334Y-115033594D01*
X87153116Y-115053866D01*
X87109713Y-115065938D01*
X87025469Y-115069471D01*
X86886604Y-115069471D01*
X86893995Y-114633686D01*
X87164334Y-114633686D01*
X87173713Y-114698829D01*
X87214138Y-114770647D01*
X87229059Y-114783848D01*
X87290218Y-114811620D01*
X87382226Y-114818766D01*
X87437435Y-114815974D01*
X87540741Y-114794952D01*
X87604771Y-114755782D01*
X87626367Y-114701122D01*
X87602369Y-114633628D01*
X87588367Y-114615964D01*
X87525827Y-114576345D01*
X87426847Y-114553722D01*
X87285731Y-114546530D01*
X87164334Y-114546530D01*
X87164334Y-114633686D01*
X86893995Y-114633686D01*
X86894734Y-114590108D01*
X86896943Y-114479258D01*
X86902761Y-114313305D01*
X86912567Y-114186409D01*
X86928299Y-114091654D01*
X86951894Y-114022120D01*
X86985291Y-113970890D01*
X87030427Y-113931046D01*
X87089239Y-113895669D01*
X87119580Y-113882163D01*
X87224541Y-113856669D01*
X87351134Y-113846129D01*
X87482017Y-113850350D01*
X87599845Y-113869140D01*
X87687275Y-113902305D01*
X87717687Y-113921562D01*
X87787705Y-113978636D01*
X87811403Y-114026427D01*
X87805648Y-114035662D01*
X87769782Y-114067919D01*
X87711881Y-114110950D01*
X87682279Y-114131091D01*
X87631868Y-114159629D01*
X87599110Y-114162354D01*
X87568695Y-114142657D01*
X87492892Y-114102766D01*
X87390895Y-114086361D01*
X87286661Y-114098920D01*
X87284689Y-114099489D01*
X87211171Y-114131431D01*
X87174781Y-114181428D01*
X87164715Y-114264116D01*
X87164334Y-114342780D01*
X87424230Y-114351273D01*
X87465636Y-114352670D01*
X87570027Y-114357528D01*
X87640010Y-114365161D01*
X87687313Y-114378425D01*
X87723668Y-114400181D01*
X87760804Y-114433285D01*
X87822120Y-114509855D01*
X87867059Y-114623157D01*
X87871465Y-114701122D01*
G37*
X92659460Y-114680808D02*
X92662123Y-114737559D01*
X92661841Y-114740844D01*
X92631497Y-114868772D01*
X92564002Y-114964986D01*
X92456000Y-115034318D01*
X92400189Y-115051186D01*
X92304593Y-115064333D01*
X92200055Y-115067472D01*
X92105738Y-115060237D01*
X92040808Y-115042262D01*
X92001370Y-115027864D01*
X91962758Y-115042262D01*
X91948634Y-115050604D01*
X91892261Y-115064131D01*
X91816020Y-115069471D01*
X91696491Y-115069471D01*
X91696491Y-114642278D01*
X91970412Y-114642278D01*
X91979619Y-114715143D01*
X92015951Y-114779239D01*
X92036744Y-114793110D01*
X92110958Y-114814731D01*
X92203610Y-114820129D01*
X92294468Y-114809162D01*
X92363303Y-114781686D01*
X92397595Y-114745358D01*
X92418647Y-114680808D01*
X92399977Y-114629639D01*
X92338259Y-114585148D01*
X92239047Y-114556605D01*
X92108173Y-114546530D01*
X91970412Y-114546530D01*
X91970412Y-114642278D01*
X91696491Y-114642278D01*
X91696491Y-114587565D01*
X91696500Y-114545890D01*
X91696954Y-114388810D01*
X91698658Y-114272029D01*
X91702385Y-114187788D01*
X91708911Y-114128329D01*
X91719008Y-114085891D01*
X91733452Y-114052716D01*
X91753016Y-114021045D01*
X91815949Y-113946837D01*
X91905130Y-113890180D01*
X92022280Y-113858922D01*
X92176653Y-113849313D01*
X92181671Y-113849323D01*
X92288980Y-113854170D01*
X92385028Y-113866252D01*
X92450575Y-113883191D01*
X92468545Y-113891679D01*
X92525740Y-113927627D01*
X92577499Y-113970352D01*
X92611553Y-114008800D01*
X92615635Y-114031916D01*
X92607669Y-114038164D01*
X92520875Y-114104855D01*
X92462839Y-114144188D01*
X92424465Y-114160057D01*
X92396659Y-114156359D01*
X92370327Y-114136990D01*
X92321730Y-114112809D01*
X92239833Y-114096687D01*
X92147273Y-114092505D01*
X92063519Y-114101015D01*
X92008035Y-114122972D01*
X92005116Y-114125644D01*
X91980183Y-114175836D01*
X91970412Y-114250755D01*
X91970412Y-114347314D01*
X92200755Y-114347407D01*
X92306565Y-114349082D01*
X92395632Y-114356368D01*
X92459345Y-114371357D01*
X92510821Y-114396110D01*
X92522800Y-114403712D01*
X92609466Y-114487282D01*
X92655564Y-114597790D01*
X92659460Y-114680808D01*
G36*
X92659460Y-114680808D02*
G01*
X92662123Y-114737559D01*
X92661841Y-114740844D01*
X92631497Y-114868772D01*
X92564002Y-114964986D01*
X92456000Y-115034318D01*
X92400189Y-115051186D01*
X92304593Y-115064333D01*
X92200055Y-115067472D01*
X92105738Y-115060237D01*
X92040808Y-115042262D01*
X92001370Y-115027864D01*
X91962758Y-115042262D01*
X91948634Y-115050604D01*
X91892261Y-115064131D01*
X91816020Y-115069471D01*
X91696491Y-115069471D01*
X91696491Y-114642278D01*
X91970412Y-114642278D01*
X91979619Y-114715143D01*
X92015951Y-114779239D01*
X92036744Y-114793110D01*
X92110958Y-114814731D01*
X92203610Y-114820129D01*
X92294468Y-114809162D01*
X92363303Y-114781686D01*
X92397595Y-114745358D01*
X92418647Y-114680808D01*
X92399977Y-114629639D01*
X92338259Y-114585148D01*
X92239047Y-114556605D01*
X92108173Y-114546530D01*
X91970412Y-114546530D01*
X91970412Y-114642278D01*
X91696491Y-114642278D01*
X91696491Y-114587565D01*
X91696500Y-114545890D01*
X91696954Y-114388810D01*
X91698658Y-114272029D01*
X91702385Y-114187788D01*
X91708911Y-114128329D01*
X91719008Y-114085891D01*
X91733452Y-114052716D01*
X91753016Y-114021045D01*
X91815949Y-113946837D01*
X91905130Y-113890180D01*
X92022280Y-113858922D01*
X92176653Y-113849313D01*
X92181671Y-113849323D01*
X92288980Y-113854170D01*
X92385028Y-113866252D01*
X92450575Y-113883191D01*
X92468545Y-113891679D01*
X92525740Y-113927627D01*
X92577499Y-113970352D01*
X92611553Y-114008800D01*
X92615635Y-114031916D01*
X92607669Y-114038164D01*
X92520875Y-114104855D01*
X92462839Y-114144188D01*
X92424465Y-114160057D01*
X92396659Y-114156359D01*
X92370327Y-114136990D01*
X92321730Y-114112809D01*
X92239833Y-114096687D01*
X92147273Y-114092505D01*
X92063519Y-114101015D01*
X92008035Y-114122972D01*
X92005116Y-114125644D01*
X91980183Y-114175836D01*
X91970412Y-114250755D01*
X91970412Y-114347314D01*
X92200755Y-114347407D01*
X92306565Y-114349082D01*
X92395632Y-114356368D01*
X92459345Y-114371357D01*
X92510821Y-114396110D01*
X92522800Y-114403712D01*
X92609466Y-114487282D01*
X92655564Y-114597790D01*
X92659460Y-114680808D01*
G37*
X93788255Y-112599582D02*
X93788255Y-115072073D01*
X93657520Y-115064547D01*
X93526785Y-115057020D01*
X93520569Y-114658588D01*
X93518730Y-114561704D01*
X93513510Y-114416146D01*
X93504550Y-114309334D01*
X93490203Y-114234087D01*
X93468821Y-114183227D01*
X93438759Y-114149574D01*
X93398367Y-114125947D01*
X93322578Y-114101818D01*
X93247207Y-114111194D01*
X93167617Y-114162763D01*
X93091000Y-114227231D01*
X93091000Y-115069471D01*
X92817079Y-115069471D01*
X92817079Y-114612701D01*
X92817342Y-114469531D01*
X92818799Y-114342309D01*
X92822301Y-114249184D01*
X92828697Y-114181713D01*
X92838835Y-114131454D01*
X92853563Y-114089966D01*
X92873729Y-114048805D01*
X92878510Y-114040066D01*
X92942101Y-113954954D01*
X93016527Y-113895476D01*
X93106255Y-113864245D01*
X93225072Y-113850342D01*
X93344059Y-113857872D01*
X93440865Y-113887267D01*
X93514334Y-113925259D01*
X93514334Y-113103015D01*
X93413667Y-113155486D01*
X93371616Y-113174549D01*
X93238886Y-113201506D01*
X93106979Y-113182874D01*
X92984705Y-113120929D01*
X92880872Y-113017943D01*
X92864606Y-112993738D01*
X92848973Y-112958256D01*
X92838776Y-112910015D01*
X92832888Y-112839757D01*
X92830182Y-112738221D01*
X92829696Y-112632428D01*
X93092759Y-112632428D01*
X93092981Y-112720779D01*
X93099735Y-112779700D01*
X93114916Y-112821752D01*
X93140417Y-112859499D01*
X93172811Y-112894594D01*
X93224614Y-112921154D01*
X93302667Y-112927902D01*
X93371618Y-112922029D01*
X93439865Y-112892641D01*
X93483818Y-112833107D01*
X93507350Y-112737423D01*
X93514334Y-112599582D01*
X93512528Y-112526254D01*
X93494501Y-112387833D01*
X93457308Y-112294233D01*
X93401159Y-112246116D01*
X93344449Y-112232579D01*
X93245686Y-112238925D01*
X93162240Y-112278223D01*
X93142268Y-112296244D01*
X93121105Y-112327422D01*
X93108021Y-112373833D01*
X93100251Y-112447000D01*
X93095032Y-112558448D01*
X93092759Y-112632428D01*
X92829696Y-112632428D01*
X92829530Y-112596149D01*
X92829753Y-112531324D01*
X92833570Y-112380538D01*
X92844203Y-112267896D01*
X92864335Y-112184885D01*
X92896653Y-112122991D01*
X92943842Y-112073700D01*
X93008588Y-112028499D01*
X93061091Y-112002560D01*
X93185571Y-111973953D01*
X93316781Y-111977851D01*
X93433402Y-112014935D01*
X93483453Y-112039176D01*
X93508626Y-112041681D01*
X93514334Y-112019620D01*
X93514339Y-112018952D01*
X93526640Y-111996426D01*
X93569065Y-111984879D01*
X93651295Y-111981628D01*
X93788255Y-111981628D01*
X93788255Y-112599582D01*
G36*
X93788255Y-112599582D02*
G01*
X93788255Y-115072073D01*
X93657520Y-115064547D01*
X93526785Y-115057020D01*
X93520569Y-114658588D01*
X93518730Y-114561704D01*
X93513510Y-114416146D01*
X93504550Y-114309334D01*
X93490203Y-114234087D01*
X93468821Y-114183227D01*
X93438759Y-114149574D01*
X93398367Y-114125947D01*
X93322578Y-114101818D01*
X93247207Y-114111194D01*
X93167617Y-114162763D01*
X93091000Y-114227231D01*
X93091000Y-115069471D01*
X92817079Y-115069471D01*
X92817079Y-114612701D01*
X92817342Y-114469531D01*
X92818799Y-114342309D01*
X92822301Y-114249184D01*
X92828697Y-114181713D01*
X92838835Y-114131454D01*
X92853563Y-114089966D01*
X92873729Y-114048805D01*
X92878510Y-114040066D01*
X92942101Y-113954954D01*
X93016527Y-113895476D01*
X93106255Y-113864245D01*
X93225072Y-113850342D01*
X93344059Y-113857872D01*
X93440865Y-113887267D01*
X93514334Y-113925259D01*
X93514334Y-113103015D01*
X93413667Y-113155486D01*
X93371616Y-113174549D01*
X93238886Y-113201506D01*
X93106979Y-113182874D01*
X92984705Y-113120929D01*
X92880872Y-113017943D01*
X92864606Y-112993738D01*
X92848973Y-112958256D01*
X92838776Y-112910015D01*
X92832888Y-112839757D01*
X92830182Y-112738221D01*
X92829696Y-112632428D01*
X93092759Y-112632428D01*
X93092981Y-112720779D01*
X93099735Y-112779700D01*
X93114916Y-112821752D01*
X93140417Y-112859499D01*
X93172811Y-112894594D01*
X93224614Y-112921154D01*
X93302667Y-112927902D01*
X93371618Y-112922029D01*
X93439865Y-112892641D01*
X93483818Y-112833107D01*
X93507350Y-112737423D01*
X93514334Y-112599582D01*
X93512528Y-112526254D01*
X93494501Y-112387833D01*
X93457308Y-112294233D01*
X93401159Y-112246116D01*
X93344449Y-112232579D01*
X93245686Y-112238925D01*
X93162240Y-112278223D01*
X93142268Y-112296244D01*
X93121105Y-112327422D01*
X93108021Y-112373833D01*
X93100251Y-112447000D01*
X93095032Y-112558448D01*
X93092759Y-112632428D01*
X92829696Y-112632428D01*
X92829530Y-112596149D01*
X92829753Y-112531324D01*
X92833570Y-112380538D01*
X92844203Y-112267896D01*
X92864335Y-112184885D01*
X92896653Y-112122991D01*
X92943842Y-112073700D01*
X93008588Y-112028499D01*
X93061091Y-112002560D01*
X93185571Y-111973953D01*
X93316781Y-111977851D01*
X93433402Y-112014935D01*
X93483453Y-112039176D01*
X93508626Y-112041681D01*
X93514334Y-112019620D01*
X93514339Y-112018952D01*
X93526640Y-111996426D01*
X93569065Y-111984879D01*
X93651295Y-111981628D01*
X93788255Y-111981628D01*
X93788255Y-112599582D01*
G37*
X90002634Y-103726172D02*
X90115216Y-104323363D01*
X90530629Y-104494610D01*
X90946043Y-104665857D01*
X91444400Y-104326978D01*
X91543036Y-104260170D01*
X91673797Y-104172479D01*
X91787008Y-104097580D01*
X91876789Y-104039320D01*
X91937261Y-104001545D01*
X91962544Y-103988098D01*
X91978072Y-103997661D01*
X92024487Y-104037730D01*
X92094730Y-104103487D01*
X92182848Y-104188895D01*
X92282889Y-104287915D01*
X92388902Y-104394509D01*
X92494935Y-104502640D01*
X92595035Y-104606268D01*
X92683251Y-104699358D01*
X92753632Y-104775869D01*
X92800225Y-104829765D01*
X92817079Y-104855007D01*
X92813158Y-104865852D01*
X92786012Y-104914228D01*
X92736439Y-104993842D01*
X92668459Y-105098454D01*
X92586091Y-105221822D01*
X92493353Y-105357706D01*
X92442460Y-105431815D01*
X92354912Y-105560835D01*
X92279853Y-105673434D01*
X92221285Y-105763505D01*
X92183209Y-105824942D01*
X92169628Y-105851640D01*
X92169851Y-105853119D01*
X92181831Y-105886962D01*
X92209316Y-105956071D01*
X92248474Y-106051416D01*
X92295474Y-106163972D01*
X92346485Y-106284710D01*
X92397676Y-106404602D01*
X92445215Y-106514622D01*
X92485271Y-106605740D01*
X92514013Y-106668931D01*
X92527610Y-106695165D01*
X92535655Y-106697492D01*
X92584535Y-106707988D01*
X92671652Y-106725376D01*
X92790033Y-106748295D01*
X92932704Y-106775389D01*
X93092692Y-106805296D01*
X93177015Y-106821153D01*
X93331783Y-106851407D01*
X93467104Y-106879347D01*
X93575582Y-106903369D01*
X93649820Y-106921868D01*
X93682422Y-106933238D01*
X93688278Y-106944511D01*
X93697992Y-106999586D01*
X93705624Y-107091317D01*
X93711180Y-107211073D01*
X93714666Y-107350221D01*
X93716087Y-107500131D01*
X93715450Y-107652172D01*
X93712760Y-107797712D01*
X93708024Y-107928121D01*
X93701247Y-108034766D01*
X93692436Y-108109018D01*
X93681595Y-108142245D01*
X93675017Y-108145993D01*
X93625955Y-108162069D01*
X93540847Y-108183338D01*
X93429529Y-108207472D01*
X93301840Y-108232143D01*
X93258757Y-108240000D01*
X93059773Y-108276542D01*
X92903388Y-108305910D01*
X92784183Y-108329321D01*
X92696737Y-108347994D01*
X92635628Y-108363146D01*
X92595435Y-108375995D01*
X92570738Y-108387758D01*
X92556116Y-108399653D01*
X92554416Y-108401649D01*
X92530504Y-108443271D01*
X92495119Y-108519430D01*
X92451692Y-108621193D01*
X92403651Y-108739624D01*
X92354425Y-108865789D01*
X92307445Y-108990754D01*
X92266140Y-109105584D01*
X92233939Y-109201344D01*
X92214271Y-109269100D01*
X92210565Y-109299917D01*
X92213043Y-109303915D01*
X92238689Y-109342584D01*
X92286920Y-109413907D01*
X92353262Y-109511314D01*
X92433245Y-109628234D01*
X92522397Y-109758098D01*
X92546865Y-109793828D01*
X92632903Y-109921990D01*
X92707258Y-110036608D01*
X92765688Y-110130887D01*
X92803947Y-110198029D01*
X92817792Y-110231235D01*
X92814809Y-110239965D01*
X92783711Y-110282982D01*
X92722355Y-110353230D01*
X92635137Y-110445979D01*
X92526449Y-110556502D01*
X92400685Y-110680071D01*
X92328800Y-110749235D01*
X92215139Y-110856957D01*
X92115657Y-110949225D01*
X92035695Y-111021181D01*
X91980595Y-111067968D01*
X91955698Y-111084727D01*
X91938593Y-111078515D01*
X91885929Y-111049126D01*
X91809449Y-111001063D01*
X91719129Y-110940412D01*
X91654911Y-110896153D01*
X91526705Y-110808261D01*
X91389894Y-110714915D01*
X91264932Y-110630091D01*
X91020137Y-110464515D01*
X90814649Y-110575620D01*
X90766263Y-110601265D01*
X90678270Y-110645130D01*
X90610223Y-110675414D01*
X90573856Y-110686706D01*
X90561954Y-110672205D01*
X90532400Y-110616992D01*
X90488748Y-110525962D01*
X90433426Y-110404892D01*
X90368863Y-110259559D01*
X90297489Y-110095741D01*
X90221732Y-109919213D01*
X90144022Y-109735753D01*
X90066786Y-109551138D01*
X89992456Y-109371146D01*
X89923458Y-109201552D01*
X89862223Y-109048135D01*
X89811179Y-108916670D01*
X89772755Y-108812936D01*
X89749380Y-108742709D01*
X89743483Y-108711766D01*
X89743883Y-108710862D01*
X89771349Y-108682257D01*
X89828799Y-108637457D01*
X89904373Y-108585751D01*
X89928227Y-108569962D01*
X90109734Y-108420174D01*
X90259953Y-108241767D01*
X90375327Y-108042165D01*
X90452299Y-107828797D01*
X90487314Y-107609087D01*
X90476813Y-107390462D01*
X90434277Y-107196011D01*
X90357903Y-106999657D01*
X90246565Y-106824484D01*
X90093774Y-106658082D01*
X90033739Y-106604924D01*
X89839658Y-106473951D01*
X89629999Y-106385744D01*
X89410837Y-106339512D01*
X89188247Y-106334467D01*
X88968307Y-106369820D01*
X88757090Y-106444779D01*
X88560673Y-106558557D01*
X88385132Y-106710363D01*
X88236542Y-106899409D01*
X88207974Y-106946224D01*
X88110873Y-107160204D01*
X88059303Y-107383026D01*
X88051914Y-107608922D01*
X88087355Y-107832119D01*
X88164276Y-108046847D01*
X88281326Y-108247336D01*
X88437155Y-108427814D01*
X88630413Y-108582510D01*
X88636689Y-108586679D01*
X88711461Y-108639370D01*
X88767504Y-108684169D01*
X88793100Y-108711766D01*
X88789870Y-108733402D01*
X88769790Y-108796399D01*
X88734184Y-108894038D01*
X88685480Y-109020542D01*
X88626108Y-109170132D01*
X88558494Y-109337030D01*
X88485066Y-109515457D01*
X88408254Y-109699636D01*
X88330484Y-109883787D01*
X88254185Y-110062133D01*
X88181784Y-110228895D01*
X88115710Y-110378294D01*
X88058391Y-110504554D01*
X88012255Y-110601894D01*
X87979730Y-110664538D01*
X87963243Y-110686706D01*
X87949533Y-110683703D01*
X87895670Y-110662126D01*
X87816064Y-110624293D01*
X87722449Y-110575620D01*
X87516962Y-110464515D01*
X87272167Y-110630091D01*
X87199845Y-110679120D01*
X87065326Y-110770729D01*
X86931215Y-110862485D01*
X86817970Y-110940412D01*
X86755470Y-110982881D01*
X86674239Y-111035644D01*
X86614009Y-111071765D01*
X86584591Y-111085157D01*
X86571953Y-111079471D01*
X86526267Y-111044645D01*
X86455838Y-110983329D01*
X86366796Y-110901554D01*
X86265272Y-110805351D01*
X86157394Y-110700751D01*
X86049295Y-110593786D01*
X85947103Y-110490485D01*
X85856950Y-110396882D01*
X85784964Y-110319006D01*
X85737278Y-110262889D01*
X85720020Y-110234562D01*
X85721015Y-110229172D01*
X85741555Y-110185304D01*
X85785434Y-110109407D01*
X85848412Y-110008336D01*
X85926247Y-109888948D01*
X86014701Y-109758098D01*
X86039509Y-109722005D01*
X86126618Y-109595000D01*
X86203347Y-109482718D01*
X86265224Y-109391730D01*
X86307777Y-109328606D01*
X86326534Y-109299917D01*
X86326995Y-109298687D01*
X86321459Y-109263588D01*
X86300320Y-109192484D01*
X86267005Y-109094310D01*
X86224945Y-108978002D01*
X86177570Y-108852493D01*
X86128308Y-108726718D01*
X86080589Y-108609612D01*
X86037842Y-108510110D01*
X86003497Y-108437145D01*
X85980983Y-108399653D01*
X85978728Y-108397325D01*
X85962608Y-108385549D01*
X85935383Y-108373673D01*
X85891633Y-108360481D01*
X85825935Y-108344754D01*
X85732870Y-108325274D01*
X85607016Y-108300824D01*
X85442953Y-108270186D01*
X85235259Y-108232143D01*
X85192181Y-108224136D01*
X85068777Y-108199384D01*
X84964972Y-108175933D01*
X84890601Y-108156110D01*
X84855504Y-108142245D01*
X84849632Y-108130677D01*
X84839842Y-108075110D01*
X84832085Y-107982990D01*
X84826365Y-107862951D01*
X84822689Y-107723622D01*
X84821062Y-107573635D01*
X84821491Y-107421621D01*
X84823982Y-107276212D01*
X84828540Y-107146037D01*
X84835171Y-107039730D01*
X84843881Y-106965919D01*
X84854677Y-106933238D01*
X84865699Y-106928410D01*
X84920531Y-106913191D01*
X85013213Y-106891666D01*
X85136351Y-106865439D01*
X85282548Y-106836114D01*
X85444406Y-106805296D01*
X85532784Y-106788831D01*
X85684259Y-106760279D01*
X85814640Y-106735277D01*
X85916954Y-106715185D01*
X85984228Y-106701362D01*
X86009489Y-106695165D01*
X86010438Y-106693888D01*
X86026526Y-106661437D01*
X86057194Y-106593452D01*
X86098611Y-106498954D01*
X86146941Y-106386964D01*
X86198354Y-106266500D01*
X86249014Y-106146584D01*
X86295089Y-106036235D01*
X86332746Y-105944473D01*
X86358151Y-105880319D01*
X86367471Y-105852792D01*
X86363360Y-105843106D01*
X86336000Y-105797018D01*
X86286370Y-105719440D01*
X86218460Y-105616461D01*
X86136255Y-105494167D01*
X86043746Y-105358646D01*
X85992991Y-105284429D01*
X85905403Y-105154309D01*
X85830306Y-105040112D01*
X85771707Y-104948066D01*
X85733609Y-104884398D01*
X85720020Y-104855337D01*
X85729462Y-104839573D01*
X85768960Y-104792471D01*
X85833758Y-104721186D01*
X85917909Y-104631760D01*
X86015464Y-104530232D01*
X86120474Y-104422643D01*
X86226993Y-104315034D01*
X86329071Y-104213445D01*
X86420760Y-104123917D01*
X86496112Y-104052489D01*
X86549180Y-104005203D01*
X86574014Y-103988098D01*
X86587799Y-103994749D01*
X86638418Y-104025592D01*
X86720105Y-104078083D01*
X86826972Y-104148375D01*
X86953132Y-104232622D01*
X87092698Y-104326978D01*
X87591056Y-104665857D01*
X88006469Y-104494610D01*
X88421883Y-104323363D01*
X88534465Y-103726172D01*
X88647048Y-103128980D01*
X89890051Y-103128980D01*
X90002634Y-103726172D01*
G36*
X90002634Y-103726172D02*
G01*
X90115216Y-104323363D01*
X90530629Y-104494610D01*
X90946043Y-104665857D01*
X91444400Y-104326978D01*
X91543036Y-104260170D01*
X91673797Y-104172479D01*
X91787008Y-104097580D01*
X91876789Y-104039320D01*
X91937261Y-104001545D01*
X91962544Y-103988098D01*
X91978072Y-103997661D01*
X92024487Y-104037730D01*
X92094730Y-104103487D01*
X92182848Y-104188895D01*
X92282889Y-104287915D01*
X92388902Y-104394509D01*
X92494935Y-104502640D01*
X92595035Y-104606268D01*
X92683251Y-104699358D01*
X92753632Y-104775869D01*
X92800225Y-104829765D01*
X92817079Y-104855007D01*
X92813158Y-104865852D01*
X92786012Y-104914228D01*
X92736439Y-104993842D01*
X92668459Y-105098454D01*
X92586091Y-105221822D01*
X92493353Y-105357706D01*
X92442460Y-105431815D01*
X92354912Y-105560835D01*
X92279853Y-105673434D01*
X92221285Y-105763505D01*
X92183209Y-105824942D01*
X92169628Y-105851640D01*
X92169851Y-105853119D01*
X92181831Y-105886962D01*
X92209316Y-105956071D01*
X92248474Y-106051416D01*
X92295474Y-106163972D01*
X92346485Y-106284710D01*
X92397676Y-106404602D01*
X92445215Y-106514622D01*
X92485271Y-106605740D01*
X92514013Y-106668931D01*
X92527610Y-106695165D01*
X92535655Y-106697492D01*
X92584535Y-106707988D01*
X92671652Y-106725376D01*
X92790033Y-106748295D01*
X92932704Y-106775389D01*
X93092692Y-106805296D01*
X93177015Y-106821153D01*
X93331783Y-106851407D01*
X93467104Y-106879347D01*
X93575582Y-106903369D01*
X93649820Y-106921868D01*
X93682422Y-106933238D01*
X93688278Y-106944511D01*
X93697992Y-106999586D01*
X93705624Y-107091317D01*
X93711180Y-107211073D01*
X93714666Y-107350221D01*
X93716087Y-107500131D01*
X93715450Y-107652172D01*
X93712760Y-107797712D01*
X93708024Y-107928121D01*
X93701247Y-108034766D01*
X93692436Y-108109018D01*
X93681595Y-108142245D01*
X93675017Y-108145993D01*
X93625955Y-108162069D01*
X93540847Y-108183338D01*
X93429529Y-108207472D01*
X93301840Y-108232143D01*
X93258757Y-108240000D01*
X93059773Y-108276542D01*
X92903388Y-108305910D01*
X92784183Y-108329321D01*
X92696737Y-108347994D01*
X92635628Y-108363146D01*
X92595435Y-108375995D01*
X92570738Y-108387758D01*
X92556116Y-108399653D01*
X92554416Y-108401649D01*
X92530504Y-108443271D01*
X92495119Y-108519430D01*
X92451692Y-108621193D01*
X92403651Y-108739624D01*
X92354425Y-108865789D01*
X92307445Y-108990754D01*
X92266140Y-109105584D01*
X92233939Y-109201344D01*
X92214271Y-109269100D01*
X92210565Y-109299917D01*
X92213043Y-109303915D01*
X92238689Y-109342584D01*
X92286920Y-109413907D01*
X92353262Y-109511314D01*
X92433245Y-109628234D01*
X92522397Y-109758098D01*
X92546865Y-109793828D01*
X92632903Y-109921990D01*
X92707258Y-110036608D01*
X92765688Y-110130887D01*
X92803947Y-110198029D01*
X92817792Y-110231235D01*
X92814809Y-110239965D01*
X92783711Y-110282982D01*
X92722355Y-110353230D01*
X92635137Y-110445979D01*
X92526449Y-110556502D01*
X92400685Y-110680071D01*
X92328800Y-110749235D01*
X92215139Y-110856957D01*
X92115657Y-110949225D01*
X92035695Y-111021181D01*
X91980595Y-111067968D01*
X91955698Y-111084727D01*
X91938593Y-111078515D01*
X91885929Y-111049126D01*
X91809449Y-111001063D01*
X91719129Y-110940412D01*
X91654911Y-110896153D01*
X91526705Y-110808261D01*
X91389894Y-110714915D01*
X91264932Y-110630091D01*
X91020137Y-110464515D01*
X90814649Y-110575620D01*
X90766263Y-110601265D01*
X90678270Y-110645130D01*
X90610223Y-110675414D01*
X90573856Y-110686706D01*
X90561954Y-110672205D01*
X90532400Y-110616992D01*
X90488748Y-110525962D01*
X90433426Y-110404892D01*
X90368863Y-110259559D01*
X90297489Y-110095741D01*
X90221732Y-109919213D01*
X90144022Y-109735753D01*
X90066786Y-109551138D01*
X89992456Y-109371146D01*
X89923458Y-109201552D01*
X89862223Y-109048135D01*
X89811179Y-108916670D01*
X89772755Y-108812936D01*
X89749380Y-108742709D01*
X89743483Y-108711766D01*
X89743883Y-108710862D01*
X89771349Y-108682257D01*
X89828799Y-108637457D01*
X89904373Y-108585751D01*
X89928227Y-108569962D01*
X90109734Y-108420174D01*
X90259953Y-108241767D01*
X90375327Y-108042165D01*
X90452299Y-107828797D01*
X90487314Y-107609087D01*
X90476813Y-107390462D01*
X90434277Y-107196011D01*
X90357903Y-106999657D01*
X90246565Y-106824484D01*
X90093774Y-106658082D01*
X90033739Y-106604924D01*
X89839658Y-106473951D01*
X89629999Y-106385744D01*
X89410837Y-106339512D01*
X89188247Y-106334467D01*
X88968307Y-106369820D01*
X88757090Y-106444779D01*
X88560673Y-106558557D01*
X88385132Y-106710363D01*
X88236542Y-106899409D01*
X88207974Y-106946224D01*
X88110873Y-107160204D01*
X88059303Y-107383026D01*
X88051914Y-107608922D01*
X88087355Y-107832119D01*
X88164276Y-108046847D01*
X88281326Y-108247336D01*
X88437155Y-108427814D01*
X88630413Y-108582510D01*
X88636689Y-108586679D01*
X88711461Y-108639370D01*
X88767504Y-108684169D01*
X88793100Y-108711766D01*
X88789870Y-108733402D01*
X88769790Y-108796399D01*
X88734184Y-108894038D01*
X88685480Y-109020542D01*
X88626108Y-109170132D01*
X88558494Y-109337030D01*
X88485066Y-109515457D01*
X88408254Y-109699636D01*
X88330484Y-109883787D01*
X88254185Y-110062133D01*
X88181784Y-110228895D01*
X88115710Y-110378294D01*
X88058391Y-110504554D01*
X88012255Y-110601894D01*
X87979730Y-110664538D01*
X87963243Y-110686706D01*
X87949533Y-110683703D01*
X87895670Y-110662126D01*
X87816064Y-110624293D01*
X87722449Y-110575620D01*
X87516962Y-110464515D01*
X87272167Y-110630091D01*
X87199845Y-110679120D01*
X87065326Y-110770729D01*
X86931215Y-110862485D01*
X86817970Y-110940412D01*
X86755470Y-110982881D01*
X86674239Y-111035644D01*
X86614009Y-111071765D01*
X86584591Y-111085157D01*
X86571953Y-111079471D01*
X86526267Y-111044645D01*
X86455838Y-110983329D01*
X86366796Y-110901554D01*
X86265272Y-110805351D01*
X86157394Y-110700751D01*
X86049295Y-110593786D01*
X85947103Y-110490485D01*
X85856950Y-110396882D01*
X85784964Y-110319006D01*
X85737278Y-110262889D01*
X85720020Y-110234562D01*
X85721015Y-110229172D01*
X85741555Y-110185304D01*
X85785434Y-110109407D01*
X85848412Y-110008336D01*
X85926247Y-109888948D01*
X86014701Y-109758098D01*
X86039509Y-109722005D01*
X86126618Y-109595000D01*
X86203347Y-109482718D01*
X86265224Y-109391730D01*
X86307777Y-109328606D01*
X86326534Y-109299917D01*
X86326995Y-109298687D01*
X86321459Y-109263588D01*
X86300320Y-109192484D01*
X86267005Y-109094310D01*
X86224945Y-108978002D01*
X86177570Y-108852493D01*
X86128308Y-108726718D01*
X86080589Y-108609612D01*
X86037842Y-108510110D01*
X86003497Y-108437145D01*
X85980983Y-108399653D01*
X85978728Y-108397325D01*
X85962608Y-108385549D01*
X85935383Y-108373673D01*
X85891633Y-108360481D01*
X85825935Y-108344754D01*
X85732870Y-108325274D01*
X85607016Y-108300824D01*
X85442953Y-108270186D01*
X85235259Y-108232143D01*
X85192181Y-108224136D01*
X85068777Y-108199384D01*
X84964972Y-108175933D01*
X84890601Y-108156110D01*
X84855504Y-108142245D01*
X84849632Y-108130677D01*
X84839842Y-108075110D01*
X84832085Y-107982990D01*
X84826365Y-107862951D01*
X84822689Y-107723622D01*
X84821062Y-107573635D01*
X84821491Y-107421621D01*
X84823982Y-107276212D01*
X84828540Y-107146037D01*
X84835171Y-107039730D01*
X84843881Y-106965919D01*
X84854677Y-106933238D01*
X84865699Y-106928410D01*
X84920531Y-106913191D01*
X85013213Y-106891666D01*
X85136351Y-106865439D01*
X85282548Y-106836114D01*
X85444406Y-106805296D01*
X85532784Y-106788831D01*
X85684259Y-106760279D01*
X85814640Y-106735277D01*
X85916954Y-106715185D01*
X85984228Y-106701362D01*
X86009489Y-106695165D01*
X86010438Y-106693888D01*
X86026526Y-106661437D01*
X86057194Y-106593452D01*
X86098611Y-106498954D01*
X86146941Y-106386964D01*
X86198354Y-106266500D01*
X86249014Y-106146584D01*
X86295089Y-106036235D01*
X86332746Y-105944473D01*
X86358151Y-105880319D01*
X86367471Y-105852792D01*
X86363360Y-105843106D01*
X86336000Y-105797018D01*
X86286370Y-105719440D01*
X86218460Y-105616461D01*
X86136255Y-105494167D01*
X86043746Y-105358646D01*
X85992991Y-105284429D01*
X85905403Y-105154309D01*
X85830306Y-105040112D01*
X85771707Y-104948066D01*
X85733609Y-104884398D01*
X85720020Y-104855337D01*
X85729462Y-104839573D01*
X85768960Y-104792471D01*
X85833758Y-104721186D01*
X85917909Y-104631760D01*
X86015464Y-104530232D01*
X86120474Y-104422643D01*
X86226993Y-104315034D01*
X86329071Y-104213445D01*
X86420760Y-104123917D01*
X86496112Y-104052489D01*
X86549180Y-104005203D01*
X86574014Y-103988098D01*
X86587799Y-103994749D01*
X86638418Y-104025592D01*
X86720105Y-104078083D01*
X86826972Y-104148375D01*
X86953132Y-104232622D01*
X87092698Y-104326978D01*
X87591056Y-104665857D01*
X88006469Y-104494610D01*
X88421883Y-104323363D01*
X88534465Y-103726172D01*
X88647048Y-103128980D01*
X89890051Y-103128980D01*
X90002634Y-103726172D01*
G37*
%TD*%
M02*
