M48
; DRILL file {KiCad (6.0.0)} date Mon Jun 19 18:06:39 2023
; FORMAT={-:-/ absolute / inch / decimal}
; #@! TF.CreationDate,2023-06-19T18:06:39-05:00
; #@! TF.GenerationSoftware,Kicad,Pcbnew,(6.0.0)
; #@! TF.FileFunction,Plated,1,4,PTH
FMAT,2
INCH
; #@! TA.AperFunction,Plated,PTH,ViaDrill
T1C0.0157
; #@! TA.AperFunction,Plated,PTH,ComponentDrill
T2C0.0394
; #@! TA.AperFunction,Plated,PTH,ComponentDrill
T3C0.0866
%
G90
G05
T1
X2.7902Y-4.4854
X2.8465Y-4.2972
X2.85Y-4.15
X2.8965Y-4.4744
X2.94Y-4.675
X2.9652Y-4.4348
X2.9678Y-4.2941
X2.975Y-3.645
X3.0Y-4.15
X3.055Y-3.57
X3.0871Y-4.2352
X3.105Y-3.56
X3.1314Y-4.38
X3.1319Y-4.5779
X3.1398Y-4.9712
X3.1552Y-4.3297
X3.1611Y-4.1468
X3.175Y-3.78
X3.2126Y-4.3346
X3.226Y-4.05
X3.2374Y-4.5421
X3.2674Y-3.9232
X3.275Y-4.585
X3.2859Y-4.1791
X3.3Y-4.8427
X3.32Y-3.495
X3.3225Y-3.9224
X3.345Y-3.825
X3.345Y-4.58
X3.3465Y-4.4689
X3.3717Y-4.8448
X3.38Y-3.655
X3.3847Y-5.0421
X3.4284Y-4.4456
X3.4665Y-3.6148
X3.52Y-4.94
X3.54Y-3.505
X3.5559Y-4.8787
X3.5659Y-3.8115
X3.585Y-3.65
X3.5957Y-4.4157
X3.5985Y-3.9419
X3.6Y-4.875
X3.69Y-4.605
X3.7455Y-4.892
X3.775Y-3.505
X3.8544Y-3.8744
X3.875Y-4.64
X3.9067Y-3.5047
X3.91Y-4.575
X3.915Y-4.365
X3.945Y-4.88
X3.95Y-3.665
X4.015Y-4.835
X4.025Y-4.645
X4.03Y-4.33
X4.0349Y-4.3889
X4.065Y-3.825
X4.0824Y-4.3753
X4.135Y-4.7
X4.1681Y-4.3641
X4.1941Y-4.107
X4.2Y-4.165
X4.21Y-4.54
X4.21Y-4.64
X4.215Y-4.225
X4.235Y-4.145
X4.24Y-3.865
X4.2571Y-4.3165
X4.2582Y-4.2557
X4.285Y-3.92
X4.315Y-4.395
T2
X3.0699Y-4.7885
X3.1406Y-4.8592
X3.2113Y-4.9299
X3.282Y-5.0006
X3.9938Y-3.58
X4.0645Y-3.6507
X4.1352Y-3.7214
X4.2059Y-3.7921
T3
X2.84Y-3.8408
X4.08Y-4.5558
T0
M30
